<svg xmlns="http://www.w3.org/2000/svg" width="920" height="520" viewBox="0 0 920 520">
<rect width="100%" height="100%" fill="white"/>
<text x="460.0" y="24" font-family="Times New Roman" font-size="24" text-anchor="middle">EMB native position residual</text>
<line x1="112" y1="434" x2="888" y2="434" stroke="#333"/>
<line x1="112" y1="60" x2="112" y2="434" stroke="#333"/>
<line x1="112" y1="434.00" x2="888" y2="434.00" stroke="#ddd"/>
<text x="104" y="438.00" font-family="Times New Roman" font-size="17" text-anchor="end">0</text>
<line x1="112" y1="340.50" x2="888" y2="340.50" stroke="#ddd"/>
<text x="104" y="344.50" font-family="Times New Roman" font-size="17" text-anchor="end">0.1205</text>
<line x1="112" y1="247.00" x2="888" y2="247.00" stroke="#ddd"/>
<text x="104" y="251.00" font-family="Times New Roman" font-size="17" text-anchor="end">0.241</text>
<line x1="112" y1="153.50" x2="888" y2="153.50" stroke="#ddd"/>
<text x="104" y="157.50" font-family="Times New Roman" font-size="17" text-anchor="end">0.3615</text>
<line x1="112" y1="60.00" x2="888" y2="60.00" stroke="#ddd"/>
<text x="104" y="64.00" font-family="Times New Roman" font-size="17" text-anchor="end">0.4819</text>
<line x1="112.00" y1="434" x2="112.00" y2="439" stroke="#333"/>
<text x="112.00" y="456" font-family="Times New Roman" font-size="17" text-anchor="middle">2378495</text>
<line x1="306.00" y1="434" x2="306.00" y2="439" stroke="#333"/>
<text x="306.00" y="456" font-family="Times New Roman" font-size="17" text-anchor="middle">2433282</text>
<line x1="500.00" y1="434" x2="500.00" y2="439" stroke="#333"/>
<text x="500.00" y="456" font-family="Times New Roman" font-size="17" text-anchor="middle">2488070</text>
<line x1="694.00" y1="434" x2="694.00" y2="439" stroke="#333"/>
<text x="694.00" y="456" font-family="Times New Roman" font-size="17" text-anchor="middle">2542858</text>
<line x1="888.00" y1="434" x2="888.00" y2="439" stroke="#333"/>
<text x="888.00" y="456" font-family="Times New Roman" font-size="17" text-anchor="middle">2597645</text>
<polyline points="112.00,369.58 112.03,383.13 112.12,389.12 112.27,408.34 112.45,366.25 112.65,362.35 112.84,420.64 113.03,417.70 113.17,376.84 113.26,425.11 113.29,305.60 113.32,272.58 113.41,262.54 113.56,323.20 113.74,225.14 113.94,200.82 114.14,254.35 114.32,303.71 114.46,346.46 114.55,395.47 114.58,409.03 114.61,391.15 114.71,347.21 114.85,367.35 115.03,408.77 115.23,366.81 115.43,366.82 115.61,383.19 115.75,381.21 115.85,408.80 115.88,367.89 115.91,365.39 116.00,368.86 116.14,358.71 116.33,383.79 116.52,379.91 116.73,367.91 116.91,421.81 117.05,406.73 117.14,393.26 117.17,314.31 117.20,340.69 117.29,268.27 117.44,355.42 117.62,253.13 117.82,199.93 118.02,266.17 118.20,386.48 118.34,253.50 118.43,233.27 118.46,402.67 118.49,419.49 118.59,401.28 118.73,378.62 118.91,372.86 119.11,379.78 119.31,398.60 119.49,394.12 119.64,414.64 119.73,394.49 119.76,365.72 119.79,333.38 119.88,334.56 120.03,332.13 120.21,371.00 120.41,322.66 120.61,337.15 120.79,362.84 120.93,386.23 121.02,370.21 121.05,356.16 121.08,371.97 121.17,387.06 121.32,356.92 121.50,376.37 121.70,328.61 121.90,311.02 122.08,309.74 122.22,318.78 122.31,374.87 122.34,401.77 122.37,378.42 122.47,381.10 122.61,406.75 122.79,348.18 122.99,398.75 123.19,407.60 123.38,393.88 123.52,392.63 123.61,407.57 123.64,329.94 123.67,379.50 123.76,227.86 123.91,244.62 124.09,223.58 124.29,289.09 124.49,268.74 124.67,365.51 124.81,362.89 124.90,255.24 124.93,405.53 124.96,381.80 125.06,374.88 125.20,373.41 125.38,413.51 125.58,384.94 125.78,371.33 125.96,377.09 126.10,368.24 126.19,370.77 126.22,402.56 126.25,401.09 126.35,413.36 126.49,361.29 126.68,391.23 126.88,399.14 127.07,392.19 127.26,350.15 127.40,372.75 127.49,380.86 127.52,295.07 127.55,397.78 127.64,232.94 127.79,357.87 127.97,375.45 128.17,242.56 128.37,277.31 128.55,307.40 128.69,344.06 128.78,323.06 128.81,405.88 128.84,392.39 128.94,370.28 129.08,389.08 129.26,380.96 129.46,361.66 129.66,378.31 129.84,373.41 129.98,414.19 130.07,359.19 130.10,363.64 130.14,398.67 130.23,327.90 130.37,328.98 130.56,371.70 130.76,356.98 130.96,404.36 131.14,396.76 131.28,364.98 131.37,409.24 131.40,389.35 131.43,390.72 131.52,394.13 131.67,334.87 131.85,387.37 132.05,392.28 132.25,304.57 132.43,329.36 132.57,362.54 132.66,348.79 132.69,409.81 132.72,370.99 132.82,366.98 132.96,364.16 133.14,393.65 133.34,410.90 133.54,408.95 133.72,389.69 133.87,369.37 133.95,366.97 133.98,353.97 134.02,348.03 134.11,219.72 134.26,221.79 134.44,187.36 134.64,205.02 134.84,206.98 135.02,322.55 135.16,370.03 135.25,276.95 135.28,399.68 135.31,383.03 135.40,401.59 135.55,405.00 135.73,356.55 135.93,355.24 136.13,359.76 136.31,358.79 136.45,360.74 136.54,388.23 136.57,391.81 136.60,384.58 136.70,403.28 136.84,425.59 137.02,378.23 137.23,380.18 137.42,393.27 137.60,367.50 137.75,370.51 137.83,392.85 137.86,316.20 137.90,359.40 137.99,249.25 138.14,299.40 138.32,261.31 138.52,248.16 138.72,216.79 138.90,261.17 139.04,275.18 139.13,372.27 139.16,409.59 139.19,369.04 139.28,405.88 139.43,402.89 139.61,393.87 139.81,385.44 140.01,377.13 140.19,369.15 140.33,416.72 140.42,413.47 140.45,392.48 140.48,366.44 140.58,352.53 140.72,387.68 140.90,325.92 141.11,357.20 141.30,383.77 141.49,331.54 141.63,362.94 141.72,342.75 141.74,396.47 141.78,385.77 141.87,343.65 142.02,386.25 142.20,363.27 142.40,404.69 142.60,349.20 142.78,335.62 142.92,371.92 143.01,336.61 143.04,383.97 143.07,372.93 143.16,406.67 143.31,374.37 143.49,405.38 143.69,418.05 143.89,374.01 144.07,382.64 144.21,377.36 144.30,384.20 144.33,303.92 144.36,329.74 144.46,340.78 144.60,192.52 144.79,185.06 144.99,176.46 145.19,220.42 145.37,238.38 145.51,332.60 145.60,277.90 145.62,373.33 145.66,393.08 145.75,394.82 145.90,379.33 146.08,383.84 146.28,366.63 146.48,411.72 146.66,415.09 146.80,371.67 146.89,413.00 146.92,384.59 146.95,384.70 147.04,386.31 147.19,387.12 147.37,413.59 147.57,391.47 147.78,384.40 147.95,391.57 148.09,368.93 148.18,396.60 148.21,290.48 148.24,375.50 148.34,283.39 148.49,273.12 148.67,317.20 148.87,251.06 149.07,199.65 149.25,299.22 149.39,361.95 149.48,403.80 149.50,383.18 149.54,411.32 149.63,359.43 149.78,410.11 149.96,350.90 150.16,373.03 150.36,371.06 150.54,397.13 150.68,357.80 150.77,412.61 150.80,385.18 150.83,402.21 150.92,347.34 151.07,318.99 151.25,335.98 151.46,361.38 151.66,354.15 151.83,357.62 151.97,361.27 152.06,355.69 152.09,412.40 152.12,359.32 152.22,347.45 152.37,366.76 152.55,343.73 152.75,401.42 152.95,370.94 153.13,365.92 153.27,340.34 153.36,332.52 153.38,367.25 153.42,377.68 153.51,409.67 153.66,375.90 153.84,375.18 154.04,373.11 154.24,386.42 154.42,385.82 154.56,381.61 154.65,390.80 154.68,290.05 154.71,308.98 154.81,303.56 154.95,184.56 155.13,212.30 155.34,185.45 155.54,222.88 155.72,382.85 155.86,299.05 155.94,314.91 155.97,402.18 156.00,392.05 156.10,393.05 156.25,348.96 156.43,393.46 156.63,362.56 156.83,410.98 157.01,371.59 157.15,414.62 157.24,370.58 157.26,406.53 157.30,386.88 157.39,406.53 157.54,377.65 157.72,386.82 157.92,407.15 158.12,417.51 158.30,363.94 158.44,421.81 158.53,415.70 158.56,302.08 158.59,333.89 158.69,276.87 158.83,271.69 159.02,277.39 159.22,215.42 159.42,187.15 159.60,251.44 159.74,318.04 159.82,379.52 159.85,393.92 159.89,393.22 159.98,396.19 160.13,385.09 160.31,382.17 160.51,366.26 160.71,359.06 160.89,366.86 161.03,395.23 161.12,393.61 161.14,381.19 161.18,381.48 161.27,354.77 161.42,334.48 161.60,324.42 161.80,368.86 162.01,352.92 162.18,344.65 162.32,380.99 162.41,386.01 162.44,350.71 162.47,409.85 162.57,370.42 162.72,364.42 162.90,375.37 163.10,348.45 163.30,332.41 163.48,320.12 163.62,324.44 163.70,316.89 163.73,374.83 163.77,394.52 163.86,385.81 164.01,358.80 164.19,380.31 164.39,407.48 164.59,381.49 164.77,421.65 164.91,408.46 165.00,380.58 165.02,347.73 165.06,351.57 165.15,361.56 165.30,261.10 165.48,254.38 165.68,235.11 165.89,242.31 166.06,405.88 166.20,328.81 166.29,299.35 166.32,403.04 166.35,380.32 166.45,378.69 166.60,383.56 166.78,385.42 166.98,394.45 167.18,370.31 167.36,360.27 167.50,397.05 167.58,370.59 167.61,395.15 167.65,383.82 167.74,397.36 167.89,406.96 168.07,405.71 168.27,397.52 168.47,403.21 168.65,354.37 168.79,412.06 168.88,371.21 168.90,366.42 168.94,367.19 169.04,334.07 169.18,235.87 169.36,207.15 169.57,164.36 169.77,193.96 169.95,287.44 170.08,247.39 170.17,260.81 170.20,381.28 170.23,384.07 170.33,383.73 170.48,419.29 170.66,375.33 170.86,363.28 171.06,383.55 171.24,357.16 171.38,354.93 171.46,426.06 171.49,364.65 171.53,408.26 171.62,367.26 171.77,351.97 171.95,344.26 172.15,361.61 172.35,380.14 172.53,351.77 172.67,346.64 172.76,327.33 172.78,351.67 172.82,383.33 172.92,342.73 173.06,323.20 173.25,375.38 173.45,376.52 173.65,315.94 173.83,327.74 173.96,337.85 174.05,339.85 174.08,378.13 174.11,398.79 174.21,417.41 174.36,374.95 174.54,353.88 174.74,384.52 174.94,394.20 175.12,409.13 175.26,382.44 175.34,374.14 175.37,349.00 175.41,369.11 175.50,238.96 175.65,277.50 175.83,206.02 176.03,214.08 176.24,278.12 176.41,350.21 176.55,333.04 176.64,240.34 176.66,411.23 176.70,378.64 176.80,387.42 176.94,402.20 177.13,376.99 177.33,384.96 177.53,371.99 177.71,385.28 177.84,399.50 177.93,406.82 177.96,393.33 177.99,401.98 178.09,364.10 178.24,388.45 178.42,400.20 178.62,387.58 178.82,371.41 179.00,365.51 179.14,397.01 179.22,356.92 179.25,297.96 179.29,410.15 179.38,208.53 179.53,328.95 179.71,272.21 179.91,187.95 180.12,201.04 180.29,387.04 180.43,264.75 180.52,283.11 180.54,392.63 180.58,391.37 180.68,370.94 180.83,397.54 181.01,357.83 181.21,369.66 181.41,398.84 181.59,388.72 181.73,356.55 181.81,395.21 181.84,401.16 181.87,402.99 181.97,362.00 182.12,361.68 182.30,366.48 182.51,379.06 182.70,364.29 182.88,378.74 183.02,405.43 183.11,354.49 183.13,343.99 183.17,363.33 183.26,326.53 183.41,366.41 183.59,389.77 183.80,381.68 184.00,345.31 184.17,355.35 184.31,323.60 184.40,285.48 184.42,388.00 184.46,364.02 184.56,395.39 184.71,378.73 184.89,398.60 185.09,371.81 185.29,359.79 185.47,376.53 185.61,389.46 185.69,382.90 185.72,301.62 185.75,369.55 185.85,203.29 186.00,204.91 186.18,172.87 186.39,222.80 186.58,271.90 186.76,287.60 186.90,357.50 186.99,227.40 187.01,395.72 187.05,412.65 187.15,396.91 187.29,395.18 187.48,411.19 187.68,383.91 187.88,398.46 188.06,374.36 188.19,390.30 188.28,375.05 188.30,387.54 188.34,390.64 188.44,395.21 188.59,410.50 188.77,374.97 188.97,369.96 189.17,397.07 189.35,390.99 189.49,394.13 189.57,394.54 189.60,386.62 189.63,287.33 189.73,320.38 189.88,300.37 190.07,347.94 190.27,229.62 190.46,239.65 190.64,279.57 190.78,276.16 190.87,245.54 190.89,417.09 190.93,380.56 191.03,389.41 191.17,366.76 191.36,359.90 191.56,405.69 191.76,387.29 191.94,384.27 192.07,361.58 192.16,359.94 192.18,390.21 192.22,385.46 192.32,374.58 192.47,377.40 192.65,400.57 192.85,367.10 193.05,332.73 193.23,402.47 193.37,343.21 193.45,370.97 193.48,392.48 193.52,397.39 193.61,355.10 193.76,365.23 193.95,346.21 194.15,297.68 194.35,327.36 194.52,354.48 194.66,387.27 194.75,303.80 194.77,363.34 194.81,385.39 194.91,396.96 195.06,394.56 195.24,367.13 195.44,394.23 195.64,353.25 195.82,379.81 195.96,394.04 196.04,363.03 196.06,294.03 196.10,340.25 196.20,204.82 196.35,154.53 196.53,205.75 196.74,191.06 196.93,319.86 197.11,282.15 197.25,370.90 197.33,305.26 197.36,392.90 197.40,384.73 197.49,408.97 197.64,406.34 197.83,410.17 198.03,370.84 198.23,382.52 198.40,388.99 198.54,369.35 198.63,361.57 198.65,406.10 198.69,391.04 198.79,378.52 198.94,394.97 199.12,370.62 199.32,357.97 199.52,390.49 199.70,405.47 199.84,410.53 199.92,396.58 199.94,266.90 199.98,348.53 200.08,273.75 200.23,377.41 200.41,306.66 200.62,252.35 200.81,221.95 200.99,220.12 201.13,395.78 201.21,304.13 201.24,417.30 201.28,363.04 201.38,344.75 201.52,415.36 201.71,389.83 201.91,376.39 202.11,402.84 202.29,347.87 202.42,365.45 202.51,346.64 202.53,371.42 202.57,396.72 202.67,343.03 202.82,426.86 203.00,377.24 203.20,356.85 203.40,391.22 203.58,389.81 203.72,378.24 203.80,378.93 203.82,369.48 203.86,384.84 203.96,351.32 204.11,377.88 204.30,374.55 204.50,287.87 204.69,339.38 204.87,331.90 205.01,363.66 205.09,323.37 205.12,415.53 205.16,373.00 205.26,397.29 205.40,367.27 205.59,388.70 205.79,381.78 205.99,362.42 206.17,411.95 206.30,378.50 206.39,392.62 206.41,250.55 206.45,378.53 206.55,277.08 206.70,208.22 206.88,222.57 207.08,246.11 207.28,280.76 207.46,221.68 207.60,326.00 207.68,334.74 207.70,407.94 207.74,366.38 207.84,372.66 207.99,389.75 208.18,369.04 208.38,414.65 208.58,387.85 208.75,358.83 208.89,386.83 208.97,384.07 209.00,403.14 209.04,382.36 209.14,395.27 209.29,375.83 209.47,373.71 209.67,371.01 209.87,381.67 210.05,372.78 210.18,399.63 210.27,372.40 210.29,331.60 210.33,328.47 210.43,265.61 210.58,250.09 210.76,199.08 210.96,193.87 211.16,209.13 211.34,203.52 211.48,312.85 211.56,315.52 211.58,399.40 211.62,364.20 211.72,388.66 211.87,409.49 212.06,381.03 212.26,423.25 212.46,378.03 212.63,397.93 212.77,347.85 212.85,408.52 212.88,384.33 212.92,393.47 213.02,363.06 213.17,365.00 213.35,366.55 213.55,402.56 213.75,423.15 213.93,387.56 214.06,390.13 214.15,422.34 214.17,417.03 214.21,368.18 214.31,398.44 214.46,334.62 214.64,382.97 214.85,314.59 215.04,303.96 215.22,304.86 215.36,381.99 215.44,255.30 215.46,394.50 215.50,407.74 215.60,408.39 215.75,369.57 215.94,376.18 216.14,365.51 216.34,384.34 216.52,377.37 216.65,392.33 216.73,400.04 216.76,287.48 216.80,316.56 216.90,359.29 217.05,244.81 217.23,265.33 217.43,270.76 217.63,232.45 217.81,295.58 217.94,324.67 218.03,340.11 218.05,399.47 218.09,423.18 218.19,389.15 218.34,373.70 218.53,406.60 218.73,426.60 218.92,372.27 219.10,396.27 219.24,370.85 219.32,416.11 219.34,412.73 219.38,375.70 219.48,376.49 219.63,393.80 219.82,412.28 220.02,351.02 220.22,396.29 220.40,378.94 220.53,361.68 220.62,378.15 220.64,245.36 220.68,355.44 220.78,243.20 220.93,147.61 221.11,206.60 221.31,134.93 221.51,167.58 221.69,207.07 221.83,200.84 221.91,141.19 221.93,402.51 221.97,412.22 222.07,387.46 222.22,389.75 222.41,369.99 222.61,375.50 222.81,390.68 222.98,376.94 223.12,350.42 223.20,403.31 223.22,405.65 223.27,399.67 223.36,399.27 223.51,344.64 223.70,367.43 223.90,389.63 224.10,371.76 224.28,387.21 224.41,416.14 224.50,356.53 224.52,401.44 224.56,357.86 224.66,331.87 224.81,341.48 224.99,315.39 225.19,420.75 225.40,332.28 225.57,336.64 225.71,333.71 225.79,366.75 225.81,424.96 225.85,416.97 225.95,398.24 226.10,364.76 226.29,346.80 226.49,378.55 226.69,382.51 226.86,373.64 227.00,368.74 227.08,399.99 227.10,335.29 227.15,367.47 227.24,377.14 227.40,237.74 227.58,277.76 227.78,254.19 227.98,267.17 228.16,300.67 228.29,319.85 228.38,350.73 228.40,390.51 228.44,365.28 228.54,404.14 228.69,364.86 228.87,400.66 229.08,356.21 229.28,397.16 229.45,402.73 229.59,350.97 229.67,397.21 229.69,403.93 229.73,348.79 229.83,379.99 229.98,415.84 230.17,362.71 230.37,399.32 230.57,343.79 230.75,412.77 230.88,371.60 230.96,380.40 230.98,284.93 231.03,303.85 231.13,325.67 231.28,242.50 231.46,191.96 231.66,151.55 231.86,162.97 232.04,205.31 232.17,299.99 232.26,280.50 232.28,388.74 232.32,385.42 232.42,389.51 232.57,380.03 232.75,370.96 232.96,428.47 233.16,394.04 233.33,385.85 233.47,355.36 233.55,406.24 233.57,372.27 233.61,378.17 233.71,368.42 233.86,353.77 234.05,357.22 234.25,372.20 234.45,359.98 234.63,388.22 234.76,369.46 234.84,406.16 234.86,418.72 234.91,379.49 235.01,345.00 235.16,338.28 235.34,321.68 235.54,390.56 235.74,322.30 235.92,325.41 236.05,345.23 236.14,301.05 236.16,373.47 236.20,416.96 236.30,416.76 236.45,378.59 236.64,360.55 236.84,379.24 237.04,363.63 237.21,372.80 237.35,392.77 237.43,368.94 237.45,303.77 237.49,346.64 237.59,342.10 237.74,214.57 237.93,213.88 238.13,290.67 238.33,293.68 238.51,302.09 238.64,305.74 238.72,306.06 238.75,414.02 238.79,415.51 238.89,371.27 239.04,376.00 239.22,387.03 239.42,363.68 239.63,378.38 239.80,367.17 239.94,399.49 240.02,373.49 240.04,378.62 240.08,397.05 240.18,392.42 240.33,392.62 240.52,368.75 240.72,374.72 240.92,400.78 241.09,377.45 241.23,396.01 241.31,396.63 241.33,238.26 241.37,260.99 241.47,313.53 241.63,209.48 241.81,238.91 242.01,185.59 242.21,201.42 242.39,275.46 242.52,373.65 242.60,364.60 242.63,397.28 242.67,377.16 242.77,373.28 242.92,383.37 243.10,369.94 243.31,379.54 243.51,364.94 243.68,411.70 243.82,355.88 243.90,380.40 243.92,369.22 243.96,366.47 244.06,386.60 244.21,370.52 244.40,396.41 244.60,335.55 244.80,387.36 244.97,378.61 245.11,384.75 245.19,395.88 245.21,378.67 245.25,337.28 245.35,292.60 245.51,308.86 245.69,301.87 245.90,316.94 246.09,269.77 246.27,271.75 246.40,314.68 246.48,345.49 246.51,367.96 246.55,416.41 246.65,363.65 246.80,365.87 246.98,360.39 247.19,369.49 247.39,379.93 247.56,402.21 247.70,381.67 247.78,388.89 247.80,365.50 247.84,400.29 247.94,295.46 248.09,244.86 248.28,229.07 248.48,362.50 248.68,293.43 248.86,333.60 248.99,306.27 249.07,307.05 249.09,378.55 249.13,431.31 249.24,421.80 249.39,355.81 249.57,418.44 249.78,377.08 249.97,418.86 250.15,383.49 250.28,394.01 250.36,382.15 250.39,386.30 250.43,389.49 250.53,391.72 250.68,392.35 250.87,388.54 251.07,374.90 251.27,382.42 251.44,379.20 251.58,392.24 251.66,374.13 251.68,296.04 251.72,314.13 251.82,384.38 251.97,262.64 252.16,187.58 252.36,199.10 252.56,176.81 252.74,320.95 252.87,390.00 252.95,243.27 252.97,368.55 253.02,364.67 253.12,380.31 253.27,399.01 253.46,398.20 253.66,420.22 253.86,393.87 254.03,382.04 254.16,370.53 254.24,358.49 254.27,356.76 254.31,385.91 254.41,365.40 254.56,374.05 254.75,353.03 254.95,377.13 255.15,370.82 255.32,374.99 255.46,380.43 255.54,395.05 255.56,376.10 255.60,387.44 255.70,348.81 255.86,373.90 256.04,331.42 256.24,250.06 256.44,260.67 256.62,262.40 256.75,327.39 256.83,344.69 256.85,411.48 256.90,412.98 257.00,366.66 257.15,378.10 257.34,368.85 257.54,396.54 257.74,390.81 257.91,370.79 258.05,377.96 258.12,389.35 258.15,308.84 258.19,352.98 258.29,302.71 258.44,248.39 258.63,304.44 258.83,330.40 259.03,280.00 259.20,332.60 259.34,360.25 259.42,329.39 259.44,393.13 259.48,383.59 259.58,398.96 259.74,386.19 259.92,378.92 260.13,379.18 260.32,389.46 260.50,366.33 260.63,395.87 260.71,400.22 260.73,425.23 260.78,386.06 260.88,374.70 261.03,386.16 261.22,378.49 261.42,374.93 261.62,384.31 261.79,399.77 261.93,366.85 262.00,393.34 262.03,295.72 262.07,297.25 262.17,337.57 262.32,321.15 262.51,166.08 262.71,212.98 262.91,265.49 263.09,219.40 263.22,383.33 263.30,271.14 263.32,410.43 263.36,414.46 263.47,393.36 263.62,395.89 263.80,403.90 264.01,379.63 264.20,362.66 264.38,371.00 264.51,373.09 264.59,404.79 264.61,364.81 264.66,409.24 264.76,395.97 264.91,381.90 265.10,349.64 265.30,402.75 265.50,381.86 265.67,414.31 265.81,377.47 265.89,389.83 265.91,380.06 265.95,371.16 266.05,364.50 266.20,379.16 266.39,372.91 266.59,283.64 266.79,295.52 266.97,257.81 267.10,348.90 267.18,373.22 267.20,411.42 267.24,418.24 267.35,352.22 267.50,348.20 267.69,370.17 267.89,399.07 268.09,388.78 268.26,412.08 268.39,378.16 268.47,380.70 268.49,286.57 268.54,322.66 268.64,363.26 268.79,249.85 268.98,331.08 269.18,287.83 269.38,340.98 269.55,276.73 269.69,375.48 269.77,404.87 269.79,359.01 269.83,374.76 269.93,402.46 270.08,367.63 270.27,373.30 270.47,368.29 270.67,386.61 270.85,366.45 270.98,375.12 271.06,386.23 271.08,407.45 271.12,415.25 271.23,379.07 271.38,390.24 271.57,367.70 271.77,371.67 271.97,401.41 272.14,373.57 272.27,398.04 272.35,397.56 272.37,280.00 272.42,292.36 272.52,232.32 272.67,339.52 272.86,224.15 273.06,146.53 273.26,324.26 273.43,172.84 273.57,245.39 273.65,257.68 273.67,383.61 273.71,378.79 273.81,363.53 273.97,391.73 274.15,384.40 274.36,368.47 274.55,393.65 274.73,373.94 274.86,376.28 274.94,394.65 274.96,395.11 275.00,383.14 275.11,376.88 275.26,372.90 275.45,387.80 275.65,379.55 275.85,332.27 276.02,383.78 276.15,387.39 276.23,407.00 276.25,313.91 276.30,405.97 276.40,327.53 276.55,362.87 276.74,318.53 276.94,306.72 277.14,282.61 277.32,293.56 277.45,315.69 277.53,374.51 277.55,409.70 277.59,400.30 277.70,402.87 277.85,376.96 278.03,404.08 278.24,419.10 278.43,386.84 278.61,378.33 278.74,354.56 278.82,405.93 278.84,252.19 278.88,278.01 278.99,313.61 279.14,274.40 279.33,325.93 279.53,321.05 279.73,348.19 279.90,296.16 280.03,343.30 280.11,347.56 280.13,357.43 280.18,378.84 280.28,369.45 280.43,384.78 280.62,408.00 280.82,387.49 281.02,396.06 281.20,355.59 281.33,383.42 281.41,391.56 281.43,409.33 281.47,399.95 281.58,362.70 281.73,376.84 281.92,387.32 282.12,385.21 282.31,391.76 282.49,351.11 282.62,392.73 282.70,360.37 282.72,248.24 282.76,345.86 282.87,361.74 283.02,351.06 283.21,238.31 283.41,183.15 283.61,272.18 283.78,220.81 283.91,301.89 283.99,247.28 284.01,387.10 284.06,408.40 284.16,409.42 284.31,362.29 284.50,370.17 284.70,340.46 284.90,375.01 285.08,391.04 285.21,410.97 285.29,366.84 285.31,364.44 285.35,361.93 285.46,354.50 285.61,352.12 285.80,367.30 286.00,378.78 286.20,362.50 286.37,386.26 286.50,391.41 286.58,381.12 286.60,315.69 286.65,391.63 286.75,369.53 286.90,418.12 287.09,320.55 287.29,273.50 287.49,257.14 287.66,260.78 287.80,313.64 287.87,371.78 287.89,392.78 287.94,387.02 288.04,383.42 288.20,367.68 288.38,393.82 288.58,411.05 288.78,393.15 288.96,374.41 289.09,406.56 289.17,401.44 289.19,246.94 289.23,289.15 289.34,337.98 289.49,274.94 289.68,301.20 289.88,345.01 290.08,356.92 290.25,241.62 290.38,372.83 290.46,394.95 290.48,392.95 290.53,393.90 290.63,409.71 290.78,386.90 290.97,367.71 291.17,365.93 291.37,372.37 291.54,361.28 291.68,389.72 291.75,351.69 291.77,367.82 291.82,414.93 291.92,396.90 292.08,386.31 292.26,383.71 292.47,399.27 292.66,417.37 292.84,420.23 292.97,374.81 293.05,380.16 293.07,315.97 293.11,345.72 293.22,294.28 293.37,259.18 293.56,188.91 293.76,213.09 293.96,285.93 294.13,291.22 294.26,358.95 294.34,292.41 294.36,353.43 294.41,374.18 294.51,387.29 294.66,355.03 294.85,356.87 295.05,370.68 295.25,388.33 295.43,396.61 295.56,381.96 295.63,371.86 295.65,362.76 295.70,388.00 295.81,352.90 295.96,387.60 296.15,387.31 296.35,391.96 296.54,411.83 296.72,353.02 296.85,362.00 296.93,373.65 296.95,317.02 296.99,315.62 297.10,376.50 297.25,373.66 297.44,256.38 297.64,263.15 297.84,264.07 298.01,238.26 298.14,247.19 298.22,298.45 298.24,405.67 298.29,386.18 298.39,409.32 298.54,394.79 298.73,407.36 298.93,403.88 299.13,414.66 299.31,379.55 299.44,406.81 299.52,380.75 299.53,257.50 299.58,266.62 299.69,368.68 299.84,285.69 300.03,285.09 300.23,335.94 300.43,331.17 300.60,371.99 300.73,364.51 300.81,362.46 300.83,391.81 300.87,416.51 300.98,396.77 301.13,378.30 301.32,373.98 301.52,387.73 301.72,378.07 301.89,401.76 302.03,396.98 302.10,387.82 302.12,373.66 302.17,390.30 302.27,364.14 302.43,396.11 302.61,380.39 302.82,411.00 303.01,407.86 303.19,382.92 303.32,421.86 303.40,396.72 303.41,305.86 303.46,306.61 303.57,403.94 303.72,302.05 303.91,142.77 304.11,213.26 304.31,274.60 304.48,281.00 304.61,259.33 304.69,305.36 304.71,411.78 304.75,392.54 304.86,379.14 305.01,380.84 305.20,363.53 305.41,393.39 305.60,360.70 305.77,366.77 305.91,385.79 305.98,371.89 306.00,393.33 306.05,389.40 306.15,388.01 306.31,387.51 306.49,386.07 306.70,383.36 306.89,410.31 307.07,399.65 307.20,387.97 307.28,385.07 307.29,317.87 307.34,266.49 307.45,370.70 307.60,410.55 307.79,261.95 307.99,246.53 308.19,267.68 308.36,246.98 308.49,278.57 308.57,357.98 308.59,401.81 308.63,413.64 308.74,396.10 308.89,410.79 309.08,417.16 309.29,386.71 309.48,393.61 309.66,387.75 309.79,396.62 309.86,375.40 309.88,307.79 309.93,309.31 310.03,304.66 310.19,319.94 310.37,334.59 310.58,354.78 310.77,302.96 310.95,338.55 311.08,359.75 311.16,411.86 311.17,372.94 311.22,392.65 311.33,372.68 311.48,380.69 311.67,371.79 311.87,363.24 312.07,392.43 312.24,396.23 312.37,377.26 312.45,362.52 312.47,410.38 312.51,381.41 312.62,411.79 312.77,380.13 312.96,366.30 313.17,383.43 313.36,397.41 313.54,354.80 313.67,398.03 313.74,372.33 313.76,380.61 313.81,331.50 313.91,375.24 314.07,229.89 314.26,123.46 314.46,215.77 314.66,281.70 314.83,253.10 314.96,251.71 315.04,298.15 315.05,395.84 315.10,390.49 315.21,400.88 315.36,382.64 315.55,414.21 315.75,368.86 315.95,377.48 316.12,410.11 316.25,390.80 316.33,370.23 316.35,431.12 316.40,398.55 316.50,396.24 316.65,378.24 316.84,369.32 317.05,343.52 317.25,390.19 317.42,406.21 317.55,355.64 317.62,413.23 317.64,329.15 317.69,319.93 317.79,413.46 317.95,379.53 318.14,403.07 318.34,256.69 318.54,264.80 318.71,293.34 318.84,288.58 318.92,387.34 318.93,400.80 318.98,365.12 319.09,365.73 319.24,387.61 319.43,363.99 319.63,381.90 319.83,360.62 320.00,387.67 320.13,383.30 320.21,365.75 320.23,339.02 320.28,371.79 320.38,300.62 320.54,294.51 320.72,320.22 320.93,368.77 321.13,319.43 321.30,370.95 321.43,353.91 321.50,381.88 321.52,380.29 321.57,368.86 321.67,396.32 321.83,366.65 322.02,377.25 322.22,397.44 322.42,424.16 322.59,386.85 322.72,381.21 322.80,366.59 322.81,381.84 322.86,385.49 322.97,373.32 323.13,375.15 323.31,407.48 323.52,360.60 323.71,394.51 323.89,409.94 324.01,390.11 324.09,368.62 324.11,328.83 324.16,258.21 324.26,332.08 324.42,279.89 324.61,133.99 324.81,265.20 325.01,274.35 325.18,324.25 325.31,216.04 325.38,305.97 325.40,359.81 325.45,364.24 325.56,383.21 325.71,345.28 325.90,339.59 326.10,341.78 326.30,363.46 326.47,411.81 326.60,368.62 326.68,371.18 326.69,408.50 326.74,393.73 326.85,371.58 327.01,339.89 327.20,371.74 327.40,414.49 327.59,350.96 327.77,364.90 327.89,390.14 327.97,359.31 327.99,346.12 328.04,345.60 328.14,342.33 328.30,350.61 328.49,314.00 328.69,262.94 328.89,255.60 329.06,251.56 329.19,365.10 329.26,399.50 329.28,370.77 329.33,407.13 329.44,398.89 329.59,364.55 329.78,388.03 329.98,361.25 330.18,406.82 330.35,361.50 330.48,367.09 330.56,410.23 330.57,305.70 330.62,290.33 330.73,329.06 330.89,310.24 331.08,324.16 331.28,286.85 331.48,397.05 331.65,374.55 331.78,360.49 331.85,389.25 331.87,399.40 331.92,401.79 332.02,414.97 332.18,383.39 332.37,389.25 332.57,393.96 332.77,371.48 332.94,351.88 333.07,390.62 333.14,379.61 333.16,375.11 333.21,406.91 333.32,388.21 333.48,364.00 333.66,383.91 333.86,372.87 334.06,393.03 334.23,400.68 334.36,409.84 334.44,372.44 334.45,261.59 334.50,285.68 334.61,312.34 334.77,332.85 334.96,225.13 335.16,237.30 335.36,284.11 335.53,287.11 335.66,244.26 335.73,336.92 335.75,381.92 335.80,348.90 335.90,361.49 336.06,366.50 336.25,353.09 336.45,368.14 336.65,366.81 336.82,413.92 336.95,410.96 337.02,370.16 337.04,388.58 337.09,380.74 337.20,365.76 337.36,411.60 337.54,366.69 337.75,382.06 337.94,403.08 338.11,394.50 338.24,364.92 338.32,397.59 338.34,334.71 338.38,314.12 338.49,385.22 338.65,316.18 338.84,303.31 339.04,234.43 339.24,264.52 339.41,302.42 339.54,243.69 339.61,342.09 339.63,384.87 339.68,410.97 339.79,372.01 339.94,374.98 340.13,429.99 340.33,401.13 340.53,361.19 340.70,395.27 340.83,367.15 340.90,386.85 340.92,299.81 340.97,315.92 341.08,345.61 341.24,298.28 341.43,312.28 341.63,339.90 341.82,358.22 342.00,340.91 342.12,348.20 342.20,379.74 342.22,365.80 342.26,399.18 342.37,356.11 342.53,339.04 342.72,381.00 342.92,387.46 343.12,389.11 343.29,333.56 343.42,360.30 343.49,369.48 343.51,382.15 343.56,389.18 343.67,425.73 343.82,399.51 344.01,360.61 344.21,377.66 344.41,377.30 344.58,403.64 344.71,397.14 344.79,402.84 344.80,297.22 344.85,247.60 344.96,296.85 345.12,336.19 345.31,244.04 345.51,210.08 345.71,317.71 345.88,266.71 346.00,315.02 346.08,359.62 346.10,376.05 346.15,394.33 346.25,416.92 346.41,373.55 346.60,373.73 346.80,358.73 347.00,377.60 347.17,396.72 347.30,373.23 347.37,392.95 347.39,372.34 347.44,416.19 347.55,371.69 347.71,376.51 347.89,404.26 348.09,397.90 348.29,376.22 348.46,369.13 348.59,395.96 348.67,378.42 348.68,335.60 348.73,331.84 348.84,243.44 349.00,390.75 349.19,304.53 349.39,209.47 349.59,218.47 349.76,278.43 349.89,325.49 349.96,391.60 349.98,405.86 350.03,391.92 350.13,385.44 350.29,362.13 350.48,353.14 350.69,394.88 350.88,389.34 351.05,408.28 351.18,370.83 351.25,380.39 351.27,265.28 351.32,294.20 351.43,349.34 351.59,301.29 351.77,334.32 351.98,332.41 352.17,378.03 352.34,369.00 352.47,284.30 352.55,406.28 352.56,373.32 352.61,392.05 352.72,381.16 352.88,367.10 353.07,376.16 353.27,367.83 353.47,368.82 353.64,357.81 353.77,384.32 353.84,404.66 353.86,377.74 353.91,399.19 354.02,376.65 354.17,365.84 354.36,379.84 354.57,375.54 354.76,386.32 354.93,390.29 355.06,374.27 355.13,393.62 355.15,275.36 355.20,251.16 355.31,381.20 355.47,291.49 355.65,171.67 355.86,194.50 356.05,231.27 356.23,280.90 356.35,185.87 356.43,323.30 356.44,385.74 356.49,372.47 356.60,374.70 356.76,377.61 356.95,374.94 357.15,376.49 357.35,416.71 357.52,404.98 357.65,388.24 357.72,372.21 357.74,420.22 357.79,416.65 357.90,401.46 358.05,418.03 358.24,408.55 358.45,414.69 358.64,372.10 358.81,405.19 358.94,377.72 359.01,413.46 359.03,310.16 359.08,249.66 359.19,336.33 359.35,339.50 359.54,366.54 359.74,209.31 359.93,298.82 360.11,288.78 360.23,247.25 360.31,399.42 360.32,373.23 360.37,412.58 360.48,396.08 360.64,380.05 360.83,363.61 361.03,368.12 361.23,353.34 361.40,404.19 361.53,391.30 361.60,392.52 361.62,329.76 361.67,324.13 361.78,328.41 361.93,299.49 362.12,363.89 362.33,335.87 362.52,339.76 362.69,301.86 362.82,355.24 362.89,390.72 362.91,363.93 362.96,367.96 363.07,369.37 363.23,396.23 363.42,405.19 363.62,379.27 363.82,387.34 363.99,374.94 364.11,355.68 364.19,374.48 364.20,401.04 364.25,375.33 364.36,397.17 364.52,373.19 364.71,383.12 364.91,383.91 365.11,389.48 365.28,388.69 365.41,402.32 365.48,368.30 365.50,258.07 365.55,256.07 365.66,343.54 365.82,197.74 366.00,139.79 366.21,150.63 366.40,259.49 366.57,287.54 366.70,285.37 366.77,345.72 366.79,381.14 366.84,417.59 366.95,393.23 367.11,416.67 367.30,358.77 367.50,415.56 367.70,391.36 367.87,369.44 367.99,404.97 368.07,377.15 368.08,415.56 368.13,405.55 368.24,364.08 368.40,388.35 368.59,388.25 368.80,380.15 368.99,404.06 369.16,383.19 369.29,390.33 369.36,379.70 369.38,302.26 369.43,305.50 369.54,324.65 369.70,380.92 369.88,311.02 370.09,255.57 370.28,297.70 370.46,297.17 370.58,331.75 370.65,341.01 370.67,399.65 370.72,409.05 370.83,387.43 370.99,391.62 371.18,411.03 371.38,373.17 371.58,380.42 371.75,363.49 371.88,386.82 371.95,362.79 371.96,313.17 372.01,355.19 372.13,327.56 372.28,307.03 372.47,312.28 372.68,378.26 372.87,392.35 373.04,362.22 373.17,399.35 373.24,347.58 373.26,389.68 373.31,364.17 373.42,351.66 373.58,390.72 373.77,366.75 373.97,337.30 374.16,335.77 374.34,384.02 374.46,390.04 374.53,398.61 374.55,403.10 374.60,363.60 374.71,363.53 374.87,365.57 375.06,394.11 375.26,349.29 375.46,362.53 375.63,391.56 375.76,338.00 375.83,387.06 375.84,334.93 375.90,324.11 376.01,290.11 376.16,331.89 376.35,180.27 376.56,208.43 376.75,283.10 376.92,308.36 377.05,316.84 377.12,378.36 377.14,411.79 377.19,388.78 377.30,392.80 377.46,398.42 377.65,399.27 377.85,398.60 378.05,397.28 378.22,377.36 378.34,346.66 378.41,372.61 378.43,388.94 378.48,417.11 378.59,420.54 378.75,399.47 378.94,358.28 379.14,366.20 379.34,372.23 379.51,399.58 379.64,403.70 379.71,389.29 379.72,290.40 379.78,238.98 379.89,381.16 380.05,309.05 380.23,314.56 380.44,308.14 380.63,241.30 380.80,295.49 380.93,289.60 381.00,335.20 381.02,399.09 381.07,402.03 381.18,425.78 381.34,413.00 381.53,422.01 381.73,411.20 381.93,410.89 382.10,387.22 382.22,389.38 382.29,380.92 382.31,317.41 382.36,374.00 382.47,292.42 382.63,329.82 382.82,354.53 383.03,352.15 383.22,419.71 383.39,382.46 383.52,301.13 383.59,379.22 383.60,379.75 383.66,337.46 383.77,348.21 383.93,401.56 384.11,421.87 384.32,352.53 384.51,322.99 384.69,384.76 384.81,357.57 384.88,394.93 384.90,410.48 384.95,363.42 385.06,388.00 385.22,380.26 385.41,367.38 385.61,372.15 385.81,370.73 385.98,385.98 386.10,414.70 386.17,365.58 386.19,368.48 386.24,340.62 386.36,282.29 386.51,321.69 386.70,199.85 386.91,249.91 387.10,272.81 387.27,279.78 387.40,291.06 387.47,410.03 387.48,410.91 387.54,383.18 387.65,352.53 387.81,380.28 388.00,394.93 388.20,403.67 388.39,402.03 388.57,386.59 388.69,371.63 388.76,394.18 388.78,377.79 388.83,392.94 388.94,382.87 389.10,371.63 389.29,347.49 389.49,380.29 389.69,351.36 389.86,370.24 389.98,392.41 390.05,385.28 390.07,270.32 390.12,303.43 390.24,318.67 390.39,250.44 390.59,305.87 390.79,259.63 390.98,243.13 391.15,237.92 391.28,304.28 391.35,335.29 391.36,365.09 391.42,375.89 391.53,351.74 391.69,376.25 391.88,367.82 392.08,381.54 392.28,373.22 392.45,411.62 392.57,378.07 392.64,370.20 392.66,325.46 392.71,370.41 392.82,327.09 392.98,332.17 393.17,346.05 393.37,367.75 393.57,348.83 393.74,390.96 393.86,396.46 393.94,418.45 393.95,402.57 394.00,370.33 394.12,401.18 394.28,344.70 394.47,367.15 394.67,410.01 394.86,349.66 395.03,342.32 395.16,315.66 395.23,410.38 395.24,386.79 395.30,391.67 395.41,379.49 395.57,379.06 395.76,398.05 395.96,381.00 396.16,356.49 396.33,393.19 396.45,394.23 396.52,392.60 396.54,285.82 396.59,345.64 396.70,299.26 396.86,318.00 397.05,215.38 397.26,212.73 397.45,332.96 397.62,374.93 397.75,261.47 397.82,350.74 397.83,384.46 397.89,400.65 398.00,373.25 398.16,376.72 398.35,387.34 398.55,372.09 398.74,385.32 398.91,402.71 399.04,378.57 399.11,381.06 399.12,391.86 399.18,388.78 399.29,385.25 399.45,375.70 399.64,347.91 399.84,394.59 400.04,364.58 400.21,391.80 400.33,340.17 400.40,361.85 400.42,337.13 400.47,358.22 400.59,324.41 400.74,356.48 400.93,231.35 401.14,200.86 401.33,281.33 401.50,268.90 401.63,312.89 401.70,353.86 401.71,389.06 401.77,415.44 401.88,394.64 402.04,373.13 402.23,390.76 402.43,412.21 402.62,405.46 402.80,387.29 402.92,359.52 402.99,382.81 403.00,336.54 403.06,327.75 403.17,346.30 403.33,308.04 403.52,350.80 403.72,373.11 403.92,361.84 404.09,364.40 404.21,388.97 404.28,331.65 404.30,388.93 404.35,363.90 404.47,344.76 404.62,356.76 404.82,395.05 405.02,398.59 405.21,367.86 405.38,373.81 405.51,336.13 405.58,362.81 405.59,382.59 405.65,373.81 405.76,357.30 405.92,364.06 406.11,383.05 406.31,363.36 406.51,370.57 406.68,352.86 406.80,402.74 406.87,411.88 406.88,215.82 406.94,283.42 407.05,210.58 407.21,346.13 407.40,146.77 407.60,158.49 407.80,227.76 407.97,389.48 408.09,329.59 408.16,372.38 408.18,415.45 408.23,405.47 408.35,344.66 408.50,360.49 408.70,394.89 408.90,392.02 409.10,369.61 409.26,370.58 409.39,401.13 409.46,409.85 409.47,394.00 409.53,384.11 409.64,398.84 409.80,374.30 409.99,390.18 410.19,356.41 410.39,373.53 410.56,394.12 410.68,363.80 410.75,362.39 410.76,359.28 410.82,342.52 410.93,295.83 411.09,331.78 411.28,301.19 411.48,233.08 411.68,284.38 411.85,367.84 411.97,288.67 412.04,368.36 412.06,387.04 412.11,362.78 412.23,383.18 412.39,380.95 412.58,373.11 412.78,404.54 412.98,410.16 413.14,372.84 413.27,385.02 413.34,400.88 413.35,416.80 413.41,335.84 413.52,361.19 413.68,330.34 413.87,319.51 414.08,351.04 414.27,353.28 414.44,351.81 414.56,337.43 414.63,341.45 414.65,351.65 414.70,388.25 414.81,380.56 414.97,363.36 415.16,323.19 415.37,418.83 415.56,337.31 415.73,321.42 415.85,324.80 415.92,363.78 415.94,383.93 415.99,365.66 416.11,376.99 416.27,373.02 416.46,410.15 416.66,404.30 416.86,402.83 417.03,381.50 417.15,403.58 417.22,396.96 417.23,278.70 417.29,337.51 417.40,218.04 417.56,229.37 417.75,144.78 417.96,182.86 418.15,343.04 418.32,349.20 418.44,318.63 418.51,357.10 418.53,404.07 418.58,376.91 418.70,390.70 418.85,365.53 419.05,381.05 419.25,374.55 419.44,367.51 419.61,406.61 419.74,378.13 419.80,359.02 419.82,400.32 419.87,388.71 419.99,403.77 420.15,375.39 420.34,367.96 420.54,387.29 420.74,394.31 420.91,346.52 421.03,372.90 421.10,414.13 421.11,409.57 421.17,386.08 421.28,356.08 421.44,320.78 421.63,278.89 421.84,235.43 422.03,285.64 422.20,305.84 422.32,253.10 422.39,337.87 422.41,408.34 422.46,369.32 422.58,378.87 422.73,423.06 422.93,374.47 423.13,379.69 423.33,399.35 423.49,377.78 423.62,411.89 423.68,425.43 423.70,340.19 423.76,352.03 423.87,327.90 424.03,322.62 424.22,324.90 424.42,347.71 424.62,410.37 424.79,401.36 424.91,374.86 424.98,379.70 424.99,377.92 425.05,391.46 425.16,334.01 425.32,358.54 425.51,343.97 425.72,319.19 425.91,306.38 426.08,357.47 426.20,325.66 426.27,354.35 426.29,416.22 426.34,408.72 426.46,381.45 426.62,379.60 426.81,365.77 427.01,388.71 427.21,393.73 427.37,401.38 427.50,364.59 427.56,361.72 427.58,266.04 427.64,302.09 427.75,208.29 427.91,209.45 428.10,210.28 428.31,263.05 428.50,315.74 428.67,363.05 428.79,307.89 428.86,422.33 428.87,356.50 428.93,371.74 429.04,397.11 429.20,400.73 429.39,384.07 429.60,379.02 429.79,372.26 429.96,400.24 430.08,363.02 430.15,411.44 430.17,412.13 430.22,375.67 430.34,414.56 430.50,350.73 430.69,366.44 430.89,362.19 431.09,376.59 431.26,357.39 431.38,389.93 431.44,384.71 431.46,301.78 431.52,307.40 431.63,298.40 431.79,276.15 431.98,288.88 432.19,237.78 432.38,248.54 432.55,328.90 432.67,244.20 432.74,342.20 432.75,375.15 432.81,388.82 432.92,379.97 433.08,390.64 433.27,382.35 433.48,390.35 433.67,385.26 433.84,399.57 433.96,406.97 434.03,409.44 434.05,388.95 434.10,347.39 434.22,348.47 434.38,326.63 434.57,350.03 434.77,321.82 434.97,346.02 435.14,360.51 435.26,371.33 435.32,366.70 435.34,394.68 435.40,331.36 435.51,333.51 435.67,406.35 435.86,413.41 436.07,361.85 436.26,330.52 436.43,330.52 436.55,394.20 436.62,356.17 436.63,367.72 436.69,388.00 436.80,412.80 436.96,346.90 437.16,391.24 437.36,382.49 437.56,415.15 437.72,380.11 437.84,365.39 437.91,385.08 437.93,281.99 437.98,345.61 438.10,276.31 438.26,205.50 438.45,242.25 438.65,238.72 438.85,322.68 439.02,314.15 439.14,274.90 439.20,311.96 439.22,406.31 439.28,368.12 439.39,384.46 439.55,340.32 439.74,363.92 439.95,389.23 440.14,350.23 440.31,385.64 440.43,373.15 440.50,374.77 440.51,395.58 440.57,402.93 440.68,362.27 440.85,375.80 441.04,383.63 441.24,360.77 441.44,386.33 441.60,365.89 441.73,405.30 441.79,393.68 441.81,265.61 441.86,385.59 441.98,324.55 442.14,238.60 442.33,294.67 442.53,218.22 442.73,203.81 442.90,308.24 443.02,278.08 443.08,328.83 443.10,408.63 443.16,386.57 443.27,392.05 443.43,347.00 443.62,409.66 443.83,369.85 444.02,381.03 444.19,383.18 444.31,379.62 444.38,404.89 444.39,339.05 444.45,386.29 444.56,356.57 444.73,361.41 444.92,384.59 445.12,402.38 445.32,370.14 445.48,365.62 445.61,395.00 445.67,372.47 445.69,347.23 445.74,353.95 445.86,377.88 446.02,341.06 446.21,371.88 446.42,316.21 446.61,308.07 446.78,385.03 446.90,312.92 446.96,321.66 446.98,402.07 447.04,366.06 447.15,405.61 447.31,363.45 447.50,387.11 447.71,373.59 447.90,378.72 448.07,375.34 448.19,398.45 448.26,377.04 448.27,347.75 448.33,407.56 448.45,262.43 448.61,161.58 448.80,189.11 449.00,182.75 449.20,278.73 449.36,309.69 449.49,370.28 449.55,387.03 449.57,361.46 449.62,377.10 449.74,379.24 449.90,345.33 450.10,378.86 450.30,377.94 450.49,389.78 450.66,384.01 450.78,371.21 450.85,415.75 450.86,405.12 450.92,357.06 451.03,395.34 451.19,413.44 451.39,360.90 451.59,398.43 451.78,399.47 451.95,392.77 452.07,363.59 452.14,397.59 452.15,360.04 452.21,290.85 452.33,291.42 452.49,216.60 452.68,268.90 452.88,196.76 453.08,207.63 453.24,255.37 453.37,300.32 453.43,352.85 453.45,374.47 453.51,376.42 453.62,368.36 453.78,376.40 453.98,382.17 454.18,363.70 454.37,378.46 454.54,418.68 454.66,364.34 454.73,412.56 454.74,343.12 454.80,337.10 454.91,329.71 455.07,332.09 455.27,374.26 455.47,371.74 455.67,351.28 455.83,369.69 455.95,354.11 456.02,386.22 456.03,377.76 456.09,411.48 456.21,383.57 456.37,360.10 456.56,364.68 456.76,364.90 456.96,337.31 457.13,357.45 457.25,327.71 457.31,367.72 457.33,372.27 457.39,384.04 457.50,356.17 457.67,403.40 457.86,408.02 458.06,417.85 458.25,413.87 458.42,363.36 458.54,418.52 458.61,402.65 458.62,319.78 458.68,344.55 458.79,225.72 458.96,299.11 459.15,160.53 459.35,154.91 459.55,268.84 459.71,368.15 459.83,392.53 459.90,340.84 459.91,370.69 459.97,384.94 460.09,391.97 460.25,369.17 460.44,379.59 460.65,364.95 460.84,400.23 461.01,393.29 461.13,390.17 461.19,422.78 461.21,388.02 461.27,371.23 461.38,401.34 461.55,377.61 461.74,373.60 461.94,386.75 462.13,377.99 462.30,400.45 462.42,393.87 462.49,366.83 462.50,396.76 462.56,320.08 462.68,322.75 462.84,285.30 463.03,210.17 463.23,178.95 463.43,203.49 463.59,298.66 463.71,326.21 463.78,347.20 463.79,388.09 463.85,373.75 463.97,375.62 464.13,385.28 464.32,365.64 464.53,380.19 464.72,368.37 464.89,380.94 465.01,386.49 465.07,401.85 465.09,362.62 465.15,366.59 465.26,357.64 465.43,348.26 465.62,356.53 465.82,392.18 466.01,360.05 466.18,371.24 466.30,397.25 466.37,370.24 466.38,358.52 466.44,359.86 466.56,371.36 466.72,319.04 466.91,313.64 467.11,369.22 467.31,317.39 467.47,348.66 467.59,348.13 467.66,317.23 467.67,392.27 467.73,352.92 467.85,371.15 468.01,383.14 468.21,418.38 468.41,356.52 468.60,407.73 468.77,366.82 468.89,356.29 468.95,367.64 468.97,387.66 469.03,317.25 469.14,241.37 469.31,209.42 469.50,205.07 469.70,205.93 469.90,296.34 470.06,404.60 470.18,359.47 470.25,323.79 470.26,395.57 470.32,389.71 470.44,400.77 470.60,385.54 470.79,368.21 470.99,363.30 471.19,360.49 471.35,414.10 471.48,394.74 471.54,425.17 471.55,409.85 471.61,400.40 471.73,394.13 471.90,404.44 472.09,352.47 472.29,414.19 472.48,391.36 472.65,367.67 472.77,372.04 472.83,406.46 472.85,358.56 472.91,346.33 473.02,240.75 473.19,342.90 473.38,201.44 473.58,224.15 473.78,172.48 473.94,375.91 474.06,352.70 474.13,407.08 474.14,372.58 474.20,380.20 474.32,372.23 474.48,391.75 474.67,375.79 474.88,375.16 475.07,380.00 475.23,411.31 475.36,400.64 475.42,378.75 475.44,392.35 475.49,360.00 475.61,357.40 475.78,318.87 475.97,351.47 476.17,358.11 476.36,363.60 476.53,399.03 476.65,367.11 476.71,422.11 476.73,364.08 476.79,423.82 476.91,363.95 477.07,298.66 477.26,320.92 477.47,396.52 477.66,314.77 477.82,347.17 477.94,391.50 478.01,310.84 478.02,387.05 478.08,351.57 478.20,373.53 478.36,389.70 478.55,379.70 478.76,417.07 478.95,367.76 479.12,391.82 479.24,366.56 479.30,368.33 479.32,303.97 479.37,383.73 479.49,284.61 479.66,240.29 479.85,250.86 480.05,218.33 480.24,260.17 480.41,403.21 480.53,358.53 480.59,366.41 480.61,382.90 480.67,372.60 480.79,381.80 480.95,380.68 481.14,386.60 481.35,368.82 481.54,361.76 481.70,376.80 481.82,383.17 481.89,393.95 481.90,385.40 481.96,400.76 482.08,386.12 482.24,365.85 482.44,379.33 482.64,386.86 482.83,364.41 483.00,349.96 483.12,390.54 483.18,391.15 483.20,312.17 483.26,354.30 483.37,287.54 483.54,317.19 483.73,181.92 483.93,195.53 484.13,190.26 484.29,298.17 484.41,289.96 484.47,336.60 484.49,414.42 484.55,376.46 484.67,390.34 484.83,375.31 485.02,384.98 485.23,384.66 485.42,406.89 485.58,362.53 485.70,393.62 485.77,377.74 485.78,418.77 485.84,382.77 485.96,401.69 486.13,362.75 486.32,384.70 486.52,337.26 486.71,375.30 486.88,385.04 487.00,390.73 487.06,389.68 487.08,407.02 487.14,371.31 487.25,356.17 487.42,365.66 487.61,331.30 487.81,380.86 488.01,326.32 488.17,356.43 488.29,344.27 488.35,371.67 488.37,394.04 488.43,360.16 488.55,364.20 488.71,358.32 488.90,351.96 489.11,364.11 489.30,370.80 489.46,354.75 489.59,405.57 489.65,360.77 489.66,268.16 489.72,267.10 489.84,217.35 490.01,206.44 490.20,246.37 490.40,289.42 490.59,327.56 490.76,332.11 490.88,357.79 490.94,388.10 490.96,417.06 491.02,371.35 491.13,390.00 491.30,379.26 491.49,354.14 491.70,367.94 491.89,396.80 492.05,378.53 492.17,399.67 492.23,362.16 492.25,386.92 492.31,358.77 492.43,386.17 492.59,371.65 492.78,393.75 492.99,384.46 493.18,387.79 493.35,421.16 493.47,387.00 493.53,410.39 493.54,301.45 493.60,324.16 493.72,285.56 493.89,316.31 494.08,236.66 494.28,210.09 494.47,225.37 494.64,298.98 494.76,319.09 494.82,306.85 494.84,403.49 494.90,375.53 495.02,406.56 495.18,407.84 495.37,381.67 495.58,389.11 495.77,401.26 495.93,381.49 496.05,392.93 496.11,375.72 496.13,355.97 496.19,420.58 496.31,349.39 496.47,398.51 496.67,405.57 496.87,404.64 497.06,388.63 497.23,392.43 497.35,378.31 497.41,349.47 497.42,331.59 497.48,325.76 497.60,335.41 497.77,410.19 497.96,333.89 498.16,338.64 498.35,345.07 498.52,349.68 498.64,403.57 498.70,341.42 498.72,399.26 498.78,406.35 498.90,393.79 499.06,379.71 499.25,356.93 499.46,352.48 499.65,389.68 499.81,412.45 499.93,389.29 499.99,358.24 500.01,302.96 500.07,381.76 500.19,224.21 500.35,162.13 500.55,257.59 500.75,268.02 500.94,389.05 501.11,316.72 501.23,352.32 501.29,324.58 501.30,374.84 501.37,367.30 501.48,381.45 501.65,405.82 501.84,387.71 502.04,347.09 502.24,400.07 502.40,405.71 502.52,405.41 502.58,377.08 502.60,405.15 502.66,402.70 502.78,365.40 502.94,426.90 503.13,406.58 503.34,389.38 503.53,412.42 503.69,384.73 503.81,391.83 503.88,376.12 503.89,313.24 503.95,304.93 504.07,301.83 504.24,305.93 504.43,273.54 504.63,211.45 504.83,210.12 504.99,271.86 505.11,359.06 505.17,282.50 505.18,382.55 505.25,412.25 505.36,361.50 505.53,359.99 505.72,376.87 505.93,395.12 506.12,402.51 506.28,384.98 506.40,376.75 506.46,403.45 506.48,358.80 506.54,382.88 506.66,358.37 506.82,416.79 507.01,386.45 507.22,369.73 507.41,406.79 507.57,396.00 507.69,418.70 507.76,389.22 507.77,343.42 507.83,379.35 507.95,354.38 508.12,395.19 508.31,369.59 508.51,351.90 508.71,294.75 508.87,350.58 508.99,372.70 509.05,353.29 509.06,378.70 509.13,379.40 509.25,371.04 509.41,381.24 509.60,347.06 509.81,366.73 510.00,376.25 510.16,366.21 510.28,373.26 510.34,402.00 510.36,289.62 510.42,328.97 510.54,296.61 510.70,188.05 510.90,215.35 511.10,240.33 511.29,343.74 511.46,289.45 511.57,365.07 511.64,316.74 511.65,389.28 511.71,375.91 511.83,405.57 512.00,354.26 512.19,363.79 512.39,385.55 512.59,389.32 512.75,396.44 512.87,384.93 512.93,415.23 512.94,389.80 513.01,400.11 513.13,351.63 513.29,406.19 513.49,402.82 513.69,385.53 513.88,387.20 514.04,350.55 514.16,414.35 514.22,399.11 514.24,331.01 514.30,366.05 514.42,362.39 514.58,345.88 514.78,221.25 514.98,201.96 515.18,207.26 515.34,263.61 515.45,289.95 515.52,336.12 515.53,380.20 515.59,376.35 515.71,361.53 515.88,349.20 516.07,386.52 516.27,370.86 516.47,415.01 516.63,388.35 516.75,390.36 516.81,402.39 516.82,357.09 516.89,367.10 517.01,390.20 517.17,374.22 517.37,387.55 517.57,412.11 517.76,374.10 517.92,388.45 518.04,357.24 518.10,392.85 518.12,305.81 518.18,343.01 518.30,326.41 518.47,382.80 518.66,282.38 518.86,284.21 519.06,291.63 519.22,302.85 519.34,346.07 519.40,312.63 519.41,402.02 519.47,396.30 519.59,413.09 519.76,372.24 519.95,361.74 520.16,376.23 520.35,361.80 520.51,389.84 520.63,376.77 520.69,400.03 520.70,355.31 520.77,371.62 520.89,359.35 521.05,211.24 521.25,245.86 521.45,261.47 521.64,324.61 521.80,362.51 521.92,395.16 521.98,346.13 522.00,393.47 522.06,366.41 522.18,377.53 522.35,377.61 522.54,392.10 522.74,377.59 522.94,410.24 523.10,372.26 523.22,361.80 523.28,416.88 523.29,384.67 523.35,396.22 523.48,384.75 523.64,423.50 523.83,408.50 524.04,395.70 524.23,391.69 524.39,381.94 524.51,401.50 524.57,398.62 524.58,303.89 524.65,373.36 524.77,376.95 524.93,184.93 525.13,216.52 525.33,229.23 525.52,214.43 525.69,172.99 525.80,367.46 525.86,331.54 525.88,365.46 525.94,417.81 526.06,382.85 526.23,407.04 526.42,365.86 526.62,403.06 526.82,388.85 526.98,398.62 527.10,371.94 527.16,390.59 527.17,398.22 527.23,374.49 527.36,392.42 527.52,362.05 527.72,405.35 527.92,352.88 528.11,401.76 528.27,365.72 528.39,392.26 528.45,380.47 528.46,378.53 528.53,349.64 528.65,346.20 528.81,352.04 529.01,320.49 529.21,312.06 529.41,287.53 529.57,299.92 529.68,337.64 529.74,348.52 529.76,393.93 529.82,354.75 529.94,370.70 530.11,371.21 530.30,356.10 530.50,375.02 530.70,360.71 530.86,370.27 530.98,400.31 531.04,408.91 531.05,321.32 531.12,309.19 531.24,389.96 531.40,264.67 531.60,289.22 531.80,307.47 531.99,323.70 532.15,411.24 532.27,349.18 532.33,302.01 532.34,365.22 532.41,375.65 532.53,393.11 532.70,398.01 532.89,394.56 533.09,372.66 533.29,402.69 533.45,390.13 533.56,387.66 533.62,414.22 533.64,401.27 533.70,339.37 533.82,410.37 533.99,379.56 534.18,398.03 534.38,358.44 534.58,389.50 534.74,376.06 534.86,388.06 534.92,387.08 534.93,331.83 535.00,356.26 535.12,338.81 535.28,164.84 535.48,145.54 535.68,150.64 535.87,195.97 536.03,280.70 536.15,314.35 536.21,236.39 536.23,399.26 536.29,390.27 536.41,373.62 536.58,382.44 536.77,386.79 536.98,394.73 537.17,402.03 537.33,374.22 537.44,392.18 537.50,371.73 537.52,409.40 537.58,395.15 537.70,383.71 537.87,390.35 538.06,379.75 538.27,349.12 538.46,374.24 538.62,371.10 538.74,376.94 538.80,381.46 538.81,324.05 538.88,327.91 539.00,374.36 539.16,331.15 539.36,332.15 539.56,347.59 539.75,322.50 539.92,328.49 540.03,374.60 540.09,356.34 540.11,421.47 540.17,398.27 540.29,392.64 540.46,380.97 540.65,367.66 540.86,365.13 541.05,386.63 541.21,390.08 541.32,426.99 541.38,399.79 541.40,320.67 541.46,336.58 541.59,313.07 541.75,290.44 541.95,301.44 542.15,275.32 542.34,291.90 542.50,302.01 542.62,401.74 542.68,406.55 542.69,386.83 542.76,380.19 542.88,387.29 543.04,422.88 543.24,397.75 543.44,380.67 543.63,373.88 543.80,355.74 543.91,389.97 543.97,387.09 543.99,367.82 544.05,409.08 544.17,398.91 544.34,364.10 544.53,385.94 544.74,354.20 544.93,409.89 545.09,390.78 545.21,364.78 545.26,407.07 545.28,357.58 545.35,310.06 545.47,241.83 545.63,162.90 545.83,164.21 546.03,261.79 546.22,284.09 546.38,215.78 546.50,279.03 546.56,246.05 546.57,375.85 546.64,396.59 546.76,405.94 546.92,406.82 547.12,379.24 547.32,409.34 547.52,379.30 547.68,370.85 547.79,367.64 547.85,401.52 547.87,388.06 547.93,393.57 548.05,377.72 548.22,406.84 548.41,371.44 548.62,371.25 548.81,401.63 548.97,366.75 549.09,397.72 549.14,368.67 549.16,322.70 549.23,403.49 549.35,396.93 549.51,337.86 549.71,282.88 549.91,356.40 550.10,288.98 550.26,346.71 550.38,389.57 550.44,303.55 550.45,378.30 550.52,408.34 550.64,394.74 550.81,360.17 551.00,384.85 551.21,355.93 551.40,406.47 551.56,362.25 551.67,358.60 551.73,397.09 551.75,359.73 551.81,275.24 551.93,246.70 552.10,209.85 552.29,225.65 552.50,336.41 552.69,312.92 552.85,319.46 552.97,314.61 553.02,352.33 553.04,375.60 553.11,355.59 553.23,378.42 553.39,380.53 553.59,366.96 553.79,368.56 553.98,388.26 554.15,390.15 554.26,374.14 554.32,405.41 554.33,409.33 554.40,345.01 554.52,389.52 554.69,395.42 554.88,386.31 555.09,361.74 555.28,345.13 555.44,360.74 555.55,382.28 555.61,374.57 555.63,383.01 555.69,332.92 555.82,311.60 555.98,307.74 556.17,161.89 556.38,241.66 556.57,215.59 556.73,346.10 556.85,322.05 556.90,300.49 556.92,418.78 556.99,364.67 557.11,386.24 557.27,378.33 557.47,370.26 557.67,374.49 557.86,385.47 558.03,388.31 558.14,408.91 558.20,399.17 558.21,378.37 558.28,403.62 558.40,373.56 558.57,366.85 558.76,376.64 558.97,398.20 559.16,395.05 559.32,394.83 559.43,356.08 559.49,348.30 559.51,305.18 559.57,380.43 559.70,354.86 559.86,312.05 560.06,255.18 560.26,292.16 560.45,269.59 560.61,299.98 560.73,366.36 560.78,309.36 560.80,396.58 560.87,381.32 560.99,421.66 561.15,350.07 561.35,371.03 561.55,372.04 561.75,372.17 561.91,366.14 562.02,402.89 562.08,396.56 562.09,374.84 562.16,319.58 562.28,330.72 562.45,211.01 562.64,221.31 562.85,317.82 563.04,317.07 563.20,282.44 563.32,312.22 563.37,310.29 563.39,374.69 563.45,369.48 563.58,403.57 563.75,377.45 563.94,399.88 564.14,395.12 564.33,360.52 564.49,386.77 564.61,387.22 564.66,381.28 564.68,368.15 564.75,404.75 564.87,386.91 565.04,375.94 565.23,364.88 565.43,367.89 565.63,420.78 565.79,387.18 565.90,402.88 565.96,382.63 565.97,328.30 566.04,232.85 566.16,308.78 566.33,265.59 566.53,197.10 566.73,230.11 566.92,287.57 567.08,294.09 567.20,269.18 567.25,296.69 567.27,393.93 567.33,385.27 567.46,402.05 567.63,413.39 567.82,387.10 568.02,356.16 568.21,414.40 568.37,358.66 568.49,395.39 568.55,385.14 568.56,359.67 568.63,368.39 568.75,391.17 568.92,373.83 569.11,411.93 569.32,388.31 569.51,387.34 569.67,390.45 569.78,387.19 569.84,381.79 569.85,406.80 569.92,358.08 570.05,304.29 570.21,319.39 570.41,254.96 570.61,255.48 570.80,258.59 570.96,289.84 571.08,297.75 571.13,307.48 571.15,374.55 571.21,399.49 571.34,363.27 571.51,394.97 571.70,398.40 571.90,366.41 572.09,367.61 572.26,377.60 572.37,368.60 572.43,414.71 572.44,410.67 572.51,322.05 572.63,336.52 572.80,278.98 573.00,308.50 573.20,331.56 573.39,312.28 573.55,329.01 573.66,326.52 573.72,292.35 573.73,393.63 573.80,392.74 573.93,382.62 574.09,381.66 574.29,424.24 574.49,387.78 574.68,389.30 574.84,370.13 574.96,344.66 575.01,395.60 575.03,383.32 575.09,356.00 575.22,391.87 575.39,419.04 575.58,368.99 575.78,370.94 575.98,394.38 576.14,377.63 576.25,380.78 576.31,398.87 576.32,334.33 576.39,335.00 576.51,362.62 576.68,207.65 576.88,204.24 577.08,203.22 577.27,237.69 577.43,346.96 577.54,336.55 577.60,284.83 577.61,411.56 577.68,404.58 577.81,392.80 577.97,367.64 578.17,376.04 578.37,389.77 578.56,406.83 578.72,362.27 578.84,394.52 578.89,388.90 578.91,400.62 578.98,346.27 579.10,360.76 579.27,391.63 579.46,396.37 579.66,363.02 579.86,408.43 580.02,390.88 580.13,376.21 580.19,379.50 580.20,344.70 580.27,329.96 580.39,405.05 580.56,379.61 580.76,270.03 580.96,263.44 581.15,268.78 581.31,302.39 581.42,333.04 581.48,265.09 581.49,418.77 581.56,372.23 581.69,409.25 581.86,369.25 582.05,375.55 582.25,402.94 582.44,396.06 582.60,378.72 582.72,391.97 582.77,375.08 582.79,366.55 582.86,327.33 582.98,398.62 583.15,308.42 583.34,284.26 583.55,295.65 583.74,330.07 583.90,292.53 584.01,395.86 584.07,352.56 584.08,350.36 584.15,402.31 584.27,376.55 584.44,387.54 584.64,365.97 584.84,367.56 585.03,376.16 585.19,419.23 585.30,373.69 585.36,388.00 585.38,367.51 585.44,399.73 585.57,424.59 585.74,387.11 585.93,366.06 586.13,411.60 586.32,373.70 586.49,378.93 586.60,358.25 586.65,414.68 586.67,379.52 586.74,329.03 586.86,283.03 587.03,260.33 587.22,227.58 587.43,190.47 587.62,255.11 587.78,284.89 587.89,281.29 587.95,224.80 587.96,378.71 588.03,402.52 588.16,401.43 588.32,406.57 588.52,358.15 588.72,400.21 588.91,378.59 589.07,380.43 589.18,394.04 589.24,407.63 589.26,407.94 589.32,400.98 589.45,372.47 589.62,411.21 589.81,397.63 590.01,349.22 590.20,377.25 590.37,418.07 590.48,393.61 590.53,392.53 590.55,358.90 590.62,314.57 590.74,360.29 590.91,386.05 591.11,355.70 591.31,301.99 591.50,287.42 591.66,308.81 591.77,336.02 591.83,294.71 591.84,372.73 591.91,378.52 592.04,360.76 592.20,409.79 592.40,390.59 592.60,403.84 592.79,412.20 592.95,374.71 593.06,362.78 593.12,399.16 593.14,356.31 593.20,322.44 593.33,338.21 593.50,260.39 593.69,255.19 593.89,290.75 594.09,367.90 594.25,355.92 594.36,402.53 594.41,315.30 594.43,382.75 594.50,386.43 594.62,395.19 594.79,391.36 594.99,412.83 595.19,379.25 595.38,389.13 595.54,371.10 595.65,376.20 595.71,358.78 595.72,406.92 595.79,372.70 595.92,409.93 596.09,374.78 596.28,372.74 596.48,365.55 596.67,389.43 596.83,412.47 596.95,383.19 597.00,414.67 597.02,400.85 597.09,269.48 597.21,405.17 597.38,232.67 597.57,189.84 597.78,270.62 597.97,300.78 598.13,216.69 598.24,349.28 598.29,232.12 598.31,378.90 598.38,404.42 598.50,387.59 598.67,388.88 598.87,376.54 599.07,395.09 599.26,372.91 599.42,404.09 599.53,367.76 599.59,407.40 599.60,393.06 599.67,406.51 599.80,375.30 599.97,371.98 600.16,365.36 600.37,379.67 600.55,402.54 600.72,417.54 600.83,408.97 600.88,394.30 600.90,360.95 600.97,385.05 601.09,375.89 601.26,304.58 601.45,311.40 601.66,266.13 601.85,316.17 602.01,288.60 602.12,359.12 602.17,306.74 602.19,397.01 602.26,376.15 602.39,374.12 602.55,385.64 602.75,390.96 602.95,376.70 603.14,414.47 603.30,384.79 603.41,394.07 603.47,377.88 603.48,340.47 603.55,281.58 603.68,263.62 603.85,261.59 604.04,288.30 604.25,304.18 604.43,370.30 604.60,306.92 604.71,348.28 604.76,317.33 604.78,382.59 604.85,366.74 604.97,367.94 605.14,368.99 605.34,353.40 605.54,398.44 605.73,357.80 605.89,378.46 606.00,355.72 606.05,391.17 606.07,378.38 606.14,393.59 606.27,381.35 606.43,379.74 606.63,361.01 606.83,376.96 607.02,382.08 607.18,373.20 607.29,373.67 607.35,382.36 607.36,368.35 607.43,312.24 607.56,300.40 607.73,177.21 607.92,190.13 608.13,243.49 608.32,280.43 608.48,241.48 608.59,274.90 608.64,306.77 608.66,395.18 608.73,349.86 608.85,390.53 609.02,407.42 609.22,355.11 609.42,394.15 609.61,372.89 609.77,379.77 609.88,405.21 609.93,377.07 609.95,423.22 610.02,401.74 610.15,378.25 610.32,391.10 610.51,389.12 610.71,381.83 610.90,409.56 611.06,391.86 611.17,396.17 611.23,413.09 611.24,381.17 611.31,352.30 611.44,336.99 611.61,368.10 611.80,289.49 612.01,249.63 612.20,254.58 612.36,261.17 612.47,378.07 612.52,296.77 612.54,400.10 612.61,362.58 612.73,356.62 612.90,396.85 613.10,402.62 613.30,360.66 613.49,402.12 613.65,404.42 613.76,388.46 613.81,386.26 613.83,357.55 613.90,261.01 614.03,302.21 614.20,279.73 614.39,291.12 614.60,324.78 614.78,277.73 614.94,350.70 615.05,370.38 615.11,350.72 615.12,378.01 615.19,399.12 615.32,351.83 615.49,360.14 615.68,357.80 615.89,328.22 616.08,330.84 616.24,379.98 616.35,414.33 616.40,374.37 616.42,376.40 616.49,395.74 616.62,410.41 616.78,399.88 616.98,368.78 617.18,380.34 617.37,392.33 617.53,384.37 617.64,374.20 617.69,398.30 617.71,293.47 617.78,370.73 617.91,280.01 618.08,221.21 618.27,159.74 618.48,190.90 618.66,296.58 618.82,306.58 618.93,248.57 618.99,242.38 619.00,352.18 619.07,396.60 619.20,406.34 619.37,364.85 619.57,365.38 619.77,388.05 619.96,382.50 620.12,387.65 620.23,368.52 620.28,399.50 620.30,417.40 620.37,372.41 620.50,420.66 620.66,375.01 620.86,385.36 621.06,362.79 621.25,365.02 621.41,412.98 621.52,388.93 621.57,393.71 621.59,365.27 621.66,310.70 621.79,337.21 621.96,277.44 622.16,265.28 622.36,265.92 622.55,257.35 622.70,251.93 622.81,362.33 622.87,339.86 622.88,413.46 622.96,403.49 623.08,404.81 623.25,384.23 623.45,383.55 623.65,362.06 623.84,393.15 624.00,363.93 624.11,359.96 624.16,402.07 624.18,389.69 624.25,309.34 624.38,321.86 624.54,292.04 624.74,382.15 624.94,366.13 625.14,313.62 625.29,381.46 625.40,330.68 625.45,305.42 625.47,380.71 625.54,361.86 625.67,380.50 625.84,404.25 626.04,394.43 626.24,391.23 626.43,369.81 626.58,408.77 626.70,414.89 626.75,391.45 626.76,393.96 626.84,407.53 626.96,391.95 627.13,365.60 627.33,391.22 627.53,410.35 627.72,386.23 627.88,395.70 627.99,421.71 628.04,388.54 628.06,289.57 628.13,254.95 628.26,225.55 628.43,313.96 628.62,195.30 628.83,143.64 629.02,318.15 629.17,208.19 629.28,290.42 629.33,345.50 629.35,396.81 629.42,372.52 629.55,386.57 629.72,367.37 629.92,369.45 630.12,365.17 630.31,411.82 630.47,395.94 630.58,389.92 630.63,403.70 630.64,417.98 630.72,373.33 630.85,372.23 631.01,359.32 631.21,354.27 631.41,408.24 631.60,400.99 631.76,372.37 631.87,392.96 631.92,393.84 631.94,380.76 632.01,333.70 632.14,319.30 632.31,344.42 632.50,344.21 632.71,276.78 632.90,304.01 633.05,328.05 633.16,313.04 633.21,306.35 633.23,401.47 633.30,369.08 633.43,384.63 633.60,403.13 633.80,331.33 634.00,350.31 634.19,402.26 634.35,356.63 634.46,359.23 634.51,371.86 634.52,362.59 634.60,326.40 634.73,307.69 634.89,281.14 635.09,329.83 635.29,325.69 635.48,337.18 635.64,395.10 635.75,349.52 635.80,323.46 635.82,404.96 635.89,392.54 636.02,405.54 636.19,369.08 636.39,394.10 636.59,387.68 636.78,355.71 636.93,375.53 637.04,386.48 637.10,360.36 637.11,396.24 637.18,401.21 637.31,402.36 637.48,406.28 637.68,399.91 637.88,375.87 638.07,385.79 638.23,362.82 638.34,353.06 638.39,368.97 638.40,293.68 638.48,235.09 638.61,322.22 638.77,260.99 638.97,245.03 639.17,168.27 639.37,249.83 639.52,257.92 639.63,255.26 639.68,288.75 639.70,410.61 639.77,388.75 639.90,369.05 640.07,385.99 640.27,387.16 640.47,359.86 640.66,345.91 640.81,411.61 640.92,391.21 640.98,384.93 640.99,381.58 641.07,380.43 641.19,386.24 641.36,378.07 641.56,383.24 641.76,402.71 641.95,381.23 642.11,379.03 642.22,393.47 642.27,405.45 642.29,379.60 642.36,276.23 642.49,288.07 642.66,325.34 642.85,321.14 643.05,270.32 643.25,278.34 643.40,323.65 643.51,279.32 643.56,281.25 643.58,390.03 643.65,356.88 643.78,383.74 643.95,390.70 644.15,353.81 644.35,395.27 644.54,372.29 644.69,385.40 644.81,392.49 644.86,408.94 644.87,382.15 644.95,301.09 645.07,377.37 645.24,289.75 645.44,269.71 645.64,301.87 645.83,395.77 645.99,330.91 646.10,398.76 646.15,377.09 646.17,395.52 646.24,364.36 646.37,355.38 646.54,362.26 646.73,374.35 646.94,395.77 647.13,378.59 647.28,345.10 647.39,415.39 647.44,381.95 647.46,380.69 647.53,375.31 647.66,394.03 647.83,373.74 648.03,381.18 648.23,383.84 648.42,396.30 648.58,385.75 648.69,406.82 648.74,404.68 648.75,322.51 648.83,254.52 648.96,362.08 649.12,308.66 649.32,192.13 649.52,225.48 649.71,309.54 649.87,320.19 649.98,317.17 650.03,375.13 650.05,387.09 650.12,390.00 650.25,396.12 650.42,379.97 650.62,371.99 650.82,393.44 651.01,394.00 651.16,397.51 651.27,375.59 651.32,411.27 651.34,387.95 651.41,424.45 651.54,397.17 651.71,396.23 651.91,384.36 652.11,383.62 652.30,380.45 652.46,403.98 652.57,375.90 652.62,364.93 652.63,358.13 652.71,330.29 652.84,370.56 653.00,391.19 653.20,266.82 653.40,223.34 653.60,293.02 653.75,287.09 653.86,287.72 653.91,297.99 653.93,392.88 654.00,366.25 654.13,370.81 654.30,363.48 654.50,346.04 654.70,393.05 654.89,364.03 655.04,406.52 655.15,390.70 655.20,382.34 655.22,367.06 655.29,332.48 655.42,290.73 655.60,286.77 655.79,264.67 655.99,283.51 656.18,386.14 656.34,312.38 656.45,391.81 656.50,375.21 656.51,366.80 656.59,403.94 656.72,343.13 656.89,373.28 657.08,408.20 657.28,399.94 657.48,398.56 657.63,367.22 657.74,353.42 657.79,383.76 657.81,398.64 657.88,390.44 658.01,379.27 658.18,401.78 658.38,396.33 658.58,382.08 658.77,390.01 658.92,394.63 659.03,390.71 659.08,392.07 659.10,324.63 659.17,294.26 659.30,290.87 659.48,244.47 659.67,174.70 659.88,266.11 660.06,351.78 660.22,279.29 660.33,323.16 660.38,302.69 660.39,378.12 660.47,403.51 660.60,386.90 660.77,406.66 660.96,339.84 661.17,399.88 661.36,363.24 661.51,379.67 661.62,363.80 661.67,368.41 661.69,375.99 661.76,361.31 661.89,400.03 662.06,405.51 662.26,389.15 662.46,412.95 662.65,427.48 662.81,397.77 662.91,362.04 662.96,393.35 662.98,346.76 663.05,340.22 663.18,251.67 663.36,305.55 663.55,224.70 663.76,221.74 663.94,334.67 664.10,378.66 664.21,282.32 664.26,262.27 664.27,406.96 664.35,402.06 664.48,357.34 664.65,349.52 664.85,355.31 665.05,391.07 665.24,369.94 665.39,389.92 665.50,371.44 665.55,404.30 665.57,341.47 665.64,321.15 665.77,300.03 665.94,298.05 666.14,307.79 666.34,337.34 666.53,345.08 666.69,364.67 666.79,308.05 666.84,352.32 666.86,380.08 666.93,363.21 667.06,348.05 667.24,390.60 667.43,400.67 667.64,399.19 667.82,376.46 667.98,385.56 668.09,345.80 668.14,406.00 668.15,391.66 668.23,384.10 668.36,392.41 668.53,399.54 668.73,394.90 668.93,365.65 669.12,384.60 669.27,416.72 669.38,371.93 669.43,383.44 669.45,360.43 669.52,279.21 669.65,196.98 669.82,240.53 670.02,200.89 670.22,196.60 670.41,281.74 670.57,298.98 670.67,276.79 670.72,346.77 670.74,392.19 670.82,360.57 670.95,405.07 671.12,390.44 671.31,390.95 671.52,396.93 671.71,410.34 671.86,363.60 671.97,389.74 672.02,371.26 672.03,388.27 672.11,369.21 672.24,393.25 672.41,395.58 672.61,379.42 672.81,416.70 673.00,384.23 673.15,377.56 673.26,399.74 673.31,383.79 673.33,383.76 673.40,366.30 673.53,374.82 673.71,326.57 673.90,301.89 674.11,235.85 674.29,266.91 674.45,234.85 674.56,337.37 674.60,227.15 674.62,389.70 674.70,372.62 674.83,392.82 675.00,366.28 675.19,348.56 675.40,362.14 675.59,409.12 675.74,374.82 675.85,350.57 675.90,366.19 675.91,333.51 675.99,324.18 676.12,317.97 676.29,332.66 676.49,324.29 676.69,374.38 676.88,401.75 677.03,380.93 677.14,323.21 677.19,378.44 677.21,423.51 677.28,428.02 677.41,362.35 677.59,391.95 677.78,374.08 677.99,372.80 678.17,372.04 678.33,389.50 678.44,378.70 678.48,378.38 678.50,406.66 678.58,359.16 678.71,396.13 678.88,380.90 679.07,384.58 679.28,387.56 679.47,356.66 679.62,398.88 679.73,362.46 679.78,366.03 679.79,296.90 679.87,396.40 680.00,206.64 680.17,252.61 680.37,196.28 680.57,142.61 680.76,289.50 680.92,383.42 681.02,203.17 681.07,249.14 681.09,379.07 681.16,381.36 681.29,418.76 681.47,381.39 681.67,400.39 681.87,388.40 682.05,364.94 682.21,373.54 682.32,404.00 682.36,380.24 682.38,411.93 682.46,374.63 682.59,375.61 682.76,386.89 682.96,363.11 683.16,349.28 683.35,380.01 683.50,411.31 683.61,399.71 683.66,376.21 683.67,349.64 683.75,351.27 683.88,285.95 684.05,307.51 684.25,316.91 684.45,274.60 684.64,254.54 684.80,299.08 684.90,323.86 684.95,323.81 684.97,395.99 685.05,367.63 685.17,396.21 685.35,389.14 685.55,350.61 685.75,378.03 685.94,368.47 686.09,397.94 686.20,408.86 686.24,407.44 686.26,409.76 686.34,297.29 686.47,325.71 686.64,324.01 686.84,372.31 687.04,407.84 687.23,341.70 687.38,395.64 687.49,359.01 687.54,380.15 687.56,374.78 687.63,357.45 687.76,383.67 687.94,360.77 688.13,386.35 688.33,340.90 688.52,342.15 688.68,347.32 688.78,391.48 688.83,385.65 688.85,405.03 688.93,386.90 689.05,371.56 689.23,377.30 689.43,389.00 689.63,379.52 689.82,373.45 689.97,406.60 690.08,381.39 690.12,364.53 690.14,346.52 690.22,391.92 690.35,169.50 690.52,172.77 690.72,216.08 690.92,192.27 691.11,312.30 691.26,352.69 691.37,179.08 691.42,269.60 691.44,425.64 691.51,373.98 691.64,384.45 691.82,402.12 692.01,389.81 692.22,395.30 692.40,379.21 692.56,387.04 692.66,405.60 692.71,388.95 692.73,396.45 692.81,370.63 692.94,384.98 693.11,381.96 693.31,415.06 693.51,395.39 693.70,415.50 693.85,395.17 693.96,386.57 694.00,398.57 694.02,355.90 694.10,301.97 694.23,328.01 694.40,224.45 694.60,298.35 694.80,227.68 694.99,266.95 695.15,350.38 695.25,346.82 695.30,373.72 695.32,366.41 695.39,387.85 695.52,391.22 695.70,372.69 695.90,377.26 696.10,386.99 696.28,344.25 696.44,369.98 696.54,375.87 696.59,367.65 696.61,329.69 696.69,357.66 696.82,307.86 696.99,306.61 697.19,339.83 697.39,415.60 697.58,380.26 697.73,343.34 697.84,393.39 697.88,369.14 697.90,415.74 697.98,357.80 698.11,414.16 698.28,339.59 698.48,386.74 698.68,372.27 698.87,330.26 699.03,348.69 699.13,368.07 699.18,342.47 699.20,406.37 699.27,375.26 699.40,390.35 699.58,403.49 699.78,389.99 699.98,369.32 700.17,387.59 700.32,377.38 700.42,383.58 700.47,398.73 700.49,376.47 700.57,327.16 700.70,271.13 700.87,265.40 701.07,210.70 701.27,214.24 701.46,274.34 701.61,339.42 701.72,211.73 701.76,237.09 701.78,400.24 701.86,385.92 701.99,395.25 702.17,427.40 702.36,406.73 702.56,376.39 702.75,402.43 702.91,389.67 703.01,425.53 703.06,406.40 703.08,376.04 703.15,375.33 703.28,377.71 703.46,386.30 703.66,374.99 703.86,372.22 704.05,393.73 704.20,384.49 704.31,399.45 704.35,394.66 704.37,394.01 704.45,344.29 704.58,279.66 704.75,233.26 704.95,309.00 705.15,207.20 705.34,213.94 705.49,348.58 705.60,364.91 705.64,250.83 705.66,411.66 705.74,399.17 705.87,394.83 706.05,364.90 706.24,374.68 706.45,383.12 706.63,374.05 706.79,371.41 706.89,375.19 706.94,400.25 706.96,378.96 707.03,372.08 707.16,326.80 707.34,332.16 707.54,321.69 707.74,358.66 707.93,370.51 708.08,344.35 708.19,397.03 708.23,361.46 708.25,406.58 708.33,389.35 708.46,416.61 708.63,400.27 708.83,389.20 709.03,363.32 709.22,345.04 709.38,337.27 709.48,369.07 709.52,369.67 709.54,387.08 709.62,419.43 709.75,418.82 709.93,394.52 710.12,385.12 710.33,374.97 710.51,417.41 710.67,385.08 710.77,387.36 710.82,380.26 710.84,312.61 710.91,278.63 711.05,258.98 711.22,230.23 711.42,168.91 711.62,155.21 711.81,255.29 711.96,272.42 712.07,278.84 712.11,304.06 712.13,382.69 712.21,399.43 712.34,394.05 712.51,401.84 712.71,372.64 712.91,373.97 713.10,419.59 713.26,394.90 713.36,381.11 713.40,401.72 713.42,379.57 713.50,380.19 713.63,385.59 713.81,380.25 714.01,375.62 714.21,372.77 714.40,374.29 714.55,418.03 714.65,414.20 714.70,382.25 714.72,348.28 714.80,393.25 714.93,274.00 715.10,276.26 715.30,230.45 715.50,246.57 715.69,242.32 715.84,324.92 715.95,217.18 715.99,327.03 716.01,375.95 716.09,416.97 716.22,396.10 716.39,371.14 716.59,379.58 716.79,384.64 716.98,360.90 717.14,425.47 717.24,372.21 717.28,370.46 717.30,372.81 717.38,370.08 717.51,378.24 717.69,341.91 717.89,346.84 718.09,402.55 718.28,369.48 718.43,394.80 718.53,395.05 718.58,375.15 718.60,367.20 718.68,369.89 718.81,326.21 718.98,342.50 719.18,369.03 719.38,365.60 719.57,339.84 719.72,337.51 719.83,359.71 719.87,372.41 719.89,420.31 719.97,391.06 720.10,365.12 720.28,391.73 720.47,411.79 720.68,399.13 720.86,414.49 721.02,389.39 721.12,403.58 721.16,388.99 721.19,307.24 721.26,282.83 721.39,216.79 721.57,164.50 721.77,196.47 721.97,222.76 722.16,350.68 722.31,302.66 722.41,261.18 722.46,315.04 722.48,391.14 722.56,388.65 722.69,425.25 722.86,378.66 723.06,407.74 723.27,371.29 723.45,400.78 723.60,366.58 723.71,408.40 723.75,372.64 723.77,391.91 723.85,394.90 723.98,387.92 724.16,384.35 724.35,354.04 724.56,398.82 724.74,352.47 724.90,353.83 725.00,412.75 725.04,411.01 725.07,344.49 725.14,328.86 725.28,340.20 725.45,324.16 725.65,266.72 725.85,237.11 726.04,280.96 726.19,398.37 726.29,371.27 726.34,347.94 726.36,370.96 726.44,374.90 726.57,383.28 726.74,383.83 726.94,369.21 727.15,397.09 727.33,402.27 727.48,383.01 727.59,393.44 727.63,406.54 727.65,349.44 727.73,368.66 727.86,341.85 728.04,334.28 728.24,364.36 728.44,372.85 728.62,395.74 728.78,396.48 728.88,391.33 728.93,340.98 728.95,385.89 729.02,373.77 729.16,364.33 729.33,352.99 729.53,363.59 729.73,383.37 729.92,389.65 730.07,387.49 730.17,330.09 730.22,376.08 730.24,371.27 730.32,392.14 730.45,383.31 730.62,360.94 730.82,376.84 731.03,375.76 731.21,363.36 731.36,371.21 731.47,396.72 731.51,388.83 731.53,334.28 731.61,330.76 731.74,171.62 731.92,183.71 732.12,203.51 732.32,223.57 732.51,240.86 732.66,306.51 732.76,330.35 732.81,298.83 732.83,383.81 732.91,375.38 733.04,370.26 733.21,396.59 733.41,357.70 733.61,376.99 733.80,384.21 733.95,380.58 734.06,376.08 734.10,364.96 734.12,399.55 734.20,410.67 734.33,390.26 734.51,406.11 734.70,362.26 734.91,372.13 735.09,368.12 735.24,354.33 735.35,375.53 735.39,381.94 735.41,309.86 735.49,346.47 735.62,327.65 735.80,296.60 736.00,285.14 736.20,275.40 736.39,283.15 736.54,347.97 736.64,305.13 736.69,313.38 736.71,372.23 736.79,411.36 736.92,376.28 737.09,402.60 737.29,399.34 737.50,377.67 737.68,386.27 737.83,396.65 737.94,365.10 737.98,368.11 738.00,344.71 738.08,302.78 738.21,318.44 738.39,375.04 738.58,361.58 738.79,335.14 738.97,364.06 739.13,359.68 739.23,418.67 739.27,415.48 739.29,396.54 739.37,366.36 739.51,358.44 739.68,338.66 739.88,345.27 740.08,328.74 740.27,330.70 740.42,352.23 740.52,369.26 740.57,334.12 740.59,416.52 740.67,373.37 740.80,387.44 740.97,378.51 741.17,393.66 741.38,389.51 741.56,377.24 741.71,372.46 741.82,394.60 741.86,369.40 741.88,284.61 741.96,368.83 742.09,248.99 742.27,197.28 742.47,220.32 742.67,322.16 742.85,362.35 743.01,330.91 743.11,391.29 743.15,351.42 743.17,384.88 743.25,379.82 743.39,402.94 743.56,394.89 743.76,400.74 743.96,341.21 744.15,360.54 744.30,397.39 744.40,384.97 744.45,371.52 744.47,381.35 744.55,386.33 744.68,370.16 744.85,341.85 745.06,354.52 745.26,343.37 745.44,377.15 745.59,381.45 745.70,388.79 745.74,373.00 745.76,330.38 745.84,377.69 745.97,260.14 746.15,264.30 746.35,252.49 746.55,184.74 746.74,185.95 746.89,292.64 746.99,343.80 747.03,284.84 747.05,395.62 747.13,396.57 747.27,383.21 747.44,400.14 747.64,405.62 747.84,396.39 748.03,398.14 748.18,378.52 748.28,384.26 748.33,408.48 748.35,351.04 748.43,356.22 748.56,326.17 748.74,395.05 748.94,371.24 749.14,371.33 749.32,378.37 749.47,373.69 749.58,401.34 749.62,376.86 749.64,334.79 749.72,362.93 749.85,339.86 750.03,370.93 750.23,375.45 750.43,336.36 750.62,337.88 750.77,321.57 750.87,365.94 750.91,332.83 750.93,395.21 751.01,387.21 751.15,384.75 751.33,391.71 751.52,378.19 751.73,392.06 751.91,406.40 752.06,378.44 752.16,410.91 752.21,368.31 752.23,273.33 752.31,394.85 752.44,241.99 752.62,238.02 752.82,240.19 753.02,268.21 753.20,333.00 753.35,372.59 753.46,396.83 753.50,322.02 753.52,389.62 753.60,385.97 753.73,354.23 753.91,370.82 754.11,362.01 754.31,392.74 754.50,401.16 754.65,385.76 754.75,387.39 754.79,405.44 754.81,418.22 754.89,385.03 755.03,395.93 755.21,353.06 755.40,401.66 755.61,393.15 755.79,396.64 755.94,369.84 756.04,382.03 756.09,404.98 756.11,313.54 756.19,396.85 756.32,318.79 756.50,209.01 756.70,213.79 756.90,172.62 757.08,195.24 757.24,257.58 757.34,283.98 757.38,305.20 757.40,379.96 757.48,380.50 757.62,387.80 757.79,378.51 757.99,423.12 758.19,379.79 758.38,363.56 758.53,402.30 758.63,382.52 758.67,391.73 758.69,375.35 758.77,355.34 758.91,359.68 759.09,408.30 759.29,371.50 759.49,361.49 759.67,385.94 759.82,352.91 759.92,392.49 759.97,363.30 759.99,360.70 760.07,369.40 760.20,373.42 760.38,338.64 760.58,365.17 760.78,330.57 760.97,357.93 761.12,322.03 761.22,376.60 761.26,329.67 761.28,387.48 761.36,389.93 761.50,414.81 761.67,382.99 761.87,396.86 762.07,383.91 762.26,388.31 762.41,358.26 762.51,397.80 762.55,377.07 762.57,253.44 762.66,291.67 762.79,346.83 762.97,208.55 763.17,193.61 763.37,228.16 763.55,263.73 763.70,404.01 763.81,330.39 763.85,326.29 763.87,374.87 763.95,382.35 764.08,406.82 764.26,385.06 764.46,364.63 764.66,350.84 764.85,400.00 765.00,394.42 765.10,415.97 765.14,388.34 765.16,376.73 765.24,378.56 765.38,365.53 765.56,369.06 765.75,379.98 765.95,411.76 766.14,365.14 766.29,410.72 766.39,396.78 766.43,391.72 766.46,306.95 766.54,354.42 766.67,251.76 766.85,188.60 767.05,196.61 767.25,178.06 767.43,194.08 767.58,332.06 767.69,340.16 767.73,301.19 767.75,406.07 767.83,328.90 767.96,387.62 768.14,384.82 768.34,376.31 768.54,396.16 768.73,379.57 768.88,373.70 768.98,385.31 769.02,382.40 769.04,361.72 769.12,389.78 769.26,398.97 769.44,347.78 769.63,400.82 769.84,377.54 770.02,390.78 770.17,385.84 770.27,379.37 770.31,410.89 770.34,392.74 770.42,338.91 770.55,376.06 770.73,362.63 770.93,383.28 771.13,356.27 771.31,341.24 771.47,382.07 771.57,412.45 771.61,341.49 771.63,413.71 771.71,391.01 771.85,383.57 772.02,426.05 772.22,396.96 772.42,399.70 772.61,369.01 772.76,398.96 772.86,406.41 772.90,385.87 772.92,346.01 773.00,299.62 773.14,222.20 773.32,212.34 773.52,177.70 773.72,217.05 773.90,257.30 774.05,325.25 774.15,377.01 774.19,289.20 774.22,393.95 774.30,372.63 774.43,383.57 774.61,398.92 774.81,388.25 775.01,343.39 775.19,357.12 775.35,370.22 775.45,359.97 775.49,386.79 775.51,392.22 775.59,414.15 775.73,398.99 775.90,370.44 776.10,374.09 776.30,339.82 776.49,360.43 776.64,399.63 776.74,401.64 776.78,409.12 776.80,266.20 776.89,320.32 777.02,291.81 777.20,214.26 777.40,216.90 777.60,230.40 777.78,260.79 777.93,368.63 778.03,388.40 778.07,371.96 778.10,381.04 778.18,412.93 778.31,398.48 778.49,370.84 778.69,360.05 778.89,406.61 779.08,418.00 779.23,365.38 779.33,386.68 779.37,405.24 779.39,370.38 779.47,375.84 779.61,367.07 779.79,356.06 779.98,344.24 780.18,398.71 780.37,382.71 780.52,381.01 780.62,387.15 780.66,380.40 780.68,365.67 780.77,364.92 780.90,397.26 781.08,308.33 781.28,352.12 781.48,313.58 781.66,349.22 781.81,383.28 781.91,343.29 781.95,333.34 781.98,391.13 782.06,385.12 782.19,378.68 782.37,395.21 782.57,402.71 782.77,414.58 782.96,372.53 783.11,385.22 783.21,374.22 783.25,412.55 783.27,324.41 783.35,374.00 783.49,311.65 783.67,208.41 783.86,207.48 784.07,214.45 784.25,247.31 784.40,354.92 784.50,328.05 784.54,325.81 784.56,410.83 784.65,381.16 784.78,404.05 784.96,375.72 785.16,342.01 785.36,352.60 785.54,362.19 785.70,365.57 785.79,386.91 785.83,392.24 785.86,370.48 785.94,386.92 786.08,405.88 786.25,392.62 786.45,380.89 786.65,380.91 786.84,374.88 786.99,368.09 787.09,384.53 787.13,396.36 787.15,322.02 787.23,352.73 787.37,288.39 787.55,250.88 787.74,248.63 787.95,259.16 788.13,249.31 788.28,255.44 788.38,352.35 788.42,241.79 788.44,411.40 788.53,374.30 788.66,344.75 788.84,360.98 789.04,394.50 789.24,388.89 789.42,394.95 789.58,370.51 789.67,407.72 789.71,377.86 789.74,340.16 789.82,326.45 789.96,345.56 790.13,381.20 790.33,337.87 790.54,375.26 790.72,358.99 790.87,403.98 790.97,392.57 791.01,400.71 791.03,327.46 791.12,383.75 791.25,406.82 791.43,337.17 791.63,313.43 791.83,321.23 792.01,292.07 792.16,361.12 792.26,334.58 792.30,397.83 792.32,372.28 792.41,369.59 792.54,383.36 792.72,406.18 792.92,373.04 793.12,374.70 793.31,393.99 793.46,401.77 793.55,385.85 793.59,381.95 793.62,356.85 793.70,396.36 793.84,211.77 794.02,251.64 794.21,377.37 794.42,257.42 794.60,377.10 794.75,283.32 794.85,400.10 794.89,273.43 794.91,377.81 795.00,391.77 795.13,401.70 795.31,387.78 795.51,364.18 795.71,395.68 795.89,363.09 796.04,344.04 796.14,393.16 796.18,379.37 796.20,383.85 796.29,385.41 796.42,385.20 796.60,383.62 796.80,378.11 797.00,395.24 797.19,355.20 797.34,391.53 797.44,370.74 797.47,371.61 797.50,346.28 797.58,408.50 797.72,251.09 797.90,297.05 798.09,204.53 798.30,185.93 798.48,191.16 798.63,278.33 798.73,392.82 798.77,328.99 798.79,377.65 798.88,366.14 799.01,390.94 799.19,369.22 799.39,392.57 799.59,373.83 799.78,364.99 799.92,384.81 800.02,400.00 800.06,372.42 800.08,343.57 800.17,380.39 800.31,353.28 800.48,390.63 800.68,355.00 800.89,395.04 801.07,377.59 801.22,378.24 801.32,370.54 801.35,356.52 801.38,353.41 801.46,360.19 801.60,382.29 801.78,301.15 801.98,325.59 802.18,322.46 802.36,299.77 802.51,296.74 802.61,361.46 802.65,332.49 802.67,397.74 802.76,358.14 802.89,378.71 803.07,380.21 803.27,382.73 803.47,410.59 803.66,390.68 803.81,366.80 803.90,380.05 803.94,396.23 803.96,285.22 804.05,299.27 804.19,334.32 804.36,241.17 804.57,234.80 804.77,303.21 804.95,326.05 805.10,262.05 805.20,313.40 805.23,325.28 805.26,353.80 805.34,377.77 805.48,360.63 805.66,376.36 805.86,353.70 806.06,394.72 806.24,380.45 806.39,385.74 806.49,357.37 806.53,414.11 806.55,367.10 806.64,371.02 806.77,388.19 806.95,392.18 807.15,387.56 807.35,387.52 807.54,363.37 807.69,368.79 807.78,398.66 807.82,343.67 807.84,269.99 807.93,425.85 808.07,328.92 808.24,209.51 808.45,205.90 808.65,188.04 808.83,227.15 808.98,238.32 809.08,404.09 809.11,285.66 809.14,408.69 809.22,408.65 809.36,415.27 809.54,369.50 809.74,368.87 809.94,398.55 810.13,363.48 810.27,381.21 810.37,377.67 810.41,416.29 810.43,357.88 810.52,349.76 810.65,368.33 810.83,348.35 811.03,352.71 811.23,377.30 811.42,387.00 811.57,353.85 811.66,402.33 811.70,384.86 811.72,303.58 811.81,377.35 811.95,369.12 812.13,344.47 812.33,336.23 812.53,358.15 812.71,297.51 812.86,317.27 812.96,405.97 812.99,367.91 813.02,366.24 813.10,387.45 813.24,397.25 813.42,377.57 813.62,391.49 813.82,356.07 814.01,370.39 814.15,356.79 814.25,385.48 814.29,382.46 814.31,311.38 814.40,335.04 814.53,293.96 814.71,215.15 814.91,183.93 815.12,340.60 815.30,351.07 815.45,375.92 815.54,355.12 815.58,402.82 815.61,392.12 815.69,372.78 815.83,382.97 816.01,376.12 816.21,414.39 816.41,418.89 816.59,387.87 816.74,417.83 816.84,394.93 816.87,398.27 816.90,337.91 816.98,405.07 817.12,371.80 817.30,421.61 817.50,400.02 817.70,391.42 817.89,391.34 818.03,409.82 818.13,410.92 818.17,395.49 818.19,301.25 818.28,300.61 818.42,320.23 818.59,276.07 818.80,193.78 819.00,207.38 819.18,203.87 819.33,217.85 819.42,353.47 819.46,327.10 819.49,390.63 819.57,387.25 819.71,373.86 819.89,406.78 820.09,372.19 820.29,382.00 820.47,400.97 820.62,381.48 820.72,371.98 820.75,407.60 820.78,349.28 820.86,385.80 821.00,409.47 821.18,393.37 821.38,386.10 821.58,377.84 821.77,373.61 821.91,347.92 822.01,397.81 822.05,388.08 822.07,391.52 822.16,403.15 822.30,361.79 822.47,317.95 822.68,362.82 822.88,279.67 823.06,294.14 823.21,292.79 823.30,381.17 823.34,395.83 823.37,388.60 823.45,420.57 823.59,399.66 823.77,342.94 823.97,370.15 824.17,407.49 824.36,359.66 824.50,380.67 824.60,381.89 824.63,367.68 824.66,262.61 824.75,285.22 824.88,321.37 825.07,244.50 825.26,248.57 825.46,296.75 825.65,385.75 825.79,384.40 825.89,400.74 825.93,365.89 825.95,383.86 826.04,419.39 826.18,405.43 826.36,387.43 826.56,384.63 826.76,389.16 826.94,361.49 827.09,386.35 827.19,348.36 827.22,408.75 827.25,385.95 827.33,376.17 827.47,412.15 827.65,383.92 827.85,399.95 828.05,416.27 828.24,399.89 828.38,415.07 828.48,368.82 828.51,395.11 828.54,295.69 828.63,312.88 828.77,362.85 828.95,238.17 829.14,213.97 829.35,229.80 829.53,209.81 829.67,339.13 829.77,359.87 829.81,327.80 829.83,366.13 829.92,388.98 830.06,370.13 830.24,382.64 830.44,361.27 830.64,386.35 830.82,399.24 830.97,397.53 831.07,390.84 831.10,362.28 831.13,380.95 831.21,353.77 831.35,380.25 831.53,392.21 831.73,374.20 831.93,375.56 832.12,382.07 832.26,356.33 832.36,402.98 832.39,401.86 832.42,317.98 832.51,322.10 832.65,344.89 832.83,377.25 833.02,292.74 833.23,296.08 833.41,295.02 833.56,290.05 833.65,364.94 833.69,317.72 833.71,379.66 833.80,375.69 833.94,382.07 834.12,366.98 834.32,389.55 834.52,384.21 834.70,373.20 834.85,386.04 834.95,391.16 834.98,417.28 835.01,278.56 835.09,341.86 835.23,292.67 835.41,283.57 835.61,287.08 835.81,285.70 836.00,306.72 836.14,387.52 836.24,322.49 836.27,323.59 836.30,368.12 836.39,420.69 836.53,388.82 836.71,390.20 836.91,397.82 837.11,362.84 837.29,352.55 837.44,371.75 837.53,385.93 837.57,407.49 837.59,379.22 837.68,384.69 837.82,406.97 838.00,394.55 838.20,409.17 838.40,365.97 838.59,381.05 838.73,371.99 838.83,384.41 838.86,395.07 838.89,282.24 838.98,322.62 839.12,332.99 839.29,176.44 839.49,199.71 839.69,232.18 839.88,228.69 840.02,246.30 840.12,335.41 840.15,281.67 840.18,405.93 840.27,393.31 840.41,389.34 840.59,360.01 840.79,408.49 840.99,394.46 841.17,382.69 841.32,387.02 841.41,378.46 841.45,411.24 841.47,397.61 841.56,373.68 841.70,395.23 841.88,349.87 842.08,389.24 842.28,381.92 842.47,390.63 842.61,397.36 842.71,413.63 842.74,375.43 842.77,388.63 842.86,363.98 843.00,359.22 843.18,317.69 843.37,313.99 843.58,288.11 843.76,334.00 843.90,332.55 844.00,324.83 844.03,358.15 844.06,389.68 844.15,400.12 844.29,389.42 844.47,340.16 844.67,374.42 844.87,357.40 845.05,365.52 845.20,353.74 845.29,414.81 845.33,361.73 845.36,308.15 845.44,340.04 845.58,320.61 845.76,260.84 845.96,347.49 846.16,290.80 846.35,281.41 846.49,337.63 846.59,398.87 846.62,330.44 846.65,369.87 846.74,372.80 846.88,407.93 847.06,420.55 847.25,410.78 847.46,383.31 847.64,366.87 847.79,386.93 847.88,415.56 847.91,369.66 847.94,386.67 848.03,384.42 848.17,363.66 848.35,392.35 848.55,369.69 848.75,365.67 848.93,365.75 849.08,388.45 849.17,390.41 849.21,414.76 849.24,268.78 849.32,244.84 849.47,284.00 849.64,153.69 849.85,187.05 850.04,223.74 850.23,200.78 850.37,197.30 850.47,381.40 850.50,318.60 850.53,378.45 850.62,396.58 850.76,388.40 850.94,385.06 851.14,373.05 851.34,375.19 851.52,414.44 851.67,387.84 851.76,397.18 851.80,397.24 851.82,377.82 851.91,369.23 852.05,375.01 852.23,400.27 852.43,400.54 852.63,374.21 852.82,359.31 852.96,405.74 853.05,410.62 853.09,371.06 853.12,375.07 853.21,321.34 853.35,371.10 853.52,401.13 853.73,363.51 853.92,312.57 854.11,326.04 854.25,306.61 854.35,351.01 854.38,361.32 854.41,380.04 854.50,382.10 854.64,406.68 854.82,353.85 855.02,379.41 855.22,406.95 855.40,365.73 855.55,374.29 855.64,387.99 855.68,392.15 855.70,331.41 855.79,275.22 855.93,308.36 856.11,281.42 856.31,291.93 856.51,389.78 856.70,236.57 856.84,331.32 856.94,384.03 856.97,325.76 857.00,369.97 857.09,369.22 857.23,379.16 857.41,425.70 857.61,399.91 857.80,401.16 857.99,360.56 858.13,359.64 858.23,370.83 858.26,413.42 858.29,402.33 858.38,380.14 858.52,384.63 858.70,367.93 858.90,366.06 859.10,354.16 859.28,394.25 859.43,401.80 859.52,391.67 859.56,379.58 859.58,264.67 859.67,287.22 859.81,301.55 859.99,214.59 860.19,198.06 860.40,223.01 860.58,218.76 860.72,250.58 860.82,372.27 860.85,314.81 860.88,417.15 860.97,378.07 861.11,409.29 861.29,379.32 861.49,385.33 861.69,396.67 861.87,397.91 862.02,416.59 862.11,370.11 862.14,412.38 862.17,424.49 862.26,360.72 862.40,359.41 862.58,418.41 862.78,396.98 862.98,363.49 863.16,407.69 863.31,353.20 863.40,383.74 863.44,414.02 863.46,336.75 863.55,315.51 863.70,393.70 863.87,310.57 864.07,361.00 864.28,306.83 864.46,299.81 864.60,333.12 864.70,360.10 864.73,355.07 864.76,392.70 864.85,384.43 864.99,387.79 865.17,392.89 865.37,363.02 865.57,377.82 865.75,384.32 865.90,361.59 865.99,351.67 866.02,399.47 866.05,370.82 866.14,350.11 866.28,274.43 866.46,241.05 866.66,255.61 866.86,395.55 867.04,358.25 867.19,240.56 867.28,322.82 867.32,372.73 867.34,384.42 867.43,367.35 867.58,415.74 867.75,365.44 867.96,393.61 868.16,402.41 868.34,348.18 868.48,354.21 868.58,382.85 868.61,389.87 868.64,377.16 868.73,357.61 868.87,369.20 869.05,370.85 869.25,365.01 869.45,351.31 869.63,390.76 869.78,379.32 869.87,404.95 869.90,404.22 869.93,313.21 870.02,303.55 870.16,332.40 870.34,284.04 870.54,214.65 870.74,181.54 870.93,297.47 871.07,243.82 871.16,369.85 871.20,281.66 871.22,377.74 871.31,378.36 871.46,372.11 871.64,370.73 871.84,417.18 872.04,407.52 872.22,401.22 872.36,380.19 872.46,357.44 872.49,414.40 872.52,369.63 872.61,382.16 872.75,370.14 872.93,404.20 873.13,363.77 873.33,420.67 873.51,365.41 873.66,390.66 873.75,389.07 873.78,390.89 873.81,350.03 873.90,328.83 874.04,303.25 874.22,290.08 874.42,294.14 874.63,275.83 874.81,294.32 874.95,300.16 875.04,374.41 875.08,309.42 875.11,390.22 875.19,373.72 875.34,373.71 875.52,363.93 875.72,372.55 875.92,388.05 876.10,377.30 876.24,413.66 876.34,395.32 876.37,377.43 876.40,262.13 876.49,371.58 876.63,317.72 876.81,252.78 877.01,296.86 877.21,327.29 877.39,337.56 877.54,288.36 877.63,328.47 877.66,306.95 877.69,395.99 877.78,372.46 877.93,381.93 878.10,396.02 878.30,374.65 878.51,351.42 878.69,350.01 878.83,400.36 878.92,413.18 878.96,353.91 878.99,394.62 879.07,375.50 879.22,393.53 879.40,359.19 879.60,364.70 879.80,389.31 879.98,367.20 880.13,399.86 880.22,382.96 880.25,373.70 880.28,298.06 880.37,333.83 880.51,327.30 880.69,304.38 880.89,228.07 881.09,282.07 881.27,249.22 881.42,271.36 881.51,323.05 881.54,298.13 881.57,401.47 881.66,408.30 881.81,408.04 881.98,366.99 882.19,372.60 882.39,383.52 882.57,404.41 882.71,393.00 882.80,397.27 882.84,377.90 882.87,390.83 882.95,395.58 883.10,375.82 883.28,384.99 883.48,394.40 883.68,358.22 883.86,355.14 884.01,409.75 884.10,402.65 884.13,381.71 884.16,343.74 884.25,422.19 884.39,376.03 884.57,337.90 884.77,241.96 884.97,240.46 885.16,267.78 885.30,263.89 885.39,382.94 885.42,364.65 885.45,376.84 885.54,386.83 885.69,366.35 885.86,374.24 886.07,356.97 886.27,378.64 886.45,374.78 886.59,365.37 886.68,403.20 886.72,370.91 886.75,339.06 886.84,276.16 886.98,328.23 887.16,267.39 887.36,324.96 887.55,410.09 887.74,340.94 887.88,381.47 887.97,330.65 888.00,362.74" fill="none" stroke="#000" stroke-width="1.5" opacity="0.9"/>
<text x="500.0" y="502" font-family="Times New Roman" font-size="19" text-anchor="middle">Julian Date</text>
<text transform="translate(18,247.0) rotate(-90)" font-family="Times New Roman" font-size="19" text-anchor="middle">position residual (km)</text>
</svg>
