<svg xmlns="http://www.w3.org/2000/svg" width="920" height="520" viewBox="0 0 920 520">
<rect width="100%" height="100%" fill="white"/>
<text x="460.0" y="24" font-family="Times New Roman" font-size="24" text-anchor="middle">EMB native velocity residual</text>
<line x1="112" y1="434" x2="888" y2="434" stroke="#333"/>
<line x1="112" y1="60" x2="112" y2="434" stroke="#333"/>
<line x1="112" y1="434.00" x2="888" y2="434.00" stroke="#ddd"/>
<text x="104" y="438.00" font-family="Times New Roman" font-size="17" text-anchor="end">0</text>
<line x1="112" y1="340.50" x2="888" y2="340.50" stroke="#ddd"/>
<text x="104" y="344.50" font-family="Times New Roman" font-size="17" text-anchor="end">0.6072</text>
<line x1="112" y1="247.00" x2="888" y2="247.00" stroke="#ddd"/>
<text x="104" y="251.00" font-family="Times New Roman" font-size="17" text-anchor="end">1.214</text>
<line x1="112" y1="153.50" x2="888" y2="153.50" stroke="#ddd"/>
<text x="104" y="157.50" font-family="Times New Roman" font-size="17" text-anchor="end">1.822</text>
<line x1="112" y1="60.00" x2="888" y2="60.00" stroke="#ddd"/>
<text x="104" y="64.00" font-family="Times New Roman" font-size="17" text-anchor="end">2.429</text>
<line x1="112.00" y1="434" x2="112.00" y2="439" stroke="#333"/>
<text x="112.00" y="456" font-family="Times New Roman" font-size="17" text-anchor="middle">2378495</text>
<line x1="306.00" y1="434" x2="306.00" y2="439" stroke="#333"/>
<text x="306.00" y="456" font-family="Times New Roman" font-size="17" text-anchor="middle">2433282</text>
<line x1="500.00" y1="434" x2="500.00" y2="439" stroke="#333"/>
<text x="500.00" y="456" font-family="Times New Roman" font-size="17" text-anchor="middle">2488070</text>
<line x1="694.00" y1="434" x2="694.00" y2="439" stroke="#333"/>
<text x="694.00" y="456" font-family="Times New Roman" font-size="17" text-anchor="middle">2542858</text>
<line x1="888.00" y1="434" x2="888.00" y2="439" stroke="#333"/>
<text x="888.00" y="456" font-family="Times New Roman" font-size="17" text-anchor="middle">2597645</text>
<polyline points="112.00,403.10 112.03,411.17 112.12,403.04 112.27,410.55 112.45,406.10 112.65,412.31 112.84,404.95 113.03,404.53 113.17,400.61 113.26,390.07 113.29,176.86 113.32,345.33 113.41,363.99 113.56,355.12 113.74,332.55 113.94,362.42 114.14,397.55 114.32,398.40 114.46,413.44 114.55,341.96 114.58,370.11 114.61,395.79 114.71,403.06 114.85,396.28 115.03,400.56 115.23,401.56 115.43,405.27 115.61,403.91 115.75,392.78 115.85,415.17 115.88,372.21 115.91,397.21 116.00,394.61 116.14,407.01 116.33,410.35 116.52,394.29 116.73,420.72 116.91,403.66 117.05,393.08 117.14,405.43 117.17,298.74 117.20,348.71 117.29,378.76 117.44,404.47 117.62,383.43 117.82,379.77 118.02,355.21 118.20,366.62 118.34,364.87 118.43,339.79 118.46,384.77 118.49,417.25 118.59,388.46 118.73,409.13 118.91,407.21 119.11,409.95 119.31,401.47 119.49,412.79 119.64,406.16 119.73,403.51 119.76,320.67 119.79,386.24 119.88,397.19 120.03,376.08 120.21,406.58 120.41,385.98 120.61,377.74 120.79,383.67 120.93,405.37 121.02,403.70 121.05,328.68 121.08,366.75 121.17,391.11 121.32,411.41 121.50,402.12 121.70,383.67 121.90,391.38 122.08,374.29 122.22,352.24 122.31,363.04 122.34,412.70 122.37,389.49 122.47,407.71 122.61,411.79 122.79,406.63 122.99,424.47 123.19,420.82 123.38,413.37 123.52,389.51 123.61,415.95 123.64,279.59 123.67,317.41 123.76,347.94 123.91,353.72 124.09,319.22 124.29,339.64 124.49,388.59 124.67,385.55 124.81,407.14 124.90,342.19 124.93,302.71 124.96,391.23 125.06,392.40 125.20,408.45 125.38,403.20 125.58,404.40 125.78,383.36 125.96,398.11 126.10,409.35 126.19,412.48 126.22,367.67 126.25,414.32 126.35,387.90 126.49,398.66 126.68,394.24 126.88,403.59 127.07,410.49 127.26,419.05 127.40,395.58 127.49,402.26 127.52,253.75 127.55,354.13 127.64,377.06 127.79,384.39 127.97,360.75 128.17,376.00 128.37,365.81 128.55,341.46 128.69,390.71 128.78,345.94 128.81,402.78 128.84,395.88 128.94,394.11 129.08,399.77 129.26,412.45 129.46,402.91 129.66,397.56 129.84,403.09 129.98,386.27 130.07,419.31 130.10,367.93 130.14,338.81 130.23,414.49 130.37,414.51 130.56,411.21 130.76,404.87 130.96,376.53 131.14,393.90 131.28,384.99 131.37,402.83 131.40,333.95 131.43,386.90 131.52,392.30 131.67,407.05 131.85,411.69 132.05,405.92 132.25,393.42 132.43,377.97 132.57,359.02 132.66,387.68 132.69,327.69 132.72,403.12 132.82,404.67 132.96,413.73 133.14,415.60 133.34,419.02 133.54,415.75 133.72,402.15 133.87,400.63 133.95,383.18 133.98,273.73 134.02,282.34 134.11,353.93 134.26,345.06 134.44,325.97 134.64,334.36 134.84,364.79 135.02,350.15 135.16,346.61 135.25,332.21 135.28,389.86 135.31,402.79 135.40,398.72 135.55,402.57 135.73,403.11 135.93,405.95 136.13,401.87 136.31,401.03 136.45,406.08 136.54,406.43 136.57,403.90 136.60,421.84 136.70,399.35 136.84,400.74 137.02,403.17 137.23,413.76 137.42,414.05 137.60,412.73 137.75,403.74 137.83,416.61 137.86,246.00 137.90,315.45 137.99,351.06 138.14,367.94 138.32,343.77 138.52,367.54 138.72,366.43 138.90,344.97 139.04,389.68 139.13,352.34 139.16,426.01 139.19,384.84 139.28,404.76 139.43,403.03 139.61,407.05 139.81,392.73 140.01,399.02 140.19,412.53 140.33,401.62 140.42,419.75 140.45,288.61 140.48,362.74 140.58,395.88 140.72,401.53 140.90,395.09 141.11,412.55 141.30,392.13 141.49,402.89 141.63,398.04 141.72,392.76 141.74,355.04 141.78,389.45 141.87,387.33 142.02,417.76 142.20,409.86 142.40,420.39 142.60,384.12 142.78,401.74 142.92,386.14 143.01,362.68 143.04,365.01 143.07,419.84 143.16,387.21 143.31,415.61 143.49,420.81 143.69,418.54 143.89,408.90 144.07,393.61 144.21,407.54 144.30,388.70 144.33,177.83 144.36,293.90 144.46,399.71 144.60,333.00 144.79,328.24 144.99,328.49 145.19,356.63 145.37,339.46 145.51,381.94 145.60,409.69 145.62,394.86 145.66,403.71 145.75,383.99 145.90,410.93 146.08,400.59 146.28,400.94 146.48,404.42 146.66,399.82 146.80,398.12 146.89,409.41 146.92,407.59 146.95,409.73 147.04,408.52 147.19,396.04 147.37,400.77 147.57,420.28 147.78,415.68 147.95,409.48 148.09,391.70 148.18,415.15 148.21,249.37 148.24,311.82 148.34,384.65 148.49,353.22 148.67,337.90 148.87,325.12 149.07,353.00 149.25,324.13 149.39,340.59 149.48,371.11 149.50,386.47 149.54,384.04 149.63,397.28 149.78,395.98 149.96,404.80 150.16,400.22 150.36,395.16 150.54,402.91 150.68,399.87 150.77,393.60 150.80,260.22 150.83,374.46 150.92,366.80 151.07,386.24 151.25,388.24 151.46,406.16 151.66,414.89 151.83,407.04 151.97,395.72 152.06,399.67 152.09,375.57 152.12,388.89 152.22,387.50 152.37,418.93 152.55,406.32 152.75,427.67 152.95,400.37 153.13,401.27 153.27,413.41 153.36,358.56 153.38,386.65 153.42,401.32 153.51,391.69 153.66,405.76 153.84,414.15 154.04,416.25 154.24,403.48 154.42,401.95 154.56,396.07 154.65,400.19 154.68,287.65 154.71,281.83 154.81,390.42 154.95,347.53 155.13,356.18 155.34,357.76 155.54,353.98 155.72,362.95 155.86,361.03 155.94,414.32 155.97,335.91 156.00,407.28 156.10,387.03 156.25,411.61 156.43,400.09 156.63,391.35 156.83,403.51 157.01,403.80 157.15,394.04 157.24,406.50 157.26,372.73 157.30,413.22 157.39,409.74 157.54,397.77 157.72,408.72 157.92,415.40 158.12,409.31 158.30,406.74 158.44,403.24 158.53,413.30 158.56,336.18 158.59,328.91 158.69,416.64 158.83,372.26 159.02,353.40 159.22,304.96 159.42,320.46 159.60,336.49 159.74,304.82 159.82,344.28 159.85,378.68 159.89,414.80 159.98,389.03 160.13,388.87 160.31,395.96 160.51,407.46 160.71,405.77 160.89,393.87 161.03,407.43 161.12,395.85 161.14,322.26 161.18,408.08 161.27,366.40 161.42,373.02 161.60,391.82 161.80,400.82 162.01,418.92 162.18,408.49 162.32,393.65 162.41,377.41 162.44,359.03 162.47,406.12 162.57,400.14 162.72,399.85 162.90,390.65 163.10,410.32 163.30,408.21 163.48,362.74 163.62,382.64 163.70,381.90 163.73,384.43 163.77,386.76 163.86,410.29 164.01,396.13 164.19,416.28 164.39,409.58 164.59,399.91 164.77,407.71 164.91,406.10 165.00,390.43 165.02,271.60 165.06,327.77 165.15,380.36 165.30,369.91 165.48,371.40 165.68,409.63 165.89,365.45 166.06,386.06 166.20,353.19 166.29,381.03 166.32,361.92 166.35,404.98 166.45,389.55 166.60,399.35 166.78,405.00 166.98,393.74 167.18,413.49 167.36,400.15 167.50,394.20 167.58,426.36 167.61,396.82 167.65,395.96 167.74,407.74 167.89,409.04 168.07,414.15 168.27,411.98 168.47,404.40 168.65,410.14 168.79,418.31 168.88,408.72 168.90,322.93 168.94,306.88 169.04,385.79 169.18,381.91 169.36,355.02 169.57,316.55 169.77,315.53 169.95,328.49 170.08,320.59 170.17,386.20 170.20,388.23 170.23,421.03 170.33,399.49 170.48,397.63 170.66,393.27 170.86,401.07 171.06,387.87 171.24,390.72 171.38,400.83 171.46,405.48 171.49,339.19 171.53,396.41 171.62,376.53 171.77,378.81 171.95,405.91 172.15,395.10 172.35,407.58 172.53,397.30 172.67,396.34 172.76,414.48 172.78,386.82 172.82,398.45 172.92,413.41 173.06,400.45 173.25,386.29 173.45,409.13 173.65,420.94 173.83,351.22 173.96,364.70 174.05,424.93 174.08,372.17 174.11,380.46 174.21,394.64 174.36,403.62 174.54,413.95 174.74,405.56 174.94,400.13 175.12,409.45 175.26,394.63 175.34,399.41 175.37,301.03 175.41,313.52 175.50,359.32 175.65,373.99 175.83,350.27 176.03,394.65 176.24,392.17 176.41,408.24 176.55,397.21 176.64,405.47 176.66,347.98 176.70,405.41 176.80,392.18 176.94,397.65 177.13,408.08 177.33,406.15 177.53,414.44 177.71,413.01 177.84,403.59 177.93,385.92 177.96,387.95 177.99,420.39 178.09,390.60 178.24,415.83 178.42,405.38 178.62,415.23 178.82,408.86 179.00,410.48 179.14,409.85 179.22,423.18 179.25,255.22 179.29,256.87 179.38,389.21 179.53,381.10 179.71,384.03 179.91,341.61 180.12,333.96 180.29,364.52 180.43,355.64 180.52,368.95 180.54,373.47 180.58,402.51 180.68,397.38 180.83,417.83 181.01,397.68 181.21,402.18 181.41,398.41 181.59,390.20 181.73,395.02 181.81,396.09 181.84,340.16 181.87,381.89 181.97,410.47 182.12,406.44 182.30,419.97 182.51,413.05 182.70,422.29 182.88,388.41 183.02,387.05 183.11,395.71 183.13,340.73 183.17,370.60 183.26,394.97 183.41,391.48 183.59,395.14 183.80,403.58 184.00,385.72 184.17,343.62 184.31,351.93 184.40,400.41 184.42,346.31 184.46,408.37 184.56,403.69 184.71,404.68 184.89,409.18 185.09,385.31 185.29,397.97 185.47,413.90 185.61,398.83 185.69,408.62 185.72,316.73 185.75,318.16 185.85,351.78 186.00,375.17 186.18,321.67 186.39,355.08 186.58,425.19 186.76,415.89 186.90,370.04 186.99,384.48 187.01,381.54 187.05,405.50 187.15,397.29 187.29,404.47 187.48,408.22 187.68,413.76 187.88,415.06 188.06,410.98 188.19,385.32 188.28,400.64 188.30,373.01 188.34,397.64 188.44,393.64 188.59,393.29 188.77,409.04 188.97,403.73 189.17,396.37 189.35,406.36 189.49,396.83 189.57,427.41 189.60,274.56 189.63,355.14 189.73,365.56 189.88,419.48 190.07,415.17 190.27,370.02 190.46,382.08 190.64,377.57 190.78,368.06 190.87,393.33 190.89,355.10 190.93,419.52 191.03,395.86 191.17,407.38 191.36,397.16 191.56,407.66 191.76,410.73 191.94,396.94 192.07,402.13 192.16,394.89 192.18,364.15 192.22,382.65 192.32,404.35 192.47,417.06 192.65,408.75 192.85,428.36 193.05,413.85 193.23,376.32 193.37,407.09 193.45,404.55 193.48,338.13 193.52,361.36 193.61,388.32 193.76,393.80 193.95,405.84 194.15,380.36 194.35,352.79 194.52,355.94 194.66,351.54 194.75,362.07 194.77,379.98 194.81,403.37 194.91,402.17 195.06,392.31 195.24,400.88 195.44,392.55 195.64,392.04 195.82,405.90 195.96,408.73 196.04,422.23 196.06,297.18 196.10,280.54 196.20,325.88 196.35,351.52 196.53,329.02 196.74,347.11 196.93,401.24 197.11,393.61 197.25,356.70 197.33,391.42 197.36,373.33 197.40,400.77 197.49,398.02 197.64,407.83 197.83,405.25 198.03,405.27 198.23,414.59 198.40,414.14 198.54,400.06 198.63,394.37 198.65,347.17 198.69,404.50 198.79,404.42 198.94,395.33 199.12,417.76 199.32,411.82 199.52,400.01 199.70,403.50 199.84,385.18 199.92,419.92 199.94,374.11 199.98,302.87 200.08,347.09 200.23,408.74 200.41,353.34 200.62,361.89 200.81,381.65 200.99,379.17 201.13,352.57 201.21,357.80 201.24,423.10 201.28,403.81 201.38,384.60 201.52,411.05 201.71,418.67 201.91,408.76 202.11,406.98 202.29,392.69 202.42,378.00 202.51,414.45 202.53,356.59 202.57,363.86 202.67,374.58 202.82,419.21 203.00,416.62 203.20,416.71 203.40,413.43 203.58,402.93 203.72,394.88 203.80,402.76 203.82,369.76 203.86,364.39 203.96,361.25 204.11,399.95 204.30,395.03 204.50,370.33 204.69,338.04 204.87,389.35 205.01,390.25 205.09,378.24 205.12,347.65 205.16,405.38 205.26,402.18 205.40,399.56 205.59,391.89 205.79,400.42 205.99,403.45 206.17,398.81 206.30,408.55 206.39,408.42 206.41,289.16 206.45,293.72 206.55,379.23 206.70,346.22 206.88,329.34 207.08,341.61 207.28,375.16 207.46,372.67 207.60,354.66 207.68,399.40 207.70,387.25 207.74,399.87 207.84,401.85 207.99,398.25 208.18,411.77 208.38,415.64 208.58,410.12 208.75,406.61 208.89,425.38 208.97,387.86 209.00,367.88 209.04,377.89 209.14,393.89 209.29,408.49 209.47,405.27 209.67,412.14 209.87,387.19 210.05,408.80 210.18,389.19 210.27,393.83 210.29,258.56 210.33,342.57 210.43,405.01 210.58,368.70 210.76,324.88 210.96,329.72 211.16,369.85 211.34,343.05 211.48,338.73 211.56,402.36 211.58,405.40 211.62,404.96 211.72,404.15 211.87,406.14 212.06,410.19 212.26,414.59 212.46,413.49 212.63,399.67 212.77,412.91 212.85,402.52 212.88,359.14 212.92,398.97 213.02,369.94 213.17,405.22 213.35,402.27 213.55,413.20 213.75,413.14 213.93,407.75 214.06,398.51 214.15,412.56 214.17,394.62 214.21,419.99 214.31,379.31 214.46,404.44 214.64,412.69 214.85,387.67 215.04,353.76 215.22,405.97 215.36,389.24 215.44,384.15 215.46,382.50 215.50,418.89 215.60,405.88 215.75,393.91 215.94,392.91 216.14,394.72 216.34,400.65 216.52,401.55 216.65,382.46 216.73,406.42 216.76,303.38 216.80,306.69 216.90,386.17 217.05,360.73 217.23,368.44 217.43,367.91 217.63,373.11 217.81,346.41 217.94,365.22 218.03,391.37 218.05,401.82 218.09,401.40 218.19,391.93 218.34,398.57 218.53,403.05 218.73,405.40 218.92,416.58 219.10,415.90 219.24,410.36 219.32,392.77 219.34,358.29 219.38,396.64 219.48,406.01 219.63,405.53 219.82,414.74 220.02,401.69 220.22,400.07 220.40,404.54 220.53,413.03 220.62,399.39 220.64,214.07 220.68,306.94 220.78,373.88 220.93,394.29 221.11,326.54 221.31,317.62 221.51,335.31 221.69,334.24 221.83,267.28 221.91,397.41 221.93,362.10 221.97,382.24 222.07,399.62 222.22,406.06 222.41,410.78 222.61,418.13 222.81,419.18 222.98,398.72 223.12,394.59 223.20,410.93 223.22,390.38 223.27,405.50 223.36,386.10 223.51,394.31 223.70,408.33 223.90,406.84 224.10,422.63 224.28,408.65 224.41,420.72 224.50,417.77 224.52,390.73 224.56,410.05 224.66,382.73 224.81,385.44 224.99,421.71 225.19,411.58 225.40,374.18 225.57,387.91 225.71,388.33 225.79,414.49 225.81,360.33 225.85,405.89 225.95,389.70 226.10,414.89 226.29,385.48 226.49,397.01 226.69,398.30 226.86,408.91 227.00,381.87 227.08,398.74 227.10,283.28 227.15,323.96 227.24,377.72 227.40,351.64 227.58,374.56 227.78,390.81 227.98,375.42 228.16,382.52 228.29,358.71 228.38,356.85 228.40,403.18 228.44,401.00 228.54,396.15 228.69,408.04 228.87,402.51 229.08,396.81 229.28,414.81 229.45,396.44 229.59,389.51 229.67,411.93 229.69,338.80 229.73,421.60 229.83,421.66 229.98,395.03 230.17,404.55 230.37,389.57 230.57,406.37 230.75,401.87 230.88,404.49 230.96,384.87 230.98,240.56 231.03,322.64 231.13,394.82 231.28,390.79 231.46,338.23 231.66,308.98 231.86,336.83 232.04,339.81 232.17,323.64 232.26,375.21 232.28,361.55 232.32,386.14 232.42,405.55 232.57,410.80 232.75,413.63 232.96,419.06 233.16,421.12 233.33,412.69 233.47,412.31 233.55,415.56 233.57,383.20 233.61,387.76 233.71,405.93 233.86,393.90 234.05,396.16 234.25,406.80 234.45,395.83 234.63,388.54 234.76,406.43 234.84,380.92 234.86,309.75 234.91,394.49 235.01,393.84 235.16,373.75 235.34,376.83 235.54,397.98 235.74,404.69 235.92,375.96 236.05,357.88 236.14,377.73 236.16,397.25 236.20,397.20 236.30,378.54 236.45,401.88 236.64,392.30 236.84,413.05 237.04,407.30 237.21,390.85 237.35,387.00 237.43,414.64 237.45,381.59 237.49,346.01 237.59,337.84 237.74,381.71 237.93,367.49 238.13,406.11 238.33,403.65 238.51,398.08 238.64,383.10 238.72,366.23 238.75,390.54 238.79,404.27 238.89,396.00 239.04,416.64 239.22,396.20 239.42,414.56 239.63,403.53 239.80,392.13 239.94,382.17 240.02,404.31 240.04,425.48 240.08,410.58 240.18,402.20 240.33,402.11 240.52,390.82 240.72,395.59 240.92,405.01 241.09,397.18 241.23,409.45 241.31,419.40 241.33,280.86 241.37,285.31 241.47,359.35 241.63,380.71 241.81,363.17 242.01,333.83 242.21,355.12 242.39,374.53 242.52,348.73 242.60,359.24 242.63,381.54 242.67,400.19 242.77,394.67 242.92,403.51 243.10,415.30 243.31,409.91 243.51,409.99 243.68,400.87 243.82,408.58 243.90,398.58 243.92,346.44 243.96,371.18 244.06,420.59 244.21,404.32 244.40,401.25 244.60,402.89 244.80,387.19 244.97,399.75 245.11,384.95 245.19,405.19 245.21,367.59 245.25,375.32 245.35,413.70 245.51,378.59 245.69,379.51 245.90,374.65 246.09,372.00 246.27,352.46 246.40,329.03 246.48,396.23 246.51,381.79 246.55,398.82 246.65,396.69 246.80,418.56 246.98,404.91 247.19,413.40 247.39,415.95 247.56,405.23 247.70,383.67 247.78,404.30 247.80,298.83 247.84,353.89 247.94,328.04 248.09,385.51 248.28,344.75 248.48,395.81 248.68,416.60 248.86,419.27 248.99,388.34 249.07,392.54 249.09,420.22 249.13,381.31 249.24,401.28 249.39,411.59 249.57,405.90 249.78,412.54 249.97,393.78 250.15,394.09 250.28,388.56 250.36,416.27 250.39,364.75 250.43,391.51 250.53,393.93 250.68,396.51 250.87,397.91 251.07,410.47 251.27,402.69 251.44,388.89 251.58,391.73 251.66,395.54 251.68,329.63 251.72,323.73 251.82,327.69 251.97,407.01 252.16,384.23 252.36,343.39 252.56,345.81 252.74,396.28 252.87,379.77 252.95,333.53 252.97,387.36 253.02,404.86 253.12,399.54 253.27,401.61 253.46,417.02 253.66,401.33 253.86,403.61 254.03,401.44 254.16,395.39 254.24,413.07 254.27,380.42 254.31,380.55 254.41,415.42 254.56,408.26 254.75,405.11 254.95,401.60 255.15,390.81 255.32,406.42 255.46,410.15 255.54,370.39 255.56,403.09 255.60,388.82 255.70,410.86 255.86,402.84 256.04,384.47 256.24,351.05 256.44,340.49 256.62,363.17 256.75,337.77 256.83,345.31 256.85,368.64 256.90,416.73 257.00,403.37 257.15,400.68 257.34,412.61 257.54,404.71 257.74,409.40 257.91,399.01 258.05,388.01 258.12,407.41 258.15,344.44 258.19,319.39 258.29,341.73 258.44,373.30 258.63,329.11 258.83,382.16 259.03,416.17 259.20,424.64 259.34,389.66 259.42,388.33 259.44,367.53 259.48,401.73 259.58,403.78 259.74,407.21 259.92,406.88 260.13,404.07 260.32,384.15 260.50,406.03 260.63,392.21 260.71,406.32 260.73,369.70 260.78,415.57 260.88,394.49 261.03,415.21 261.22,395.59 261.42,397.40 261.62,414.18 261.79,382.01 261.93,404.78 262.00,415.13 262.03,310.33 262.07,372.40 262.17,314.96 262.32,396.37 262.51,380.09 262.71,341.20 262.91,386.05 263.09,407.26 263.22,356.39 263.30,343.69 263.32,384.19 263.36,394.75 263.47,410.50 263.62,406.81 263.80,412.88 264.01,404.98 264.20,405.75 264.38,404.16 264.51,404.74 264.59,402.43 264.61,319.63 264.66,377.96 264.76,399.86 264.91,400.90 265.10,401.06 265.30,390.61 265.50,392.78 265.67,405.76 265.81,393.17 265.89,421.15 265.91,408.46 265.95,404.44 266.05,369.55 266.20,424.46 266.39,406.94 266.59,351.35 266.79,340.33 266.97,395.80 267.10,359.22 267.18,332.42 267.20,396.45 267.24,426.14 267.35,400.87 267.50,409.03 267.69,409.36 267.89,410.04 268.09,410.04 268.26,392.57 268.39,407.29 268.47,398.93 268.49,255.22 268.54,338.01 268.64,362.94 268.79,353.94 268.98,336.61 269.18,367.01 269.38,399.73 269.55,381.10 269.69,369.58 269.77,331.38 269.79,407.07 269.83,409.78 269.93,411.15 270.08,398.42 270.27,409.51 270.47,403.23 270.67,402.05 270.85,407.24 270.98,419.96 271.06,397.56 271.08,396.91 271.12,408.74 271.23,393.82 271.38,414.58 271.57,404.20 271.77,404.66 271.97,415.90 272.14,382.39 272.27,387.07 272.35,402.68 272.37,243.01 272.42,341.94 272.52,303.16 272.67,399.35 272.86,360.28 273.06,346.52 273.26,405.41 273.43,373.81 273.57,345.86 273.65,328.69 273.67,394.98 273.71,397.16 273.81,402.11 273.97,399.51 274.15,400.80 274.36,392.96 274.55,411.30 274.73,410.81 274.86,395.98 274.94,413.87 274.96,380.46 275.00,410.30 275.11,395.59 275.26,401.70 275.45,396.74 275.65,382.20 275.85,397.28 276.02,394.11 276.15,415.40 276.23,414.75 276.25,332.63 276.30,408.07 276.40,356.92 276.55,403.39 276.74,414.56 276.94,382.29 277.14,360.84 277.32,409.58 277.45,390.19 277.53,373.18 277.55,362.45 277.59,422.38 277.70,396.79 277.85,400.32 278.03,413.68 278.24,417.42 278.43,406.73 278.61,403.05 278.74,396.79 278.82,417.22 278.84,312.67 278.88,359.64 278.99,361.24 279.14,342.98 279.33,346.67 279.53,347.94 279.73,383.68 279.90,398.96 280.03,397.12 280.11,321.76 280.13,388.71 280.18,404.68 280.28,418.00 280.43,399.87 280.62,400.35 280.82,388.74 281.02,413.12 281.20,394.91 281.33,383.59 281.41,374.86 281.43,397.53 281.47,407.83 281.58,400.64 281.73,418.93 281.92,409.25 282.12,417.92 282.31,416.05 282.49,391.32 282.62,400.17 282.70,421.52 282.72,360.70 282.76,384.53 282.87,355.87 283.02,355.11 283.21,358.24 283.41,339.93 283.61,395.23 283.78,371.15 283.91,340.31 283.99,280.84 284.01,360.03 284.06,384.56 284.16,407.49 284.31,400.09 284.50,389.49 284.70,401.02 284.90,398.06 285.08,406.22 285.21,401.86 285.29,412.17 285.31,379.48 285.35,405.56 285.46,403.76 285.61,385.18 285.80,388.57 286.00,383.02 286.20,401.43 286.37,404.39 286.50,397.61 286.58,403.69 286.60,320.30 286.65,379.82 286.75,362.81 286.90,394.10 287.09,391.87 287.29,413.51 287.49,381.72 287.66,379.87 287.80,403.94 287.87,365.21 287.89,406.32 287.94,407.73 288.04,398.19 288.20,412.70 288.38,410.74 288.58,408.50 288.78,410.71 288.96,408.91 289.09,387.77 289.17,425.33 289.19,304.90 289.23,349.95 289.34,365.95 289.49,349.72 289.68,375.02 289.88,362.16 290.08,359.11 290.25,392.83 290.38,362.33 290.46,363.70 290.48,409.97 290.53,387.59 290.63,400.37 290.78,389.58 290.97,394.54 291.17,402.60 291.37,415.11 291.54,385.12 291.68,383.92 291.75,375.97 291.77,385.40 291.82,421.65 291.92,409.60 292.08,403.99 292.26,410.39 292.47,422.28 292.66,410.42 292.84,407.05 292.97,393.97 293.05,383.94 293.07,352.55 293.11,371.18 293.22,381.52 293.37,338.76 293.56,337.47 293.76,310.18 293.96,356.95 294.13,373.89 294.26,344.52 294.34,308.55 294.36,389.80 294.41,404.68 294.51,407.46 294.66,407.34 294.85,398.03 295.05,398.54 295.25,394.03 295.43,409.93 295.56,406.29 295.63,384.30 295.65,360.63 295.70,389.60 295.81,394.32 295.96,400.49 296.15,377.56 296.35,386.87 296.54,396.98 296.72,389.71 296.85,397.90 296.93,391.37 296.95,348.62 296.99,369.59 297.10,362.87 297.25,383.90 297.44,387.24 297.64,411.39 297.84,387.95 298.01,359.20 298.14,365.88 298.22,344.40 298.24,369.25 298.29,419.52 298.39,397.43 298.54,415.05 298.73,408.69 298.93,403.75 299.13,402.54 299.31,400.74 299.44,390.83 299.52,425.28 299.53,390.97 299.58,382.25 299.69,370.87 299.84,365.09 300.03,400.38 300.23,393.09 300.43,375.44 300.60,411.53 300.73,365.76 300.81,379.05 300.83,368.82 300.87,425.85 300.98,382.69 301.13,402.65 301.32,393.08 301.52,402.71 301.72,423.49 301.89,379.48 302.03,374.59 302.10,385.59 302.12,399.16 302.17,412.08 302.27,388.79 302.43,408.94 302.61,417.26 302.82,421.48 303.01,415.54 303.19,415.32 303.32,400.24 303.40,403.35 303.41,344.02 303.46,358.50 303.57,387.78 303.72,352.63 303.91,315.92 304.11,292.89 304.31,329.83 304.48,381.32 304.61,357.07 304.69,226.75 304.71,393.31 304.75,413.21 304.86,416.43 305.01,396.38 305.20,396.50 305.41,395.23 305.60,391.18 305.77,411.99 305.91,399.58 305.98,384.21 306.00,396.42 306.05,382.75 306.15,397.68 306.31,407.59 306.49,385.73 306.70,402.59 306.89,409.17 307.07,388.83 307.20,403.92 307.28,399.47 307.29,340.66 307.34,339.13 307.45,401.49 307.60,359.85 307.79,392.99 307.99,406.19 308.19,369.26 308.36,350.30 308.49,336.09 308.57,339.87 308.59,422.95 308.63,383.98 308.74,400.52 308.89,411.72 309.08,407.19 309.29,395.10 309.48,414.13 309.66,408.06 309.79,386.88 309.86,405.50 309.88,366.48 309.93,387.75 310.03,362.86 310.19,390.46 310.37,390.92 310.58,423.17 310.77,387.01 310.95,405.55 311.08,406.86 311.16,393.34 311.17,386.91 311.22,385.49 311.33,395.84 311.48,423.31 311.67,400.22 311.87,399.45 312.07,398.69 312.24,386.26 312.37,406.76 312.45,397.06 312.47,393.27 312.51,416.22 312.62,407.04 312.77,412.03 312.96,412.74 313.17,413.76 313.36,411.13 313.54,417.55 313.67,409.88 313.74,383.04 313.76,330.33 313.81,382.56 313.91,367.86 314.07,363.04 314.26,317.63 314.46,294.73 314.66,312.40 314.83,391.17 314.96,341.54 315.04,279.07 315.05,417.13 315.10,405.24 315.21,400.54 315.36,388.66 315.55,414.52 315.75,378.40 315.95,388.09 316.12,419.02 316.25,403.74 316.33,415.92 316.35,413.38 316.40,404.47 316.50,388.52 316.65,407.84 316.84,397.25 317.05,413.62 317.25,407.21 317.42,377.16 317.55,398.76 317.62,399.79 317.64,319.55 317.69,372.24 317.79,393.46 317.95,395.78 318.14,384.48 318.34,379.17 318.54,359.29 318.71,353.66 318.84,367.99 318.92,304.49 318.93,390.44 318.98,411.03 319.09,405.30 319.24,410.46 319.43,396.28 319.63,405.31 319.83,404.26 320.00,398.21 320.13,394.49 320.21,419.81 320.23,368.30 320.28,388.26 320.38,347.94 320.54,378.02 320.72,371.36 320.93,413.37 321.13,412.99 321.30,415.17 321.43,417.58 321.50,379.19 321.52,409.09 321.57,407.22 321.67,397.69 321.83,410.79 322.02,410.03 322.22,410.03 322.42,411.27 322.59,419.26 322.72,424.03 322.80,407.27 322.81,362.99 322.86,408.59 322.97,408.36 323.13,410.60 323.31,417.26 323.52,408.89 323.71,392.66 323.89,405.22 324.01,391.47 324.09,420.44 324.11,348.75 324.16,404.21 324.26,334.38 324.42,368.52 324.61,339.49 324.81,324.32 325.01,333.96 325.18,391.36 325.31,398.19 325.38,264.54 325.40,412.55 325.45,399.31 325.56,393.94 325.71,391.79 325.90,392.72 326.10,390.01 326.30,403.85 326.47,400.88 326.60,406.85 326.68,425.25 326.69,405.59 326.74,409.93 326.85,385.93 327.01,403.26 327.20,410.12 327.40,415.97 327.59,416.79 327.77,392.63 327.89,406.80 327.97,401.37 327.99,370.41 328.04,418.82 328.14,365.68 328.30,396.44 328.49,384.40 328.69,349.65 328.89,341.97 329.06,390.84 329.19,366.53 329.26,297.42 329.28,421.61 329.33,396.64 329.44,405.32 329.59,400.10 329.78,391.56 329.98,400.79 330.18,386.99 330.35,404.34 330.48,395.48 330.56,366.10 330.57,379.80 330.62,373.68 330.73,348.99 330.89,349.92 331.08,346.63 331.28,367.82 331.48,398.96 331.65,392.54 331.78,409.92 331.85,367.26 331.87,361.90 331.92,392.19 332.02,392.94 332.18,406.18 332.37,397.98 332.57,418.83 332.77,409.52 332.94,417.60 333.07,384.92 333.14,371.64 333.16,369.45 333.21,414.55 333.32,390.19 333.48,404.89 333.66,418.79 333.86,401.47 334.06,389.20 334.23,407.50 334.36,401.07 334.44,405.96 334.45,330.09 334.50,396.06 334.61,341.54 334.77,374.88 334.96,368.50 335.16,380.09 335.36,367.77 335.53,395.94 335.66,420.82 335.73,287.28 335.75,372.18 335.80,396.08 335.90,386.23 336.06,401.96 336.25,389.90 336.45,391.99 336.65,412.54 336.82,393.33 336.95,398.98 337.02,397.20 337.04,358.91 337.09,420.71 337.20,417.93 337.36,408.30 337.54,417.89 337.75,425.84 337.94,417.19 338.11,402.95 338.24,414.72 338.32,394.78 338.34,416.97 338.38,405.51 338.49,356.85 338.65,400.23 338.84,391.60 339.04,343.52 339.24,334.72 339.41,396.60 339.54,383.47 339.61,319.91 339.63,404.71 339.68,421.29 339.79,423.80 339.94,407.84 340.13,400.69 340.33,402.40 340.53,393.13 340.70,402.34 340.83,394.13 340.90,427.33 340.92,297.41 340.97,369.69 341.08,360.20 341.24,339.14 341.43,360.05 341.63,370.61 341.82,403.64 342.00,383.03 342.12,388.73 342.20,325.94 342.22,405.89 342.26,431.06 342.37,409.77 342.53,396.04 342.72,404.51 342.92,427.13 343.12,418.52 343.29,398.47 343.42,399.66 343.49,395.33 343.51,415.27 343.56,381.30 343.67,393.31 343.82,398.68 344.01,404.95 344.21,389.62 344.41,398.77 344.58,401.41 344.71,397.23 344.79,411.81 344.80,367.67 344.85,358.41 344.96,328.19 345.12,340.08 345.31,348.82 345.51,359.59 345.71,402.61 345.88,390.36 346.00,395.64 346.08,310.45 346.10,363.36 346.15,403.66 346.25,391.66 346.41,406.80 346.60,388.65 346.80,407.25 347.00,420.24 347.17,401.35 347.30,408.38 347.37,377.35 347.39,381.21 347.44,406.67 347.55,405.80 347.71,412.87 347.89,417.98 348.09,420.35 348.29,407.28 348.46,400.54 348.59,409.90 348.67,402.06 348.68,364.25 348.73,411.19 348.84,351.50 349.00,410.48 349.19,412.36 349.39,342.42 349.59,339.18 349.76,374.35 349.89,421.55 349.96,315.98 349.98,382.15 350.03,387.09 350.13,408.13 350.29,400.92 350.48,402.73 350.69,404.44 350.88,402.22 351.05,415.75 351.18,412.07 351.25,386.83 351.27,339.69 351.32,361.92 351.43,388.74 351.59,346.80 351.77,381.10 351.98,370.41 352.17,387.57 352.34,365.57 352.47,362.89 352.55,366.24 352.56,366.42 352.61,390.90 352.72,423.40 352.88,394.86 353.07,414.28 353.27,423.19 353.47,416.19 353.64,394.06 353.77,382.82 353.84,350.02 353.86,414.25 353.91,402.29 354.02,398.40 354.17,402.71 354.36,392.11 354.57,390.68 354.76,392.65 354.93,395.83 355.06,404.77 355.13,409.91 355.15,327.92 355.20,348.47 355.31,341.52 355.47,317.72 355.65,313.08 355.86,322.68 356.05,371.08 356.23,367.21 356.35,355.76 356.43,265.52 356.44,402.54 356.49,413.07 356.60,391.35 356.76,412.21 356.95,394.75 357.15,412.77 357.35,412.30 357.52,406.88 357.65,411.11 357.72,395.18 357.74,387.13 357.79,399.03 357.90,402.22 358.05,408.42 358.24,421.57 358.45,417.05 358.64,408.55 358.81,403.69 358.94,387.27 359.01,403.64 359.03,385.59 359.08,390.55 359.19,359.85 359.35,417.04 359.54,393.86 359.74,381.05 359.93,360.82 360.11,352.95 360.23,390.98 360.31,276.94 360.32,368.17 360.37,391.28 360.48,408.87 360.64,404.06 360.83,409.16 361.03,392.19 361.23,399.14 361.40,420.15 361.53,397.85 361.60,409.79 361.62,392.85 361.67,403.26 361.78,401.39 361.93,379.19 362.12,401.18 362.33,397.41 362.52,371.22 362.69,399.20 362.82,372.41 362.89,376.89 362.91,365.54 362.96,406.08 363.07,406.44 363.23,395.16 363.42,417.32 363.62,394.17 363.82,405.81 363.99,406.24 364.11,402.39 364.19,362.69 364.20,408.17 364.25,406.86 364.36,422.71 364.52,389.48 364.71,375.12 364.91,404.96 365.11,391.68 365.28,409.48 365.41,386.57 365.48,358.35 365.50,401.20 365.55,368.53 365.66,422.36 365.82,319.92 366.00,298.87 366.21,302.39 366.40,355.28 366.57,349.14 366.70,369.78 366.77,258.72 366.79,398.59 366.84,400.27 366.95,392.91 367.11,405.39 367.30,404.31 367.50,424.30 367.70,414.18 367.87,396.72 367.99,402.45 368.07,417.81 368.08,401.34 368.13,413.00 368.24,395.69 368.40,417.27 368.59,412.61 368.80,411.89 368.99,403.91 369.16,402.99 369.29,401.80 369.36,416.43 369.38,395.10 369.43,364.60 369.54,380.78 369.70,364.29 369.88,368.06 370.09,397.02 370.28,375.87 370.46,345.93 370.58,384.22 370.65,282.71 370.67,376.63 370.72,394.20 370.83,398.66 370.99,390.59 371.18,395.98 371.38,387.68 371.58,404.92 371.75,400.42 371.88,398.66 371.95,381.04 371.96,377.16 372.01,403.78 372.13,387.40 372.28,407.20 372.47,418.93 372.68,399.79 372.87,395.98 373.04,411.60 373.17,389.35 373.24,359.66 373.26,374.00 373.31,409.02 373.42,389.46 373.58,416.53 373.77,416.16 373.97,389.74 374.16,378.48 374.34,414.70 374.46,393.44 374.53,337.76 374.55,376.52 374.60,397.46 374.71,414.06 374.87,404.71 375.06,397.39 375.26,399.36 375.46,384.29 375.63,394.45 375.76,419.58 375.83,415.68 375.84,363.90 375.90,362.63 376.01,410.85 376.16,327.32 376.35,313.22 376.56,303.30 376.75,345.45 376.92,363.37 377.05,372.15 377.12,290.33 377.14,403.15 377.19,392.57 377.30,390.03 377.46,411.65 377.65,407.52 377.85,421.75 378.05,409.76 378.22,400.83 378.34,395.83 378.41,422.11 378.43,428.78 378.48,405.26 378.59,392.64 378.75,415.04 378.94,421.66 379.14,405.95 379.34,397.09 379.51,403.74 379.64,413.16 379.71,381.39 379.72,304.80 379.78,384.83 379.89,401.54 380.05,357.83 380.23,343.11 380.44,373.49 380.63,347.56 380.80,352.39 380.93,346.99 381.00,316.21 381.02,414.62 381.07,390.19 381.18,387.37 381.34,395.99 381.53,396.92 381.73,399.72 381.93,418.20 382.10,394.31 382.22,391.15 382.29,404.02 382.31,352.87 382.36,403.15 382.47,360.14 382.63,395.80 382.82,404.52 383.03,417.72 383.22,389.03 383.39,410.79 383.52,393.14 383.59,361.49 383.60,416.91 383.66,397.12 383.77,402.61 383.93,417.58 384.11,413.80 384.32,380.00 384.51,376.07 384.69,421.05 384.81,370.89 384.88,373.25 384.90,411.88 384.95,407.84 385.06,407.49 385.22,401.23 385.41,392.27 385.61,410.36 385.81,391.01 385.98,404.38 386.10,390.45 386.17,409.49 386.19,329.07 386.24,374.16 386.36,385.14 386.51,360.43 386.70,346.47 386.91,335.96 387.10,347.41 387.27,378.65 387.40,417.93 387.47,246.77 387.48,386.05 387.54,407.48 387.65,411.13 387.81,419.27 388.00,420.48 388.20,418.53 388.39,411.15 388.57,404.97 388.69,401.56 388.76,417.23 388.78,406.22 388.83,410.26 388.94,402.76 389.10,405.69 389.29,404.49 389.49,389.10 389.69,411.15 389.86,391.63 389.98,400.95 390.05,405.34 390.07,390.76 390.12,416.43 390.24,377.20 390.39,359.56 390.59,332.01 390.79,334.45 390.98,323.36 391.15,338.58 391.28,371.96 391.35,264.93 391.36,385.48 391.42,398.34 391.53,391.60 391.69,398.69 391.88,395.59 392.08,405.92 392.28,418.73 392.45,404.81 392.57,393.35 392.64,401.31 392.66,335.53 392.71,382.93 392.82,377.99 392.98,364.61 393.17,401.61 393.37,416.72 393.57,394.82 393.74,393.47 393.86,396.44 393.94,375.33 393.95,416.79 394.00,370.31 394.12,386.49 394.28,408.25 394.47,396.82 394.67,395.33 394.86,393.56 395.03,389.69 395.16,392.08 395.23,382.76 395.24,378.27 395.30,393.83 395.41,400.03 395.57,408.10 395.76,401.12 395.96,396.49 396.16,400.74 396.33,407.47 396.45,420.58 396.52,398.95 396.54,371.42 396.59,365.47 396.70,336.40 396.86,359.75 397.05,354.24 397.26,386.35 397.45,357.71 397.62,390.15 397.75,421.05 397.82,244.05 397.83,401.23 397.89,388.72 398.00,389.86 398.16,407.87 398.35,424.50 398.55,416.07 398.74,408.78 398.91,393.79 399.04,382.06 399.11,391.49 399.12,382.46 399.18,428.81 399.29,403.40 399.45,399.86 399.64,402.81 399.84,386.84 400.04,409.10 400.21,389.65 400.33,411.34 400.40,418.97 400.42,375.37 400.47,418.64 400.59,399.11 400.74,379.24 400.93,352.53 401.14,320.51 401.33,306.73 401.50,386.99 401.63,412.04 401.70,314.23 401.71,403.55 401.77,389.40 401.88,400.73 402.04,406.53 402.23,404.74 402.43,409.20 402.62,414.16 402.80,409.02 402.92,419.22 402.99,404.92 403.00,394.88 403.06,376.14 403.17,394.76 403.33,361.84 403.52,392.24 403.72,418.32 403.92,409.72 404.09,388.31 404.21,383.16 404.28,386.32 404.30,417.96 404.35,391.82 404.47,387.97 404.62,397.51 404.82,383.29 405.02,412.79 405.21,421.85 405.38,375.43 405.51,396.70 405.58,379.98 405.59,378.40 405.65,385.72 405.76,405.17 405.92,407.32 406.11,410.96 406.31,393.98 406.51,399.19 406.68,405.39 406.80,369.26 406.87,406.71 406.88,335.43 406.94,346.46 407.05,331.87 407.21,354.61 407.40,340.49 407.60,396.18 407.80,372.11 407.97,376.24 408.09,395.52 408.16,249.44 408.18,398.02 408.23,414.93 408.35,396.62 408.50,395.89 408.70,414.78 408.90,412.93 409.10,396.11 409.26,408.60 409.39,404.58 409.46,404.00 409.47,382.21 409.53,420.89 409.64,414.63 409.80,391.20 409.99,392.35 410.19,389.98 410.39,410.21 410.56,396.88 410.68,401.82 410.75,410.58 410.76,356.00 410.82,360.47 410.93,384.40 411.09,382.31 411.28,387.57 411.48,329.93 411.68,321.61 411.85,380.07 411.97,352.65 412.04,223.45 412.06,405.66 412.11,409.50 412.23,397.79 412.39,407.79 412.58,405.59 412.78,413.90 412.98,413.18 413.14,404.80 413.27,416.57 413.34,416.35 413.35,377.30 413.41,351.69 413.52,410.90 413.68,378.81 413.87,393.38 414.08,400.42 414.27,404.00 414.44,391.72 414.56,391.43 414.63,395.61 414.65,373.98 414.70,398.19 414.81,417.33 414.97,388.87 415.16,373.83 415.37,395.19 415.56,411.77 415.73,370.52 415.85,422.31 415.92,353.28 415.94,387.46 415.99,397.01 416.11,387.08 416.27,394.34 416.46,394.46 416.66,397.20 416.86,408.46 417.03,395.11 417.15,395.44 417.22,405.97 417.23,353.44 417.29,281.07 417.40,358.96 417.56,344.03 417.75,320.27 417.96,392.50 418.15,390.75 418.32,380.83 418.44,386.37 418.51,337.10 418.53,421.44 418.58,404.10 418.70,406.55 418.85,408.81 419.05,415.38 419.25,404.18 419.44,396.50 419.61,405.34 419.74,406.57 419.80,408.15 419.82,398.84 419.87,407.10 419.99,414.87 420.15,395.22 420.34,384.96 420.54,393.40 420.74,389.50 420.91,418.21 421.03,399.11 421.10,386.59 421.11,350.73 421.17,387.20 421.28,390.00 421.44,402.94 421.63,404.24 421.84,343.96 422.03,351.96 422.20,356.35 422.32,362.77 422.39,304.72 422.41,411.86 422.46,400.13 422.58,408.82 422.73,412.15 422.93,405.80 423.13,418.84 423.33,410.74 423.49,406.79 423.62,387.86 423.68,412.57 423.70,399.50 423.76,398.40 423.87,394.31 424.03,406.98 424.22,412.24 424.42,377.12 424.62,402.33 424.79,387.78 424.91,389.71 424.98,400.35 424.99,366.58 425.05,405.44 425.16,415.71 425.32,400.30 425.51,378.19 425.72,388.70 425.91,387.47 426.08,363.64 426.20,384.59 426.27,328.89 426.29,404.13 426.34,394.32 426.46,383.90 426.62,412.62 426.81,398.38 427.01,412.52 427.21,423.51 427.37,404.05 427.50,392.23 427.56,403.07 427.58,371.61 427.64,316.06 427.75,395.64 427.91,362.59 428.10,327.99 428.31,384.73 428.50,416.90 428.67,354.65 428.79,371.62 428.86,302.15 428.87,430.74 428.93,410.56 429.04,403.40 429.20,405.55 429.39,405.05 429.60,391.18 429.79,402.75 429.96,402.89 430.08,431.01 430.15,419.62 430.17,400.94 430.22,401.86 430.34,413.54 430.50,414.41 430.69,389.07 430.89,401.96 431.09,392.60 431.26,414.53 431.38,402.34 431.44,399.90 431.46,349.49 431.52,333.86 431.63,369.62 431.79,389.56 431.98,364.94 432.19,354.56 432.38,370.54 432.55,336.52 432.67,329.14 432.74,292.26 432.75,400.17 432.81,403.14 432.92,415.75 433.08,403.53 433.27,409.65 433.48,416.07 433.67,392.68 433.84,417.34 433.96,406.14 434.03,406.16 434.05,359.96 434.10,401.86 434.22,380.31 434.38,417.54 434.57,414.25 434.77,382.45 434.97,395.28 435.14,393.01 435.26,411.56 435.32,382.12 435.34,355.06 435.40,400.04 435.51,379.81 435.67,393.48 435.86,383.13 436.07,389.47 436.26,356.55 436.43,393.88 436.55,381.50 436.62,331.52 436.63,400.66 436.69,393.92 436.80,399.55 436.96,414.08 437.16,411.37 437.36,415.54 437.56,414.85 437.72,385.76 437.84,394.13 437.91,380.40 437.93,359.66 437.98,302.54 438.10,408.95 438.26,352.76 438.45,318.27 438.65,358.69 438.85,399.24 439.02,352.30 439.14,377.37 439.20,248.21 439.22,418.88 439.28,419.69 439.39,405.56 439.55,393.78 439.74,397.62 439.95,391.17 440.14,394.85 440.31,397.97 440.43,392.08 440.50,419.38 440.51,408.61 440.57,385.55 440.68,397.60 440.85,400.54 441.04,398.92 441.24,396.81 441.44,401.74 441.60,409.27 441.73,392.23 441.79,396.65 441.81,379.95 441.86,369.54 441.98,408.01 442.14,379.29 442.33,341.37 442.53,351.39 442.73,383.31 442.90,319.55 443.02,312.01 443.08,238.27 443.10,401.11 443.16,404.27 443.27,393.01 443.43,413.23 443.62,415.87 443.83,407.28 444.02,387.08 444.19,405.93 444.31,391.45 444.38,418.11 444.39,367.00 444.45,376.93 444.56,375.73 444.73,398.59 444.92,402.26 445.12,387.15 445.32,399.86 445.48,405.71 445.61,418.94 445.67,415.66 445.69,344.38 445.74,371.36 445.86,398.75 446.02,419.32 446.21,431.33 446.42,390.76 446.61,356.53 446.78,406.00 446.90,377.07 446.96,377.85 446.98,386.18 447.04,406.94 447.15,398.88 447.31,416.96 447.50,415.69 447.71,417.45 447.90,415.67 448.07,402.15 448.19,395.94 448.26,422.79 448.27,323.83 448.33,347.80 448.45,362.39 448.61,337.85 448.80,323.60 449.00,354.28 449.20,387.15 449.36,371.86 449.49,360.20 449.55,236.78 449.57,418.32 449.62,408.96 449.74,402.44 449.90,389.32 450.10,394.44 450.30,390.77 450.49,407.95 450.66,392.95 450.78,400.70 450.85,424.45 450.86,403.06 450.92,417.52 451.03,403.60 451.19,399.06 451.39,398.66 451.59,404.81 451.78,391.26 451.95,399.90 452.07,398.02 452.14,401.31 452.15,359.16 452.21,346.80 452.33,419.11 452.49,380.06 452.68,339.24 452.88,354.38 453.08,361.84 453.24,316.62 453.37,340.80 453.43,289.62 453.45,397.90 453.51,408.98 453.62,399.79 453.78,414.79 453.98,417.70 454.18,405.87 454.37,400.54 454.54,396.90 454.66,383.93 454.73,399.13 454.74,381.86 454.80,372.34 454.91,375.99 455.07,392.97 455.27,385.28 455.47,413.67 455.67,397.48 455.83,410.82 455.95,391.94 456.02,421.38 456.03,367.29 456.09,378.30 456.21,403.01 456.37,396.95 456.56,418.51 456.76,415.26 456.96,371.25 457.13,387.55 457.25,364.59 457.31,337.32 457.33,398.78 457.39,397.50 457.50,415.14 457.67,415.55 457.86,407.51 458.06,411.92 458.25,418.17 458.42,405.33 458.54,395.93 458.61,393.42 458.62,313.22 458.68,341.04 458.79,362.06 458.96,337.39 459.15,331.82 459.35,348.52 459.55,362.07 459.71,414.85 459.83,369.93 459.90,282.30 459.91,427.80 459.97,379.37 460.09,402.86 460.25,392.12 460.44,389.93 460.65,387.05 460.84,400.23 461.01,402.11 461.13,420.26 461.19,397.86 461.21,412.99 461.27,406.64 461.38,409.38 461.55,391.25 461.74,404.74 461.94,408.41 462.13,406.21 462.30,402.44 462.42,416.11 462.49,404.40 462.50,356.86 462.56,368.13 462.68,398.16 462.84,395.76 463.03,343.85 463.23,338.77 463.43,342.70 463.59,354.85 463.71,393.23 463.78,300.18 463.79,379.38 463.85,410.75 463.97,394.65 464.13,398.51 464.32,413.25 464.53,407.04 464.72,397.07 464.89,406.56 465.01,404.41 465.07,393.44 465.09,364.96 465.15,341.41 465.26,394.67 465.43,392.91 465.62,378.03 465.82,397.02 466.01,408.08 466.18,414.21 466.30,401.91 466.37,379.58 466.38,311.97 466.44,359.98 466.56,411.56 466.72,400.39 466.91,406.53 467.11,427.23 467.31,394.73 467.47,358.38 467.59,347.16 467.66,312.16 467.67,421.47 467.73,397.05 467.85,404.26 468.01,405.57 468.21,417.96 468.41,403.99 468.60,409.86 468.77,387.83 468.89,403.74 468.95,397.49 468.97,325.51 469.03,338.15 469.14,342.39 469.31,362.31 469.50,373.78 469.70,372.95 469.90,361.91 470.06,404.53 470.18,353.14 470.25,321.68 470.26,393.97 470.32,384.30 470.44,415.90 470.60,410.78 470.79,385.74 470.99,404.42 471.19,393.13 471.35,415.38 471.48,417.37 471.54,387.54 471.55,406.34 471.61,412.65 471.73,403.97 471.90,396.20 472.09,405.37 472.29,401.19 472.48,413.47 472.65,401.12 472.77,390.22 472.83,420.96 472.85,341.02 472.91,365.77 473.02,374.51 473.19,387.19 473.38,349.86 473.58,325.66 473.78,335.44 473.94,380.77 474.06,386.06 474.13,343.60 474.14,413.05 474.20,391.90 474.32,408.07 474.48,400.91 474.67,407.96 474.88,398.26 475.07,405.37 475.23,405.59 475.36,416.92 475.42,413.45 475.44,386.45 475.49,363.46 475.61,421.12 475.78,382.77 475.97,393.55 476.17,404.48 476.36,403.07 476.53,388.79 476.65,408.25 476.71,404.90 476.73,426.37 476.79,409.29 476.91,419.34 477.07,394.07 477.26,404.63 477.47,417.66 477.66,405.94 477.82,336.50 477.94,358.71 478.01,297.36 478.02,391.04 478.08,409.04 478.20,413.47 478.36,405.62 478.55,413.64 478.76,396.58 478.95,399.97 479.12,406.79 479.24,383.76 479.30,392.34 479.32,354.02 479.37,338.74 479.49,353.79 479.66,389.46 479.85,372.59 480.05,407.78 480.24,369.19 480.41,407.25 480.53,349.98 480.59,330.87 480.61,378.32 480.67,406.44 480.79,417.64 480.95,396.78 481.14,392.10 481.35,407.59 481.54,393.02 481.70,415.48 481.82,407.89 481.89,396.37 481.90,390.19 481.96,383.30 482.08,402.48 482.24,410.80 482.44,403.89 482.64,415.13 482.83,418.01 483.00,399.58 483.12,381.94 483.18,365.58 483.20,279.95 483.26,327.75 483.37,354.94 483.54,390.05 483.73,368.87 483.93,316.56 484.13,338.09 484.29,369.97 484.41,370.96 484.47,315.71 484.49,374.30 484.55,410.10 484.67,396.04 484.83,389.04 485.02,396.11 485.23,390.86 485.42,415.97 485.58,414.97 485.70,384.51 485.77,410.02 485.78,389.59 485.84,386.87 485.96,393.20 486.13,404.07 486.32,411.80 486.52,409.93 486.71,402.51 486.88,395.16 487.00,400.08 487.06,407.21 487.08,399.68 487.14,401.23 487.25,386.40 487.42,392.67 487.61,392.73 487.81,414.59 488.01,392.47 488.17,356.30 488.29,375.14 488.35,310.44 488.37,392.23 488.43,421.99 488.55,403.24 488.71,405.30 488.90,412.14 489.11,405.96 489.30,383.89 489.46,399.84 489.59,384.30 489.65,412.94 489.66,323.17 489.72,294.15 489.84,386.94 490.01,388.30 490.20,330.93 490.40,390.75 490.59,409.40 490.76,369.34 490.88,325.90 490.94,255.57 490.96,411.91 491.02,411.89 491.13,402.85 491.30,409.50 491.49,403.13 491.70,413.90 491.89,397.28 492.05,399.18 492.17,399.00 492.23,423.01 492.25,410.94 492.31,398.11 492.43,405.05 492.59,407.00 492.78,401.42 492.99,414.31 493.18,413.60 493.35,406.05 493.47,408.75 493.53,398.24 493.54,278.56 493.60,314.66 493.72,354.12 493.89,400.78 494.08,368.15 494.28,330.25 494.47,369.95 494.64,372.95 494.76,285.25 494.82,259.90 494.84,414.41 494.90,415.23 495.02,403.56 495.18,403.94 495.37,396.30 495.58,402.20 495.77,410.44 495.93,408.30 496.05,404.91 496.11,401.33 496.13,385.37 496.19,403.30 496.31,365.99 496.47,416.26 496.67,415.22 496.87,413.42 497.06,399.49 497.23,396.12 497.35,422.12 497.41,371.31 497.42,372.69 497.48,396.99 497.60,382.73 497.77,407.21 497.96,394.62 498.16,380.55 498.35,354.02 498.52,395.21 498.64,366.45 498.70,348.33 498.72,398.35 498.78,396.26 498.90,401.91 499.06,400.60 499.25,402.39 499.46,407.07 499.65,387.28 499.81,392.97 499.93,408.39 499.99,410.04 500.01,272.66 500.07,285.55 500.19,403.97 500.35,352.31 500.55,303.02 500.75,378.43 500.94,408.01 501.11,384.87 501.23,316.90 501.29,308.42 501.30,409.02 501.37,393.20 501.48,386.21 501.65,401.36 501.84,402.50 502.04,415.51 502.24,400.78 502.40,406.75 502.52,382.85 502.58,402.10 502.60,377.65 502.66,382.97 502.78,410.20 502.94,415.47 503.13,408.09 503.34,406.70 503.53,410.80 503.69,406.37 503.81,400.04 503.88,408.49 503.89,296.60 503.95,356.89 504.07,386.02 504.24,395.50 504.43,383.52 504.63,367.01 504.83,413.69 504.99,346.90 505.11,297.90 505.17,305.50 505.18,423.78 505.25,403.94 505.36,405.62 505.53,399.16 505.72,396.45 505.93,410.69 506.12,397.69 506.28,416.73 506.40,409.94 506.46,391.63 506.48,365.69 506.54,377.91 506.66,369.72 506.82,407.79 507.01,416.11 507.22,414.04 507.41,414.61 507.57,397.35 507.69,391.81 507.76,406.90 507.77,357.17 507.83,377.74 507.95,403.57 508.12,408.92 508.31,399.38 508.51,368.73 508.71,349.53 508.87,410.93 508.99,351.34 509.05,361.33 509.06,397.85 509.13,420.64 509.25,396.69 509.41,401.55 509.60,407.45 509.81,408.46 510.00,396.10 510.16,412.03 510.28,388.83 510.34,413.81 510.36,302.89 510.42,326.42 510.54,376.20 510.70,330.61 510.90,302.38 511.10,348.23 511.29,365.64 511.46,366.41 511.57,331.63 511.64,302.20 511.65,391.39 511.71,376.80 511.83,392.16 512.00,397.51 512.19,403.14 512.39,415.85 512.59,411.25 512.75,391.63 512.87,413.30 512.93,378.72 512.94,395.32 513.01,385.37 513.13,414.69 513.29,400.23 513.49,412.21 513.69,403.91 513.88,403.67 514.04,412.86 514.16,408.80 514.22,397.39 514.24,322.92 514.30,344.36 514.42,423.90 514.58,382.83 514.78,362.83 514.98,367.89 515.18,416.85 515.34,355.79 515.45,299.33 515.52,280.17 515.53,401.39 515.59,399.29 515.71,408.06 515.88,412.02 516.07,398.61 516.27,409.61 516.47,397.24 516.63,413.47 516.75,405.93 516.81,383.62 516.82,398.07 516.89,388.79 517.01,377.15 517.17,396.78 517.37,414.27 517.57,415.38 517.76,409.75 517.92,403.46 518.04,399.84 518.10,404.58 518.12,333.45 518.18,364.32 518.30,383.61 518.47,403.63 518.66,401.84 518.86,354.90 519.06,351.32 519.22,366.80 519.34,352.89 519.40,326.41 519.41,405.25 519.47,408.70 519.59,419.09 519.76,388.04 519.95,403.93 520.16,397.47 520.35,402.25 520.51,414.39 520.63,403.14 520.69,382.42 520.70,313.08 520.77,372.52 520.89,348.94 521.05,338.65 521.25,330.98 521.45,363.39 521.64,375.86 521.80,377.66 521.92,404.72 521.98,361.06 522.00,394.97 522.06,386.13 522.18,407.80 522.35,408.35 522.54,405.69 522.74,423.87 522.94,409.21 523.10,401.15 523.22,398.48 523.28,400.90 523.29,388.74 523.35,409.74 523.48,399.74 523.64,408.34 523.83,405.91 524.04,402.08 524.23,398.44 524.39,414.25 524.51,405.02 524.57,421.31 524.58,289.23 524.65,367.30 524.77,394.70 524.93,357.18 525.13,334.61 525.33,337.19 525.52,371.05 525.69,362.28 525.80,329.91 525.86,292.79 525.88,383.91 525.94,418.08 526.06,396.63 526.23,399.55 526.42,405.58 526.62,416.95 526.82,407.01 526.98,411.50 527.10,419.48 527.16,389.85 527.17,393.57 527.23,380.09 527.36,416.01 527.52,395.54 527.72,419.91 527.92,419.07 528.11,408.41 528.27,393.09 528.39,380.53 528.45,429.38 528.46,354.66 528.53,359.24 528.65,407.65 528.81,414.44 529.01,406.08 529.21,368.66 529.41,371.71 529.57,352.18 529.68,341.11 529.74,324.97 529.76,385.37 529.82,388.84 529.94,407.68 530.11,390.65 530.30,394.24 530.50,384.78 530.70,398.66 530.86,407.26 530.98,396.92 531.04,393.23 531.05,287.16 531.12,385.33 531.24,343.93 531.40,358.32 531.60,382.21 531.80,389.56 531.99,385.46 532.15,413.56 532.27,383.60 532.33,335.83 532.34,405.54 532.41,391.90 532.53,396.70 532.70,411.02 532.89,419.08 533.09,419.62 533.29,418.42 533.45,407.90 533.56,399.08 533.62,385.72 533.64,420.66 533.70,425.45 533.82,390.85 533.99,411.48 534.18,411.73 534.38,396.16 534.58,390.83 534.74,399.92 534.86,397.88 534.92,377.45 534.93,312.91 535.00,390.44 535.12,348.85 535.28,365.11 535.48,335.71 535.68,295.16 535.87,336.80 536.03,372.58 536.15,366.50 536.21,322.58 536.23,399.78 536.29,411.16 536.41,411.30 536.58,417.84 536.77,417.05 536.98,424.22 537.17,401.06 537.33,394.45 537.44,403.03 537.50,362.07 537.52,389.61 537.58,384.36 537.70,426.96 537.87,388.19 538.06,410.60 538.27,409.20 538.46,412.55 538.62,408.77 538.74,384.52 538.80,377.23 538.81,360.04 538.88,391.99 539.00,418.42 539.16,387.75 539.36,415.13 539.56,402.71 539.75,408.37 539.92,364.76 540.03,345.22 540.09,342.11 540.11,420.81 540.17,407.99 540.29,410.15 540.46,389.49 540.65,394.40 540.86,395.49 541.05,406.31 541.21,406.09 541.32,388.38 541.38,381.16 541.40,221.75 541.46,333.96 541.59,316.26 541.75,379.44 541.95,386.58 542.15,398.85 542.34,388.14 542.50,405.48 542.62,325.52 542.68,349.09 542.69,395.73 542.76,400.19 542.88,411.06 543.04,417.41 543.24,424.51 543.44,410.48 543.63,408.22 543.80,396.86 543.91,397.32 543.97,413.81 543.99,407.07 544.05,399.00 544.17,400.19 544.34,405.05 544.53,411.17 544.74,398.69 544.93,399.35 545.09,392.73 545.21,405.50 545.26,404.09 545.28,219.58 545.35,342.75 545.47,349.55 545.63,413.25 545.83,315.45 546.03,290.88 546.22,324.64 546.38,393.14 546.50,386.67 546.56,394.80 546.57,405.62 546.64,407.00 546.76,406.70 546.92,417.61 547.12,416.25 547.32,418.76 547.52,401.06 547.68,401.17 547.79,424.47 547.85,385.15 547.87,393.21 547.93,420.27 548.05,402.77 548.22,402.37 548.41,410.61 548.62,391.69 548.81,396.90 548.97,420.61 549.09,407.36 549.14,389.93 549.16,386.18 549.23,406.37 549.35,402.47 549.51,385.74 549.71,385.14 549.91,410.54 550.10,392.45 550.26,364.80 550.38,392.53 550.44,397.01 550.45,386.11 550.52,393.51 550.64,413.19 550.81,401.23 551.00,385.44 551.21,411.00 551.40,397.78 551.56,406.91 551.67,409.91 551.73,395.99 551.75,290.90 551.81,308.63 551.93,316.11 552.10,371.98 552.29,364.20 552.50,384.43 552.69,409.61 552.85,420.07 552.97,329.72 553.02,364.14 553.04,383.03 553.11,405.69 553.23,403.46 553.39,408.90 553.59,415.70 553.79,404.42 553.98,397.55 554.15,411.02 554.26,405.05 554.32,393.25 554.33,396.30 554.40,404.80 554.52,403.94 554.69,408.54 554.88,409.67 555.09,399.62 555.28,414.34 555.44,398.12 555.55,401.00 555.61,398.35 555.63,254.08 555.69,365.55 555.82,350.71 555.98,383.42 556.17,347.94 556.38,308.36 556.57,350.44 556.73,404.29 556.85,342.68 556.90,304.56 556.92,429.01 556.99,387.05 557.11,400.64 557.27,413.19 557.47,412.34 557.67,416.08 557.86,414.29 558.03,390.18 558.14,388.90 558.20,413.66 558.21,376.78 558.28,403.80 558.40,379.99 558.57,404.47 558.76,409.02 558.97,393.72 559.16,406.76 559.32,399.25 559.43,411.55 559.49,408.74 559.51,317.02 559.57,418.48 559.70,385.92 559.86,389.54 560.06,386.82 560.26,380.21 560.45,366.28 560.61,398.00 560.73,362.62 560.78,361.95 560.80,404.52 560.87,405.37 560.99,407.89 561.15,407.99 561.35,399.30 561.55,405.52 561.75,392.99 561.91,420.85 562.02,410.85 562.08,395.59 562.09,344.96 562.16,346.69 562.28,349.37 562.45,350.74 562.64,349.70 562.85,396.51 563.04,393.60 563.20,407.46 563.32,314.04 563.37,355.72 563.39,388.26 563.45,418.37 563.58,394.52 563.75,407.40 563.94,419.75 564.14,394.88 564.33,404.18 564.49,418.47 564.61,391.26 564.66,389.96 564.68,398.67 564.75,397.25 564.87,410.93 565.04,401.80 565.23,404.19 565.43,408.05 565.63,406.83 565.79,410.90 565.90,403.86 565.96,402.21 565.97,216.71 566.04,327.77 566.16,337.89 566.33,373.43 566.53,370.71 566.73,357.11 566.92,364.23 567.08,385.47 567.20,327.61 567.25,354.30 567.27,388.42 567.33,406.77 567.46,403.27 567.63,402.70 567.82,412.21 568.02,410.26 568.21,408.96 568.37,404.62 568.49,393.99 568.55,370.88 568.56,388.01 568.63,392.51 568.75,396.52 568.92,409.13 569.11,399.39 569.32,381.41 569.51,389.71 569.67,411.57 569.78,406.51 569.84,372.24 569.85,338.78 569.92,381.93 570.05,373.66 570.21,398.47 570.41,375.30 570.61,353.76 570.80,346.53 570.96,409.36 571.08,337.14 571.13,290.14 571.15,378.35 571.21,394.48 571.34,395.54 571.51,412.44 571.70,401.74 571.90,419.61 572.09,399.16 572.26,411.54 572.37,401.07 572.43,391.21 572.44,303.53 572.51,331.90 572.63,369.28 572.80,337.55 573.00,353.72 573.20,399.53 573.39,424.08 573.55,386.12 573.66,351.34 573.72,382.63 573.73,394.63 573.80,402.72 573.93,386.82 574.09,405.36 574.29,398.48 574.49,393.86 574.68,394.34 574.84,403.93 574.96,405.19 575.01,389.27 575.03,400.76 575.09,392.18 575.22,409.71 575.39,397.05 575.58,406.63 575.78,398.67 575.98,416.84 576.14,413.01 576.25,428.39 576.31,406.59 576.32,256.47 576.39,349.61 576.51,346.60 576.68,358.58 576.88,361.75 577.08,362.68 577.27,410.23 577.43,360.53 577.54,332.42 577.60,375.51 577.61,401.83 577.68,399.01 577.81,402.35 577.97,406.95 578.17,417.93 578.37,409.32 578.56,412.32 578.72,410.68 578.84,416.84 578.89,415.46 578.91,386.06 578.98,384.70 579.10,395.39 579.27,411.59 579.46,391.46 579.66,395.41 579.86,376.01 580.02,400.30 580.13,404.62 580.19,377.85 580.20,369.14 580.27,382.11 580.39,380.01 580.56,412.28 580.76,402.03 580.96,349.01 581.15,359.36 581.31,411.39 581.42,348.95 581.48,386.94 581.49,387.33 581.56,406.86 581.69,395.81 581.86,410.00 582.05,418.85 582.25,416.44 582.44,410.75 582.60,390.35 582.72,391.06 582.77,400.76 582.79,298.23 582.86,358.94 582.98,368.35 583.15,316.56 583.34,359.46 583.55,394.60 583.74,406.61 583.90,399.94 584.01,396.13 584.07,381.72 584.08,387.76 584.15,403.48 584.27,405.80 584.44,404.03 584.64,402.89 584.84,400.59 585.03,387.43 585.19,396.51 585.30,411.45 585.36,393.35 585.38,383.11 585.44,409.83 585.57,402.57 585.74,387.59 585.93,404.04 586.13,406.22 586.32,416.59 586.49,412.25 586.60,410.82 586.65,394.21 586.67,279.70 586.74,373.19 586.86,386.26 587.03,337.39 587.22,344.19 587.43,363.58 587.62,380.14 587.78,360.50 587.89,354.90 587.95,346.86 587.96,386.99 588.03,405.74 588.16,405.51 588.32,391.96 588.52,414.05 588.72,403.03 588.91,405.52 589.07,404.03 589.18,395.54 589.24,393.73 589.26,399.86 589.32,390.78 589.45,407.03 589.62,389.78 589.81,388.81 590.01,402.18 590.20,388.39 590.37,401.54 590.48,409.38 590.53,410.57 590.55,330.73 590.62,398.27 590.74,371.73 590.91,401.86 591.11,423.97 591.31,381.10 591.50,378.99 591.66,373.62 591.77,361.89 591.83,345.44 591.84,420.05 591.91,390.24 592.04,386.25 592.20,414.82 592.40,421.30 592.60,418.71 592.79,402.05 592.95,404.71 593.06,405.69 593.12,379.36 593.14,266.25 593.20,402.46 593.33,336.06 593.50,327.44 593.69,363.14 593.89,380.10 594.09,395.60 594.25,402.59 594.36,409.94 594.41,338.24 594.43,372.97 594.50,415.36 594.62,399.56 594.79,405.37 594.99,397.78 595.19,400.07 595.38,403.06 595.54,381.25 595.65,405.34 595.71,375.84 595.72,389.79 595.79,415.87 595.92,402.19 596.09,400.25 596.28,409.63 596.48,413.80 596.67,412.48 596.83,416.17 596.95,403.94 597.00,399.74 597.02,340.91 597.09,423.30 597.21,392.62 597.38,349.23 597.57,329.30 597.78,350.94 597.97,354.42 598.13,362.72 598.24,355.36 598.29,372.15 598.31,383.14 598.38,416.50 598.50,410.01 598.67,395.10 598.87,408.23 599.07,388.77 599.26,408.02 599.42,408.39 599.53,413.95 599.59,397.88 599.60,379.01 599.67,400.20 599.80,408.23 599.97,385.48 600.16,403.08 600.37,412.42 600.55,394.29 600.72,407.59 600.83,394.83 600.88,389.28 600.90,363.03 600.97,386.83 601.09,412.31 601.26,365.49 601.45,392.95 601.66,385.49 601.85,387.10 602.01,356.07 602.12,374.62 602.17,363.05 602.19,402.47 602.26,387.79 602.39,390.48 602.55,415.17 602.75,423.52 602.95,418.51 603.14,406.74 603.30,386.04 603.41,408.31 603.47,416.43 603.48,269.49 603.55,399.31 603.68,324.22 603.85,359.92 604.04,393.97 604.25,351.91 604.43,365.01 604.60,399.63 604.71,402.15 604.76,323.41 604.78,375.48 604.85,398.58 604.97,411.14 605.14,393.60 605.34,389.64 605.54,398.96 605.73,405.09 605.89,388.99 606.00,410.13 606.05,392.93 606.07,417.59 606.14,398.78 606.27,406.79 606.43,396.50 606.63,404.19 606.83,408.98 607.02,408.09 607.18,407.56 607.29,407.66 607.35,399.32 607.36,267.15 607.43,396.54 607.56,383.55 607.73,334.76 607.92,319.92 608.13,311.77 608.32,325.41 608.48,379.63 608.59,363.59 608.64,388.89 608.66,395.38 608.73,399.41 608.85,404.39 609.02,403.03 609.22,411.76 609.42,392.89 609.61,403.31 609.77,392.79 609.88,410.23 609.93,391.61 609.95,411.09 610.02,415.24 610.15,405.16 610.32,388.83 610.51,395.56 610.71,402.27 610.90,389.67 611.06,407.37 611.17,411.23 611.23,392.80 611.24,307.37 611.31,394.61 611.44,406.96 611.61,372.65 611.80,389.50 612.01,394.03 612.20,368.13 612.36,363.81 612.47,405.38 612.52,382.40 612.54,390.05 612.61,397.39 612.73,397.69 612.90,416.80 613.10,423.28 613.30,419.10 613.49,408.63 613.65,399.36 613.76,393.56 613.81,413.67 613.83,251.66 613.90,361.93 614.03,320.87 614.20,389.66 614.39,422.55 614.60,363.27 614.78,368.65 614.94,420.69 615.05,356.34 615.11,394.37 615.12,393.22 615.19,399.34 615.32,407.93 615.49,391.98 615.68,395.52 615.89,402.31 616.08,405.63 616.24,407.54 616.35,381.14 616.40,378.65 616.42,392.65 616.49,401.96 616.62,404.43 616.78,418.76 616.98,406.93 617.18,410.11 617.37,403.99 617.53,379.69 617.64,398.55 617.69,386.70 617.71,247.39 617.78,375.48 617.91,347.75 618.08,338.15 618.27,302.29 618.48,313.73 618.66,329.14 618.82,389.45 618.93,372.42 618.99,394.23 619.00,417.22 619.07,396.73 619.20,399.94 619.37,402.38 619.57,389.04 619.77,387.22 619.96,384.16 620.12,398.38 620.23,392.78 620.28,409.23 620.30,407.57 620.37,390.35 620.50,415.87 620.66,394.05 620.86,407.21 621.06,400.83 621.25,395.91 621.41,397.35 621.52,416.11 621.57,381.57 621.59,307.33 621.66,390.02 621.79,401.59 621.96,378.17 622.16,375.72 622.36,385.34 622.55,350.68 622.70,381.80 622.81,353.34 622.87,317.96 622.88,405.46 622.96,407.16 623.08,394.66 623.25,403.18 623.45,413.80 623.65,407.62 623.84,410.51 624.00,396.86 624.11,409.98 624.16,411.91 624.18,328.66 624.25,374.92 624.38,353.30 624.54,378.06 624.74,411.96 624.94,386.79 625.14,382.87 625.29,397.57 625.40,395.84 625.45,373.26 625.47,399.80 625.54,393.15 625.67,405.86 625.84,392.40 626.04,403.98 626.24,396.81 626.43,413.23 626.58,409.08 626.70,390.71 626.75,412.36 626.76,382.42 626.84,388.80 626.96,393.27 627.13,411.03 627.33,410.28 627.53,408.06 627.72,409.37 627.88,398.72 627.99,417.74 628.04,398.14 628.06,249.49 628.13,357.93 628.26,336.65 628.43,337.76 628.62,301.20 628.83,328.71 629.02,335.77 629.17,368.81 629.28,340.42 629.33,376.57 629.35,416.30 629.42,391.62 629.55,383.19 629.72,399.27 629.92,392.58 630.12,398.93 630.31,377.36 630.47,401.10 630.58,386.95 630.63,416.88 630.64,380.01 630.72,398.66 630.85,398.88 631.01,392.37 631.21,399.14 631.41,415.93 631.60,402.64 631.76,413.34 631.87,408.41 631.92,385.55 631.94,355.35 632.01,379.40 632.14,353.32 632.31,387.23 632.50,379.06 632.71,375.25 632.90,334.35 633.05,418.22 633.16,361.86 633.21,370.00 633.23,341.95 633.30,407.47 633.43,401.06 633.60,407.67 633.80,410.84 634.00,406.67 634.19,414.26 634.35,392.16 634.46,419.81 634.51,377.92 634.52,366.65 634.60,370.97 634.73,377.45 634.89,354.79 635.09,387.04 635.29,405.91 635.48,411.53 635.64,364.14 635.75,366.29 635.80,397.17 635.82,375.94 635.89,401.28 636.02,404.64 636.19,395.02 636.39,409.94 636.59,412.43 636.78,398.17 636.93,400.65 637.04,406.06 637.10,361.64 637.11,377.86 637.18,404.06 637.31,399.63 637.48,415.73 637.68,409.21 637.88,405.30 638.07,401.15 638.23,399.67 638.34,417.63 638.39,383.28 638.40,162.86 638.48,354.04 638.61,319.77 638.77,360.17 638.97,333.12 639.17,365.43 639.37,364.59 639.52,360.53 639.63,331.16 639.68,269.51 639.70,403.17 639.77,404.03 639.90,405.25 640.07,398.93 640.27,390.26 640.47,402.45 640.66,405.31 640.81,398.88 640.92,386.19 640.98,383.07 640.99,398.62 641.07,400.40 641.19,401.14 641.36,402.54 641.56,406.99 641.76,420.73 641.95,403.57 642.11,407.53 642.22,409.48 642.27,401.32 642.29,353.97 642.36,356.78 642.49,358.96 642.66,395.84 642.85,365.56 643.05,358.15 643.25,325.96 643.40,379.38 643.51,404.14 643.56,414.87 643.58,427.50 643.65,395.36 643.78,396.14 643.95,398.33 644.15,408.24 644.35,397.19 644.54,392.11 644.69,403.53 644.81,405.25 644.86,387.67 644.87,321.66 644.95,390.71 645.07,409.38 645.24,340.63 645.44,362.03 645.64,414.95 645.83,407.83 645.99,394.54 646.10,392.91 646.15,367.19 646.17,405.85 646.24,408.37 646.37,404.73 646.54,402.67 646.73,406.15 646.94,416.61 647.13,418.50 647.28,397.02 647.39,419.96 647.44,404.69 647.46,405.52 647.53,393.61 647.66,401.70 647.83,407.53 648.03,410.45 648.23,407.44 648.42,400.01 648.58,410.86 648.69,392.63 648.74,420.63 648.75,291.48 648.83,401.82 648.96,355.93 649.12,369.15 649.32,349.43 649.52,408.81 649.71,368.94 649.87,369.97 649.98,399.03 650.03,398.22 650.05,390.10 650.12,402.91 650.25,403.67 650.42,391.00 650.62,399.49 650.82,408.48 651.01,403.70 651.16,400.22 651.27,397.87 651.32,407.46 651.34,399.16 651.41,397.75 651.54,394.16 651.71,415.71 651.91,409.44 652.11,416.57 652.30,402.65 652.46,402.41 652.57,407.18 652.62,392.82 652.63,332.22 652.71,362.72 652.84,369.75 653.00,411.50 653.20,364.95 653.40,338.07 653.60,333.92 653.75,356.44 653.86,383.77 653.91,329.30 653.93,410.42 654.00,401.66 654.13,387.30 654.30,402.27 654.50,393.66 654.70,397.51 654.89,398.59 655.04,405.91 655.15,411.91 655.20,404.29 655.22,320.41 655.29,405.57 655.42,372.36 655.60,355.18 655.79,375.13 655.99,391.72 656.18,400.07 656.34,392.11 656.45,415.30 656.50,416.40 656.51,379.20 656.59,382.67 656.72,391.85 656.89,410.98 657.08,406.25 657.28,405.69 657.48,409.16 657.63,384.11 657.74,391.18 657.79,351.67 657.81,400.46 657.88,384.97 658.01,408.74 658.18,402.44 658.38,406.71 658.58,404.40 658.77,412.13 658.92,407.62 659.03,397.43 659.08,408.43 659.10,269.64 659.17,386.67 659.30,405.52 659.48,354.10 659.67,321.51 659.88,399.16 660.06,410.36 660.22,371.09 660.33,418.73 660.38,407.67 660.39,406.27 660.47,404.76 660.60,421.77 660.77,385.01 660.96,414.39 661.17,413.83 661.36,418.27 661.51,417.74 661.62,401.84 661.67,385.23 661.69,395.06 661.76,387.66 661.89,389.89 662.06,416.18 662.26,412.86 662.46,415.03 662.65,415.41 662.81,399.95 662.91,409.30 662.96,383.03 662.98,304.63 663.05,395.59 663.18,401.27 663.36,408.55 663.55,373.76 663.76,323.18 663.94,356.82 664.10,330.79 664.21,424.73 664.26,323.69 664.27,400.88 664.35,397.73 664.48,396.55 664.65,400.04 664.85,390.89 665.05,383.32 665.24,388.60 665.39,398.52 665.50,396.00 665.55,328.93 665.57,280.19 665.64,371.59 665.77,370.97 665.94,391.74 666.14,387.43 666.34,382.67 666.53,386.50 666.69,412.67 666.79,398.71 666.84,406.29 666.86,371.33 666.93,388.65 667.06,412.64 667.24,407.65 667.43,403.59 667.64,405.21 667.82,408.05 667.98,407.78 668.09,402.74 668.14,371.67 668.15,388.45 668.23,413.49 668.36,401.14 668.53,402.09 668.73,405.58 668.93,405.16 669.12,410.84 669.27,403.07 669.38,422.91 669.43,416.56 669.45,224.13 669.52,394.59 669.65,404.48 669.82,327.66 670.02,307.05 670.22,347.52 670.41,360.22 670.57,354.29 670.67,383.00 670.72,283.23 670.74,400.88 670.82,422.05 670.95,403.86 671.12,396.41 671.31,412.13 671.52,418.72 671.71,407.73 671.86,418.50 671.97,396.36 672.02,373.60 672.03,406.38 672.11,378.19 672.24,392.65 672.41,418.74 672.61,415.28 672.81,414.01 673.00,405.98 673.15,387.65 673.26,405.83 673.31,397.54 673.33,376.76 673.40,396.31 673.53,396.07 673.71,400.99 673.90,387.12 674.11,346.02 674.29,378.46 674.45,316.48 674.56,378.16 674.60,381.67 674.62,390.38 674.70,390.47 674.83,395.82 675.00,397.78 675.19,391.57 675.40,388.42 675.59,391.08 675.74,389.91 675.85,417.75 675.90,372.51 675.91,307.09 675.99,386.40 676.12,373.87 676.29,417.77 676.49,404.48 676.69,396.81 676.88,379.14 677.03,403.81 677.14,396.77 677.19,397.50 677.21,400.22 677.28,388.12 677.41,396.75 677.59,415.68 677.78,405.03 677.99,391.36 678.17,375.42 678.33,408.97 678.44,410.87 678.48,402.11 678.50,380.83 678.58,406.66 678.71,408.46 678.88,395.40 679.07,406.26 679.28,405.10 679.47,397.68 679.62,395.42 679.73,404.09 679.78,346.01 679.79,187.64 679.87,370.40 680.00,400.53 680.17,302.99 680.37,284.60 680.57,357.48 680.76,332.23 680.92,366.64 681.02,396.22 681.07,296.78 681.09,396.60 681.16,386.53 681.29,410.38 681.47,409.46 681.67,419.41 681.87,416.66 682.05,393.17 682.21,403.91 682.32,407.95 682.36,364.81 682.38,357.80 682.46,370.80 682.59,405.72 682.76,421.09 682.96,409.83 683.16,404.19 683.35,411.57 683.50,395.30 683.61,399.27 683.66,378.90 683.67,325.31 683.75,390.65 683.88,396.31 684.05,388.00 684.25,388.67 684.45,380.54 684.64,381.80 684.80,365.11 684.90,373.68 684.95,339.84 684.97,382.08 685.05,390.69 685.17,395.72 685.35,384.77 685.55,384.59 685.75,403.65 685.94,401.24 686.09,389.42 686.20,393.90 686.24,417.44 686.26,317.11 686.34,383.56 686.47,366.83 686.64,399.88 686.84,409.79 687.04,402.32 687.23,396.31 687.38,414.17 687.49,420.58 687.54,364.00 687.56,418.78 687.63,407.69 687.76,397.90 687.94,416.37 688.13,403.57 688.33,383.40 688.52,365.46 688.68,383.85 688.78,395.46 688.83,393.08 688.85,398.89 688.93,389.22 689.05,383.26 689.23,394.11 689.43,405.58 689.63,400.30 689.82,408.09 689.97,412.78 690.08,396.79 690.12,421.11 690.14,298.64 690.22,354.81 690.35,331.37 690.52,320.09 690.72,302.60 690.92,352.20 691.11,326.35 691.26,376.86 691.37,378.40 691.42,317.85 691.44,412.22 691.51,392.03 691.64,403.32 691.82,412.71 692.01,413.49 692.22,417.78 692.40,411.48 692.56,384.25 692.66,389.32 692.71,352.40 692.73,397.14 692.81,403.14 692.94,388.03 693.11,412.96 693.31,400.34 693.51,390.18 693.70,408.82 693.85,393.95 693.96,413.20 694.00,395.28 694.02,288.47 694.10,356.72 694.23,383.27 694.40,374.68 694.60,343.44 694.80,364.41 694.99,334.20 695.15,390.91 695.25,377.16 695.30,361.49 695.32,393.06 695.39,410.12 695.52,411.27 695.70,384.36 695.90,397.68 696.10,408.65 696.28,405.47 696.44,426.22 696.54,426.11 696.59,369.14 696.61,399.15 696.69,376.98 696.82,394.26 696.99,376.80 697.19,414.33 697.39,412.61 697.58,391.61 697.73,382.83 697.84,379.03 697.88,364.63 697.90,403.54 697.98,403.70 698.11,401.26 698.28,412.34 698.48,405.92 698.68,388.03 698.87,375.95 699.03,375.31 699.13,410.08 699.18,391.42 699.20,393.77 699.27,402.98 699.40,393.34 699.58,402.04 699.78,396.78 699.98,393.76 700.17,398.20 700.32,403.84 700.42,403.52 700.47,367.56 700.49,277.43 700.57,358.62 700.70,356.63 700.87,350.95 701.07,345.69 701.27,358.12 701.46,360.04 701.61,378.93 701.72,383.24 701.76,234.64 701.78,414.28 701.86,382.49 701.99,399.35 702.17,421.39 702.36,414.81 702.56,411.16 702.75,409.80 702.91,407.29 703.01,409.25 703.06,377.02 703.08,422.50 703.15,400.07 703.28,412.86 703.46,405.48 703.66,392.21 703.86,411.99 704.05,404.05 704.20,412.72 704.31,417.25 704.35,421.56 704.37,332.04 704.45,351.52 704.58,380.88 704.75,362.66 704.95,320.60 705.15,324.62 705.34,325.12 705.49,410.62 705.60,341.05 705.64,263.25 705.66,385.48 705.74,403.28 705.87,407.71 706.05,394.37 706.24,405.65 706.45,416.97 706.63,413.93 706.79,414.46 706.89,400.94 706.94,396.30 706.96,378.62 707.03,402.26 707.16,416.93 707.34,374.67 707.54,402.16 707.74,408.66 707.93,421.16 708.08,378.59 708.19,406.08 708.23,367.55 708.25,399.42 708.33,379.34 708.46,410.73 708.63,395.07 708.83,406.48 709.03,401.22 709.22,402.34 709.38,387.54 709.48,402.11 709.52,413.41 709.54,376.40 709.62,387.46 709.75,398.29 709.93,407.78 710.12,389.83 710.33,397.57 710.51,396.68 710.67,400.95 710.77,379.62 710.82,410.71 710.84,310.03 710.91,360.84 711.05,377.71 711.22,369.67 711.42,372.81 711.62,396.34 711.81,372.69 711.96,353.62 712.07,379.93 712.11,297.87 712.13,410.02 712.21,385.22 712.34,388.80 712.51,417.54 712.71,422.16 712.91,404.02 713.10,410.79 713.26,389.18 713.36,413.26 713.40,382.34 713.42,415.49 713.50,406.56 713.63,398.18 713.81,393.72 714.01,396.44 714.21,407.43 714.40,410.36 714.55,392.95 714.65,402.21 714.70,373.77 714.72,397.48 714.80,341.04 714.93,372.77 715.10,383.25 715.30,328.34 715.50,307.29 715.69,328.02 715.84,339.02 715.95,350.88 715.99,273.49 716.01,425.54 716.09,399.52 716.22,407.96 716.39,396.43 716.59,412.83 716.79,412.56 716.98,402.32 717.14,412.67 717.24,396.06 717.28,427.61 717.30,372.49 717.38,419.20 717.51,397.84 717.69,385.69 717.89,395.96 718.09,412.64 718.28,418.73 718.43,376.38 718.53,398.83 718.58,320.40 718.60,388.18 718.68,380.21 718.81,404.81 718.98,386.87 719.18,412.09 719.38,423.36 719.57,415.49 719.72,413.44 719.83,396.61 719.87,375.60 719.89,385.18 719.97,392.84 720.10,405.11 720.28,407.96 720.47,393.18 720.68,398.18 720.86,400.61 721.02,394.48 721.12,400.11 721.16,394.91 721.19,372.97 721.26,354.26 721.39,381.15 721.57,368.88 721.77,350.81 721.97,383.30 722.16,416.66 722.31,333.45 722.41,389.24 722.46,310.47 722.48,414.56 722.56,397.68 722.69,399.53 722.86,409.12 723.06,409.08 723.27,395.54 723.45,406.61 723.60,405.72 723.71,402.97 723.75,372.16 723.77,406.83 723.85,391.23 723.98,405.34 724.16,381.03 724.35,403.28 724.56,400.55 724.74,400.20 724.90,400.50 725.00,403.44 725.04,397.42 725.07,397.43 725.14,386.28 725.28,399.94 725.45,418.36 725.65,362.53 725.85,310.23 726.04,330.44 726.19,334.23 726.29,396.70 726.34,299.67 726.36,392.81 726.44,412.65 726.57,413.34 726.74,406.70 726.94,417.30 727.15,406.80 727.33,400.30 727.48,387.04 727.59,410.82 727.63,390.55 727.65,375.95 727.73,365.22 727.86,375.09 728.04,405.70 728.24,387.19 728.44,408.34 728.62,408.10 728.78,388.08 728.88,381.05 728.93,388.85 728.95,353.16 729.02,397.05 729.16,394.20 729.33,393.56 729.53,393.06 729.73,400.49 729.92,384.35 730.07,412.40 730.17,364.58 730.22,401.91 730.24,413.79 730.32,408.14 730.45,405.08 730.62,410.34 730.82,397.94 731.03,413.67 731.21,409.91 731.36,416.01 731.47,410.02 731.51,369.48 731.53,328.37 731.61,358.03 731.74,396.73 731.92,354.47 732.12,339.88 732.32,382.11 732.51,407.10 732.66,316.07 732.76,359.73 732.81,330.18 732.83,410.49 732.91,387.53 733.04,401.42 733.21,414.48 733.41,398.32 733.61,394.57 733.80,401.41 733.95,392.45 734.06,388.10 734.10,391.56 734.12,420.55 734.20,376.75 734.33,390.28 734.51,391.79 734.70,399.67 734.91,391.21 735.09,402.02 735.24,394.47 735.35,392.09 735.39,363.85 735.41,340.89 735.49,380.06 735.62,408.76 735.80,389.29 736.00,375.69 736.20,346.72 736.39,392.17 736.54,338.36 736.64,364.29 736.69,349.17 736.71,408.06 736.79,392.55 736.92,407.07 737.09,412.79 737.29,422.21 737.50,414.83 737.68,403.57 737.83,392.43 737.94,418.74 737.98,395.62 738.00,332.34 738.08,367.27 738.21,371.65 738.39,412.08 738.58,397.79 738.79,396.66 738.97,385.07 739.13,406.36 739.23,401.49 739.27,360.13 739.29,365.61 739.37,387.01 739.51,386.16 739.68,383.71 739.88,382.35 740.08,386.83 740.27,348.05 740.42,388.81 740.52,355.06 740.57,369.65 740.59,390.78 740.67,410.12 740.80,414.62 740.97,405.57 741.17,402.06 741.38,420.38 741.56,404.99 741.71,395.20 741.82,394.14 741.86,387.24 741.88,295.09 741.96,353.90 742.09,389.81 742.27,349.48 742.47,329.93 742.67,394.23 742.85,419.83 743.01,364.64 743.11,338.91 743.15,313.99 743.17,409.39 743.25,392.11 743.39,401.67 743.56,404.72 743.76,392.44 743.96,391.89 744.15,402.66 744.30,409.36 744.40,400.68 744.45,400.09 744.47,415.59 744.55,403.07 744.68,403.43 744.85,402.08 745.06,396.67 745.26,395.79 745.44,390.36 745.59,400.10 745.70,406.51 745.74,402.44 745.76,287.14 745.84,354.81 745.97,420.50 746.15,371.75 746.35,381.50 746.55,368.13 746.74,403.98 746.89,332.05 746.99,347.99 747.03,283.85 747.05,421.85 747.13,404.19 747.27,397.01 747.44,417.96 747.64,418.89 747.84,411.60 748.03,398.07 748.18,400.75 748.28,400.75 748.33,402.45 748.35,379.24 748.43,370.20 748.56,380.88 748.74,423.20 748.94,401.49 749.14,404.44 749.32,395.92 749.47,412.84 749.58,404.93 749.62,395.96 749.64,407.84 749.72,389.33 749.85,397.17 750.03,403.05 750.23,387.69 750.43,376.45 750.62,351.89 750.77,375.52 750.87,357.90 750.91,333.59 750.93,401.43 751.01,395.37 751.15,410.93 751.33,406.05 751.52,413.00 751.73,416.99 751.91,410.80 752.06,404.68 752.16,384.31 752.21,399.45 752.23,366.58 752.31,310.02 752.44,353.46 752.62,335.64 752.82,330.58 753.02,370.23 753.20,390.16 753.35,397.19 753.46,337.76 753.50,318.89 753.52,399.52 753.60,383.80 753.73,401.91 753.91,395.35 754.11,382.57 754.31,404.86 754.50,407.83 754.65,393.28 754.75,404.25 754.79,391.98 754.81,423.97 754.89,385.21 755.03,388.94 755.21,404.42 755.40,379.55 755.61,390.84 755.79,394.84 755.94,390.69 756.04,395.17 756.09,406.47 756.11,328.72 756.19,345.60 756.32,394.89 756.50,366.70 756.70,361.15 756.90,360.12 757.08,369.37 757.24,345.75 757.34,313.08 757.38,305.27 757.40,406.37 757.48,393.61 757.62,396.53 757.79,424.11 757.99,422.82 758.19,402.75 758.38,397.01 758.53,394.15 758.63,418.15 758.67,408.33 758.69,395.34 758.77,394.49 758.91,394.66 759.09,394.85 759.29,412.67 759.49,404.05 759.67,396.52 759.82,381.79 759.92,415.92 759.97,339.73 759.99,380.79 760.07,422.29 760.20,414.27 760.38,417.62 760.58,395.71 760.78,368.81 760.97,365.26 761.12,362.92 761.22,401.48 761.26,384.84 761.28,407.56 761.36,410.24 761.50,404.20 761.67,407.13 761.87,414.21 762.07,419.85 762.26,416.93 762.41,415.88 762.51,418.46 762.55,405.85 762.57,390.87 762.66,305.00 762.79,328.60 762.97,326.33 763.17,337.23 763.37,367.52 763.55,388.26 763.70,392.36 763.81,345.76 763.85,265.03 763.87,415.58 763.95,393.94 764.08,392.32 764.26,387.60 764.46,394.40 764.66,400.18 764.85,407.08 765.00,393.52 765.10,401.62 765.14,342.60 765.16,412.11 765.24,391.02 765.38,411.22 765.56,406.93 765.75,387.35 765.95,401.18 766.14,387.10 766.29,406.84 766.39,395.01 766.43,404.52 766.46,351.91 766.54,337.09 766.67,364.69 766.85,362.46 767.05,352.42 767.25,348.27 767.43,347.43 767.58,394.25 767.69,275.32 767.73,342.19 767.75,419.77 767.83,411.24 767.96,387.30 768.14,420.09 768.34,411.61 768.54,394.80 768.73,408.01 768.88,408.21 768.98,416.71 769.02,400.78 769.04,386.86 769.12,422.67 769.26,408.08 769.44,376.15 769.63,414.12 769.84,411.74 770.02,400.17 770.17,395.65 770.27,379.55 770.31,393.14 770.34,392.69 770.42,410.60 770.55,398.53 770.73,394.89 770.93,407.45 771.13,383.90 771.31,400.75 771.47,362.19 771.57,344.13 771.61,358.86 771.63,401.05 771.71,395.99 771.85,403.86 772.02,402.82 772.22,425.05 772.42,416.10 772.61,417.69 772.76,388.49 772.86,397.70 772.90,399.70 772.92,374.66 773.00,306.36 773.14,339.49 773.32,335.91 773.52,359.08 773.72,355.01 773.90,382.39 774.05,411.55 774.15,376.37 774.19,327.77 774.22,404.83 774.30,388.27 774.43,387.31 774.61,384.60 774.81,397.24 775.01,396.74 775.19,410.01 775.35,392.40 775.45,414.11 775.49,361.53 775.51,406.43 775.59,402.01 775.73,408.71 775.90,384.61 776.10,397.02 776.30,409.95 776.49,402.42 776.64,414.74 776.74,404.86 776.78,372.73 776.80,354.48 776.89,324.26 777.02,358.62 777.20,379.92 777.40,352.65 777.60,326.28 777.78,353.42 777.93,404.27 778.03,336.49 778.07,303.54 778.10,406.40 778.18,401.74 778.31,403.29 778.49,414.87 778.69,407.21 778.89,397.53 779.08,401.81 779.23,409.10 779.33,406.81 779.37,409.35 779.39,403.66 779.47,392.38 779.61,382.39 779.79,376.10 779.98,401.18 780.18,403.03 780.37,409.21 780.52,395.48 780.62,393.88 780.66,346.39 780.68,394.63 780.77,386.45 780.90,398.55 781.08,381.64 781.28,415.03 781.48,404.37 781.66,398.85 781.81,375.91 781.91,324.48 781.95,284.55 781.98,418.36 782.06,400.84 782.19,383.23 782.37,401.08 782.57,416.65 782.77,411.34 782.96,414.92 783.11,395.54 783.21,412.47 783.25,376.01 783.27,410.32 783.35,376.52 783.49,363.22 783.67,370.13 783.86,380.43 784.07,360.96 784.25,373.45 784.40,353.08 784.50,359.01 784.54,339.54 784.56,403.29 784.65,400.89 784.78,388.11 784.96,392.03 785.16,393.16 785.36,387.51 785.54,399.56 785.70,400.37 785.79,392.72 785.83,315.81 785.86,423.59 785.94,410.00 786.08,409.26 786.25,387.84 786.45,407.84 786.65,419.26 786.84,412.59 786.99,404.21 787.09,408.67 787.13,412.56 787.15,422.66 787.23,334.88 787.37,353.85 787.55,385.75 787.74,348.23 787.95,326.97 788.13,350.29 788.28,380.22 788.38,332.22 788.42,326.40 788.44,388.65 788.53,410.88 788.66,410.70 788.84,404.50 789.04,397.08 789.24,405.26 789.42,399.52 789.58,398.38 789.67,383.40 789.71,371.96 789.74,404.09 789.82,378.66 789.96,363.87 790.13,384.94 790.33,398.72 790.54,392.06 790.72,391.85 790.87,382.45 790.97,393.29 791.01,369.31 791.03,397.34 791.12,389.88 791.25,381.18 791.43,385.71 791.63,405.11 791.83,409.78 792.01,380.81 792.16,395.12 792.26,346.39 792.30,350.74 792.32,384.14 792.41,388.98 792.54,400.28 792.72,412.11 792.92,412.21 793.12,398.77 793.31,414.68 793.46,397.09 793.55,413.69 793.59,379.99 793.62,399.64 793.70,373.82 793.84,394.62 794.02,368.53 794.21,384.42 794.42,403.15 794.60,402.86 794.75,358.91 794.85,348.73 794.89,326.88 794.91,410.76 795.00,411.42 795.13,398.68 795.31,404.73 795.51,400.61 795.71,390.05 795.89,402.24 796.04,394.55 796.14,391.91 796.18,345.35 796.20,388.96 796.29,405.58 796.42,411.44 796.60,406.18 796.80,419.76 797.00,426.32 797.19,404.57 797.34,400.63 797.44,395.62 797.47,406.89 797.50,381.33 797.58,364.95 797.72,369.21 797.90,379.87 798.09,342.73 798.30,330.66 798.48,368.14 798.63,340.54 798.73,346.38 798.77,277.08 798.79,375.12 798.88,394.69 799.01,395.40 799.19,402.71 799.39,397.90 799.59,407.26 799.78,411.27 799.92,398.50 800.02,402.85 800.06,350.44 800.08,405.74 800.17,371.46 800.31,372.58 800.48,410.46 800.68,394.63 800.89,389.51 801.07,389.20 801.22,411.66 801.32,376.29 801.35,375.90 801.38,393.73 801.46,386.62 801.60,386.83 801.78,390.04 801.98,397.40 802.18,408.82 802.36,371.54 802.51,407.28 802.61,351.44 802.65,308.21 802.67,414.85 802.76,387.91 802.89,401.89 803.07,414.29 803.27,413.74 803.47,385.84 803.66,403.78 803.81,384.97 803.90,408.73 803.94,404.01 803.96,417.83 804.05,346.87 804.19,394.27 804.36,333.89 804.57,355.15 804.77,409.99 804.95,408.41 805.10,354.76 805.20,362.51 805.23,307.48 805.26,404.43 805.34,422.86 805.48,405.86 805.66,405.17 805.86,397.27 806.06,398.80 806.24,387.42 806.39,390.93 806.49,380.88 806.53,375.49 806.55,410.42 806.64,404.93 806.77,407.97 806.95,403.80 807.15,416.29 807.35,415.33 807.54,405.75 807.69,418.29 807.78,410.62 807.82,400.95 807.84,359.04 807.93,362.19 808.07,381.78 808.24,391.87 808.45,351.84 808.65,353.08 808.83,400.91 808.98,351.04 809.08,275.87 809.11,152.88 809.14,390.91 809.22,374.38 809.36,410.14 809.54,398.74 809.74,404.92 809.94,403.87 810.13,404.91 810.27,401.94 810.37,396.93 810.41,324.19 810.43,404.98 810.52,381.90 810.65,391.24 810.83,417.40 811.03,397.64 811.23,399.39 811.42,404.81 811.57,404.57 811.66,402.96 811.70,362.32 811.72,403.70 811.81,394.00 811.95,392.33 812.13,421.36 812.33,390.47 812.53,380.41 812.71,365.31 812.86,372.85 812.96,342.61 812.99,334.57 813.02,406.95 813.10,409.24 813.24,386.27 813.42,419.00 813.62,401.22 813.82,397.23 814.01,400.44 814.15,403.67 814.25,423.93 814.29,394.06 814.31,341.77 814.40,323.92 814.53,342.82 814.71,299.21 814.91,332.20 815.12,375.71 815.30,405.01 815.45,378.37 815.54,326.26 815.58,338.29 815.61,391.31 815.69,421.92 815.83,417.80 816.01,403.36 816.21,387.65 816.41,406.00 816.59,393.84 816.74,401.48 816.84,387.03 816.87,367.66 816.90,418.20 816.98,423.79 817.12,392.95 817.30,413.22 817.50,422.03 817.70,414.99 817.89,421.75 818.03,401.97 818.13,387.69 818.17,403.22 818.19,398.00 818.28,378.98 818.42,419.10 818.59,400.78 818.80,369.71 819.00,377.72 819.18,398.37 819.33,372.84 819.42,251.24 819.46,266.59 819.49,401.72 819.57,396.69 819.71,381.86 819.89,390.12 820.09,402.12 820.29,401.44 820.47,394.98 820.62,378.98 820.72,389.69 820.75,357.88 820.78,407.62 820.86,393.78 821.00,408.59 821.18,393.81 821.38,404.43 821.58,405.66 821.77,414.66 821.91,406.01 822.01,390.81 822.05,354.80 822.07,357.36 822.16,397.72 822.30,411.46 822.47,424.96 822.68,402.29 822.88,374.45 823.06,371.92 823.21,355.36 823.30,329.23 823.34,273.69 823.37,386.19 823.45,410.50 823.59,397.74 823.77,414.19 823.97,397.99 824.17,393.36 824.36,398.19 824.50,396.74 824.60,402.67 824.63,344.04 824.66,366.56 824.75,330.98 824.88,303.22 825.07,290.09 825.26,325.24 825.46,358.78 825.65,391.56 825.79,410.33 825.89,349.80 825.93,373.60 825.95,383.74 826.04,410.60 826.18,418.15 826.36,401.89 826.56,393.02 826.76,417.19 826.94,411.87 827.09,416.93 827.19,385.70 827.22,395.38 827.25,413.40 827.33,411.68 827.47,398.63 827.65,415.34 827.85,421.43 828.05,411.35 828.24,414.27 828.38,388.04 828.48,422.36 828.51,394.36 828.54,383.53 828.63,336.78 828.77,373.94 828.95,379.18 829.14,373.42 829.35,385.67 829.53,401.85 829.67,401.37 829.77,303.29 829.81,263.15 829.83,415.67 829.92,401.51 830.06,389.88 830.24,381.53 830.44,400.47 830.64,405.41 830.82,394.94 830.97,397.71 831.07,392.91 831.10,373.79 831.13,385.54 831.21,403.90 831.35,427.46 831.53,386.15 831.73,401.25 831.93,414.19 832.12,404.94 832.26,412.52 832.36,415.62 832.39,384.88 832.42,356.91 832.51,388.40 832.65,410.43 832.83,420.95 833.02,413.22 833.23,368.07 833.41,385.66 833.56,358.37 833.65,335.86 833.69,291.88 833.71,407.60 833.80,398.79 833.94,407.87 834.12,405.18 834.32,390.60 834.52,392.16 834.70,399.81 834.85,390.97 834.95,417.28 834.98,315.45 835.01,372.01 835.09,315.16 835.23,318.82 835.41,329.48 835.61,359.15 835.81,349.51 836.00,360.50 836.14,383.24 836.24,292.18 836.27,342.05 836.30,401.03 836.39,398.95 836.53,409.45 836.71,390.37 836.91,418.06 837.11,418.17 837.29,412.45 837.44,411.05 837.53,391.10 837.57,377.38 837.59,408.16 837.68,399.14 837.82,385.88 838.00,411.35 838.20,418.36 838.40,402.17 838.59,414.18 838.73,401.08 838.83,401.93 838.86,386.01 838.89,368.70 838.98,300.60 839.12,340.77 839.29,350.35 839.49,339.79 839.69,342.55 839.88,359.01 840.02,418.11 840.12,266.48 840.15,285.48 840.18,404.71 840.27,397.71 840.41,392.94 840.59,392.95 840.79,411.77 840.99,391.79 841.17,401.53 841.32,405.75 841.41,403.97 841.45,336.99 841.47,405.10 841.56,390.54 841.70,401.45 841.88,396.06 842.08,407.91 842.28,414.28 842.47,413.86 842.61,392.05 842.71,387.18 842.74,370.23 842.77,381.11 842.86,418.48 843.00,391.24 843.18,397.75 843.37,423.89 843.58,368.77 843.76,395.78 843.90,376.23 844.00,337.38 844.03,310.34 844.06,415.04 844.15,399.18 844.29,395.61 844.47,385.31 844.67,394.62 844.87,416.99 845.05,395.05 845.20,392.16 845.29,387.99 845.33,364.92 845.36,387.43 845.44,362.70 845.58,342.21 845.76,373.42 845.96,400.81 846.16,360.05 846.35,382.60 846.49,374.68 846.59,345.68 846.62,305.00 846.65,397.74 846.74,400.36 846.88,412.02 847.06,406.10 847.25,419.85 847.46,417.41 847.64,413.19 847.79,403.15 847.88,382.81 847.91,384.66 847.94,410.14 848.03,398.79 848.17,397.73 848.35,410.49 848.55,404.42 848.75,391.87 848.93,408.80 849.08,401.80 849.17,404.25 849.21,372.98 849.24,368.42 849.32,319.81 849.47,310.48 849.64,327.14 849.85,295.99 850.04,307.85 850.23,349.24 850.37,367.24 850.47,275.46 850.50,230.61 850.53,411.00 850.62,396.53 850.76,401.25 850.94,412.80 851.14,414.65 851.34,404.77 851.52,395.68 851.67,401.89 851.76,386.49 851.80,398.38 851.82,415.50 851.91,375.15 852.05,401.43 852.23,387.33 852.43,409.15 852.63,411.57 852.82,402.21 852.96,392.25 853.05,392.72 853.09,394.78 853.12,385.04 853.21,379.16 853.35,404.19 853.52,385.22 853.73,408.89 853.92,398.52 854.11,387.94 854.25,413.75 854.35,318.37 854.38,229.87 854.41,418.01 854.50,403.24 854.64,395.84 854.82,396.04 855.02,396.37 855.22,409.14 855.40,406.49 855.55,392.47 855.64,409.19 855.68,385.02 855.70,354.92 855.79,377.43 855.93,349.22 856.11,370.27 856.31,398.85 856.51,383.03 856.70,411.75 856.84,410.21 856.94,360.18 856.97,352.42 857.00,406.85 857.09,399.75 857.23,402.48 857.41,411.01 857.61,423.78 857.80,417.73 857.99,410.79 858.13,397.61 858.23,403.66 858.26,375.48 858.29,412.70 858.38,411.33 858.52,392.17 858.70,401.69 858.90,405.84 859.10,388.74 859.28,412.89 859.43,393.21 859.52,415.40 859.56,337.38 859.58,329.64 859.67,327.14 859.81,319.59 859.99,336.93 860.19,299.62 860.40,324.83 860.58,350.88 860.72,349.25 860.82,284.49 860.85,303.74 860.88,405.84 860.97,405.18 861.11,400.37 861.29,416.29 861.49,404.13 861.69,399.48 861.87,405.84 862.02,400.30 862.11,395.29 862.14,422.83 862.17,394.47 862.26,386.90 862.40,386.30 862.58,400.98 862.78,408.28 862.98,408.26 863.16,417.74 863.31,376.74 863.40,404.74 863.44,306.86 863.46,378.95 863.55,378.41 863.70,379.32 863.87,378.15 864.07,376.41 864.28,411.93 864.46,368.64 864.60,399.02 864.70,325.31 864.73,287.25 864.76,397.45 864.85,392.66 864.99,394.54 865.17,399.00 865.37,402.54 865.57,402.65 865.75,405.01 865.90,393.71 865.99,425.73 866.02,344.80 866.05,337.52 866.14,378.82 866.28,365.02 866.46,339.07 866.66,391.46 866.86,380.88 867.04,406.64 867.19,353.26 867.28,316.88 867.32,263.72 867.34,397.23 867.43,404.26 867.58,395.94 867.75,418.30 867.96,406.53 868.16,406.71 868.34,419.19 868.48,380.50 868.58,418.01 868.61,362.30 868.64,410.10 868.73,403.92 868.87,398.70 869.05,398.41 869.25,402.35 869.45,389.96 869.63,402.82 869.78,397.49 869.87,421.26 869.90,359.93 869.93,331.77 870.02,369.24 870.16,346.04 870.34,366.14 870.54,313.58 870.74,344.32 870.93,350.10 871.07,365.43 871.16,318.53 871.20,267.96 871.22,426.40 871.31,401.99 871.46,410.23 871.64,404.61 871.84,404.96 872.04,408.57 872.22,399.86 872.36,406.21 872.46,418.87 872.49,380.02 872.52,390.78 872.61,392.98 872.75,402.08 872.93,413.88 873.13,410.45 873.33,398.05 873.51,413.64 873.66,393.35 873.75,414.69 873.78,396.13 873.81,384.20 873.90,385.31 874.04,398.60 874.22,394.25 874.42,350.36 874.63,388.69 874.81,337.84 874.95,360.64 875.04,321.00 875.08,292.63 875.11,407.33 875.19,404.87 875.34,385.93 875.52,404.35 875.72,410.32 875.92,404.59 876.10,390.84 876.24,394.37 876.34,410.22 876.37,387.13 876.40,313.40 876.49,361.39 876.63,373.60 876.81,323.44 877.01,372.82 877.21,377.25 877.39,404.21 877.54,387.44 877.63,375.83 877.66,381.28 877.69,414.92 877.78,413.73 877.93,397.80 878.10,412.35 878.30,417.78 878.51,403.01 878.69,405.68 878.83,386.08 878.92,385.14 878.96,379.84 878.99,404.92 879.07,392.99 879.22,406.01 879.40,395.84 879.60,382.75 879.80,385.19 879.98,413.50 880.13,404.22 880.22,402.34 880.25,385.91 880.28,292.62 880.37,390.35 880.51,375.08 880.69,386.58 880.89,357.42 881.09,372.72 881.27,394.62 881.42,370.70 881.51,309.20 881.54,341.80 881.57,411.35 881.66,386.45 881.81,409.47 881.98,407.50 882.19,409.34 882.39,410.79 882.57,408.49 882.71,396.41 882.80,399.51 882.84,362.16 882.87,389.48 882.95,411.91 883.10,399.57 883.28,410.07 883.48,397.10 883.68,395.76 883.86,399.04 884.01,413.74 884.10,404.51 884.13,393.54 884.16,372.33 884.25,388.94 884.39,398.74 884.57,413.91 884.77,361.45 884.97,358.62 885.16,329.67 885.30,356.46 885.39,322.22 885.42,266.29 885.45,393.38 885.54,409.94 885.69,401.54 885.86,409.14 886.07,412.06 886.27,414.38 886.45,391.16 886.59,417.40 886.68,390.99 886.72,291.92 886.75,370.85 886.84,355.98 886.98,356.72 887.16,334.25 887.36,376.45 887.55,391.35 887.74,372.56 887.88,382.83 887.97,335.80 888.00,300.96" fill="none" stroke="#000" stroke-width="1.5" opacity="0.9"/>
<text x="500.0" y="502" font-family="Times New Roman" font-size="19" text-anchor="middle">Julian Date</text>
<text transform="translate(18,247.0) rotate(-90)" font-family="Times New Roman" font-size="19" text-anchor="middle">velocity residual (mm/s)</text>
</svg>
