<svg xmlns="http://www.w3.org/2000/svg" width="920" height="520" viewBox="0 0 920 520">
<rect width="100%" height="100%" fill="white"/>
<text x="460.0" y="24" font-family="Times New Roman" font-size="24" text-anchor="middle">Jupiter native velocity residual</text>
<line x1="112" y1="434" x2="888" y2="434" stroke="#333"/>
<line x1="112" y1="60" x2="112" y2="434" stroke="#333"/>
<line x1="112" y1="434.00" x2="888" y2="434.00" stroke="#ddd"/>
<text x="104" y="438.00" font-family="Times New Roman" font-size="17" text-anchor="end">0</text>
<line x1="112" y1="340.50" x2="888" y2="340.50" stroke="#ddd"/>
<text x="104" y="344.50" font-family="Times New Roman" font-size="17" text-anchor="end">0.3178</text>
<line x1="112" y1="247.00" x2="888" y2="247.00" stroke="#ddd"/>
<text x="104" y="251.00" font-family="Times New Roman" font-size="17" text-anchor="end">0.6355</text>
<line x1="112" y1="153.50" x2="888" y2="153.50" stroke="#ddd"/>
<text x="104" y="157.50" font-family="Times New Roman" font-size="17" text-anchor="end">0.9533</text>
<line x1="112" y1="60.00" x2="888" y2="60.00" stroke="#ddd"/>
<text x="104" y="64.00" font-family="Times New Roman" font-size="17" text-anchor="end">1.271</text>
<line x1="112.00" y1="434" x2="112.00" y2="439" stroke="#333"/>
<text x="112.00" y="456" font-family="Times New Roman" font-size="17" text-anchor="middle">2378495</text>
<line x1="306.00" y1="434" x2="306.00" y2="439" stroke="#333"/>
<text x="306.00" y="456" font-family="Times New Roman" font-size="17" text-anchor="middle">2433282</text>
<line x1="500.00" y1="434" x2="500.00" y2="439" stroke="#333"/>
<text x="500.00" y="456" font-family="Times New Roman" font-size="17" text-anchor="middle">2488070</text>
<line x1="694.00" y1="434" x2="694.00" y2="439" stroke="#333"/>
<text x="694.00" y="456" font-family="Times New Roman" font-size="17" text-anchor="middle">2542858</text>
<line x1="888.00" y1="434" x2="888.00" y2="439" stroke="#333"/>
<text x="888.00" y="456" font-family="Times New Roman" font-size="17" text-anchor="middle">2597645</text>
<polyline points="112.00,406.54 112.00,406.82 112.01,407.92 112.01,409.39 112.02,411.11 112.03,413.07 112.05,414.43 112.07,415.33 112.09,415.79 112.11,415.73 112.14,415.15 112.17,413.45 112.20,410.82 112.23,407.09 112.27,401.82 112.30,397.11 112.34,392.42 112.39,386.96 112.43,382.43 112.48,378.17 112.53,373.63 112.58,369.93 112.63,365.08 112.69,354.75 112.75,343.08 112.81,335.43 112.87,339.70 112.93,351.85 113.00,366.64 113.06,372.75 113.12,372.59 113.20,371.75 113.26,375.66 113.32,384.44 113.40,397.83 113.47,406.91 113.54,409.73 113.61,415.52 113.68,424.31 113.75,405.58 113.83,385.16 113.90,381.37 113.97,388.73 114.05,401.27 114.11,408.41 114.18,412.26 114.26,413.15 114.33,411.70 114.39,409.41 114.47,404.36 114.53,397.66 114.60,392.23 114.67,391.55 114.73,384.29 114.79,362.36 114.86,335.33 114.92,324.85 114.97,329.80 115.03,350.06 115.09,370.98 115.14,385.16 115.19,385.42 115.24,376.48 115.29,366.42 115.34,359.30 115.38,360.98 115.41,372.30 115.46,397.83 115.49,414.73 115.52,384.55 115.56,335.80 115.58,297.76 115.61,269.93 115.63,256.46 115.65,263.88 115.67,293.76 115.69,332.90 115.70,375.00 115.71,391.85 115.71,365.90 115.72,342.79 115.72,297.11 115.72,300.34 115.73,302.87 115.75,295.01 115.78,292.72 115.81,300.39 115.86,305.35 115.91,305.57 115.96,319.34 116.03,354.22 116.10,369.70 116.18,355.66 116.28,352.09 116.37,372.02 116.47,385.86 116.59,380.59 116.70,380.67 116.81,364.61 116.95,336.44 117.08,354.15 117.22,399.44 117.38,388.07 117.52,379.73 117.67,394.66 117.85,387.43 118.01,368.86 118.17,353.54 118.37,358.12 118.54,380.57 118.71,404.90 118.92,390.38 119.10,377.16 119.29,375.53 119.50,395.56 119.69,403.77 119.88,386.07 120.11,373.54 120.30,365.08 120.49,374.52 120.72,392.24 120.92,382.18 121.14,382.80 121.34,397.29 121.53,395.02 121.76,370.16 121.95,359.97 122.15,395.88 122.37,389.02 122.56,387.26 122.74,381.82 122.96,361.66 123.14,342.31 123.32,338.41 123.52,406.33 123.69,401.10 123.86,372.47 124.05,406.61 124.21,380.70 124.36,331.38 124.54,374.77 124.68,392.44 124.82,331.66 124.98,342.03 125.10,378.68 125.23,363.51 125.36,360.30 125.47,372.34 125.58,402.18 125.69,395.26 125.78,356.91 125.87,353.14 125.96,387.96 126.02,363.68 126.09,318.37 126.15,317.30 126.20,356.53 126.24,351.63 126.28,283.10 126.31,245.20 126.33,235.38 126.34,240.07 126.34,345.19 126.34,348.47 126.35,362.26 126.37,370.73 126.40,368.23 126.43,363.30 126.47,368.53 126.52,383.22 126.58,400.71 126.65,400.59 126.73,390.00 126.80,386.64 126.89,393.38 126.99,390.95 127.09,377.79 127.19,382.42 127.32,398.58 127.44,420.57 127.56,372.45 127.71,380.47 127.84,393.85 127.98,370.34 128.15,354.19 128.30,351.66 128.45,370.40 128.63,414.95 128.80,415.99 128.96,412.98 129.16,385.97 129.34,361.50 129.51,381.58 129.73,414.59 129.91,411.21 130.09,400.02 130.31,399.27 130.50,373.31 130.70,405.63 130.92,400.89 131.12,372.39 131.31,372.69 131.54,408.72 131.73,406.85 131.93,414.26 132.16,379.88 132.35,372.97 132.54,407.40 132.77,415.91 132.96,408.34 133.15,398.83 133.36,379.78 133.55,384.92 133.73,393.51 133.94,404.08 134.11,411.02 134.28,389.45 134.48,397.06 134.64,383.52 134.83,389.38 134.98,398.29 135.13,414.16 135.30,397.99 135.44,367.97 135.58,390.12 135.73,376.95 135.85,377.36 135.97,381.03 136.10,387.88 136.20,397.51 136.30,414.81 136.40,409.42 136.49,411.63 136.57,422.55 136.65,397.71 136.71,384.16 136.77,387.10 136.82,403.52 136.86,400.01 136.90,371.07 136.93,332.60 136.95,304.65 136.96,285.75 136.96,278.39 136.97,335.68 136.97,366.34 136.99,380.41 137.02,347.06 137.05,321.74 137.10,324.79 137.14,347.89 137.20,364.57 137.27,366.42 137.34,383.00 137.41,405.32 137.51,376.12 137.60,371.10 137.69,400.36 137.81,423.22 137.92,397.18 138.04,388.12 138.18,392.90 138.31,403.91 138.44,400.87 138.60,327.68 138.74,335.68 138.89,345.07 139.07,388.17 139.23,371.94 139.42,366.99 139.59,388.65 139.76,366.66 139.96,388.88 140.14,418.28 140.32,393.71 140.53,397.86 140.72,331.20 140.91,359.37 141.13,409.92 141.32,392.14 141.51,380.04 141.74,354.73 141.93,364.74 142.13,395.26 142.36,386.57 142.55,363.14 142.75,406.28 142.97,406.33 143.17,389.82 143.36,386.78 143.58,369.80 143.77,409.69 143.96,379.31 144.17,395.37 144.35,411.74 144.53,380.07 144.74,386.60 144.91,404.72 145.08,375.84 145.27,380.36 145.43,401.97 145.58,397.97 145.76,355.11 145.90,406.99 146.04,389.99 146.20,358.34 146.33,362.64 146.45,374.83 146.59,414.22 146.70,405.21 146.81,386.23 146.92,362.87 147.01,358.30 147.10,399.28 147.19,368.99 147.26,306.61 147.33,293.74 147.39,339.27 147.44,380.66 147.49,298.98 147.52,230.88 147.55,197.21 147.57,193.95 147.58,202.16 147.59,206.52 147.59,240.54 147.60,260.02 147.61,287.99 147.64,314.68 147.67,317.34 147.71,303.13 147.77,285.70 147.82,283.85 147.88,299.05 147.96,327.86 148.04,342.85 148.12,352.51 148.22,376.48 148.32,405.42 148.42,410.35 148.55,398.44 148.66,416.22 148.78,390.72 148.93,374.18 149.06,391.54 149.20,409.46 149.37,400.86 149.52,400.01 149.67,395.12 149.85,362.81 150.02,395.77 150.18,383.06 150.38,396.88 150.55,417.02 150.73,409.52 150.94,386.88 151.12,411.76 151.31,371.91 151.53,357.82 151.72,360.66 151.91,372.50 152.13,405.76 152.33,405.83 152.56,399.00 152.75,365.46 152.95,336.95 153.17,373.30 153.37,399.18 153.56,412.14 153.79,415.67 153.98,358.10 154.17,351.14 154.39,348.14 154.58,369.17 154.76,403.37 154.98,390.37 155.15,382.67 155.33,389.46 155.53,371.20 155.70,397.32 155.86,365.26 156.05,390.46 156.20,381.49 156.35,362.95 156.52,390.68 156.67,408.67 156.80,377.30 156.95,350.26 157.08,391.69 157.19,369.78 157.32,323.30 157.43,376.12 157.53,389.21 157.63,346.97 157.72,343.15 157.80,357.58 157.88,378.56 157.95,385.74 158.00,359.34 158.06,322.80 158.10,314.63 158.14,331.69 158.17,360.90 158.19,355.11 158.20,327.02 158.21,308.92 158.21,275.25 158.22,274.75 158.24,282.82 158.26,308.45 158.29,349.50 158.33,362.23 158.38,329.37 158.44,319.65 158.50,352.75 158.57,391.84 158.66,366.30 158.74,344.86 158.83,346.23 158.94,372.49 159.04,361.54 159.15,354.21 159.28,390.44 159.40,381.91 159.53,386.09 159.69,409.02 159.82,402.80 159.97,399.93 160.14,367.76 160.29,371.43 160.45,396.56 160.64,394.85 160.80,375.86 160.97,389.23 161.18,387.25 161.35,389.18 161.53,403.61 161.75,376.87 161.93,391.26 162.12,399.04 162.34,378.72 162.53,411.76 162.73,393.03 162.95,382.36 163.15,377.98 163.34,370.00 163.57,423.82 163.77,401.87 163.96,390.70 164.19,359.59 164.38,350.05 164.57,425.01 164.80,408.73 164.98,412.65 165.17,381.84 165.39,353.07 165.57,399.23 165.75,356.45 165.95,409.68 166.12,414.31 166.32,393.24 166.49,402.45 166.65,367.84 166.83,355.62 166.98,378.94 167.12,353.46 167.29,352.83 167.42,377.86 167.55,360.80 167.70,383.50 167.82,406.17 167.93,426.08 168.05,386.50 168.15,356.20 168.24,347.18 168.34,359.87 168.42,394.25 168.49,368.47 168.57,307.03 168.63,294.24 168.68,325.63 168.73,374.38 168.76,348.04 168.79,304.88 168.81,276.21 168.83,265.13 168.83,260.49 168.83,271.11 168.84,274.39 168.86,279.94 168.88,294.09 168.91,318.65 168.95,349.24 169.00,356.08 169.06,333.27 169.12,322.67 169.19,348.08 169.27,395.27 169.35,417.26 169.45,391.54 169.55,381.17 169.65,350.76 169.77,353.00 169.89,356.32 170.01,348.25 170.15,352.47 170.29,360.30 170.42,366.09 170.59,362.23 170.74,340.36 170.91,375.91 171.07,357.60 171.23,378.04 171.43,393.83 171.60,386.67 171.77,402.70 171.98,380.54 172.16,377.15 172.34,388.97 172.56,349.30 172.74,377.82 172.93,412.88 173.16,386.97 173.35,383.86 173.54,362.00 173.77,373.89 173.96,362.42 174.16,422.60 174.39,420.08 174.58,399.73 174.78,388.25 175.00,373.15 175.20,404.93 175.39,406.76 175.61,398.39 175.79,380.60 175.98,367.27 176.19,399.98 176.37,421.58 176.55,412.52 176.75,381.13 176.92,393.80 177.08,368.56 177.27,414.70 177.42,410.33 177.58,401.73 177.75,397.24 177.89,386.60 178.02,353.58 178.18,366.23 178.30,405.81 178.42,400.54 178.55,398.11 178.66,410.23 178.76,397.07 178.87,374.10 178.95,379.17 179.04,373.19 179.12,348.78 179.18,344.16 179.25,368.03 179.30,378.55 179.34,348.07 179.39,305.23 179.41,279.09 179.43,259.84 179.45,241.68 179.45,233.45 179.46,264.66 179.46,285.83 179.48,315.82 179.50,346.49 179.54,375.90 179.57,395.79 179.62,407.61 179.68,405.15 179.74,395.50 179.81,375.74 179.89,355.83 179.97,368.27 180.06,401.62 180.17,390.02 180.27,375.08 180.38,383.51 180.51,405.90 180.63,404.53 180.76,380.05 180.91,374.21 181.05,413.24 181.19,373.41 181.36,383.69 181.51,405.37 181.67,373.73 181.86,364.00 182.02,385.54 182.19,401.60 182.39,401.59 182.57,402.78 182.75,365.65 182.96,389.84 183.15,383.25 183.33,366.21 183.56,411.43 183.75,363.71 183.94,360.25 184.16,372.53 184.36,371.48 184.59,405.49 184.78,404.40 184.98,367.17 185.21,373.08 185.40,381.97 185.59,393.44 185.82,399.83 186.01,372.02 186.20,374.36 186.42,382.75 186.60,373.98 186.78,410.38 186.99,351.95 187.17,372.52 187.34,380.23 187.54,391.55 187.70,396.52 187.86,422.86 188.05,369.67 188.20,382.16 188.35,366.42 188.51,380.05 188.65,389.12 188.78,398.61 188.92,394.66 189.04,369.76 189.16,346.96 189.28,359.77 189.38,363.63 189.47,361.36 189.58,365.41 189.65,369.17 189.73,380.09 189.80,405.19 189.86,394.72 189.91,348.62 189.97,301.15 190.00,283.80 190.03,291.40 190.06,317.78 190.07,335.13 190.08,339.92 190.08,317.37 190.09,323.18 190.10,329.69 190.12,332.96 190.15,338.09 190.20,356.88 190.24,379.56 190.29,383.46 190.36,360.81 190.43,354.20 190.50,376.17 190.59,426.41 190.68,384.75 190.78,359.38 190.89,357.37 191.00,391.60 191.11,395.71 191.25,344.97 191.38,366.22 191.51,401.68 191.67,393.61 191.81,378.23 191.96,376.37 192.13,420.79 192.29,386.19 192.45,385.90 192.64,392.58 192.81,404.82 192.99,394.40 193.19,397.65 193.37,395.63 193.55,397.81 193.77,411.38 193.96,403.20 194.15,382.07 194.37,365.37 194.56,401.39 194.76,408.89 194.98,420.88 195.18,396.16 195.37,380.07 195.60,389.74 195.80,402.22 195.99,402.63 196.22,374.57 196.41,385.23 196.60,397.38 196.82,367.63 197.01,395.12 197.19,366.39 197.41,364.15 197.59,378.63 197.76,393.88 197.96,394.10 198.13,400.93 198.33,384.82 198.49,392.97 198.64,357.93 198.82,376.05 198.97,403.32 199.11,386.93 199.27,346.08 199.40,360.83 199.53,397.60 199.67,334.19 199.78,362.37 199.89,391.07 200.00,370.68 200.10,362.22 200.18,355.82 200.28,373.20 200.35,412.86 200.42,385.61 200.49,320.91 200.54,284.92 200.58,279.29 200.63,315.13 200.65,367.76 200.68,367.75 200.69,299.04 200.70,262.13 200.70,223.78 200.71,247.25 200.72,288.03 200.74,335.85 200.78,369.77 200.81,357.36 200.86,337.53 200.92,334.06 200.97,351.30 201.04,381.20 201.12,414.33 201.20,406.59 201.29,391.02 201.40,382.54 201.50,387.09 201.61,392.59 201.74,348.36 201.86,355.90 201.98,396.27 202.13,390.86 202.27,383.34 202.43,388.55 202.58,371.16 202.73,355.26 202.91,354.46 203.08,407.42 203.24,410.37 203.44,391.84 203.61,408.05 203.79,362.81 203.99,369.55 204.18,397.63 204.36,380.74 204.58,402.03 204.77,409.04 204.96,367.17 205.18,397.44 205.38,374.42 205.57,398.49 205.80,385.63 206.00,390.72 206.19,419.53 206.42,415.61 206.61,409.75 206.81,364.48 207.03,358.55 207.22,394.54 207.41,415.43 207.63,403.81 207.82,411.17 208.00,361.16 208.21,366.58 208.39,396.70 208.56,376.60 208.76,400.06 208.92,421.27 209.08,398.43 209.27,401.66 209.42,359.54 209.57,349.88 209.73,407.79 209.87,369.68 210.00,334.83 210.15,364.31 210.27,391.94 210.38,399.49 210.51,386.47 210.61,379.02 210.70,377.01 210.81,336.95 210.89,301.69 210.97,318.09 211.04,376.68 211.10,392.30 211.16,319.95 211.21,278.95 211.24,264.73 211.28,274.85 211.30,294.39 211.31,312.14 211.32,322.39 211.32,266.34 211.33,272.27 211.34,287.85 211.37,309.37 211.39,338.25 211.44,360.89 211.48,346.85 211.53,325.89 211.60,324.52 211.66,348.55 211.73,391.60 211.83,395.26 211.91,358.38 212.01,358.27 212.12,412.89 212.23,379.16 212.34,356.83 212.48,386.14 212.60,397.58 212.73,381.26 212.89,365.93 213.03,348.37 213.18,382.29 213.35,385.63 213.51,366.17 213.67,389.73 213.86,419.15 214.03,380.69 214.20,398.09 214.41,361.55 214.59,366.15 214.77,379.81 214.98,358.56 215.17,342.28 215.36,416.02 215.58,391.09 215.78,419.39 216.00,371.84 216.20,337.22 216.39,366.27 216.62,362.60 216.81,384.37 217.01,396.71 217.24,405.54 217.43,373.57 217.62,374.00 217.85,380.27 218.04,319.75 218.22,397.45 218.44,356.56 218.62,369.20 218.80,407.60 219.01,366.17 219.18,335.60 219.35,401.76 219.55,355.88 219.71,399.78 219.86,415.08 220.04,375.16 220.19,356.17 220.33,374.39 220.49,363.23 220.62,394.14 220.75,378.56 220.89,349.72 221.01,361.72 221.11,389.82 221.23,341.93 221.33,321.78 221.42,343.40 221.51,387.10 221.58,376.40 221.65,345.43 221.72,333.86 221.78,338.84 221.82,327.72 221.87,298.65 221.90,294.20 221.92,317.29 221.94,350.01 221.95,355.27 221.95,329.18 221.95,326.51 221.96,320.96 221.98,314.27 222.02,310.00 222.05,314.58 222.10,333.51 222.15,359.48 222.21,387.94 222.29,415.45 222.36,407.43 222.44,372.63 222.54,340.75 222.63,346.50 222.73,373.59 222.85,375.40 222.96,350.77 223.08,334.98 223.23,352.38 223.36,368.03 223.49,373.36 223.66,366.15 223.80,395.98 223.95,415.33 224.13,416.02 224.29,419.48 224.46,370.18 224.65,353.56 224.83,393.94 225.00,397.49 225.21,377.91 225.39,426.55 225.58,395.96 225.79,413.89 225.98,391.53 226.17,347.56 226.40,378.80 226.59,378.81 226.79,425.47 227.01,407.11 227.21,393.56 227.40,392.22 227.63,362.99 227.83,374.09 228.02,399.99 228.25,412.05 228.44,407.90 228.63,376.54 228.85,363.15 229.03,355.10 229.22,376.99 229.43,372.48 229.60,401.96 229.80,389.74 229.97,408.28 230.14,413.89 230.33,364.09 230.49,365.84 230.64,383.55 230.81,369.68 230.96,388.96 231.09,384.51 231.25,372.16 231.37,362.42 231.49,349.89 231.63,337.68 231.74,320.33 231.84,338.69 231.95,403.77 232.04,405.69 232.12,381.47 232.21,370.42 232.28,367.30 232.34,366.68 232.40,364.91 232.44,356.69 232.48,344.67 232.52,333.89 232.54,330.43 232.56,331.14 232.57,333.23 232.57,353.45 232.57,355.68 232.59,361.48 232.61,365.02 232.63,362.00 232.67,349.37 232.72,337.71 232.77,334.30 232.83,349.78 232.90,381.18 232.97,416.51 233.06,386.99 233.14,354.09 233.24,339.07 233.35,360.46 233.46,406.43 233.57,369.67 233.70,376.72 233.83,418.25 233.98,381.50 234.11,375.00 234.25,389.86 234.42,384.03 234.57,336.73 234.73,325.99 234.92,418.32 235.08,397.24 235.25,420.05 235.45,420.08 235.62,380.43 235.80,380.07 236.02,372.93 236.20,384.14 236.39,396.43 236.61,414.42 236.80,404.94 236.99,385.85 237.21,384.54 237.41,391.13 237.60,387.22 237.83,381.27 238.03,428.92 238.22,402.72 238.45,403.56 238.64,393.41 238.84,351.44 239.06,396.00 239.25,420.25 239.44,417.50 239.65,400.74 239.84,373.69 240.02,380.22 240.23,412.31 240.40,415.69 240.57,403.26 240.76,393.40 240.93,374.86 241.08,403.78 241.26,409.75 241.41,399.87 241.56,392.71 241.72,385.73 241.85,374.99 241.98,322.99 242.12,338.68 242.23,393.88 242.34,421.65 242.46,406.25 242.56,397.98 242.66,397.33 242.74,416.26 242.82,417.40 242.90,380.77 242.96,362.18 243.01,361.44 243.07,382.46 243.11,412.05 243.14,407.07 243.17,364.41 243.18,333.47 243.19,314.35 243.19,233.52 243.20,244.56 243.21,267.93 243.23,294.47 243.26,311.26 243.29,326.77 243.34,342.60 243.39,350.87 243.45,357.38 243.52,365.47 243.59,373.40 243.67,369.07 243.77,332.76 243.86,327.30 243.96,370.01 244.08,387.80 244.19,359.64 244.31,388.03 244.45,415.26 244.58,384.51 244.71,366.06 244.88,374.93 245.02,377.41 245.17,333.00 245.35,388.67 245.51,387.76 245.68,369.24 245.87,398.62 246.04,394.89 246.22,350.58 246.43,395.88 246.61,352.51 246.79,364.41 247.01,386.48 247.20,363.30 247.42,370.85 247.61,388.66 247.81,368.66 248.03,396.51 248.23,373.82 248.42,362.88 248.65,416.84 248.85,377.00 249.04,399.85 249.27,381.94 249.46,359.15 249.65,393.16 249.87,372.98 250.06,397.06 250.25,368.40 250.46,375.49 250.64,395.67 250.82,390.16 251.02,396.92 251.19,406.02 251.36,389.39 251.55,383.30 251.71,386.73 251.86,399.68 252.03,409.64 252.18,399.55 252.32,390.94 252.47,405.14 252.60,365.37 252.72,364.33 252.86,386.63 252.96,415.82 253.07,405.11 253.18,383.92 253.27,377.35 253.35,385.07 253.44,405.71 253.51,378.55 253.57,336.39 253.64,304.36 253.68,301.47 253.72,323.15 253.76,373.33 253.78,404.18 253.80,363.69 253.81,320.94 253.82,318.07 253.82,311.99 253.83,290.41 253.85,269.43 253.88,258.40 253.91,270.27 253.96,302.92 254.01,356.26 254.07,394.01 254.13,395.00 254.21,380.68 254.29,370.99 254.38,361.39 254.48,374.15 254.58,384.61 254.68,368.99 254.81,384.31 254.93,413.59 255.05,409.94 255.20,388.41 255.34,389.93 255.48,362.15 255.65,352.87 255.80,367.47 255.95,402.97 256.14,384.79 256.30,401.56 256.47,384.81 256.67,359.95 256.84,390.55 257.02,415.91 257.23,362.98 257.41,404.81 257.60,368.14 257.82,371.83 258.01,408.72 258.20,389.00 258.43,377.09 258.62,384.09 258.82,380.72 259.05,400.42 259.24,392.01 259.44,372.25 259.66,382.39 259.86,387.56 260.05,387.96 260.27,387.64 260.46,350.07 260.65,385.28 260.87,371.34 261.05,382.02 261.26,389.79 261.44,359.37 261.62,383.05 261.82,375.54 261.98,361.01 262.14,374.38 262.33,390.56 262.48,360.90 262.63,357.49 262.80,386.47 262.94,356.25 263.07,355.22 263.22,374.29 263.34,403.78 263.46,392.84 263.59,366.96 263.69,388.37 263.79,421.43 263.89,380.24 263.98,370.69 264.05,372.41 264.13,386.38 264.19,397.24 264.25,379.46 264.31,346.40 264.35,330.79 264.38,334.35 264.41,358.78 264.42,384.70 264.44,400.04 264.44,144.77 264.44,143.36 264.45,144.77 264.47,172.30 264.50,235.14 264.53,330.22 264.58,380.02 264.63,314.36 264.68,293.27 264.75,328.74 264.82,365.37 264.90,362.49 265.00,350.97 265.09,350.62 265.19,358.83 265.31,380.20 265.42,381.51 265.53,395.54 265.67,347.39 265.80,346.85 265.96,381.54 266.10,363.04 266.24,396.59 266.42,406.14 266.57,389.30 266.73,401.67 266.92,381.56 267.09,339.13 267.26,383.41 267.46,389.07 267.64,386.71 267.82,408.73 268.04,382.12 268.22,395.53 268.41,367.68 268.63,352.00 268.83,397.76 269.02,381.79 269.25,409.70 269.44,388.94 269.64,376.96 269.86,403.49 270.06,382.10 270.25,416.15 270.48,391.82 270.67,384.71 270.87,401.00 271.09,377.15 271.28,417.00 271.46,405.80 271.68,386.10 271.86,384.11 272.04,366.51 272.24,422.15 272.41,394.51 272.58,397.44 272.77,383.46 272.93,349.29 273.08,370.59 273.26,397.72 273.40,370.16 273.54,404.96 273.70,390.22 273.82,333.22 273.95,340.69 274.08,390.83 274.19,334.43 274.31,328.11 274.41,371.19 274.50,387.43 274.60,356.04 274.68,331.40 274.74,318.51 274.82,319.09 274.87,311.41 274.92,292.40 274.97,278.52 275.00,282.19 275.03,293.92 275.05,302.81 275.06,302.25 275.06,300.91 275.06,318.79 275.07,292.73 275.09,255.63 275.12,227.71 275.15,236.75 275.19,278.22 275.25,346.49 275.30,380.15 275.37,363.03 275.45,344.70 275.52,345.08 275.61,351.70 275.71,366.47 275.81,374.14 275.91,354.85 276.04,361.01 276.16,368.86 276.28,356.63 276.43,380.43 276.56,389.49 276.70,393.21 276.87,389.63 277.02,368.48 277.17,405.93 277.35,333.97 277.52,380.71 277.68,395.35 277.88,385.85 278.06,399.30 278.23,383.29 278.45,358.83 278.63,397.85 278.81,361.13 279.03,402.38 279.22,375.55 279.45,366.14 279.64,424.30 279.84,373.71 280.06,400.44 280.26,378.18 280.45,358.14 280.68,415.44 280.88,396.57 281.07,388.58 281.30,397.20 281.49,349.40 281.68,360.29 281.90,387.16 282.08,383.06 282.27,391.78 282.48,408.76 282.66,404.37 282.83,397.59 283.03,402.28 283.20,401.55 283.36,354.63 283.55,404.28 283.70,388.45 283.85,366.76 284.02,379.94 284.16,405.66 284.30,356.92 284.45,360.30 284.57,400.46 284.69,396.78 284.82,410.79 284.92,370.78 285.02,361.15 285.12,396.48 285.21,394.77 285.29,327.60 285.37,279.85 285.43,299.99 285.49,383.52 285.54,337.18 285.58,219.42 285.62,149.10 285.65,144.93 285.67,189.16 285.68,240.14 285.68,264.32 285.69,316.44 285.70,342.50 285.71,327.09 285.74,294.02 285.78,291.13 285.82,328.63 285.86,371.11 285.93,345.80 285.99,317.55 286.06,324.48 286.15,359.10 286.23,351.83 286.32,330.41 286.43,356.90 286.53,403.98 286.64,428.46 286.78,413.05 286.90,407.67 287.03,388.58 287.18,364.10 287.32,381.75 287.46,386.03 287.64,350.03 287.79,381.20 287.95,409.40 288.14,381.16 288.31,370.66 288.48,402.06 288.68,365.84 288.86,404.98 289.04,397.15 289.25,385.40 289.44,378.60 289.63,344.93 289.85,393.09 290.04,387.64 290.23,408.60 290.46,384.63 290.65,357.63 290.85,393.63 291.08,378.43 291.27,395.74 291.47,362.00 291.69,368.65 291.89,391.91 292.08,384.90 292.30,388.35 292.49,374.08 292.68,345.23 292.89,372.38 293.07,387.71 293.28,380.08 293.46,421.42 293.63,370.24 293.82,373.09 293.99,383.10 294.15,368.94 294.33,363.21 294.48,403.85 294.62,366.24 294.79,383.14 294.92,382.11 295.05,351.20 295.19,358.41 295.31,391.36 295.42,382.21 295.54,334.91 295.64,348.04 295.73,407.50 295.83,358.35 295.91,316.04 295.98,322.62 296.05,356.85 296.11,337.85 296.16,293.56 296.21,269.61 296.24,283.12 296.27,313.03 296.29,324.58 296.30,305.25 296.31,292.31 296.31,318.62 296.32,340.36 296.33,363.03 296.36,361.85 296.39,349.07 296.43,350.24 296.49,375.61 296.54,397.36 296.60,389.99 296.68,386.67 296.76,402.82 296.84,419.49 296.94,392.47 297.04,369.84 297.14,375.77 297.27,389.31 297.38,382.43 297.52,364.35 297.65,357.11 297.78,348.97 297.94,369.49 298.09,422.17 298.24,406.01 298.41,413.07 298.57,415.75 298.74,399.05 298.93,374.56 299.10,410.65 299.27,416.15 299.48,406.43 299.66,380.31 299.84,386.99 300.06,382.75 300.25,412.17 300.44,424.85 300.66,398.99 300.85,376.41 301.05,358.48 301.28,413.68 301.47,429.77 301.67,413.51 301.89,386.60 302.09,386.67 302.28,395.68 302.51,383.80 302.70,398.55 302.89,387.51 303.11,399.24 303.30,405.76 303.48,386.38 303.70,382.37 303.87,364.50 304.05,376.85 304.25,397.45 304.42,415.33 304.58,402.78 304.77,393.46 304.92,363.64 305.07,350.69 305.24,337.14 305.39,389.00 305.52,394.20 305.67,383.59 305.80,400.72 305.93,414.76 306.04,394.27 306.15,395.08 306.26,413.40 306.36,418.82 306.44,393.28 306.53,391.73 306.60,403.96 306.67,399.73 306.73,372.89 306.78,351.22 306.82,341.21 306.86,344.76 306.89,347.74 306.91,336.68 306.93,315.13 306.93,306.09 306.93,345.87 306.94,350.72 306.96,356.66 306.98,364.82 307.02,382.26 307.06,407.05 307.10,428.24 307.16,391.80 307.22,370.43 307.29,367.53 307.38,382.60 307.46,380.42 307.55,377.78 307.66,389.40 307.76,393.26 307.87,408.98 308.00,388.55 308.12,345.50 308.25,354.07 308.41,348.71 308.54,384.00 308.69,389.50 308.86,374.23 309.01,370.92 309.17,362.84 309.36,405.40 309.52,384.85 309.69,419.36 309.90,388.99 310.07,371.77 310.25,372.55 310.47,376.50 310.65,383.13 310.87,388.63 311.06,390.89 311.25,372.48 311.48,378.90 311.67,400.61 311.87,405.56 312.09,381.05 312.29,396.13 312.49,388.71 312.71,391.76 312.91,418.42 313.10,389.64 313.33,365.47 313.52,386.83 313.70,400.80 313.92,408.21 314.11,403.52 314.29,399.75 314.50,382.40 314.67,417.10 314.84,409.58 315.04,391.35 315.21,391.84 315.37,396.22 315.55,379.73 315.70,418.66 315.84,399.99 316.01,393.20 316.14,406.71 316.27,412.03 316.42,365.96 316.54,356.94 316.65,405.82 316.77,364.95 316.87,329.77 316.96,326.47 317.06,355.80 317.14,403.36 317.21,390.29 317.29,320.25 317.35,281.64 317.40,274.32 317.45,305.62 317.48,358.02 317.51,389.11 317.53,321.23 317.55,263.75 317.55,234.59 317.55,228.44 317.56,241.31 317.58,271.73 317.60,308.53 317.63,344.20 317.68,352.66 317.72,332.04 317.78,317.36 317.85,325.68 317.91,349.61 317.99,366.51 318.08,355.13 318.17,343.07 318.27,344.57 318.39,367.70 318.49,390.99 318.61,384.46 318.75,404.19 318.87,423.90 319.01,418.46 319.17,408.01 319.31,395.89 319.46,390.05 319.63,356.94 319.79,370.76 319.95,412.99 320.15,412.56 320.32,399.69 320.49,401.42 320.70,351.16 320.88,370.15 321.06,385.92 321.28,384.59 321.46,383.04 321.65,381.11 321.88,362.55 322.07,404.64 322.26,369.93 322.49,373.75 322.68,392.57 322.88,356.34 323.11,418.41 323.30,395.70 323.50,374.73 323.72,371.16 323.92,336.93 324.11,406.64 324.33,390.40 324.51,387.44 324.73,375.10 324.91,346.28 325.09,370.63 325.30,413.03 325.47,385.46 325.64,406.66 325.83,367.94 325.99,378.29 326.14,394.46 326.32,381.79 326.47,374.23 326.61,398.56 326.77,318.01 326.90,342.27 327.02,412.70 327.16,375.54 327.27,354.52 327.38,343.95 327.49,368.74 327.59,414.31 327.67,389.16 327.76,374.39 327.84,384.59 327.90,399.99 327.97,414.46 328.02,406.91 328.06,382.44 328.11,360.63 328.13,358.23 328.15,367.96 328.17,378.63 328.17,380.42 328.18,260.63 328.18,288.75 328.20,331.34 328.22,373.88 328.26,376.66 328.29,349.26 328.34,331.31 328.40,334.28 328.46,357.38 328.53,388.34 328.61,401.52 328.69,403.93 328.78,420.69 328.89,397.89 328.99,381.40 329.12,382.68 329.23,391.60 329.35,395.79 329.50,379.18 329.63,363.81 329.77,383.81 329.93,384.67 330.08,397.50 330.23,412.28 330.41,406.06 330.58,406.02 330.74,391.18 330.94,360.71 331.11,377.92 331.29,384.85 331.50,381.63 331.68,404.23 331.87,404.93 332.09,383.65 332.28,384.25 332.47,372.81 332.69,404.58 332.89,386.44 333.08,400.95 333.31,394.49 333.50,384.25 333.70,391.46 333.93,360.49 334.12,365.84 334.31,413.54 334.54,415.37 334.73,412.32 334.92,383.18 335.14,335.96 335.32,363.62 335.50,404.65 335.71,379.41 335.89,403.77 336.06,399.78 336.26,348.29 336.42,388.92 336.58,365.95 336.77,357.13 336.92,377.51 337.07,365.49 337.23,384.20 337.37,399.74 337.50,416.50 337.64,410.99 337.76,401.91 337.89,388.74 338.00,335.47 338.10,321.51 338.21,371.66 338.30,379.31 338.37,340.74 338.46,326.00 338.52,331.53 338.58,340.33 338.64,346.23 338.69,344.22 338.72,335.75 338.76,320.85 338.78,306.64 338.79,294.29 338.80,286.84 338.80,325.15 338.81,314.62 338.82,296.73 338.84,289.45 338.87,299.55 338.92,333.49 338.96,365.43 339.01,375.34 339.08,374.01 339.15,380.39 339.22,371.03 339.32,348.49 339.40,358.80 339.50,402.84 339.61,375.26 339.72,342.37 339.83,343.26 339.97,374.89 340.10,382.41 340.23,325.47 340.39,341.80 340.53,368.05 340.68,390.10 340.85,372.31 341.01,361.75 341.17,408.88 341.36,389.70 341.53,406.45 341.71,393.69 341.91,350.07 342.09,333.23 342.30,352.74 342.49,382.23 342.68,414.97 342.90,412.45 343.09,378.09 343.28,368.36 343.51,358.45 343.70,379.93 343.90,411.23 344.13,393.93 344.32,395.27 344.52,387.21 344.74,368.13 344.94,400.23 345.13,375.59 345.35,383.01 345.54,406.86 345.73,390.29 345.94,401.64 346.13,397.84 346.31,365.26 346.51,394.47 346.68,387.95 346.85,382.85 347.05,393.14 347.21,395.82 347.36,388.80 347.54,392.13 347.69,373.36 347.83,364.31 347.99,377.74 348.12,401.68 348.25,378.98 348.39,357.85 348.50,383.61 348.61,372.50 348.72,348.37 348.82,346.31 348.90,355.82 349.00,378.62 349.07,380.88 349.14,345.63 349.21,299.11 349.26,277.08 349.30,279.61 349.35,307.26 349.37,325.14 349.40,305.28 349.41,257.51 349.42,231.27 349.42,356.00 349.43,376.90 349.44,378.78 349.47,334.05 349.50,307.26 349.53,309.66 349.58,344.22 349.64,377.79 349.69,380.78 349.77,364.92 349.84,365.46 349.92,381.03 350.03,398.53 350.12,400.58 350.22,406.75 350.34,378.93 350.46,354.31 350.58,383.60 350.72,386.18 350.85,389.78 350.99,409.18 351.15,403.81 351.30,380.25 351.45,353.96 351.63,374.13 351.80,365.96 351.96,392.59 352.16,420.58 352.33,401.62 352.51,366.49 352.71,372.66 352.90,360.60 353.08,385.12 353.30,359.40 353.49,376.87 353.68,371.17 353.90,382.08 354.10,395.62 354.29,411.60 354.52,370.80 354.72,366.51 354.91,374.59 355.14,367.07 355.33,416.65 355.53,376.22 355.75,372.93 355.94,394.32 356.16,351.82 356.35,402.74 356.54,364.59 356.75,362.99 356.93,424.47 357.11,392.84 357.31,401.22 357.48,412.58 357.64,368.36 357.83,355.99 357.99,388.63 358.14,371.44 358.31,380.37 358.45,406.37 358.59,390.23 358.74,366.76 358.87,394.78 358.99,417.10 359.12,383.83 359.23,376.92 359.33,391.36 359.44,392.07 359.53,393.30 359.61,390.20 359.69,387.97 359.76,376.96 359.82,356.22 359.88,342.80 359.93,352.34 359.96,379.22 360.00,400.75 360.02,371.42 360.03,337.41 360.04,315.24 360.04,396.58 360.05,407.47 360.06,416.53 360.09,392.16 360.11,368.43 360.16,356.28 360.20,363.01 360.25,383.36 360.32,408.93 360.38,400.01 360.45,387.79 360.55,390.58 360.63,387.53 360.73,382.48 360.84,400.45 360.95,393.55 361.08,369.90 361.20,374.23 361.32,391.24 361.47,409.52 361.61,389.48 361.75,353.03 361.92,389.02 362.07,399.00 362.23,419.62 362.42,414.94 362.58,402.62 362.75,376.89 362.95,362.65 363.13,345.44 363.31,391.64 363.52,420.94 363.70,419.17 363.89,400.57 364.11,355.45 364.30,382.03 364.50,426.81 364.72,391.95 364.92,394.09 365.11,396.84 365.34,400.74 365.53,409.87 365.73,385.81 365.96,343.75 366.15,401.70 366.34,375.74 366.57,409.09 366.76,409.11 366.94,383.13 367.16,380.28 367.34,381.79 367.52,403.33 367.73,379.63 367.90,398.15 368.07,388.81 368.27,369.41 368.43,391.95 368.58,416.23 368.76,361.88 368.91,353.52 369.05,379.74 369.21,330.15 369.34,359.84 369.49,403.91 369.61,398.95 369.73,371.69 369.85,360.58 369.95,386.23 370.05,410.71 370.15,355.89 370.23,345.86 370.30,383.04 370.38,377.20 370.44,330.22 370.50,308.77 370.55,316.59 370.59,339.76 370.62,363.92 370.64,371.17 370.66,357.88 370.67,345.36 370.67,380.53 370.67,385.67 370.68,395.44 370.71,405.94 370.74,409.06 370.77,409.98 370.82,414.46 370.87,413.21 370.93,397.71 371.01,379.90 371.08,382.83 371.16,406.76 371.26,391.13 371.35,381.17 371.45,397.52 371.57,409.01 371.68,392.61 371.80,373.86 371.95,356.86 372.08,367.61 372.21,390.80 372.38,362.22 372.52,398.26 372.67,406.73 372.85,387.96 373.01,372.28 373.18,386.73 373.37,385.33 373.55,403.23 373.72,382.44 373.93,378.52 374.11,364.29 374.33,387.21 374.51,379.72 374.70,422.57 374.93,411.83 375.12,391.11 375.31,378.40 375.54,370.43 375.73,406.16 375.93,413.46 376.16,406.10 376.35,373.80 376.55,358.61 376.77,409.41 376.97,401.15 377.16,399.29 377.38,403.92 377.57,371.71 377.75,411.46 377.97,402.91 378.15,391.28 378.32,406.05 378.52,390.79 378.69,368.45 378.86,419.10 379.05,390.50 379.21,388.38 379.36,395.46 379.53,388.00 379.68,357.31 379.81,373.76 379.97,409.26 380.09,388.09 380.21,368.83 380.35,378.03 380.46,385.80 380.56,407.25 380.67,402.94 380.76,391.07 380.84,384.52 380.93,375.27 381.00,369.54 381.06,367.77 381.12,370.59 381.16,373.26 381.20,367.59 381.24,346.35 381.26,322.51 381.28,298.13 381.29,286.03 381.29,271.53 381.30,267.29 381.31,260.42 381.33,258.01 381.36,273.83 381.39,309.05 381.44,351.36 381.50,346.65 381.55,307.90 381.62,295.57 381.70,336.00 381.78,398.81 381.86,389.68 381.97,357.71 382.07,368.77 382.18,393.72 382.31,413.68 382.42,366.73 382.55,335.01 382.70,381.25 382.83,393.31 382.97,375.61 383.14,408.00 383.29,402.91 383.45,366.61 383.64,345.60 383.80,410.58 383.97,385.54 384.17,401.71 384.34,391.33 384.52,353.28 384.74,338.85 384.92,394.72 385.11,376.90 385.33,405.82 385.52,370.07 385.71,354.97 385.93,406.85 386.13,382.93 386.32,420.94 386.55,368.40 386.75,370.86 386.94,402.90 387.17,378.28 387.36,408.29 387.59,363.77 387.78,357.57 387.97,392.72 388.19,389.41 388.37,370.44 388.56,401.01 388.77,392.24 388.95,379.20 389.12,403.63 389.32,366.10 389.48,372.50 389.65,373.61 389.83,370.30 389.98,368.39 390.13,401.24 390.30,391.96 390.44,398.65 390.57,415.85 390.72,384.13 390.84,367.37 390.95,371.38 391.08,391.27 391.18,389.11 391.28,371.65 391.38,370.88 391.46,389.48 391.54,397.40 391.62,354.19 391.68,324.05 391.73,317.76 391.79,337.02 391.83,360.67 391.86,367.31 391.89,346.83 391.90,325.31 391.91,311.31 391.91,375.70 391.92,361.56 391.93,331.13 391.95,301.72 391.98,304.51 392.01,340.77 392.06,409.48 392.11,397.29 392.17,363.59 392.24,363.47 392.31,386.82 392.39,399.18 392.49,390.39 392.58,402.90 392.69,392.98 392.80,353.46 392.91,364.44 393.05,389.56 393.17,367.46 393.30,396.69 393.46,381.10 393.60,367.39 393.74,371.36 393.92,398.37 394.07,359.43 394.23,351.64 394.42,426.27 394.59,377.19 394.76,385.36 394.97,397.64 395.15,374.00 395.33,406.08 395.54,386.43 395.73,368.79 395.92,387.53 396.14,377.93 396.33,405.23 396.53,425.72 396.75,415.49 396.95,389.55 397.14,355.40 397.37,360.61 397.57,402.57 397.76,376.43 397.99,386.19 398.18,394.64 398.37,369.41 398.59,395.14 398.78,399.36 398.97,369.33 399.18,374.40 399.36,391.85 399.54,368.17 399.74,379.26 399.91,404.01 400.08,389.00 400.27,386.22 400.43,345.36 400.58,333.85 400.75,377.50 400.90,360.70 401.06,308.53 401.19,340.53 401.32,395.98 401.46,374.54 401.58,358.46 401.68,379.36 401.80,398.05 401.90,381.34 401.99,357.23 402.09,350.04 402.16,366.60 402.23,375.45 402.30,364.78 402.36,364.86 402.40,379.15 402.45,397.47 402.48,376.50 402.50,334.48 402.52,288.65 402.53,264.01 402.54,258.15 402.54,168.42 402.55,179.19 402.57,210.32 402.60,280.91 402.63,356.07 402.68,369.31 402.73,320.39 402.79,318.61 402.85,361.47 402.93,428.52 403.01,384.13 403.10,381.27 403.20,423.28 403.30,386.66 403.40,379.36 403.53,410.49 403.65,402.03 403.77,409.41 403.92,418.48 404.06,396.79 404.20,351.34 404.37,384.74 404.52,361.65 404.67,379.65 404.86,418.86 405.02,403.15 405.19,376.12 405.39,421.79 405.56,357.67 405.77,395.48 405.95,395.95 406.13,386.26 406.35,389.63 406.54,401.55 406.73,427.16 406.95,396.06 407.15,399.24 407.34,371.82 407.57,382.26 407.77,419.13 407.96,408.28 408.19,399.81 408.38,370.87 408.58,368.90 408.80,416.89 408.99,409.26 409.18,395.24 409.40,407.14 409.59,377.88 409.77,396.85 409.98,399.04 410.16,381.06 410.34,408.87 410.54,391.05 410.70,390.44 410.86,385.30 411.05,398.53 411.20,394.79 411.35,358.17 411.52,342.08 411.66,415.70 411.79,381.25 411.94,379.37 412.06,384.23 412.18,392.54 412.31,388.77 412.41,396.05 412.51,406.12 412.61,364.64 412.70,360.64 412.77,372.73 412.85,349.29 412.91,326.89 412.97,335.29 413.03,355.09 413.07,319.10 413.10,259.67 413.13,232.17 413.14,228.10 413.16,235.36 413.16,122.48 413.16,133.67 413.17,178.48 413.19,238.63 413.22,307.77 413.26,363.85 413.30,348.17 413.35,321.83 413.41,325.82 413.47,363.24 413.54,419.20 413.63,390.97 413.72,375.02 413.81,386.93 413.92,384.45 414.03,382.40 414.14,393.69 414.27,410.53 414.39,381.46 414.52,362.60 414.68,343.24 414.82,370.05 414.96,364.07 415.14,370.01 415.29,390.63 415.45,363.85 415.64,385.57 415.81,378.11 415.98,385.03 416.18,395.87 416.36,408.66 416.54,350.89 416.76,341.30 416.94,370.27 417.13,389.59 417.35,407.72 417.55,393.00 417.74,369.88 417.97,400.56 418.16,384.49 418.36,381.88 418.58,374.49 418.78,362.93 418.97,393.52 419.20,393.52 419.39,394.68 419.62,386.39 419.81,355.84 420.00,377.51 420.21,381.42 420.40,386.04 420.58,406.78 420.78,375.23 420.96,411.46 421.13,365.85 421.32,354.31 421.49,386.14 421.65,400.32 421.83,355.59 421.98,392.44 422.12,406.18 422.28,404.03 422.42,409.75 422.54,412.32 422.69,379.14 422.80,374.27 422.91,389.67 423.03,344.08 423.13,324.35 423.22,349.26 423.32,379.99 423.40,369.31 423.46,354.93 423.54,362.16 423.59,388.08 423.64,396.92 423.69,354.25 423.72,315.90 423.75,283.54 423.77,251.37 423.78,231.40 423.78,224.66 423.78,164.16 423.79,184.67 423.81,224.23 423.84,297.29 423.87,373.71 423.91,389.04 423.97,323.37 424.02,293.51 424.09,294.94 424.17,328.23 424.24,359.07 424.34,364.18 424.43,366.63 424.53,376.81 424.65,373.29 424.76,357.41 424.88,344.30 425.02,386.48 425.15,390.38 425.28,346.69 425.44,379.05 425.59,418.75 425.74,386.41 425.92,385.41 426.07,395.30 426.24,407.36 426.43,420.21 426.60,394.77 426.78,389.90 426.98,355.09 427.17,336.15 427.35,405.88 427.57,400.02 427.75,376.14 427.94,425.97 428.17,338.87 428.36,405.84 428.56,373.39 428.78,369.74 428.98,423.09 429.17,361.29 429.40,398.51 429.60,355.67 429.79,358.29 430.02,390.15 430.21,373.53 430.40,408.49 430.62,383.87 430.80,379.42 430.99,375.64 431.20,368.48 431.38,395.60 431.55,373.52 431.75,401.40 431.92,392.19 432.08,336.56 432.27,350.19 432.42,369.81 432.57,386.60 432.74,407.98 432.88,407.07 433.04,363.19 433.17,377.78 433.29,387.64 433.43,327.74 433.54,347.84 433.64,382.07 433.75,368.89 433.84,354.77 433.93,369.48 434.02,362.50 434.09,307.83 434.15,282.58 434.22,334.71 434.26,400.08 434.30,286.33 434.34,163.15 434.37,104.84 434.39,87.83 434.40,93.27 434.40,330.21 434.41,332.05 434.42,340.58 434.43,348.63 434.46,351.64 434.50,348.08 434.54,345.99 434.58,352.23 434.65,373.00 434.71,396.82 434.78,409.00 434.87,397.03 434.95,376.80 435.04,359.74 435.15,367.94 435.25,390.03 435.36,398.20 435.50,367.73 435.62,396.52 435.75,407.65 435.90,387.55 436.04,382.54 436.18,395.94 436.36,382.52 436.51,394.02 436.67,420.33 436.86,395.40 437.03,391.44 437.23,400.56 437.40,364.35 437.58,372.76 437.79,412.27 437.97,399.66 438.16,389.15 438.38,394.27 438.57,370.34 438.76,390.90 438.98,422.33 439.18,385.73 439.37,394.93 439.60,399.80 439.80,390.38 439.99,412.48 440.22,378.42 440.41,373.48 440.61,398.71 440.83,409.24 441.02,408.67 441.21,391.95 441.43,392.62 441.61,378.75 441.79,402.44 442.00,414.79 442.18,386.39 442.35,384.71 442.54,371.16 442.71,364.85 442.87,379.95 443.05,409.34 443.20,393.83 443.34,356.71 443.51,383.53 443.64,380.03 443.77,387.75 443.91,403.65 444.03,409.81 444.14,412.66 444.26,410.81 444.36,405.59 444.45,400.20 444.55,379.15 444.63,364.85 444.70,371.24 444.77,389.97 444.83,375.81 444.88,349.21 444.93,334.36 444.96,338.57 444.99,352.48 445.01,359.21 445.02,357.55 445.03,355.05 445.03,263.15 445.04,250.36 445.06,246.15 445.08,274.12 445.11,337.80 445.16,391.03 445.21,326.16 445.26,291.77 445.33,323.98 445.40,387.59 445.48,377.50 445.57,351.06 445.66,377.16 445.76,383.12 445.88,372.87 445.99,401.13 446.10,411.64 446.24,382.97 446.37,357.79 446.50,352.28 446.66,365.35 446.81,312.94 446.96,369.56 447.13,408.34 447.29,387.74 447.46,396.21 447.65,404.29 447.82,351.20 447.99,361.91 448.20,344.57 448.38,346.33 448.56,378.55 448.78,389.43 448.97,399.45 449.16,413.19 449.38,383.33 449.57,388.50 449.77,372.85 450.00,357.36 450.19,408.72 450.39,422.18 450.62,404.60 450.81,368.44 451.04,341.25 451.23,395.69 451.42,422.97 451.64,420.15 451.83,375.17 452.02,360.01 452.23,387.80 452.42,424.67 452.59,421.15 452.80,365.14 452.97,359.11 453.14,404.99 453.33,381.22 453.49,359.05 453.64,393.13 453.82,358.41 453.97,336.35 454.11,393.90 454.26,374.96 454.39,369.27 454.52,368.63 454.65,393.44 454.76,385.02 454.87,372.75 454.98,363.14 455.08,326.97 455.16,329.07 455.25,395.11 455.32,348.05 455.39,289.15 455.45,292.19 455.50,343.09 455.54,354.60 455.58,283.82 455.61,232.61 455.63,197.04 455.65,166.06 455.65,154.18 455.65,308.28 455.66,300.02 455.68,290.56 455.70,286.36 455.74,298.46 455.78,328.76 455.82,375.35 455.88,396.04 455.94,344.65 456.01,308.16 456.10,311.83 456.18,352.46 456.28,414.77 456.38,395.73 456.48,374.68 456.61,381.13 456.72,401.52 456.84,414.30 456.99,390.10 457.13,378.70 457.26,378.76 457.43,391.47 457.58,376.89 457.73,339.04 457.92,365.47 458.08,393.72 458.24,388.52 458.44,425.39 458.62,403.30 458.79,370.99 459.00,390.99 459.19,357.66 459.37,356.58 459.59,376.47 459.78,423.82 459.97,383.09 460.20,407.19 460.39,378.95 460.59,353.70 460.81,380.55 461.01,348.59 461.21,400.01 461.43,390.36 461.63,406.94 461.82,393.87 462.05,325.68 462.24,394.26 462.42,378.44 462.64,397.55 462.83,412.77 463.01,383.95 463.22,364.13 463.39,389.77 463.56,411.10 463.76,378.60 463.93,384.02 464.09,357.98 464.27,351.94 464.42,370.98 464.59,374.17 464.73,401.20 464.86,422.92 465.01,385.53 465.14,387.98 465.26,392.26 465.39,371.68 465.49,368.47 465.59,405.17 465.70,396.68 465.78,369.26 465.86,365.07 465.95,370.10 466.01,362.38 466.07,322.10 466.12,259.72 466.17,228.77 466.20,233.43 466.23,273.71 466.25,307.94 466.27,314.24 466.27,306.80 466.27,329.99 466.28,354.45 466.30,342.20 466.32,295.79 466.35,266.51 466.40,274.54 466.44,308.78 466.50,342.77 466.57,348.97 466.63,340.77 466.71,340.88 466.80,348.21 466.89,357.76 466.99,374.62 467.11,378.03 467.21,365.46 467.33,359.60 467.47,388.16 467.59,414.05 467.73,415.53 467.89,408.50 468.03,392.19 468.18,395.04 468.35,369.31 468.51,382.87 468.70,407.76 468.87,395.87 469.04,378.26 469.24,403.06 469.42,370.32 469.60,407.65 469.81,400.98 470.00,398.71 470.18,400.28 470.40,374.28 470.60,393.05 470.79,391.36 471.01,409.23 471.21,410.83 471.40,367.79 471.63,393.26 471.83,388.63 472.02,384.93 472.25,401.50 472.44,378.36 472.64,367.80 472.86,412.95 473.05,411.89 473.23,414.74 473.45,399.30 473.63,345.00 473.81,365.21 474.02,373.88 474.19,391.19 474.36,390.82 474.55,415.11 474.71,378.27 474.86,369.80 475.04,369.90 475.19,383.16 475.33,356.72 475.49,338.89 475.62,392.49 475.74,383.11 475.88,368.48 475.99,397.50 476.10,419.00 476.21,402.33 476.31,388.10 476.39,395.57 476.48,397.02 476.56,383.82 476.62,364.76 476.69,332.02 476.74,306.61 476.79,305.01 476.83,340.24 476.85,398.12 476.88,348.04 476.89,277.71 476.90,242.03 476.90,342.16 476.90,339.01 476.92,333.63 476.95,328.46 476.98,330.28 477.01,341.97 477.07,369.20 477.12,396.82 477.18,400.62 477.26,383.06 477.33,386.97 477.41,417.73 477.51,376.57 477.61,337.34 477.71,367.89 477.84,391.19 477.95,360.69 478.07,379.29 478.22,404.90 478.35,389.63 478.49,362.94 478.65,349.71 478.80,400.34 478.95,369.50 479.14,401.89 479.30,398.87 479.46,368.91 479.66,378.72 479.83,408.76 480.01,366.96 480.22,407.20 480.40,392.82 480.59,364.95 480.81,368.84 481.00,408.83 481.19,421.19 481.41,427.49 481.61,402.79 481.80,348.37 482.03,375.26 482.22,390.30 482.45,424.02 482.65,415.96 482.84,384.67 483.07,377.60 483.26,364.56 483.45,404.06 483.67,395.84 483.86,429.80 484.04,395.90 484.25,387.56 484.43,414.30 484.61,369.35 484.81,370.53 484.98,402.03 485.14,402.59 485.33,413.80 485.49,419.78 485.64,397.35 485.81,378.14 485.95,372.26 486.09,370.27 486.24,386.99 486.36,386.61 486.48,399.57 486.61,409.14 486.72,408.49 486.82,411.37 486.93,424.78 487.02,403.66 487.09,398.95 487.18,406.47 487.24,403.30 487.30,397.60 487.36,401.58 487.41,414.53 487.44,417.89 487.48,389.88 487.50,363.52 487.51,342.75 487.52,331.11 487.52,294.52 487.53,275.30 487.54,242.50 487.56,228.70 487.59,246.77 487.64,312.96 487.68,384.12 487.73,364.76 487.80,312.49 487.87,316.39 487.95,372.19 488.04,412.39 488.12,383.92 488.23,374.74 488.33,378.52 488.44,392.24 488.57,425.09 488.69,415.16 488.82,375.75 488.97,359.19 489.11,375.20 489.25,361.40 489.42,377.18 489.57,416.09 489.73,400.91 489.92,349.12 490.08,386.39 490.25,373.18 490.46,380.39 490.63,386.53 490.81,397.55 491.02,360.24 491.21,383.27 491.40,399.10 491.62,379.98 491.81,364.23 492.00,379.88 492.23,399.58 492.42,390.77 492.62,369.73 492.85,352.14 493.04,370.31 493.24,385.80 493.46,371.23 493.66,385.33 493.85,371.90 494.07,380.75 494.26,383.66 494.45,404.56 494.66,390.17 494.85,367.00 495.03,391.06 495.23,357.60 495.40,393.30 495.57,418.95 495.77,388.79 495.93,378.92 496.11,402.97 496.26,322.07 496.41,342.54 496.57,420.87 496.71,393.44 496.84,383.22 496.99,395.32 497.11,417.33 497.22,378.58 497.34,362.58 497.44,390.40 497.54,410.39 497.64,401.10 497.72,407.84 497.79,390.26 497.87,378.06 497.93,375.57 497.98,357.05 498.03,331.15 498.07,327.47 498.09,341.64 498.12,347.31 498.13,323.69 498.14,302.38 498.14,229.85 498.15,264.86 498.16,321.43 498.19,353.58 498.22,322.72 498.25,295.50 498.30,295.58 498.36,318.09 498.41,350.35 498.49,390.22 498.56,396.73 498.64,365.73 498.75,350.13 498.84,363.45 498.94,394.68 499.06,404.75 499.18,383.75 499.30,384.32 499.44,369.69 499.57,362.76 499.71,368.71 499.87,389.92 500.02,411.83 500.17,405.19 500.35,401.71 500.52,361.97 500.71,379.14 500.88,379.61 501.05,388.87 501.26,399.67 501.43,407.91 501.62,388.74 501.83,389.03 502.02,381.92 502.21,389.98 502.43,416.73 502.62,384.91 502.82,420.40 503.05,394.21 503.24,378.41 503.44,395.61 503.66,352.78 503.86,394.22 504.05,415.79 504.28,403.61 504.47,379.90 504.66,348.92 504.88,383.17 505.07,409.79 505.26,414.80 505.47,388.73 505.65,379.03 505.83,349.66 506.03,369.16 506.20,374.86 506.36,401.09 506.55,375.12 506.71,391.56 506.86,384.06 507.03,374.43 507.17,360.37 507.31,363.54 507.46,386.21 507.59,344.69 507.71,366.64 507.84,391.66 507.95,383.51 508.05,389.04 508.16,389.97 508.25,396.24 508.33,413.89 508.41,403.45 508.48,378.46 508.55,362.39 508.60,364.33 508.65,379.42 508.69,405.95 508.72,406.47 508.74,377.70 508.76,346.16 508.76,331.67 508.76,269.61 508.77,252.91 508.78,233.82 508.81,234.50 508.84,282.85 508.88,359.42 508.92,389.46 508.98,322.01 509.04,306.61 509.10,335.47 509.19,380.91 509.27,376.10 509.35,350.97 509.46,320.63 509.56,336.18 509.67,401.76 509.80,349.41 509.92,353.43 510.04,403.58 510.19,379.68 510.33,367.79 510.47,406.68 510.64,365.37 510.79,335.38 510.95,404.90 511.14,365.83 511.30,366.15 511.47,403.03 511.67,385.05 511.85,392.10 512.03,374.81 512.24,360.47 512.42,399.23 512.61,396.22 512.83,372.77 513.02,422.08 513.22,384.15 513.44,417.18 513.64,407.08 513.83,376.05 514.06,381.12 514.25,416.02 514.48,388.31 514.68,396.65 514.87,392.61 515.10,374.54 515.29,422.95 515.48,394.92 515.69,373.85 515.88,410.30 516.06,389.11 516.27,401.94 516.45,409.80 516.62,424.48 516.82,369.80 516.99,373.90 517.15,394.60 517.33,353.17 517.48,369.15 517.63,424.14 517.80,366.95 517.93,358.69 518.07,370.27 518.21,338.17 518.33,366.89 518.45,402.43 518.57,360.51 518.67,337.39 518.77,353.20 518.87,410.19 518.95,383.22 519.02,347.15 519.10,342.43 519.16,364.13 519.22,400.09 519.27,366.53 519.31,310.71 519.34,280.18 519.36,286.56 519.38,311.08 519.39,328.80 519.39,327.82 519.39,323.85 519.40,315.02 519.43,306.04 519.46,309.83 519.49,329.13 519.54,365.18 519.59,387.98 519.66,376.24 519.73,359.83 519.80,355.90 519.89,362.43 519.98,380.19 520.07,405.50 520.18,355.09 520.29,340.28 520.40,361.13 520.54,375.37 520.67,387.96 520.80,392.67 520.95,385.72 521.10,356.53 521.24,351.39 521.42,400.15 521.57,367.77 521.73,360.84 521.93,404.81 522.09,358.04 522.27,366.82 522.47,384.41 522.65,359.12 522.83,341.90 523.05,384.17 523.23,398.03 523.42,384.50 523.65,376.23 523.84,382.75 524.03,370.93 524.26,358.04 524.45,390.90 524.65,394.58 524.88,396.14 525.07,385.96 525.27,356.15 525.49,372.59 525.69,385.46 525.88,396.72 526.10,398.75 526.29,390.77 526.47,392.52 526.69,407.93 526.87,413.83 527.04,365.62 527.24,364.61 527.41,364.75 527.58,372.09 527.77,382.72 527.93,412.20 528.11,396.14 528.25,390.71 528.40,416.00 528.56,391.13 528.69,395.18 528.81,408.31 528.95,376.08 529.07,367.08 529.18,382.11 529.30,388.67 529.39,354.65 529.48,351.78 529.57,393.86 529.65,398.86 529.72,381.19 529.79,403.29 529.84,390.12 529.88,330.73 529.93,283.30 529.96,278.39 529.98,295.13 530.00,301.26 530.01,289.27 530.01,327.05 530.02,321.90 530.03,314.94 530.05,314.33 530.08,329.43 530.11,351.20 530.16,362.78 530.22,356.52 530.27,359.46 530.34,377.43 530.42,363.48 530.50,327.52 530.58,327.10 530.69,382.96 530.79,410.20 530.90,366.23 531.03,340.26 531.14,362.75 531.27,405.85 531.42,376.55 531.55,384.77 531.69,400.32 531.86,368.14 532.01,397.85 532.20,408.64 532.36,347.05 532.52,341.78 532.72,388.23 532.89,378.98 533.06,376.86 533.27,411.72 533.46,388.42 533.64,388.96 533.86,383.67 534.05,373.71 534.24,407.10 534.46,382.32 534.65,401.04 534.85,378.11 535.08,400.21 535.27,399.61 535.47,324.40 535.70,396.61 535.89,377.44 536.08,399.60 536.31,408.04 536.50,367.39 536.69,393.65 536.91,390.10 537.10,386.76 537.28,376.09 537.49,380.63 537.67,354.40 537.84,375.43 538.04,417.02 538.20,406.45 538.37,380.57 538.55,381.80 538.70,333.76 538.85,348.51 539.02,359.55 539.16,376.53 539.29,378.57 539.44,377.35 539.56,369.34 539.67,345.18 539.80,364.16 539.90,416.58 540.00,372.82 540.10,360.64 540.18,359.92 540.27,365.20 540.34,391.60 540.40,403.21 540.46,339.64 540.51,294.94 540.55,281.79 540.58,308.85 540.61,345.75 540.62,351.24 540.63,326.56 540.63,369.62 540.64,372.12 540.65,377.89 540.67,382.64 540.70,388.34 540.74,396.00 540.78,394.14 540.83,383.88 540.90,377.92 540.96,384.38 541.03,399.02 541.12,412.86 541.21,409.41 541.30,403.06 541.41,399.17 541.52,397.62 541.63,409.25 541.77,383.02 541.89,373.74 542.02,388.58 542.18,390.73 542.32,398.45 542.46,390.98 542.64,382.64 542.79,402.20 542.95,371.62 543.14,399.55 543.31,422.78 543.48,405.26 543.69,381.92 543.87,396.36 544.05,376.09 544.26,386.03 544.45,409.19 544.64,423.48 544.86,411.72 545.05,401.44 545.25,368.56 545.47,364.28 545.67,399.81 545.89,411.63 546.09,414.05 546.29,383.50 546.51,387.93 546.71,394.77 546.90,383.91 547.12,400.53 547.31,410.52 547.50,408.87 547.72,412.19 547.90,403.06 548.08,364.91 548.29,382.97 548.46,393.25 548.63,393.47 548.83,407.40 548.99,411.56 549.15,392.64 549.33,388.89 549.47,377.24 549.62,374.92 549.78,398.34 549.91,355.24 550.04,351.68 550.18,397.51 550.30,418.12 550.40,421.94 550.52,422.02 550.62,401.60 550.71,390.07 550.81,387.98 550.88,381.62 550.95,373.67 551.02,362.20 551.08,347.12 551.12,337.04 551.17,345.74 551.20,367.75 551.22,376.25 551.24,346.86 551.25,321.68 551.26,247.52 551.26,252.27 551.27,266.02 551.29,290.99 551.32,335.95 551.35,382.42 551.40,398.88 551.45,368.33 551.51,349.73 551.58,351.89 551.65,375.25 551.73,402.95 551.83,383.50 551.92,377.80 552.02,394.61 552.14,407.81 552.25,399.16 552.37,379.87 552.51,388.71 552.64,384.07 552.78,383.84 552.94,396.06 553.09,363.57 553.24,370.66 553.42,348.06 553.58,362.14 553.74,382.81 553.93,374.21 554.11,393.11 554.28,376.06 554.49,350.83 554.67,387.17 554.85,392.84 555.07,356.83 555.26,392.55 555.45,387.89 555.67,400.52 555.87,394.52 556.06,349.30 556.29,377.17 556.49,401.90 556.68,368.16 556.91,418.45 557.10,352.30 557.30,374.79 557.52,405.49 557.71,378.34 557.90,407.84 558.12,359.84 558.31,368.61 558.49,421.53 558.70,376.16 558.88,410.17 559.06,389.35 559.26,336.04 559.42,382.97 559.61,398.89 559.77,384.86 559.92,410.47 560.10,390.00 560.24,361.47 560.38,390.49 560.53,396.48 560.66,382.65 560.78,388.77 560.92,396.67 561.03,395.07 561.13,395.94 561.24,416.22 561.33,406.70 561.42,378.08 561.50,372.46 561.57,381.00 561.64,346.95 561.70,290.60 561.75,271.67 561.79,292.10 561.82,348.04 561.85,349.29 561.86,285.67 561.88,224.36 561.88,354.41 561.88,361.64 561.89,356.53 561.91,312.34 561.94,269.48 561.98,257.61 562.02,287.90 562.07,343.84 562.13,400.96 562.19,384.20 562.26,362.48 562.35,354.17 562.44,361.09 562.53,361.45 562.64,343.75 562.75,349.49 562.86,374.51 562.99,409.86 563.11,404.78 563.24,380.59 563.40,377.42 563.54,416.66 563.71,369.47 563.86,392.32 564.01,394.02 564.20,374.75 564.36,365.34 564.53,394.59 564.73,401.29 564.90,402.79 565.08,390.31 565.29,376.58 565.48,371.81 565.66,412.57 565.88,401.44 566.07,404.04 566.27,392.01 566.49,371.18 566.69,373.92 566.88,352.98 567.11,412.93 567.30,392.21 567.50,391.67 567.73,368.76 567.92,344.29 568.11,384.47 568.34,400.82 568.53,417.63 568.72,373.11 568.93,354.80 569.12,382.73 569.30,376.81 569.50,360.98 569.68,396.83 569.85,386.95 570.04,364.84 570.21,388.91 570.37,362.53 570.55,329.95 570.70,358.36 570.84,359.00 571.00,392.19 571.14,399.04 571.26,410.74 571.41,402.93 571.52,395.52 571.63,400.26 571.75,407.59 571.85,385.77 571.94,377.21 572.04,376.32 572.12,388.69 572.20,400.59 572.26,371.78 572.31,334.88 572.37,306.50 572.41,300.54 572.44,307.28 572.47,315.95 572.49,313.63 572.50,305.96 572.50,354.94 572.50,357.90 572.51,362.42 572.54,355.40 572.56,341.57 572.59,332.72 572.64,336.20 572.69,349.88 572.74,366.28 572.82,366.82 572.89,345.59 572.96,326.01 573.06,325.35 573.15,347.46 573.25,380.50 573.37,386.26 573.48,358.17 573.60,338.89 573.74,368.70 573.87,413.65 574.00,393.44 574.16,415.94 574.31,388.13 574.46,387.80 574.64,386.40 574.79,381.32 574.96,359.82 575.15,383.35 575.32,398.26 575.50,408.46 575.70,398.60 575.89,390.08 576.07,384.40 576.29,383.95 576.47,384.65 576.66,411.80 576.89,391.41 577.08,384.32 577.31,397.09 577.50,399.22 577.70,394.80 577.93,381.02 578.12,383.93 578.32,406.08 578.54,413.13 578.74,406.88 578.93,370.69 579.15,382.15 579.34,415.78 579.52,387.94 579.74,406.12 579.92,362.00 580.10,352.44 580.30,387.69 580.47,412.74 580.64,393.96 580.83,408.09 580.99,359.83 581.14,379.06 581.32,387.41 581.46,392.21 581.60,399.73 581.76,399.23 581.89,397.39 582.01,385.35 582.15,385.16 582.26,382.35 582.36,369.64 582.47,399.25 582.56,380.01 582.65,359.83 582.74,362.13 582.81,372.26 582.87,369.64 582.94,326.33 582.98,282.70 583.02,256.20 583.06,255.35 583.09,270.50 583.11,281.96 583.12,280.83 583.12,326.02 583.13,321.51 583.14,298.69 583.15,278.35 583.18,280.41 583.22,325.77 583.26,388.58 583.31,396.50 583.37,370.56 583.43,378.67 583.51,399.06 583.59,382.67 583.67,368.39 583.77,392.38 583.87,411.17 583.97,367.89 584.10,338.96 584.22,354.75 584.34,394.88 584.49,383.41 584.62,401.46 584.76,404.37 584.93,368.36 585.08,406.37 585.23,340.60 585.42,383.32 585.58,399.09 585.75,375.06 585.95,375.89 586.12,388.50 586.30,323.72 586.51,388.26 586.69,396.06 586.88,398.03 587.10,408.16 587.29,376.32 587.48,385.69 587.70,390.64 587.90,400.98 588.09,378.35 588.32,369.64 588.52,395.00 588.71,402.11 588.94,396.36 589.13,408.62 589.33,364.90 589.55,356.65 589.74,408.83 589.93,416.41 590.15,421.67 590.33,393.34 590.51,344.56 590.72,344.56 590.90,379.68 591.10,421.36 591.26,402.19 591.43,408.08 591.61,343.29 591.77,357.18 591.92,405.09 592.09,360.32 592.23,329.72 592.36,365.01 592.51,400.76 592.63,360.46 592.75,375.00 592.88,380.80 592.98,382.92 593.08,366.25 593.19,368.30 593.27,401.92 593.35,374.60 593.43,323.75 593.49,321.51 593.55,358.10 593.61,406.77 593.65,352.44 593.68,292.65 593.71,247.45 593.73,229.89 593.74,223.79 593.75,222.35 593.75,340.32 593.76,364.72 593.78,377.32 593.80,358.91 593.83,347.79 593.88,360.49 593.93,382.73 593.98,391.24 594.05,384.85 594.12,387.23 594.20,389.62 594.29,385.70 594.38,397.67 594.48,417.09 594.60,410.63 594.71,405.44 594.82,429.70 594.96,386.69 595.09,374.56 595.22,395.86 595.38,377.96 595.53,337.55 595.70,372.71 595.86,403.39 596.01,397.18 596.20,391.41 596.37,398.63 596.54,334.51 596.74,414.18 596.92,380.71 597.10,381.44 597.31,412.55 597.50,356.61 597.69,350.83 597.91,366.76 598.10,374.12 598.29,401.57 598.52,382.44 598.72,379.80 598.91,373.24 599.14,367.61 599.34,382.19 599.53,335.43 599.76,373.35 599.95,413.25 600.14,407.66 600.36,414.44 600.55,353.99 600.74,328.58 600.95,376.33 601.14,375.91 601.31,392.47 601.52,403.18 601.69,399.76 601.86,377.11 602.05,358.11 602.21,341.64 602.36,382.11 602.54,368.10 602.69,333.81 602.83,373.40 602.98,428.90 603.11,397.21 603.24,374.16 603.37,374.92 603.48,391.90 603.59,379.37 603.70,366.91 603.80,395.18 603.89,374.65 603.97,335.77 604.04,324.43 604.12,348.29 604.17,367.45 604.22,339.19 604.27,293.30 604.30,275.42 604.33,276.78 604.35,281.95 604.37,277.97 604.37,273.77 604.37,350.10 604.38,351.87 604.40,340.68 604.42,315.39 604.46,301.54 604.50,306.19 604.55,335.20 604.60,370.18 604.66,397.24 604.74,400.76 604.82,401.18 604.90,399.23 605.00,391.53 605.10,393.13 605.20,373.51 605.33,363.89 605.44,373.32 605.56,379.92 605.71,363.69 605.85,352.47 605.98,367.34 606.15,387.68 606.30,429.13 606.45,418.57 606.64,415.83 606.80,382.76 606.96,386.27 607.16,399.49 607.34,405.78 607.51,383.33 607.72,402.07 607.91,384.34 608.09,425.18 608.31,401.24 608.50,394.49 608.69,399.62 608.92,360.76 609.11,385.77 609.34,414.72 609.53,419.77 609.73,413.68 609.96,388.07 610.15,369.57 610.35,367.63 610.57,426.17 610.77,407.89 610.96,405.82 611.18,385.22 611.36,370.36 611.55,398.48 611.76,377.87 611.94,388.42 612.11,358.19 612.31,395.87 612.48,401.37 612.65,403.81 612.83,382.79 612.99,392.69 613.14,371.70 613.31,398.52 613.45,376.13 613.58,388.57 613.73,395.89 613.86,379.48 613.98,364.70 614.11,350.19 614.21,345.33 614.31,372.04 614.42,412.86 614.50,411.02 614.58,403.81 614.67,395.88 614.73,390.00 614.79,383.83 614.84,374.79 614.89,365.92 614.92,357.36 614.95,348.84 614.97,343.07 614.99,338.95 614.99,336.94 614.99,299.29 615.00,326.74 615.02,379.45 615.04,415.79 615.08,387.31 615.12,375.93 615.16,390.23 615.23,413.12 615.29,382.94 615.35,361.70 615.44,367.39 615.52,387.89 615.61,410.64 615.72,415.99 615.83,387.09 615.93,369.44 616.07,388.56 616.19,396.18 616.31,330.46 616.47,378.66 616.61,393.97 616.75,380.07 616.92,378.90 617.07,374.90 617.23,389.32 617.42,353.42 617.59,399.76 617.76,388.13 617.96,401.56 618.14,406.63 618.32,380.87 618.53,371.07 618.72,396.06 618.90,376.71 619.12,420.63 619.32,399.42 619.51,368.02 619.73,377.87 619.93,360.26 620.12,384.33 620.35,395.63 620.55,394.34 620.74,398.90 620.97,383.47 621.16,399.94 621.36,384.23 621.58,391.45 621.77,424.88 621.95,400.97 622.17,412.91 622.35,373.31 622.56,361.73 622.74,379.18 622.91,416.41 623.10,413.56 623.27,412.73 623.43,370.64 623.61,370.80 623.76,384.52 623.91,400.33 624.07,395.43 624.21,407.91 624.34,409.15 624.48,372.41 624.60,404.20 624.71,377.84 624.83,348.69 624.93,350.50 625.03,368.53 625.13,401.36 625.20,426.70 625.28,399.18 625.35,366.20 625.41,349.21 625.46,347.72 625.51,365.18 625.55,388.69 625.57,400.61 625.60,381.26 625.61,361.60 625.62,351.82 625.62,295.46 625.62,294.60 625.64,287.81 625.67,275.66 625.70,274.30 625.73,291.55 625.79,337.31 625.84,389.93 625.90,409.69 625.98,365.46 626.05,346.84 626.13,351.59 626.23,373.35 626.33,374.40 626.43,371.98 626.56,392.54 626.67,394.36 626.79,368.40 626.94,393.36 627.07,421.20 627.23,371.85 627.37,341.13 627.52,356.45 627.70,372.99 627.86,381.05 628.02,407.31 628.21,410.12 628.38,362.72 628.55,354.65 628.76,367.34 628.94,388.98 629.12,402.87 629.34,394.41 629.53,360.05 629.72,349.51 629.94,401.65 630.13,366.20 630.33,398.66 630.55,378.45 630.75,352.04 630.94,374.56 631.17,374.03 631.37,376.76 631.56,377.46 631.79,383.73 631.98,387.87 632.17,367.78 632.39,393.77 632.58,390.10 632.76,369.43 632.97,372.53 633.15,371.99 633.33,369.62 633.53,409.49 633.70,371.31 633.86,378.44 634.05,363.27 634.21,366.87 634.36,370.17 634.53,384.48 634.67,390.32 634.81,397.43 634.96,380.11 635.08,383.48 635.20,403.10 635.33,378.97 635.44,360.61 635.56,348.14 635.65,359.67 635.74,367.91 635.83,353.21 635.90,351.52 635.96,362.80 636.03,354.66 636.08,319.20 636.13,286.35 636.17,273.19 636.20,286.03 636.22,312.80 636.23,344.18 636.24,357.73 636.24,350.71 636.25,383.79 636.26,388.93 636.28,337.31 636.32,288.01 636.36,278.38 636.40,302.05 636.46,358.35 636.52,406.30 636.59,387.93 636.67,348.83 636.76,336.16 636.84,349.74 636.95,385.43 637.05,361.35 637.16,335.87 637.29,363.70 637.41,399.68 637.54,396.39 637.69,391.44 637.83,405.73 637.97,426.58 638.14,394.44 638.29,407.22 638.45,412.86 638.64,379.69 638.81,367.73 638.97,366.32 639.18,399.77 639.35,399.69 639.53,408.31 639.74,411.32 639.93,378.02 640.12,385.57 640.34,360.76 640.53,410.88 640.75,405.57 640.95,389.49 641.14,412.96 641.37,371.21 641.57,398.77 641.76,388.75 641.99,377.94 642.18,387.83 642.38,417.21 642.60,405.50 642.79,391.88 642.98,392.77 643.20,339.90 643.38,388.13 643.57,392.50 643.78,394.27 643.95,381.68 644.12,390.18 644.32,382.64 644.49,374.73 644.65,392.66 644.83,394.59 644.98,360.45 645.13,369.55 645.29,374.23 645.43,403.04 645.56,409.95 645.71,407.27 645.83,403.96 645.94,391.55 646.06,402.66 646.16,409.59 646.26,379.59 646.36,388.95 646.44,410.12 646.51,372.90 646.59,336.98 646.65,318.00 646.70,306.24 646.75,302.10 646.79,306.65 646.81,312.60 646.84,309.09 646.85,296.86 646.86,287.05 646.86,223.22 646.87,235.29 646.89,258.55 646.91,280.87 646.94,298.39 646.98,295.12 647.02,283.62 647.08,298.45 647.14,361.63 647.21,375.31 647.28,327.95 647.38,335.44 647.47,381.98 647.56,375.38 647.68,358.06 647.78,367.48 647.90,382.76 648.04,420.09 648.16,387.70 648.29,409.13 648.45,386.48 648.59,391.52 648.74,358.92 648.92,348.82 649.07,374.70 649.24,375.20 649.43,366.99 649.60,392.42 649.77,415.51 649.98,393.85 650.15,399.10 650.34,360.53 650.55,374.45 650.74,400.84 650.93,393.60 651.15,419.56 651.34,376.40 651.54,366.38 651.77,363.68 651.96,385.05 652.16,403.21 652.38,399.50 652.58,410.32 652.77,385.18 653.00,412.47 653.19,386.59 653.38,361.07 653.60,426.05 653.79,399.11 653.98,413.09 654.19,397.29 654.37,349.57 654.58,402.76 654.75,367.84 654.92,371.80 655.11,413.48 655.27,390.48 655.43,366.26 655.60,401.77 655.75,372.27 655.89,387.07 656.05,423.99 656.18,397.60 656.31,392.25 656.45,377.14 656.56,343.58 656.67,359.33 656.79,402.53 656.88,374.37 656.97,352.18 657.06,358.85 657.13,376.71 657.20,388.21 657.27,391.43 657.32,378.55 657.37,357.21 657.41,353.84 657.44,385.62 657.46,407.79 657.48,335.52 657.48,295.63 657.48,203.24 657.49,221.13 657.50,254.44 657.53,298.04 657.56,339.18 657.60,337.07 657.64,314.99 657.70,307.72 657.76,329.65 657.82,363.62 657.91,368.90 657.99,349.97 658.07,343.40 658.18,363.57 658.28,396.26 658.39,379.25 658.52,401.54 658.64,402.69 658.78,383.03 658.92,378.76 659.05,377.44 659.22,365.45 659.36,357.37 659.51,363.97 659.70,315.64 659.86,346.26 660.02,408.61 660.22,383.09 660.39,420.14 660.57,385.79 660.78,336.69 660.96,409.08 661.14,370.07 661.36,365.61 661.55,378.67 661.74,378.40 661.97,407.26 662.16,396.20 662.36,389.11 662.58,350.82 662.78,343.92 662.97,356.13 663.20,426.89 663.40,416.25 663.59,412.33 663.82,359.38 664.01,346.19 664.20,404.76 664.41,384.16 664.60,430.38 664.78,374.40 664.99,373.97 665.17,411.12 665.34,388.54 665.54,381.06 665.71,392.26 665.87,351.78 666.05,402.05 666.20,427.02 666.35,421.51 666.52,425.92 666.65,411.83 666.79,368.00 666.93,380.09 667.05,388.82 667.17,358.30 667.29,387.59 667.39,426.70 667.50,395.03 667.59,361.07 667.67,350.33 667.76,378.42 667.82,424.51 667.88,384.97 667.94,334.21 667.99,311.87 668.03,311.70 668.06,333.66 668.08,360.80 668.10,382.35 668.11,390.73 668.11,267.33 668.11,252.70 668.13,222.97 668.15,209.41 668.18,226.03 668.22,284.14 668.26,337.25 668.31,343.51 668.38,319.65 668.45,315.02 668.52,323.77 668.61,344.02 668.70,372.14 668.79,381.53 668.90,340.20 669.01,334.05 669.12,371.07 669.26,407.67 669.39,401.05 669.52,381.23 669.67,376.24 669.82,390.74 669.96,375.98 670.14,394.11 670.29,386.58 670.45,388.91 670.65,380.65 670.81,361.68 670.99,363.24 671.19,401.28 671.37,395.83 671.55,397.01 671.77,403.19 671.95,379.83 672.18,371.10 672.37,377.82 672.56,381.54 672.78,388.10 672.98,396.26 673.17,373.71 673.40,396.61 673.60,392.90 673.79,378.05 674.02,382.41 674.21,363.91 674.41,388.04 674.63,383.49 674.82,392.06 675.01,392.19 675.22,346.82 675.41,345.65 675.59,387.25 675.79,384.37 675.97,357.34 676.13,385.44 676.33,385.17 676.49,372.77 676.65,382.80 676.83,380.14 676.97,336.55 677.12,331.56 677.28,397.66 677.41,356.58 677.53,375.49 677.67,381.89 677.79,370.82 677.90,350.00 678.02,318.03 678.11,317.08 678.20,352.72 678.29,382.39 678.37,338.55 678.44,312.56 678.51,317.98 678.56,336.25 678.60,336.84 678.65,307.01 678.68,288.37 678.70,289.91 678.72,304.87 678.73,313.22 678.73,317.43 678.74,326.15 678.75,341.16 678.77,355.66 678.80,360.73 678.83,365.20 678.88,378.07 678.94,390.77 678.99,388.75 679.07,380.17 679.14,394.07 679.22,425.47 679.32,387.56 679.41,362.31 679.51,366.91 679.63,417.72 679.75,379.51 679.86,343.34 680.01,352.70 680.14,399.29 680.27,382.09 680.44,363.24 680.58,374.54 680.73,412.43 680.92,408.28 681.08,381.90 681.24,385.84 681.44,385.77 681.61,373.56 681.78,390.93 681.99,405.47 682.18,406.04 682.36,366.10 682.58,420.61 682.77,385.09 682.96,382.78 683.18,399.00 683.37,368.69 683.57,380.04 683.80,413.96 683.99,386.21 684.19,389.82 684.42,392.20 684.61,387.07 684.80,427.50 685.03,389.57 685.22,360.17 685.41,421.00 685.63,383.94 685.82,397.93 686.03,397.34 686.21,360.97 686.39,370.80 686.59,389.06 686.76,401.33 686.92,408.36 687.11,389.51 687.27,373.36 687.42,394.76 687.60,381.17 687.74,363.79 687.88,382.83 688.03,398.29 688.16,383.66 688.28,360.89 688.41,365.79 688.52,413.73 688.62,393.68 688.73,382.40 688.82,404.19 688.90,410.72 688.99,395.33 689.06,390.56 689.12,390.42 689.18,389.18 689.23,386.24 689.27,383.45 689.30,380.80 689.33,376.72 689.34,370.17 689.35,363.65 689.35,308.40 689.36,315.60 689.37,329.63 689.39,332.05 689.42,327.78 689.46,335.52 689.50,363.34 689.55,405.05 689.62,403.57 689.68,379.63 689.75,383.95 689.84,399.69 689.93,373.22 690.02,367.18 690.13,392.60 690.24,404.47 690.35,386.76 690.49,353.34 690.61,378.81 690.76,370.41 690.90,347.67 691.04,379.19 691.21,378.82 691.36,365.06 691.51,352.95 691.70,397.72 691.86,357.56 692.03,384.89 692.23,400.49 692.41,362.72 692.59,361.25 692.80,395.25 692.98,367.39 693.17,414.72 693.39,386.05 693.58,372.18 693.77,391.88 694.00,359.10 694.19,383.59 694.39,359.15 694.62,367.73 694.81,394.83 695.01,399.20 695.23,416.96 695.43,364.21 695.62,373.35 695.84,387.72 696.03,404.37 696.22,407.88 696.44,402.97 696.62,384.33 696.80,366.68 697.01,409.61 697.18,396.47 697.35,390.35 697.55,391.61 697.71,399.45 697.87,380.08 698.05,395.19 698.19,412.25 698.34,404.46 698.50,414.64 698.63,412.53 698.76,395.59 698.90,366.03 699.02,363.50 699.14,368.61 699.24,356.62 699.34,359.74 699.44,378.48 699.53,391.77 699.60,393.00 699.68,397.72 699.74,406.83 699.80,395.66 699.85,372.04 699.89,365.12 699.92,373.23 699.95,380.09 699.96,363.37 699.97,343.59 699.98,220.67 699.98,218.72 699.99,212.11 700.01,204.65 700.04,214.50 700.07,250.81 700.12,317.51 700.17,351.56 700.23,329.45 700.30,310.13 700.37,326.00 700.45,358.57 700.55,388.23 700.64,384.31 700.74,365.82 700.86,381.24 700.97,381.56 701.09,348.44 701.23,381.34 701.36,416.31 701.50,402.00 701.66,400.00 701.81,397.32 701.96,376.26 702.14,343.50 702.30,383.31 702.46,376.34 702.65,399.83 702.83,400.54 703.00,372.98 703.21,412.68 703.39,368.13 703.61,390.05 703.79,378.18 703.98,319.49 704.20,374.06 704.39,416.87 704.59,407.71 704.81,399.13 705.01,323.12 705.21,347.50 705.43,371.78 705.63,376.40 705.82,399.12 706.05,379.61 706.24,408.88 706.43,368.08 706.66,342.94 706.84,391.28 707.03,349.99 707.24,359.94 707.42,403.57 707.60,386.43 707.80,392.66 707.98,396.88 708.14,331.08 708.33,403.40 708.49,373.27 708.64,387.07 708.82,404.10 708.96,381.89 709.10,357.04 709.25,336.93 709.38,363.66 709.50,363.86 709.64,392.02 709.75,413.94 709.85,408.45 709.96,402.97 710.05,418.85 710.14,397.27 710.22,360.40 710.29,359.07 710.36,358.02 710.42,309.58 710.47,255.91 710.51,217.85 710.54,202.73 710.57,204.55 710.59,202.17 710.60,190.55 710.60,205.03 710.60,218.67 710.61,253.52 710.63,304.57 710.66,373.93 710.70,419.69 710.74,383.37 710.79,350.72 710.85,344.35 710.91,355.58 711.00,385.05 711.07,409.42 711.16,414.82 711.26,417.64 711.36,408.55 711.47,392.05 711.60,376.69 711.71,384.65 711.84,388.86 711.99,372.81 712.12,360.56 712.26,364.04 712.43,348.92 712.58,405.23 712.73,417.51 712.92,419.57 713.08,421.20 713.25,392.13 713.45,337.18 713.62,389.31 713.80,391.24 714.01,408.44 714.20,430.19 714.38,392.59 714.60,389.98 714.79,391.07 714.99,397.77 715.21,378.42 715.41,394.82 715.60,388.13 715.83,420.44 716.02,418.29 716.22,384.87 716.45,374.63 716.64,369.03 716.83,412.36 717.06,415.83 717.25,431.71 717.47,386.40 717.65,351.19 717.84,398.83 718.05,347.62 718.22,365.16 718.40,392.04 718.60,410.42 718.77,426.04 718.93,386.95 719.11,366.41 719.27,380.51 719.42,346.10 719.58,350.58 719.72,376.09 719.86,400.26 720.01,391.07 720.13,377.83 720.24,375.28 720.37,415.10 720.47,386.37 720.57,377.03 720.68,419.19 720.76,382.43 720.84,359.53 720.92,375.63 720.98,395.48 721.03,365.34 721.09,320.87 721.13,305.23 721.16,313.83 721.19,338.52 721.21,347.42 721.22,339.66 721.22,294.35 721.22,298.70 721.23,312.04 721.26,333.66 721.28,349.75 721.31,354.44 721.36,346.04 721.41,342.41 721.46,353.96 721.54,381.52 721.61,395.23 721.68,401.35 721.78,405.70 721.87,375.76 721.97,362.04 722.09,371.71 722.20,379.18 722.34,373.75 722.46,363.80 722.59,351.84 722.74,367.05 722.88,341.75 723.03,349.25 723.20,384.54 723.36,358.51 723.51,368.18 723.70,384.88 723.87,393.90 724.04,373.44 724.25,398.42 724.42,391.31 724.61,368.37 724.82,355.47 725.01,406.44 725.19,384.65 725.42,411.69 725.61,394.15 725.80,341.50 726.03,390.97 726.22,402.79 726.42,410.54 726.65,398.32 726.84,359.31 727.04,390.23 727.26,423.18 727.46,423.01 727.65,411.29 727.87,321.37 728.06,348.83 728.24,420.28 728.46,407.01 728.64,400.92 728.82,398.01 729.02,342.93 729.19,394.50 729.36,372.23 729.55,363.40 729.71,387.47 729.86,421.52 730.04,409.92 730.18,404.41 730.32,357.00 730.48,356.76 730.61,378.88 730.75,376.71 730.87,381.40 730.98,409.85 731.10,403.34 731.19,388.87 731.28,393.62 731.38,413.48 731.46,401.65 731.53,378.04 731.60,365.02 731.66,373.39 731.70,394.77 731.75,392.35 731.78,355.39 731.81,317.89 731.83,285.13 731.84,269.06 731.84,264.31 731.85,303.80 731.86,325.23 731.87,346.66 731.90,346.44 731.94,328.63 731.98,314.52 732.03,313.35 732.09,324.11 732.15,342.30 732.23,367.28 732.31,379.76 732.39,375.45 732.49,366.63 732.59,368.13 732.69,375.99 732.82,383.90 732.94,390.03 733.06,369.78 733.21,350.63 733.34,400.27 733.48,405.57 733.65,394.43 733.80,399.88 733.95,395.18 734.14,363.47 734.30,352.25 734.47,394.74 734.67,414.41 734.84,408.83 735.02,388.70 735.23,359.93 735.41,365.82 735.63,392.75 735.82,416.32 736.01,361.74 736.23,387.24 736.42,346.13 736.62,368.49 736.85,387.75 737.04,392.89 737.24,396.58 737.46,376.42 737.66,374.38 737.85,360.63 738.08,403.26 738.27,405.80 738.46,380.42 738.68,398.44 738.87,365.95 739.05,376.16 739.26,343.66 739.44,369.79 739.62,394.84 739.82,409.97 739.98,403.10 740.15,421.58 740.33,361.24 740.49,353.49 740.64,333.36 740.81,363.85 740.95,385.31 741.08,381.29 741.23,365.18 741.35,358.44 741.47,382.86 741.60,415.05 741.70,412.37 741.80,396.64 741.91,378.72 741.99,368.09 742.07,361.44 742.15,355.76 742.21,358.42 742.27,372.16 742.33,373.09 742.37,336.83 742.40,294.75 742.43,260.65 742.45,246.84 742.46,241.99 742.47,241.45 742.47,319.38 742.48,351.97 742.50,385.47 742.52,390.91 742.56,372.42 742.60,371.05 742.65,386.97 742.71,407.93 742.77,399.35 742.84,385.30 742.93,381.41 743.01,399.47 743.10,419.33 743.21,377.51 743.32,371.79 743.43,386.94 743.56,412.16 743.68,380.54 743.81,388.56 743.97,416.22 744.10,415.95 744.25,389.68 744.42,386.10 744.58,373.78 744.73,399.27 744.92,416.42 745.09,412.21 745.26,390.39 745.46,403.11 745.64,396.23 745.82,405.90 746.03,410.34 746.22,385.74 746.41,387.22 746.63,407.59 746.82,394.87 747.02,380.59 747.24,376.48 747.44,381.66 747.63,409.58 747.86,393.88 748.06,381.36 748.25,372.70 748.48,376.37 748.67,405.92 748.86,406.24 749.08,378.87 749.27,387.83 749.49,360.45 749.67,376.39 749.86,386.38 750.06,410.47 750.24,397.04 750.41,396.62 750.61,373.14 750.77,355.18 750.93,372.09 751.11,413.12 751.26,415.91 751.41,402.56 751.57,378.60 751.70,373.59 751.83,331.02 751.98,355.21 752.09,406.58 752.20,401.90 752.33,374.12 752.42,371.76 752.52,400.16 752.61,412.81 752.69,384.07 752.76,372.23 752.84,379.03 752.89,391.87 752.94,389.94 752.99,368.33 753.02,352.14 753.05,342.95 753.07,337.76 753.09,335.10 753.09,333.90 753.09,312.81 753.10,318.83 753.12,312.86 753.14,290.64 753.18,279.59 753.22,291.42 753.27,336.94 753.32,390.47 753.38,401.89 753.46,365.55 753.54,364.00 753.62,392.96 753.72,418.99 753.82,393.24 753.94,386.93 754.05,408.97 754.16,417.01 754.31,384.72 754.43,355.77 754.57,370.93 754.73,351.37 754.87,355.88 755.02,378.86 755.20,399.71 755.36,397.43 755.52,372.77 755.71,391.80 755.88,354.87 756.06,365.69 756.26,399.62 756.44,414.63 756.63,409.60 756.84,387.83 757.03,380.75 757.22,378.29 757.44,385.62 757.64,374.98 757.83,388.48 758.06,387.54 758.25,415.40 758.45,412.12 758.68,376.17 758.87,350.78 759.07,348.30 759.29,412.50 759.49,416.28 759.68,407.29 759.90,366.92 760.08,332.66 760.27,364.15 760.48,383.67 760.66,402.25 760.83,412.33 761.03,375.31 761.20,354.11 761.37,348.40 761.55,360.10 761.71,381.75 761.86,387.92 762.03,413.23 762.17,392.58 762.30,407.49 762.45,412.85 762.58,401.55 762.72,391.33 762.83,389.57 762.93,397.18 763.05,353.38 763.14,310.19 763.22,311.47 763.31,344.90 763.39,363.10 763.45,360.77 763.52,351.65 763.57,349.35 763.61,357.61 763.65,384.71 763.67,419.29 763.69,402.54 763.71,364.25 763.71,350.80 763.71,375.70 763.72,380.41 763.74,370.20 763.76,353.31 763.80,349.53 763.84,365.90 763.88,378.06 763.95,350.09 764.01,329.93 764.07,341.17 764.16,383.13 764.24,388.07 764.33,365.90 764.44,367.33 764.55,386.58 764.65,405.60 764.79,421.77 764.91,421.65 765.03,415.48 765.19,368.36 765.33,345.88 765.47,367.12 765.64,373.57 765.79,375.71 765.95,389.30 766.14,382.22 766.31,381.17 766.48,411.68 766.68,418.42 766.86,406.64 767.07,378.73 767.25,351.40 767.44,336.76 767.65,419.12 767.84,375.36 768.04,385.26 768.26,386.77 768.45,361.31 768.65,404.68 768.88,339.85 769.07,367.37 769.27,394.69 769.50,392.38 769.69,410.82 769.88,367.95 770.11,369.85 770.30,365.92 770.49,353.13 770.71,400.56 770.89,407.60 771.07,367.63 771.28,398.40 771.46,381.05 771.63,386.47 771.82,401.23 771.99,387.70 772.15,377.36 772.33,380.49 772.48,371.52 772.63,406.09 772.79,400.89 772.93,400.36 773.06,416.04 773.20,409.84 773.32,413.36 773.43,415.45 773.55,388.65 773.65,359.91 773.75,360.47 773.85,364.15 773.92,334.09 774.00,305.67 774.07,297.08 774.13,306.61 774.18,304.67 774.23,269.68 774.27,240.49 774.30,235.09 774.32,252.41 774.33,273.98 774.34,285.96 774.34,139.74 774.34,151.36 774.36,180.45 774.39,223.49 774.42,285.79 774.46,358.99 774.51,341.00 774.56,288.09 774.63,268.63 774.70,298.97 774.77,353.94 774.87,403.18 774.95,383.86 775.05,364.48 775.17,370.07 775.28,373.78 775.39,378.19 775.53,386.52 775.66,398.81 775.79,421.53 775.95,418.51 776.09,403.55 776.24,378.97 776.42,372.09 776.58,364.01 776.74,375.49 776.93,405.66 777.10,403.08 777.27,386.30 777.48,397.92 777.66,374.53 777.84,402.18 778.06,419.57 778.25,385.24 778.44,365.58 778.66,359.72 778.85,370.00 779.05,416.46 779.27,415.21 779.47,395.60 779.66,365.08 779.89,380.01 780.09,408.09 780.28,395.98 780.51,383.50 780.70,357.12 780.92,388.47 781.11,408.36 781.30,372.92 781.51,356.68 781.69,330.44 781.87,357.28 782.08,405.82 782.25,406.19 782.42,398.60 782.61,370.33 782.77,341.32 782.93,354.50 783.10,380.79 783.25,353.32 783.39,340.82 783.55,386.89 783.68,357.64 783.80,334.77 783.94,373.23 784.05,403.49 784.16,413.00 784.28,391.34 784.37,375.52 784.46,367.20 784.55,369.28 784.62,381.43 784.69,389.61 784.75,360.69 784.80,320.75 784.85,288.96 784.89,275.99 784.92,285.52 784.94,302.80 784.95,314.66 784.96,316.02 784.96,259.24 784.97,278.96 784.98,308.98 785.00,342.09 785.04,370.32 785.08,379.05 785.12,381.58 785.18,386.51 785.24,388.90 785.31,384.89 785.39,381.46 785.48,382.22 785.58,389.20 785.67,402.90 785.77,369.19 785.90,373.53 786.01,395.62 786.13,385.20 786.28,395.50 786.41,401.08 786.55,379.87 786.71,367.44 786.86,356.56 787.01,381.49 787.20,380.33 787.36,387.18 787.53,413.07 787.72,404.48 787.90,384.58 788.07,407.20 788.28,373.86 788.46,381.98 788.65,398.25 788.87,388.35 789.06,402.13 789.25,410.80 789.47,406.72 789.67,387.07 789.86,360.88 790.09,365.82 790.29,411.95 790.48,414.01 790.71,405.00 790.90,379.79 791.10,343.72 791.32,394.16 791.51,415.76 791.70,427.48 791.92,399.29 792.10,370.39 792.29,388.25 792.50,391.67 792.67,396.51 792.85,409.83 793.04,402.52 793.21,393.27 793.37,397.83 793.55,393.82 793.70,404.78 793.85,401.35 794.01,367.78 794.15,390.72 794.30,385.50 794.43,377.39 794.55,366.93 794.68,369.73 794.78,379.22 794.88,381.62 794.99,359.87 795.08,364.28 795.16,393.53 795.24,426.68 795.31,406.92 795.37,391.64 795.43,381.80 795.47,375.93 795.51,371.86 795.54,370.33 795.56,371.03 795.57,372.01 795.58,372.48 795.58,273.41 795.59,279.35 795.61,293.08 795.63,308.85 795.66,326.54 795.70,346.57 795.74,359.27 795.80,365.77 795.86,372.89 795.93,387.34 796.00,407.09 796.10,416.17 796.19,406.07 796.28,393.68 796.40,398.28 796.50,403.66 796.62,394.13 796.76,376.51 796.88,379.32 797.01,375.98 797.17,359.22 797.31,382.04 797.46,376.21 797.64,379.35 797.79,368.13 797.96,379.96 798.15,372.22 798.32,386.85 798.52,384.45 798.70,392.67 798.88,380.45 799.09,393.37 799.27,370.08 799.46,373.81 799.68,383.71 799.87,384.91 800.06,352.55 800.29,398.37 800.49,381.47 800.68,388.20 800.91,405.73 801.10,345.55 801.30,393.11 801.53,395.92 801.72,398.26 801.91,395.79 802.14,356.97 802.32,389.50 802.51,365.50 802.73,393.95 802.91,420.36 803.09,392.06 803.30,397.94 803.47,377.57 803.64,379.69 803.83,387.34 803.99,400.21 804.15,415.85 804.32,408.26 804.47,373.98 804.61,377.10 804.77,384.09 804.90,379.49 805.03,379.49 805.17,403.92 805.28,387.47 805.39,388.14 805.51,397.86 805.60,380.50 805.69,375.82 805.78,385.33 805.85,397.26 805.92,393.52 805.99,356.29 806.04,318.35 806.09,294.32 806.13,297.11 806.16,324.86 806.18,365.68 806.20,375.92 806.20,366.95 806.20,378.23 806.21,368.47 806.22,351.21 806.25,332.35 806.28,327.88 806.32,340.56 806.37,377.14 806.42,418.95 806.48,398.84 806.55,364.92 806.63,367.53 806.71,401.99 806.81,394.03 806.90,361.70 807.00,361.09 807.13,397.38 807.24,398.44 807.36,354.17 807.50,364.07 807.64,413.13 807.77,391.33 807.94,377.39 808.08,389.26 808.23,416.99 808.42,379.05 808.58,418.35 808.74,381.53 808.94,402.92 809.11,422.86 809.29,389.83 809.50,377.94 809.68,390.90 809.86,368.45 810.08,419.23 810.27,387.44 810.46,377.17 810.69,408.86 810.88,357.11 811.08,408.34 811.30,382.09 811.50,380.40 811.69,423.04 811.92,360.16 812.12,397.37 812.34,374.04 812.54,354.27 812.73,387.85 812.95,369.52 813.14,393.71 813.32,391.17 813.53,346.06 813.71,356.93 813.89,398.04 814.09,389.45 814.26,424.69 814.43,382.33 814.61,378.01 814.77,387.27 814.92,379.17 815.09,360.91 815.24,379.89 815.37,367.21 815.53,333.54 815.65,369.65 815.77,406.51 815.90,386.45 816.01,397.61 816.11,403.37 816.22,400.53 816.31,401.68 816.39,406.88 816.48,388.97 816.54,356.70 816.60,325.36 816.66,299.77 816.71,292.92 816.75,303.41 816.78,327.77 816.80,328.00 816.82,299.09 816.83,269.89 816.83,309.64 816.83,321.47 816.85,349.37 816.87,370.08 816.90,366.70 816.94,345.42 816.98,338.06 817.03,349.51 817.10,380.20 817.17,397.81 817.24,386.63 817.33,375.49 817.42,377.35 817.52,384.87 817.62,407.80 817.73,410.57 817.86,359.57 817.98,351.98 818.11,394.09 818.26,367.44 818.39,367.99 818.54,396.82 818.71,390.20 818.86,374.76 819.01,387.15 819.20,423.69 819.37,397.68 819.53,405.12 819.74,382.90 819.91,356.40 820.09,367.33 820.30,424.37 820.49,399.59 820.67,406.06 820.90,394.33 821.09,350.73 821.28,401.61 821.50,395.61 821.70,385.77 821.89,401.23 822.12,408.33 822.32,415.52 822.51,383.81 822.74,384.57 822.93,368.66 823.13,397.59 823.35,427.84 823.54,415.56 823.73,400.01 823.94,347.62 824.13,368.46 824.31,396.18 824.51,426.06 824.69,422.66 824.85,424.08 825.05,380.21 825.21,358.38 825.37,366.82 825.55,415.75 825.69,385.73 825.86,369.93 826.00,384.57 826.13,398.56 826.27,403.27 826.39,389.38 826.51,406.33 826.63,405.83 826.74,384.75 826.83,371.48 826.93,374.49 827.01,388.73 827.09,408.42 827.17,422.15 827.23,395.90 827.28,380.72 827.33,386.87 827.37,394.60 827.40,361.29 827.43,298.29 827.44,250.48 827.45,222.03 827.45,169.71 827.46,169.89 827.47,169.27 827.49,178.28 827.52,213.15 827.55,279.85 827.60,363.76 827.66,350.63 827.71,317.97 827.79,334.32 827.86,376.85 827.94,410.38 828.04,405.81 828.13,362.10 828.23,354.44 828.35,407.50 828.47,383.99 828.58,364.35 828.73,384.21 828.86,412.00 828.99,387.06 829.16,316.83 829.30,315.84 829.45,355.71 829.64,330.47 829.80,366.16 829.96,396.08 830.16,407.75 830.33,403.01 830.53,365.84 830.71,367.41 830.90,351.45 831.11,318.41 831.30,401.24 831.49,386.22 831.71,418.24 831.90,399.15 832.09,337.29 832.32,394.04 832.52,338.69 832.71,388.23 832.94,417.59 833.14,387.81 833.33,423.37 833.56,357.85 833.75,391.21 833.94,396.35 834.16,370.79 834.35,395.82 834.54,364.98 834.75,373.98 834.93,412.62 835.11,389.14 835.31,372.35 835.48,395.12 835.64,355.47 835.83,389.58 835.99,399.15 836.14,388.61 836.32,384.19 836.46,369.30 836.60,315.92 836.75,347.09 836.88,409.46 837.00,400.29 837.13,350.65 837.24,349.99 837.34,384.74 837.45,418.49 837.54,400.49 837.62,383.18 837.71,360.36 837.78,345.68 837.84,345.70 837.90,362.49 837.95,380.06 837.99,385.92 838.02,377.56 838.05,367.49 838.06,359.40 838.07,356.06 838.07,358.02 838.08,363.19 838.09,366.71 838.11,361.00 838.14,352.54 838.18,355.73 838.22,370.01 838.28,388.24 838.34,390.20 838.40,385.58 838.48,395.04 838.56,417.26 838.65,397.94 838.75,379.27 838.85,387.70 838.96,408.99 839.09,407.19 839.21,375.54 839.33,368.34 839.48,391.24 839.62,410.33 839.76,373.37 839.93,400.40 840.08,415.80 840.23,374.81 840.42,355.39 840.58,385.20 840.75,398.18 840.95,392.14 841.13,427.65 841.31,395.68 841.52,384.08 841.70,389.98 841.89,367.18 842.11,399.92 842.30,358.01 842.49,388.21 842.72,382.71 842.91,378.14 843.11,416.00 843.34,375.76 843.53,376.83 843.73,351.95 843.95,382.02 844.15,398.86 844.37,390.92 844.56,391.96 844.75,358.51 844.97,369.96 845.16,362.68 845.34,369.86 845.55,353.64 845.73,399.07 845.90,399.76 846.10,416.37 846.27,392.67 846.43,360.25 846.61,352.07 846.77,353.23 846.91,309.99 847.08,374.85 847.22,429.78 847.35,384.38 847.50,361.73 847.62,400.66 847.74,386.82 847.86,330.20 847.96,346.24 848.06,406.94 848.16,393.42 848.25,373.76 848.32,366.43 848.40,363.68 848.46,371.24 848.52,370.31 848.57,334.80 848.61,301.94 848.64,285.45 848.67,285.87 848.68,290.54 848.69,291.42 848.70,281.67 848.70,297.16 848.71,333.18 848.73,371.54 848.76,360.07 848.79,332.67 848.84,322.78 848.89,340.25 848.95,374.25 849.02,413.43 849.09,419.40 849.18,407.22 849.27,382.14 849.36,364.09 849.48,371.06 849.58,389.30 849.69,394.52 849.83,367.28 849.95,354.89 850.08,362.82 850.24,410.40 850.38,404.14 850.53,382.06 850.70,412.24 850.86,379.92 851.02,396.38 851.21,414.98 851.37,412.60 851.55,413.78 851.75,393.28 851.93,343.19 852.11,380.44 852.33,408.92 852.51,413.57 852.70,421.49 852.92,375.76 853.11,371.26 853.31,377.33 853.53,398.52 853.73,390.27 853.93,422.16 854.15,390.49 854.35,392.48 854.54,379.53 854.77,361.75 854.96,409.63 855.15,398.13 855.38,413.06 855.56,394.53 855.75,373.79 855.96,406.73 856.14,371.72 856.32,383.70 856.52,418.18 856.70,410.37 856.86,396.41 857.05,398.08 857.21,392.64 857.39,380.54 857.54,379.08 857.68,390.77 857.84,363.19 857.98,359.60 858.10,359.27 858.24,365.28 858.36,409.42 858.47,417.80 858.59,398.74 858.68,383.65 858.77,374.74 858.87,394.17 858.94,393.78 859.01,371.09 859.08,361.86 859.14,369.99 859.19,375.56 859.23,356.59 859.26,331.09 859.29,310.49 859.31,296.39 859.32,291.17 859.32,372.82 859.32,375.51 859.33,381.77 859.35,388.42 859.38,388.77 859.42,378.55 859.46,363.81 859.52,352.44 859.57,354.33 859.63,365.89 859.72,381.86 859.79,388.73 859.88,381.63 859.98,361.24 860.08,360.59 860.19,375.63 860.32,358.66 860.43,378.72 860.56,385.59 860.71,379.58 860.84,393.74 860.98,382.64 861.15,372.20 861.30,381.83 861.45,382.22 861.64,382.62 861.80,362.84 862.00,398.27 862.17,387.40 862.34,399.29 862.55,385.87 862.73,368.19 862.92,371.19 863.13,361.58 863.32,373.64 863.51,392.59 863.74,391.45 863.93,405.20 864.13,387.53 864.35,355.44 864.55,399.17 864.74,406.91 864.97,401.01 865.17,406.57 865.36,365.07 865.59,380.40 865.78,404.73 865.97,383.38 866.19,403.84 866.37,384.06 866.56,380.37 866.77,399.72 866.94,408.71 867.12,392.61 867.32,415.12 867.49,390.11 867.65,370.25 867.83,389.01 867.99,400.48 868.14,383.72 868.30,386.84 868.44,412.13 868.58,410.20 868.73,377.64 868.85,395.34 868.96,392.79 869.09,346.68 869.19,330.63 869.29,346.10 869.40,371.48 869.48,355.15 869.56,334.07 869.64,332.36 869.70,340.22 869.76,341.29 869.81,334.21 869.85,329.24 869.89,332.38 869.91,336.60 869.93,333.22 869.94,323.39 869.94,327.45 869.94,329.02 869.96,325.74 869.98,311.87 870.00,302.86 870.04,319.76 870.08,359.40 870.13,403.02 870.19,390.01 870.26,376.91 870.33,392.57 870.42,401.55 870.50,371.05 870.59,373.18 870.71,402.17 870.81,387.72 870.92,391.18 871.06,416.03 871.18,412.19 871.31,383.48 871.46,381.17 871.60,376.65 871.75,381.21 871.92,372.76 872.08,395.42 872.23,404.04 872.42,416.77 872.59,382.93 872.76,376.96 872.97,402.25 873.14,397.38 873.33,384.93 873.54,387.95 873.73,327.22 873.91,378.26 874.14,399.35 874.33,402.78 874.52,381.43 874.75,333.31 874.94,372.79 875.14,395.48 875.37,411.75 875.56,385.52 875.79,366.48 875.98,378.09 876.18,357.87 876.40,397.94 876.59,378.29 876.78,361.22 877.00,382.40 877.18,400.24 877.36,366.40 877.57,404.29 877.74,386.74 877.91,359.57 878.11,403.05 878.27,398.14 878.43,372.81 878.61,383.12 878.76,391.19 878.90,387.04 879.07,358.21 879.20,381.46 879.33,373.04 879.47,367.78 879.59,378.02 879.70,377.89 879.82,346.00 879.91,354.06 880.00,374.05 880.10,380.05 880.18,391.86 880.25,419.66 880.32,360.90 880.38,297.12 880.42,255.25 880.47,254.86 880.50,294.82 880.53,342.99 880.55,326.27 880.56,280.71 880.56,263.59 880.57,276.40 880.57,276.41 880.59,271.97 880.61,263.50 880.63,262.37 880.66,274.72 880.70,307.87 880.73,343.89 880.79,369.17 880.83,365.09 880.89,361.07 880.96,376.11 881.02,396.34 881.09,390.93 881.17,371.16 881.25,370.93 881.33,384.65 881.43,402.20 881.52,394.30 881.61,369.12 881.73,362.81 881.83,372.70 881.93,385.51 882.06,379.06 882.17,364.98 882.28,378.79 882.42,396.90 882.54,412.38 882.66,411.51 882.81,426.26 882.93,378.44 883.06,357.35 883.21,364.22 883.35,400.87 883.48,406.90 883.64,383.96 883.77,388.16 883.91,420.56 884.07,379.99 884.20,384.40 884.34,406.65 884.50,406.44 884.64,373.74 884.77,369.87 884.93,408.18 885.06,384.20 885.20,386.11 885.35,405.48 885.48,420.21 885.61,418.62 885.76,400.23 885.88,411.71 886.00,382.16 886.14,368.44 886.26,391.44 886.38,395.02 886.51,399.31 886.61,395.36 886.74,386.85 886.84,383.39 886.94,395.95 887.04,399.85 887.13,378.16 887.22,383.40 887.32,399.89 887.39,389.48 887.47,383.36 887.54,387.86 887.61,394.00 887.67,396.62 887.73,393.97 887.78,388.61 887.82,382.49 887.87,376.48 887.90,373.59 887.93,373.01 887.96,374.42 887.98,376.42 887.99,378.38 888.00,379.93 888.00,380.33" fill="none" stroke="#000" stroke-width="1.5" opacity="0.9"/>
<text x="500.0" y="502" font-family="Times New Roman" font-size="19" text-anchor="middle">Julian Date</text>
<text transform="translate(18,247.0) rotate(-90)" font-family="Times New Roman" font-size="19" text-anchor="middle">velocity residual (mm/s)</text>
</svg>
