<svg xmlns="http://www.w3.org/2000/svg" width="920" height="520" viewBox="0 0 920 520">
<rect width="100%" height="100%" fill="white"/>
<text x="460.0" y="24" font-family="Times New Roman" font-size="24" text-anchor="middle">Jupiter native position residual</text>
<line x1="112" y1="434" x2="888" y2="434" stroke="#333"/>
<line x1="112" y1="60" x2="112" y2="434" stroke="#333"/>
<line x1="112" y1="434.00" x2="888" y2="434.00" stroke="#ddd"/>
<text x="104" y="438.00" font-family="Times New Roman" font-size="17" text-anchor="end">0</text>
<line x1="112" y1="340.50" x2="888" y2="340.50" stroke="#ddd"/>
<text x="104" y="344.50" font-family="Times New Roman" font-size="17" text-anchor="end">0.5111</text>
<line x1="112" y1="247.00" x2="888" y2="247.00" stroke="#ddd"/>
<text x="104" y="251.00" font-family="Times New Roman" font-size="17" text-anchor="end">1.022</text>
<line x1="112" y1="153.50" x2="888" y2="153.50" stroke="#ddd"/>
<text x="104" y="157.50" font-family="Times New Roman" font-size="17" text-anchor="end">1.533</text>
<line x1="112" y1="60.00" x2="888" y2="60.00" stroke="#ddd"/>
<text x="104" y="64.00" font-family="Times New Roman" font-size="17" text-anchor="end">2.044</text>
<line x1="112.00" y1="434" x2="112.00" y2="439" stroke="#333"/>
<text x="112.00" y="456" font-family="Times New Roman" font-size="17" text-anchor="middle">2378495</text>
<line x1="306.00" y1="434" x2="306.00" y2="439" stroke="#333"/>
<text x="306.00" y="456" font-family="Times New Roman" font-size="17" text-anchor="middle">2433282</text>
<line x1="500.00" y1="434" x2="500.00" y2="439" stroke="#333"/>
<text x="500.00" y="456" font-family="Times New Roman" font-size="17" text-anchor="middle">2488070</text>
<line x1="694.00" y1="434" x2="694.00" y2="439" stroke="#333"/>
<text x="694.00" y="456" font-family="Times New Roman" font-size="17" text-anchor="middle">2542858</text>
<line x1="888.00" y1="434" x2="888.00" y2="439" stroke="#333"/>
<text x="888.00" y="456" font-family="Times New Roman" font-size="17" text-anchor="middle">2597645</text>
<polyline points="112.00,229.04 112.00,229.38 112.01,230.68 112.01,232.62 112.02,234.92 112.03,238.17 112.05,240.97 112.07,243.50 112.09,245.86 112.11,246.95 112.14,247.10 112.17,246.09 112.20,244.55 112.23,242.56 112.27,240.46 112.30,238.94 112.34,237.56 112.39,235.16 112.43,231.75 112.48,226.23 112.53,216.83 112.58,207.78 112.63,201.36 112.69,202.59 112.75,211.93 112.81,224.20 112.87,226.38 112.93,221.20 113.00,218.15 113.06,226.62 113.12,246.64 113.20,278.37 113.26,303.80 113.32,319.89 113.40,326.99 113.47,329.75 113.54,332.66 113.61,330.59 113.68,322.32 113.75,311.60 113.83,289.84 113.90,259.28 113.97,227.59 114.05,204.59 114.11,202.22 114.18,213.39 114.26,235.79 114.33,256.83 114.39,276.25 114.47,292.18 114.53,288.48 114.60,263.03 114.67,221.82 114.73,196.53 114.79,189.84 114.86,198.58 114.92,204.44 114.97,199.15 115.03,187.26 115.09,185.50 115.14,197.95 115.19,228.59 115.24,262.59 115.29,294.85 115.34,313.97 115.38,304.91 115.41,281.24 115.46,254.63 115.49,242.82 115.52,245.02 115.56,261.86 115.58,279.66 115.61,287.60 115.63,274.66 115.65,251.13 115.67,223.83 115.69,207.99 115.70,201.07 115.71,201.85 115.71,206.25 115.72,210.40 115.72,312.77 115.72,307.55 115.73,291.79 115.75,265.23 115.78,237.02 115.81,205.56 115.86,174.00 115.91,156.82 115.96,148.49 116.03,159.15 116.10,203.16 116.18,281.18 116.28,326.55 116.37,250.76 116.47,179.49 116.59,142.28 116.70,151.85 116.81,222.43 116.95,372.15 117.08,257.01 117.22,156.82 117.38,178.91 117.52,264.98 117.67,291.42 117.85,186.73 118.01,130.88 118.17,161.31 118.37,201.93 118.54,171.43 118.71,187.81 118.92,290.69 119.10,334.26 119.29,322.52 119.50,272.42 119.69,259.07 119.88,326.51 120.11,323.83 120.30,230.74 120.49,171.68 120.72,150.94 120.92,192.95 121.14,297.12 121.34,343.17 121.53,325.65 121.76,259.88 121.95,197.22 122.15,198.14 122.37,298.44 122.56,358.72 122.74,302.17 122.96,218.49 123.14,256.52 123.32,290.57 123.52,195.77 123.69,204.64 123.86,255.20 124.05,185.07 124.21,208.50 124.36,379.21 124.54,213.42 124.68,169.74 124.82,270.44 124.98,254.26 125.10,194.38 125.23,248.35 125.36,377.20 125.47,366.83 125.58,292.87 125.69,278.18 125.78,305.99 125.87,291.19 125.96,247.41 126.02,251.35 126.09,270.55 126.15,244.59 126.20,215.28 126.24,222.51 126.28,269.16 126.31,305.80 126.33,312.98 126.34,301.13 126.34,182.31 126.34,183.21 126.35,189.18 126.37,200.70 126.40,221.67 126.43,258.98 126.47,297.16 126.52,329.95 126.58,343.56 126.65,328.16 126.73,286.28 126.80,236.71 126.89,187.11 126.99,161.45 127.09,184.54 127.19,228.04 127.32,258.03 127.44,264.82 127.56,281.60 127.71,231.00 127.84,203.04 127.98,227.20 128.15,275.04 128.30,288.72 128.45,249.31 128.63,231.46 128.80,256.70 128.96,243.95 129.16,186.14 129.34,220.48 129.51,287.52 129.73,326.08 129.91,372.53 130.09,346.02 130.31,308.92 130.50,394.87 130.70,294.97 130.92,331.58 131.12,388.95 131.31,215.78 131.54,194.31 131.73,209.47 131.93,144.60 132.16,198.36 132.35,365.49 132.54,391.40 132.77,393.50 132.96,389.93 133.15,337.90 133.36,296.60 133.55,316.95 133.73,409.20 133.94,336.77 134.11,297.76 134.28,347.44 134.48,316.03 134.64,312.46 134.83,377.97 134.98,366.39 135.13,326.97 135.30,343.90 135.44,338.68 135.58,236.36 135.73,213.13 135.85,242.51 135.97,286.42 136.10,312.06 136.20,299.75 136.30,289.02 136.40,306.07 136.49,330.06 136.57,345.57 136.65,348.42 136.71,328.97 136.77,300.75 136.82,281.19 136.86,285.02 136.90,306.16 136.93,343.23 136.95,374.94 136.96,397.30 136.96,405.42 136.97,165.01 136.97,155.96 136.99,151.02 137.02,165.50 137.05,203.07 137.10,268.21 137.14,327.36 137.20,372.21 137.27,349.15 137.34,293.51 137.41,264.44 137.51,288.00 137.60,303.62 137.69,266.30 137.81,245.87 137.92,284.36 138.04,332.69 138.18,317.28 138.31,260.89 138.44,237.07 138.60,316.77 138.74,245.67 138.89,179.34 139.07,178.18 139.23,284.67 139.42,359.42 139.59,270.97 139.76,315.06 139.96,316.39 140.14,306.74 140.32,286.38 140.53,200.96 140.72,246.48 140.91,186.56 141.13,167.18 141.32,231.69 141.51,205.15 141.74,231.67 141.93,369.25 142.13,242.54 142.36,227.13 142.55,296.61 142.75,329.47 142.97,348.67 143.17,308.51 143.36,312.11 143.58,284.81 143.77,236.63 143.96,316.55 144.17,222.64 144.35,174.66 144.53,247.50 144.74,261.36 144.91,241.05 145.08,326.40 145.27,244.59 145.43,152.21 145.58,148.86 145.76,262.99 145.90,210.57 146.04,214.28 146.20,326.26 146.33,316.40 146.45,214.26 146.59,142.37 146.70,156.12 146.81,214.76 146.92,279.06 147.01,258.49 147.10,212.11 147.19,235.82 147.26,304.68 147.33,263.67 147.39,174.30 147.44,130.81 147.49,144.17 147.52,177.37 147.55,198.38 147.57,201.42 147.58,198.67 147.59,197.52 147.59,225.52 147.60,208.27 147.61,181.58 147.64,150.13 147.67,135.02 147.71,138.26 147.77,162.26 147.82,183.89 147.88,188.89 147.96,182.28 148.04,188.91 148.12,205.30 148.22,210.72 148.32,204.97 148.42,203.89 148.55,195.17 148.66,177.21 148.78,201.98 148.93,283.64 149.06,274.07 149.20,229.63 149.37,238.69 149.52,267.41 149.67,277.44 149.85,244.20 150.02,169.27 150.18,218.17 150.38,231.30 150.55,185.62 150.73,186.51 150.94,299.92 151.12,336.11 151.31,281.88 151.53,238.95 151.72,194.64 151.91,196.86 152.13,281.67 152.33,261.49 152.56,218.95 152.75,211.24 152.95,227.06 153.17,185.82 153.37,224.36 153.56,262.21 153.79,282.98 153.98,344.81 154.17,220.04 154.39,246.26 154.58,349.95 154.76,269.71 154.98,307.51 155.15,397.53 155.33,294.31 155.53,232.93 155.70,200.41 155.86,292.95 156.05,323.15 156.20,326.78 156.35,364.10 156.52,273.84 156.67,249.98 156.80,292.33 156.95,296.82 157.08,202.66 157.19,224.56 157.32,319.62 157.43,239.80 157.53,228.34 157.63,292.32 157.72,304.40 157.80,261.12 157.88,221.89 157.95,219.92 158.00,249.46 158.06,302.95 158.10,327.37 158.14,320.14 158.17,310.55 158.19,315.88 158.20,327.24 158.21,334.69 158.21,274.90 158.22,264.93 158.24,241.36 158.26,212.75 158.29,186.36 158.33,180.04 158.38,203.96 158.44,234.12 158.50,223.79 158.57,201.64 158.66,200.93 158.74,209.14 158.83,195.69 158.94,161.13 159.04,164.78 159.15,180.27 159.28,182.81 159.40,241.18 159.53,331.77 159.69,328.69 159.82,276.60 159.97,234.26 160.14,293.11 160.29,369.25 160.45,333.49 160.64,366.50 160.80,343.97 160.97,211.69 161.18,200.11 161.35,280.64 161.53,255.99 161.75,344.03 161.93,341.85 162.12,298.50 162.34,315.39 162.53,303.07 162.73,333.10 162.95,240.78 163.15,183.28 163.34,211.21 163.57,218.75 163.77,170.54 163.96,133.47 164.19,176.51 164.38,305.09 164.57,273.41 164.80,229.34 164.98,198.05 165.17,219.12 165.39,267.56 165.57,259.02 165.75,292.28 165.95,166.46 166.12,163.44 166.32,260.75 166.49,300.71 166.65,299.40 166.83,230.24 166.98,177.48 167.12,218.36 167.29,223.58 167.42,214.90 167.55,289.45 167.70,302.50 167.82,245.32 167.93,217.76 168.05,257.09 168.15,333.96 168.24,349.13 168.34,259.79 168.42,206.38 168.49,212.33 168.57,268.15 168.63,277.85 168.68,241.21 168.73,222.70 168.76,245.56 168.79,286.74 168.81,327.62 168.83,342.09 168.83,344.12 168.83,180.65 168.84,179.91 168.86,180.14 168.88,183.25 168.91,189.07 168.95,202.84 169.00,243.82 169.06,305.98 169.12,346.52 169.19,270.84 169.27,204.38 169.35,188.61 169.45,230.77 169.55,290.25 169.65,321.67 169.77,231.47 169.89,183.47 170.01,196.44 170.15,218.68 170.29,202.89 170.42,169.42 170.59,183.15 170.74,282.95 170.91,299.94 171.07,314.59 171.23,236.44 171.43,232.50 171.60,267.94 171.77,210.02 171.98,283.84 172.16,341.48 172.34,219.96 172.56,158.00 172.74,209.04 172.93,313.42 173.16,276.86 173.35,222.58 173.54,177.83 173.77,202.59 173.96,354.61 174.16,293.98 174.39,319.21 174.58,313.32 174.78,217.19 175.00,209.48 175.20,237.11 175.39,299.91 175.61,281.75 175.79,226.40 175.98,290.30 176.19,340.34 176.37,321.34 176.55,314.13 176.75,217.37 176.92,168.42 177.08,290.06 177.27,405.41 177.42,389.24 177.58,326.10 177.75,245.32 177.89,228.65 178.02,300.56 178.18,316.83 178.30,256.39 178.42,241.76 178.55,242.95 178.66,249.67 178.76,274.80 178.87,309.70 178.95,312.03 179.04,317.17 179.12,318.96 179.18,279.62 179.25,224.45 179.30,204.69 179.34,213.43 179.39,242.55 179.41,267.92 179.43,286.32 179.45,297.88 179.45,301.30 179.46,231.42 179.46,219.35 179.48,202.33 179.50,186.24 179.54,176.13 179.57,176.95 179.62,185.20 179.68,202.28 179.74,226.88 179.81,271.75 179.89,355.75 179.97,378.92 180.06,329.05 180.17,321.64 180.27,330.86 180.38,300.52 180.51,258.83 180.63,258.16 180.76,314.04 180.91,413.42 181.05,342.69 181.19,360.67 181.36,240.01 181.51,193.59 181.67,237.80 181.86,289.95 182.02,292.85 182.19,333.09 182.39,286.20 182.57,267.05 182.75,324.08 182.96,245.45 183.15,272.13 183.33,345.06 183.56,248.26 183.75,326.72 183.94,300.62 184.16,273.78 184.36,343.04 184.59,227.67 184.78,222.55 184.98,346.26 185.21,277.07 185.40,273.73 185.59,426.01 185.82,379.98 186.01,273.96 186.20,214.86 186.42,307.68 186.60,362.17 186.78,244.10 186.99,365.22 187.17,305.85 187.34,243.68 187.54,310.03 187.70,394.39 187.86,385.84 188.05,363.82 188.20,223.44 188.35,227.73 188.51,331.15 188.65,369.29 188.78,326.56 188.92,290.46 189.04,281.08 189.16,267.58 189.28,228.99 189.38,228.21 189.47,250.44 189.58,269.74 189.65,269.95 189.73,257.32 189.80,246.36 189.86,258.29 189.91,291.58 189.97,320.64 190.00,295.80 190.03,250.33 190.06,210.32 190.07,192.99 190.08,186.65 190.08,372.44 190.09,370.91 190.10,366.07 190.12,352.75 190.15,331.53 190.20,298.44 190.24,276.02 190.29,273.96 190.36,302.22 190.43,322.77 190.50,298.27 190.59,267.28 190.68,284.13 190.78,304.03 190.89,234.42 191.00,155.78 191.11,160.11 191.25,267.83 191.38,224.73 191.51,139.19 191.67,161.27 191.81,257.81 191.96,378.09 192.13,371.80 192.29,362.25 192.45,253.54 192.64,206.84 192.81,251.58 192.99,298.86 193.19,222.56 193.37,162.11 193.55,204.33 193.77,232.22 193.96,233.66 194.15,289.53 194.37,288.50 194.56,215.11 194.76,256.17 194.98,285.51 195.18,234.50 195.37,235.84 195.60,364.39 195.80,300.38 195.99,247.98 196.22,206.40 196.41,141.91 196.60,173.56 196.82,212.78 197.01,174.10 197.19,253.12 197.41,279.67 197.59,185.54 197.76,160.08 197.96,207.09 198.13,255.37 198.33,297.06 198.49,321.78 198.64,387.35 198.82,211.30 198.97,158.05 199.11,196.19 199.27,301.86 199.40,243.21 199.53,182.65 199.67,241.81 199.78,238.85 199.89,245.43 200.00,316.23 200.10,358.21 200.18,319.55 200.28,241.07 200.35,206.68 200.42,225.27 200.49,303.75 200.54,359.85 200.58,303.49 200.63,218.54 200.65,178.76 200.68,170.16 200.69,180.99 200.70,189.91 200.70,228.39 200.71,227.65 200.72,223.87 200.74,218.59 200.78,221.93 200.81,243.74 200.86,284.31 200.92,331.82 200.97,329.11 201.04,296.81 201.12,278.20 201.20,295.35 201.29,337.89 201.40,373.78 201.50,324.39 201.61,274.91 201.74,278.09 201.86,245.04 201.98,207.65 202.13,258.84 202.27,352.92 202.43,308.00 202.58,220.67 202.73,230.20 202.91,288.72 203.08,242.75 203.24,256.99 203.44,315.58 203.61,282.12 203.79,319.16 203.99,202.38 204.18,186.21 204.36,287.76 204.58,376.62 204.77,402.80 204.96,316.28 205.18,221.26 205.38,331.21 205.57,349.29 205.80,300.45 206.00,287.96 206.19,279.18 206.42,279.75 206.61,256.21 206.81,245.16 207.03,264.81 207.22,234.87 207.41,237.53 207.63,324.40 207.82,326.44 208.00,378.06 208.21,215.07 208.39,157.17 208.56,199.08 208.76,266.40 208.92,272.18 209.08,218.76 209.27,201.72 209.42,299.06 209.57,285.41 209.73,152.86 209.87,189.59 210.00,328.58 210.15,280.75 210.27,195.98 210.38,151.71 210.51,144.26 210.61,159.39 210.70,189.95 210.81,274.17 210.89,343.30 210.97,238.02 211.04,158.93 211.10,149.27 211.16,210.75 211.21,287.39 211.24,333.45 211.28,306.20 211.30,266.90 211.31,239.62 211.32,225.20 211.32,156.73 211.33,156.89 211.34,157.77 211.37,160.66 211.39,169.28 211.44,197.07 211.48,246.19 211.53,315.06 211.60,339.18 211.66,266.01 211.73,202.64 211.83,199.52 211.91,267.22 212.01,349.81 212.12,346.55 212.23,387.91 212.34,351.17 212.48,225.02 212.60,186.61 212.73,203.23 212.89,291.32 213.03,393.59 213.18,263.18 213.35,278.33 213.51,383.70 213.67,272.17 213.86,233.55 214.03,270.53 214.20,179.75 214.41,226.14 214.59,289.69 214.77,245.06 214.98,217.09 215.17,191.79 215.36,155.23 215.58,198.08 215.78,172.29 216.00,180.74 216.20,226.19 216.39,152.10 216.62,262.55 216.81,360.48 217.01,348.11 217.24,323.19 217.43,265.02 217.62,169.67 217.85,157.89 218.04,350.69 218.22,178.08 218.44,278.40 218.62,262.88 218.80,152.40 219.01,208.49 219.18,261.61 219.35,172.61 219.55,287.05 219.71,197.80 219.86,172.70 220.04,255.10 220.19,400.22 220.33,325.67 220.49,230.40 220.62,166.28 220.75,168.32 220.89,182.22 221.01,137.84 221.11,109.58 221.23,171.10 221.33,233.65 221.42,214.44 221.51,172.55 221.58,180.58 221.65,218.38 221.72,254.12 221.78,255.15 221.82,239.55 221.87,211.02 221.90,183.62 221.92,164.97 221.94,160.00 221.95,162.96 221.95,183.65 221.95,192.70 221.96,213.50 221.98,247.20 222.02,300.67 222.05,345.20 222.10,342.23 222.15,294.41 222.21,248.22 222.29,216.56 222.36,212.91 222.44,225.95 222.54,223.45 222.63,176.82 222.73,138.93 222.85,164.26 222.96,247.04 223.08,324.41 223.23,240.03 223.36,193.94 223.49,249.21 223.66,403.61 223.80,325.68 223.95,273.75 224.13,270.15 224.29,274.26 224.46,265.42 224.65,231.28 224.83,175.15 225.00,210.56 225.21,248.78 225.39,198.28 225.58,262.43 225.79,242.08 225.98,230.56 226.17,221.89 226.40,183.12 226.59,335.57 226.79,395.22 227.01,400.42 227.21,303.75 227.40,218.80 227.63,295.20 227.83,348.08 228.02,276.62 228.25,265.53 228.44,320.48 228.63,235.69 228.85,172.91 229.03,204.68 229.22,242.65 229.43,382.41 229.60,351.72 229.80,300.17 229.97,248.74 230.14,249.21 230.33,294.63 230.49,194.51 230.64,167.24 230.81,306.71 230.96,305.13 231.09,253.80 231.25,195.04 231.37,149.94 231.49,148.91 231.63,215.13 231.74,310.28 231.84,291.85 231.95,210.69 232.04,196.37 232.12,213.45 232.21,246.55 232.28,277.87 232.34,308.19 232.40,339.24 232.44,358.24 232.48,359.59 232.52,337.03 232.54,312.25 232.56,292.41 232.57,279.81 232.57,271.71 232.57,270.93 232.59,269.58 232.61,270.48 232.63,277.01 232.67,294.43 232.72,310.14 232.77,301.73 232.83,248.97 232.90,198.16 232.97,173.95 233.06,202.73 233.14,278.00 233.24,356.55 233.35,280.05 233.46,222.87 233.57,271.60 233.70,341.38 233.83,303.78 233.98,314.04 234.11,285.32 234.25,220.90 234.42,181.02 234.57,223.99 234.73,227.15 234.92,164.96 235.08,199.55 235.25,164.92 235.45,170.65 235.62,254.16 235.80,305.18 236.02,208.40 236.20,188.77 236.39,242.62 236.61,321.81 236.80,268.37 236.99,281.29 237.21,324.11 237.41,247.27 237.60,215.32 237.83,296.94 238.03,302.64 238.22,311.28 238.45,268.94 238.64,223.17 238.84,257.21 239.06,234.72 239.25,258.97 239.44,237.51 239.65,187.94 239.84,190.07 240.02,245.58 240.23,292.38 240.40,274.26 240.57,242.07 240.76,256.93 240.93,345.98 241.08,366.74 241.26,373.95 241.41,347.57 241.56,268.95 241.72,181.46 241.85,179.20 241.98,311.19 242.12,307.33 242.23,201.41 242.34,173.24 242.46,181.55 242.56,199.22 242.66,219.89 242.74,223.73 242.82,223.80 242.90,236.26 242.96,249.58 243.01,251.37 243.07,242.47 243.11,238.78 243.14,244.87 243.17,260.58 243.18,274.11 243.19,282.64 243.19,246.62 243.20,255.10 243.21,277.05 243.23,318.70 243.26,365.86 243.29,404.80 243.34,357.16 243.39,300.34 243.45,250.64 243.52,211.65 243.59,201.80 243.67,224.74 243.77,304.39 243.86,308.26 243.96,213.09 244.08,182.10 244.19,218.90 244.31,208.27 244.45,202.86 244.58,262.93 244.71,334.06 244.88,252.15 245.02,211.50 245.17,286.19 245.35,264.63 245.51,314.69 245.68,392.09 245.87,270.69 246.04,310.27 246.22,269.21 246.43,135.18 246.61,291.94 246.79,340.08 247.01,209.82 247.20,281.46 247.42,216.12 247.61,204.19 247.81,297.75 248.03,204.30 248.23,259.51 248.42,391.99 248.65,277.62 248.85,330.92 249.04,298.68 249.27,305.26 249.46,260.03 249.65,199.03 249.87,252.54 250.06,293.40 250.25,341.82 250.46,200.91 250.64,201.26 250.82,274.01 251.02,304.29 251.19,294.99 251.36,332.00 251.55,325.57 251.71,283.59 251.86,271.23 252.03,306.01 252.18,343.03 252.32,280.90 252.47,234.21 252.60,294.52 252.72,325.73 252.86,257.55 252.96,219.44 253.07,238.74 253.18,286.32 253.27,266.14 253.35,209.95 253.44,174.44 253.51,191.14 253.57,237.30 253.64,270.32 253.68,241.57 253.72,193.44 253.76,156.53 253.78,150.22 253.80,159.58 253.81,173.68 253.82,191.14 253.82,196.20 253.83,219.03 253.85,255.59 253.88,307.07 253.91,314.38 253.96,262.65 254.01,191.05 254.07,157.64 254.13,161.81 254.21,209.05 254.29,271.17 254.38,316.17 254.48,275.19 254.58,237.61 254.68,235.86 254.81,215.70 254.93,189.12 255.05,189.75 255.20,218.09 255.34,213.19 255.48,201.79 255.65,202.34 255.80,193.86 255.95,192.32 256.14,226.81 256.30,192.41 256.47,219.09 256.67,357.96 256.84,249.12 257.02,206.44 257.23,266.80 257.41,181.76 257.60,238.21 257.82,287.45 258.01,177.01 258.20,160.20 258.43,213.19 258.62,292.45 258.82,330.91 259.05,232.69 259.24,271.80 259.44,411.14 259.66,292.45 259.86,269.11 260.05,267.23 260.27,294.63 260.46,272.57 260.65,207.38 260.87,384.89 261.05,314.91 261.26,187.95 261.44,217.34 261.62,242.53 261.82,211.19 261.98,215.61 262.14,202.88 262.33,190.71 262.48,265.01 262.63,276.32 262.80,199.50 262.94,259.95 263.07,336.39 263.22,299.21 263.34,261.67 263.46,288.40 263.59,357.00 263.69,316.60 263.79,289.70 263.89,338.51 263.98,390.85 264.05,353.46 264.13,291.26 264.19,265.31 264.25,269.11 264.31,297.58 264.35,320.13 264.38,325.42 264.41,319.30 264.42,316.20 264.44,316.48 264.44,287.69 264.44,296.88 264.45,322.48 264.47,329.28 264.50,276.91 264.53,217.60 264.58,203.32 264.63,259.30 264.68,348.62 264.75,320.33 264.82,248.01 264.90,210.90 265.00,196.64 265.09,193.64 265.19,191.09 265.31,191.98 265.42,216.72 265.53,239.79 265.67,265.17 265.80,211.06 265.96,183.40 266.10,251.03 266.24,247.29 266.42,240.61 266.57,254.21 266.73,211.63 266.92,215.68 267.09,311.13 267.26,199.62 267.46,202.62 267.64,320.30 267.82,381.14 268.04,292.14 268.22,217.42 268.41,236.33 268.63,179.94 268.83,152.49 269.02,256.75 269.25,242.67 269.44,307.44 269.64,300.42 269.86,231.11 270.06,350.19 270.25,333.91 270.48,347.91 270.67,262.56 270.87,214.86 271.09,333.28 271.28,344.56 271.46,390.60 271.68,301.97 271.86,205.97 272.04,200.43 272.24,212.37 272.41,227.28 272.58,200.25 272.77,199.25 272.93,279.09 273.08,239.48 273.26,199.99 273.40,219.84 273.54,198.32 273.70,237.78 273.82,317.51 273.95,219.47 274.08,150.05 274.19,240.99 274.31,335.61 274.41,254.95 274.50,202.34 274.60,185.65 274.68,188.58 274.74,188.45 274.82,179.14 274.87,177.62 274.92,182.54 274.97,183.35 275.00,178.92 275.03,177.36 275.05,182.96 275.06,189.81 275.06,192.57 275.06,166.53 275.07,186.13 275.09,225.74 275.12,295.08 275.15,332.49 275.19,288.08 275.25,218.11 275.30,199.84 275.37,233.25 275.45,322.13 275.52,381.74 275.61,307.62 275.71,201.66 275.81,156.58 275.91,181.52 276.04,264.37 276.16,354.76 276.28,343.81 276.43,215.39 276.56,161.39 276.70,143.33 276.87,200.98 277.02,273.77 277.17,211.54 277.35,259.74 277.52,226.61 277.68,253.42 277.88,340.29 278.06,359.95 278.23,371.41 278.45,225.73 278.63,171.12 278.81,334.38 279.03,306.08 279.22,314.77 279.45,319.44 279.64,247.38 279.84,319.12 280.06,235.70 280.26,280.13 280.45,306.67 280.68,155.39 280.88,182.12 281.07,300.42 281.30,308.97 281.49,284.65 281.68,204.15 281.90,175.13 282.08,248.76 282.27,293.26 282.48,191.13 282.66,183.41 282.83,204.62 283.03,164.50 283.20,151.64 283.36,231.44 283.55,238.55 283.70,291.21 283.85,342.21 284.02,218.99 284.16,181.11 284.30,258.99 284.45,241.37 284.57,181.85 284.69,190.94 284.82,219.00 284.92,248.21 285.02,234.17 285.12,183.08 285.21,188.89 285.29,267.89 285.37,369.80 285.43,266.29 285.49,186.63 285.54,199.78 285.58,283.70 285.62,343.01 285.65,262.81 285.67,195.35 285.68,160.18 285.68,149.33 285.69,135.67 285.70,123.60 285.71,120.97 285.74,136.73 285.78,173.38 285.82,205.60 285.86,239.29 285.93,299.14 285.99,327.51 286.06,255.48 286.15,159.01 286.23,130.60 286.32,142.74 286.43,147.36 286.53,142.25 286.64,144.37 286.78,146.81 286.90,157.67 287.03,201.90 287.18,281.42 287.32,246.45 287.46,212.94 287.64,244.69 287.79,182.78 287.95,143.91 288.14,164.90 288.31,175.97 288.48,188.57 288.68,275.41 288.86,220.58 289.04,268.87 289.25,353.74 289.44,267.35 289.63,208.17 289.85,172.04 290.04,214.80 290.23,198.27 290.46,200.76 290.65,295.22 290.85,288.49 291.08,365.35 291.27,331.79 291.47,342.19 291.69,209.64 291.89,185.20 292.08,291.72 292.30,368.20 292.49,351.31 292.68,269.25 292.89,191.23 293.07,274.82 293.28,319.83 293.46,238.92 293.63,287.75 293.82,240.34 293.99,177.80 294.15,237.28 294.33,325.69 294.48,253.69 294.62,222.88 294.79,157.08 294.92,179.34 295.05,288.70 295.19,306.82 295.31,237.59 295.42,240.16 295.54,293.79 295.64,226.09 295.73,163.50 295.83,204.88 295.91,297.86 295.98,329.26 296.05,289.12 296.11,286.29 296.16,295.28 296.21,265.47 296.24,222.15 296.27,194.38 296.29,189.04 296.30,196.34 296.31,201.19 296.31,287.45 296.32,275.31 296.33,261.58 296.36,254.67 296.39,259.49 296.43,266.34 296.49,266.09 296.54,267.86 296.60,284.24 296.68,311.16 296.76,321.05 296.84,326.85 296.94,345.31 297.04,316.00 297.14,233.33 297.27,177.64 297.38,187.64 297.52,236.09 297.65,287.64 297.78,316.47 297.94,240.67 298.09,208.50 298.24,243.93 298.41,248.77 298.57,218.52 298.74,250.65 298.93,348.76 299.10,267.26 299.27,257.39 299.48,307.53 299.66,306.48 299.84,201.44 300.06,237.72 300.25,291.13 300.44,300.29 300.66,258.39 300.85,184.92 301.05,179.80 301.28,193.01 301.47,214.35 301.67,215.01 301.89,203.95 302.09,236.17 302.28,290.08 302.51,239.82 302.70,174.91 302.89,257.00 303.11,340.96 303.30,339.12 303.48,405.65 303.70,269.66 303.87,191.17 304.05,220.37 304.25,365.22 304.42,379.36 304.58,368.52 304.77,300.74 304.92,219.24 305.07,170.19 305.24,190.68 305.39,192.14 305.52,248.16 305.67,309.54 305.80,283.39 305.93,265.42 306.04,309.98 306.15,372.39 306.26,393.46 306.36,384.52 306.44,393.20 306.53,367.48 306.60,343.25 306.67,338.55 306.73,349.29 306.78,348.17 306.82,323.75 306.86,288.24 306.89,267.38 306.91,257.15 306.93,253.09 306.93,252.31 306.93,249.85 306.94,246.88 306.96,238.54 306.98,222.29 307.02,196.44 307.06,177.07 307.10,170.96 307.16,189.74 307.22,223.05 307.29,250.89 307.38,262.44 307.46,278.62 307.55,294.99 307.66,286.78 307.76,271.41 307.87,244.50 308.00,227.53 308.12,241.42 308.25,257.50 308.41,336.70 308.54,314.11 308.69,314.96 308.86,321.22 309.01,264.13 309.17,231.94 309.36,232.30 309.52,260.93 309.69,216.82 309.90,236.35 310.07,267.50 310.25,216.98 310.47,227.44 310.65,300.44 310.87,288.77 311.06,288.96 311.25,367.02 311.48,239.39 311.67,203.77 311.87,239.03 312.09,345.09 312.29,265.58 312.49,304.67 312.71,357.03 312.91,306.88 313.10,378.10 313.33,322.49 313.52,188.69 313.70,202.54 313.92,298.36 314.11,255.58 314.29,221.69 314.50,357.63 314.67,385.27 314.84,359.34 315.04,300.43 315.21,249.76 315.37,276.75 315.55,274.50 315.70,221.19 315.84,267.27 316.01,358.47 316.14,419.15 316.27,413.14 316.42,355.24 316.54,234.00 316.65,160.94 316.77,217.13 316.87,340.51 316.96,340.96 317.06,208.95 317.14,147.47 317.21,153.91 317.29,235.90 317.35,323.53 317.40,314.85 317.45,224.76 317.48,171.73 317.51,152.93 317.53,161.43 317.55,176.37 317.55,185.16 317.55,173.67 317.56,171.52 317.58,163.89 317.60,154.09 317.63,149.76 317.68,168.24 317.72,213.71 317.78,280.12 317.85,333.37 317.91,307.27 317.99,271.05 318.08,258.85 318.17,254.95 318.27,235.32 318.39,212.97 318.49,230.16 318.61,281.72 318.75,302.74 318.87,301.32 319.01,320.04 319.17,355.21 319.31,356.92 319.46,305.97 319.63,328.28 319.79,276.99 319.95,231.68 320.15,236.30 320.32,241.99 320.49,183.76 320.70,249.31 320.88,339.03 321.06,338.60 321.28,305.74 321.46,248.25 321.65,243.76 321.88,229.23 322.07,169.38 322.26,278.93 322.49,273.62 322.68,188.00 322.88,327.06 323.11,279.81 323.30,318.72 323.50,391.36 323.72,255.86 323.92,284.96 324.11,215.51 324.33,240.72 324.51,236.56 324.73,191.65 324.91,259.10 325.09,236.57 325.30,199.40 325.47,219.20 325.64,167.58 325.83,183.91 325.99,263.85 326.14,321.41 326.32,291.36 326.47,204.88 326.61,170.79 326.77,328.05 326.90,236.53 327.02,144.53 327.16,190.29 327.27,277.00 327.38,327.42 327.49,252.06 327.59,210.87 327.67,237.30 327.76,306.84 327.84,358.52 327.90,388.80 327.97,399.06 328.02,397.19 328.06,386.48 328.11,358.37 328.13,332.01 328.15,313.21 328.17,302.90 328.17,300.53 328.18,216.21 328.18,207.55 328.20,193.95 328.22,181.50 328.26,180.74 328.29,197.22 328.34,222.05 328.40,235.04 328.46,220.29 328.53,202.59 328.61,206.58 328.69,225.85 328.78,242.02 328.89,256.16 328.99,267.48 329.12,284.18 329.23,309.45 329.35,346.11 329.50,400.05 329.63,299.25 329.77,182.50 329.93,156.06 330.08,191.97 330.23,221.99 330.41,266.09 330.58,310.30 330.74,378.32 330.94,257.68 331.11,133.41 331.29,162.15 331.50,297.03 331.68,360.56 331.87,314.12 332.09,216.29 332.28,205.26 332.47,253.20 332.69,220.23 332.89,297.96 333.08,389.78 333.31,374.29 333.50,247.87 333.70,137.74 333.93,203.82 334.12,352.54 334.31,317.36 334.54,298.27 334.73,305.21 334.92,294.22 335.14,291.52 335.32,176.38 335.50,146.99 335.71,239.26 335.89,275.21 336.06,291.09 336.26,260.47 336.42,120.85 336.58,164.76 336.77,329.58 336.92,375.50 337.07,324.04 337.23,246.81 337.37,232.79 337.50,224.26 337.64,217.52 337.76,217.97 337.89,230.89 338.00,301.44 338.10,302.96 338.21,210.27 338.30,211.27 338.37,282.99 338.46,361.66 338.52,320.63 338.58,257.59 338.64,204.32 338.69,177.75 338.72,165.11 338.76,161.54 338.78,162.90 338.79,164.92 338.80,166.15 338.80,251.65 338.81,256.34 338.82,268.53 338.84,279.70 338.87,279.12 338.92,258.82 338.96,243.74 339.01,249.66 339.08,283.75 339.15,320.91 339.22,350.33 339.32,310.78 339.40,218.51 339.50,157.10 339.61,197.93 339.72,323.63 339.83,364.55 339.97,205.73 340.10,152.67 340.23,223.33 340.39,259.63 340.53,228.05 340.68,230.85 340.85,275.54 341.01,208.85 341.17,143.13 341.36,229.68 341.53,211.22 341.71,195.01 341.91,249.63 342.09,177.32 342.30,180.01 342.49,270.64 342.68,215.43 342.90,189.48 343.09,194.27 343.28,183.51 343.51,259.47 343.70,307.77 343.90,261.33 344.13,207.91 344.32,151.96 344.52,204.55 344.74,355.54 344.94,240.70 345.13,260.79 345.35,306.53 345.54,292.04 345.73,367.78 345.94,298.32 346.13,246.49 346.31,228.18 346.51,190.62 346.68,278.58 346.85,349.72 347.05,268.46 347.21,215.88 347.36,212.80 347.54,223.21 347.69,251.46 347.83,278.51 347.99,257.69 348.12,241.43 348.25,281.02 348.39,300.25 348.50,241.84 348.61,243.77 348.72,280.08 348.82,256.16 348.90,198.70 349.00,150.36 349.07,152.58 349.14,201.58 349.21,299.48 349.26,360.85 349.30,312.93 349.35,240.86 349.37,208.60 349.40,200.96 349.41,206.56 349.42,211.21 349.42,268.91 349.43,264.28 349.44,262.93 349.47,280.33 349.50,312.65 349.53,333.52 349.58,301.74 349.64,261.37 349.69,237.50 349.77,225.53 349.84,210.84 349.92,191.98 350.03,190.55 350.12,215.94 350.22,244.77 350.34,278.29 350.46,284.64 350.58,233.63 350.72,261.15 350.85,341.93 350.99,350.41 351.15,327.89 351.30,295.04 351.45,241.59 351.63,176.89 351.80,262.12 351.96,398.15 352.16,413.38 352.33,373.62 352.51,279.14 352.71,179.07 352.90,276.90 353.08,353.33 353.30,341.13 353.49,226.75 353.68,320.69 353.90,372.27 354.10,230.41 354.29,176.36 354.52,295.30 354.72,285.75 354.91,246.99 355.14,343.24 355.33,237.67 355.53,316.66 355.75,307.59 355.94,262.45 356.16,314.70 356.35,155.17 356.54,225.06 356.75,360.26 356.93,258.68 357.11,309.24 357.31,325.78 357.48,302.21 357.64,348.38 357.83,306.04 357.99,238.15 358.14,272.50 358.31,258.52 358.45,204.49 358.59,209.00 358.74,251.22 358.87,229.55 358.99,230.61 359.12,278.88 359.23,288.87 359.33,266.89 359.44,259.50 359.53,264.22 359.61,281.86 359.69,311.41 359.76,333.42 359.82,331.68 359.88,285.53 359.93,237.16 359.96,203.29 360.00,189.89 360.02,195.38 360.03,206.50 360.04,215.38 360.04,178.71 360.05,176.70 360.06,174.03 360.09,176.23 360.11,185.64 360.16,203.01 360.20,216.29 360.25,224.66 360.32,237.46 360.38,263.06 360.45,301.93 360.55,343.45 360.63,353.64 360.73,316.32 360.84,250.68 360.95,234.30 361.08,274.96 361.20,306.48 361.32,288.37 361.47,260.93 361.61,280.43 361.75,294.38 361.92,183.83 362.07,202.15 362.23,260.04 362.42,275.50 362.58,286.48 362.75,280.02 362.95,223.53 363.13,229.85 363.31,194.20 363.52,184.74 363.70,171.28 363.89,150.04 364.11,282.95 364.30,327.52 364.50,275.23 364.72,334.25 364.92,258.57 365.11,260.34 365.34,324.90 365.53,279.97 365.73,282.90 365.96,308.33 366.15,240.28 366.34,349.17 366.57,255.17 366.76,228.68 366.94,291.35 367.16,254.38 367.34,174.67 367.52,189.58 367.73,263.20 367.90,205.02 368.07,204.43 368.27,345.91 368.43,318.91 368.58,298.08 368.76,403.83 368.91,258.39 369.05,184.44 369.21,309.83 369.34,305.44 369.49,257.95 369.61,272.92 369.73,306.21 369.85,273.55 369.95,209.28 370.05,193.59 370.15,247.83 370.23,276.99 370.30,256.06 370.38,267.74 370.44,316.29 370.50,332.60 370.55,276.49 370.59,227.91 370.62,199.62 370.64,189.95 370.66,192.79 370.67,197.08 370.67,331.75 370.67,330.43 370.68,326.93 370.71,320.05 370.74,313.00 370.77,306.62 370.82,303.33 370.87,309.45 370.93,330.54 371.01,374.98 371.08,393.26 371.16,369.77 371.26,369.41 371.35,338.64 371.45,278.43 371.57,243.79 371.68,260.10 371.80,307.02 371.95,311.31 372.08,225.84 372.21,209.11 372.38,325.99 372.52,288.17 372.67,242.23 372.85,232.71 373.01,223.90 373.18,231.49 373.37,288.44 373.55,247.06 373.72,252.36 373.93,281.73 374.11,271.50 374.33,237.89 374.51,311.39 374.70,302.27 374.93,291.51 375.12,282.30 375.31,230.59 375.54,238.99 375.73,252.60 375.93,296.76 376.16,295.34 376.35,248.08 376.55,266.08 376.77,254.18 376.97,309.97 377.16,325.36 377.38,280.38 377.57,363.81 377.75,283.00 377.97,322.75 378.15,411.34 378.32,345.85 378.52,345.49 378.69,289.11 378.86,208.83 379.05,272.23 379.21,308.26 379.36,231.12 379.53,195.37 379.68,275.52 379.81,303.71 379.97,280.55 380.09,328.56 380.21,394.87 380.35,284.22 380.46,215.86 380.56,190.89 380.67,206.87 380.76,232.38 380.84,251.83 380.93,266.86 381.00,272.48 381.06,269.98 381.12,261.50 381.16,257.62 381.20,261.81 381.24,275.38 381.26,288.44 381.28,298.27 381.29,301.25 381.29,295.82 381.30,295.37 381.31,291.35 381.33,275.64 381.36,233.32 381.39,185.34 381.44,150.24 381.50,157.20 381.55,210.32 381.62,258.43 381.70,211.95 381.78,160.57 381.86,175.43 381.97,265.36 382.07,323.00 382.18,308.59 382.31,276.41 382.42,292.36 382.55,278.47 382.70,165.29 382.83,180.84 382.97,266.09 383.14,253.70 383.29,244.97 383.45,332.39 383.64,302.74 383.80,189.22 383.97,258.03 384.17,293.08 384.34,241.99 384.52,200.40 384.74,190.98 384.92,201.67 385.11,296.21 385.33,229.30 385.52,224.87 385.71,352.07 385.93,324.85 386.13,373.41 386.32,323.69 386.55,377.95 386.75,254.49 386.94,212.40 387.17,317.25 387.36,253.36 387.59,295.45 387.78,288.77 387.97,187.96 388.19,248.99 388.37,334.73 388.56,244.03 388.77,289.04 388.95,287.39 389.12,238.05 389.32,351.52 389.48,279.19 389.65,178.50 389.83,170.14 389.98,260.32 390.13,329.23 390.30,279.91 390.44,197.79 390.57,152.24 390.72,184.82 390.84,280.75 390.95,381.33 391.08,341.39 391.18,300.72 391.28,276.48 391.38,228.78 391.46,193.22 391.54,195.57 391.62,258.40 391.68,346.95 391.73,421.76 391.79,337.49 391.83,290.14 391.86,266.31 391.89,256.96 391.90,255.40 391.91,255.14 391.91,349.37 391.92,350.53 391.93,353.48 391.95,348.28 391.98,317.45 392.01,270.21 392.06,231.41 392.11,235.48 392.17,273.27 392.24,319.02 392.31,311.60 392.39,278.12 392.49,242.19 392.58,226.19 392.69,256.81 392.80,301.01 392.91,234.67 393.05,190.32 393.17,224.51 393.30,229.17 393.46,292.34 393.60,380.77 393.74,286.73 393.92,167.34 394.07,202.14 394.23,236.81 394.42,173.64 394.59,215.35 394.76,215.30 394.97,243.92 395.15,294.30 395.33,202.97 395.54,247.02 395.73,327.95 395.92,253.07 396.14,220.98 396.33,234.40 396.53,245.33 396.75,254.49 396.95,271.16 397.14,262.67 397.37,205.08 397.57,222.59 397.76,323.17 397.99,208.32 398.18,167.06 398.37,273.08 398.59,209.68 398.78,199.25 398.97,344.26 399.18,241.32 399.36,196.52 399.54,325.07 399.74,321.00 399.91,275.04 400.08,337.94 400.27,214.34 400.43,222.39 400.58,270.59 400.75,174.00 400.90,189.35 401.06,306.05 401.19,201.66 401.32,152.12 401.46,213.43 401.58,224.58 401.68,176.96 401.80,161.39 401.90,201.59 401.99,281.59 402.09,387.46 402.16,373.71 402.23,326.47 402.30,285.04 402.36,247.57 402.40,214.45 402.45,194.20 402.48,194.98 402.50,206.60 402.52,221.93 402.53,229.67 402.54,231.36 402.54,323.49 402.55,360.71 402.57,383.15 402.60,323.09 402.63,272.41 402.68,259.83 402.73,292.39 402.79,302.52 402.85,261.33 402.93,230.87 403.01,241.68 403.10,239.87 403.20,222.35 403.30,260.63 403.40,333.64 403.53,346.78 403.65,305.56 403.77,259.06 403.92,239.43 404.06,258.83 404.20,333.25 404.37,312.20 404.52,370.75 404.67,309.97 404.86,243.34 405.02,265.51 405.19,308.15 405.39,239.64 405.56,352.87 405.77,246.18 405.95,217.32 406.13,281.57 406.35,357.55 406.54,321.96 406.73,315.51 406.95,318.58 407.15,226.56 407.34,211.18 407.57,327.99 407.77,388.93 407.96,340.65 408.19,232.93 408.38,209.84 408.58,314.64 408.80,388.91 408.99,403.09 409.18,335.33 409.40,300.18 409.59,373.90 409.77,238.60 409.98,239.12 410.16,307.20 410.34,244.30 410.54,225.11 410.70,298.54 410.86,318.88 411.05,208.92 411.20,175.67 411.35,261.88 411.52,365.87 411.66,247.06 411.79,270.89 411.94,301.20 412.06,289.83 412.18,273.66 412.31,283.38 412.41,300.80 412.51,311.87 412.61,331.68 412.70,291.63 412.77,241.88 412.85,225.65 412.91,232.07 412.97,236.20 413.03,254.84 413.07,298.77 413.10,359.63 413.13,358.89 413.14,321.92 413.16,292.66 413.16,291.88 413.16,289.27 413.17,269.16 413.19,230.52 413.22,186.19 413.26,156.14 413.30,165.13 413.35,202.11 413.41,239.56 413.47,231.70 413.54,213.72 413.63,226.24 413.72,255.31 413.81,274.96 413.92,286.87 414.03,268.70 414.14,225.29 414.27,187.63 414.39,209.64 414.52,272.78 414.68,278.12 414.82,193.59 414.96,207.64 415.14,238.69 415.29,245.76 415.45,319.74 415.64,254.64 415.81,251.57 415.98,326.66 416.18,318.52 416.36,266.70 416.54,289.04 416.76,251.84 416.94,195.46 417.13,252.32 417.35,327.08 417.55,333.77 417.74,294.32 417.97,237.66 418.16,315.92 418.36,287.72 418.58,271.18 418.78,321.22 418.97,219.36 419.20,289.01 419.39,385.51 419.62,409.23 419.81,228.20 420.00,162.71 420.21,300.66 420.40,405.55 420.58,310.33 420.78,222.93 420.96,128.70 421.13,196.56 421.32,324.98 421.49,240.09 421.65,220.77 421.83,303.73 421.98,218.06 422.12,178.94 422.28,193.49 422.42,209.90 422.54,231.19 422.69,243.31 422.80,207.05 422.91,189.21 423.03,278.63 423.13,405.53 423.22,305.32 423.32,225.63 423.40,205.56 423.46,198.80 423.54,184.66 423.59,175.43 423.64,183.30 423.69,217.04 423.72,258.27 423.75,299.94 423.77,336.79 423.78,352.15 423.78,355.63 423.78,325.04 423.79,309.96 423.81,269.10 423.84,203.46 423.87,160.50 423.91,154.70 423.97,208.25 424.02,288.03 424.09,316.05 424.17,223.55 424.24,150.01 424.34,116.83 424.43,125.66 424.53,160.04 424.65,237.23 424.76,334.16 424.88,354.03 425.02,218.73 425.15,213.51 425.28,281.17 425.44,185.85 425.59,133.43 425.74,184.96 425.92,307.89 426.07,296.11 426.24,247.70 426.43,257.72 426.60,261.20 426.78,181.42 426.98,205.08 427.17,374.89 427.35,241.06 427.57,258.83 427.75,283.15 427.94,211.73 428.17,361.10 428.36,222.65 428.56,318.24 428.78,319.87 428.98,195.81 429.17,282.09 429.40,199.36 429.60,186.05 429.79,182.44 430.02,245.67 430.21,278.57 430.40,176.35 430.62,242.41 430.80,319.13 430.99,368.09 431.20,263.20 431.38,194.87 431.55,233.08 431.75,195.34 431.92,176.52 432.08,193.02 432.27,157.35 432.42,211.93 432.57,293.40 432.74,284.28 432.88,271.15 433.04,276.93 433.17,213.41 433.29,218.05 433.43,378.97 433.54,299.73 433.64,207.33 433.75,187.08 433.84,204.77 433.93,226.00 434.02,283.29 434.09,372.07 434.15,312.75 434.22,185.85 434.26,149.51 434.30,190.53 434.34,289.67 434.37,328.85 434.39,283.92 434.40,233.22 434.40,229.02 434.41,231.24 434.42,243.29 434.43,261.50 434.46,286.54 434.50,321.08 434.54,341.56 434.58,329.70 434.65,285.81 434.71,253.44 434.78,243.27 434.87,264.65 434.95,309.47 435.04,354.63 435.15,302.93 435.25,246.28 435.36,251.13 435.50,343.89 435.62,339.07 435.75,329.65 435.90,371.52 436.04,319.96 436.18,263.96 436.36,297.39 436.51,339.95 436.67,336.30 436.86,341.02 437.03,277.15 437.23,244.43 437.40,354.12 437.58,315.50 437.79,215.28 437.97,244.84 438.16,298.42 438.38,282.54 438.57,397.41 438.76,276.37 438.98,234.03 439.18,302.23 439.37,242.53 439.60,211.21 439.80,292.50 439.99,242.84 440.22,203.02 440.41,199.25 440.61,251.27 440.83,272.81 441.02,235.71 441.21,228.33 441.43,292.58 441.61,306.75 441.79,217.74 442.00,223.30 442.18,291.33 442.35,253.40 442.54,233.10 442.71,359.69 442.87,360.62 443.05,294.30 443.20,318.25 443.34,372.44 443.51,257.53 443.64,256.28 443.77,298.99 443.91,306.18 444.03,285.97 444.14,271.93 444.26,264.35 444.36,264.91 444.45,277.87 444.55,303.39 444.63,301.65 444.70,267.70 444.77,236.83 444.83,239.19 444.88,259.61 444.93,281.60 444.96,288.33 444.99,289.43 445.01,291.38 445.02,294.31 445.03,295.85 445.03,367.84 445.04,381.97 445.06,372.37 445.08,317.27 445.11,256.84 445.16,225.71 445.21,254.41 445.26,305.41 445.33,277.66 445.40,233.50 445.48,254.69 445.57,349.87 445.66,370.91 445.76,322.06 445.88,239.15 445.99,171.47 446.10,161.22 446.24,223.88 446.37,329.98 446.50,324.83 446.66,213.70 446.81,242.67 446.96,168.65 447.13,157.35 447.29,207.33 447.46,228.66 447.65,224.65 447.82,315.74 447.99,196.65 448.20,160.51 448.38,175.24 448.56,163.57 448.78,265.75 448.97,281.21 449.16,288.04 449.38,335.09 449.57,218.66 449.77,191.12 450.00,309.24 450.19,244.84 450.39,220.71 450.62,255.15 450.81,206.97 451.04,212.26 451.23,190.06 451.42,172.91 451.64,169.18 451.83,135.06 452.02,162.83 452.23,243.09 452.42,266.92 452.59,272.66 452.80,296.65 452.97,218.09 453.14,159.89 453.33,244.46 453.49,293.93 453.64,185.81 453.82,218.59 453.97,269.16 454.11,181.03 454.26,207.73 454.39,239.33 454.52,224.07 454.65,177.03 454.76,168.78 454.87,183.59 454.98,225.19 455.08,282.54 455.16,253.41 455.25,189.51 455.32,218.11 455.39,288.45 455.45,263.48 455.50,193.04 455.54,158.04 455.58,160.88 455.61,179.18 455.63,198.82 455.65,216.08 455.65,221.87 455.65,264.63 455.66,272.73 455.68,280.13 455.70,274.56 455.74,236.49 455.78,186.39 455.82,145.38 455.88,143.50 455.94,199.58 456.01,291.13 456.10,277.51 456.18,166.69 456.28,91.16 456.38,104.47 456.48,173.91 456.61,275.49 456.72,340.42 456.84,365.63 456.99,365.09 457.13,284.79 457.26,195.29 457.43,160.23 457.58,223.54 457.73,349.65 457.92,213.80 458.08,199.41 458.24,293.04 458.44,249.29 458.62,287.46 458.79,390.14 459.00,253.43 459.19,296.63 459.37,364.54 459.59,187.26 459.78,131.29 459.97,207.13 460.20,177.72 460.39,226.48 460.59,410.70 460.81,204.55 461.01,185.04 461.21,231.16 461.43,226.81 461.63,136.41 461.82,147.10 462.05,380.93 462.24,222.82 462.42,295.16 462.64,335.48 462.83,265.39 463.01,266.49 463.22,323.48 463.39,323.68 463.56,386.58 463.76,305.39 463.93,189.77 464.09,167.81 464.27,196.55 464.42,264.14 464.59,397.21 464.73,337.80 464.86,314.85 465.01,342.93 465.14,273.93 465.26,217.29 465.39,252.93 465.49,327.12 465.59,346.27 465.70,326.25 465.78,287.22 465.86,232.74 465.95,186.76 466.01,180.04 466.07,208.61 466.12,258.16 466.17,253.11 466.20,201.74 466.23,148.29 466.25,128.67 466.27,126.66 466.27,129.23 466.27,196.59 466.28,189.43 466.30,186.78 466.32,201.09 466.35,225.38 466.40,229.89 466.44,200.10 466.50,171.77 466.57,179.47 466.63,224.91 466.71,282.97 466.80,303.59 466.89,255.26 466.99,196.53 467.11,178.83 467.21,227.98 467.33,318.65 467.47,350.09 467.59,307.67 467.73,277.29 467.89,265.41 468.03,273.37 468.18,290.72 468.35,383.54 468.51,311.32 468.70,267.95 468.87,320.97 469.04,345.98 469.24,229.24 469.42,304.57 469.60,372.71 469.81,393.30 470.00,366.05 470.18,293.57 470.40,332.14 470.60,343.20 470.79,352.03 471.01,273.83 471.21,259.13 471.40,382.96 471.63,238.32 471.83,254.48 472.02,293.00 472.25,216.35 472.44,286.33 472.64,378.50 472.86,277.25 473.05,299.58 473.23,331.72 473.45,268.91 473.63,256.28 473.81,243.74 474.02,281.35 474.19,277.80 474.36,307.59 474.55,406.64 474.71,357.52 474.86,238.50 475.04,190.10 475.19,220.11 475.33,324.56 475.49,325.59 475.62,197.26 475.74,216.58 475.88,347.97 475.99,426.13 476.10,390.44 476.21,380.71 476.31,350.20 476.39,299.86 476.48,271.53 476.56,282.87 476.62,323.53 476.69,400.33 476.74,376.25 476.79,281.45 476.83,223.70 476.85,199.47 476.88,207.38 476.89,226.36 476.90,238.08 476.90,205.02 476.90,214.72 476.92,234.96 476.95,274.06 476.98,320.09 477.01,371.28 477.07,401.37 477.12,376.28 477.18,356.94 477.26,335.53 477.33,299.52 477.41,271.18 477.51,309.20 477.61,399.46 477.71,291.77 477.84,263.08 477.95,356.20 478.07,347.91 478.22,278.54 478.35,275.14 478.49,280.55 478.65,228.54 478.80,194.19 478.95,282.00 479.14,284.15 479.30,290.21 479.46,384.81 479.66,280.58 479.83,255.72 480.01,343.77 480.22,229.92 480.40,218.40 480.59,322.60 480.81,263.38 481.00,207.58 481.19,248.39 481.41,248.65 481.61,228.67 481.80,236.65 482.03,209.22 482.22,289.53 482.45,327.57 482.65,324.72 482.84,267.58 483.07,256.93 483.26,337.29 483.45,291.34 483.67,348.78 483.86,393.78 484.04,359.86 484.25,242.45 484.43,205.43 484.61,291.51 484.81,292.20 484.98,208.91 485.14,238.47 485.33,254.42 485.49,261.69 485.64,292.49 485.81,297.67 485.95,247.83 486.09,213.51 486.24,241.99 486.36,317.79 486.48,368.88 486.61,363.22 486.72,337.11 486.82,312.47 486.93,301.43 487.02,305.32 487.09,299.46 487.18,285.54 487.24,280.56 487.30,278.49 487.36,271.81 487.41,263.73 487.44,257.67 487.48,254.61 487.50,253.58 487.51,252.46 487.52,251.43 487.52,169.68 487.53,178.90 487.54,201.01 487.56,217.98 487.59,209.05 487.64,164.77 487.68,139.49 487.73,163.88 487.80,266.04 487.87,382.56 487.95,350.47 488.04,315.58 488.12,335.26 488.23,349.97 488.33,308.42 488.44,252.12 488.57,216.13 488.69,229.61 488.82,236.24 488.97,172.52 489.11,169.09 489.25,294.31 489.42,328.41 489.57,251.43 489.73,264.11 489.92,312.80 490.08,151.97 490.25,153.14 490.46,285.80 490.63,223.31 490.81,146.77 491.02,200.54 491.21,301.05 491.40,347.78 491.62,315.12 491.81,223.35 492.00,195.61 492.23,300.94 492.42,196.44 492.62,186.87 492.85,192.96 493.04,158.42 493.24,298.79 493.46,222.51 493.66,160.96 493.85,228.41 494.07,304.17 494.26,344.24 494.45,335.12 494.66,345.39 494.85,236.27 495.03,140.55 495.23,251.68 495.40,411.86 495.57,391.04 495.77,382.35 495.93,265.12 496.11,193.43 496.26,348.95 496.41,242.00 496.57,132.07 496.71,181.98 496.84,272.93 496.99,368.85 497.11,376.14 497.22,350.13 497.34,263.47 497.44,187.28 497.54,153.00 497.64,146.46 497.72,150.60 497.79,169.28 497.87,205.18 497.93,235.93 497.98,255.71 498.03,248.74 498.07,222.09 498.09,197.53 498.12,186.46 498.13,188.84 498.14,192.84 498.14,182.71 498.15,172.56 498.16,158.76 498.19,157.70 498.22,185.40 498.25,241.22 498.30,311.79 498.36,312.22 498.41,258.93 498.49,207.84 498.56,207.27 498.64,259.66 498.75,359.70 498.84,346.82 498.94,274.69 499.06,246.25 499.18,258.07 499.30,247.38 499.44,214.74 499.57,202.49 499.71,212.77 499.87,209.10 500.02,214.04 500.17,247.96 500.35,228.50 500.52,207.24 500.71,245.94 500.88,360.51 501.05,370.40 501.26,291.63 501.43,313.11 501.62,272.53 501.83,235.39 502.02,329.18 502.21,339.90 502.43,320.27 502.62,356.01 502.82,280.94 503.05,359.33 503.24,348.02 503.44,218.69 503.66,344.78 503.86,325.63 504.05,280.55 504.28,324.60 504.47,253.11 504.66,197.23 504.88,223.96 505.07,270.53 505.26,308.12 505.47,241.32 505.65,178.12 505.83,242.38 506.03,255.93 506.20,236.64 506.36,210.66 506.55,308.21 506.71,285.21 506.86,209.55 507.03,214.36 507.17,259.15 507.31,255.80 507.46,275.48 507.59,377.85 507.71,269.94 507.84,204.55 507.95,222.41 508.05,236.39 508.16,219.84 508.25,195.27 508.33,182.55 508.41,197.87 508.48,231.45 508.55,271.48 508.60,289.19 508.65,292.76 508.69,294.84 508.72,301.59 508.74,310.60 508.76,317.82 508.76,319.84 508.76,252.88 508.77,264.51 508.78,282.69 508.81,288.94 508.84,254.76 508.88,217.55 508.92,216.42 508.98,280.38 509.04,332.78 509.10,270.11 509.19,179.88 509.27,151.86 509.35,175.75 509.46,249.44 509.56,247.57 509.67,207.59 509.80,303.02 509.92,372.75 510.04,282.64 510.19,289.34 510.33,267.90 510.47,186.72 510.64,222.30 510.79,355.46 510.95,274.95 511.14,381.80 511.30,308.99 511.47,181.11 511.67,242.64 511.85,247.63 512.03,252.13 512.24,307.10 512.42,186.29 512.61,199.21 512.83,287.19 513.02,179.52 513.22,267.56 513.44,287.94 513.64,255.32 513.83,295.27 514.06,338.83 514.25,308.62 514.48,342.65 514.68,218.68 514.87,211.88 515.10,217.98 515.29,154.24 515.48,206.39 515.69,231.77 515.88,123.94 516.06,190.98 516.27,233.47 516.45,154.25 516.62,125.13 516.82,231.17 516.99,295.91 517.15,196.52 517.33,218.58 517.48,202.47 517.63,149.53 517.80,172.37 517.93,174.32 518.07,171.11 518.21,212.39 518.33,163.61 518.45,142.47 518.57,222.89 518.67,329.92 518.77,311.99 518.87,242.18 518.95,247.21 519.02,280.64 519.10,278.90 519.16,247.45 519.22,231.17 519.27,251.67 519.31,288.34 519.34,307.51 519.36,292.80 519.38,275.50 519.39,266.71 519.39,192.84 519.39,200.25 519.40,219.97 519.43,262.93 519.46,315.66 519.49,369.99 519.54,375.65 519.59,338.07 519.66,302.21 519.73,276.19 519.80,248.43 519.89,221.75 519.98,210.65 520.07,223.05 520.18,282.99 520.29,274.38 520.40,203.64 520.54,162.33 520.67,151.46 520.80,172.95 520.95,246.33 521.10,321.52 521.24,247.20 521.42,164.39 521.57,234.30 521.73,268.62 521.93,198.58 522.09,290.38 522.27,308.38 522.47,195.01 522.65,208.70 522.83,214.34 523.05,218.44 523.23,326.60 523.42,304.17 523.65,288.04 523.84,241.09 524.03,229.44 524.26,330.03 524.45,294.94 524.65,258.59 524.88,209.52 525.07,212.09 525.27,307.84 525.49,280.35 525.69,246.26 525.88,278.41 526.10,356.09 526.29,298.10 526.47,285.22 526.69,310.55 526.87,326.43 527.04,314.43 527.24,159.46 527.41,173.71 527.58,252.99 527.77,229.24 527.93,169.61 528.11,181.79 528.25,243.75 528.40,252.37 528.56,252.62 528.69,257.27 528.81,275.81 528.95,301.47 529.07,253.99 529.18,178.42 529.30,153.81 529.39,208.07 529.48,281.99 529.57,328.72 529.65,355.19 529.72,358.24 529.79,322.13 529.84,310.22 529.88,316.92 529.93,301.77 529.96,265.47 529.98,236.98 530.00,225.53 530.01,225.83 530.01,386.02 530.02,392.49 530.03,402.60 530.05,392.34 530.08,347.83 530.11,305.34 530.16,272.85 530.22,251.72 530.27,241.09 530.34,239.94 530.42,282.76 530.50,370.80 530.58,322.32 530.69,193.99 530.79,165.29 530.90,214.82 531.03,283.65 531.14,230.46 531.27,193.17 531.42,239.98 531.55,205.02 531.69,173.10 531.86,199.02 532.01,166.14 532.20,173.91 532.36,273.34 532.52,262.78 532.72,155.67 532.89,229.66 533.06,347.41 533.27,307.61 533.46,306.28 533.64,202.56 533.86,177.05 534.05,274.29 534.24,340.58 534.46,322.34 534.65,269.60 534.85,377.31 535.08,249.00 535.27,223.07 535.47,352.36 535.70,170.47 535.89,297.96 536.08,315.01 536.31,245.55 536.50,292.22 536.69,344.35 536.91,354.13 537.10,318.23 537.28,264.01 537.49,219.73 537.67,297.34 537.84,258.49 538.04,222.16 538.20,251.75 538.37,284.43 538.55,242.72 538.70,275.70 538.85,244.41 539.02,249.14 539.16,250.50 539.29,254.05 539.44,288.40 539.56,355.28 539.67,357.00 539.80,218.80 539.90,176.05 540.00,216.00 540.10,277.79 540.18,305.44 540.27,297.52 540.34,276.20 540.40,280.21 540.46,334.51 540.51,390.96 540.55,344.63 540.58,273.71 540.61,241.59 540.62,232.36 540.63,233.69 540.63,314.64 540.64,312.29 540.65,305.81 540.67,299.33 540.70,293.73 540.74,289.89 540.78,290.53 540.83,293.54 540.90,288.96 540.96,270.26 541.03,245.63 541.12,228.08 541.21,232.99 541.30,258.48 541.41,306.67 541.52,344.19 541.63,343.41 541.77,338.63 541.89,307.19 542.02,273.23 542.18,299.85 542.32,337.91 542.46,377.06 542.64,345.07 542.79,323.27 542.95,369.37 543.14,261.65 543.31,252.91 543.48,288.70 543.69,275.43 543.87,192.32 544.05,251.91 544.26,367.49 544.45,313.00 544.64,295.36 544.86,339.81 545.05,274.59 545.25,296.27 545.47,235.07 545.67,180.06 545.89,280.40 546.09,256.71 546.29,276.81 546.51,294.59 546.71,291.73 546.90,415.90 547.12,334.78 547.31,340.80 547.50,322.31 547.72,253.18 547.90,238.29 548.08,336.72 548.29,224.07 548.46,180.91 548.63,226.37 548.83,295.45 548.99,300.21 549.15,266.75 549.33,276.24 549.47,321.83 549.62,314.64 549.78,272.57 549.91,346.04 550.04,334.32 550.18,236.38 550.30,222.09 550.40,223.38 550.52,225.47 550.62,248.58 550.71,290.60 550.81,337.87 550.88,360.00 550.95,347.72 551.02,305.36 551.08,264.63 551.12,225.41 551.17,189.81 551.20,176.23 551.22,179.82 551.24,196.71 551.25,209.90 551.26,272.96 551.26,279.59 551.27,293.77 551.29,305.31 551.32,302.49 551.35,293.80 551.40,302.75 551.45,340.04 551.51,394.96 551.58,351.10 551.65,277.14 551.73,234.45 551.83,248.31 551.92,296.82 552.02,341.49 552.14,352.98 552.25,313.14 552.37,249.94 552.51,185.00 552.64,174.97 552.78,195.75 552.94,239.20 553.09,273.74 553.24,201.70 553.42,183.79 553.58,172.70 553.74,167.96 553.93,289.03 554.11,350.31 554.28,221.27 554.49,236.58 554.67,239.87 554.85,274.13 555.07,327.36 555.26,219.83 555.45,267.73 555.67,180.70 555.87,193.05 556.06,347.11 556.29,265.38 556.49,260.35 556.68,271.96 556.91,154.14 557.10,292.76 557.30,345.35 557.52,286.24 557.71,268.73 557.90,167.01 558.12,210.08 558.31,350.30 558.49,376.00 558.70,273.63 558.88,162.11 559.06,180.91 559.26,344.73 559.42,273.73 559.61,277.79 559.77,247.86 559.92,172.88 560.10,166.27 560.24,196.07 560.38,184.97 560.53,218.89 560.66,299.37 560.78,357.16 560.92,356.15 561.03,332.13 561.13,309.98 561.24,297.08 561.33,307.22 561.42,315.30 561.50,279.93 561.57,248.41 561.64,248.25 561.70,256.86 561.75,224.67 561.79,173.68 561.82,139.70 561.85,144.88 561.86,170.55 561.88,199.80 561.88,177.81 561.88,176.36 561.89,176.77 561.91,191.95 561.94,227.63 561.98,271.52 562.02,262.39 562.07,217.99 562.13,186.14 562.19,194.88 562.26,216.35 562.35,206.00 562.44,165.46 562.53,145.68 562.64,177.88 562.75,206.33 562.86,198.27 562.99,180.00 563.11,190.11 563.24,215.56 563.40,198.78 563.54,183.69 563.71,253.27 563.86,214.61 564.01,180.80 564.20,227.42 564.36,304.54 564.53,325.99 564.73,319.15 564.90,262.94 565.08,210.71 565.29,184.23 565.48,275.68 565.66,352.92 565.88,282.44 566.07,274.98 566.27,311.14 566.49,402.24 566.69,276.92 566.88,256.96 567.11,236.64 567.30,316.87 567.50,277.80 567.73,175.98 567.92,266.10 568.11,291.12 568.34,333.99 568.53,377.02 568.72,289.40 568.93,203.57 569.12,165.26 569.30,205.71 569.50,358.89 569.68,322.85 569.85,342.29 570.04,267.44 570.21,189.99 570.37,189.68 570.55,194.13 570.70,162.91 570.84,247.12 571.00,372.87 571.14,359.17 571.26,317.84 571.41,296.20 571.52,273.20 571.63,235.64 571.75,194.59 571.85,182.40 571.94,181.35 572.04,182.45 572.12,185.36 572.20,205.53 572.26,245.13 572.31,292.32 572.37,306.10 572.41,268.67 572.44,224.52 572.47,189.55 572.49,174.89 572.50,169.17 572.50,170.57 572.50,168.77 572.51,164.62 572.54,163.28 572.56,169.01 572.59,178.04 572.64,180.56 572.69,169.94 572.74,156.98 572.82,163.63 572.89,202.81 572.96,262.11 573.06,278.15 573.15,216.01 573.25,160.24 573.37,157.68 573.48,213.57 573.60,299.74 573.74,293.89 573.87,281.36 574.00,331.77 574.16,332.19 574.31,351.90 574.46,304.92 574.64,222.32 574.79,199.02 574.96,283.96 575.15,299.27 575.32,214.65 575.50,160.27 575.70,139.31 575.89,142.69 576.07,205.03 576.29,352.56 576.47,332.89 576.66,240.55 576.89,289.32 577.08,292.83 577.31,258.04 577.50,285.02 577.70,293.65 577.93,183.91 578.12,200.16 578.32,322.51 578.54,310.69 578.74,272.63 578.93,291.15 579.15,302.29 579.34,316.81 579.52,248.51 579.74,126.42 579.92,155.95 580.10,272.51 580.30,343.38 580.47,327.33 580.64,299.48 580.83,219.07 580.99,240.16 581.14,265.88 581.32,296.46 581.46,293.05 581.60,251.85 581.76,203.95 581.89,192.81 582.01,226.12 582.15,261.28 582.26,266.92 582.36,270.24 582.47,263.36 582.56,272.23 582.65,255.46 582.74,201.96 582.81,167.36 582.87,163.92 582.94,206.58 582.98,266.44 583.02,306.60 583.06,288.85 583.09,256.39 583.11,235.28 583.12,225.43 583.12,241.27 583.13,241.39 583.14,242.74 583.15,243.67 583.18,235.49 583.22,207.73 583.26,187.09 583.31,197.90 583.37,239.35 583.43,289.45 583.51,333.86 583.59,342.72 583.67,293.97 583.77,213.74 583.87,196.01 583.97,261.06 584.10,397.09 584.22,261.22 584.34,175.03 584.49,215.37 584.62,271.68 584.76,321.11 584.93,289.93 585.08,173.06 585.23,267.28 585.42,354.04 585.58,326.47 585.75,357.72 585.95,223.66 586.12,159.01 586.30,323.90 586.51,202.33 586.69,214.30 586.88,241.14 587.10,179.62 587.29,214.24 587.48,341.77 587.70,296.53 587.90,205.72 588.09,247.31 588.32,269.21 588.52,153.30 588.71,191.78 588.94,312.02 589.13,325.72 589.33,296.17 589.55,235.15 589.74,185.33 589.93,202.15 590.15,214.13 590.33,158.54 590.51,184.46 590.72,228.93 590.90,199.62 591.10,184.64 591.26,208.10 591.43,223.66 591.61,394.33 591.77,259.73 591.92,147.62 592.09,195.06 592.23,305.46 592.36,225.00 592.51,164.46 592.63,176.54 592.75,162.67 592.88,162.15 592.98,181.78 593.08,218.56 593.19,242.47 593.27,244.26 593.35,273.67 593.43,307.48 593.49,255.30 593.55,187.08 593.61,150.30 593.65,157.23 593.68,180.12 593.71,199.29 593.73,201.59 593.74,197.93 593.75,195.61 593.75,341.49 593.76,340.28 593.78,342.21 593.80,349.17 593.83,348.77 593.88,318.32 593.93,281.68 593.98,255.05 594.05,244.24 594.12,252.30 594.20,281.58 594.29,346.15 594.38,392.81 594.48,379.89 594.60,369.79 594.71,357.79 594.82,339.41 594.96,367.02 595.09,320.93 595.22,232.84 595.38,225.08 595.53,309.98 595.70,252.63 595.86,243.43 596.01,301.05 596.20,312.89 596.37,254.05 596.54,258.19 596.74,143.05 596.92,206.69 597.10,207.31 597.31,140.81 597.50,230.27 597.69,243.90 597.91,215.46 598.10,356.16 598.29,328.62 598.52,333.94 598.72,340.59 598.91,380.36 599.14,218.62 599.34,175.93 599.53,377.09 599.76,200.96 599.95,157.81 600.14,184.08 600.36,205.74 600.55,241.15 600.74,303.41 600.95,205.88 601.14,211.67 601.31,181.43 601.52,175.59 601.69,218.51 601.86,235.48 602.05,232.64 602.21,218.61 602.36,147.11 602.54,203.93 602.69,379.63 602.83,278.35 602.98,219.84 603.11,244.92 603.24,265.29 603.37,213.19 603.48,160.21 603.59,149.20 603.70,156.83 603.80,152.19 603.89,184.29 603.97,247.68 604.04,289.66 604.12,272.41 604.17,260.80 604.22,279.11 604.27,310.94 604.30,309.54 604.33,287.38 604.35,266.41 604.37,258.53 604.37,256.41 604.37,190.51 604.38,197.04 604.40,214.72 604.42,258.73 604.46,319.40 604.50,387.08 604.55,353.46 604.60,289.48 604.66,250.24 604.74,239.43 604.82,244.19 604.90,240.09 605.00,213.67 605.10,197.55 605.20,227.37 605.33,306.16 605.44,332.37 605.56,296.24 605.71,253.22 605.85,211.96 605.98,188.92 606.15,243.18 606.30,277.40 606.45,263.51 606.64,233.15 606.80,256.25 606.96,305.27 607.16,383.82 607.34,357.44 607.51,286.13 607.72,203.47 607.91,278.23 608.09,311.38 608.31,304.11 608.50,289.15 608.69,235.63 608.92,286.54 609.11,288.28 609.34,297.10 609.53,320.86 609.73,309.80 609.96,290.64 610.15,334.43 610.35,293.61 610.57,215.71 610.77,247.84 610.96,206.12 611.18,192.28 611.36,354.91 611.55,364.49 611.76,280.22 611.94,248.99 612.11,388.21 612.31,297.26 612.48,280.37 612.65,298.06 612.83,306.13 612.99,257.00 613.14,257.90 613.31,271.79 613.45,307.37 613.58,274.18 613.73,243.15 613.86,243.54 613.98,259.59 614.11,291.42 614.21,285.29 614.31,235.65 614.42,209.65 614.50,222.31 614.58,246.31 614.67,279.32 614.73,304.79 614.79,319.51 614.84,317.99 614.89,303.39 614.92,282.52 614.95,257.57 614.97,239.99 614.99,228.12 614.99,222.71 614.99,249.61 615.00,239.60 615.02,222.99 615.04,214.58 615.08,220.74 615.12,237.09 615.16,253.90 615.23,270.31 615.29,287.92 615.35,297.61 615.44,269.98 615.52,229.05 615.61,196.78 615.72,194.19 615.83,235.61 615.93,276.35 616.07,212.36 616.19,199.91 616.31,341.23 616.47,265.66 616.61,218.65 616.75,258.11 616.92,291.01 617.07,271.31 617.23,258.20 617.42,274.42 617.59,199.05 617.76,249.11 617.96,324.20 618.14,341.00 618.32,340.96 618.53,227.72 618.72,196.63 618.90,284.34 619.12,383.50 619.32,338.57 619.51,255.28 619.73,257.34 619.93,318.02 620.12,232.77 620.35,302.74 620.55,280.57 620.74,235.67 620.97,320.33 621.16,322.12 621.36,380.53 621.58,334.28 621.77,296.73 621.95,312.84 622.17,247.65 622.35,234.77 622.56,273.68 622.74,276.51 622.91,251.71 623.10,284.24 623.27,284.25 623.43,244.82 623.61,223.54 623.76,267.19 623.91,316.04 624.07,380.89 624.21,383.99 624.34,359.99 624.48,277.64 624.60,194.44 624.71,216.48 624.83,341.01 624.93,391.16 625.03,292.81 625.13,220.37 625.20,202.06 625.28,218.73 625.35,262.45 625.41,286.81 625.46,273.09 625.51,234.47 625.55,209.54 625.57,198.94 625.60,199.61 625.61,204.09 625.62,206.89 625.62,205.96 625.62,203.64 625.64,203.20 625.67,208.34 625.70,211.24 625.73,200.26 625.79,169.94 625.84,149.93 625.90,155.54 625.98,196.36 626.05,232.00 626.13,227.74 626.23,190.74 626.33,177.82 626.43,172.98 626.56,157.29 626.67,182.15 626.79,263.34 626.94,300.52 627.07,295.68 627.23,341.17 627.37,263.73 627.52,146.40 627.70,156.27 627.86,251.92 628.02,269.10 628.21,245.28 628.38,244.92 628.55,227.84 628.76,262.32 628.94,281.47 629.12,243.57 629.34,267.28 629.53,380.85 629.72,251.46 629.94,169.71 630.13,311.13 630.33,297.96 630.55,277.95 630.75,368.36 630.94,215.02 631.17,180.83 631.37,185.17 631.56,276.85 631.79,221.55 631.98,190.96 632.17,323.37 632.39,247.97 632.58,195.52 632.76,244.28 632.97,347.12 633.15,375.74 633.33,247.12 633.53,148.99 633.70,205.70 633.86,276.09 634.05,288.26 634.21,231.82 634.36,182.84 634.53,178.27 634.67,241.19 634.81,322.35 634.96,326.22 635.08,263.44 635.20,239.71 635.33,300.70 635.44,386.58 635.56,318.31 635.65,217.60 635.74,162.10 635.83,150.02 635.90,155.94 635.96,169.01 636.03,207.01 636.08,259.36 636.13,302.26 636.17,290.63 636.20,250.84 636.22,218.55 636.23,199.18 636.24,193.98 636.24,172.59 636.25,166.67 636.26,167.25 636.28,188.53 636.32,252.42 636.36,335.85 636.40,397.55 636.46,327.05 636.52,289.63 636.59,300.60 636.67,362.32 636.76,343.50 636.84,242.83 636.95,166.85 637.05,195.76 637.16,300.49 637.29,331.66 637.41,289.13 637.54,310.46 637.69,383.33 637.83,377.77 637.97,353.66 638.14,340.13 638.29,271.31 638.45,247.70 638.64,302.86 638.81,327.88 638.97,240.43 639.18,217.62 639.35,301.81 639.53,351.08 639.74,343.14 639.93,257.42 640.12,190.17 640.34,360.33 640.53,349.91 640.75,342.57 640.95,284.01 641.14,194.16 641.37,282.98 641.57,222.86 641.76,177.00 641.99,247.19 642.18,300.02 642.38,289.01 642.60,320.84 642.79,273.16 642.98,232.22 643.20,339.49 643.38,220.24 643.57,250.30 643.78,333.79 643.95,377.09 644.12,317.27 644.32,321.43 644.49,355.92 644.65,324.01 644.83,298.52 644.98,305.89 645.13,249.38 645.29,236.41 645.43,261.18 645.56,304.52 645.71,332.27 645.83,301.58 645.94,252.41 646.06,213.47 646.16,215.53 646.26,234.88 646.36,213.34 646.44,185.15 646.51,191.43 646.59,235.82 646.65,281.93 646.70,310.20 646.75,300.94 646.79,275.61 646.81,255.29 646.84,244.72 646.85,243.27 646.86,243.78 646.86,187.54 646.87,183.24 646.89,178.27 646.91,182.13 646.94,201.72 646.98,254.64 647.02,320.79 647.08,338.27 647.14,274.15 647.21,263.60 647.28,303.99 647.38,268.03 647.47,206.13 647.56,212.94 647.68,275.35 647.78,298.22 647.90,272.49 648.04,237.14 648.16,272.39 648.29,301.13 648.45,263.17 648.59,226.07 648.74,289.45 648.92,305.84 649.07,182.13 649.24,185.96 649.43,341.34 649.60,353.47 649.77,314.00 649.98,333.43 650.15,282.79 650.34,258.00 650.55,236.57 650.74,272.05 650.93,329.76 651.15,334.74 651.34,288.09 651.54,168.19 651.77,175.73 651.96,219.42 652.16,280.86 652.38,302.27 652.58,264.24 652.77,378.01 653.00,369.20 653.19,343.46 653.38,255.77 653.60,155.34 653.79,181.37 653.98,177.79 654.19,198.99 654.37,309.89 654.58,206.12 654.75,236.16 654.92,243.89 655.11,174.05 655.27,211.56 655.43,270.15 655.60,190.20 655.75,239.33 655.89,284.94 656.05,267.41 656.18,284.27 656.31,297.01 656.45,329.43 656.56,345.15 656.67,233.58 656.79,159.62 656.88,178.54 656.97,234.78 657.06,283.49 657.13,295.90 657.20,298.57 657.27,291.30 657.32,268.29 657.37,229.73 657.41,180.36 657.44,152.75 657.46,147.62 657.48,161.47 657.48,172.94 657.48,270.65 657.49,262.70 657.50,244.55 657.53,219.20 657.56,197.41 657.60,201.18 657.64,229.16 657.70,266.40 657.76,266.16 657.82,250.36 657.91,266.94 657.99,315.85 658.07,327.18 658.18,248.96 658.28,211.92 658.39,258.24 658.52,345.30 658.64,348.94 658.78,278.72 658.92,245.12 659.05,275.57 659.22,338.66 659.36,277.57 659.51,191.13 659.70,249.63 659.86,219.99 660.02,197.82 660.22,271.86 660.39,239.34 660.57,273.30 660.78,344.07 660.96,163.47 661.14,235.61 661.36,307.46 661.55,190.70 661.74,243.94 661.97,340.07 662.16,317.09 662.36,266.86 662.58,245.39 662.78,256.71 662.97,233.85 663.20,221.69 663.40,250.19 663.59,261.53 663.82,220.73 664.01,211.53 664.20,209.82 664.41,307.88 664.60,287.84 664.78,338.78 664.99,306.80 665.17,249.90 665.34,307.97 665.54,351.36 665.71,311.01 665.87,346.04 666.05,239.38 666.20,237.07 666.35,251.93 666.52,267.54 666.65,259.65 666.79,244.75 666.93,214.05 667.05,246.10 667.17,332.39 667.29,292.77 667.39,257.61 667.50,274.17 667.59,304.97 667.67,285.64 667.76,219.70 667.82,190.58 667.88,201.93 667.94,246.76 667.99,280.01 668.03,285.72 668.06,271.02 668.08,260.55 668.10,257.00 668.11,257.14 668.11,306.70 668.11,320.54 668.13,364.80 668.15,409.80 668.18,334.04 668.22,224.74 668.26,157.46 668.31,134.42 668.38,160.34 668.45,204.53 668.52,239.90 668.61,238.94 668.70,211.91 668.79,204.31 668.90,239.20 669.01,225.88 669.12,163.12 669.26,137.43 669.39,168.79 669.52,223.58 669.67,207.40 669.82,152.79 669.96,206.42 670.14,333.47 670.29,284.35 670.45,195.99 670.65,155.21 670.81,161.60 670.99,243.07 671.19,393.73 671.37,391.63 671.55,288.70 671.77,223.51 671.95,252.82 672.18,291.64 672.37,309.00 672.56,290.09 672.78,204.24 672.98,218.93 673.17,338.80 673.40,253.22 673.60,218.52 673.79,237.97 674.02,255.16 674.21,228.72 674.41,245.04 674.63,367.31 674.82,293.75 675.01,196.76 675.22,288.24 675.41,257.64 675.59,149.22 675.79,226.44 675.97,336.22 676.13,210.77 676.33,197.87 676.49,258.04 676.65,229.06 676.83,201.92 676.97,272.21 677.12,276.30 677.28,197.77 677.41,242.92 677.53,210.07 677.67,176.74 677.79,189.42 677.90,228.84 678.02,267.73 678.11,211.12 678.20,136.55 678.29,129.22 678.37,195.38 678.44,280.38 678.51,324.48 678.56,310.86 678.60,303.07 678.65,309.20 678.68,308.41 678.70,298.92 678.72,290.30 678.73,288.26 678.73,198.17 678.74,204.26 678.75,217.57 678.77,242.31 678.80,271.62 678.83,306.64 678.88,346.37 678.94,367.14 678.99,361.96 679.07,317.65 679.14,267.54 679.22,241.08 679.32,264.56 679.41,285.42 679.51,230.29 679.63,160.82 679.75,196.71 679.86,312.80 680.01,273.88 680.14,161.86 680.27,163.32 680.44,256.77 680.58,241.69 680.73,170.77 680.92,154.90 681.08,181.30 681.24,160.44 681.44,168.61 681.61,289.79 681.78,341.58 681.99,251.71 682.18,225.91 682.36,278.50 682.58,209.49 682.77,293.90 682.96,269.63 683.18,141.52 683.37,180.89 683.57,331.35 683.80,331.66 683.99,306.55 684.19,207.52 684.42,210.66 684.61,217.50 684.80,155.94 685.03,231.85 685.22,292.57 685.41,177.76 685.63,260.84 685.82,206.05 686.03,163.13 686.21,194.15 686.39,192.63 686.59,248.39 686.76,272.81 686.92,242.22 687.11,310.22 687.27,401.99 687.42,292.88 687.60,310.78 687.74,393.10 687.88,275.31 688.03,214.09 688.16,232.42 688.28,271.79 688.41,228.89 688.52,170.65 688.62,164.79 688.73,171.68 688.82,162.06 688.90,160.37 688.99,179.90 689.06,208.79 689.12,241.76 689.18,279.28 689.23,306.73 689.27,327.00 689.30,339.48 689.33,341.45 689.34,338.78 689.35,335.17 689.35,301.75 689.36,297.11 689.37,284.70 689.39,272.97 689.42,261.08 689.46,239.47 689.50,212.26 689.55,189.37 689.62,188.01 689.68,210.28 689.75,240.06 689.84,279.10 689.93,321.71 690.02,314.47 690.13,258.39 690.24,236.73 690.35,247.70 690.49,275.52 690.61,230.07 690.76,246.24 690.90,285.93 691.04,215.33 691.21,218.75 691.36,303.08 691.51,359.41 691.70,249.20 691.86,330.29 692.03,279.78 692.23,244.06 692.41,315.91 692.59,243.25 692.80,211.36 692.98,296.53 693.17,224.46 693.39,238.54 693.58,284.45 693.77,366.77 694.00,318.29 694.19,194.94 694.39,222.14 694.62,179.63 694.81,224.14 695.01,264.02 695.23,194.26 695.43,315.01 695.62,340.59 695.84,237.70 696.03,277.60 696.22,298.50 696.44,235.41 696.62,203.07 696.80,292.17 697.01,362.50 697.18,361.67 697.35,333.94 697.55,243.64 697.71,199.30 697.87,255.94 698.05,275.73 698.19,265.42 698.34,321.99 698.50,371.83 698.63,372.22 698.76,334.87 698.90,266.20 699.02,193.63 699.14,157.44 699.24,179.28 699.34,205.21 699.44,219.52 699.53,236.62 699.60,267.15 699.68,308.08 699.74,335.70 699.80,348.60 699.85,334.20 699.89,306.00 699.92,281.72 699.95,269.49 699.96,270.59 699.97,274.79 699.98,270.32 699.98,279.60 699.99,305.38 700.01,347.54 700.04,339.35 700.07,267.71 700.12,181.61 700.17,146.45 700.23,159.27 700.30,204.00 700.37,216.87 700.45,201.13 700.55,192.20 700.64,203.79 700.74,211.85 700.86,196.11 700.97,233.90 701.09,346.20 701.23,286.89 701.36,237.13 701.50,244.06 701.66,247.65 701.81,209.52 701.96,156.17 702.14,163.36 702.30,160.30 702.46,186.53 702.65,167.43 702.83,179.07 703.00,208.86 703.21,155.27 703.39,213.80 703.61,167.27 703.79,158.51 703.98,280.80 704.20,172.03 704.39,166.81 704.59,167.85 704.81,200.35 705.01,294.42 705.21,192.55 705.43,231.50 705.63,298.93 705.82,260.60 706.05,288.97 706.24,235.95 706.43,290.09 706.66,283.01 706.84,126.47 707.03,195.94 707.24,325.08 707.42,237.76 707.60,230.00 707.80,173.34 707.98,160.11 708.14,247.48 708.33,166.87 708.49,249.00 708.64,331.37 708.82,287.53 708.96,243.74 709.10,212.71 709.25,209.19 709.38,220.23 709.50,281.70 709.64,307.71 709.75,299.56 709.85,299.30 709.96,288.58 710.05,269.38 710.14,256.06 710.22,229.70 710.29,191.27 710.36,170.57 710.42,187.82 710.47,217.00 710.51,222.00 710.54,189.07 710.57,156.89 710.59,137.13 710.60,128.22 710.60,272.81 710.60,262.51 710.61,235.76 710.63,199.00 710.66,161.02 710.70,149.20 710.74,166.92 710.79,226.27 710.85,300.51 710.91,378.96 711.00,396.09 711.07,359.31 711.16,338.23 711.26,313.23 711.36,298.51 711.47,307.32 711.60,331.06 711.71,309.14 711.84,279.54 711.99,244.64 712.12,200.58 712.26,197.79 712.43,287.01 712.58,279.65 712.73,279.40 712.92,260.41 713.08,250.42 713.25,276.02 713.45,349.82 713.62,186.47 713.80,206.19 714.01,265.43 714.20,272.81 714.38,248.50 714.60,175.73 714.79,210.71 714.99,295.79 715.21,243.48 715.41,157.53 715.60,238.89 715.83,333.48 716.02,366.53 716.22,389.68 716.45,241.29 716.64,228.51 716.83,267.60 717.06,311.30 717.25,309.45 717.47,368.54 717.65,292.41 717.84,183.31 718.05,372.81 718.22,277.84 718.40,171.59 718.60,200.81 718.77,226.12 718.93,227.03 719.11,200.45 719.27,174.90 719.42,266.38 719.58,342.95 719.72,254.59 719.86,231.02 720.01,287.29 720.13,365.80 720.24,359.28 720.37,292.18 720.47,290.05 720.57,270.10 720.68,236.21 720.76,266.04 720.84,332.08 720.92,359.77 720.98,331.22 721.03,310.31 721.09,282.21 721.13,244.20 721.16,207.65 721.19,183.88 721.21,180.27 721.22,183.76 721.22,221.65 721.22,218.17 721.23,207.97 721.26,193.91 721.28,187.95 721.31,195.25 721.36,225.90 721.41,265.99 721.46,300.67 721.54,314.10 721.61,315.76 721.68,319.25 721.78,326.39 721.87,337.77 721.97,312.37 722.09,249.11 722.20,218.56 722.34,232.87 722.46,272.15 722.59,277.38 722.74,207.70 722.88,218.78 723.03,205.41 723.20,165.89 723.36,242.79 723.51,344.97 723.70,358.89 723.87,361.28 724.04,326.53 724.25,238.91 724.42,239.20 724.61,327.35 724.82,288.28 725.01,222.55 725.19,259.30 725.42,156.39 725.61,151.73 725.80,332.11 726.03,251.03 726.22,234.88 726.42,285.89 726.65,238.64 726.84,165.70 727.04,125.74 727.26,158.21 727.46,171.06 727.65,138.64 727.87,293.36 728.06,247.06 728.24,137.36 728.46,168.19 728.64,229.65 728.82,260.32 729.02,283.27 729.19,173.99 729.36,239.76 729.55,324.30 729.71,243.33 729.86,200.49 730.04,178.43 730.18,179.62 730.32,263.97 730.48,300.43 730.61,243.15 730.75,244.68 730.87,279.67 730.98,306.22 731.10,321.91 731.19,286.88 731.28,235.39 731.38,204.66 731.46,216.27 731.53,257.18 731.60,321.24 731.66,368.33 731.70,396.26 731.75,419.06 731.78,412.84 731.81,375.70 731.83,333.70 731.84,309.50 731.84,301.85 731.85,169.37 731.86,160.73 731.87,153.35 731.90,158.53 731.94,182.21 731.98,220.88 732.03,259.52 732.09,252.49 732.15,207.84 732.23,150.48 732.31,124.94 732.39,130.97 732.49,167.82 732.59,200.27 732.69,212.52 732.82,208.58 732.94,222.49 733.06,293.58 733.21,334.78 733.34,232.41 733.48,233.32 733.65,254.13 733.80,202.21 733.95,134.59 734.14,189.81 734.30,369.68 734.47,339.03 734.67,291.84 734.84,311.04 735.02,227.34 735.23,187.49 735.41,251.93 735.63,274.18 735.82,275.04 736.01,289.84 736.23,145.97 736.42,317.39 736.62,332.72 736.85,179.55 737.04,180.70 737.24,281.14 737.46,173.37 737.66,173.20 737.85,316.89 738.08,331.73 738.27,337.60 738.46,269.65 738.68,205.05 738.87,252.27 739.05,293.44 739.26,366.08 739.44,214.73 739.62,191.98 739.82,212.33 739.98,275.20 740.15,311.14 740.33,262.21 740.49,240.15 740.64,282.90 740.81,198.89 740.95,154.54 741.08,178.04 741.23,278.74 741.35,320.30 741.47,250.19 741.60,206.75 741.70,215.10 741.80,245.27 741.91,287.06 741.99,312.86 742.07,315.64 742.15,288.81 742.21,255.26 742.27,231.52 742.33,236.67 742.37,272.89 742.40,327.94 742.43,390.88 742.45,399.04 742.46,372.57 742.47,364.92 742.47,235.26 742.48,234.10 742.50,235.95 742.52,246.80 742.56,276.32 742.60,312.50 742.65,348.27 742.71,377.48 742.77,381.59 742.84,350.73 742.93,284.93 743.01,228.40 743.10,210.33 743.21,270.83 743.32,335.93 743.43,288.53 743.56,238.85 743.68,290.91 743.81,365.82 743.97,362.34 744.10,365.14 744.25,378.91 744.42,300.14 744.58,261.86 744.73,271.36 744.92,341.66 745.09,336.69 745.26,251.03 745.46,185.47 745.64,275.65 745.82,307.35 746.03,225.82 746.22,246.63 746.41,363.26 746.63,402.83 746.82,363.26 747.02,295.28 747.24,183.35 747.44,206.10 747.63,254.65 747.86,211.95 748.06,233.06 748.25,244.26 748.48,252.35 748.67,289.36 748.86,272.24 749.08,202.37 749.27,194.26 749.49,340.97 749.67,326.73 749.86,227.73 750.06,214.71 750.24,289.25 750.41,273.93 750.61,179.16 750.77,234.22 750.93,322.98 751.11,319.66 751.26,326.38 751.41,339.75 751.57,255.52 751.70,206.87 751.83,261.81 751.98,256.93 752.09,230.38 752.20,258.70 752.33,334.73 752.42,368.06 752.52,319.23 752.61,300.92 752.69,322.25 752.76,337.06 752.84,316.87 752.89,297.95 752.94,297.26 752.99,317.64 753.02,341.37 753.05,358.77 753.07,364.44 753.09,362.06 753.09,360.20 753.09,178.25 753.10,186.93 753.12,207.16 753.14,251.98 753.18,304.57 753.22,336.24 753.27,298.89 753.32,260.03 753.38,253.75 753.46,277.31 753.54,269.98 753.62,226.79 753.72,203.49 753.82,228.90 753.94,254.95 754.05,245.91 754.16,255.66 754.31,313.35 754.43,328.98 754.57,214.34 754.73,197.20 754.87,259.83 755.02,285.78 755.20,304.75 755.36,346.16 755.52,384.67 755.71,281.00 755.88,280.01 756.06,207.12 756.26,170.94 756.44,184.29 756.63,230.56 756.84,198.74 757.03,173.41 757.22,277.20 757.44,368.72 757.64,230.57 757.83,189.38 758.06,358.87 758.25,393.74 758.45,342.91 758.68,225.23 758.87,147.73 759.07,188.47 759.29,171.36 759.49,160.90 759.68,155.21 759.90,140.93 760.08,231.63 760.27,212.00 760.48,170.75 760.66,145.15 760.83,162.61 761.03,161.39 761.20,131.98 761.37,136.70 761.55,139.68 761.71,173.52 761.86,262.38 762.03,326.25 762.17,302.20 762.30,269.00 762.45,285.89 762.58,317.43 762.72,317.51 762.83,262.90 762.93,208.59 763.05,212.14 763.14,240.74 763.22,202.64 763.31,139.08 763.39,126.00 763.45,148.66 763.52,193.58 763.57,224.80 763.61,237.00 763.65,233.67 763.67,229.04 763.69,228.24 763.71,230.00 763.71,230.87 763.71,240.75 763.72,236.05 763.74,233.02 763.76,234.92 763.80,242.38 763.84,251.01 763.88,269.05 763.95,319.64 764.01,366.62 764.07,316.20 764.16,234.36 764.24,212.33 764.33,233.96 764.44,265.94 764.55,268.15 764.65,257.74 764.79,258.52 764.91,265.93 765.03,247.74 765.19,250.05 765.33,245.06 765.47,196.26 765.64,191.15 765.79,234.42 765.95,318.09 766.14,255.83 766.31,186.76 766.48,204.43 766.68,234.24 766.86,232.49 767.07,167.81 767.25,200.91 767.44,367.94 767.65,270.64 767.84,372.26 768.04,295.70 768.26,291.38 768.45,379.12 768.65,224.06 768.88,339.20 769.07,210.10 769.27,214.03 769.50,249.34 769.69,222.07 769.88,323.58 770.11,202.82 770.30,193.63 770.49,379.71 770.71,219.09 770.89,194.48 771.07,290.91 771.28,311.82 771.46,260.81 771.63,250.66 771.82,270.27 771.99,263.76 772.15,205.26 772.33,166.62 772.48,225.21 772.63,262.67 772.79,302.22 772.93,304.26 773.06,286.32 773.20,307.45 773.32,345.48 773.43,344.20 773.55,315.84 773.65,283.26 773.75,234.63 773.85,215.54 773.92,249.24 774.00,282.86 774.07,245.65 774.13,188.86 774.18,155.83 774.23,150.86 774.27,155.45 774.30,153.84 774.32,149.60 774.33,147.88 774.34,148.00 774.34,343.31 774.34,336.20 774.36,294.61 774.39,231.12 774.42,164.02 774.46,117.76 774.51,134.27 774.56,212.27 774.63,333.59 774.70,290.21 774.77,190.65 774.87,138.36 774.95,158.55 775.05,220.65 775.17,292.93 775.28,309.40 775.39,281.96 775.53,275.57 775.66,311.89 775.79,327.42 775.95,302.77 776.09,282.85 776.24,259.94 776.42,188.65 776.58,175.95 776.74,201.39 776.93,237.66 777.10,297.76 777.27,266.57 777.48,156.83 777.66,210.11 777.84,232.46 778.06,234.20 778.25,297.23 778.44,271.17 778.66,264.92 778.85,328.32 779.05,255.42 779.27,237.47 779.47,170.85 779.66,126.22 779.89,203.23 780.09,232.87 780.28,194.36 780.51,154.27 780.70,265.29 780.92,279.16 781.11,238.83 781.30,254.98 781.51,206.00 781.69,188.63 781.87,163.02 782.08,152.41 782.25,163.84 782.42,181.00 782.61,211.06 782.77,289.12 782.93,232.73 783.10,234.06 783.25,361.05 783.39,301.02 783.55,149.32 783.68,182.04 783.80,282.46 783.94,234.24 784.05,175.08 784.16,155.09 784.28,179.76 784.37,225.86 784.46,271.17 784.55,292.67 784.62,285.66 784.69,284.81 784.75,313.56 784.80,350.54 784.85,341.20 784.89,273.28 784.92,219.47 784.94,184.91 784.95,166.63 784.96,162.23 784.96,275.75 784.97,262.45 784.98,241.58 785.00,218.77 785.04,200.33 785.08,197.39 785.12,206.70 785.18,229.57 785.24,257.93 785.31,295.01 785.39,337.59 785.48,332.95 785.58,273.02 785.67,241.93 785.77,287.17 785.90,374.57 786.01,349.25 786.13,316.49 786.28,274.07 786.41,257.92 786.55,274.20 786.71,305.42 786.86,288.64 787.01,223.81 787.20,271.11 787.36,332.20 787.53,296.43 787.72,318.98 787.90,296.00 788.07,210.08 788.28,304.50 788.46,372.47 788.65,357.31 788.87,369.45 789.06,292.53 789.25,304.48 789.47,300.78 789.67,232.45 789.86,175.05 790.09,271.89 790.29,300.13 790.48,258.92 790.71,211.46 790.90,178.67 791.10,291.75 791.32,290.80 791.51,295.38 791.70,316.12 791.92,265.25 792.10,215.87 792.29,186.05 792.50,243.33 792.67,329.64 792.85,346.54 793.04,324.43 793.21,359.51 793.37,409.47 793.55,338.68 793.70,261.41 793.85,249.92 794.01,278.71 794.15,207.79 794.30,187.60 794.43,229.20 794.55,279.08 794.68,266.85 794.78,220.56 794.88,198.29 794.99,225.79 795.08,253.84 795.16,256.82 795.24,252.94 795.31,254.64 795.37,258.12 795.43,261.53 795.47,264.03 795.51,265.84 795.54,266.60 795.56,266.55 795.57,266.42 795.58,266.36 795.58,181.92 795.59,184.72 795.61,189.48 795.63,192.44 795.66,194.23 795.70,199.16 795.74,211.26 795.80,232.37 795.86,258.35 795.93,266.63 796.00,263.04 796.10,264.22 796.19,273.04 796.28,269.36 796.40,233.77 796.50,215.97 796.62,230.83 796.76,254.40 796.88,262.89 797.01,310.36 797.17,315.06 797.31,225.97 797.46,238.97 797.64,317.92 797.79,351.29 797.96,265.83 798.15,299.71 798.32,326.56 798.52,264.44 798.70,283.75 798.88,321.98 799.09,255.93 799.27,302.80 799.46,348.78 799.68,235.15 799.87,252.13 800.06,385.65 800.29,256.06 800.49,355.63 800.68,294.66 800.91,212.03 801.10,327.11 801.30,345.39 801.53,392.16 801.72,292.61 801.91,263.08 802.14,245.50 802.32,213.06 802.51,362.81 802.73,264.40 802.91,227.72 803.09,282.71 803.30,261.91 803.47,217.09 803.64,228.30 803.83,272.97 803.99,313.61 804.15,333.88 804.32,315.37 804.47,299.69 804.61,256.26 804.77,245.25 804.90,267.47 805.03,264.23 805.17,255.97 805.28,300.54 805.39,321.17 805.51,277.63 805.60,252.96 805.69,239.90 805.78,232.86 805.85,234.34 805.92,249.43 805.99,292.35 806.04,335.26 806.09,327.96 806.13,264.40 806.16,217.56 806.18,190.09 806.20,184.42 806.20,184.85 806.20,318.07 806.21,321.37 806.22,329.71 806.25,343.65 806.28,343.78 806.32,317.36 806.37,272.49 806.42,249.49 806.48,258.57 806.55,311.14 806.63,359.46 806.71,364.48 806.81,387.75 806.90,375.93 807.00,265.93 807.13,161.39 807.24,148.38 807.36,214.52 807.50,235.11 807.64,174.76 807.77,176.78 807.94,220.17 808.08,232.60 808.23,242.02 808.42,272.81 808.58,222.45 808.74,260.77 808.94,286.61 809.11,282.90 809.29,310.06 809.50,247.31 809.68,251.64 809.86,309.36 810.08,212.98 810.27,258.80 810.46,386.21 810.69,367.60 810.88,330.20 811.08,183.94 811.30,263.96 811.50,295.31 811.69,198.54 811.92,315.67 812.12,207.22 812.34,179.35 812.54,302.76 812.73,357.62 812.95,416.24 813.14,278.86 813.32,248.42 813.53,295.78 813.71,272.42 813.89,289.88 814.09,348.31 814.26,312.13 814.43,371.44 814.61,311.33 814.77,264.22 814.92,318.86 815.09,341.89 815.24,225.37 815.37,190.72 815.53,227.46 815.65,200.12 815.77,201.76 815.90,244.59 816.01,230.05 816.11,206.27 816.22,189.60 816.31,176.58 816.39,172.33 816.48,197.67 816.54,252.29 816.60,330.48 816.66,399.68 816.71,326.91 816.75,255.02 816.78,201.97 816.80,183.43 816.82,180.54 816.83,182.70 816.83,325.67 816.83,321.89 816.85,312.18 816.87,304.29 816.90,303.62 816.94,311.58 816.98,308.02 817.03,279.89 817.10,238.86 817.17,224.83 817.24,241.10 817.33,284.68 817.42,317.25 817.52,318.31 817.62,283.37 817.73,270.04 817.86,341.17 817.98,329.81 818.11,243.85 818.26,294.25 818.39,362.80 818.54,300.60 818.71,319.25 818.86,342.74 819.01,230.33 819.20,179.68 819.37,212.76 819.53,226.90 819.74,241.36 819.91,295.86 820.09,229.85 820.30,178.98 820.49,214.98 820.67,218.81 820.90,202.38 821.09,335.11 821.28,214.47 821.50,211.86 821.70,267.13 821.89,290.25 822.12,288.73 822.32,280.62 822.51,283.02 822.74,202.10 822.93,177.13 823.13,196.59 823.35,244.21 823.54,232.35 823.73,195.28 823.94,253.75 824.13,243.14 824.31,225.53 824.51,216.90 824.69,220.60 824.85,212.47 825.05,220.96 825.21,296.29 825.37,277.26 825.55,225.27 825.69,287.63 825.86,351.39 826.00,273.22 826.13,237.63 826.27,272.23 826.39,308.09 826.51,277.70 826.63,248.57 826.74,253.05 826.83,259.28 826.93,253.91 827.01,254.19 827.09,264.40 827.17,274.86 827.23,268.18 827.28,244.35 827.33,214.03 827.37,203.67 827.40,213.40 827.43,241.74 827.44,266.37 827.45,280.69 827.45,240.83 827.46,254.30 827.47,284.74 827.49,321.97 827.52,301.53 827.55,238.62 827.60,190.06 827.66,207.51 827.71,275.08 827.79,335.79 827.86,308.72 827.94,284.71 828.04,291.72 828.13,299.18 828.23,236.60 828.35,167.45 828.47,207.40 828.58,270.75 828.73,223.31 828.86,166.87 828.99,158.62 829.16,258.90 829.30,230.19 829.45,174.62 829.64,280.49 829.80,210.05 829.96,171.50 830.16,255.81 830.33,249.65 830.53,205.96 830.71,181.35 830.90,234.86 831.11,227.91 831.30,116.23 831.49,232.25 831.71,284.41 831.90,347.22 832.09,311.45 832.32,129.80 832.52,346.05 832.71,239.45 832.94,157.58 833.14,197.09 833.33,186.76 833.56,203.71 833.75,235.30 833.94,327.37 834.16,271.88 834.35,123.97 834.54,206.42 834.75,377.15 834.93,290.36 835.11,284.02 835.31,162.16 835.48,120.70 835.64,283.37 835.83,383.02 835.99,300.67 836.14,238.02 836.32,133.81 836.46,115.07 836.60,242.70 836.75,270.92 836.88,202.03 837.00,215.26 837.13,325.96 837.24,337.45 837.34,248.43 837.45,213.41 837.54,236.27 837.62,283.91 837.71,353.38 837.78,378.40 837.84,324.59 837.90,262.52 837.95,233.52 837.99,227.15 838.02,237.06 838.05,252.43 838.06,268.60 838.07,276.48 838.07,226.32 838.08,221.14 838.09,212.28 838.11,203.89 838.14,196.81 838.18,189.83 838.22,178.96 838.28,164.72 838.34,156.34 838.40,151.07 838.48,144.23 838.56,145.76 838.65,170.06 838.75,216.10 838.85,238.01 838.96,242.71 839.09,267.74 839.21,326.88 839.33,334.18 839.48,264.51 839.62,268.39 839.76,282.73 839.93,181.70 840.08,155.11 840.23,216.67 840.42,316.85 840.58,245.53 840.75,235.53 840.95,210.70 841.13,178.57 841.31,225.62 841.52,318.34 841.70,256.66 841.89,246.20 842.11,268.89 842.30,387.34 842.49,212.93 842.72,250.55 842.91,286.17 843.11,180.94 843.34,238.84 843.53,388.19 843.73,271.05 843.95,209.27 844.15,293.43 844.37,377.94 844.56,252.72 844.75,296.41 844.97,299.18 845.16,222.30 845.34,190.61 845.55,217.77 845.73,249.14 845.90,317.82 846.10,327.12 846.27,365.20 846.43,328.25 846.61,170.36 846.77,152.45 846.91,287.38 847.08,212.18 847.22,162.81 847.35,196.25 847.50,241.65 847.62,190.10 847.74,193.32 847.86,318.28 847.96,318.73 848.06,246.22 848.16,248.22 848.25,283.87 848.32,309.93 848.40,304.83 848.46,282.29 848.52,267.20 848.57,263.12 848.61,253.98 848.64,231.13 848.67,200.67 848.68,182.42 848.69,173.26 848.70,202.01 848.70,203.12 848.71,206.27 848.73,216.35 848.76,237.54 848.79,272.05 848.84,304.94 848.89,289.47 848.95,247.50 849.02,211.97 849.09,207.33 849.18,230.23 849.27,274.71 849.36,325.80 849.48,306.83 849.58,249.04 849.69,227.92 849.83,288.86 849.95,366.85 850.08,289.60 850.24,197.73 850.38,205.50 850.53,259.10 850.70,256.47 850.86,236.20 851.02,225.19 851.21,280.03 851.37,299.02 851.55,284.50 851.75,305.56 851.93,366.03 852.11,193.28 852.33,196.95 852.51,249.64 852.70,293.79 852.92,314.36 853.11,263.96 853.31,245.25 853.53,297.25 853.73,400.92 853.93,359.93 854.15,307.79 854.35,193.97 854.54,195.19 854.77,245.44 854.96,270.08 855.15,260.24 855.38,199.30 855.56,271.26 855.75,343.86 855.96,224.47 856.14,280.17 856.32,379.59 856.52,310.48 856.70,317.80 856.86,343.04 857.05,313.77 857.21,290.35 857.39,304.96 857.54,296.15 857.68,273.07 857.84,306.74 857.98,294.17 858.10,272.16 858.24,249.07 858.36,216.53 858.47,211.38 858.59,215.52 858.68,220.58 858.77,215.41 858.87,194.89 858.94,202.16 859.01,237.97 859.08,284.62 859.14,309.51 859.19,327.94 859.23,355.60 859.26,376.87 859.29,374.58 859.31,351.81 859.32,336.88 859.32,221.73 859.32,218.81 859.33,211.83 859.35,203.13 859.38,195.03 859.42,193.04 859.46,196.10 859.52,200.99 859.57,199.79 859.63,192.83 859.72,183.80 859.79,179.88 859.88,186.26 859.98,212.29 860.08,237.82 860.19,272.89 860.32,385.88 860.43,353.98 860.56,299.01 860.71,282.59 860.84,278.16 860.98,320.72 861.15,353.76 861.30,312.08 861.45,312.75 861.64,331.72 861.80,305.44 862.00,197.59 862.17,258.60 862.34,280.10 862.55,197.78 862.73,221.88 862.92,228.81 863.13,273.43 863.32,352.83 863.51,318.54 863.74,287.34 863.93,230.66 864.13,229.27 864.35,262.69 864.55,226.43 864.74,283.92 864.97,214.28 865.17,189.27 865.36,330.23 865.59,256.16 865.78,180.79 865.97,243.00 866.19,391.35 866.37,337.63 866.56,230.17 866.77,199.76 866.94,234.10 867.12,300.49 867.32,316.38 867.49,357.62 867.65,392.58 867.83,259.03 867.99,233.66 868.14,258.38 868.30,289.55 868.44,301.72 868.58,316.40 868.73,250.74 868.85,172.33 868.96,167.89 869.09,262.96 869.19,347.68 869.29,282.62 869.40,210.28 869.48,209.03 869.56,236.84 869.64,252.87 869.70,241.69 869.76,219.19 869.81,199.43 869.85,180.37 869.89,162.70 869.91,154.92 869.93,153.52 869.94,155.20 869.94,251.88 869.94,250.54 869.96,248.59 869.98,252.30 870.00,259.01 870.04,252.46 870.08,227.31 870.13,199.68 870.19,180.56 870.26,169.34 870.33,157.66 870.42,167.69 870.50,216.72 870.59,278.41 870.71,321.56 870.81,331.21 870.92,288.87 871.06,247.20 871.18,256.97 871.31,313.81 871.46,361.51 871.60,295.91 871.75,253.12 871.92,320.68 872.08,376.76 872.23,359.75 872.42,340.35 872.59,344.86 872.76,214.15 872.97,165.37 873.14,241.22 873.33,270.08 873.54,158.84 873.73,204.23 873.91,201.72 874.14,255.40 874.33,307.57 874.52,223.54 874.75,244.39 874.94,248.38 875.14,257.13 875.37,297.95 875.56,337.06 875.79,210.83 875.98,179.89 876.18,333.06 876.40,283.08 876.59,278.13 876.78,323.24 877.00,206.78 877.18,219.44 877.36,338.52 877.57,272.29 877.74,306.97 877.91,380.97 878.11,227.95 878.27,242.85 878.43,323.19 878.61,341.22 878.76,334.66 878.90,375.11 879.07,264.72 879.20,164.42 879.33,148.17 879.47,156.14 879.59,163.07 879.70,210.76 879.82,341.78 879.91,370.05 880.00,290.08 880.10,226.98 880.18,189.49 880.25,175.80 880.32,210.93 880.38,277.29 880.42,313.64 880.47,248.54 880.50,185.25 880.53,153.23 880.55,150.66 880.56,159.68 880.56,163.79 880.57,196.13 880.57,203.33 880.59,218.14 880.61,246.81 880.63,276.60 880.66,296.73 880.70,289.37 880.73,268.53 880.79,256.99 880.83,267.81 880.89,290.82 880.96,314.70 881.02,332.23 881.09,361.80 881.17,383.10 881.25,327.43 881.33,264.01 881.43,216.73 881.52,212.67 881.61,250.00 881.73,302.35 881.83,289.70 881.93,252.65 882.06,258.32 882.17,305.20 882.28,302.55 882.42,243.23 882.54,209.11 882.66,208.89 882.81,219.47 882.93,223.59 883.06,210.69 883.21,198.01 883.35,201.25 883.48,236.96 883.64,284.54 883.77,248.25 883.91,205.84 884.07,262.85 884.20,274.51 884.34,218.73 884.50,206.56 884.64,248.69 884.77,241.26 884.93,197.18 885.06,247.72 885.20,331.65 885.35,368.36 885.48,363.88 885.61,374.16 885.76,402.42 885.88,356.03 886.00,349.70 886.14,310.70 886.26,270.84 886.38,294.96 886.51,356.30 886.61,399.06 886.74,350.05 886.84,278.55 886.94,223.48 887.04,220.52 887.13,274.89 887.22,334.31 887.32,334.84 887.39,300.60 887.47,263.82 887.54,230.12 887.61,214.64 887.67,211.45 887.73,220.39 887.78,235.77 887.82,255.29 887.87,279.79 887.90,299.52 887.93,316.22 887.96,330.87 887.98,339.46 887.99,345.02 888.00,348.46 888.00,349.24" fill="none" stroke="#000" stroke-width="1.5" opacity="0.9"/>
<text x="500.0" y="502" font-family="Times New Roman" font-size="19" text-anchor="middle">Julian Date</text>
<text transform="translate(18,247.0) rotate(-90)" font-family="Times New Roman" font-size="19" text-anchor="middle">position residual (km)</text>
</svg>
