<svg xmlns="http://www.w3.org/2000/svg" width="920" height="520" viewBox="0 0 920 520">
<rect width="100%" height="100%" fill="white"/>
<text x="460.0" y="24" font-family="Times New Roman" font-size="24" text-anchor="middle">Mars native position residual</text>
<line x1="112" y1="434" x2="888" y2="434" stroke="#333"/>
<line x1="112" y1="60" x2="112" y2="434" stroke="#333"/>
<line x1="112" y1="434.00" x2="888" y2="434.00" stroke="#ddd"/>
<text x="104" y="438.00" font-family="Times New Roman" font-size="17" text-anchor="end">0</text>
<line x1="112" y1="340.50" x2="888" y2="340.50" stroke="#ddd"/>
<text x="104" y="344.50" font-family="Times New Roman" font-size="17" text-anchor="end">0.2073</text>
<line x1="112" y1="247.00" x2="888" y2="247.00" stroke="#ddd"/>
<text x="104" y="251.00" font-family="Times New Roman" font-size="17" text-anchor="end">0.4147</text>
<line x1="112" y1="153.50" x2="888" y2="153.50" stroke="#ddd"/>
<text x="104" y="157.50" font-family="Times New Roman" font-size="17" text-anchor="end">0.622</text>
<line x1="112" y1="60.00" x2="888" y2="60.00" stroke="#ddd"/>
<text x="104" y="64.00" font-family="Times New Roman" font-size="17" text-anchor="end">0.8293</text>
<line x1="112.00" y1="434" x2="112.00" y2="439" stroke="#333"/>
<text x="112.00" y="456" font-family="Times New Roman" font-size="17" text-anchor="middle">2378495</text>
<line x1="306.00" y1="434" x2="306.00" y2="439" stroke="#333"/>
<text x="306.00" y="456" font-family="Times New Roman" font-size="17" text-anchor="middle">2433282</text>
<line x1="500.00" y1="434" x2="500.00" y2="439" stroke="#333"/>
<text x="500.00" y="456" font-family="Times New Roman" font-size="17" text-anchor="middle">2488070</text>
<line x1="694.00" y1="434" x2="694.00" y2="439" stroke="#333"/>
<text x="694.00" y="456" font-family="Times New Roman" font-size="17" text-anchor="middle">2542858</text>
<line x1="888.00" y1="434" x2="888.00" y2="439" stroke="#333"/>
<text x="888.00" y="456" font-family="Times New Roman" font-size="17" text-anchor="middle">2597645</text>
<polyline points="112.00,307.93 112.01,324.75 112.02,371.32 112.05,352.60 112.09,306.75 112.13,333.49 112.19,307.15 112.25,303.93 112.31,340.32 112.38,325.55 112.45,317.39 112.52,329.84 112.58,336.19 112.64,359.42 112.69,408.85 112.73,402.96 112.77,368.23 112.79,378.36 112.81,357.62 112.81,377.83 112.83,368.60 112.89,352.93 112.98,321.66 113.11,351.86 113.25,284.24 113.42,330.59 113.60,267.96 113.80,304.48 114.01,251.04 114.21,321.80 114.41,260.50 114.60,288.41 114.76,309.81 114.92,264.98 115.04,340.06 115.14,298.98 115.21,369.04 115.24,315.91 115.25,362.15 115.28,298.24 115.35,294.66 115.44,321.91 115.57,201.80 115.72,258.38 115.89,215.80 116.09,175.09 116.28,254.24 116.49,183.27 116.69,255.89 116.89,174.77 117.07,220.74 117.24,370.34 117.39,337.90 117.50,341.42 117.59,412.73 117.65,373.72 117.67,411.11 117.68,365.91 117.73,369.20 117.80,414.33 117.91,389.81 118.04,393.46 118.20,340.55 118.37,295.82 118.57,320.68 118.77,308.56 118.98,380.81 119.18,353.38 119.37,291.33 119.55,294.86 119.71,332.54 119.85,304.13 119.96,282.55 120.04,365.63 120.09,377.24 120.11,385.54 120.12,379.55 120.17,331.93 120.26,293.54 120.37,354.21 120.51,297.08 120.68,221.58 120.85,192.20 121.05,156.92 121.25,186.86 121.46,233.09 121.66,173.37 121.85,185.01 122.03,290.38 122.18,332.24 122.32,342.76 122.42,290.05 122.49,294.98 122.53,350.42 122.54,401.83 122.57,405.33 122.62,358.48 122.72,357.02 122.84,367.76 122.98,338.66 123.15,369.10 123.34,307.82 123.54,333.05 123.74,331.76 123.94,319.49 124.14,342.64 124.33,319.76 124.50,333.03 124.65,350.27 124.78,368.48 124.87,401.14 124.94,347.90 124.97,378.66 124.98,302.50 125.01,293.08 125.08,298.65 125.17,365.07 125.30,304.61 125.45,321.47 125.63,319.03 125.82,336.51 126.02,301.29 126.22,289.51 126.42,351.84 126.62,354.74 126.80,327.45 126.97,288.58 127.12,311.42 127.23,346.20 127.32,358.44 127.38,351.57 127.40,325.37 127.41,335.43 127.46,317.99 127.53,377.68 127.64,296.26 127.77,346.23 127.93,365.92 128.11,404.19 128.30,299.91 128.50,302.17 128.71,277.53 128.91,286.58 129.10,336.09 129.28,288.16 129.45,403.10 129.58,315.35 129.69,378.32 129.77,392.36 129.82,317.25 129.84,376.60 129.85,364.75 129.90,351.22 129.99,312.37 130.10,370.11 130.24,347.71 130.41,307.20 130.59,333.70 130.78,317.69 130.98,319.76 131.19,293.55 131.39,300.56 131.58,320.46 131.76,337.18 131.92,331.67 132.05,352.04 132.15,360.43 132.22,329.16 132.26,352.57 132.27,320.06 132.30,330.55 132.36,346.02 132.45,359.37 132.57,352.16 132.72,314.97 132.88,391.39 133.07,350.63 133.27,323.94 133.47,259.83 133.68,294.22 133.87,292.77 134.06,404.38 134.23,296.26 134.38,300.51 134.51,399.24 134.60,375.27 134.67,337.52 134.70,300.07 134.71,349.81 134.74,362.34 134.81,352.57 134.91,323.05 135.04,310.66 135.19,306.41 135.36,340.75 135.55,303.05 135.75,339.33 135.95,302.48 136.16,297.78 136.35,304.95 136.54,348.24 136.70,319.01 136.85,337.09 136.97,294.58 137.05,323.12 137.11,312.16 137.13,417.28 137.14,367.06 137.19,315.06 137.26,362.86 137.37,344.75 137.50,372.31 137.67,316.83 137.84,297.91 138.03,299.58 138.24,289.99 138.44,322.86 138.64,313.61 138.83,341.79 139.01,319.62 139.18,375.36 139.31,338.22 139.43,379.48 139.51,349.78 139.55,337.40 139.57,330.05 139.58,310.39 139.64,336.50 139.72,306.13 139.84,299.99 139.98,234.04 140.14,330.71 140.32,228.85 140.51,265.25 140.72,209.31 140.92,243.78 141.13,220.23 141.31,367.51 141.49,278.76 141.65,264.46 141.78,304.74 141.88,377.17 141.95,235.25 141.99,378.94 142.00,349.53 142.03,366.81 142.09,331.73 142.18,335.79 142.30,312.85 142.45,310.46 142.61,317.98 142.80,289.49 143.00,375.05 143.21,299.61 143.41,326.47 143.61,300.13 143.79,295.87 143.96,389.21 144.12,357.42 144.24,363.51 144.34,333.36 144.40,318.93 144.43,349.47 144.44,306.46 144.47,295.61 144.54,357.03 144.64,345.62 144.77,304.25 144.92,392.98 145.09,253.42 145.29,202.39 145.48,190.74 145.69,215.04 145.89,223.66 146.08,241.53 146.27,275.29 146.44,381.99 146.58,347.31 146.70,287.78 146.79,376.09 146.84,350.51 146.87,377.63 146.88,351.37 146.92,362.47 147.00,428.40 147.10,374.37 147.24,364.29 147.40,336.45 147.57,277.60 147.77,257.41 147.97,276.44 148.18,268.91 148.37,329.96 148.56,285.50 148.75,326.70 148.91,295.31 149.05,287.91 149.16,356.83 149.24,420.22 149.28,369.27 149.30,347.77 149.32,370.19 149.37,322.97 149.45,311.19 149.57,367.49 149.71,351.80 149.87,320.24 150.05,276.83 150.25,277.50 150.45,303.64 150.65,364.53 150.86,322.29 151.04,346.98 151.22,290.98 151.38,328.48 151.51,358.55 151.61,355.41 151.68,385.04 151.72,329.02 151.73,391.80 151.76,381.71 151.82,379.52 151.91,349.09 152.03,366.94 152.18,310.81 152.35,327.75 152.53,303.31 152.74,285.92 152.94,379.66 153.14,276.91 153.34,310.03 153.52,279.73 153.70,351.37 153.85,389.41 153.97,319.92 154.07,289.61 154.13,366.25 154.16,403.69 154.17,380.71 154.20,326.45 154.27,395.24 154.37,400.25 154.50,308.83 154.65,298.24 154.83,294.17 155.02,259.11 155.22,321.88 155.42,306.40 155.62,350.69 155.82,300.73 156.00,324.94 156.17,292.28 156.31,366.21 156.43,358.98 156.52,362.19 156.57,385.98 156.60,335.71 156.61,347.73 156.65,307.76 156.73,365.83 156.83,344.05 156.97,299.97 157.13,233.62 157.31,240.27 157.50,232.01 157.70,228.54 157.91,229.00 158.10,227.64 158.30,248.51 158.48,212.53 158.64,319.46 158.78,286.92 158.89,372.19 158.97,376.73 159.01,324.57 159.03,353.61 159.05,403.88 159.10,423.37 159.18,368.34 159.30,373.13 159.44,342.07 159.60,236.89 159.79,248.35 159.98,237.02 160.18,281.28 160.39,336.98 160.59,254.22 160.78,303.18 160.95,276.87 161.11,295.90 161.24,282.23 161.34,278.93 161.42,291.18 161.45,348.05 161.46,329.43 161.49,321.77 161.55,287.00 161.64,258.26 161.76,318.47 161.91,302.21 162.08,220.53 162.27,289.43 162.47,228.77 162.67,188.89 162.87,192.13 163.07,206.47 163.26,289.98 163.43,258.51 163.58,291.63 163.70,296.02 163.80,267.35 163.86,288.70 163.89,282.87 163.90,286.29 163.93,358.77 164.00,378.66 164.11,380.52 164.23,288.56 164.39,287.69 164.56,263.42 164.75,218.04 164.95,196.10 165.15,286.07 165.36,195.55 165.55,189.25 165.74,251.62 165.90,242.71 166.04,352.21 166.16,244.41 166.25,358.63 166.31,361.49 166.33,249.25 166.34,315.57 166.38,368.87 166.46,403.89 166.57,310.49 166.70,371.08 166.86,348.67 167.04,309.75 167.23,345.77 167.43,362.03 167.64,299.62 167.84,262.03 168.03,280.63 168.21,298.16 168.37,318.22 168.51,312.34 168.62,306.65 168.70,322.16 168.75,302.86 168.76,366.40 168.78,413.81 168.83,383.57 168.92,327.60 169.03,337.84 169.17,313.39 169.33,277.15 169.52,384.60 169.71,281.31 169.92,303.83 170.12,262.57 170.32,334.51 170.51,274.16 170.68,332.23 170.84,323.94 170.97,349.17 171.08,332.62 171.15,292.41 171.19,308.67 171.19,323.86 171.22,398.22 171.28,344.00 171.37,389.25 171.50,354.74 171.65,384.16 171.81,354.65 172.00,315.24 172.20,340.48 172.40,328.82 172.60,299.47 172.81,302.51 172.99,363.12 173.16,350.27 173.31,365.13 173.43,340.40 173.53,349.57 173.59,327.90 173.62,305.46 173.63,321.68 173.67,345.51 173.74,377.96 173.84,380.46 173.97,359.02 174.12,380.65 174.29,333.95 174.48,328.28 174.68,294.39 174.89,349.74 175.09,306.16 175.28,294.09 175.47,324.56 175.63,309.08 175.78,368.52 175.89,332.81 175.98,389.06 176.04,413.98 176.06,335.70 176.07,319.96 176.11,329.80 176.19,369.10 176.30,303.03 176.43,291.78 176.59,245.91 176.77,327.85 176.97,249.44 177.17,286.46 177.37,320.19 177.57,308.21 177.76,348.91 177.95,294.99 178.10,363.54 178.24,313.31 178.35,357.06 178.43,418.10 178.48,370.50 178.49,382.94 178.51,404.03 178.56,384.88 178.65,340.59 178.76,389.92 178.90,330.20 179.07,382.09 179.25,330.31 179.45,328.07 179.65,333.41 179.85,397.21 180.06,340.28 180.24,405.90 180.42,344.10 180.57,368.70 180.71,392.93 180.81,375.36 180.88,355.03 180.92,330.20 180.92,220.34 180.95,327.44 181.01,207.23 181.11,318.51 181.23,271.97 181.38,225.73 181.55,304.74 181.73,154.40 181.93,139.92 182.13,172.89 182.34,179.92 182.54,225.30 182.72,283.91 182.90,245.41 183.04,264.81 183.17,332.71 183.26,274.86 183.32,229.27 183.35,322.33 183.36,365.65 183.40,306.62 183.47,377.92 183.57,400.20 183.70,309.75 183.85,384.17 184.03,359.19 184.21,340.73 184.42,326.36 184.62,364.22 184.82,320.71 185.02,325.02 185.20,327.66 185.37,350.75 185.51,372.79 185.62,306.21 185.71,347.95 185.77,393.77 185.79,369.27 185.80,331.19 185.85,367.65 185.92,367.89 186.03,325.39 186.17,348.36 186.32,238.71 186.51,327.24 186.70,224.42 186.90,195.18 187.10,288.27 187.30,217.22 187.50,222.09 187.68,208.72 187.84,366.73 187.97,257.29 188.08,319.55 188.16,384.47 188.21,286.90 188.22,368.34 188.24,408.84 188.29,357.65 188.38,339.92 188.49,412.18 188.64,360.29 188.80,330.76 188.99,249.83 189.18,299.86 189.38,263.67 189.59,325.11 189.79,268.51 189.98,351.49 190.15,304.34 190.30,323.53 190.44,303.76 190.54,305.88 190.61,317.14 190.65,304.39 190.65,308.94 190.68,369.48 190.74,354.08 190.84,347.56 190.96,390.81 191.11,339.47 191.28,282.03 191.47,310.84 191.66,258.42 191.87,312.54 192.07,275.44 192.27,346.66 192.46,276.70 192.63,346.51 192.77,304.07 192.90,363.42 192.99,365.72 193.05,400.42 193.08,364.79 193.09,301.59 193.13,391.50 193.20,399.23 193.30,374.35 193.43,335.44 193.59,320.28 193.76,332.45 193.94,330.98 194.15,301.68 194.35,384.93 194.56,305.77 194.75,306.88 194.94,288.98 195.10,300.25 195.24,336.34 195.36,328.74 195.44,349.58 195.50,359.99 195.52,363.23 195.53,350.64 195.58,355.11 195.65,345.42 195.76,354.19 195.90,396.41 196.06,319.11 196.24,315.60 196.43,296.29 196.63,373.04 196.83,319.83 197.04,311.17 197.23,316.49 197.41,310.24 197.57,322.59 197.70,319.08 197.82,353.04 197.89,413.54 197.94,335.08 197.95,385.65 197.97,350.04 198.03,404.97 198.11,304.98 198.23,375.23 198.37,300.73 198.53,302.47 198.72,279.44 198.91,257.36 199.12,267.28 199.32,275.63 199.52,280.18 199.71,317.88 199.88,331.86 200.04,366.28 200.17,373.76 200.27,386.51 200.34,293.12 200.38,372.45 200.39,351.48 200.41,425.29 200.48,301.29 200.57,333.07 200.70,296.12 200.84,332.19 201.01,195.72 201.20,184.25 201.40,196.03 201.60,231.79 201.80,252.60 202.01,247.11 202.19,220.76 202.36,307.25 202.51,287.44 202.63,357.07 202.72,275.57 202.79,358.04 202.81,315.36 202.82,334.40 202.86,370.72 202.93,311.79 203.03,391.44 203.16,368.58 203.32,337.87 203.49,281.59 203.68,398.16 203.88,275.02 204.09,238.02 204.29,247.91 204.48,262.39 204.67,248.25 204.83,352.44 204.97,329.70 205.09,330.20 205.18,414.50 205.23,334.83 205.25,297.26 205.26,281.71 205.31,375.16 205.39,374.39 205.49,391.57 205.63,345.40 205.79,205.26 205.97,271.97 206.17,268.75 206.36,180.60 206.57,112.05 206.77,130.12 206.96,200.26 207.14,119.27 207.30,281.15 207.44,179.36 207.55,254.29 207.62,406.42 207.67,241.66 207.68,406.52 207.70,382.98 207.76,327.47 207.84,314.62 207.96,364.17 208.10,247.24 208.27,299.84 208.45,254.78 208.65,333.40 208.85,269.27 209.05,270.05 209.25,234.60 209.44,226.28 209.62,238.88 209.77,234.72 209.90,336.30 210.00,327.77 210.07,284.50 210.11,257.04 210.12,342.96 210.15,367.72 210.21,310.93 210.30,357.73 210.43,337.51 210.57,318.12 210.75,301.00 210.93,399.09 211.13,319.37 211.33,269.96 211.53,309.41 211.74,319.07 211.92,302.94 212.09,315.54 212.24,310.72 212.36,354.17 212.46,332.74 212.52,377.90 212.54,383.74 212.55,269.44 212.59,338.44 212.66,340.80 212.76,291.27 212.89,307.93 213.05,345.59 213.23,346.70 213.41,383.06 213.62,278.26 213.82,314.03 214.02,310.86 214.22,352.82 214.40,377.38 214.57,362.62 214.71,332.52 214.82,358.02 214.91,420.99 214.96,322.95 214.98,319.04 214.99,396.13 215.04,389.98 215.12,339.24 215.22,402.36 215.36,337.35 215.52,305.41 215.71,364.89 215.90,297.97 216.09,303.72 216.30,300.29 216.50,340.36 216.70,387.84 216.87,343.36 217.04,417.27 217.17,345.42 217.28,391.11 217.36,363.26 217.40,346.32 217.41,356.04 217.43,265.89 217.49,358.50 217.58,325.89 217.69,287.75 217.84,335.32 218.00,267.48 218.19,249.85 218.38,286.85 218.58,221.57 218.79,231.44 218.98,333.76 219.18,273.26 219.35,296.38 219.50,295.39 219.63,329.84 219.73,400.55 219.80,330.55 219.84,380.48 219.85,391.94 219.88,342.21 219.94,385.40 220.03,364.45 220.16,389.09 220.31,340.04 220.48,303.33 220.66,293.38 220.86,345.28 221.06,283.81 221.27,298.09 221.47,318.82 221.66,352.06 221.82,367.91 221.97,365.78 222.09,371.34 222.19,315.85 222.25,346.40 222.28,321.42 222.28,327.79 222.32,371.12 222.39,304.15 222.50,319.84 222.63,331.62 222.78,291.99 222.96,236.25 223.14,265.85 223.35,139.94 223.55,131.30 223.76,221.99 223.95,197.78 224.13,352.90 224.30,226.19 224.44,228.46 224.55,308.55 224.64,387.05 224.69,351.64 224.71,292.90 224.72,397.88 224.77,333.57 224.85,394.61 224.96,359.41 225.10,383.48 225.26,405.61 225.44,297.08 225.63,368.40 225.83,273.46 226.03,257.42 226.24,268.12 226.43,267.00 226.60,269.46 226.77,335.85 226.90,337.40 227.01,359.21 227.09,306.78 227.13,330.00 227.14,296.40 227.16,349.34 227.22,342.91 227.31,373.32 227.43,322.22 227.57,295.08 227.73,356.95 227.92,229.01 228.11,335.93 228.32,312.38 228.52,360.81 228.72,239.13 228.91,333.65 229.08,292.07 229.24,278.68 229.36,301.93 229.47,303.68 229.53,289.49 229.57,303.11 229.58,374.14 229.61,353.02 229.67,336.47 229.77,356.63 229.89,345.38 230.04,344.78 230.21,331.55 230.40,312.49 230.59,344.92 230.80,352.11 231.00,387.19 231.20,334.19 231.39,410.89 231.55,325.42 231.70,357.58 231.82,335.85 231.92,390.28 231.98,349.63 232.01,330.65 232.01,325.98 232.05,329.74 232.13,387.50 232.23,340.22 232.36,351.71 232.51,358.20 232.69,287.48 232.88,307.89 233.08,302.54 233.29,314.66 233.49,344.07 233.68,306.57 233.86,350.56 234.03,326.27 234.17,336.86 234.28,325.12 234.37,368.72 234.42,347.34 234.44,318.89 234.45,377.38 234.50,348.09 234.58,341.45 234.69,325.44 234.83,337.65 234.99,304.70 235.17,293.26 235.36,310.35 235.56,342.66 235.77,377.12 235.97,383.33 236.16,312.53 236.34,292.99 236.50,328.76 236.64,334.13 236.74,345.10 236.82,313.37 236.86,322.82 236.87,394.67 236.90,400.03 236.95,285.94 237.04,280.08 237.16,368.80 237.30,233.41 237.47,410.44 237.65,218.01 237.85,264.11 238.05,286.90 238.25,325.26 238.45,243.13 238.64,299.61 238.82,320.78 238.97,253.60 239.10,303.66 239.20,358.81 239.26,317.68 239.30,355.98 239.31,357.64 239.34,428.10 239.40,345.57 239.50,335.83 239.62,360.20 239.77,361.22 239.94,390.95 240.13,318.18 240.33,359.83 240.53,331.04 240.73,318.88 240.93,299.65 241.12,325.92 241.29,348.81 241.44,350.17 241.55,371.04 241.65,339.12 241.71,412.78 241.74,331.10 241.74,324.77 241.78,254.54 241.86,362.08 241.96,295.80 242.09,247.63 242.24,287.00 242.42,240.12 242.61,183.35 242.82,185.38 243.02,186.80 243.22,274.05 243.42,212.53 243.60,199.51 243.76,322.97 243.90,352.56 244.01,343.58 244.10,361.16 244.15,366.95 244.17,351.85 244.18,345.17 244.23,363.60 244.31,331.68 244.42,363.23 244.56,308.16 244.72,387.62 244.90,408.02 245.09,363.89 245.29,315.79 245.50,311.22 245.70,317.11 245.90,331.10 246.07,342.68 246.23,354.23 246.37,389.25 246.47,366.53 246.55,373.94 246.59,389.59 246.60,278.87 246.63,379.94 246.68,379.73 246.77,257.15 246.89,332.83 247.03,174.86 247.20,273.02 247.39,202.75 247.58,317.32 247.78,131.76 247.99,186.84 248.18,152.24 248.38,198.67 248.55,214.57 248.70,291.41 248.83,358.39 248.93,195.52 249.00,312.73 249.03,272.77 249.04,354.01 249.07,306.17 249.13,360.62 249.23,302.21 249.35,267.98 249.51,317.72 249.68,248.41 249.86,360.91 250.06,241.46 250.26,265.06 250.47,231.91 250.67,250.22 250.85,269.89 251.02,330.39 251.17,305.93 251.29,288.74 251.38,254.68 251.44,394.50 251.47,295.11 251.48,359.35 251.52,373.03 251.59,387.62 251.69,339.08 251.82,371.33 251.98,324.19 252.15,401.46 252.34,311.20 252.55,372.45 252.75,262.78 252.95,322.28 253.15,281.64 253.33,311.38 253.49,383.02 253.63,392.86 253.75,318.26 253.83,378.19 253.88,369.72 253.90,392.01 253.91,347.02 253.96,375.15 254.04,370.73 254.16,307.81 254.29,351.24 254.46,328.33 254.63,312.72 254.83,305.58 255.03,384.12 255.23,267.97 255.44,254.33 255.63,309.67 255.80,323.24 255.96,364.51 256.10,283.52 256.21,355.85 256.28,345.16 256.32,343.82 256.33,351.38 256.36,400.65 256.41,312.38 256.50,334.46 256.62,326.14 256.76,389.54 256.93,338.78 257.12,362.99 257.31,349.44 257.52,281.48 257.72,294.64 257.92,300.72 258.11,310.32 258.28,343.06 258.43,370.32 258.56,336.27 258.66,384.61 258.73,318.85 258.76,346.23 258.77,375.18 258.80,354.60 258.87,396.71 258.96,308.71 259.09,333.58 259.24,314.74 259.41,279.95 259.60,308.48 259.79,277.02 260.00,303.12 260.20,318.02 260.40,309.20 260.59,384.00 260.75,312.75 260.90,391.98 261.02,309.40 261.11,360.97 261.17,391.95 261.20,306.82 261.21,313.30 261.25,300.80 261.32,371.38 261.42,267.25 261.55,316.86 261.71,303.74 261.88,247.07 262.08,224.44 262.28,292.94 262.49,272.65 262.69,221.86 262.88,307.57 263.06,329.63 263.22,341.31 263.37,350.31 263.48,348.02 263.56,385.70 263.61,348.41 263.63,367.60 263.65,366.88 263.69,348.06 263.78,298.89 263.89,336.80 264.02,312.80 264.19,279.90 264.37,318.13 264.56,318.08 264.76,260.66 264.97,262.72 265.17,271.19 265.36,371.19 265.54,289.28 265.69,385.50 265.83,292.09 265.94,328.97 266.01,357.90 266.05,320.47 266.06,342.61 266.09,391.74 266.14,312.98 266.24,294.01 266.35,325.55 266.49,338.90 266.66,326.78 266.85,264.31 267.05,237.63 267.25,207.34 267.45,220.95 267.65,206.80 267.84,223.07 268.01,338.62 268.16,270.22 268.29,362.39 268.39,348.29 268.46,327.31 268.49,306.34 268.50,329.45 268.53,390.50 268.60,344.98 268.69,398.32 268.82,347.69 268.97,417.53 269.14,368.77 269.33,354.67 269.53,297.69 269.73,294.86 269.93,369.27 270.13,289.09 270.32,299.30 270.49,358.41 270.63,318.80 270.75,326.49 270.84,317.11 270.90,342.82 270.93,303.65 270.94,419.51 270.98,334.35 271.05,353.99 271.15,317.79 271.29,368.53 271.44,343.75 271.62,347.73 271.81,304.67 272.01,315.37 272.22,328.54 272.42,382.94 272.61,367.62 272.79,356.94 272.96,344.62 273.10,355.04 273.21,322.28 273.29,360.13 273.34,347.22 273.36,346.75 273.38,375.76 273.43,404.99 273.51,353.10 273.62,381.24 273.76,357.02 273.92,337.77 274.10,307.63 274.29,288.40 274.49,295.33 274.70,378.46 274.90,317.04 275.09,340.89 275.27,336.42 275.43,339.07 275.56,330.90 275.67,362.08 275.74,351.88 275.78,341.85 275.80,405.94 275.82,404.97 275.87,397.81 275.97,370.98 276.08,380.03 276.23,312.85 276.40,380.82 276.58,297.15 276.78,243.89 276.98,313.18 277.19,285.67 277.38,340.69 277.57,294.01 277.74,389.49 277.89,299.25 278.02,398.58 278.12,319.37 278.19,365.20 278.22,335.80 278.23,310.39 278.26,352.70 278.33,339.29 278.43,373.60 278.55,251.44 278.70,250.81 278.87,245.47 279.06,230.49 279.26,244.05 279.46,320.50 279.67,308.34 279.86,320.56 280.05,246.24 280.22,254.49 280.36,348.70 280.48,292.37 280.57,335.94 280.63,422.25 280.66,295.80 280.67,371.86 280.71,388.52 280.78,408.52 280.89,346.16 281.02,370.46 281.18,330.90 281.35,315.39 281.54,317.66 281.75,384.69 281.95,397.25 282.15,344.35 282.34,286.54 282.53,317.00 282.69,311.58 282.83,366.59 282.94,344.76 283.02,406.38 283.08,383.94 283.09,379.24 283.11,340.92 283.16,346.66 283.24,321.01 283.35,320.45 283.49,347.82 283.65,180.23 283.83,226.95 284.02,180.40 284.23,174.54 284.43,230.76 284.64,187.03 284.83,217.67 285.00,253.16 285.16,227.93 285.29,295.74 285.40,386.01 285.47,248.07 285.52,272.52 285.53,333.27 285.55,372.74 285.61,373.29 285.70,394.39 285.82,373.18 285.96,308.28 286.13,295.66 286.31,295.86 286.51,338.36 286.72,282.02 286.92,343.96 287.12,411.19 287.30,320.92 287.47,354.71 287.63,315.27 287.75,365.76 287.85,311.81 287.92,320.72 287.95,332.01 287.96,354.40 287.99,316.31 288.06,338.72 288.16,381.63 288.29,277.79 288.43,276.79 288.60,256.50 288.80,300.94 288.99,240.59 289.20,310.54 289.40,266.60 289.59,281.49 289.78,308.78 289.95,262.77 290.10,359.53 290.22,357.15 290.31,308.13 290.36,376.42 290.39,319.97 290.40,380.79 290.44,375.27 290.52,388.00 290.62,319.12 290.75,387.88 290.91,306.76 291.08,332.77 291.28,360.79 291.48,362.34 291.68,289.35 291.88,280.49 292.08,282.99 292.26,314.04 292.42,403.88 292.56,371.62 292.67,398.54 292.76,349.75 292.81,366.43 292.82,396.12 292.84,366.45 292.89,369.75 292.97,377.13 293.08,365.11 293.22,318.67 293.39,356.89 293.56,332.51 293.76,331.30 293.96,304.62 294.17,298.51 294.37,273.52 294.56,306.66 294.74,336.33 294.89,346.79 295.03,399.77 295.13,361.67 295.20,372.96 295.25,345.44 295.26,322.01 295.28,393.80 295.34,325.92 295.43,347.26 295.55,318.83 295.69,311.61 295.86,380.78 296.04,359.82 296.25,285.61 296.45,285.69 296.65,314.97 296.85,320.37 297.04,293.35 297.21,402.47 297.36,351.83 297.49,409.44 297.59,340.00 297.65,366.98 297.68,344.78 297.69,354.93 297.73,270.03 297.79,288.45 297.89,395.18 298.02,277.90 298.16,280.15 298.34,314.87 298.53,354.78 298.73,251.68 298.93,386.90 299.13,270.87 299.33,255.74 299.51,321.51 299.68,302.00 299.83,389.70 299.95,375.58 300.04,326.70 300.10,357.77 300.12,336.34 300.13,390.11 300.17,348.54 300.25,384.06 300.35,344.07 300.48,372.40 300.64,311.15 300.82,320.21 301.01,335.90 301.21,316.00 301.42,335.19 301.61,334.24 301.81,372.13 301.99,376.50 302.16,344.28 302.29,363.66 302.40,364.73 302.49,378.75 302.54,380.03 302.55,374.80 302.57,375.14 302.62,286.54 302.70,212.83 302.81,302.18 302.96,402.01 303.12,210.49 303.30,298.24 303.49,194.97 303.69,174.67 303.90,167.99 304.10,226.90 304.29,211.86 304.47,277.96 304.63,224.57 304.76,313.78 304.86,328.11 304.94,226.56 304.98,202.83 304.99,370.31 305.01,369.69 305.07,345.07 305.16,357.10 305.28,392.13 305.43,354.30 305.59,347.71 305.78,347.00 305.98,361.20 306.18,376.17 306.38,354.31 306.58,354.45 306.77,372.92 306.94,419.96 307.09,392.50 307.22,364.53 307.32,360.97 307.38,406.07 307.41,356.28 307.42,250.79 307.46,354.91 307.52,256.75 307.62,372.37 307.75,288.26 307.90,298.58 308.07,274.35 308.26,286.29 308.46,181.52 308.66,210.25 308.87,254.03 309.06,207.39 309.25,217.08 309.42,207.60 309.56,348.30 309.68,270.68 309.77,341.87 309.83,306.15 309.85,290.10 309.86,352.75 309.90,354.90 309.98,365.91 310.08,392.14 310.22,395.98 310.38,354.45 310.55,340.52 310.74,318.32 310.94,229.78 311.15,259.82 311.35,254.57 311.54,230.35 311.72,264.05 311.89,262.12 312.02,333.89 312.14,338.89 312.22,399.42 312.27,402.65 312.28,338.23 312.30,397.83 312.35,357.02 312.43,345.08 312.55,339.98 312.69,425.08 312.85,339.26 313.03,333.99 313.22,310.84 313.43,341.89 313.63,316.86 313.84,372.88 314.02,360.70 314.20,377.94 314.36,409.40 314.49,376.28 314.59,384.54 314.67,306.99 314.71,325.71 314.72,343.50 314.74,420.27 314.80,336.93 314.89,386.81 315.01,348.99 315.16,327.31 315.32,345.34 315.51,313.24 315.71,317.26 315.91,317.32 316.11,293.06 316.32,410.48 316.50,395.11 316.67,350.19 316.83,335.28 316.95,340.72 317.05,349.72 317.11,346.44 317.15,359.97 317.15,399.93 317.19,375.95 317.25,370.99 317.35,348.97 317.48,336.09 317.63,290.41 317.80,279.15 317.99,347.55 318.19,289.25 318.40,326.22 318.60,291.61 318.79,296.43 318.98,313.91 319.15,358.33 319.29,390.92 319.41,279.93 319.50,298.81 319.56,345.56 319.58,284.10 319.59,210.07 319.63,236.84 319.71,388.15 319.81,309.71 319.95,294.87 320.11,212.75 320.28,249.93 320.48,231.48 320.68,223.50 320.88,271.09 321.08,287.86 321.27,333.35 321.46,254.11 321.62,347.21 321.76,298.67 321.87,391.08 321.95,349.74 322.00,369.15 322.01,298.26 322.03,308.52 322.08,393.21 322.17,334.41 322.28,302.96 322.42,300.12 322.58,279.23 322.76,255.41 322.96,256.36 323.16,256.63 323.37,373.41 323.57,260.26 323.75,313.38 323.93,296.17 324.09,268.41 324.22,294.08 324.33,362.35 324.40,350.87 324.44,332.55 324.45,339.79 324.47,340.48 324.53,309.07 324.63,332.43 324.74,259.95 324.89,229.57 325.06,250.07 325.24,271.73 325.44,295.17 325.64,191.85 325.85,202.79 326.05,221.82 326.23,218.80 326.41,282.37 326.56,256.89 326.68,349.92 326.78,343.38 326.84,316.38 326.88,305.39 326.88,335.28 326.92,366.62 326.99,357.09 327.08,398.48 327.21,345.44 327.36,402.68 327.54,268.47 327.72,263.01 327.93,274.24 328.13,245.52 328.33,314.02 328.53,264.88 328.71,221.85 328.88,257.15 329.02,279.83 329.14,285.04 329.23,326.46 329.29,356.09 329.31,299.20 329.32,389.91 329.37,360.99 329.44,416.28 329.54,338.96 329.68,380.12 329.84,345.52 330.02,362.42 330.21,358.06 330.41,349.77 330.61,405.50 330.81,363.16 331.01,337.62 331.19,335.04 331.35,402.63 331.49,356.24 331.60,397.31 331.68,402.61 331.73,354.64 331.74,350.80 331.76,364.40 331.81,382.80 331.90,314.70 332.01,346.65 332.15,311.90 332.31,296.41 332.50,349.46 332.69,322.66 332.89,279.70 333.10,312.55 333.30,278.27 333.49,284.53 333.66,300.68 333.82,336.37 333.95,302.07 334.06,305.78 334.13,343.97 334.17,336.80 334.18,387.07 334.20,360.11 334.26,362.34 334.36,302.69 334.48,325.97 334.62,325.13 334.79,334.21 334.98,259.33 335.17,330.86 335.38,250.40 335.58,291.45 335.78,285.85 335.97,311.11 336.14,311.32 336.29,329.00 336.42,336.58 336.51,302.51 336.58,359.20 336.61,284.84 336.61,319.10 336.65,303.83 336.72,301.38 336.82,363.19 336.94,328.81 337.10,282.30 337.27,334.98 337.46,382.76 337.66,272.54 337.86,295.49 338.07,269.82 338.26,288.20 338.45,328.75 338.61,404.41 338.75,338.68 338.88,393.47 338.96,376.93 339.02,363.91 339.04,384.59 339.05,283.07 339.10,326.17 339.17,346.36 339.28,270.76 339.41,306.17 339.57,252.94 339.75,300.73 339.94,241.48 340.14,277.70 340.34,246.06 340.55,252.29 340.74,313.52 340.92,318.99 341.08,378.45 341.22,313.99 341.33,323.70 341.41,380.47 341.46,334.00 341.48,387.85 341.49,423.30 341.55,402.26 341.63,349.78 341.74,369.34 341.88,293.78 342.04,328.15 342.23,344.19 342.42,354.75 342.63,353.81 342.83,302.51 343.03,312.44 343.22,325.90 343.39,336.01 343.55,335.15 343.68,315.63 343.79,353.70 343.86,350.09 343.90,383.70 343.91,296.23 343.93,364.51 344.00,302.38 344.09,305.38 344.21,269.02 344.36,229.36 344.52,310.59 344.71,316.93 344.91,168.86 345.11,184.27 345.31,180.46 345.52,217.40 345.70,246.16 345.87,308.28 346.02,277.34 346.15,331.03 346.24,212.45 346.31,305.95 346.34,313.34 346.35,352.53 346.38,335.31 346.45,357.72 346.55,348.76 346.68,328.59 346.83,399.02 347.00,349.13 347.19,323.01 347.39,358.10 347.60,310.83 347.80,319.48 347.99,318.92 348.18,366.63 348.34,350.41 348.49,387.01 348.61,375.34 348.70,355.90 348.75,410.33 348.77,380.40 348.78,295.52 348.83,292.74 348.90,333.34 349.01,297.48 349.14,359.62 349.30,254.69 349.48,282.07 349.68,223.33 349.87,235.13 350.08,209.90 350.28,379.37 350.47,245.01 350.66,220.57 350.81,329.98 350.96,248.98 351.06,261.31 351.14,334.87 351.19,342.93 351.21,342.79 351.22,322.81 351.28,383.59 351.36,378.50 351.47,342.21 351.61,310.12 351.78,348.00 351.96,305.72 352.16,305.24 352.36,289.18 352.56,265.15 352.76,359.72 352.95,389.07 353.13,274.09 353.28,310.06 353.42,332.66 353.52,377.51 353.59,266.72 353.63,286.63 353.64,360.43 353.67,367.43 353.73,376.44 353.82,384.50 353.94,370.24 354.09,368.52 354.26,401.72 354.44,329.26 354.64,320.01 354.84,311.38 355.04,294.87 355.25,370.44 355.43,378.14 355.61,386.01 355.75,363.58 355.88,393.95 355.97,357.88 356.04,389.31 356.07,383.31 356.08,350.35 356.11,323.51 356.18,398.60 356.28,379.59 356.41,391.38 356.56,340.34 356.74,287.95 356.92,328.68 357.13,323.64 357.33,330.59 357.53,359.47 357.73,367.11 357.91,365.25 358.08,360.35 358.22,343.37 358.34,371.83 358.43,395.47 358.48,371.57 358.50,384.03 358.51,405.26 358.56,348.73 358.64,404.87 358.74,356.33 358.88,338.95 359.03,367.82 359.22,325.27 359.41,308.08 359.60,350.71 359.81,386.94 360.01,353.66 360.21,364.87 360.39,357.14 360.55,319.48 360.69,359.68 360.79,315.34 360.88,380.88 360.92,339.06 360.94,300.75 360.95,307.65 361.01,389.59 361.09,324.98 361.21,271.79 361.35,371.94 361.51,249.23 361.70,249.90 361.89,249.17 362.09,291.18 362.30,301.11 362.49,256.77 362.69,355.95 362.86,270.17 363.02,281.21 363.15,355.16 363.25,334.60 363.32,328.22 363.36,373.17 363.37,333.95 363.40,334.91 363.46,344.18 363.55,280.09 363.67,338.59 363.82,280.18 363.99,276.60 364.18,191.11 364.37,166.62 364.57,231.90 364.78,212.08 364.98,323.11 365.17,205.92 365.34,226.10 365.48,353.57 365.61,315.09 365.70,232.84 365.77,351.40 365.80,299.73 365.81,352.33 365.84,323.23 365.91,328.02 366.01,364.98 366.14,287.28 366.30,300.79 366.47,285.31 366.65,306.93 366.86,311.19 367.06,255.14 367.27,278.74 367.46,279.09 367.65,278.79 367.81,302.95 367.95,344.20 368.07,375.13 368.16,387.31 368.21,370.42 368.23,394.00 368.24,266.98 368.29,321.25 368.37,349.27 368.48,196.36 368.61,236.07 368.77,268.73 368.95,197.48 369.14,159.46 369.34,205.42 369.54,155.38 369.75,213.18 369.94,205.49 370.12,167.65 370.28,351.91 370.42,229.73 370.53,256.67 370.61,301.54 370.65,281.43 370.67,374.37 370.69,391.81 370.74,377.35 370.82,381.79 370.94,367.83 371.08,407.03 371.24,289.01 371.43,365.85 371.62,251.72 371.83,268.08 372.03,258.34 372.23,213.10 372.42,224.06 372.59,228.26 372.75,203.42 372.88,348.89 372.98,373.84 373.05,312.49 373.09,291.30 373.10,311.90 373.13,373.87 373.19,351.39 373.28,352.69 373.41,367.16 373.55,289.34 373.72,311.32 373.91,303.49 374.10,321.89 374.31,340.41 374.51,298.61 374.71,298.15 374.90,297.79 375.07,346.71 375.22,387.07 375.34,354.39 375.44,374.57 375.50,362.25 375.53,370.21 375.54,380.86 375.57,409.01 375.64,353.66 375.74,360.13 375.88,374.60 376.03,305.43 376.20,303.74 376.39,335.68 376.59,315.50 376.80,333.45 377.00,263.90 377.19,280.11 377.38,375.92 377.54,301.00 377.69,402.69 377.80,329.57 377.89,410.69 377.94,410.32 377.96,356.31 377.98,379.93 378.02,351.14 378.10,354.02 378.21,359.32 378.34,371.05 378.50,283.04 378.68,330.14 378.87,278.72 379.07,391.90 379.28,258.35 379.48,260.04 379.67,290.07 379.85,360.62 380.01,304.60 380.15,290.42 380.26,387.02 380.34,384.89 380.38,393.55 380.40,351.55 380.42,367.48 380.47,359.83 380.56,367.03 380.67,364.36 380.81,314.24 380.98,272.92 381.16,289.55 381.36,266.94 381.56,287.28 381.76,258.05 381.96,281.82 382.15,275.05 382.33,352.52 382.48,370.74 382.61,407.98 382.71,384.00 382.78,332.21 382.82,353.19 382.83,329.28 382.86,305.44 382.92,267.87 383.01,307.69 383.14,268.10 383.28,314.40 383.46,245.66 383.64,347.26 383.84,241.25 384.04,383.99 384.24,239.28 384.45,241.71 384.63,284.53 384.80,300.66 384.95,286.59 385.08,302.79 385.17,307.09 385.23,284.23 385.26,366.97 385.27,227.34 385.31,311.18 385.37,356.72 385.47,393.90 385.61,277.99 385.76,265.30 385.94,216.59 386.12,277.08 386.33,244.80 386.53,194.50 386.73,215.57 386.93,232.45 387.11,410.02 387.28,322.78 387.42,372.84 387.53,319.71 387.62,369.33 387.67,370.40 387.69,372.57 387.71,354.39 387.75,405.43 387.83,399.19 387.94,371.04 388.08,343.01 388.23,271.38 388.42,313.39 388.60,290.68 388.80,216.26 389.01,222.74 389.21,227.78 389.41,268.90 389.58,268.17 389.75,383.09 389.88,332.35 389.99,331.18 390.07,401.15 390.12,361.41 390.13,367.62 390.15,413.86 390.20,388.54 390.29,303.57 390.40,400.14 390.55,364.53 390.71,369.98 390.90,353.58 391.09,313.17 391.29,374.70 391.50,385.48 391.69,329.93 391.89,300.58 392.06,318.86 392.21,329.25 392.34,303.57 392.45,374.69 392.52,293.04 392.55,324.11 392.56,344.28 392.59,391.75 392.65,375.34 392.75,401.73 392.87,411.44 393.02,362.95 393.19,344.79 393.38,318.24 393.57,292.23 393.77,317.73 393.98,366.60 394.18,322.59 394.37,372.51 394.53,372.70 394.68,370.73 394.81,342.92 394.90,339.12 394.96,360.91 394.99,396.92 395.00,395.07 395.04,375.35 395.10,388.67 395.21,350.68 395.34,351.10 395.49,326.25 395.67,314.23 395.85,302.54 396.06,300.64 396.26,314.15 396.46,316.71 396.66,333.21 396.84,368.15 397.01,326.72 397.15,354.71 397.27,359.52 397.35,370.30 397.41,374.65 397.43,388.89 397.44,375.57 397.48,324.54 397.56,343.46 397.67,346.30 397.81,325.43 397.97,341.14 398.15,359.78 398.34,268.72 398.54,289.15 398.74,376.62 398.95,389.13 399.14,374.49 399.31,334.24 399.48,410.45 399.61,405.06 399.72,359.49 399.80,393.43 399.85,325.15 399.86,385.33 399.88,406.83 399.93,347.90 400.02,297.01 400.14,361.54 400.28,333.48 400.44,369.98 400.63,290.64 400.82,312.49 401.03,318.24 401.23,332.81 401.43,363.52 401.62,386.21 401.79,349.43 401.95,410.87 402.08,345.63 402.18,345.73 402.25,316.05 402.28,321.07 402.29,396.32 402.32,361.46 402.38,385.10 402.48,378.07 402.60,382.09 402.75,400.68 402.92,354.65 403.11,328.57 403.30,309.81 403.51,382.66 403.71,366.32 403.91,321.79 404.10,371.41 404.26,394.10 404.42,337.54 404.54,342.23 404.63,337.40 404.69,346.06 404.72,374.30 404.73,313.10 404.77,354.08 404.84,380.36 404.94,279.48 405.07,291.84 405.22,213.63 405.40,212.39 405.59,190.56 405.79,194.07 406.00,169.98 406.20,288.02 406.39,207.25 406.57,243.52 406.74,233.48 406.88,322.58 407.00,197.06 407.08,345.86 407.14,358.11 407.16,277.59 407.17,375.38 407.21,330.61 407.29,356.95 407.40,352.60 407.54,351.53 407.70,354.05 407.88,348.51 408.07,359.55 408.27,311.74 408.48,294.19 408.68,300.71 408.87,296.51 409.05,328.93 409.21,303.66 409.35,400.08 409.45,395.80 409.53,365.28 409.58,309.53 409.59,372.67 409.61,370.63 409.66,328.97 409.75,314.66 409.87,324.79 410.01,263.41 410.18,192.20 410.36,253.64 410.56,231.90 410.76,210.63 410.96,141.66 411.16,151.37 411.35,176.28 411.53,206.58 411.68,194.37 411.81,313.38 411.91,226.59 411.98,253.98 412.02,274.72 412.02,318.34 412.05,336.06 412.12,294.37 412.21,420.52 412.33,332.47 412.48,278.56 412.65,243.71 412.84,275.67 413.04,265.00 413.24,305.41 413.44,267.26 413.64,244.48 413.83,250.26 414.00,269.74 414.15,233.16 414.27,289.36 414.36,247.76 414.42,319.11 414.45,304.71 414.46,333.41 414.50,360.98 414.57,391.46 414.67,391.65 414.80,340.36 414.95,335.71 415.13,252.87 415.32,282.08 415.52,254.07 415.73,327.85 415.93,257.80 416.13,278.13 416.31,259.21 416.47,328.97 416.61,275.04 416.73,300.61 416.81,384.26 416.87,345.96 416.89,362.75 416.90,377.92 416.95,363.33 417.02,351.76 417.13,323.79 417.27,362.68 417.43,295.31 417.61,320.76 417.80,289.10 418.00,285.59 418.21,311.22 418.41,276.14 418.61,291.98 418.78,306.01 418.94,304.99 419.08,380.99 419.18,367.05 419.26,375.07 419.31,400.04 419.32,351.89 419.34,410.40 419.39,406.08 419.48,364.47 419.60,320.55 419.74,374.42 419.91,362.35 420.09,361.19 420.29,355.14 420.49,281.44 420.70,357.29 420.89,293.36 421.09,283.75 421.26,356.57 421.41,347.63 421.54,398.99 421.64,338.57 421.71,398.02 421.75,351.97 421.75,349.09 421.78,389.52 421.85,369.58 421.94,337.01 422.06,388.41 422.22,354.91 422.38,281.38 422.57,341.94 422.77,283.62 422.97,292.59 423.18,320.36 423.37,341.13 423.56,317.13 423.73,366.50 423.88,349.91 424.00,398.35 424.09,331.07 424.16,398.14 424.18,375.15 424.19,343.62 424.23,215.62 424.30,297.07 424.40,249.71 424.53,238.23 424.69,288.77 424.86,192.42 425.05,220.85 425.26,208.39 425.46,262.57 425.66,267.19 425.86,279.49 426.04,247.41 426.20,253.88 426.34,384.11 426.46,250.91 426.54,362.29 426.60,397.61 426.62,373.30 426.63,338.04 426.68,385.83 426.76,396.39 426.87,362.05 427.00,362.83 427.17,374.91 427.34,314.36 427.53,311.54 427.74,303.09 427.94,296.16 428.15,361.55 428.34,374.95 428.51,341.32 428.67,357.08 428.81,351.86 428.92,355.63 428.99,399.56 429.04,403.00 429.05,269.15 429.07,333.71 429.13,371.62 429.21,243.28 429.33,327.50 429.47,280.73 429.64,293.96 429.82,213.64 430.02,298.41 430.22,134.87 430.43,191.47 430.63,177.82 430.82,158.93 430.99,258.07 431.14,235.61 431.27,329.03 431.37,336.82 431.44,270.80 431.48,277.78 431.48,390.97 431.51,383.83 431.58,311.93 431.67,402.72 431.80,382.35 431.95,416.53 432.12,345.01 432.31,353.11 432.50,363.80 432.71,235.38 432.91,306.44 433.10,245.46 433.29,265.12 433.46,301.51 433.61,352.78 433.73,346.06 433.83,293.14 433.89,366.73 433.91,313.47 433.92,314.25 433.96,403.01 434.03,388.09 434.13,348.70 434.27,302.67 434.42,400.97 434.59,353.88 434.79,293.75 434.99,259.43 435.19,253.14 435.39,317.06 435.59,356.27 435.77,351.81 435.93,301.24 436.08,316.85 436.19,332.70 436.28,365.80 436.33,413.81 436.35,397.91 436.36,357.95 436.41,351.09 436.49,351.66 436.60,368.30 436.73,385.37 436.90,372.74 437.07,395.94 437.27,322.06 437.47,297.82 437.68,288.27 437.88,367.41 438.07,368.70 438.25,345.42 438.41,368.24 438.54,394.74 438.65,373.48 438.72,344.33 438.77,327.78 438.78,329.80 438.80,348.66 438.86,370.05 438.95,319.18 439.06,362.37 439.20,367.08 439.37,331.15 439.56,316.90 439.76,337.04 439.96,336.67 440.16,299.50 440.36,364.88 440.55,399.37 440.72,378.70 440.87,362.59 441.01,398.42 441.10,344.45 441.17,339.11 441.21,351.07 441.22,294.69 441.25,311.16 441.31,269.73 441.40,289.67 441.53,258.32 441.68,361.95 441.85,252.24 442.04,305.17 442.24,288.06 442.44,265.93 442.64,378.85 442.84,317.81 443.03,317.51 443.20,345.15 443.34,303.62 443.46,360.42 443.56,303.10 443.62,390.92 443.64,312.31 443.65,332.49 443.69,388.45 443.76,413.21 443.87,336.23 444.00,357.88 444.15,340.12 444.33,374.37 444.52,355.53 444.72,332.96 444.93,323.02 445.12,373.77 445.32,345.49 445.50,365.52 445.67,354.21 445.81,392.63 445.92,329.30 446.01,354.62 446.06,404.64 446.08,377.79 446.09,306.20 446.14,352.74 446.22,323.85 446.33,271.62 446.47,314.12 446.63,172.30 446.81,231.52 447.00,258.22 447.20,177.96 447.41,271.95 447.61,283.23 447.80,237.81 447.98,239.69 448.14,253.41 448.27,252.84 448.38,355.27 448.46,347.58 448.50,340.12 448.51,392.04 448.53,425.64 448.59,341.70 448.68,361.29 448.79,423.38 448.94,369.09 449.10,363.42 449.29,287.46 449.49,333.08 449.69,260.23 449.89,268.69 450.09,382.16 450.28,404.11 450.45,365.25 450.61,302.00 450.74,342.42 450.83,403.39 450.90,368.31 450.94,385.68 450.95,318.73 450.98,291.71 451.04,251.49 451.14,377.26 451.26,309.05 451.41,313.34 451.58,185.28 451.77,251.11 451.97,301.55 452.17,291.11 452.38,191.25 452.57,222.13 452.76,219.28 452.93,233.80 453.07,336.15 453.20,243.46 453.29,287.14 453.35,332.94 453.37,346.65 453.38,361.92 453.42,290.83 453.49,396.39 453.60,347.09 453.73,327.67 453.89,359.33 454.06,276.38 454.25,276.31 454.45,299.37 454.66,275.19 454.86,327.05 455.05,266.00 455.24,309.87 455.40,335.52 455.54,353.70 455.66,293.15 455.74,378.84 455.79,348.75 455.81,334.37 455.82,372.90 455.87,362.69 455.95,373.22 456.06,383.41 456.20,325.29 456.36,344.71 456.54,291.73 456.73,299.53 456.94,288.90 457.14,319.60 457.35,302.68 457.53,302.75 457.71,268.19 457.87,373.07 458.00,300.36 458.11,370.93 458.19,408.11 458.23,362.66 458.24,389.95 458.26,430.98 458.32,350.33 458.41,345.23 458.53,379.95 458.67,311.93 458.84,338.86 459.02,283.62 459.22,345.84 459.42,250.75 459.62,307.09 459.83,351.64 460.01,272.40 460.18,272.13 460.34,347.98 460.47,316.56 460.57,393.43 460.63,393.58 460.67,256.86 460.68,371.77 460.71,350.12 460.77,310.89 460.87,310.02 461.00,351.67 461.14,265.64 461.31,280.95 461.50,360.68 461.70,314.66 461.91,284.53 462.11,284.74 462.30,278.03 462.49,344.44 462.66,287.59 462.81,381.30 462.93,299.57 463.02,335.14 463.08,360.78 463.10,363.44 463.11,351.20 463.15,380.87 463.23,391.45 463.33,331.01 463.46,344.72 463.62,315.52 463.79,328.10 463.99,372.74 464.18,339.57 464.39,306.95 464.59,348.09 464.78,333.81 464.97,310.50 465.13,328.43 465.27,389.24 465.39,384.57 465.47,379.42 465.52,327.42 465.54,402.55 465.55,304.10 465.60,348.33 465.68,333.90 465.79,275.63 465.93,319.84 466.10,269.30 466.27,270.47 466.47,179.22 466.67,213.50 466.88,181.66 467.08,185.89 467.27,303.31 467.45,271.36 467.60,336.86 467.74,333.17 467.84,317.88 467.92,378.17 467.96,328.58 467.97,368.08 468.00,377.39 468.05,371.22 468.14,369.66 468.26,377.10 468.40,379.36 468.57,354.18 468.75,359.68 468.95,380.38 469.15,377.94 469.36,378.38 469.56,364.88 469.74,386.91 469.92,381.03 470.07,372.30 470.20,375.71 470.30,393.96 470.36,386.61 470.40,390.04 470.41,299.56 470.44,341.57 470.50,320.33 470.60,385.21 470.73,376.57 470.88,372.77 471.05,293.47 471.24,223.90 471.44,125.47 471.64,185.30 471.84,125.89 472.04,168.79 472.22,293.10 472.39,192.09 472.54,326.65 472.66,273.12 472.75,302.16 472.81,338.64 472.84,338.34 472.84,324.14 472.89,307.44 472.96,291.42 473.06,331.31 473.20,332.32 473.35,338.42 473.53,364.43 473.72,246.82 473.92,240.91 474.12,234.20 474.32,230.47 474.52,248.73 474.70,254.40 474.87,273.96 475.01,309.74 475.12,381.49 475.20,361.92 475.25,339.22 475.27,402.08 475.28,391.06 475.33,358.92 475.41,374.03 475.52,326.53 475.67,375.14 475.83,356.00 476.01,345.38 476.20,305.87 476.40,330.45 476.61,365.27 476.81,293.01 477.00,372.07 477.18,339.85 477.34,380.17 477.47,326.11 477.57,361.76 477.65,408.32 477.69,358.30 477.70,344.31 477.73,395.28 477.78,392.18 477.87,342.59 477.99,392.11 478.14,389.26 478.30,392.91 478.49,268.01 478.68,318.39 478.88,334.23 479.09,321.76 479.29,335.85 479.48,305.89 479.65,359.90 479.80,344.02 479.93,381.95 480.03,362.83 480.10,314.15 480.13,355.28 480.14,345.22 480.17,369.55 480.23,368.34 480.33,339.86 480.46,363.44 480.61,350.61 480.78,301.65 480.97,303.54 481.17,341.58 481.37,318.09 481.58,328.15 481.77,312.39 481.96,353.21 482.13,380.79 482.27,340.29 482.39,354.42 482.48,363.08 482.54,359.82 482.57,370.07 482.58,329.33 482.62,320.81 482.69,335.00 482.80,269.05 482.93,307.24 483.09,294.36 483.26,239.96 483.45,253.83 483.65,244.73 483.85,313.76 484.06,316.83 484.25,333.54 484.43,358.02 484.60,338.15 484.74,378.70 484.85,345.93 484.93,355.80 484.98,275.96 485.00,366.99 485.01,371.04 485.06,379.64 485.15,360.43 485.26,323.61 485.40,365.55 485.56,288.82 485.74,286.01 485.93,269.32 486.14,252.73 486.34,319.41 486.54,352.34 486.73,355.93 486.91,300.51 487.07,275.33 487.20,330.97 487.31,409.29 487.38,302.07 487.42,347.89 487.43,318.93 487.46,386.37 487.52,347.38 487.60,296.63 487.73,396.12 487.87,223.13 488.03,238.64 488.22,194.42 488.42,246.39 488.62,242.22 488.82,196.28 489.03,231.14 489.21,202.11 489.38,351.27 489.54,230.41 489.66,366.79 489.76,280.13 489.83,308.84 489.86,366.82 489.87,377.78 489.90,361.86 489.97,348.00 490.06,383.98 490.19,388.94 490.34,272.23 490.51,314.09 490.70,241.41 490.90,233.90 491.11,240.43 491.31,244.53 491.50,278.38 491.69,330.38 491.86,334.53 492.00,353.08 492.12,279.36 492.21,290.26 492.27,362.12 492.30,314.78 492.31,395.61 492.35,350.32 492.42,372.49 492.53,311.13 492.66,366.20 492.82,325.42 492.99,325.19 493.19,326.86 493.38,333.18 493.59,368.18 493.79,353.57 493.98,308.03 494.17,309.98 494.33,377.40 494.47,322.87 494.58,361.19 494.66,341.56 494.71,357.00 494.73,361.51 494.75,327.75 494.80,321.62 494.88,397.00 494.99,401.47 495.13,415.28 495.29,306.10 495.47,277.72 495.67,277.60 495.87,281.36 496.08,263.03 496.27,324.36 496.46,295.17 496.64,278.32 496.80,304.41 496.93,309.33 497.04,340.39 497.11,393.85 497.15,336.75 497.16,364.46 497.19,319.06 497.25,343.36 497.34,342.25 497.46,403.79 497.60,313.85 497.77,281.13 497.95,302.22 498.15,355.95 498.35,314.49 498.55,264.46 498.76,285.56 498.94,357.85 499.12,351.69 499.27,357.27 499.40,292.00 499.49,372.04 499.56,360.18 499.59,416.75 499.60,375.59 499.63,404.13 499.70,348.57 499.79,388.51 499.92,347.41 500.07,276.98 500.25,261.60 500.43,348.45 500.64,270.81 500.84,371.28 501.04,248.25 501.24,300.61 501.42,335.98 501.59,306.83 501.74,400.25 501.85,328.50 501.95,364.36 502.00,396.42 502.03,340.23 502.04,316.03 502.08,318.39 502.15,333.51 502.26,283.54 502.39,301.42 502.55,269.06 502.73,237.60 502.92,307.43 503.11,257.28 503.32,219.12 503.52,250.48 503.72,245.94 503.90,289.69 504.06,338.94 504.20,374.77 504.31,353.74 504.40,360.87 504.44,370.66 504.46,348.74 504.48,334.98 504.53,339.50 504.61,377.37 504.72,285.46 504.86,328.16 505.02,277.58 505.21,239.05 505.40,354.19 505.60,350.34 505.81,292.70 506.01,272.40 506.20,269.99 506.37,320.35 506.53,286.66 506.67,317.03 506.77,366.20 506.84,346.52 506.88,344.79 506.89,271.98 506.92,342.67 506.98,282.55 507.07,249.27 507.19,316.08 507.34,296.85 507.50,327.65 507.69,253.65 507.88,225.19 508.08,266.73 508.29,221.06 508.49,224.82 508.68,304.96 508.85,356.26 509.00,282.00 509.13,319.69 509.22,315.28 509.29,279.03 509.32,309.07 509.33,361.24 509.36,313.86 509.43,344.46 509.53,364.24 509.65,310.31 509.81,349.14 509.98,331.09 510.16,374.44 510.37,295.97 510.57,286.28 510.78,319.00 510.97,317.65 511.16,317.55 511.32,309.19 511.47,356.66 511.59,363.98 511.68,370.58 511.73,357.02 511.76,386.50 511.77,265.47 511.81,335.32 511.88,360.59 511.99,308.95 512.12,335.77 512.28,319.69 512.46,309.69 512.65,246.85 512.85,365.43 513.05,272.30 513.26,259.07 513.45,250.32 513.63,328.22 513.79,267.01 513.93,339.62 514.05,318.64 514.13,374.41 514.18,316.89 514.19,333.14 514.21,352.57 514.26,381.41 514.34,398.02 514.46,362.19 514.59,395.27 514.76,346.87 514.94,312.43 515.13,242.08 515.34,285.98 515.54,282.72 515.74,309.18 515.93,322.78 516.10,263.62 516.27,297.91 516.40,267.32 516.50,325.88 516.57,319.25 516.62,303.45 516.62,386.36 516.65,405.42 516.71,390.90 516.80,376.49 516.92,346.88 517.07,365.47 517.23,366.03 517.42,327.12 517.61,289.61 517.82,304.51 518.02,336.24 518.23,323.35 518.41,308.36 518.58,383.78 518.73,381.99 518.86,387.73 518.96,307.22 519.02,314.97 519.05,344.59 519.06,311.63 519.09,345.35 519.16,302.93 519.26,381.24 519.39,366.11 519.54,367.39 519.71,342.25 519.90,336.39 520.10,293.19 520.31,285.65 520.51,370.15 520.70,297.97 520.89,387.78 521.05,329.38 521.20,330.00 521.32,426.01 521.41,355.83 521.47,342.46 521.49,388.80 521.50,378.67 521.54,368.77 521.62,370.10 521.72,405.88 521.85,393.01 522.01,339.65 522.19,353.30 522.38,312.69 522.58,305.55 522.79,319.60 522.99,358.15 523.18,339.05 523.37,405.84 523.53,403.65 523.67,361.43 523.78,368.48 523.86,345.93 523.91,341.41 523.92,350.49 523.94,318.42 523.99,372.79 524.07,326.73 524.19,340.58 524.32,370.03 524.49,318.64 524.67,269.89 524.87,283.48 525.07,293.09 525.28,285.29 525.47,322.42 525.66,303.71 525.84,322.87 526.00,356.06 526.13,351.69 526.23,336.03 526.31,331.51 526.35,343.16 526.36,275.26 526.38,379.21 526.44,269.44 526.53,342.76 526.65,369.81 526.80,308.72 526.97,238.10 527.15,215.24 527.35,202.87 527.55,235.91 527.75,267.32 527.96,273.37 528.14,326.70 528.32,406.50 528.46,351.21 528.59,350.58 528.69,294.55 528.75,335.71 528.78,336.14 528.79,375.38 528.83,403.80 528.89,358.84 528.99,344.73 529.12,421.70 529.27,312.98 529.45,357.03 529.63,277.24 529.84,318.96 530.04,328.86 530.24,244.69 530.44,303.56 530.62,257.14 530.79,271.71 530.93,338.86 531.05,276.18 531.14,344.21 531.20,374.69 531.22,369.59 531.23,303.43 531.27,343.44 531.35,334.12 531.45,342.16 531.59,344.95 531.74,222.62 531.93,249.04 532.12,187.08 532.31,272.97 532.52,188.06 532.72,229.40 532.92,231.75 533.10,271.71 533.26,238.97 533.40,300.61 533.51,257.07 533.59,344.91 533.64,344.66 533.65,380.06 533.67,387.97 533.72,381.76 533.80,366.72 533.92,400.34 534.06,371.02 534.22,283.37 534.41,315.75 534.60,316.36 534.80,332.29 535.01,315.77 535.20,319.59 535.40,295.90 535.57,364.70 535.73,388.19 535.86,349.33 535.96,385.06 536.04,363.36 536.08,380.21 536.09,346.70 536.11,383.27 536.17,391.90 536.26,399.60 536.38,378.74 536.53,364.74 536.70,285.43 536.89,296.81 537.08,330.04 537.28,278.49 537.49,313.02 537.69,265.53 537.88,294.75 538.05,332.09 538.19,301.12 538.32,346.41 538.42,334.53 538.48,299.72 538.51,355.29 538.52,371.78 538.56,374.44 538.62,385.01 538.72,349.56 538.85,344.89 539.01,337.23 539.18,249.80 539.36,254.63 539.57,336.18 539.77,346.31 539.97,277.29 540.17,256.45 540.36,263.78 540.52,318.95 540.66,307.34 540.78,396.69 540.87,392.81 540.93,392.00 540.95,388.27 540.96,366.87 541.00,423.51 541.08,378.63 541.19,381.00 541.32,351.72 541.48,296.70 541.66,280.89 541.85,291.64 542.05,277.54 542.25,307.83 542.46,304.23 542.65,294.57 542.83,291.14 542.99,385.16 543.13,354.44 543.24,380.37 543.32,368.09 543.37,349.05 543.38,365.01 543.40,372.92 543.45,334.05 543.54,328.41 543.65,300.17 543.79,266.33 543.95,335.12 544.14,240.04 544.33,298.14 544.54,246.17 544.74,295.30 544.94,268.55 545.13,247.05 545.30,382.06 545.46,317.16 545.59,329.37 545.70,365.31 545.77,377.52 545.81,307.95 545.82,360.72 545.84,326.32 545.90,376.10 545.99,341.67 546.12,271.16 546.26,224.12 546.43,269.20 546.62,211.67 546.81,202.20 547.02,303.08 547.22,256.30 547.42,301.68 547.61,218.02 547.78,325.58 547.93,308.61 548.05,398.26 548.15,305.00 548.21,348.06 548.24,311.28 548.25,343.69 548.29,298.20 548.36,329.64 548.46,387.01 548.59,297.45 548.74,309.23 548.91,312.31 549.10,392.00 549.30,228.63 549.51,242.81 549.71,256.20 549.90,330.17 550.09,314.08 550.25,322.01 550.40,346.72 550.51,333.80 550.60,304.70 550.66,354.81 550.68,324.32 550.69,307.87 550.73,301.79 550.81,362.28 550.92,239.75 551.05,276.53 551.21,248.14 551.39,337.27 551.58,160.42 551.78,250.71 551.99,168.99 552.19,166.46 552.38,275.43 552.56,204.20 552.72,336.38 552.86,200.20 552.97,265.33 553.05,325.77 553.10,378.93 553.11,343.86 553.13,399.58 553.18,407.76 553.27,376.91 553.38,365.46 553.52,352.11 553.69,347.24 553.87,359.24 554.07,358.16 554.27,327.92 554.47,372.19 554.67,365.17 554.86,367.95 555.04,348.56 555.19,357.32 555.33,360.88 555.43,374.64 555.50,386.92 555.54,370.19 555.55,389.34 555.57,392.35 555.63,350.09 555.73,330.21 555.85,384.91 555.99,360.39 556.17,419.39 556.35,337.99 556.55,350.82 556.75,281.62 556.95,295.44 557.15,299.48 557.34,380.72 557.51,325.73 557.66,342.49 557.79,417.64 557.88,365.02 557.94,344.00 557.98,305.86 557.98,367.95 558.02,333.07 558.09,329.85 558.19,352.36 558.32,338.43 558.47,355.93 558.64,310.96 558.83,374.75 559.03,295.10 559.24,272.29 559.44,290.69 559.64,333.44 559.82,364.21 559.99,388.32 560.13,376.08 560.24,339.79 560.33,334.37 560.39,393.33 560.41,401.68 560.42,329.25 560.47,300.53 560.54,363.92 560.65,393.22 560.79,382.12 560.94,351.27 561.12,325.81 561.31,404.44 561.51,277.72 561.72,334.06 561.92,317.35 562.12,339.46 562.29,296.97 562.46,393.42 562.59,347.81 562.70,310.95 562.78,337.25 562.83,344.25 562.84,321.54 562.86,405.52 562.91,366.80 563.00,286.21 563.11,330.97 563.26,279.28 563.42,336.77 563.60,276.08 563.80,314.50 564.00,329.13 564.21,273.49 564.40,341.37 564.60,310.71 564.77,346.05 564.92,386.72 565.06,408.01 565.16,394.13 565.23,377.17 565.27,364.85 565.28,412.79 565.31,358.32 565.36,391.83 565.46,388.10 565.58,356.99 565.73,352.77 565.90,340.29 566.09,384.55 566.28,387.50 566.48,377.11 566.69,354.46 566.88,397.26 567.08,398.26 567.24,379.05 567.39,384.46 567.52,384.02 567.61,375.33 567.68,388.00 567.71,372.50 567.71,258.51 567.75,243.17 567.82,289.44 567.92,368.95 568.05,234.99 568.20,306.14 568.38,143.16 568.56,221.20 568.77,214.95 568.97,163.10 569.17,269.48 569.37,265.33 569.55,317.86 569.72,314.56 569.86,399.36 569.98,236.28 570.06,270.19 570.12,393.18 570.14,329.98 570.15,372.44 570.20,366.15 570.27,368.74 570.38,347.28 570.52,408.09 570.68,330.54 570.85,376.59 571.04,395.44 571.25,368.42 571.45,296.56 571.66,325.42 571.85,306.07 572.02,344.01 572.19,363.73 572.32,365.76 572.44,401.99 572.51,324.59 572.56,357.80 572.57,340.65 572.59,378.96 572.65,329.25 572.73,270.21 572.85,323.82 572.99,248.73 573.15,208.54 573.34,230.55 573.53,227.08 573.73,214.33 573.94,194.07 574.14,167.94 574.33,214.77 574.50,201.49 574.66,200.49 574.79,309.22 574.89,296.34 574.96,247.72 575.00,241.86 575.01,365.07 575.04,387.32 575.10,394.59 575.19,313.14 575.31,321.14 575.46,313.70 575.63,300.32 575.82,228.98 576.01,271.96 576.22,278.39 576.42,294.11 576.62,206.02 576.81,221.92 576.97,283.71 577.13,209.67 577.25,289.67 577.35,201.17 577.41,265.50 577.44,298.95 577.44,370.07 577.48,341.13 577.55,339.60 577.65,383.62 577.78,308.74 577.93,327.12 578.11,261.61 578.30,280.33 578.50,345.57 578.70,297.14 578.90,342.87 579.10,289.01 579.28,334.66 579.45,334.27 579.59,371.83 579.71,397.02 579.80,391.66 579.85,426.24 579.87,376.42 579.88,338.75 579.93,366.91 580.01,379.82 580.11,335.93 580.25,405.21 580.41,288.91 580.59,272.59 580.78,262.29 580.98,323.54 581.19,273.82 581.39,294.90 581.58,270.85 581.76,256.96 581.92,327.62 582.06,297.35 582.17,353.77 582.24,406.72 582.29,277.56 582.30,384.35 582.32,397.85 582.38,363.91 582.46,341.27 582.58,391.74 582.72,290.51 582.89,306.48 583.07,269.16 583.27,282.96 583.47,340.66 583.67,276.64 583.87,290.34 584.06,308.67 584.24,301.74 584.39,369.82 584.52,351.87 584.62,372.37 584.69,353.93 584.73,314.88 584.74,358.40 584.77,380.00 584.83,394.49 584.92,402.44 585.04,363.75 585.19,383.47 585.36,299.93 585.55,295.68 585.75,335.82 585.95,293.83 586.15,289.26 586.35,329.39 586.54,321.69 586.71,289.64 586.86,321.62 586.98,376.59 587.08,370.94 587.14,339.60 587.17,359.16 587.18,291.56 587.21,244.63 587.28,340.73 587.38,355.10 587.51,245.01 587.66,242.56 587.84,209.13 588.03,225.91 588.23,259.82 588.43,190.96 588.63,225.74 588.83,239.84 589.01,303.78 589.18,232.20 589.32,383.26 589.44,306.72 589.53,331.19 589.58,350.35 589.60,332.63 589.61,304.25 589.66,345.34 589.74,373.39 589.84,310.93 589.98,359.73 590.14,380.60 590.32,341.56 590.51,372.86 590.71,349.69 590.92,282.94 591.12,294.60 591.32,322.69 591.49,394.47 591.65,408.87 591.79,366.45 591.90,383.23 591.98,377.53 592.02,335.76 592.04,421.77 592.06,378.51 592.11,263.96 592.20,324.10 592.31,311.58 592.45,217.31 592.62,296.75 592.80,198.23 593.00,244.43 593.20,110.73 593.40,109.88 593.60,92.29 593.80,113.60 593.97,228.38 594.12,232.03 594.25,277.55 594.35,394.16 594.42,261.92 594.46,217.02 594.47,412.81 594.50,379.98 594.56,423.56 594.65,402.52 594.78,318.86 594.93,348.54 595.09,321.01 595.28,339.88 595.48,340.58 595.68,332.57 595.89,244.36 596.08,250.22 596.27,250.50 596.44,318.18 596.59,355.08 596.71,368.10 596.81,379.21 596.87,388.90 596.90,384.86 596.91,364.97 596.94,356.62 597.01,373.63 597.12,368.98 597.24,360.37 597.40,362.80 597.57,361.65 597.76,371.40 597.96,312.55 598.17,285.55 598.37,304.48 598.56,294.63 598.75,374.13 598.91,331.80 599.05,369.01 599.17,277.17 599.26,372.95 599.31,341.63 599.33,345.24 599.34,392.18 599.39,324.03 599.47,382.02 599.58,373.22 599.71,358.42 599.88,302.58 600.05,319.09 600.24,293.43 600.45,343.68 600.65,311.43 600.86,304.81 601.05,336.30 601.22,326.66 601.39,377.89 601.52,327.08 601.63,323.96 601.71,385.71 601.75,346.79 601.77,332.16 601.79,351.88 601.84,369.18 601.93,319.37 602.04,417.29 602.18,368.16 602.35,347.31 602.53,290.54 602.73,296.36 602.93,325.72 603.13,334.61 603.34,304.18 603.53,317.08 603.70,367.62 603.86,366.58 603.98,355.81 604.09,346.17 604.16,322.22 604.19,345.67 604.20,285.30 604.23,373.92 604.29,301.70 604.39,337.98 604.51,315.08 604.66,245.87 604.82,316.59 605.02,241.37 605.21,274.63 605.42,271.36 605.62,383.83 605.81,301.29 606.00,309.89 606.17,327.12 606.32,339.55 606.44,293.58 606.54,343.07 606.60,377.66 606.63,369.72 606.64,352.07 606.67,328.43 606.75,366.21 606.85,345.19 606.98,336.70 607.13,375.39 607.30,294.16 607.50,380.52 607.69,307.16 607.90,309.19 608.10,330.78 608.30,339.05 608.48,360.54 608.64,332.90 608.79,345.20 608.90,348.51 608.99,383.56 609.04,397.07 609.06,392.66 609.08,375.12 609.12,272.72 609.20,274.00 609.31,326.81 609.44,288.43 609.61,213.90 609.78,278.51 609.98,186.66 610.18,195.67 610.39,348.87 610.59,242.24 610.78,319.00 610.96,228.29 611.12,376.36 611.25,334.26 611.36,299.20 611.44,266.97 611.48,384.92 611.50,396.59 611.52,398.20 611.57,380.67 611.66,379.41 611.77,359.41 611.92,394.15 612.08,335.77 612.26,324.25 612.46,272.72 612.66,249.18 612.87,258.43 613.07,274.37 613.26,309.27 613.43,323.36 613.59,364.62 613.72,351.14 613.82,380.73 613.89,333.79 613.92,378.10 613.93,346.65 613.96,336.25 614.02,288.03 614.12,409.39 614.24,296.92 614.39,252.13 614.56,262.31 614.75,219.81 614.95,226.44 615.15,325.44 615.35,200.05 615.55,191.00 615.73,210.16 615.91,234.49 616.05,254.19 616.18,299.79 616.27,225.32 616.33,328.09 616.36,267.71 616.37,270.22 616.41,299.58 616.48,326.35 616.58,339.97 616.71,324.30 616.86,285.72 617.04,336.81 617.23,255.63 617.43,252.17 617.63,306.04 617.83,371.43 618.03,244.24 618.21,251.79 618.38,263.19 618.52,296.08 618.63,348.38 618.72,401.67 618.77,340.81 618.79,315.09 618.81,377.23 618.85,397.38 618.93,357.12 619.04,357.03 619.18,335.67 619.34,281.54 619.52,365.85 619.71,304.68 619.91,277.92 620.12,296.33 620.32,332.62 620.51,278.35 620.69,263.36 620.85,343.43 620.99,304.91 621.09,349.48 621.17,388.18 621.22,395.70 621.23,335.30 621.25,388.71 621.30,364.44 621.39,366.06 621.51,370.05 621.65,318.51 621.81,284.09 622.00,315.69 622.19,371.93 622.39,303.86 622.60,306.90 622.80,327.76 622.99,362.72 623.16,339.94 623.32,345.18 623.45,340.98 623.55,351.14 623.62,351.71 623.65,329.06 623.66,328.96 623.69,346.42 623.75,277.37 623.85,326.98 623.97,333.95 624.12,372.70 624.29,265.58 624.48,355.45 624.68,301.85 624.88,359.91 625.09,273.28 625.28,359.73 625.47,322.22 625.64,310.31 625.78,347.70 625.91,339.75 626.00,400.90 626.06,360.26 626.09,355.69 626.10,308.24 626.14,330.81 626.21,359.19 626.31,349.81 626.44,374.25 626.60,359.11 626.77,379.18 626.96,412.71 627.16,278.81 627.36,272.78 627.57,265.24 627.76,299.77 627.95,337.66 628.11,340.58 628.25,349.25 628.37,301.31 628.45,370.36 628.51,357.60 628.52,357.40 628.54,299.02 628.58,386.48 628.66,326.27 628.78,267.82 628.91,284.96 629.07,221.45 629.25,204.51 629.44,188.91 629.65,189.04 629.85,228.13 630.05,187.48 630.24,188.71 630.42,265.84 630.58,307.65 630.72,324.90 630.83,352.80 630.90,321.63 630.95,390.49 630.96,386.09 630.98,415.30 631.03,363.87 631.12,364.92 631.24,354.27 631.38,320.66 631.54,391.56 631.73,299.44 631.93,362.23 632.13,386.47 632.33,340.86 632.54,342.34 632.72,360.26 632.89,375.41 633.05,369.94 633.18,362.01 633.28,380.91 633.35,347.05 633.38,361.01 633.39,324.59 633.42,303.48 633.49,296.32 633.58,320.67 633.71,264.87 633.85,379.79 634.02,239.55 634.21,308.80 634.41,143.71 634.62,305.06 634.82,110.61 635.01,124.20 635.20,142.35 635.37,275.18 635.52,321.02 635.64,310.82 635.73,287.31 635.79,338.82 635.82,342.27 635.83,254.60 635.87,310.84 635.94,321.96 636.04,310.08 636.18,327.58 636.33,344.24 636.50,251.45 636.70,306.38 636.89,252.60 637.10,237.38 637.30,185.90 637.49,214.37 637.68,211.99 637.84,219.77 637.99,252.18 638.10,249.55 638.19,365.15 638.24,288.19 638.25,336.26 638.27,334.50 638.32,380.66 638.40,350.40 638.51,341.82 638.64,361.75 638.80,351.87 638.98,360.31 639.18,310.03 639.38,339.47 639.59,303.97 639.78,323.89 639.97,375.56 640.16,370.22 640.31,335.20 640.45,319.49 640.56,366.86 640.63,333.77 640.68,326.84 640.69,301.66 640.71,410.48 640.77,365.53 640.85,392.69 640.97,334.09 641.11,329.60 641.28,369.50 641.46,349.77 641.66,298.88 641.86,296.35 642.06,327.77 642.27,356.68 642.45,289.63 642.63,301.73 642.78,306.93 642.91,382.44 643.01,316.56 643.08,354.89 643.12,303.22 643.12,335.17 643.15,356.03 643.22,352.58 643.31,351.20 643.44,318.79 643.59,353.30 643.76,282.03 643.94,304.26 644.15,293.33 644.35,325.84 644.55,300.26 644.75,325.13 644.93,311.26 645.11,388.82 645.25,316.93 645.37,406.88 645.46,387.21 645.52,343.66 645.55,356.57 645.56,364.44 645.60,299.78 645.67,423.42 645.77,359.36 645.91,345.63 646.06,309.77 646.24,282.24 646.43,294.30 646.63,265.35 646.83,268.59 647.03,302.86 647.23,305.01 647.41,366.48 647.58,370.75 647.72,388.70 647.83,320.31 647.92,358.23 647.97,366.51 647.99,330.47 648.00,323.90 648.05,343.05 648.13,280.75 648.24,272.37 648.38,265.62 648.54,249.58 648.72,256.16 648.91,299.54 649.11,228.31 649.32,279.21 649.52,319.02 649.71,328.43 649.89,361.86 650.05,357.57 650.18,325.99 650.29,383.35 650.36,362.66 650.41,328.06 650.42,336.09 650.44,387.40 650.50,406.28 650.59,320.50 650.70,376.22 650.85,293.19 651.01,348.61 651.20,282.99 651.39,273.25 651.59,295.74 651.80,298.55 652.00,356.46 652.19,385.13 652.36,355.04 652.51,372.32 652.64,373.69 652.74,392.03 652.81,333.73 652.85,359.79 652.85,336.31 652.88,254.49 652.95,365.75 653.05,355.76 653.17,305.49 653.32,389.66 653.49,308.46 653.67,243.64 653.88,223.54 654.08,233.43 654.29,254.51 654.48,240.73 654.67,372.69 654.84,267.35 654.98,380.93 655.10,307.69 655.19,330.70 655.26,367.87 655.28,329.91 655.29,354.34 655.33,287.40 655.40,375.13 655.51,355.46 655.64,316.62 655.80,337.33 655.97,264.23 656.16,346.20 656.36,350.63 656.56,358.94 656.77,239.63 656.96,261.04 657.15,259.15 657.31,274.12 657.45,269.31 657.56,297.55 657.65,352.18 657.70,325.58 657.72,288.51 657.73,357.95 657.78,360.72 657.86,338.43 657.97,382.58 658.11,351.56 658.27,301.18 658.45,328.09 658.64,345.02 658.85,322.62 659.05,363.00 659.25,377.85 659.44,357.97 659.62,309.29 659.78,385.06 659.91,344.32 660.02,340.51 660.10,351.16 660.14,401.49 660.15,388.20 660.17,343.34 660.23,374.43 660.32,352.79 660.44,342.40 660.58,388.33 660.74,318.04 660.93,274.25 661.12,308.35 661.33,270.17 661.53,345.31 661.74,278.16 661.92,379.35 662.09,291.78 662.25,293.72 662.37,381.70 662.48,342.03 662.54,337.88 662.58,311.43 662.58,310.12 662.61,367.93 662.68,364.72 662.78,338.75 662.90,286.29 663.05,353.36 663.22,252.85 663.41,262.99 663.61,301.14 663.82,298.76 664.02,262.63 664.21,282.77 664.40,317.47 664.57,349.69 664.72,323.29 664.83,305.57 664.93,385.92 664.99,343.85 665.01,382.13 665.02,342.47 665.06,275.46 665.14,307.78 665.24,308.35 665.37,261.85 665.53,302.74 665.70,241.40 665.89,223.12 666.09,286.53 666.30,269.33 666.50,326.02 666.69,219.41 666.88,252.55 667.04,308.50 667.18,344.63 667.29,331.41 667.38,372.46 667.43,366.86 667.45,398.60 667.46,400.02 667.51,373.36 667.59,326.46 667.70,359.99 667.84,351.66 668.00,279.20 668.18,270.83 668.38,344.08 668.58,289.65 668.79,347.81 668.98,317.19 669.17,267.47 669.35,292.74 669.51,366.18 669.65,292.90 669.75,392.42 669.83,363.24 669.87,362.38 669.88,305.01 669.90,390.62 669.96,308.10 670.05,272.63 670.17,363.19 670.31,280.05 670.48,320.52 670.66,207.82 670.86,219.55 671.06,191.41 671.26,237.31 671.47,228.74 671.65,251.93 671.83,228.12 671.98,302.73 672.11,375.39 672.21,341.65 672.27,290.61 672.31,387.61 672.31,354.36 672.35,398.48 672.41,347.84 672.51,375.23 672.63,389.76 672.78,268.58 672.96,307.32 673.14,254.21 673.35,243.72 673.55,288.08 673.75,223.61 673.95,252.15 674.13,324.37 674.30,255.96 674.45,304.44 674.57,333.73 674.66,342.76 674.72,393.59 674.74,381.78 674.75,259.36 674.79,274.67 674.87,310.94 674.97,369.16 675.10,301.59 675.26,244.46 675.44,330.30 675.63,352.57 675.82,243.38 676.03,243.62 676.23,278.40 676.43,271.44 676.61,291.47 676.77,342.00 676.91,306.39 677.02,329.38 677.11,332.06 677.16,358.53 677.18,320.08 677.19,369.36 677.24,398.46 677.32,329.99 677.43,350.27 677.57,286.13 677.73,301.58 677.92,235.27 678.11,302.95 678.31,364.53 678.52,194.58 678.71,234.48 678.91,305.54 679.08,240.51 679.25,331.14 679.38,247.48 679.48,288.42 679.56,310.67 679.60,275.03 679.61,360.26 679.63,384.85 679.69,329.27 679.78,365.60 679.90,337.09 680.05,333.81 680.21,339.62 680.40,279.19 680.59,396.93 680.79,259.78 681.00,277.11 681.20,289.56 681.39,298.10 681.56,291.06 681.71,382.48 681.84,377.02 681.94,370.33 682.00,379.26 682.04,300.74 682.05,313.73 682.08,382.03 682.14,350.88 682.24,381.14 682.36,343.32 682.52,360.81 682.69,330.05 682.87,312.73 683.08,292.67 683.28,289.80 683.48,300.46 683.68,311.22 683.87,366.38 684.03,352.61 684.18,388.68 684.30,339.00 684.39,347.06 684.45,404.41 684.47,341.69 684.48,396.04 684.52,331.25 684.60,343.92 684.70,339.05 684.83,389.89 684.99,336.07 685.17,322.14 685.36,363.99 685.56,330.10 685.76,287.53 685.97,344.93 686.16,313.87 686.34,354.61 686.51,344.27 686.64,328.97 686.76,357.17 686.84,344.39 686.89,403.87 686.91,367.48 686.92,421.75 686.97,361.09 687.05,396.85 687.17,369.29 687.30,354.96 687.47,354.53 687.65,306.79 687.84,314.92 688.05,304.85 688.25,329.27 688.45,315.16 688.64,403.82 688.81,300.70 688.98,405.47 689.11,350.05 689.22,367.42 689.29,371.64 689.33,381.49 689.34,274.69 689.36,270.15 689.42,329.77 689.51,252.43 689.63,388.52 689.78,182.07 689.94,281.72 690.13,165.04 690.32,253.94 690.53,248.84 690.73,195.42 690.93,313.22 691.12,342.82 691.29,297.77 691.44,262.43 691.57,351.49 691.67,296.17 691.74,333.32 691.77,265.44 691.78,366.70 691.81,380.21 691.88,366.04 691.97,413.98 692.10,369.18 692.25,393.87 692.42,365.43 692.61,364.36 692.81,350.89 693.02,396.28 693.22,373.52 693.41,350.42 693.60,363.64 693.76,383.75 693.91,359.84 694.03,397.77 694.12,368.37 694.18,370.64 694.20,385.10 694.21,356.95 694.25,279.28 694.33,364.03 694.43,341.63 694.56,290.15 694.72,285.04 694.90,223.03 695.09,181.07 695.29,222.84 695.50,253.99 695.70,194.47 695.89,261.63 696.08,304.19 696.24,402.92 696.38,349.45 696.49,321.92 696.57,327.99 696.62,374.79 696.64,366.10 696.65,352.47 696.70,347.36 696.79,312.21 696.90,329.60 697.03,387.23 697.20,408.57 697.38,323.46 697.58,329.15 697.78,325.97 697.98,311.49 698.18,355.96 698.37,292.10 698.55,312.67 698.71,292.85 698.84,370.69 698.95,351.66 699.02,385.90 699.06,375.63 699.07,346.51 699.10,397.78 699.15,361.33 699.25,309.56 699.36,358.77 699.51,361.37 699.68,324.55 699.86,271.53 700.06,262.35 700.26,358.45 700.46,291.87 700.66,357.86 700.85,337.17 701.03,311.71 701.18,286.81 701.30,315.54 701.40,285.46 701.47,333.72 701.50,334.29 701.51,344.90 701.54,398.37 701.61,364.86 701.70,370.37 701.83,378.76 701.98,365.79 702.16,301.09 702.34,281.05 702.54,298.74 702.75,330.65 702.95,307.57 703.15,351.58 703.33,306.74 703.50,341.26 703.64,351.26 703.76,383.13 703.85,375.43 703.91,400.33 703.94,341.02 703.94,336.84 703.99,349.56 704.06,404.23 704.16,297.46 704.30,306.78 704.45,333.15 704.64,281.45 704.82,263.72 705.02,300.74 705.23,257.53 705.43,340.09 705.63,280.39 705.81,270.42 705.97,318.97 706.11,306.90 706.22,392.69 706.30,402.60 706.35,398.93 706.37,398.23 706.38,302.56 706.43,372.45 706.52,339.99 706.63,317.53 706.77,245.58 706.93,285.60 707.12,257.39 707.31,259.59 707.51,317.93 707.72,261.23 707.91,280.50 708.11,258.76 708.28,254.24 708.44,321.74 708.57,323.35 708.68,385.53 708.75,364.63 708.79,363.66 708.80,296.95 708.83,362.84 708.88,243.39 708.98,328.61 709.09,355.99 709.24,227.05 709.41,248.11 709.60,238.40 709.79,223.04 709.99,273.44 710.20,243.87 710.40,287.10 710.59,244.52 710.76,277.12 710.91,345.58 711.03,323.44 711.13,400.21 711.20,361.36 711.23,335.21 711.24,364.38 711.27,340.85 711.34,288.51 711.44,376.28 711.56,360.41 711.72,273.51 711.89,294.69 712.07,333.00 712.28,302.57 712.48,262.19 712.68,281.34 712.88,269.77 713.07,312.58 713.23,307.07 713.37,382.75 713.50,285.81 713.58,367.24 713.64,417.35 713.67,340.40 713.67,283.16 713.72,312.95 713.79,374.39 713.90,324.35 714.03,338.85 714.19,197.46 714.37,304.26 714.55,223.36 714.76,231.39 714.96,230.82 715.17,188.66 715.36,201.96 715.54,251.00 715.70,240.96 715.84,293.26 715.95,395.33 716.03,356.68 716.08,321.75 716.10,303.41 716.11,376.87 716.17,369.45 716.25,335.20 716.36,353.60 716.50,376.42 716.66,385.38 716.85,362.92 717.04,357.25 717.24,350.48 717.45,357.70 717.65,362.27 717.84,419.96 718.01,380.79 718.17,366.24 718.30,377.10 718.41,410.16 718.48,359.17 718.52,368.76 718.53,349.96 718.56,375.37 718.62,354.07 718.71,320.98 718.83,323.08 718.97,374.47 719.14,309.24 719.33,330.79 719.52,364.87 719.73,339.04 719.93,334.05 720.13,317.60 720.32,372.95 720.49,355.89 720.64,383.40 720.77,381.03 720.86,379.11 720.93,382.33 720.96,318.89 720.97,310.64 721.00,356.03 721.07,340.84 721.17,364.55 721.30,358.52 721.45,354.11 721.62,345.44 721.81,324.58 722.01,265.31 722.21,349.67 722.41,304.17 722.61,268.63 722.80,318.44 722.96,269.42 723.11,381.24 723.23,296.54 723.32,382.91 723.37,355.16 723.40,337.55 723.41,381.26 723.45,367.58 723.52,370.92 723.63,380.50 723.76,380.30 723.92,350.11 724.10,368.60 724.29,339.78 724.49,344.66 724.70,330.30 724.90,303.33 725.09,299.65 725.27,326.71 725.43,354.41 725.57,338.85 725.68,369.02 725.76,330.00 725.81,313.33 725.83,325.53 725.85,387.83 725.90,364.66 725.98,270.19 726.09,393.08 726.23,372.18 726.40,301.58 726.58,349.64 726.78,362.28 726.97,279.81 727.18,280.60 727.38,352.17 727.57,294.38 727.75,319.35 727.90,328.46 728.04,385.22 728.14,385.16 728.21,315.90 728.25,371.67 728.26,402.13 728.29,357.14 728.35,350.24 728.44,337.54 728.56,361.96 728.70,391.72 728.88,326.50 729.06,375.26 729.26,398.51 729.46,316.32 729.66,332.92 729.86,346.12 730.05,333.21 730.22,370.99 730.37,364.83 730.50,357.64 730.59,344.33 730.66,353.03 730.69,338.73 730.70,284.66 730.73,270.56 730.80,338.56 730.90,286.62 731.03,304.79 731.18,344.08 731.35,272.97 731.54,180.34 731.74,193.01 731.94,202.79 732.14,235.20 732.35,243.98 732.53,344.11 732.70,343.11 732.84,379.48 732.96,309.96 733.05,316.97 733.10,384.77 733.13,320.52 733.14,333.53 733.18,399.66 733.26,363.19 733.36,349.18 733.50,361.96 733.65,339.06 733.83,397.42 734.02,359.16 734.22,297.02 734.43,307.14 734.63,326.21 734.83,309.33 735.00,352.34 735.17,341.85 735.30,374.65 735.41,348.76 735.50,378.52 735.54,365.24 735.56,255.85 735.58,283.34 735.63,407.89 735.71,302.45 735.82,309.03 735.97,248.72 736.13,237.96 736.31,278.43 736.51,222.82 736.71,211.79 736.91,284.77 737.11,190.44 737.31,240.00 737.48,250.01 737.64,232.56 737.77,313.21 737.87,350.59 737.95,319.23 737.98,250.46 737.99,357.68 738.02,326.28 738.08,302.64 738.17,332.78 738.29,362.03 738.44,345.51 738.61,342.46 738.80,306.57 738.99,260.72 739.19,292.67 739.40,280.20 739.59,299.70 739.79,306.20 739.95,284.33 740.10,359.49 740.23,373.08 740.33,335.90 740.39,353.68 740.42,387.86 740.43,378.51 740.46,419.37 740.53,340.47 740.63,365.69 740.76,316.87 740.91,311.68 741.08,315.64 741.27,318.42 741.47,347.77 741.67,274.70 741.88,360.55 742.08,361.01 742.26,315.45 742.43,369.05 742.57,345.11 742.69,298.13 742.78,328.86 742.84,347.93 742.86,321.21 742.87,369.45 742.91,374.17 742.99,403.30 743.09,320.62 743.23,374.06 743.39,273.53 743.56,316.83 743.75,319.03 743.96,299.48 744.16,303.75 744.37,335.63 744.56,341.32 744.73,314.55 744.90,369.00 745.04,322.20 745.15,334.87 745.23,414.45 745.28,396.58 745.29,378.43 745.31,352.34 745.36,336.02 745.44,380.90 745.56,334.28 745.70,380.11 745.86,283.65 746.04,292.37 746.24,329.95 746.44,320.26 746.64,309.24 746.85,312.70 747.04,313.06 747.21,319.36 747.37,309.59 747.50,345.03 747.60,360.91 747.68,305.98 747.72,350.59 747.72,383.16 747.75,397.36 747.81,314.32 747.90,308.07 748.03,374.94 748.17,264.25 748.34,305.41 748.53,313.29 748.72,278.99 748.93,349.95 749.13,279.84 749.33,285.81 749.52,289.27 749.68,334.86 749.84,353.27 749.96,359.27 750.06,354.22 750.12,369.75 750.15,350.04 750.16,297.97 750.19,227.49 750.26,259.21 750.36,318.74 750.49,198.07 750.64,238.20 750.82,180.84 751.01,182.16 751.20,236.65 751.41,200.36 751.61,229.19 751.81,231.54 751.99,230.49 752.16,230.83 752.30,295.49 752.42,242.87 752.51,321.57 752.57,412.70 752.59,398.99 752.60,349.40 752.64,326.29 752.72,384.78 752.83,354.74 752.96,399.12 753.12,312.61 753.29,317.90 753.49,369.54 753.69,348.60 753.90,304.02 754.10,322.70 754.29,285.52 754.47,312.96 754.63,350.65 754.77,371.60 754.88,365.97 754.96,340.09 755.01,367.03 755.02,302.02 755.04,326.66 755.09,359.10 755.18,209.89 755.29,229.94 755.43,334.03 755.60,175.08 755.78,172.90 755.97,174.15 756.17,167.65 756.37,191.27 756.58,158.62 756.77,156.18 756.95,288.02 757.10,214.19 757.23,351.79 757.34,271.57 757.41,253.36 757.45,292.63 757.45,374.14 757.48,358.25 757.54,396.85 757.64,410.16 757.76,371.74 757.90,297.91 758.07,309.51 758.26,267.97 758.46,379.91 758.66,283.46 758.86,281.70 759.06,264.83 759.25,265.68 759.42,256.65 759.57,321.13 759.70,339.19 759.79,299.43 759.85,364.55 759.88,323.05 759.89,408.53 759.93,356.87 759.99,353.11 760.09,381.70 760.22,332.11 760.37,370.20 760.55,260.27 760.74,353.24 760.94,325.51 761.14,277.63 761.34,250.26 761.54,270.27 761.72,249.53 761.89,278.94 762.04,331.61 762.15,401.44 762.24,360.94 762.30,351.55 762.32,355.57 762.33,327.02 762.37,331.23 762.45,383.05 762.56,328.12 762.69,336.58 762.85,360.86 763.03,318.62 763.22,383.38 763.42,276.19 763.63,320.06 763.83,301.23 764.02,354.74 764.20,309.82 764.37,419.48 764.50,314.40 764.61,334.39 764.69,350.36 764.74,350.15 764.75,386.25 764.77,401.11 764.82,408.85 764.91,295.82 765.02,369.74 765.16,335.77 765.33,353.91 765.51,325.85 765.70,340.11 765.90,306.89 766.11,301.77 766.31,286.85 766.50,306.69 766.68,346.00 766.83,317.24 766.96,315.75 767.07,361.34 767.14,400.41 767.18,323.09 767.19,372.53 767.21,390.60 767.27,379.43 767.37,362.20 767.49,330.02 767.64,300.13 767.80,280.01 767.99,311.71 768.19,283.89 768.39,280.88 768.60,269.51 768.79,278.24 768.98,331.89 769.15,343.12 769.30,295.59 769.43,393.54 769.52,351.43 769.58,364.67 769.61,359.73 769.62,307.44 769.66,294.31 769.73,377.37 769.83,349.39 769.95,277.80 770.11,296.44 770.28,239.42 770.47,290.35 770.67,301.92 770.87,288.56 771.08,242.69 771.27,337.53 771.46,367.55 771.62,346.66 771.77,414.22 771.89,394.87 771.97,385.04 772.03,356.38 772.05,388.10 772.06,365.71 772.10,372.79 772.18,357.93 772.29,311.40 772.42,354.55 772.59,318.10 772.76,272.46 772.95,222.87 773.16,214.06 773.36,275.21 773.56,293.05 773.75,328.42 773.93,338.45 774.10,419.58 774.23,381.75 774.34,398.65 774.42,407.84 774.47,404.34 774.48,266.85 774.50,283.02 774.55,402.97 774.64,313.65 774.76,316.46 774.90,385.94 775.06,326.78 775.24,258.09 775.44,268.37 775.64,240.03 775.84,226.18 776.05,271.69 776.23,240.59 776.41,346.86 776.57,337.84 776.69,320.22 776.80,304.03 776.87,308.57 776.91,275.90 776.92,311.00 776.94,337.36 777.01,304.84 777.10,345.34 777.22,284.78 777.37,372.41 777.53,347.40 777.72,302.03 777.92,265.77 778.13,329.57 778.33,380.33 778.53,273.69 778.71,252.86 778.88,371.99 779.03,298.72 779.16,317.37 779.25,318.65 779.31,328.07 779.34,269.77 779.35,343.56 779.39,264.00 779.46,346.08 779.56,361.24 779.69,353.63 779.84,365.94 780.01,244.44 780.21,283.32 780.40,345.14 780.61,251.50 780.81,351.92 781.00,275.73 781.19,292.30 781.35,274.72 781.50,357.18 781.62,279.53 781.70,350.01 781.76,369.30 781.78,296.63 781.79,351.62 781.84,353.04 781.91,360.91 782.02,343.06 782.15,404.43 782.32,312.19 782.49,314.79 782.69,315.47 782.89,334.03 783.10,343.82 783.30,369.98 783.49,409.70 783.67,391.44 783.83,344.30 783.97,350.61 784.07,328.72 784.15,366.92 784.20,341.70 784.21,366.13 784.23,371.12 784.28,390.40 784.37,337.51 784.49,337.98 784.63,317.85 784.79,315.12 784.97,313.90 785.17,275.75 785.37,314.64 785.57,370.68 785.78,317.51 785.97,387.29 786.14,278.83 786.30,287.16 786.43,358.94 786.53,307.13 786.60,332.26 786.64,308.13 786.65,388.16 786.68,413.13 786.74,394.03 786.83,359.52 786.95,363.83 787.10,370.10 787.27,326.17 787.45,290.18 787.66,266.43 787.86,329.50 788.06,340.74 788.26,291.71 788.44,324.02 788.62,289.06 788.76,319.12 788.89,341.37 788.98,300.89 789.05,311.66 789.08,367.79 789.08,396.22 789.12,367.85 789.19,390.58 789.29,383.92 789.42,385.61 789.57,392.87 789.75,320.16 789.94,355.61 790.14,332.56 790.34,320.74 790.54,352.03 790.74,322.07 790.92,347.91 791.09,331.25 791.23,366.22 791.35,350.43 791.44,362.99 791.49,386.60 791.51,356.11 791.52,298.94 791.57,319.17 791.65,339.43 791.75,315.35 791.89,257.90 792.05,249.72 792.23,218.63 792.42,182.94 792.62,253.29 792.83,205.95 793.03,218.23 793.22,251.97 793.40,184.84 793.56,384.59 793.70,269.11 793.80,360.29 793.88,287.57 793.93,287.06 793.94,319.83 793.96,368.45 794.02,403.24 794.10,389.55 794.22,408.65 794.36,351.99 794.52,405.35 794.71,328.18 794.90,299.26 795.10,327.31 795.31,318.02 795.51,397.89 795.70,326.62 795.87,338.05 796.03,367.18 796.16,339.98 796.26,379.67 796.33,348.07 796.37,303.01 796.38,333.51 796.41,208.91 796.47,334.09 796.56,344.89 796.68,318.75 796.83,235.88 797.00,238.43 797.19,252.53 797.39,115.74 797.59,137.65 797.80,143.53 797.99,190.57 798.18,196.47 798.35,210.21 798.50,272.58 798.62,314.31 798.71,238.86 798.78,306.77 798.81,304.52 798.81,344.56 798.85,362.19 798.92,352.71 799.02,331.77 799.15,386.94 799.31,340.44 799.48,322.68 799.67,247.45 799.87,204.15 800.07,216.75 800.28,140.35 800.47,197.47 800.66,279.86 800.82,186.60 800.96,344.74 801.08,188.99 801.17,296.54 801.22,357.58 801.24,277.91 801.25,356.13 801.30,341.94 801.38,368.29 801.49,312.52 801.62,364.19 801.78,256.55 801.96,363.69 802.15,256.98 802.36,305.35 802.56,245.41 802.76,293.22 802.95,337.69 803.13,304.43 803.29,415.29 803.43,294.38 803.54,397.75 803.62,373.39 803.66,296.39 803.67,368.08 803.69,394.17 803.75,322.46 803.83,312.47 803.95,343.00 804.09,328.87 804.25,291.54 804.44,353.52 804.63,330.82 804.84,298.45 805.04,276.79 805.25,270.62 805.43,282.66 805.61,318.09 805.76,330.72 805.89,296.31 805.99,392.75 806.06,310.00 806.10,360.05 806.11,397.43 806.14,359.75 806.20,332.02 806.29,363.21 806.42,319.45 806.57,314.04 806.73,298.76 806.92,370.37 807.12,294.02 807.33,269.69 807.53,281.83 807.72,267.77 807.91,348.71 808.08,335.35 808.23,368.59 808.35,350.67 808.45,301.02 808.51,365.22 808.54,300.40 808.54,394.59 808.58,337.90 808.65,365.44 808.75,400.80 808.89,323.04 809.04,303.02 809.21,295.34 809.41,304.98 809.60,314.02 809.81,298.28 810.01,314.56 810.20,323.44 810.39,353.95 810.55,393.12 810.70,393.86 810.81,310.04 810.90,344.06 810.95,409.64 810.97,392.93 810.98,306.65 811.03,271.55 811.11,350.17 811.22,244.10 811.35,322.89 811.51,244.70 811.69,246.19 811.89,211.68 812.09,340.24 812.30,265.82 812.49,215.78 812.68,247.97 812.87,230.85 813.02,273.54 813.16,280.11 813.27,319.20 813.35,292.00 813.39,286.21 813.40,366.36 813.42,425.99 813.48,390.12 813.57,370.14 813.68,380.20 813.82,388.74 813.99,334.46 814.17,348.35 814.37,332.21 814.57,320.05 814.77,388.31 814.98,343.24 815.16,323.24 815.34,345.39 815.49,413.80 815.63,384.28 815.72,379.99 815.79,371.88 815.83,367.21 815.84,214.66 815.87,371.37 815.93,258.50 816.02,392.21 816.15,330.22 816.30,220.87 816.47,270.79 816.65,189.61 816.86,172.20 817.06,187.13 817.26,225.64 817.46,145.90 817.64,195.88 817.82,311.41 817.96,380.48 818.08,345.30 818.18,249.11 818.24,400.05 818.27,322.51 818.28,366.42 818.31,336.32 818.38,413.90 818.48,334.53 818.62,363.06 818.77,300.32 818.95,329.95 819.14,361.24 819.34,333.42 819.54,344.63 819.74,273.73 819.94,289.11 820.12,309.27 820.29,368.43 820.43,329.09 820.54,304.39 820.63,348.50 820.68,367.71 820.70,332.58 820.71,329.12 820.76,399.92 820.84,349.36 820.95,330.76 821.09,333.45 821.25,375.34 821.43,355.86 821.62,300.54 821.82,316.39 822.03,329.17 822.22,350.28 822.42,336.21 822.60,378.56 822.76,357.80 822.89,324.26 823.00,343.87 823.08,361.33 823.12,319.59 823.13,320.83 823.16,394.29 823.21,391.00 823.30,328.21 823.41,399.42 823.56,311.31 823.72,362.27 823.91,287.06 824.10,295.53 824.30,326.46 824.51,347.76 824.71,380.91 824.90,352.67 825.07,387.78 825.22,333.52 825.36,352.39 825.45,352.12 825.53,339.32 825.56,328.20 825.57,355.32 825.60,372.17 825.66,373.96 825.76,387.01 825.88,361.60 826.03,329.57 826.20,335.04 826.38,299.20 826.59,303.42 826.79,336.68 826.99,325.07 827.19,365.03 827.38,329.24 827.55,362.28 827.69,299.84 827.82,331.56 827.91,316.66 827.97,346.65 828.00,367.41 828.01,317.86 828.04,317.92 828.11,354.53 828.22,297.24 828.35,312.74 828.51,289.45 828.68,362.24 828.87,248.62 829.07,305.35 829.27,282.57 829.48,311.61 829.67,298.15 829.86,311.42 830.02,312.01 830.16,302.90 830.28,329.43 830.36,384.48 830.41,399.79 830.43,346.37 830.44,371.96 830.49,376.64 830.57,361.40 830.68,333.20 830.82,333.96 830.98,305.24 831.16,338.91 831.35,307.42 831.56,304.27 831.76,307.18 831.96,401.61 832.15,301.17 832.33,290.06 832.49,315.86 832.62,297.94 832.73,375.84 832.81,346.00 832.85,316.25 832.86,286.65 832.89,357.76 832.94,346.22 833.03,318.68 833.15,365.86 833.29,232.75 833.45,310.49 833.64,291.55 833.83,200.26 834.04,231.16 834.24,246.07 834.44,224.04 834.63,299.65 834.80,284.93 834.96,317.26 835.09,334.87 835.19,397.41 835.26,358.10 835.29,319.11 835.30,347.99 835.33,371.93 835.39,352.92 835.49,335.46 835.61,314.91 835.76,321.77 835.93,317.52 836.12,299.68 836.32,235.76 836.52,273.48 836.73,331.53 836.92,332.34 837.11,321.50 837.28,290.73 837.43,305.51 837.55,348.93 837.64,358.44 837.70,358.15 837.73,348.54 837.74,376.45 837.77,397.07 837.85,397.43 837.95,250.09 838.08,278.18 838.24,240.43 838.41,221.19 838.60,327.53 838.80,274.34 839.01,238.72 839.21,229.07 839.40,233.78 839.59,220.09 839.75,243.56 839.89,343.37 840.01,326.96 840.09,410.55 840.14,274.85 840.16,274.69 840.18,378.68 840.22,370.40 840.30,373.45 840.41,321.31 840.55,326.29 840.71,199.33 840.89,280.99 841.09,306.39 841.29,260.08 841.49,202.45 841.69,194.32 841.88,228.29 842.06,216.23 842.22,322.92 842.36,261.20 842.46,295.87 842.54,307.58 842.58,363.90 842.60,374.84 842.62,388.02 842.67,296.35 842.76,364.23 842.88,367.08 843.02,315.60 843.19,313.80 843.37,320.34 843.57,335.14 843.77,315.50 843.97,286.46 844.18,290.99 844.36,269.18 844.54,385.88 844.69,291.22 844.82,409.94 844.92,332.45 844.99,335.70 845.02,332.45 845.03,319.15 845.06,355.62 845.12,339.27 845.22,323.36 845.35,301.00 845.49,328.09 845.67,299.18 845.85,380.85 846.05,279.70 846.26,328.39 846.46,294.89 846.66,278.29 846.84,303.38 847.01,347.22 847.16,339.94 847.28,317.41 847.37,353.89 847.43,394.87 847.46,395.56 847.47,401.71 847.51,324.73 847.58,297.23 847.68,325.57 847.81,346.13 847.97,346.55 848.15,401.18 848.33,351.25 848.54,294.82 848.74,324.01 848.94,306.75 849.14,318.49 849.32,286.48 849.49,352.73 849.62,330.38 849.74,296.52 849.82,378.15 849.87,329.78 849.89,309.54 849.91,387.06 849.96,396.00 850.03,345.23 850.14,361.62 850.28,324.11 850.44,376.94 850.63,340.82 850.82,297.31 851.02,345.81 851.22,307.76 851.42,342.98 851.62,378.36 851.79,354.02 851.96,341.92 852.09,391.52 852.19,411.85 852.27,379.88 852.32,360.96 852.33,367.16 852.35,368.03 852.40,319.34 852.49,253.91 852.61,347.61 852.76,237.07 852.92,289.76 853.11,215.66 853.30,218.50 853.50,243.49 853.71,235.74 853.91,357.75 854.10,259.43 854.27,262.37 854.42,312.48 854.55,397.21 854.65,393.70 854.72,355.83 854.75,267.71 854.76,372.10 854.79,399.88 854.86,363.39 854.95,419.96 855.08,367.75 855.23,386.61 855.40,351.91 855.58,376.72 855.79,353.56 855.99,384.46 856.19,353.76 856.39,369.27 856.58,365.65 856.74,419.49 856.89,378.78 857.01,384.25 857.10,352.62 857.16,394.40 857.19,389.06 857.20,273.07 857.24,290.82 857.31,335.19 857.41,352.51 857.54,339.48 857.70,307.01 857.88,280.55 858.06,296.55 858.27,120.76 858.47,172.86 858.68,232.00 858.87,185.21 859.05,232.19 859.22,343.83 859.35,317.32 859.47,238.16 859.55,405.30 859.61,329.36 859.62,287.52 859.64,367.18 859.69,342.81 859.77,384.24 859.88,335.41 860.01,350.38 860.18,368.04 860.36,369.93 860.55,359.01 860.75,239.25 860.96,250.05 861.16,256.37 861.35,272.03 861.52,272.56 861.69,323.28 861.82,320.86 861.93,382.65 862.00,310.75 862.05,380.37 862.06,330.65 862.08,357.16 862.14,364.13 862.22,390.82 862.34,355.60 862.49,321.83 862.65,300.08 862.84,373.89 863.03,296.92 863.24,297.86 863.44,300.46 863.64,372.89 863.83,362.98 864.00,332.50 864.16,304.15 864.28,381.95 864.38,364.33 864.45,401.75 864.48,379.99 864.49,314.80 864.52,368.94 864.59,334.46 864.68,402.44 864.81,308.63 864.96,352.89 865.13,294.88 865.32,317.22 865.52,300.11 865.72,314.94 865.92,369.83 866.12,365.68 866.31,383.64 866.47,404.18 866.62,346.16 866.74,359.11 866.84,344.23 866.89,387.64 866.92,364.87 866.93,311.54 866.97,323.32 867.04,367.59 867.15,376.20 867.27,381.52 867.43,352.91 867.61,296.69 867.80,306.21 868.00,293.06 868.21,381.55 868.41,381.43 868.60,312.99 868.79,408.27 868.95,351.57 869.09,317.19 869.20,316.23 869.29,338.76 869.34,368.07 869.35,390.86 869.37,336.75 869.42,326.82 869.50,327.98 869.61,295.76 869.75,267.96 869.91,246.11 870.09,285.75 870.29,260.79 870.48,221.48 870.69,342.64 870.89,228.53 871.08,401.58 871.26,255.07 871.42,291.01 871.55,289.19 871.66,355.65 871.73,348.08 871.78,315.72 871.79,385.55 871.81,402.68 871.87,358.52 871.96,304.12 872.07,362.52 872.22,304.86 872.39,279.81 872.57,206.17 872.77,244.05 872.97,342.52 873.17,290.99 873.37,328.45 873.56,314.40 873.74,291.07 873.89,252.67 874.02,390.21 874.11,297.70 874.18,298.53 874.22,327.99 874.22,376.88 874.25,342.52 874.32,398.93 874.41,344.35 874.54,303.65 874.69,323.42 874.87,246.08 875.05,335.97 875.25,249.00 875.45,300.53 875.65,248.12 875.86,256.93 876.04,282.64 876.21,350.99 876.35,344.14 876.47,363.66 876.57,389.92 876.62,387.76 876.65,422.22 876.66,327.52 876.70,343.83 876.77,398.97 876.88,366.78 877.01,377.77 877.16,333.70 877.34,197.52 877.53,186.40 877.73,170.34 877.94,192.98 878.14,348.20 878.34,188.88 878.52,264.88 878.68,278.98 878.82,275.97 878.93,297.05 879.02,340.29 879.07,317.39 879.08,313.57 879.10,355.81 879.15,398.98 879.23,348.93 879.34,341.88 879.48,364.47 879.64,388.83 879.83,351.49 880.02,321.01 880.22,345.74 880.42,393.57 880.62,317.70 880.82,333.69 880.99,385.69 881.15,336.88 881.28,359.70 881.39,367.59 881.47,328.28 881.51,334.27 881.52,393.93 881.54,363.26 881.60,406.39 881.69,319.83 881.81,334.66 881.95,284.53 882.12,324.18 882.31,321.25 882.50,384.80 882.70,305.50 882.91,387.72 883.10,320.63 883.30,300.67 883.47,365.21 883.62,314.19 883.75,357.32 883.84,365.25 883.91,357.41 883.95,334.43 883.95,331.34 883.99,393.25 884.05,360.47 884.15,407.12 884.27,318.05 884.43,338.90 884.60,274.48 884.78,324.49 884.98,331.95 885.18,351.18 885.39,296.75 885.59,293.79 885.78,336.76 885.94,303.50 886.08,348.34 886.21,327.32 886.30,382.39 886.36,413.13 886.38,328.17 886.39,320.91 886.42,426.46 886.46,396.91 886.53,351.79 886.62,308.74 886.73,324.87 886.84,328.59 886.97,356.43 887.10,329.54 887.24,323.96 887.38,395.96 887.50,296.30 887.62,320.15 887.73,301.49 887.82,279.51 887.90,282.75 887.96,326.55 887.99,278.28 888.00,272.28" fill="none" stroke="#000" stroke-width="1.5" opacity="0.9"/>
<text x="500.0" y="502" font-family="Times New Roman" font-size="19" text-anchor="middle">Julian Date</text>
<text transform="translate(18,247.0) rotate(-90)" font-family="Times New Roman" font-size="19" text-anchor="middle">position residual (km)</text>
</svg>
