<svg xmlns="http://www.w3.org/2000/svg" width="920" height="520" viewBox="0 0 920 520">
<rect width="100%" height="100%" fill="white"/>
<text x="460.0" y="24" font-family="Times New Roman" font-size="24" text-anchor="middle">Mars native velocity residual</text>
<line x1="112" y1="434" x2="888" y2="434" stroke="#333"/>
<line x1="112" y1="60" x2="112" y2="434" stroke="#333"/>
<line x1="112" y1="434.00" x2="888" y2="434.00" stroke="#ddd"/>
<text x="104" y="438.00" font-family="Times New Roman" font-size="17" text-anchor="end">0</text>
<line x1="112" y1="340.50" x2="888" y2="340.50" stroke="#ddd"/>
<text x="104" y="344.50" font-family="Times New Roman" font-size="17" text-anchor="end">0.4574</text>
<line x1="112" y1="247.00" x2="888" y2="247.00" stroke="#ddd"/>
<text x="104" y="251.00" font-family="Times New Roman" font-size="17" text-anchor="end">0.9149</text>
<line x1="112" y1="153.50" x2="888" y2="153.50" stroke="#ddd"/>
<text x="104" y="157.50" font-family="Times New Roman" font-size="17" text-anchor="end">1.372</text>
<line x1="112" y1="60.00" x2="888" y2="60.00" stroke="#ddd"/>
<text x="104" y="64.00" font-family="Times New Roman" font-size="17" text-anchor="end">1.83</text>
<line x1="112.00" y1="434" x2="112.00" y2="439" stroke="#333"/>
<text x="112.00" y="456" font-family="Times New Roman" font-size="17" text-anchor="middle">2378495</text>
<line x1="306.00" y1="434" x2="306.00" y2="439" stroke="#333"/>
<text x="306.00" y="456" font-family="Times New Roman" font-size="17" text-anchor="middle">2433282</text>
<line x1="500.00" y1="434" x2="500.00" y2="439" stroke="#333"/>
<text x="500.00" y="456" font-family="Times New Roman" font-size="17" text-anchor="middle">2488070</text>
<line x1="694.00" y1="434" x2="694.00" y2="439" stroke="#333"/>
<text x="694.00" y="456" font-family="Times New Roman" font-size="17" text-anchor="middle">2542858</text>
<line x1="888.00" y1="434" x2="888.00" y2="439" stroke="#333"/>
<text x="888.00" y="456" font-family="Times New Roman" font-size="17" text-anchor="middle">2597645</text>
<polyline points="112.00,361.25 112.01,358.79 112.02,356.64 112.05,371.02 112.09,387.93 112.13,358.69 112.19,365.68 112.25,360.55 112.31,352.48 112.38,364.58 112.45,373.27 112.52,371.41 112.58,377.49 112.64,393.24 112.69,395.56 112.73,387.75 112.77,397.78 112.79,350.75 112.81,413.93 112.81,305.93 112.83,332.70 112.89,386.77 112.98,371.57 113.11,379.77 113.25,369.60 113.42,371.60 113.60,355.36 113.80,361.89 114.01,377.06 114.21,371.63 114.41,362.55 114.60,350.71 114.76,337.60 114.92,357.26 115.04,338.15 115.14,404.45 115.21,322.83 115.24,347.88 115.25,349.07 115.28,384.37 115.35,352.22 115.44,309.67 115.57,389.89 115.72,282.25 115.89,306.72 116.09,344.68 116.28,334.13 116.49,373.08 116.69,336.80 116.89,347.93 117.07,340.74 117.24,384.66 117.39,402.26 117.50,410.80 117.59,410.67 117.65,419.32 117.67,328.19 117.68,371.69 117.73,407.27 117.80,357.40 117.91,382.79 118.04,416.53 118.20,350.61 118.37,356.63 118.57,384.06 118.77,401.79 118.98,415.98 119.18,369.57 119.37,384.79 119.55,380.40 119.71,360.78 119.85,380.37 119.96,386.66 120.04,362.79 120.09,348.30 120.11,322.26 120.12,241.01 120.17,294.32 120.26,370.18 120.37,331.22 120.51,338.11 120.68,320.58 120.85,344.04 121.05,340.11 121.25,314.15 121.46,309.83 121.66,297.74 121.85,323.03 122.03,345.41 122.18,338.64 122.32,372.39 122.42,336.02 122.49,388.14 122.53,354.62 122.54,333.57 122.57,366.58 122.62,382.37 122.72,390.43 122.84,370.62 122.98,396.95 123.15,390.20 123.34,396.05 123.54,386.20 123.74,378.56 123.94,391.85 124.14,378.26 124.33,371.78 124.50,386.51 124.65,384.12 124.78,397.38 124.87,393.80 124.94,360.35 124.97,354.55 124.98,375.49 125.01,388.64 125.08,359.62 125.17,338.88 125.30,353.23 125.45,381.30 125.63,390.57 125.82,386.48 126.02,390.12 126.22,380.57 126.42,361.56 126.62,400.67 126.80,347.18 126.97,367.02 127.12,389.84 127.23,370.41 127.32,336.94 127.38,285.46 127.40,344.98 127.41,367.98 127.46,364.69 127.53,345.54 127.64,387.38 127.77,380.48 127.93,419.90 128.11,398.78 128.30,398.32 128.50,387.42 128.71,371.08 128.91,379.02 129.10,367.42 129.28,387.87 129.45,372.96 129.58,417.24 129.69,366.92 129.77,358.02 129.82,333.62 129.84,303.52 129.85,323.09 129.90,360.41 129.99,400.37 130.10,380.29 130.24,408.58 130.41,402.71 130.59,393.32 130.78,382.42 130.98,381.86 131.19,364.53 131.39,382.42 131.58,373.45 131.76,393.92 131.92,383.67 132.05,412.61 132.15,371.01 132.22,387.83 132.26,371.15 132.27,373.60 132.30,363.94 132.36,427.15 132.45,386.49 132.57,382.25 132.72,408.58 132.88,401.93 133.07,410.15 133.27,376.37 133.47,367.96 133.68,369.50 133.87,393.25 134.06,386.25 134.23,393.74 134.38,402.58 134.51,384.00 134.60,403.14 134.67,292.01 134.70,372.59 134.71,309.65 134.74,338.72 134.81,331.39 134.91,351.94 135.04,378.58 135.19,394.14 135.36,399.22 135.55,408.94 135.75,383.39 135.95,356.41 136.16,365.88 136.35,385.92 136.54,364.25 136.70,387.85 136.85,382.90 136.97,393.11 137.05,416.01 137.11,382.79 137.13,295.97 137.14,372.71 137.19,427.90 137.26,388.53 137.37,413.32 137.50,415.59 137.67,385.73 137.84,358.93 138.03,354.17 138.24,353.09 138.44,372.41 138.64,396.47 138.83,397.96 139.01,409.26 139.18,399.89 139.31,414.73 139.43,410.88 139.51,395.89 139.55,360.40 139.57,285.80 139.58,230.22 139.64,253.42 139.72,367.13 139.84,327.21 139.98,368.89 140.14,333.70 140.32,356.46 140.51,315.17 140.72,306.53 140.92,328.27 141.13,352.53 141.31,381.21 141.49,383.97 141.65,359.21 141.78,382.20 141.88,321.01 141.95,355.62 141.99,353.26 142.00,288.11 142.03,342.23 142.09,361.86 142.18,351.53 142.30,378.22 142.45,395.55 142.61,362.53 142.80,367.81 143.00,358.15 143.21,411.74 143.41,353.36 143.61,363.31 143.79,383.13 143.96,379.17 144.12,420.12 144.24,358.53 144.34,421.26 144.40,314.45 144.43,327.02 144.44,342.91 144.47,355.99 144.54,388.18 144.64,374.60 144.77,401.40 144.92,362.58 145.09,373.71 145.29,324.55 145.48,324.41 145.69,336.37 145.89,335.39 146.08,354.82 146.27,351.39 146.44,376.90 146.58,399.81 146.70,404.17 146.79,292.29 146.84,234.27 146.87,172.32 146.88,357.69 146.92,389.54 147.00,363.97 147.10,397.72 147.24,403.38 147.40,393.32 147.57,383.66 147.77,364.54 147.97,356.41 148.18,377.33 148.37,391.10 148.56,391.14 148.75,353.09 148.91,354.86 149.05,369.15 149.16,348.18 149.24,337.63 149.28,359.10 149.30,395.80 149.32,308.57 149.37,351.41 149.45,402.32 149.57,349.12 149.71,389.58 149.87,360.29 150.05,370.47 150.25,363.65 150.45,393.32 150.65,405.11 150.86,392.73 151.04,366.32 151.22,363.28 151.38,346.73 151.51,387.25 151.61,370.93 151.68,338.05 151.72,322.72 151.73,364.83 151.76,358.82 151.82,378.34 151.91,390.78 152.03,400.05 152.18,392.92 152.35,356.97 152.53,356.92 152.74,391.15 152.94,373.66 153.14,380.24 153.34,369.86 153.52,367.68 153.70,344.68 153.85,360.06 153.97,382.82 154.07,404.79 154.13,349.48 154.16,251.45 154.17,328.37 154.20,393.69 154.27,382.78 154.37,387.85 154.50,394.46 154.65,352.07 154.83,342.38 155.02,373.13 155.22,382.63 155.42,381.30 155.62,394.39 155.82,370.75 156.00,370.65 156.17,372.84 156.31,380.04 156.43,386.82 156.52,352.60 156.57,311.95 156.60,307.71 156.61,355.98 156.65,362.89 156.73,365.12 156.83,371.84 156.97,348.61 157.13,310.01 157.31,296.92 157.50,334.51 157.70,341.55 157.91,368.49 158.10,341.52 158.30,314.98 158.48,371.29 158.64,361.21 158.78,415.51 158.89,386.79 158.97,400.10 159.01,399.90 159.03,324.70 159.05,357.02 159.10,376.22 159.18,396.69 159.30,381.73 159.44,371.06 159.60,347.31 159.79,332.46 159.98,340.07 160.18,365.52 160.39,393.80 160.59,352.53 160.78,323.15 160.95,355.12 161.11,361.47 161.24,355.14 161.34,323.09 161.42,376.31 161.45,326.37 161.46,320.46 161.49,327.31 161.55,396.00 161.64,328.59 161.76,332.59 161.91,334.07 162.08,365.33 162.27,353.05 162.47,356.86 162.67,321.87 162.87,331.07 163.07,314.48 163.26,336.75 163.43,400.62 163.58,361.39 163.70,350.43 163.80,377.31 163.86,273.04 163.89,341.04 163.90,337.88 163.93,390.05 164.00,355.95 164.11,316.67 164.23,364.50 164.39,308.91 164.56,361.23 164.75,338.22 164.95,373.05 165.15,314.45 165.36,324.12 165.55,338.75 165.74,342.02 165.90,357.57 166.04,342.62 166.16,367.33 166.25,212.91 166.31,125.35 166.33,267.51 166.34,397.32 166.38,347.63 166.46,365.52 166.57,389.63 166.70,361.08 166.86,407.84 167.04,399.69 167.23,391.63 167.43,404.42 167.64,384.66 167.84,361.02 168.03,355.02 168.21,347.32 168.37,363.34 168.51,367.17 168.62,377.99 168.70,351.92 168.75,324.85 168.76,390.16 168.78,325.35 168.83,347.03 168.92,359.66 169.03,362.54 169.17,377.71 169.33,381.14 169.52,379.45 169.71,394.92 169.92,374.11 170.12,348.45 170.32,355.38 170.51,406.97 170.68,375.36 170.84,384.54 170.97,360.16 171.08,340.49 171.15,396.14 171.19,378.86 171.19,284.83 171.22,306.53 171.28,391.76 171.37,340.33 171.50,409.82 171.65,386.94 171.81,401.66 172.00,396.76 172.20,375.56 172.40,364.52 172.60,361.30 172.81,390.82 172.99,389.15 173.16,380.95 173.31,377.00 173.43,374.90 173.53,398.46 173.59,318.90 173.62,389.09 173.63,366.13 173.67,361.48 173.74,410.60 173.84,387.19 173.97,415.42 174.12,392.20 174.29,396.13 174.48,384.59 174.68,380.58 174.89,348.71 175.09,354.75 175.28,382.50 175.47,376.63 175.63,389.33 175.78,382.36 175.89,388.07 175.98,328.08 176.04,294.14 176.06,314.18 176.07,316.81 176.11,334.74 176.19,336.41 176.30,377.47 176.43,332.80 176.59,348.63 176.77,354.52 176.97,395.56 177.17,353.23 177.37,332.95 177.57,372.43 177.76,379.57 177.95,396.87 178.10,366.05 178.24,407.26 178.35,341.75 178.43,300.10 178.48,280.48 178.49,343.54 178.51,328.96 178.56,370.62 178.65,427.24 178.76,398.38 178.90,408.22 179.07,380.03 179.25,400.83 179.45,397.30 179.65,381.18 179.85,389.02 180.06,402.15 180.24,408.70 180.42,408.51 180.57,411.22 180.71,389.00 180.81,374.51 180.88,424.77 180.92,387.35 180.92,222.33 180.95,218.49 181.01,391.97 181.11,307.28 181.23,334.84 181.38,367.86 181.55,309.20 181.73,337.88 181.93,323.52 182.13,292.16 182.34,303.50 182.54,347.05 182.72,341.53 182.90,403.43 183.04,368.34 183.17,364.17 183.26,389.66 183.32,331.83 183.35,294.26 183.36,367.39 183.40,417.44 183.47,374.01 183.57,380.27 183.70,422.67 183.85,423.94 184.03,398.30 184.21,418.41 184.42,409.75 184.62,363.39 184.82,362.26 185.02,375.09 185.20,387.69 185.37,394.42 185.51,370.25 185.62,391.65 185.71,371.33 185.77,332.01 185.79,332.39 185.80,345.00 185.85,351.08 185.92,370.22 186.03,403.80 186.17,369.65 186.32,394.91 186.51,334.99 186.70,341.34 186.90,364.24 187.10,365.05 187.30,339.04 187.50,325.68 187.68,345.46 187.84,337.06 187.97,365.00 188.08,342.74 188.16,300.29 188.21,308.86 188.22,376.69 188.24,336.32 188.29,371.23 188.38,411.13 188.49,397.51 188.64,403.58 188.80,366.12 188.99,363.29 189.18,346.71 189.38,394.86 189.59,378.49 189.79,424.26 189.98,394.67 190.15,371.49 190.30,343.17 190.44,338.68 190.54,300.69 190.61,361.90 190.65,367.24 190.65,383.19 190.68,310.61 190.74,391.45 190.84,390.40 190.96,407.73 191.11,369.22 191.28,377.54 191.47,341.55 191.66,376.15 191.87,368.10 192.07,413.38 192.27,376.91 192.46,386.97 192.63,339.60 192.77,344.50 192.90,364.16 192.99,370.36 193.05,326.77 193.08,347.49 193.09,385.73 193.13,354.46 193.20,416.18 193.30,375.94 193.43,390.75 193.59,388.50 193.76,355.77 193.94,343.26 194.15,374.59 194.35,379.30 194.56,390.40 194.75,369.37 194.94,361.30 195.10,375.23 195.24,345.42 195.36,386.52 195.44,300.26 195.50,269.81 195.52,225.33 195.53,322.27 195.58,344.73 195.65,356.70 195.76,405.42 195.90,420.66 196.06,401.27 196.24,353.57 196.43,373.60 196.63,409.14 196.83,401.65 197.04,379.79 197.23,379.43 197.41,357.65 197.57,367.60 197.70,390.51 197.82,377.60 197.89,356.66 197.94,319.97 197.95,274.40 197.97,332.50 198.03,365.02 198.11,392.72 198.23,362.14 198.37,404.96 198.53,347.61 198.72,345.51 198.91,367.44 199.12,379.27 199.32,367.41 199.52,382.61 199.71,342.80 199.88,358.16 200.04,412.27 200.17,404.86 200.27,421.84 200.34,416.60 200.38,345.16 200.39,322.35 200.41,344.02 200.48,397.51 200.57,347.62 200.70,375.39 200.84,349.26 201.01,309.29 201.20,312.93 201.40,329.17 201.60,343.01 201.80,400.50 202.01,335.86 202.19,331.74 202.36,335.07 202.51,386.98 202.63,363.96 202.72,342.10 202.79,278.86 202.81,345.26 202.82,369.22 202.86,427.29 202.93,372.87 203.03,389.51 203.16,373.96 203.32,363.23 203.49,388.38 203.68,394.69 203.88,386.78 204.09,337.36 204.29,328.90 204.48,333.05 204.67,399.46 204.83,367.73 204.97,378.80 205.09,397.52 205.18,324.51 205.23,264.96 205.25,235.02 205.26,288.00 205.31,301.69 205.39,342.55 205.49,397.59 205.63,352.70 205.79,332.84 205.97,362.04 206.17,350.63 206.36,320.82 206.57,298.18 206.77,273.04 206.96,273.20 207.14,359.59 207.30,284.91 207.44,365.12 207.55,275.69 207.62,277.31 207.67,308.67 207.68,250.66 207.70,326.84 207.76,345.72 207.84,406.46 207.96,357.99 208.10,377.62 208.27,343.46 208.45,396.22 208.65,360.72 208.85,384.24 209.05,342.15 209.25,317.97 209.44,338.56 209.62,320.67 209.77,336.73 209.90,308.77 210.00,345.90 210.07,345.45 210.11,273.04 210.12,327.42 210.15,319.81 210.21,382.56 210.30,395.85 210.43,362.43 210.57,390.01 210.75,394.90 210.93,386.34 211.13,416.22 211.33,375.15 211.53,341.60 211.74,347.53 211.92,370.13 212.09,369.06 212.24,389.49 212.36,380.88 212.46,406.42 212.52,347.54 212.54,291.79 212.55,380.76 212.59,393.00 212.66,344.98 212.76,368.87 212.89,376.91 213.05,384.16 213.23,391.83 213.41,370.02 213.62,397.89 213.82,352.96 214.02,345.68 214.22,371.07 214.40,390.95 214.57,386.11 214.71,398.19 214.82,401.03 214.91,379.10 214.96,330.67 214.98,292.68 214.99,391.29 215.04,413.17 215.12,424.15 215.22,408.38 215.36,384.74 215.52,401.46 215.71,390.10 215.90,394.40 216.09,377.51 216.30,371.19 216.50,380.98 216.70,380.10 216.87,402.64 217.04,375.00 217.17,392.98 217.28,372.77 217.36,350.42 217.40,342.36 217.41,167.12 217.43,303.77 217.49,319.10 217.58,395.82 217.69,364.95 217.84,359.16 218.00,331.16 218.19,343.16 218.38,349.15 218.58,349.71 218.79,361.04 218.98,354.91 219.18,381.84 219.35,379.69 219.50,421.92 219.63,376.47 219.73,380.21 219.80,362.78 219.84,294.47 219.85,329.47 219.88,338.16 219.94,389.17 220.03,387.99 220.16,401.15 220.31,378.61 220.48,360.37 220.66,375.83 220.86,402.91 221.06,396.54 221.27,388.91 221.47,376.76 221.66,400.10 221.82,396.80 221.97,403.10 222.09,374.01 222.19,379.47 222.25,295.34 222.28,299.43 222.28,290.60 222.32,330.23 222.39,314.71 222.50,351.59 222.63,370.33 222.78,338.75 222.96,372.08 223.14,317.24 223.35,325.30 223.55,323.55 223.76,330.07 223.95,359.69 224.13,331.27 224.30,382.38 224.44,339.06 224.55,361.83 224.64,271.42 224.69,214.80 224.71,240.37 224.72,345.91 224.77,369.49 224.85,394.84 224.96,412.57 225.10,398.02 225.26,402.17 225.44,400.70 225.63,370.22 225.83,342.45 226.03,343.37 226.24,345.92 226.43,370.68 226.60,374.63 226.77,354.80 226.90,392.92 227.01,330.78 227.09,334.59 227.13,319.26 227.14,368.36 227.16,235.67 227.22,334.34 227.31,396.23 227.43,336.72 227.57,385.49 227.73,370.55 227.92,389.37 228.11,337.37 228.32,361.94 228.52,381.87 228.72,385.93 228.91,334.98 229.08,338.19 229.24,363.67 229.36,343.39 229.47,320.40 229.53,360.41 229.57,358.60 229.58,238.91 229.61,294.19 229.67,392.73 229.77,371.03 229.89,381.90 230.04,371.66 230.21,382.83 230.40,364.10 230.59,360.72 230.80,384.77 231.00,413.73 231.20,415.28 231.39,411.14 231.55,399.18 231.70,406.71 231.82,379.05 231.92,382.05 231.98,297.99 232.01,306.28 232.01,410.99 232.05,389.31 232.13,390.72 232.23,384.42 232.36,413.05 232.51,363.41 232.69,385.78 232.88,356.89 233.08,365.22 233.29,402.09 233.49,380.93 233.68,411.88 233.86,374.29 234.03,367.68 234.17,341.22 234.28,354.20 234.37,301.87 234.42,251.01 234.44,259.57 234.45,335.92 234.50,346.48 234.58,402.27 234.69,389.03 234.83,367.86 234.99,386.88 235.17,356.17 235.36,365.04 235.56,378.50 235.77,399.72 235.97,412.74 236.16,375.31 236.34,370.94 236.50,365.30 236.64,386.32 236.74,368.46 236.82,369.24 236.86,328.11 236.87,247.32 236.90,343.64 236.95,363.71 237.04,391.61 237.16,331.17 237.30,389.54 237.47,355.13 237.65,373.80 237.85,358.25 238.05,378.70 238.25,377.32 238.45,398.69 238.64,334.18 238.82,315.97 238.97,364.21 239.10,344.06 239.20,391.56 239.26,384.49 239.30,367.45 239.31,333.22 239.34,347.64 239.40,400.11 239.50,392.83 239.62,413.09 239.77,399.26 239.94,422.21 240.13,407.23 240.33,400.98 240.53,403.94 240.73,374.27 240.93,394.38 241.12,375.86 241.29,373.09 241.44,375.93 241.55,363.42 241.65,379.90 241.71,348.54 241.74,344.32 241.74,361.26 241.78,373.08 241.86,298.02 241.96,314.12 242.09,384.86 242.24,304.99 242.42,303.36 242.61,327.88 242.82,307.82 243.02,339.02 243.22,339.29 243.42,327.41 243.60,349.15 243.76,338.99 243.90,360.27 244.01,389.40 244.10,310.91 244.15,288.91 244.17,316.12 244.18,344.40 244.23,378.62 244.31,404.00 244.42,390.92 244.56,413.43 244.72,365.37 244.90,392.71 245.09,413.34 245.29,383.71 245.50,360.98 245.70,375.26 245.90,359.74 246.07,409.96 246.23,397.49 246.37,405.38 246.47,388.69 246.55,402.90 246.59,393.61 246.60,193.80 246.63,183.17 246.68,282.80 246.77,429.74 246.89,329.63 247.03,400.08 247.20,281.77 247.39,362.59 247.58,326.87 247.78,350.98 247.99,285.34 248.18,268.61 248.38,290.05 248.55,305.58 248.70,368.99 248.83,295.02 248.93,322.00 249.00,378.69 249.03,354.66 249.04,377.74 249.07,360.48 249.13,387.34 249.23,355.09 249.35,362.64 249.51,330.57 249.68,383.23 249.86,372.23 250.06,394.39 250.26,354.34 250.47,360.12 250.67,332.54 250.85,367.26 251.02,342.68 251.17,326.86 251.29,343.41 251.38,379.72 251.44,272.04 251.47,259.73 251.48,394.25 251.52,385.65 251.59,364.15 251.69,389.18 251.82,337.71 251.98,393.45 252.15,377.16 252.34,417.48 252.55,366.97 252.75,388.17 252.95,356.30 253.15,363.10 253.33,369.32 253.49,390.00 253.63,373.42 253.75,423.13 253.83,374.44 253.88,359.53 253.90,425.91 253.91,381.67 253.96,354.82 254.04,328.32 254.16,403.64 254.29,380.42 254.46,391.52 254.63,400.18 254.83,391.62 255.03,376.48 255.23,371.56 255.44,360.69 255.63,361.93 255.80,380.12 255.96,365.96 256.10,412.29 256.21,338.00 256.28,348.21 256.32,368.16 256.33,392.25 256.36,316.27 256.41,366.73 256.50,356.78 256.62,396.16 256.76,376.31 256.93,409.57 257.12,416.54 257.31,388.02 257.52,384.22 257.72,360.05 257.92,373.28 258.11,403.36 258.28,394.27 258.43,382.06 258.56,400.83 258.66,406.66 258.73,366.47 258.76,321.59 258.77,356.04 258.80,343.43 258.87,387.01 258.96,407.04 259.09,379.50 259.24,363.61 259.41,346.66 259.60,361.47 259.79,358.29 260.00,350.06 260.20,368.74 260.40,404.48 260.59,387.25 260.75,429.13 260.90,365.14 261.02,396.41 261.11,367.60 261.17,273.13 261.20,300.73 261.21,323.66 261.25,371.30 261.32,319.13 261.42,377.88 261.55,359.94 261.71,372.06 261.88,341.96 262.08,350.68 262.28,360.09 262.49,327.15 262.69,366.45 262.88,357.57 263.06,380.06 263.22,374.88 263.37,394.26 263.48,391.31 263.56,340.49 263.61,332.37 263.63,266.95 263.65,291.38 263.69,333.35 263.78,380.17 263.89,347.20 264.02,375.40 264.19,378.77 264.37,374.43 264.56,354.12 264.76,348.92 264.97,358.79 265.17,398.58 265.36,373.82 265.54,402.89 265.69,356.51 265.83,403.60 265.94,340.13 266.01,328.63 266.05,337.14 266.06,322.06 266.09,276.18 266.14,338.96 266.24,398.49 266.35,355.79 266.49,403.43 266.66,389.53 266.85,392.27 267.05,340.41 267.25,307.83 267.45,316.71 267.65,312.39 267.84,357.32 268.01,334.91 268.16,399.26 268.29,322.12 268.39,344.37 268.46,358.98 268.49,350.04 268.50,367.89 268.53,366.10 268.60,375.25 268.69,387.87 268.82,422.56 268.97,393.34 269.14,409.29 269.33,413.42 269.53,373.07 269.73,368.81 269.93,377.69 270.13,360.80 270.32,344.80 270.49,352.87 270.63,390.66 270.75,355.99 270.84,345.75 270.90,244.36 270.93,274.74 270.94,354.36 270.98,379.74 271.05,364.66 271.15,380.37 271.29,390.25 271.44,379.52 271.62,373.79 271.81,385.46 272.01,373.56 272.22,383.02 272.42,399.57 272.61,402.46 272.79,410.85 272.96,401.73 273.10,357.75 273.21,386.68 273.29,346.10 273.34,318.79 273.36,259.79 273.38,320.82 273.43,320.54 273.51,380.39 273.62,390.91 273.76,383.88 273.92,382.12 274.10,371.50 274.29,365.34 274.49,406.14 274.70,388.92 274.90,412.49 275.09,393.63 275.27,400.57 275.43,359.04 275.56,388.57 275.67,343.08 275.74,324.60 275.78,318.60 275.80,230.86 275.82,292.54 275.87,349.70 275.97,376.04 276.08,347.92 276.23,396.56 276.40,354.25 276.58,375.81 276.78,362.35 276.98,361.92 277.19,383.34 277.38,366.61 277.57,400.98 277.74,340.74 277.89,371.52 278.02,367.89 278.12,413.84 278.19,334.99 278.22,297.08 278.23,325.51 278.26,339.40 278.33,367.71 278.43,346.76 278.55,367.32 278.70,326.55 278.87,328.51 279.06,320.51 279.26,362.62 279.46,350.55 279.67,406.25 279.86,382.37 280.05,355.52 280.22,330.85 280.36,329.07 280.48,357.41 280.57,362.07 280.63,241.14 280.66,312.15 280.67,402.13 280.71,368.88 280.78,354.03 280.89,401.46 281.02,412.88 281.18,407.09 281.35,387.22 281.54,380.14 281.75,408.31 281.95,414.77 282.15,393.89 282.34,379.06 282.53,364.86 282.69,375.92 282.83,356.18 282.94,373.61 283.02,315.69 283.08,298.17 283.09,291.55 283.11,267.72 283.16,299.33 283.24,337.53 283.35,381.73 283.49,327.75 283.65,350.20 283.83,306.32 284.02,337.18 284.23,320.96 284.43,318.16 284.64,320.83 284.83,296.56 285.00,314.67 285.16,355.44 285.29,372.64 285.40,324.55 285.47,382.87 285.52,317.46 285.53,332.23 285.55,322.11 285.61,373.89 285.70,427.70 285.82,398.26 285.96,426.16 286.13,391.37 286.31,371.64 286.51,381.31 286.72,385.23 286.92,361.54 287.12,398.66 287.30,373.06 287.47,363.52 287.63,424.59 287.75,358.85 287.85,392.83 287.92,364.32 287.95,377.06 287.96,340.92 287.99,388.89 288.06,420.00 288.16,376.17 288.29,392.26 288.43,351.43 288.60,370.65 288.80,371.40 288.99,378.33 289.20,359.75 289.40,360.01 289.59,325.94 289.78,348.47 289.95,368.05 290.10,330.36 290.22,371.58 290.31,300.22 290.36,223.26 290.39,244.95 290.40,359.08 290.44,358.14 290.52,346.55 290.62,401.18 290.75,368.62 290.91,367.66 291.08,390.30 291.28,391.39 291.48,400.47 291.68,383.65 291.88,362.57 292.08,369.37 292.26,374.63 292.42,386.77 292.56,401.56 292.67,413.28 292.76,362.55 292.81,332.71 292.82,269.69 292.84,345.43 292.89,347.33 292.97,381.59 293.08,378.46 293.22,351.50 293.39,354.03 293.56,390.94 293.76,381.22 293.96,371.19 294.17,356.59 294.37,353.85 294.56,375.28 294.74,377.05 294.89,408.25 295.03,394.67 295.13,392.71 295.20,403.19 295.25,418.61 295.26,335.20 295.28,314.82 295.34,349.66 295.43,391.90 295.55,375.49 295.69,389.93 295.86,403.90 296.04,391.91 296.25,394.40 296.45,374.43 296.65,350.63 296.85,364.00 297.04,404.61 297.21,360.85 297.36,388.73 297.49,360.22 297.59,384.53 297.65,389.80 297.68,343.47 297.69,402.11 297.73,397.59 297.79,345.74 297.89,322.78 298.02,352.75 298.16,354.46 298.34,392.52 298.53,378.29 298.73,417.00 298.93,350.17 299.13,342.51 299.33,361.30 299.51,365.16 299.68,387.40 299.83,359.63 299.95,395.82 300.04,370.48 300.10,314.26 300.12,275.70 300.13,393.58 300.17,388.99 300.25,381.52 300.35,390.49 300.48,379.23 300.64,382.84 300.82,363.62 301.01,386.62 301.21,380.14 301.42,351.25 301.61,368.48 301.81,386.95 301.99,394.58 302.16,402.43 302.29,387.51 302.40,420.15 302.49,382.21 302.54,375.18 302.55,359.17 302.57,243.21 302.62,282.74 302.70,361.86 302.81,375.86 302.96,342.83 303.12,360.49 303.30,310.50 303.49,332.22 303.69,342.87 303.90,316.10 304.10,336.18 304.29,373.46 304.47,362.64 304.63,375.60 304.76,354.01 304.86,309.06 304.94,387.42 304.98,374.45 304.99,324.47 305.01,385.83 305.07,410.65 305.16,385.36 305.28,393.61 305.43,397.66 305.59,396.85 305.78,411.26 305.98,406.56 306.18,402.40 306.38,404.02 306.58,400.59 306.77,407.12 306.94,399.89 307.09,401.42 307.22,397.52 307.32,411.35 307.38,366.51 307.41,365.56 307.42,306.67 307.46,325.60 307.52,369.86 307.62,321.16 307.75,396.72 307.90,329.92 308.07,381.95 308.26,339.32 308.46,338.85 308.66,328.73 308.87,316.34 309.06,311.94 309.25,323.07 309.42,345.49 309.56,335.23 309.68,364.11 309.77,343.94 309.83,215.06 309.85,204.43 309.86,377.47 309.90,368.10 309.98,406.69 310.08,402.17 310.22,399.19 310.38,415.57 310.55,400.95 310.74,354.90 310.94,351.15 311.15,368.87 311.35,381.19 311.54,356.74 311.72,341.67 311.89,337.76 312.02,347.95 312.14,363.20 312.22,323.84 312.27,298.11 312.28,345.25 312.30,390.90 312.35,373.77 312.43,399.66 312.55,392.16 312.69,372.14 312.85,395.38 313.03,368.83 313.22,369.66 313.43,374.48 313.63,401.73 313.84,379.07 314.02,411.93 314.20,406.62 314.36,400.79 314.49,407.78 314.59,362.31 314.67,400.25 314.71,371.42 314.72,364.12 314.74,314.01 314.80,394.43 314.89,385.92 315.01,390.18 315.16,388.73 315.32,371.84 315.51,372.38 315.71,377.47 315.91,381.86 316.11,408.72 316.32,414.99 316.50,407.72 316.67,403.27 316.83,394.25 316.95,350.55 317.05,369.98 317.11,367.64 317.15,376.19 317.15,314.30 317.19,368.81 317.25,414.36 317.35,372.93 317.48,398.49 317.63,349.56 317.80,363.43 317.99,340.50 318.19,355.11 318.40,405.97 318.60,402.95 318.79,380.34 318.98,383.06 319.15,362.26 319.29,330.88 319.41,381.00 319.50,353.99 319.56,290.93 319.58,307.30 319.59,391.15 319.63,383.44 319.71,304.90 319.81,362.73 319.95,338.48 320.11,332.68 320.28,303.31 320.48,310.82 320.68,355.60 320.88,356.72 321.08,369.88 321.27,360.96 321.46,357.75 321.62,364.22 321.76,384.45 321.87,380.96 321.95,346.53 322.00,328.94 322.01,295.77 322.03,303.35 322.08,364.54 322.17,394.19 322.28,367.43 322.42,375.91 322.58,362.78 322.76,342.33 322.96,337.82 323.16,370.48 323.37,368.57 323.57,399.67 323.75,356.58 323.93,349.03 324.09,377.84 324.22,352.81 324.33,353.29 324.40,377.88 324.44,406.76 324.45,312.61 324.47,309.02 324.53,368.81 324.63,356.04 324.74,355.90 324.89,351.91 325.06,353.48 325.24,367.44 325.44,345.12 325.64,338.30 325.85,332.17 326.05,323.45 326.23,316.49 326.41,319.04 326.56,372.92 326.68,327.55 326.78,401.45 326.84,316.63 326.88,343.42 326.88,367.86 326.92,399.15 326.99,404.17 327.08,391.76 327.21,415.41 327.36,356.95 327.54,359.48 327.72,342.18 327.93,352.88 328.13,360.31 328.33,324.15 328.53,368.55 328.71,337.21 328.88,345.11 329.02,348.53 329.14,342.67 329.23,354.96 329.29,267.89 329.31,321.31 329.32,361.14 329.37,341.48 329.44,354.59 329.54,397.85 329.68,367.61 329.84,384.15 330.02,375.26 330.21,406.36 330.41,428.26 330.61,407.13 330.81,412.38 331.01,373.47 331.19,379.91 331.35,384.00 331.49,396.49 331.60,405.48 331.68,372.83 331.73,344.93 331.74,358.35 331.76,339.02 331.81,347.71 331.90,391.48 332.01,377.16 332.15,368.20 332.31,360.11 332.50,392.38 332.69,377.56 332.89,391.88 333.10,368.26 333.30,347.65 333.49,358.37 333.66,386.54 333.82,368.25 333.95,376.82 334.06,362.90 334.13,379.49 334.17,371.07 334.18,386.29 334.20,385.68 334.26,423.77 334.36,393.10 334.48,385.00 334.62,354.75 334.79,372.72 334.98,363.78 335.17,378.90 335.38,384.35 335.58,342.61 335.78,326.13 335.97,353.63 336.14,379.09 336.29,392.42 336.42,366.64 336.51,359.97 336.58,275.39 336.61,342.32 336.61,390.34 336.65,372.63 336.72,383.61 336.82,358.13 336.94,347.75 337.10,370.96 337.27,374.35 337.46,381.66 337.66,387.64 337.86,363.53 338.07,349.21 338.26,354.74 338.45,381.47 338.61,379.72 338.75,410.95 338.88,397.26 338.96,383.25 339.02,345.95 339.04,329.79 339.05,359.65 339.10,316.15 339.17,300.02 339.28,397.35 339.41,334.47 339.57,363.68 339.75,359.92 339.94,385.90 340.14,360.31 340.34,361.96 340.55,349.73 340.74,355.08 340.92,412.85 341.08,337.91 341.22,387.22 341.33,331.65 341.41,306.34 341.46,316.42 341.48,329.38 341.49,285.13 341.55,315.66 341.63,399.88 341.74,349.67 341.88,408.84 342.04,365.16 342.23,372.45 342.42,402.15 342.63,412.74 342.83,379.17 343.03,375.67 343.22,374.13 343.39,396.18 343.55,378.54 343.68,407.06 343.79,349.46 343.86,367.79 343.90,374.16 343.91,325.03 343.93,268.39 344.00,383.94 344.09,368.34 344.21,360.18 344.36,363.43 344.52,363.73 344.71,337.60 344.91,316.00 345.11,316.36 345.31,319.95 345.52,358.18 345.70,358.89 345.87,339.96 346.02,382.23 346.15,301.04 346.24,397.46 346.31,299.47 346.34,261.82 346.35,371.63 346.38,371.92 346.45,391.65 346.55,380.73 346.68,411.40 346.83,395.94 347.00,417.41 347.19,418.22 347.39,385.61 347.60,357.56 347.80,367.54 347.99,383.03 348.18,397.24 348.34,417.77 348.49,387.99 348.61,406.32 348.70,398.21 348.75,362.06 348.77,366.67 348.78,290.05 348.83,328.03 348.90,322.12 349.01,392.39 349.14,356.25 349.30,382.00 349.48,369.44 349.68,354.01 349.87,319.58 350.08,395.79 350.28,326.45 350.47,329.68 350.66,352.45 350.81,324.64 350.96,363.58 351.06,342.23 351.14,267.73 351.19,246.36 351.21,178.11 351.22,275.81 351.28,304.65 351.36,380.22 351.47,384.76 351.61,383.88 351.78,375.65 351.96,392.75 352.16,360.51 352.36,350.36 352.56,378.65 352.76,391.09 352.95,377.47 353.13,393.57 353.28,354.28 353.42,347.29 353.52,348.22 353.59,410.63 353.63,389.11 353.64,330.47 353.67,354.47 353.73,414.17 353.82,391.25 353.94,396.60 354.09,418.03 354.26,382.09 354.44,376.88 354.64,350.13 354.84,363.72 355.04,398.08 355.25,386.61 355.43,394.56 355.61,421.27 355.75,409.57 355.88,404.16 355.97,400.78 356.04,375.83 356.07,355.56 356.08,356.59 356.11,421.03 356.18,367.71 356.28,363.63 356.41,404.28 356.56,369.07 356.74,395.31 356.92,368.34 357.13,359.97 357.33,383.61 357.53,390.80 357.73,426.21 357.91,417.23 358.08,408.29 358.22,384.08 358.34,408.61 358.43,353.31 358.48,298.33 358.50,221.99 358.51,377.61 358.56,368.47 358.64,374.23 358.74,413.07 358.88,414.14 359.03,388.93 359.22,392.49 359.41,378.38 359.60,379.85 359.81,397.50 360.01,414.02 360.21,421.86 360.39,393.48 360.55,386.71 360.69,377.54 360.79,362.67 360.88,331.36 360.92,320.87 360.94,302.34 360.95,309.46 361.01,347.45 361.09,368.51 361.21,385.47 361.35,372.00 361.51,347.81 361.70,332.74 361.89,346.03 362.09,357.26 362.30,388.94 362.49,383.40 362.69,358.66 362.86,338.39 363.02,379.36 363.15,365.73 363.25,381.18 363.32,409.05 363.36,381.03 363.37,196.15 363.40,234.66 363.46,350.63 363.55,373.07 363.67,331.47 363.82,368.95 363.99,304.86 364.18,308.80 364.37,314.54 364.57,345.75 364.78,382.03 364.98,341.73 365.17,356.31 365.34,297.17 365.48,360.04 365.61,354.44 365.70,401.98 365.77,259.25 365.80,202.27 365.81,349.02 365.84,377.98 365.91,334.57 366.01,349.50 366.14,389.52 366.30,340.35 366.47,355.05 366.65,412.74 366.86,383.62 367.06,356.92 367.27,347.15 367.46,357.89 367.65,349.23 367.81,368.65 367.95,404.93 368.07,419.62 368.16,381.18 368.21,371.95 368.23,363.30 368.24,327.47 368.29,319.79 368.37,306.26 368.48,403.40 368.61,337.25 368.77,345.25 368.95,293.79 369.14,328.13 369.34,310.62 369.54,333.66 369.75,293.47 369.94,296.50 370.12,336.66 370.28,293.12 370.42,371.94 370.53,250.94 370.61,220.75 370.65,219.06 370.67,319.83 370.69,331.63 370.74,371.65 370.82,410.91 370.94,418.01 371.08,400.77 371.24,372.20 371.43,346.60 371.62,382.28 371.83,364.60 372.03,368.74 372.23,314.14 372.42,281.80 372.59,285.21 372.75,346.36 372.88,329.76 372.98,300.57 373.05,360.29 373.09,320.02 373.10,268.13 373.13,297.07 373.19,374.66 373.28,410.87 373.41,361.30 373.55,393.53 373.72,351.19 373.91,365.34 374.10,377.10 374.31,375.51 374.51,378.58 374.71,345.39 374.90,355.06 375.07,393.61 375.22,385.87 375.34,387.40 375.44,391.69 375.50,376.71 375.53,386.61 375.54,387.65 375.57,412.17 375.64,388.86 375.74,370.85 375.88,363.07 376.03,358.89 376.20,386.60 376.39,388.72 376.59,384.32 376.80,382.36 377.00,370.36 377.19,361.05 377.38,349.41 377.54,417.61 377.69,366.16 377.80,414.29 377.89,351.78 377.94,296.95 377.96,349.64 377.98,352.05 378.02,402.33 378.10,377.18 378.21,381.20 378.34,349.68 378.50,377.31 378.68,363.53 378.87,398.61 379.07,364.13 379.28,374.78 379.48,356.51 379.67,360.35 379.85,377.51 380.01,370.36 380.15,386.51 380.26,377.16 380.34,380.36 380.38,382.80 380.40,342.54 380.42,329.40 380.47,375.56 380.56,393.99 380.67,397.38 380.81,367.71 380.98,368.73 381.16,361.95 381.36,374.68 381.56,358.80 381.76,361.42 381.96,352.06 382.15,389.31 382.33,387.69 382.48,388.74 382.61,402.51 382.71,360.58 382.78,370.32 382.82,393.18 382.83,356.06 382.86,306.17 382.92,361.94 383.01,293.92 383.14,374.53 383.28,336.39 383.46,366.32 383.64,325.94 383.84,413.13 384.04,370.44 384.24,352.39 384.45,370.45 384.63,367.94 384.80,354.44 384.95,376.76 385.08,359.79 385.17,393.54 385.23,310.92 385.26,287.44 385.27,386.71 385.31,382.66 385.37,340.62 385.47,315.45 385.61,386.74 385.76,334.88 385.94,380.19 386.12,346.83 386.33,320.72 386.53,324.89 386.73,337.43 386.93,377.95 387.11,367.18 387.28,381.71 387.42,382.99 387.53,382.29 387.62,332.39 387.67,310.27 387.69,296.26 387.71,314.67 387.75,343.22 387.83,366.85 387.94,414.06 388.08,387.50 388.23,402.79 388.42,369.55 388.60,378.13 388.80,342.67 389.01,299.55 389.21,312.92 389.41,334.32 389.58,376.32 389.75,341.13 389.88,374.72 389.99,389.23 390.07,358.44 390.12,409.74 390.13,308.26 390.15,304.87 390.20,363.83 390.29,407.33 390.40,369.23 390.55,409.56 390.71,397.00 390.90,392.08 391.09,370.75 391.29,373.85 391.50,398.31 391.69,364.99 391.89,357.71 392.06,371.25 392.21,358.11 392.34,365.31 392.45,332.37 392.52,358.00 392.55,349.72 392.56,321.31 392.59,345.36 392.65,404.92 392.75,385.20 392.87,405.15 393.02,394.81 393.19,384.49 393.38,385.51 393.57,375.22 393.77,370.40 393.98,374.12 394.18,412.36 394.37,372.64 394.53,405.15 394.68,400.23 394.81,410.96 394.90,411.31 394.96,394.14 394.99,380.41 395.00,366.39 395.04,389.39 395.10,376.46 395.21,391.21 395.34,374.80 395.49,390.10 395.67,396.49 395.85,400.25 396.06,369.12 396.26,386.61 396.46,380.15 396.66,402.68 396.84,404.44 397.01,407.73 397.15,405.63 397.27,413.09 397.35,393.64 397.41,391.05 397.43,361.79 397.44,339.62 397.48,383.05 397.56,377.91 397.67,399.60 397.81,393.20 397.97,414.79 398.15,367.53 398.34,384.64 398.54,372.24 398.74,384.20 398.95,427.35 399.14,418.54 399.31,407.72 399.48,395.15 399.61,382.81 399.72,397.81 399.80,393.58 399.85,396.20 399.86,313.48 399.88,297.61 399.93,344.46 400.02,395.82 400.14,359.63 400.28,374.83 400.44,394.07 400.63,392.77 400.82,365.36 401.03,392.34 401.23,400.73 401.43,380.86 401.62,401.51 401.79,416.60 401.95,380.08 402.08,381.65 402.18,342.35 402.25,350.30 402.28,329.38 402.29,317.54 402.32,375.66 402.38,404.00 402.48,416.40 402.60,406.79 402.75,404.88 402.92,395.44 403.11,386.89 403.30,395.93 403.51,397.06 403.71,401.12 403.91,402.79 404.10,397.32 404.26,375.01 404.42,362.14 404.54,382.98 404.63,390.56 404.69,354.65 404.72,359.73 404.73,365.66 404.77,408.90 404.84,288.71 404.94,316.65 405.07,371.90 405.22,337.82 405.40,319.26 405.59,294.89 405.79,302.92 406.00,363.57 406.20,338.67 406.39,357.31 406.57,322.53 406.74,326.13 406.88,300.84 407.00,390.14 407.08,229.23 407.14,153.37 407.16,175.53 407.17,359.94 407.21,388.20 407.29,394.44 407.40,415.48 407.54,379.78 407.70,405.04 407.88,350.94 408.07,380.68 408.27,396.00 408.48,383.68 408.68,362.41 408.87,363.04 409.05,365.66 409.21,408.59 409.35,408.32 409.45,398.08 409.53,393.73 409.58,359.15 409.59,351.86 409.61,284.91 409.66,325.63 409.75,378.33 409.87,375.93 410.01,375.15 410.18,317.72 410.36,343.20 410.56,334.64 410.76,339.27 410.96,318.58 411.16,287.67 411.35,271.81 411.53,289.34 411.68,330.41 411.81,318.25 411.91,310.11 411.98,382.87 412.02,380.10 412.02,400.14 412.05,310.58 412.12,385.83 412.21,345.59 412.33,352.79 412.48,356.45 412.65,369.44 412.84,336.67 413.04,376.87 413.24,349.27 413.44,366.91 413.64,316.34 413.83,308.79 414.00,308.34 414.15,326.50 414.27,301.20 414.36,364.02 414.42,238.16 414.45,260.19 414.46,403.53 414.50,399.93 414.57,424.54 414.67,401.02 414.80,408.15 414.95,349.68 415.13,379.30 415.32,355.93 415.52,391.61 415.73,367.88 415.93,371.35 416.13,352.25 416.31,359.19 416.47,357.24 416.61,379.34 416.73,393.10 416.81,344.96 416.87,306.29 416.89,251.65 416.90,364.30 416.95,363.98 417.02,380.56 417.13,416.03 417.27,349.74 417.43,364.19 417.61,369.93 417.80,388.13 418.00,393.02 418.21,367.96 418.41,362.05 418.61,358.63 418.78,380.96 418.94,396.19 419.08,405.60 419.18,372.04 419.26,371.93 419.31,356.54 419.32,310.74 419.34,297.79 419.39,345.39 419.48,416.84 419.60,374.24 419.74,392.38 419.91,386.49 420.09,406.36 420.29,391.99 420.49,394.38 420.70,358.77 420.89,354.01 421.09,396.36 421.26,365.18 421.41,406.85 421.54,368.24 421.64,358.55 421.71,382.12 421.75,358.51 421.75,371.33 421.78,371.71 421.85,412.55 421.94,383.19 422.06,416.87 422.22,413.41 422.38,391.31 422.57,359.17 422.77,371.97 422.97,364.18 423.18,354.47 423.37,356.55 423.56,390.62 423.73,377.51 423.88,423.20 424.00,375.80 424.09,407.91 424.16,392.62 424.18,417.16 424.19,293.97 424.23,348.97 424.30,293.94 424.40,330.04 424.53,363.65 424.69,356.29 424.86,360.66 425.05,305.04 425.26,349.85 425.46,332.38 425.66,310.38 425.86,334.32 426.04,357.53 426.20,385.88 426.34,347.80 426.46,391.62 426.54,327.56 426.60,291.72 426.62,293.01 426.63,355.58 426.68,391.39 426.76,413.11 426.87,428.31 427.00,398.10 427.17,410.93 427.34,388.05 427.53,387.99 427.74,354.04 427.94,345.89 428.15,385.85 428.34,392.60 428.51,412.73 428.67,388.97 428.81,424.42 428.92,385.70 428.99,383.38 429.04,408.73 429.05,154.13 429.07,173.83 429.13,283.49 429.21,421.57 429.33,366.72 429.47,397.24 429.64,344.62 429.82,393.08 430.02,308.84 430.22,342.12 430.43,296.36 430.63,287.81 430.82,296.59 430.99,305.37 431.14,331.17 431.27,312.13 431.37,331.63 431.44,369.90 431.48,344.26 431.48,340.70 431.51,380.99 431.58,404.16 431.67,413.81 431.80,410.41 431.95,407.23 432.12,422.83 432.31,408.20 432.50,401.14 432.71,376.87 432.91,345.44 433.10,342.78 433.29,349.92 433.46,350.99 433.61,368.10 433.73,369.70 433.83,388.26 433.89,339.95 433.91,338.70 433.92,344.61 433.96,377.73 434.03,383.07 434.13,386.99 434.27,403.20 434.42,387.21 434.59,427.67 434.79,362.47 434.99,380.51 435.19,371.76 435.39,372.62 435.59,396.28 435.77,386.64 435.93,389.06 436.08,355.14 436.19,369.46 436.28,324.94 436.33,322.28 436.35,348.96 436.36,314.40 436.41,371.90 436.49,373.87 436.60,398.86 436.73,401.41 436.90,398.02 437.07,379.59 437.27,363.00 437.47,363.88 437.68,392.64 437.88,380.60 438.07,386.33 438.25,383.35 438.41,400.64 438.54,402.85 438.65,402.50 438.72,374.20 438.77,369.28 438.78,293.04 438.80,288.63 438.86,359.71 438.95,379.37 439.06,367.38 439.20,407.24 439.37,401.46 439.56,390.66 439.76,357.32 439.96,376.25 440.16,398.99 440.36,389.44 440.55,410.41 440.72,401.87 440.87,406.51 441.01,382.31 441.10,352.19 441.17,396.42 441.21,340.93 441.22,259.87 441.25,266.16 441.31,378.05 441.40,330.02 441.53,366.96 441.68,325.60 441.85,396.35 442.04,342.06 442.24,327.72 442.44,372.36 442.64,363.06 442.84,397.92 443.03,396.36 443.20,390.79 443.34,378.53 443.46,322.82 443.56,386.11 443.62,268.81 443.64,245.96 443.65,380.83 443.69,377.12 443.76,353.52 443.87,395.67 444.00,395.77 444.15,404.86 444.33,385.65 444.52,404.13 444.72,388.49 444.93,416.10 445.12,410.69 445.32,423.31 445.50,415.62 445.67,380.47 445.81,367.45 445.92,424.21 446.01,357.94 446.06,343.21 446.08,357.56 446.09,262.88 446.14,235.89 446.22,308.60 446.33,371.24 446.47,310.47 446.63,371.90 446.81,315.92 447.00,318.10 447.20,316.28 447.41,347.32 447.61,356.09 447.80,346.31 447.98,330.35 448.14,315.45 448.27,311.04 448.38,279.75 448.46,331.51 448.50,364.15 448.51,420.49 448.53,378.05 448.59,400.40 448.68,403.76 448.79,403.79 448.94,413.82 449.10,405.95 449.29,381.86 449.49,352.24 449.69,372.34 449.89,371.73 450.09,397.00 450.28,368.10 450.45,352.86 450.61,400.45 450.74,373.92 450.83,405.48 450.90,411.37 450.94,404.03 450.95,315.55 450.98,301.61 451.04,393.25 451.14,322.79 451.26,382.80 451.41,324.71 451.58,351.36 451.77,318.96 451.97,386.96 452.17,357.90 452.38,350.81 452.57,307.26 452.76,292.33 452.93,318.82 453.07,348.03 453.20,341.22 453.29,327.07 453.35,219.00 453.37,231.71 453.38,333.01 453.42,390.23 453.49,371.82 453.60,355.19 453.73,411.65 453.89,342.28 454.06,356.60 454.25,380.65 454.45,369.44 454.66,398.47 454.86,363.85 455.05,392.65 455.24,385.17 455.40,410.42 455.54,349.12 455.66,386.33 455.74,326.82 455.79,307.91 455.81,294.58 455.82,390.46 455.87,396.58 455.95,397.21 456.06,395.12 456.20,403.17 456.36,355.93 456.54,376.30 456.73,386.89 456.94,377.07 457.14,374.98 457.35,361.29 457.53,355.62 457.71,388.80 457.87,366.07 458.00,405.07 458.11,347.21 458.19,334.00 458.23,354.44 458.24,328.91 458.26,343.56 458.32,380.21 458.41,408.17 458.53,359.84 458.67,412.44 458.84,332.86 459.02,374.29 459.22,357.37 459.42,398.48 459.62,348.41 459.83,347.87 460.01,337.37 460.18,372.69 460.34,386.86 460.47,394.10 460.57,383.59 460.63,325.62 460.67,341.31 460.68,282.05 460.71,363.18 460.77,380.45 460.87,365.41 461.00,361.00 461.14,347.04 461.31,366.68 461.50,370.57 461.70,397.64 461.91,372.80 462.11,350.64 462.30,341.41 462.49,346.47 462.66,399.92 462.81,363.21 462.93,377.43 463.02,358.27 463.08,282.28 463.10,276.26 463.11,370.11 463.15,385.68 463.23,350.91 463.33,393.08 463.46,375.49 463.62,384.56 463.79,370.56 463.99,383.52 464.18,405.36 464.39,402.31 464.59,369.98 464.78,369.25 464.97,390.94 465.13,398.50 465.27,383.82 465.39,381.86 465.47,393.51 465.52,396.01 465.54,258.25 465.55,234.75 465.60,270.26 465.68,349.63 465.79,359.09 465.93,343.35 466.10,381.64 466.27,328.21 466.47,307.32 466.67,322.33 466.88,326.53 467.08,338.92 467.27,320.44 467.45,388.98 467.60,327.04 467.74,400.46 467.84,347.57 467.92,333.52 467.96,333.63 467.97,375.18 468.00,373.09 468.05,389.82 468.14,422.97 468.26,401.32 468.40,401.80 468.57,411.58 468.75,404.08 468.95,401.34 469.15,394.12 469.36,415.47 469.56,418.09 469.74,409.97 469.92,410.54 470.07,417.50 470.20,415.96 470.30,404.25 470.36,410.92 470.40,394.26 470.41,301.81 470.44,336.46 470.50,362.07 470.60,310.03 470.73,378.09 470.88,378.09 471.05,366.74 471.24,367.42 471.44,317.40 471.64,294.74 471.84,356.59 472.04,303.68 472.22,297.16 472.39,378.18 472.54,311.80 472.66,326.34 472.75,325.53 472.81,214.10 472.84,156.50 472.84,316.55 472.89,346.33 472.96,348.52 473.06,399.27 473.20,379.51 473.35,380.42 473.53,399.64 473.72,359.53 473.92,346.50 474.12,322.77 474.32,357.96 474.52,344.25 474.70,319.92 474.87,333.74 475.01,345.87 475.12,358.64 475.20,314.57 475.25,259.50 475.27,338.46 475.28,371.98 475.33,351.11 475.41,384.08 475.52,415.11 475.67,398.18 475.83,388.45 476.01,387.21 476.20,377.45 476.40,356.50 476.61,359.80 476.81,395.48 477.00,378.75 477.18,422.18 477.34,401.81 477.47,420.42 477.57,357.21 477.65,353.65 477.69,361.50 477.70,382.79 477.73,357.53 477.78,403.51 477.87,388.34 477.99,385.99 478.14,411.70 478.30,384.79 478.49,392.31 478.68,356.42 478.88,343.52 479.09,374.97 479.29,389.60 479.48,411.62 479.65,378.74 479.80,403.43 479.93,387.23 480.03,392.45 480.10,398.31 480.13,301.66 480.14,389.56 480.17,419.20 480.23,405.33 480.33,397.67 480.46,391.95 480.61,377.92 480.78,374.20 480.97,380.29 481.17,362.06 481.37,382.11 481.58,391.74 481.77,395.37 481.96,385.12 482.13,420.15 482.27,409.31 482.39,397.52 482.48,396.38 482.54,393.95 482.57,318.22 482.58,348.13 482.62,377.73 482.69,367.69 482.80,383.19 482.93,336.57 483.09,338.01 483.26,344.13 483.45,341.94 483.65,356.72 483.85,350.73 484.06,394.54 484.25,408.02 484.43,400.74 484.60,407.03 484.74,357.54 484.85,391.98 484.93,327.24 484.98,299.65 485.00,306.08 485.01,314.34 485.06,309.20 485.15,362.40 485.26,366.58 485.40,348.47 485.56,369.56 485.74,344.12 485.93,347.74 486.14,386.14 486.34,367.50 486.54,396.88 486.73,387.06 486.91,410.82 487.07,378.07 487.20,376.60 487.31,341.15 487.38,332.87 487.42,305.66 487.43,291.09 487.46,227.91 487.52,310.53 487.60,409.24 487.73,359.82 487.87,394.42 488.03,336.70 488.22,337.19 488.42,349.37 488.62,324.68 488.82,367.22 489.03,334.26 489.21,374.39 489.38,319.28 489.54,361.13 489.66,314.18 489.76,398.53 489.83,350.80 489.86,301.70 489.87,311.19 489.90,360.87 489.97,415.67 490.06,393.13 490.19,390.24 490.34,400.65 490.51,361.89 490.70,356.94 490.90,355.95 491.11,342.07 491.31,339.44 491.50,372.08 491.69,402.33 491.86,355.53 492.00,340.16 492.12,354.41 492.21,323.35 492.27,224.55 492.30,274.36 492.31,355.83 492.35,352.01 492.42,342.29 492.53,373.77 492.66,377.33 492.82,389.23 492.99,361.10 493.19,379.11 493.38,404.65 493.59,414.97 493.79,384.10 493.98,360.68 494.17,361.23 494.33,362.04 494.47,394.28 494.58,380.88 494.66,340.94 494.71,321.03 494.73,310.47 494.75,401.39 494.80,414.05 494.88,399.37 494.99,402.42 495.13,413.74 495.29,381.19 495.47,344.01 495.67,366.70 495.87,371.55 496.08,383.30 496.27,354.22 496.46,348.28 496.64,345.35 496.80,352.36 496.93,366.99 497.04,355.24 497.11,343.71 497.15,347.08 497.16,246.06 497.19,354.12 497.25,389.69 497.34,413.98 497.46,402.91 497.60,375.43 497.77,357.12 497.95,350.13 498.15,404.03 498.35,376.13 498.55,376.05 498.76,358.49 498.94,343.69 499.12,370.25 499.27,374.03 499.40,419.69 499.49,384.42 499.56,360.29 499.59,301.38 499.60,366.42 499.63,402.76 499.70,407.28 499.79,402.51 499.92,399.47 500.07,370.12 500.25,360.43 500.43,381.91 500.64,395.16 500.84,365.62 501.04,387.18 501.24,341.42 501.42,350.88 501.59,398.24 501.74,366.06 501.85,411.62 501.95,361.05 502.00,298.46 502.03,317.56 502.04,277.15 502.08,308.95 502.15,303.47 502.26,360.59 502.39,307.48 502.55,332.94 502.73,354.54 502.92,360.04 503.11,370.09 503.32,366.52 503.52,351.38 503.72,348.94 503.90,349.55 504.06,361.41 504.20,362.44 504.31,374.29 504.40,373.15 504.44,375.36 504.46,260.70 504.48,329.91 504.53,359.82 504.61,400.45 504.72,388.76 504.86,344.76 505.02,337.42 505.21,340.89 505.40,353.62 505.60,400.53 505.81,362.96 506.01,364.26 506.20,384.69 506.37,348.15 506.53,382.66 506.67,373.65 506.77,317.16 506.84,340.22 506.88,316.76 506.89,142.14 506.92,159.88 506.98,281.27 507.07,352.62 507.19,309.26 507.34,407.10 507.50,369.61 507.69,365.27 507.88,313.46 508.08,326.11 508.29,330.73 508.49,339.82 508.68,369.84 508.85,376.83 509.00,371.58 509.13,340.93 509.22,373.81 509.29,312.41 509.32,309.16 509.33,381.93 509.36,367.50 509.43,394.61 509.53,358.27 509.65,381.42 509.81,381.55 509.98,393.35 510.16,377.94 510.37,373.44 510.57,376.11 510.78,357.31 510.97,370.90 511.16,386.15 511.32,385.31 511.47,387.54 511.59,398.45 511.68,360.85 511.73,327.43 511.76,295.03 511.77,321.96 511.81,350.11 511.88,347.97 511.99,405.33 512.12,370.79 512.28,394.22 512.46,371.02 512.65,392.03 512.85,360.51 513.05,337.47 513.26,385.95 513.45,352.66 513.63,348.16 513.79,392.67 513.93,333.34 514.05,388.12 514.13,346.80 514.18,324.93 514.19,277.48 514.21,271.40 514.26,307.07 514.34,372.42 514.46,401.93 514.59,395.92 514.76,390.96 514.94,376.03 515.13,391.42 515.34,346.36 515.54,341.01 515.74,404.99 515.93,377.74 516.10,358.20 516.27,331.18 516.40,345.46 516.50,301.21 516.57,327.99 516.62,325.38 516.62,374.95 516.65,390.63 516.71,409.76 516.80,361.95 516.92,382.01 517.07,398.88 517.23,381.24 517.42,390.75 517.61,388.59 517.82,371.52 518.02,371.21 518.23,387.69 518.41,390.95 518.58,377.86 518.73,406.19 518.86,368.13 518.96,382.90 519.02,362.45 519.05,383.47 519.06,287.92 519.09,327.27 519.16,405.94 519.26,378.01 519.39,399.36 519.54,374.11 519.71,378.17 519.90,379.53 520.10,384.74 520.31,378.52 520.51,365.88 520.70,388.96 520.89,377.02 521.05,396.76 521.20,388.76 521.32,402.53 521.41,367.82 521.47,363.69 521.49,281.07 521.50,376.35 521.54,398.96 521.62,396.17 521.72,402.68 521.85,409.58 522.01,402.31 522.19,391.42 522.38,397.93 522.58,367.69 522.79,389.67 522.99,396.07 523.18,413.60 523.37,405.75 523.53,400.47 523.67,406.75 523.78,383.04 523.86,365.27 523.91,346.10 523.92,336.13 523.94,365.57 523.99,392.07 524.07,367.87 524.19,385.46 524.32,381.14 524.49,355.79 524.67,362.34 524.87,359.61 525.07,377.11 525.28,398.81 525.47,405.39 525.66,410.97 525.84,416.78 526.00,397.60 526.13,391.40 526.23,388.08 526.31,397.31 526.35,380.18 526.36,256.55 526.38,256.89 526.44,363.04 526.53,305.95 526.65,337.07 526.80,367.42 526.97,335.31 527.15,306.49 527.35,297.18 527.55,341.65 527.75,363.58 527.96,384.49 528.14,427.44 528.32,390.79 528.46,376.86 528.59,347.58 528.69,372.21 528.75,382.32 528.78,414.34 528.79,354.54 528.83,365.14 528.89,362.21 528.99,382.92 529.12,418.86 529.27,393.56 529.45,378.89 529.63,370.85 529.84,424.64 530.04,349.04 530.24,374.16 530.44,354.86 530.62,355.41 530.79,349.79 530.93,327.74 531.05,370.22 531.14,361.93 531.20,291.89 531.22,352.45 531.23,275.10 531.27,322.24 531.35,325.83 531.45,367.39 531.59,359.09 531.74,370.06 531.93,324.33 532.12,317.51 532.31,325.11 532.52,347.46 532.72,321.01 532.92,334.29 533.10,366.82 533.26,322.51 533.40,352.69 533.51,351.38 533.59,314.52 533.64,287.40 533.65,407.89 533.67,403.86 533.72,414.91 533.80,399.09 533.92,400.02 534.06,395.61 534.22,411.14 534.41,366.11 534.60,368.77 534.80,395.24 535.01,380.15 535.20,371.00 535.40,395.03 535.57,373.56 535.73,379.68 535.86,398.51 535.96,383.23 536.04,377.67 536.08,335.23 536.09,353.05 536.11,366.40 536.17,400.07 536.26,412.16 536.38,407.33 536.53,375.86 536.70,380.43 536.89,368.12 537.08,365.66 537.28,389.81 537.49,378.49 537.69,363.02 537.88,329.28 538.05,342.44 538.19,393.64 538.32,326.03 538.42,389.62 538.48,319.26 538.51,319.07 538.52,381.89 538.56,394.97 538.62,402.05 538.72,376.00 538.85,408.35 539.01,370.16 539.18,372.22 539.36,354.56 539.57,373.89 539.77,370.29 539.97,363.50 540.17,355.44 540.36,343.90 540.52,370.11 540.66,395.70 540.78,400.53 540.87,404.64 540.93,368.41 540.95,372.30 540.96,414.14 541.00,404.37 541.08,392.40 541.19,384.27 541.32,371.47 541.48,351.34 541.66,362.50 541.85,373.76 542.05,384.11 542.25,367.00 542.46,358.60 542.65,364.53 542.83,375.05 542.99,377.42 543.13,384.94 543.24,405.30 543.32,381.73 543.37,353.72 543.38,345.82 543.40,337.42 543.45,345.86 543.54,346.11 543.65,376.35 543.79,336.66 543.95,317.88 544.14,360.90 544.33,348.30 544.54,367.80 544.74,350.90 544.94,334.51 545.13,392.81 545.30,368.55 545.46,401.08 545.59,401.52 545.70,401.90 545.77,375.68 545.81,346.76 545.82,337.57 545.84,295.23 545.90,360.78 545.99,335.27 546.12,326.24 546.26,339.54 546.43,320.62 546.62,309.15 546.81,350.09 547.02,383.36 547.22,346.07 547.42,307.38 547.61,359.87 547.78,351.47 547.93,381.97 548.05,328.45 548.15,403.57 548.21,356.52 548.24,392.40 548.25,368.73 548.29,362.58 548.36,334.61 548.46,360.11 548.59,369.60 548.74,402.04 548.91,419.86 549.10,375.49 549.30,348.01 549.51,325.79 549.71,316.42 549.90,350.57 550.09,412.31 550.25,377.55 550.40,370.05 550.51,415.85 550.60,383.11 550.66,347.95 550.68,333.78 550.69,363.39 550.73,356.32 550.81,281.95 550.92,359.02 551.05,326.84 551.21,368.78 551.39,352.78 551.58,387.32 551.78,334.82 551.99,330.73 552.19,322.98 552.38,306.20 552.56,361.41 552.72,304.85 552.86,391.67 552.97,312.05 553.05,265.39 553.10,277.59 553.11,317.41 553.13,277.10 553.18,335.67 553.27,415.39 553.38,389.73 553.52,392.86 553.69,410.79 553.87,406.19 554.07,391.36 554.27,413.23 554.47,386.31 554.67,383.17 554.86,371.74 555.04,384.09 555.19,389.58 555.33,385.25 555.43,373.13 555.50,389.80 555.54,382.34 555.55,355.35 555.57,406.82 555.63,414.10 555.73,413.16 555.85,408.22 555.99,411.59 556.17,411.19 556.35,407.10 556.55,388.55 556.75,374.69 556.95,372.60 557.15,382.66 557.34,379.61 557.51,412.42 557.66,382.36 557.79,367.07 557.88,402.05 557.94,363.58 557.98,413.70 557.98,390.80 558.02,420.88 558.09,382.02 558.19,392.87 558.32,380.59 558.47,378.09 558.64,416.58 558.83,377.85 559.03,370.49 559.24,369.46 559.44,386.99 559.64,393.99 559.82,393.28 559.99,408.23 560.13,397.89 560.24,415.40 560.33,391.96 560.39,379.81 560.41,348.15 560.42,350.68 560.47,403.51 560.54,390.72 560.65,407.60 560.79,407.97 560.94,392.66 561.12,398.70 561.31,372.48 561.51,365.30 561.72,374.43 561.92,394.47 562.12,369.89 562.29,400.77 562.46,373.64 562.59,390.75 562.70,386.09 562.78,353.11 562.83,335.52 562.84,323.64 562.86,249.42 562.91,319.32 563.00,381.69 563.11,358.32 563.26,391.46 563.42,360.63 563.60,399.76 563.80,371.31 564.00,356.52 564.21,379.10 564.40,365.30 564.60,417.24 564.77,386.28 564.92,378.34 565.06,380.08 565.16,372.54 565.23,398.46 565.27,382.28 565.28,396.32 565.31,371.52 565.36,392.92 565.46,405.83 565.58,393.27 565.73,394.80 565.90,391.83 566.09,383.97 566.28,375.17 566.48,376.70 566.69,411.93 566.88,418.04 567.08,421.79 567.24,408.99 567.39,407.68 567.52,409.05 567.61,405.99 567.68,353.79 567.71,327.14 567.71,337.16 567.75,408.21 567.82,323.83 567.92,303.45 568.05,387.31 568.20,290.49 568.38,365.12 568.56,280.96 568.77,273.29 568.97,343.06 569.17,359.50 569.37,369.33 569.55,382.80 569.72,406.10 569.86,345.35 569.98,391.77 570.06,292.80 570.12,210.23 570.14,258.34 570.15,366.98 570.20,354.40 570.27,359.30 570.38,421.65 570.52,393.96 570.68,402.99 570.85,403.79 571.04,380.70 571.25,369.75 571.45,379.03 571.66,380.96 571.85,383.94 572.02,374.42 572.19,369.74 572.32,381.91 572.44,376.80 572.51,363.92 572.56,357.30 572.57,265.30 572.59,209.21 572.65,246.72 572.73,349.90 572.85,308.44 572.99,370.76 573.15,339.09 573.34,338.36 573.53,323.62 573.73,339.02 573.94,327.07 574.14,321.55 574.33,320.17 574.50,328.93 574.66,322.34 574.79,289.11 574.89,271.17 574.96,366.37 575.00,343.47 575.01,293.06 575.04,338.96 575.10,397.98 575.19,360.53 575.31,363.67 575.46,416.24 575.63,336.74 575.82,344.27 576.01,344.72 576.22,346.52 576.42,338.50 576.62,345.45 576.81,310.66 576.97,271.65 577.13,301.14 577.25,285.63 577.35,367.39 577.41,273.01 577.44,350.66 577.44,358.51 577.48,391.65 577.55,369.17 577.65,370.19 577.78,403.16 577.93,360.90 578.11,359.65 578.30,384.24 578.50,375.83 578.70,392.34 578.90,368.12 579.10,398.53 579.28,355.60 579.45,358.35 579.59,375.04 579.71,403.70 579.80,365.69 579.85,345.70 579.87,363.31 579.88,409.99 579.93,416.68 580.01,371.95 580.11,394.90 580.25,411.09 580.41,364.84 580.59,351.37 580.78,397.76 580.98,359.30 581.19,401.61 581.39,365.20 581.58,365.65 581.76,372.30 581.92,348.37 582.06,408.35 582.17,364.54 582.24,369.82 582.29,382.53 582.30,384.37 582.32,342.25 582.38,369.14 582.46,390.15 582.58,404.27 582.72,399.72 582.89,343.42 583.07,362.14 583.27,385.87 583.47,386.59 583.67,366.81 583.87,353.50 584.06,337.72 584.24,375.95 584.39,354.26 584.52,389.51 584.62,351.67 584.69,382.52 584.73,361.43 584.74,395.00 584.77,384.05 584.83,410.79 584.92,398.65 585.04,392.44 585.19,375.07 585.36,351.58 585.55,390.08 585.75,376.77 585.95,405.79 586.15,359.93 586.35,348.78 586.54,352.35 586.71,399.30 586.86,384.34 586.98,405.19 587.08,405.85 587.14,377.51 587.17,348.40 587.18,363.58 587.21,377.29 587.28,370.16 587.38,352.04 587.51,341.77 587.66,319.55 587.84,330.73 588.03,320.42 588.23,329.78 588.43,368.40 588.63,333.47 588.83,321.60 589.01,344.75 589.18,396.80 589.32,327.23 589.44,392.33 589.53,316.70 589.58,263.70 589.60,191.46 589.61,389.66 589.66,411.08 589.74,410.79 589.84,393.37 589.98,368.97 590.14,414.88 590.32,402.66 590.51,387.89 590.71,376.58 590.92,360.69 591.12,356.91 591.32,381.80 591.49,396.20 591.65,414.76 591.79,415.07 591.90,387.97 591.98,381.60 592.02,362.17 592.04,256.73 592.06,351.55 592.11,348.46 592.20,325.39 592.31,341.71 592.45,370.03 592.62,342.22 592.80,361.89 593.00,361.10 593.20,306.83 593.40,271.39 593.60,282.70 593.80,336.45 593.97,289.52 594.12,307.61 594.25,351.45 594.35,307.09 594.42,362.13 594.46,359.69 594.47,357.66 594.50,357.93 594.56,388.90 594.65,400.04 594.78,384.00 594.93,390.36 595.09,404.83 595.28,402.93 595.48,398.21 595.68,368.19 595.89,329.28 596.08,327.32 596.27,327.88 596.44,380.23 596.59,404.86 596.71,412.35 596.81,406.39 596.87,374.86 596.90,310.40 596.91,368.13 596.94,397.85 597.01,365.89 597.12,380.57 597.24,395.72 597.40,401.74 597.57,415.03 597.76,392.84 597.96,379.41 598.17,354.90 598.37,358.51 598.56,383.03 598.75,364.22 598.91,384.27 599.05,343.49 599.17,400.60 599.26,348.30 599.31,296.71 599.33,260.20 599.34,304.99 599.39,339.63 599.47,365.38 599.58,393.81 599.71,370.58 599.88,401.78 600.05,379.33 600.24,397.01 600.45,358.95 600.65,349.80 600.86,371.66 601.05,377.42 601.22,408.90 601.39,417.56 601.52,398.42 601.63,405.00 601.71,382.56 601.75,374.89 601.77,335.67 601.79,318.31 601.84,363.01 601.93,394.51 602.04,368.04 602.18,385.03 602.35,382.62 602.53,404.85 602.73,378.17 602.93,353.19 603.13,360.96 603.34,390.93 603.53,390.94 603.70,378.83 603.86,392.26 603.98,394.74 604.09,378.72 604.16,366.94 604.19,322.41 604.20,295.80 604.23,260.94 604.29,371.87 604.39,346.59 604.51,341.50 604.66,352.02 604.82,347.99 605.02,374.38 605.21,354.45 605.42,353.40 605.62,373.14 605.81,383.01 606.00,377.37 606.17,386.92 606.32,385.05 606.44,387.21 606.54,401.20 606.60,350.26 606.63,293.67 606.64,387.46 606.67,403.65 606.75,350.17 606.85,375.98 606.98,392.00 607.13,369.63 607.30,372.93 607.50,384.83 607.69,397.93 607.90,389.58 608.10,375.62 608.30,406.98 608.48,384.72 608.64,419.35 608.79,392.10 608.90,397.11 608.99,361.33 609.04,380.90 609.06,370.38 609.08,304.43 609.12,314.74 609.20,346.54 609.31,374.69 609.44,354.68 609.61,374.44 609.78,350.72 609.98,323.71 610.18,320.04 610.39,320.96 610.59,381.46 610.78,373.46 610.96,395.19 611.12,369.37 611.25,388.31 611.36,348.08 611.44,306.52 611.48,285.44 611.50,391.22 611.52,360.00 611.57,367.78 611.66,423.98 611.77,414.40 611.92,424.52 612.08,405.41 612.26,391.23 612.46,352.92 612.66,344.44 612.87,345.67 613.07,381.06 613.26,392.29 613.43,393.68 613.59,391.24 613.72,423.71 613.82,400.05 613.89,405.83 613.92,360.17 613.93,322.92 613.96,307.41 614.02,380.03 614.12,335.42 614.24,378.59 614.39,348.28 614.56,338.84 614.75,332.21 614.95,380.92 615.15,349.72 615.35,371.37 615.55,313.95 615.73,321.76 615.91,301.64 616.05,325.13 616.18,306.96 616.27,385.26 616.33,254.65 616.36,330.52 616.37,350.23 616.41,393.98 616.48,349.80 616.58,361.97 616.71,362.37 616.86,376.16 617.04,357.70 617.23,339.23 617.43,358.47 617.63,384.35 617.83,382.42 618.03,351.52 618.21,318.02 618.38,303.18 618.52,318.56 618.63,352.06 618.72,246.41 618.77,180.81 618.79,142.03 618.81,417.77 618.85,397.80 618.93,378.72 619.04,403.56 619.18,357.55 619.34,375.94 619.52,335.13 619.71,351.92 619.91,387.75 620.12,371.17 620.32,363.68 620.51,365.39 620.69,346.46 620.85,376.97 620.99,398.57 621.09,376.42 621.17,398.69 621.22,386.75 621.23,313.72 621.25,296.39 621.30,334.52 621.39,371.66 621.51,387.41 621.65,386.21 621.81,367.60 622.00,358.43 622.19,371.00 622.39,387.78 622.60,373.96 622.80,381.91 622.99,347.79 623.16,360.45 623.32,384.52 623.45,365.02 623.55,358.34 623.62,379.66 623.65,396.12 623.66,352.72 623.69,374.62 623.75,402.13 623.85,342.38 623.97,421.40 624.12,371.13 624.29,379.54 624.48,366.94 624.68,397.52 624.88,387.63 625.09,396.23 625.28,355.07 625.47,340.08 625.64,372.29 625.78,363.50 625.91,379.48 626.00,420.42 626.06,354.47 626.09,383.48 626.10,355.00 626.14,376.69 626.21,405.95 626.31,401.91 626.44,399.15 626.60,386.36 626.77,397.03 626.96,412.87 627.16,412.48 627.36,380.25 627.57,380.69 627.76,351.25 627.95,364.01 628.11,368.06 628.25,362.09 628.37,403.38 628.45,332.94 628.51,305.64 628.52,261.19 628.54,282.99 628.58,256.60 628.66,280.64 628.78,384.58 628.91,313.28 629.07,337.51 629.25,336.76 629.44,319.55 629.65,333.94 629.85,324.71 630.05,342.03 630.24,329.31 630.42,386.38 630.58,375.11 630.72,391.45 630.83,366.83 630.90,360.15 630.95,341.44 630.96,386.40 630.98,394.70 631.03,388.45 631.12,394.65 631.24,413.88 631.38,388.85 631.54,362.72 631.73,396.77 631.93,376.46 632.13,368.33 632.33,393.19 632.54,383.51 632.72,410.73 632.89,388.80 633.05,402.01 633.18,370.36 633.28,400.25 633.35,407.13 633.38,369.86 633.39,245.89 633.42,288.74 633.49,387.90 633.58,289.54 633.71,367.76 633.85,320.66 634.02,408.19 634.21,338.17 634.41,377.13 634.62,296.25 634.82,281.84 635.01,290.49 635.20,316.45 635.37,332.27 635.52,351.97 635.64,363.46 635.73,387.99 635.79,312.15 635.82,364.72 635.83,391.80 635.87,399.53 635.94,341.37 636.04,339.95 636.18,366.05 636.33,381.97 636.50,387.27 636.70,370.51 636.89,386.60 637.10,312.85 637.30,292.06 637.49,313.30 637.68,312.60 637.84,303.50 637.99,324.66 638.10,337.35 638.19,276.19 638.24,228.75 638.25,162.00 638.27,289.31 638.32,299.19 638.40,370.16 638.51,395.77 638.64,404.10 638.80,407.48 638.98,385.10 639.18,415.52 639.38,373.27 639.59,351.25 639.78,370.91 639.97,393.91 640.16,399.96 640.31,393.12 640.45,404.42 640.56,372.29 640.63,350.62 640.68,310.55 640.69,327.07 640.71,262.06 640.77,324.39 640.85,414.54 640.97,394.29 641.11,401.04 641.28,416.65 641.46,391.30 641.66,388.73 641.86,383.78 642.06,364.40 642.27,365.19 642.45,384.15 642.63,382.90 642.78,399.60 642.91,374.26 643.01,366.05 643.08,362.92 643.12,389.01 643.12,318.75 643.15,361.67 643.22,424.92 643.31,377.87 643.44,385.16 643.59,367.92 643.76,401.64 643.94,379.17 644.15,404.01 644.35,363.98 644.55,373.78 644.75,376.48 644.93,384.00 645.11,399.35 645.25,410.96 645.37,417.18 645.46,407.90 645.52,348.03 645.55,252.31 645.56,379.21 645.60,363.44 645.67,387.42 645.77,407.23 645.91,387.95 646.06,371.15 646.24,359.08 646.43,359.79 646.63,363.99 646.83,355.96 647.03,377.56 647.23,402.61 647.41,383.24 647.58,396.80 647.72,383.90 647.83,381.25 647.92,345.74 647.97,316.35 647.99,307.41 648.00,240.36 648.05,254.37 648.13,319.12 648.24,373.33 648.38,335.61 648.54,360.90 648.72,343.83 648.91,337.54 649.11,346.90 649.32,362.34 649.52,358.94 649.71,359.04 649.89,399.77 650.05,377.70 650.18,388.12 650.29,381.16 650.36,409.17 650.41,387.25 650.42,289.74 650.44,236.89 650.50,326.50 650.59,385.46 650.70,355.05 650.85,403.35 651.01,366.10 651.20,376.79 651.39,375.76 651.59,364.31 651.80,390.05 652.00,395.24 652.19,425.90 652.36,401.44 652.51,417.92 652.64,383.27 652.74,360.68 652.81,415.26 652.85,390.32 652.85,375.89 652.88,304.15 652.95,398.68 653.05,327.13 653.17,358.05 653.32,375.98 653.49,361.72 653.67,345.67 653.88,311.51 654.08,328.87 654.29,318.98 654.48,382.49 654.67,348.58 654.84,413.84 654.98,389.97 655.10,393.36 655.19,415.38 655.26,325.67 655.28,300.29 655.29,313.57 655.33,394.94 655.40,384.11 655.51,412.36 655.64,385.73 655.80,379.27 655.97,382.96 656.16,329.41 656.36,392.29 656.56,400.24 656.77,389.52 656.96,336.46 657.15,334.37 657.31,332.15 657.45,329.06 657.56,362.68 657.65,289.38 657.70,214.16 657.72,215.03 657.73,375.94 657.78,365.80 657.86,370.34 657.97,396.88 658.11,371.38 658.27,394.11 658.45,364.10 658.64,355.86 658.85,390.34 659.05,391.85 659.25,409.52 659.44,390.26 659.62,402.57 659.78,382.43 659.91,403.35 660.02,376.34 660.10,386.75 660.14,393.80 660.15,288.47 660.17,306.65 660.23,327.98 660.32,380.59 660.44,425.53 660.58,399.74 660.74,372.53 660.93,364.98 661.12,358.62 661.33,379.89 661.53,382.90 661.74,386.62 661.92,353.03 662.09,351.67 662.25,369.37 662.37,341.17 662.48,401.60 662.54,331.83 662.58,331.95 662.58,329.17 662.61,366.03 662.68,371.80 662.78,382.75 662.90,409.83 663.05,362.62 663.22,380.71 663.41,360.07 663.61,368.95 663.82,389.55 664.02,381.89 664.21,360.23 664.40,345.20 664.57,345.80 664.72,374.15 664.83,353.12 664.93,389.15 664.99,338.83 665.01,360.09 665.02,366.01 665.06,420.94 665.14,362.20 665.24,352.56 665.37,385.08 665.53,331.63 665.70,342.12 665.89,387.55 666.09,358.56 666.30,387.84 666.50,347.76 666.69,364.82 666.88,337.94 667.04,345.62 667.18,378.43 667.29,397.06 667.38,362.03 667.43,360.29 667.45,329.45 667.46,330.29 667.51,347.33 667.59,368.29 667.70,389.91 667.84,389.21 668.00,365.21 668.18,341.35 668.38,398.29 668.58,409.53 668.79,395.98 668.98,381.15 669.17,364.93 669.35,384.41 669.51,349.52 669.65,403.65 669.75,334.46 669.83,331.44 669.87,334.71 669.88,309.78 669.90,283.25 669.96,321.78 670.05,407.34 670.17,354.91 670.31,368.44 670.48,323.04 670.66,390.45 670.86,312.47 671.06,323.41 671.26,335.66 671.47,315.10 671.65,346.21 671.83,376.30 671.98,389.29 672.11,364.20 672.21,416.62 672.27,386.23 672.31,325.60 672.31,305.70 672.35,379.83 672.41,421.10 672.51,407.34 672.63,384.71 672.78,394.48 672.96,358.25 673.14,356.91 673.35,357.45 673.55,334.86 673.75,400.36 673.95,329.19 674.13,334.72 674.30,392.80 674.45,356.41 674.57,360.89 674.66,369.93 674.72,323.71 674.74,280.75 674.75,365.97 674.79,388.23 674.87,322.20 674.97,354.54 675.10,334.76 675.26,383.64 675.44,372.10 675.63,375.79 675.82,366.75 676.03,348.00 676.23,328.20 676.43,359.07 676.61,351.63 676.77,336.01 676.91,359.36 677.02,347.25 677.11,250.61 677.16,196.11 677.18,358.71 677.19,292.21 677.24,325.84 677.32,384.95 677.43,375.16 677.57,357.67 677.73,390.76 677.92,378.97 678.11,377.99 678.31,360.48 678.52,341.30 678.71,347.56 678.91,347.00 679.08,367.32 679.25,301.11 679.38,360.57 679.48,277.99 679.56,321.37 679.60,340.47 679.61,319.89 679.63,300.29 679.69,342.22 679.78,390.46 679.90,377.94 680.05,393.61 680.21,374.35 680.40,414.44 680.59,374.41 680.79,395.44 681.00,356.43 681.20,366.63 681.39,370.00 681.56,403.21 681.71,397.98 681.84,372.02 681.94,392.60 682.00,347.29 682.04,340.37 682.05,328.78 682.08,373.03 682.14,383.98 682.24,381.13 682.36,407.70 682.52,397.39 682.69,419.24 682.87,416.17 683.08,372.62 683.28,368.47 683.48,371.58 683.68,412.52 683.87,385.78 684.03,418.91 684.18,375.08 684.30,402.66 684.39,345.26 684.45,254.51 684.47,275.46 684.48,364.97 684.52,370.54 684.60,360.74 684.70,405.05 684.83,393.93 684.99,395.10 685.17,412.34 685.36,373.39 685.56,376.40 685.76,362.29 685.97,392.41 686.16,388.92 686.34,402.64 686.51,397.98 686.64,409.05 686.76,385.58 686.84,376.13 686.89,368.33 686.91,351.57 686.92,347.07 686.97,390.27 687.05,409.23 687.17,370.89 687.30,377.32 687.47,372.67 687.65,386.68 687.84,368.12 688.05,359.78 688.25,379.34 688.45,410.36 688.64,389.99 688.81,415.82 688.98,382.17 689.11,406.37 689.22,403.83 689.29,364.52 689.33,325.83 689.34,270.21 689.36,213.39 689.42,335.97 689.51,387.27 689.63,340.60 689.78,366.57 689.94,308.63 690.13,350.05 690.32,296.73 690.53,285.38 690.73,367.84 690.93,377.35 691.12,368.40 691.29,340.48 691.44,382.57 691.57,294.52 691.67,369.66 691.74,323.09 691.77,327.05 691.78,376.20 691.81,388.82 691.88,405.21 691.97,386.03 692.10,410.88 692.25,394.45 692.42,406.78 692.61,403.91 692.81,400.87 693.02,384.68 693.22,399.67 693.41,414.32 693.60,415.74 693.76,415.99 693.91,413.05 694.03,394.54 694.12,403.33 694.18,365.02 694.20,382.81 694.21,315.48 694.25,323.44 694.33,321.15 694.43,407.93 694.56,356.35 694.72,361.31 694.90,343.80 695.09,337.07 695.29,316.81 695.50,315.55 695.70,314.23 695.89,331.68 696.08,365.60 696.24,386.41 696.38,397.67 696.49,392.82 696.57,298.76 696.62,257.73 696.64,292.84 696.65,337.04 696.70,390.46 696.79,423.06 696.90,400.10 697.03,402.13 697.20,405.53 697.38,420.63 697.58,370.77 697.78,367.41 697.98,371.42 698.18,375.99 698.37,352.07 698.55,346.02 698.71,363.12 698.84,391.77 698.95,408.13 699.02,367.26 699.06,376.43 699.07,312.64 699.10,280.74 699.15,330.87 699.25,386.28 699.36,366.90 699.51,404.24 699.68,363.29 699.86,372.92 700.06,362.92 700.26,376.55 700.46,413.33 700.66,371.80 700.85,390.56 701.03,353.47 701.18,361.04 701.30,341.62 701.40,386.27 701.47,313.37 701.50,298.33 701.51,385.77 701.54,422.08 701.61,387.26 701.70,395.19 701.83,395.88 701.98,359.22 702.16,381.68 702.34,356.21 702.54,384.79 702.75,384.85 702.95,396.25 703.15,386.16 703.33,367.03 703.50,354.70 703.64,370.70 703.76,376.06 703.85,379.41 703.91,320.61 703.94,347.30 703.94,379.94 703.99,413.36 704.06,366.91 704.16,394.30 704.30,380.82 704.45,373.49 704.64,352.47 704.82,373.82 705.02,367.36 705.23,393.58 705.43,378.81 705.63,358.56 705.81,355.52 705.97,354.27 706.11,385.08 706.22,374.87 706.30,383.91 706.35,387.93 706.37,374.92 706.38,258.57 706.43,279.42 706.52,355.42 706.63,361.40 706.77,358.76 706.93,317.77 707.12,319.16 707.31,346.76 707.51,361.49 707.72,371.87 707.91,349.78 708.11,347.72 708.28,348.12 708.44,359.57 708.57,384.55 708.68,359.65 708.75,374.47 708.79,334.37 708.80,310.58 708.83,286.08 708.88,361.92 708.98,374.67 709.09,327.06 709.24,379.44 709.41,315.66 709.60,317.13 709.79,361.55 709.99,357.60 710.20,368.55 710.40,331.21 710.59,321.34 710.76,351.30 710.91,384.21 711.03,369.11 711.13,390.17 711.20,338.69 711.23,369.30 711.24,346.39 711.27,344.90 711.34,392.05 711.44,399.18 711.56,382.52 711.72,381.46 711.89,396.05 712.07,426.29 712.28,342.29 712.48,351.74 712.68,361.87 712.88,341.40 713.07,355.75 713.23,397.81 713.37,386.74 713.50,421.83 713.58,372.70 713.64,300.23 713.67,333.94 713.67,295.15 713.72,345.69 713.79,319.96 713.90,391.68 714.03,340.32 714.19,344.43 714.37,347.67 714.55,357.10 714.76,319.68 714.96,316.90 715.17,347.98 715.36,333.99 715.54,315.66 715.70,369.53 715.84,355.91 715.95,335.29 716.03,265.53 716.08,252.09 716.10,247.97 716.11,319.83 716.17,353.47 716.25,402.73 716.36,376.66 716.50,388.55 716.66,389.77 716.85,427.92 717.04,425.67 717.24,426.83 717.45,403.48 717.65,404.48 717.84,397.99 718.01,402.24 718.17,394.62 718.30,426.68 718.41,380.26 718.48,395.24 718.52,388.83 718.53,320.49 718.56,303.61 718.62,406.27 718.71,348.74 718.83,386.88 718.97,365.91 719.14,414.90 719.33,392.91 719.52,389.06 719.73,384.45 719.93,378.16 720.13,379.07 720.32,390.77 720.49,401.37 720.64,377.78 720.77,404.94 720.86,383.90 720.93,382.66 720.96,377.23 720.97,311.09 721.00,316.30 721.07,390.82 721.17,328.34 721.30,399.19 721.45,387.45 721.62,402.84 721.81,380.28 722.01,400.80 722.21,354.07 722.41,353.89 722.61,380.40 722.80,363.83 722.96,388.69 723.11,387.03 723.23,386.55 723.32,352.89 723.37,331.16 723.40,300.11 723.41,395.55 723.45,381.59 723.52,360.89 723.63,411.63 723.76,391.38 723.92,419.96 724.10,386.68 724.29,397.19 724.49,369.76 724.70,352.89 724.90,365.09 725.09,370.37 725.27,386.58 725.43,381.33 725.57,395.78 725.68,395.99 725.76,356.06 725.81,320.40 725.83,318.33 725.85,338.69 725.90,348.08 725.98,407.16 726.09,366.84 726.23,362.58 726.40,390.28 726.58,406.04 726.78,402.34 726.97,348.22 727.18,347.94 727.38,361.36 727.57,395.64 727.75,383.31 727.90,392.78 728.04,391.53 728.14,352.10 728.21,392.13 728.25,402.56 728.26,363.02 728.29,344.43 728.35,400.94 728.44,362.25 728.56,394.42 728.70,370.77 728.88,395.15 729.06,411.97 729.26,409.39 729.46,372.06 729.66,384.58 729.86,398.00 730.05,407.17 730.22,377.85 730.37,409.14 730.50,372.53 730.59,392.50 730.66,388.55 730.69,406.85 730.70,357.79 730.73,337.60 730.80,364.60 730.90,361.79 731.03,384.44 731.18,346.02 731.35,348.55 731.54,332.67 731.74,322.36 731.94,311.90 732.14,329.28 732.35,362.22 732.53,367.92 732.70,416.70 732.84,362.52 732.96,383.25 733.05,331.36 733.10,260.21 733.13,301.58 733.14,367.62 733.18,382.30 733.26,400.79 733.36,409.74 733.50,395.84 733.65,404.21 733.83,403.24 734.02,398.68 734.22,368.36 734.43,363.24 734.63,382.64 734.83,392.11 735.00,407.64 735.17,399.96 735.30,407.32 735.41,388.44 735.50,368.12 735.54,377.22 735.56,136.84 735.58,222.77 735.63,268.00 735.71,345.42 735.82,361.48 735.97,359.81 736.13,381.23 736.31,330.40 736.51,344.50 736.71,390.40 736.91,333.21 737.11,338.10 737.31,345.77 737.48,325.57 737.64,363.12 737.77,346.50 737.87,304.08 737.95,396.65 737.98,348.67 737.99,343.98 738.02,317.08 738.08,368.81 738.17,381.63 738.29,377.50 738.44,392.61 738.61,366.84 738.80,369.36 738.99,348.80 739.19,372.88 739.40,368.55 739.59,362.21 739.79,351.98 739.95,356.42 740.10,391.18 740.23,363.20 740.33,350.71 740.39,365.94 740.42,311.38 740.43,362.34 740.46,356.61 740.53,353.07 740.63,377.82 740.76,409.51 740.91,371.07 741.08,366.93 741.27,355.82 741.47,380.94 741.67,399.85 741.88,406.15 742.08,403.48 742.26,388.22 742.43,346.32 742.57,358.66 742.69,376.97 742.78,321.54 742.84,241.39 742.86,240.88 742.87,376.98 742.91,378.35 742.99,384.15 743.09,416.38 743.23,363.31 743.39,401.73 743.56,347.70 743.75,347.19 743.96,381.61 744.16,380.42 744.37,378.53 744.56,385.34 744.73,379.78 744.90,354.74 745.04,373.01 745.15,361.43 745.23,324.10 745.28,316.53 745.29,338.22 745.31,397.81 745.36,397.37 745.44,396.05 745.56,390.56 745.70,367.38 745.86,365.22 746.04,344.67 746.24,357.17 746.44,403.18 746.64,373.63 746.85,396.44 747.04,370.86 747.21,358.89 747.37,393.28 747.50,373.00 747.60,367.90 747.68,394.51 747.72,371.97 747.72,376.03 747.75,419.81 747.81,377.35 747.90,360.92 748.03,348.45 748.17,372.24 748.34,337.97 748.53,347.69 748.72,372.69 748.93,374.40 749.13,397.02 749.33,379.61 749.52,349.76 749.68,365.01 749.84,381.18 749.96,368.34 750.06,418.07 750.12,357.66 750.15,349.12 750.16,318.08 750.19,306.49 750.26,399.46 750.36,318.05 750.49,380.29 750.64,313.10 750.82,334.90 751.01,306.14 751.20,311.61 751.41,357.03 751.61,341.89 751.81,319.92 751.99,304.80 752.16,349.49 752.30,365.13 752.42,374.03 752.51,292.26 752.57,277.60 752.59,246.96 752.60,343.48 752.64,347.53 752.72,334.23 752.83,401.79 752.96,372.32 753.12,399.40 753.29,420.68 753.49,410.83 753.69,358.48 753.90,361.77 754.10,375.01 754.29,391.22 754.47,387.93 754.63,379.15 754.77,386.72 754.88,389.45 754.96,376.15 755.01,355.33 755.02,172.40 755.04,160.62 755.09,208.88 755.18,322.69 755.29,350.49 755.43,310.87 755.60,326.09 755.78,366.34 755.97,329.78 756.17,307.78 756.37,281.07 756.58,294.40 756.77,334.07 756.95,287.53 757.10,342.93 757.23,319.60 757.34,312.26 757.41,345.04 757.45,320.84 757.45,311.25 757.48,352.61 757.54,389.81 757.64,414.69 757.76,405.12 757.90,405.88 758.07,380.12 758.26,406.11 758.46,381.30 758.66,388.20 758.86,344.59 759.06,321.86 759.25,327.54 759.42,372.87 759.57,393.21 759.70,377.46 759.79,392.58 759.85,353.18 759.88,383.35 759.89,374.35 759.93,393.55 759.99,350.43 760.09,356.41 760.22,377.72 760.37,378.35 760.55,378.16 760.74,370.88 760.94,393.39 761.14,364.56 761.34,330.32 761.54,330.62 761.72,363.79 761.89,358.25 762.04,359.27 762.15,382.49 762.24,400.90 762.30,350.29 762.32,348.14 762.33,417.06 762.37,405.76 762.45,372.22 762.56,363.39 762.69,360.38 762.85,390.60 763.03,396.07 763.22,392.38 763.42,385.08 763.63,362.14 763.83,351.48 764.02,363.68 764.20,410.55 764.37,362.13 764.50,411.43 764.61,348.42 764.69,301.84 764.74,284.25 764.75,252.56 764.77,261.54 764.82,297.66 764.91,411.17 765.02,358.26 765.16,408.63 765.33,405.48 765.51,397.45 765.70,387.68 765.90,387.99 766.11,354.04 766.31,365.15 766.50,397.34 766.68,380.15 766.83,392.63 766.96,400.69 767.07,374.07 767.14,394.12 767.18,388.76 767.19,406.25 767.21,406.02 767.27,399.84 767.37,391.50 767.49,378.14 767.64,360.75 767.80,380.85 767.99,367.48 768.19,372.78 768.39,357.07 768.60,363.02 768.79,369.93 768.98,375.64 769.15,387.42 769.30,402.04 769.43,388.85 769.52,414.33 769.58,346.40 769.61,390.20 769.62,346.79 769.66,374.62 769.73,365.07 769.83,353.90 769.95,378.02 770.11,337.10 770.28,360.28 770.47,390.21 770.67,378.81 770.87,364.87 771.08,356.86 771.27,382.06 771.46,377.20 771.62,396.45 771.77,379.82 771.89,385.14 771.97,328.91 772.03,310.73 772.05,316.53 772.06,356.27 772.10,375.09 772.18,383.60 772.29,411.96 772.42,379.83 772.59,393.52 772.76,345.41 772.95,332.45 773.16,334.01 773.36,356.42 773.56,356.93 773.75,396.97 773.93,397.26 774.10,367.84 774.23,391.24 774.34,409.65 774.42,388.67 774.47,389.44 774.48,233.02 774.50,232.80 774.55,312.88 774.64,379.81 774.76,357.79 774.90,380.31 775.06,375.30 775.24,367.79 775.44,336.37 775.64,308.39 775.84,332.71 776.05,344.29 776.23,378.34 776.41,376.58 776.57,391.15 776.69,374.46 776.80,341.43 776.87,350.62 776.91,295.54 776.92,312.24 776.94,269.12 777.01,356.52 777.10,362.39 777.22,383.74 777.37,367.73 777.53,398.27 777.72,366.66 777.92,352.22 778.13,406.32 778.33,376.48 778.53,355.05 778.71,367.97 778.88,340.46 779.03,390.26 779.16,340.93 779.25,382.47 779.31,252.01 779.34,330.34 779.35,319.91 779.39,365.76 779.46,375.05 779.56,370.65 779.69,387.28 779.84,358.07 780.01,371.96 780.21,337.36 780.40,340.76 780.61,404.28 780.81,388.18 781.00,370.00 781.19,350.41 781.35,361.09 781.50,341.25 781.62,376.14 781.70,265.26 781.76,181.66 781.78,254.52 781.79,314.05 781.84,344.91 781.91,361.23 782.02,412.57 782.15,372.35 782.32,402.34 782.49,375.73 782.69,361.57 782.89,381.67 783.10,399.79 783.30,414.67 783.49,415.93 783.67,405.02 783.83,402.23 783.97,365.83 784.07,361.19 784.15,323.93 784.20,299.60 784.21,225.49 784.23,295.24 784.28,306.15 784.37,377.99 784.49,363.54 784.63,378.73 784.79,373.16 784.97,363.44 785.17,353.63 785.37,373.63 785.57,390.29 785.78,397.70 785.97,369.51 786.14,374.25 786.30,367.09 786.43,357.28 786.53,371.49 786.60,374.40 786.64,398.84 786.65,341.16 786.68,376.14 786.74,426.60 786.83,414.15 786.95,419.58 787.10,420.86 787.27,392.15 787.45,373.93 787.66,378.05 787.86,386.62 788.06,393.23 788.26,374.57 788.44,358.06 788.62,348.54 788.76,367.90 788.89,346.05 788.98,401.59 789.05,325.11 789.08,334.35 789.08,346.26 789.12,396.13 789.19,395.77 789.29,411.79 789.42,414.91 789.57,418.21 789.75,394.60 789.94,389.38 790.14,418.87 790.34,399.75 790.54,395.43 790.74,401.60 790.92,368.04 791.09,381.56 791.23,364.22 791.35,394.08 791.44,373.90 791.49,330.54 791.51,343.41 791.52,328.37 791.57,327.40 791.65,329.68 791.75,376.46 791.89,376.72 792.05,319.70 792.23,309.79 792.42,332.58 792.62,325.58 792.83,330.58 793.03,354.49 793.22,317.83 793.40,353.68 793.56,320.19 793.70,395.49 793.80,341.90 793.88,304.20 793.93,265.83 793.94,325.07 793.96,323.69 794.02,368.15 794.10,407.55 794.22,414.59 794.36,405.15 794.52,384.47 794.71,380.86 794.90,383.30 795.10,363.60 795.31,376.60 795.51,386.56 795.70,371.15 795.87,388.07 796.03,372.18 796.16,378.63 796.26,344.89 796.33,410.47 796.37,386.61 796.38,290.02 796.41,286.45 796.47,339.93 796.56,423.60 796.68,390.52 796.83,321.31 797.00,323.52 797.19,357.36 797.39,335.49 797.59,303.10 797.80,277.05 797.99,261.28 798.18,294.56 798.35,334.08 798.50,324.94 798.62,288.70 798.71,345.35 798.78,232.60 798.81,235.81 798.81,351.21 798.85,346.85 798.92,374.76 799.02,366.68 799.15,393.99 799.31,353.91 799.48,352.85 799.67,349.55 799.87,377.88 800.07,339.47 800.28,328.35 800.47,290.58 800.66,270.79 800.82,351.24 800.96,302.59 801.08,366.03 801.17,225.39 801.22,161.65 801.24,182.93 801.25,398.06 801.30,391.71 801.38,368.26 801.49,395.06 801.62,342.58 801.78,382.01 801.96,368.81 802.15,395.96 802.36,360.83 802.56,375.68 802.76,354.45 802.95,353.26 803.13,387.76 803.29,364.54 803.43,390.95 803.54,344.26 803.62,343.40 803.66,328.84 803.67,314.18 803.69,316.53 803.75,347.01 803.83,394.68 803.95,367.91 804.09,387.26 804.25,390.65 804.44,397.90 804.63,393.51 804.84,385.82 805.04,356.68 805.25,370.65 805.43,371.43 805.61,379.11 805.76,372.86 805.89,385.38 805.99,385.94 806.06,380.50 806.10,365.68 806.11,299.28 806.14,319.09 806.20,407.94 806.29,344.93 806.42,383.31 806.57,393.73 806.73,386.86 806.92,386.22 807.12,382.99 807.33,367.56 807.53,357.60 807.72,374.45 807.91,372.57 808.08,381.60 808.23,416.30 808.35,391.42 808.45,394.59 808.51,336.05 808.54,397.72 808.54,288.97 808.58,377.58 808.65,404.74 808.75,409.41 808.89,404.15 809.04,376.23 809.21,380.95 809.41,364.42 809.60,368.67 809.81,357.60 810.01,384.96 810.20,391.50 810.39,396.28 810.55,419.94 810.70,387.82 810.81,404.39 810.90,377.89 810.95,366.71 810.97,400.35 810.98,235.34 811.03,307.95 811.11,330.49 811.22,393.85 811.35,344.84 811.51,352.36 811.69,325.55 811.89,363.48 812.09,347.53 812.30,323.94 812.49,361.36 812.68,341.79 812.87,384.79 813.02,370.38 813.16,409.82 813.27,366.44 813.35,357.59 813.39,326.31 813.40,363.28 813.42,313.46 813.48,343.11 813.57,425.42 813.68,388.86 813.82,406.57 813.99,403.51 814.17,399.16 814.37,369.63 814.57,364.85 814.77,384.78 814.98,415.08 815.16,410.47 815.34,389.31 815.49,420.24 815.63,401.38 815.72,409.03 815.79,364.70 815.83,335.36 815.84,270.08 815.87,238.54 815.93,388.32 816.02,329.48 816.15,352.20 816.30,389.31 816.47,361.21 816.65,345.03 816.86,312.55 817.06,272.71 817.26,291.51 817.46,337.54 817.64,343.23 817.82,370.34 817.96,368.51 818.08,358.64 818.18,382.50 818.24,319.91 818.27,322.73 818.28,359.57 818.31,394.46 818.38,372.39 818.48,389.13 818.62,390.58 818.77,388.83 818.95,379.55 819.14,399.18 819.34,382.41 819.54,361.41 819.74,380.57 819.94,357.77 820.12,373.19 820.29,369.44 820.43,384.56 820.54,392.14 820.63,325.27 820.68,261.87 820.70,339.36 820.71,349.12 820.76,372.11 820.84,366.54 820.95,388.68 821.09,395.03 821.25,405.18 821.43,387.93 821.62,375.85 821.82,380.16 822.03,389.73 822.22,385.78 822.42,413.30 822.60,369.88 822.76,367.61 822.89,381.25 823.00,343.58 823.08,320.81 823.12,340.46 823.13,315.10 823.16,243.89 823.21,315.05 823.30,413.21 823.41,377.88 823.56,395.91 823.72,368.44 823.91,393.70 824.10,374.63 824.30,379.01 824.51,413.14 824.71,404.28 824.90,416.32 825.07,409.13 825.22,405.42 825.36,374.55 825.45,354.40 825.53,356.04 825.56,344.63 825.57,295.87 825.60,318.18 825.66,385.23 825.76,381.94 825.88,385.04 826.03,393.51 826.20,363.09 826.38,375.75 826.59,376.52 826.79,384.14 826.99,381.20 827.19,387.39 827.38,416.91 827.55,359.42 827.69,387.23 827.82,356.62 827.91,403.07 827.97,313.26 828.00,352.62 828.01,409.00 828.04,374.29 828.11,299.89 828.22,357.43 828.35,343.03 828.51,398.71 828.68,354.78 828.87,366.43 829.07,364.29 829.27,408.02 829.48,393.11 829.67,388.15 829.86,353.82 830.02,333.28 830.16,360.05 830.28,398.96 830.36,329.11 830.41,279.68 830.43,296.86 830.44,304.89 830.49,299.62 830.57,358.77 830.68,382.28 830.82,360.15 830.98,380.84 831.16,375.30 831.35,389.29 831.56,403.83 831.76,398.12 831.96,367.80 832.15,383.61 832.33,367.92 832.49,347.37 832.62,362.54 832.73,334.87 832.81,353.03 832.85,336.14 832.86,298.31 832.89,191.27 832.94,275.73 833.03,409.16 833.15,343.20 833.29,380.20 833.45,311.77 833.64,332.95 833.83,348.72 834.04,346.19 834.24,346.41 834.44,352.34 834.63,328.26 834.80,360.31 834.96,365.86 835.09,392.95 835.19,385.51 835.26,373.12 835.29,373.92 835.30,339.64 835.33,388.29 835.39,388.76 835.49,382.39 835.61,411.27 835.76,393.03 835.93,349.07 836.12,338.93 836.32,356.44 836.52,343.75 836.73,367.18 836.92,396.04 837.11,330.78 837.28,397.90 837.43,349.48 837.55,388.35 837.64,355.07 837.70,283.05 837.73,272.66 837.74,416.91 837.77,356.26 837.85,289.64 837.95,353.60 838.08,349.01 838.24,341.49 838.41,356.99 838.60,393.82 838.80,367.27 839.01,348.54 839.21,305.12 839.40,295.26 839.59,322.32 839.75,364.74 839.89,350.68 840.01,378.73 840.09,309.31 840.14,235.97 840.16,216.03 840.18,291.56 840.22,303.57 840.30,343.76 840.41,368.00 840.55,338.85 840.71,332.42 840.89,341.90 841.09,356.20 841.29,339.59 841.49,343.88 841.69,330.89 841.88,324.93 842.06,322.21 842.22,320.25 842.36,347.39 842.46,276.19 842.54,268.58 842.58,293.72 842.60,356.90 842.62,393.51 842.67,390.18 842.76,403.75 842.88,389.97 843.02,370.71 843.19,358.03 843.37,392.51 843.57,395.82 843.77,375.87 843.97,355.95 844.18,361.57 844.36,385.06 844.54,363.62 844.69,417.03 844.82,368.91 844.92,391.82 844.99,394.38 845.02,391.16 845.03,326.21 845.06,309.18 845.12,381.59 845.22,368.09 845.35,400.44 845.49,349.75 845.67,415.35 845.85,382.54 846.05,401.60 846.26,366.53 846.46,369.51 846.66,366.54 846.84,385.66 847.01,373.75 847.16,379.77 847.28,344.48 847.37,359.51 847.43,367.94 847.46,334.10 847.47,390.83 847.51,378.58 847.58,370.46 847.68,373.18 847.81,386.91 847.97,406.29 848.15,402.38 848.33,390.39 848.54,388.94 848.74,350.02 848.94,340.55 849.14,363.40 849.32,382.67 849.49,364.00 849.62,372.24 849.74,389.82 849.82,298.01 849.87,224.53 849.89,232.14 849.91,293.03 849.96,307.79 850.03,368.63 850.14,368.30 850.28,387.85 850.44,367.64 850.63,396.34 850.82,422.86 851.02,367.08 851.22,357.84 851.42,367.28 851.62,400.89 851.79,401.15 851.96,412.74 852.09,411.60 852.19,393.67 852.27,390.06 852.32,379.03 852.33,280.07 852.35,241.89 852.40,284.15 852.49,398.33 852.61,343.56 852.76,359.94 852.92,342.38 853.11,329.63 853.30,346.50 853.50,333.65 853.71,334.75 853.91,347.65 854.10,390.96 854.27,344.01 854.42,387.12 854.55,323.22 854.65,343.74 854.72,366.95 854.75,326.90 854.76,365.69 854.79,409.51 854.86,416.62 854.95,422.44 855.08,423.16 855.23,413.34 855.40,410.41 855.58,405.36 855.79,405.58 855.99,412.70 856.19,417.41 856.39,396.69 856.58,402.00 856.74,407.73 856.89,404.80 857.01,394.63 857.10,387.02 857.16,378.37 857.19,319.01 857.20,398.79 857.24,419.54 857.31,354.80 857.41,379.73 857.54,392.14 857.70,365.51 857.88,384.63 858.06,320.67 858.27,323.48 858.47,316.45 858.68,282.99 858.87,325.52 859.05,324.75 859.22,359.28 859.35,335.24 859.47,369.82 859.55,272.57 859.61,205.33 859.62,238.51 859.64,393.00 859.69,373.71 859.77,388.29 859.88,416.69 860.01,423.86 860.18,408.35 860.36,405.15 860.55,385.05 860.75,346.91 860.96,343.65 861.16,355.18 861.35,336.34 861.52,362.05 861.69,362.31 861.82,369.10 861.93,409.15 862.00,372.91 862.05,350.21 862.06,364.01 862.08,398.88 862.14,419.10 862.22,407.73 862.34,412.56 862.49,413.90 862.65,394.61 862.84,385.26 863.03,366.59 863.24,371.94 863.44,376.78 863.64,373.24 863.83,397.67 864.00,371.29 864.16,389.60 864.28,380.41 864.38,385.15 864.45,379.86 864.48,302.89 864.49,379.33 864.52,339.92 864.59,402.72 864.68,384.02 864.81,407.26 864.96,373.51 865.13,390.96 865.32,366.29 865.52,361.12 865.72,406.30 865.92,403.35 866.12,424.12 866.31,424.69 866.47,415.23 866.62,400.34 866.74,357.65 866.84,401.10 866.89,325.67 866.92,352.70 866.93,375.58 866.97,398.37 867.04,364.21 867.15,408.07 867.27,404.93 867.43,407.66 867.61,382.46 867.80,348.19 868.00,360.36 868.21,401.38 868.41,385.07 868.60,418.31 868.79,395.73 868.95,384.33 869.09,361.56 869.20,389.95 869.29,314.53 869.34,291.55 869.35,223.22 869.37,256.47 869.42,291.63 869.50,330.56 869.61,358.66 869.75,342.85 869.91,343.46 870.09,337.55 870.29,324.56 870.48,390.43 870.69,368.56 870.89,395.58 871.08,375.70 871.26,377.88 871.42,325.93 871.55,377.34 871.66,347.25 871.73,378.77 871.78,372.47 871.79,313.90 871.81,333.89 871.87,358.03 871.96,344.95 872.07,341.46 872.22,359.45 872.39,332.87 872.57,329.49 872.77,363.13 872.97,355.61 873.17,380.99 873.37,393.92 873.56,352.66 873.74,329.90 873.89,388.15 874.02,294.31 874.11,327.81 874.18,387.44 874.22,403.45 874.22,291.70 874.25,325.13 874.32,403.26 874.41,385.31 874.54,396.22 874.69,371.91 874.87,366.60 875.05,372.72 875.25,375.24 875.45,351.12 875.65,351.20 875.86,345.54 876.04,330.66 876.21,346.42 876.35,406.57 876.47,390.13 876.57,371.61 876.62,342.34 876.65,259.53 876.66,407.45 876.70,410.00 876.77,398.38 876.88,393.84 877.01,411.65 877.16,359.18 877.34,335.28 877.53,319.82 877.73,324.93 877.94,316.69 878.14,330.07 878.34,371.32 878.52,313.79 878.68,335.62 878.82,375.04 878.93,346.09 879.02,273.78 879.07,230.59 879.08,181.24 879.10,334.68 879.15,331.89 879.23,364.02 879.34,388.37 879.48,370.07 879.64,359.80 879.83,386.37 880.02,396.18 880.22,412.65 880.42,399.20 880.62,381.91 880.82,368.33 880.99,386.77 881.15,392.00 881.28,417.18 881.39,373.32 881.47,375.93 881.51,315.75 881.52,394.91 881.54,370.27 881.60,371.97 881.69,382.48 881.81,395.27 881.95,378.63 882.12,355.94 882.31,397.76 882.50,382.30 882.70,392.77 882.91,374.37 883.10,367.58 883.30,411.31 883.47,385.93 883.62,388.73 883.75,340.71 883.84,359.78 883.91,366.99 883.95,310.89 883.95,343.37 883.99,335.70 884.05,408.21 884.15,369.85 884.27,387.99 884.43,363.36 884.60,359.14 884.78,373.40 884.98,388.71 885.18,389.54 885.39,349.26 885.59,331.96 885.78,357.22 885.94,379.78 886.08,369.46 886.21,388.18 886.30,386.69 886.36,285.75 886.38,319.61 886.39,380.95 886.42,330.23 886.46,364.70 886.53,375.22 886.62,371.59 886.73,361.31 886.84,343.79 886.97,361.71 887.10,380.06 887.24,378.92 887.38,378.24 887.50,373.37 887.62,360.97 887.73,359.03 887.82,363.89 887.90,367.00 887.96,341.62 887.99,373.66 888.00,384.28" fill="none" stroke="#000" stroke-width="1.5" opacity="0.9"/>
<text x="500.0" y="502" font-family="Times New Roman" font-size="19" text-anchor="middle">Julian Date</text>
<text transform="translate(18,247.0) rotate(-90)" font-family="Times New Roman" font-size="19" text-anchor="middle">velocity residual (mm/s)</text>
</svg>
