<svg xmlns="http://www.w3.org/2000/svg" width="920" height="520" viewBox="0 0 920 520">
<rect width="100%" height="100%" fill="white"/>
<text x="460.0" y="24" font-family="Times New Roman" font-size="24" text-anchor="middle">Mercury native velocity residual</text>
<line x1="112" y1="434" x2="888" y2="434" stroke="#333"/>
<line x1="112" y1="60" x2="112" y2="434" stroke="#333"/>
<line x1="112" y1="434.00" x2="888" y2="434.00" stroke="#ddd"/>
<text x="104" y="438.00" font-family="Times New Roman" font-size="17" text-anchor="end">0</text>
<line x1="112" y1="340.50" x2="888" y2="340.50" stroke="#ddd"/>
<text x="104" y="344.50" font-family="Times New Roman" font-size="17" text-anchor="end">0.9035</text>
<line x1="112" y1="247.00" x2="888" y2="247.00" stroke="#ddd"/>
<text x="104" y="251.00" font-family="Times New Roman" font-size="17" text-anchor="end">1.807</text>
<line x1="112" y1="153.50" x2="888" y2="153.50" stroke="#ddd"/>
<text x="104" y="157.50" font-family="Times New Roman" font-size="17" text-anchor="end">2.711</text>
<line x1="112" y1="60.00" x2="888" y2="60.00" stroke="#ddd"/>
<text x="104" y="64.00" font-family="Times New Roman" font-size="17" text-anchor="end">3.614</text>
<line x1="112.00" y1="434" x2="112.00" y2="439" stroke="#333"/>
<text x="112.00" y="456" font-family="Times New Roman" font-size="17" text-anchor="middle">2378495</text>
<line x1="306.00" y1="434" x2="306.00" y2="439" stroke="#333"/>
<text x="306.00" y="456" font-family="Times New Roman" font-size="17" text-anchor="middle">2433282</text>
<line x1="500.00" y1="434" x2="500.00" y2="439" stroke="#333"/>
<text x="500.00" y="456" font-family="Times New Roman" font-size="17" text-anchor="middle">2488070</text>
<line x1="694.00" y1="434" x2="694.00" y2="439" stroke="#333"/>
<text x="694.00" y="456" font-family="Times New Roman" font-size="17" text-anchor="middle">2542858</text>
<line x1="888.00" y1="434" x2="888.00" y2="439" stroke="#333"/>
<text x="888.00" y="456" font-family="Times New Roman" font-size="17" text-anchor="middle">2597645</text>
<polyline points="112.00,406.58 112.11,428.90 112.27,384.19 112.33,397.88 112.52,403.69 112.60,378.09 112.75,403.36 112.90,361.04 112.98,403.70 113.17,414.06 113.24,390.30 113.41,399.96 113.53,353.65 113.64,409.50 113.82,422.94 113.88,389.14 114.07,426.83 114.16,425.26 114.30,428.81 114.46,391.00 114.53,425.55 114.72,408.73 114.79,371.69 114.96,415.69 115.09,347.39 115.19,405.08 115.37,404.93 115.44,413.45 115.62,401.40 115.71,347.83 115.85,422.14 116.01,409.91 116.09,420.95 116.27,405.14 116.35,398.47 116.51,423.06 116.65,291.85 116.74,426.90 116.92,391.20 116.99,405.86 117.17,403.20 117.27,377.32 117.40,420.57 117.57,394.07 117.64,401.24 117.83,416.31 117.90,373.92 118.06,411.26 118.20,359.35 118.29,403.57 118.48,396.77 118.54,396.93 118.72,402.19 118.83,289.71 118.95,421.37 119.12,417.54 119.19,415.91 119.38,410.44 119.46,364.18 119.61,402.82 119.76,361.27 119.84,420.65 120.03,412.39 120.10,401.15 120.27,417.53 120.38,298.47 120.50,416.62 120.68,361.19 120.74,386.47 120.93,409.79 121.01,374.34 121.16,418.56 121.31,360.36 121.39,382.23 121.58,418.60 121.65,402.84 121.82,407.09 121.94,265.54 122.05,420.72 122.23,376.61 122.29,396.98 122.48,413.15 122.57,371.39 122.71,411.46 122.87,372.77 122.94,409.41 123.13,419.66 123.20,398.80 123.37,419.69 123.50,341.81 123.60,402.93 123.78,389.53 123.85,420.55 124.03,404.14 124.12,326.18 124.26,409.38 124.42,376.41 124.50,400.22 124.69,421.12 124.76,390.22 124.92,420.03 125.06,318.72 125.15,385.88 125.34,414.38 125.40,410.39 125.58,397.05 125.68,324.26 125.81,410.63 125.98,396.43 126.05,389.06 126.24,365.63 126.31,393.91 126.47,419.99 126.61,361.30 126.70,403.80 126.89,392.13 126.95,399.83 127.13,418.96 127.24,285.69 127.36,418.17 127.53,380.24 127.60,416.27 127.79,413.68 127.87,363.21 128.02,413.73 128.17,369.42 128.25,405.27 128.44,407.87 128.51,412.43 128.68,422.68 128.79,361.82 128.91,402.96 129.09,399.31 129.15,429.08 129.34,409.86 129.42,347.27 129.57,423.09 129.72,332.57 129.80,404.86 129.99,419.79 130.06,414.15 130.23,418.64 130.35,291.35 130.46,405.00 130.64,399.30 130.70,409.70 130.89,417.78 130.98,329.49 131.12,412.64 131.28,372.03 131.36,406.68 131.54,396.90 131.61,405.41 131.78,402.00 131.91,249.96 132.01,392.98 132.19,406.28 132.26,415.33 132.44,410.86 132.53,415.06 132.67,419.66 132.83,371.59 132.91,407.16 133.10,400.31 133.17,378.76 133.33,393.31 133.47,384.53 133.56,413.21 133.75,397.03 133.81,388.55 133.99,411.53 134.09,369.63 134.22,415.59 134.39,414.67 134.46,385.27 134.65,389.14 134.72,380.71 134.88,423.47 135.02,380.71 135.11,389.41 135.30,414.05 135.36,415.11 135.54,394.25 135.65,289.58 135.77,413.34 135.94,388.03 136.01,402.22 136.20,392.00 136.28,388.61 136.43,407.01 136.58,373.31 136.66,402.96 136.85,410.09 136.92,408.79 137.09,416.42 137.21,358.30 137.32,409.75 137.50,380.59 137.56,411.04 137.75,394.21 137.83,407.40 137.98,422.50 138.13,401.72 138.22,404.34 138.40,401.88 138.47,423.87 138.64,395.76 138.76,336.14 138.87,426.00 139.05,393.81 139.12,414.42 139.30,402.81 139.39,333.30 139.53,397.85 139.69,345.19 139.77,399.06 139.96,407.93 140.02,390.64 140.19,403.78 140.32,251.46 140.42,405.13 140.60,416.91 140.67,407.64 140.85,404.34 140.95,344.58 141.08,425.14 141.24,365.46 141.32,397.11 141.51,408.35 141.58,390.28 141.74,419.52 141.88,302.77 141.97,407.42 142.16,399.10 142.22,373.58 142.40,407.79 142.50,327.38 142.63,427.85 142.80,393.73 142.87,408.37 143.06,413.90 143.13,360.01 143.29,392.75 143.43,273.54 143.52,390.17 143.71,408.83 143.77,410.26 143.95,408.50 144.06,311.71 144.18,408.19 144.35,405.18 144.42,392.54 144.61,422.32 144.69,374.15 144.84,400.99 144.99,389.36 145.07,409.42 145.26,406.08 145.33,409.31 145.50,407.26 145.62,341.51 145.73,406.62 145.91,398.60 145.97,408.85 146.16,406.06 146.24,359.94 146.39,393.73 146.54,334.02 146.63,405.96 146.81,397.53 146.88,374.66 147.05,412.27 147.17,317.27 147.28,396.43 147.46,420.42 147.53,410.60 147.71,416.80 147.80,359.24 147.94,424.44 148.10,375.28 148.18,393.80 148.37,413.52 148.43,419.48 148.60,416.56 148.73,339.03 148.83,382.57 149.01,368.70 149.08,379.39 149.26,390.92 149.36,285.98 149.49,402.50 149.65,374.41 149.73,407.53 149.92,401.64 149.99,397.58 150.15,404.60 150.29,394.13 150.38,417.35 150.57,409.10 150.63,403.20 150.81,418.88 150.91,335.81 151.04,407.56 151.21,370.94 151.28,395.59 151.47,416.38 151.54,387.15 151.70,404.94 151.84,265.30 151.94,401.63 152.12,405.31 152.18,374.92 152.36,418.02 152.47,306.41 152.59,405.39 152.76,410.23 152.83,426.60 153.02,401.30 153.10,377.62 153.25,408.69 153.40,413.17 153.49,404.90 153.67,393.25 153.74,379.23 153.91,401.32 154.03,341.49 154.14,397.87 154.32,383.99 154.38,393.63 154.57,393.84 154.65,381.23 154.80,426.26 154.96,389.99 155.04,420.00 155.23,401.34 155.29,393.39 155.47,419.90 155.58,310.05 155.69,394.22 155.87,422.53 155.94,409.77 156.12,411.08 156.21,346.83 156.35,406.51 156.51,391.26 156.59,425.61 156.78,404.92 156.85,413.23 157.02,411.62 157.14,322.36 157.24,412.70 157.42,410.60 157.49,411.66 157.67,402.55 157.77,346.74 157.90,407.41 158.07,401.69 158.14,425.80 158.33,406.42 158.40,367.46 158.57,421.40 158.70,374.65 158.80,387.34 158.98,409.25 159.04,389.26 159.22,395.20 159.32,307.79 159.45,426.24 159.62,388.80 159.69,401.67 159.88,410.61 159.95,392.56 160.12,412.41 160.25,402.88 160.35,423.76 160.53,415.33 160.59,402.31 160.78,394.28 160.88,348.22 161.00,414.14 161.17,391.75 161.24,419.39 161.43,410.95 161.51,374.76 161.66,411.90 161.81,409.40 161.90,426.35 162.08,395.53 162.15,379.81 162.33,418.68 162.44,339.38 162.55,418.11 162.73,394.73 162.79,391.10 162.98,420.09 163.06,391.70 163.22,413.13 163.37,324.18 163.45,416.09 163.64,413.73 163.70,380.26 163.88,416.60 163.99,374.55 164.10,422.17 164.28,377.45 164.35,401.39 164.53,423.24 164.62,374.28 164.77,426.07 164.92,373.58 165.00,424.62 165.19,397.05 165.26,379.51 165.43,429.49 165.55,379.39 165.66,424.78 165.84,383.95 165.90,399.47 166.08,411.47 166.18,383.52 166.32,396.51 166.48,402.13 166.55,420.13 166.74,398.35 166.81,381.31 166.98,414.66 167.11,327.33 167.21,425.58 167.39,390.01 167.45,394.54 167.64,423.48 167.73,276.49 167.87,420.60 168.03,400.79 168.10,401.03 168.29,420.19 168.36,383.18 168.53,414.77 168.66,381.30 168.76,403.56 168.94,383.29 169.01,398.91 169.19,412.32 169.29,298.02 169.42,404.48 169.59,392.33 169.65,418.98 169.84,399.94 169.92,402.82 170.08,408.17 170.22,376.45 170.31,411.59 170.49,400.09 170.56,401.97 170.74,403.00 170.85,310.31 170.97,420.13 171.14,390.80 171.21,402.59 171.39,398.80 171.48,392.15 171.63,408.39 171.78,387.76 171.86,403.51 172.05,417.31 172.11,407.82 172.29,402.10 172.40,305.38 172.52,413.89 172.69,421.30 172.76,423.40 172.94,407.51 173.03,319.94 173.18,415.26 173.33,382.14 173.41,409.42 173.60,417.06 173.67,404.46 173.84,407.19 173.96,361.44 174.07,395.50 174.25,384.61 174.31,388.90 174.50,405.29 174.59,372.68 174.73,398.80 174.89,333.38 174.96,391.36 175.15,427.96 175.22,411.20 175.39,416.49 175.52,353.86 175.62,415.57 175.80,423.72 175.86,392.26 176.05,424.47 176.14,421.33 176.28,414.88 176.44,380.22 176.51,403.83 176.70,409.57 176.78,386.19 176.94,404.28 177.07,364.60 177.17,406.61 177.35,414.01 177.42,390.82 177.60,415.62 177.70,373.05 177.83,402.56 178.00,404.53 178.06,417.82 178.25,393.79 178.33,397.75 178.49,411.50 178.63,388.37 178.72,411.20 178.91,417.09 178.97,423.35 179.15,418.28 179.26,297.62 179.38,405.93 179.55,408.06 179.62,403.23 179.80,414.79 179.89,374.73 180.04,417.25 180.19,394.63 180.27,406.51 180.46,388.33 180.52,395.40 180.70,419.46 180.81,277.31 180.93,414.74 181.10,395.28 181.17,412.86 181.36,409.81 181.44,412.52 181.59,398.54 181.74,380.46 181.82,398.73 182.01,388.91 182.08,373.07 182.25,416.56 182.37,385.51 182.48,411.34 182.66,420.79 182.72,391.95 182.91,414.78 183.00,335.53 183.14,395.23 183.30,391.41 183.37,414.48 183.56,424.57 183.63,418.08 183.80,386.08 183.93,329.54 184.03,417.90 184.21,409.44 184.27,403.97 184.46,430.44 184.55,388.17 184.69,409.55 184.85,396.47 184.92,422.51 185.11,415.76 185.19,385.13 185.35,415.96 185.49,316.36 185.58,413.65 185.76,400.68 185.83,399.27 186.01,411.46 186.11,345.81 186.24,429.12 186.41,390.99 186.48,403.91 186.66,395.71 186.74,378.67 186.90,414.69 187.04,354.06 187.13,391.18 187.32,423.96 187.38,392.90 187.56,401.79 187.67,328.66 187.79,404.34 187.96,394.00 188.03,400.16 188.22,394.67 188.30,366.33 188.45,402.14 188.60,367.17 188.68,410.33 188.87,402.36 188.93,390.28 189.11,408.88 189.23,372.59 189.34,419.32 189.51,415.22 189.58,393.52 189.77,403.32 189.85,389.50 190.00,416.43 190.15,391.77 190.23,412.38 190.42,386.14 190.49,388.09 190.66,393.81 190.78,246.13 190.89,423.95 191.07,383.95 191.13,392.81 191.32,395.11 191.41,401.78 191.55,425.44 191.71,370.49 191.78,421.19 191.97,419.67 192.04,391.97 192.21,429.44 192.34,302.04 192.44,430.28 192.62,397.91 192.68,393.11 192.87,393.69 192.96,362.36 193.10,422.57 193.26,366.15 193.33,405.35 193.52,403.05 193.60,371.38 193.76,418.62 193.90,328.98 193.99,420.78 194.17,399.32 194.24,375.23 194.42,410.08 194.52,291.49 194.65,424.21 194.82,403.35 194.89,386.59 195.08,395.84 195.15,413.44 195.31,417.64 195.45,370.71 195.54,404.06 195.73,408.49 195.79,412.11 195.97,421.66 196.08,303.56 196.20,430.77 196.37,399.59 196.44,388.52 196.63,383.34 196.71,404.78 196.86,417.54 197.01,417.76 197.09,408.38 197.28,405.18 197.34,397.15 197.52,417.06 197.64,330.81 197.75,409.12 197.93,410.84 197.99,427.43 198.18,396.53 198.26,347.90 198.41,420.50 198.56,410.98 198.64,408.67 198.83,393.86 198.90,401.58 199.07,401.82 199.19,299.01 199.30,407.23 199.48,399.54 199.54,412.24 199.73,418.14 199.82,401.94 199.96,399.62 200.12,376.95 200.19,404.08 200.38,380.26 200.45,415.37 200.62,409.22 200.75,319.51 200.85,422.59 201.03,400.97 201.10,402.85 201.28,424.40 201.37,310.63 201.51,404.16 201.67,398.94 201.75,416.93 201.93,407.77 202.01,394.00 202.17,416.61 202.31,298.86 202.40,410.03 202.58,398.10 202.65,379.34 202.83,418.21 202.93,388.24 203.06,404.78 203.23,419.66 203.30,418.61 203.49,417.46 203.56,389.78 203.72,394.03 203.86,301.33 203.95,404.03 204.14,406.31 204.20,392.72 204.38,408.72 204.49,363.51 204.61,407.97 204.78,394.37 204.85,398.59 205.04,393.34 205.12,373.12 205.27,419.88 205.42,389.05 205.50,413.13 205.69,399.81 205.76,404.29 205.93,422.15 206.05,355.12 206.16,411.08 206.34,372.70 206.40,402.24 206.59,421.36 206.67,407.81 206.82,408.85 206.97,388.64 207.05,395.69 207.24,418.43 207.31,391.98 207.48,418.65 207.60,343.65 207.71,401.12 207.89,407.81 207.95,410.43 208.14,410.66 208.23,368.67 208.37,415.68 208.53,343.74 208.60,404.73 208.79,425.30 208.86,398.93 209.03,431.78 209.16,402.85 209.26,406.29 209.44,389.28 209.51,381.69 209.69,416.46 209.79,376.72 209.92,410.04 210.08,398.58 210.16,415.53 210.35,394.16 210.42,393.85 210.58,403.91 210.72,324.51 210.81,402.49 211.00,402.49 211.06,411.54 211.24,404.11 211.34,404.37 211.47,415.34 211.64,402.63 211.71,401.35 211.90,420.16 211.97,381.32 212.13,429.19 212.27,413.28 212.36,406.97 212.55,387.99 212.61,401.12 212.79,423.28 212.90,372.62 213.02,424.15 213.19,398.43 213.26,404.43 213.45,417.34 213.53,415.95 213.68,390.24 213.83,361.77 213.91,395.69 214.10,397.20 214.17,416.75 214.34,421.09 214.46,345.53 214.57,415.44 214.75,398.95 214.81,402.29 215.00,389.10 215.08,384.36 215.23,418.07 215.38,391.41 215.46,418.26 215.65,405.71 215.72,376.56 215.89,416.52 216.01,266.78 216.12,409.86 216.30,403.67 216.36,412.45 216.55,409.59 216.64,313.48 216.78,412.54 216.94,387.39 217.02,420.08 217.20,415.18 217.27,404.27 217.44,401.52 217.57,382.85 217.67,404.83 217.85,423.43 217.92,401.11 218.10,410.49 218.20,341.44 218.33,399.20 218.49,409.54 218.57,396.10 218.76,415.89 218.83,393.76 218.99,417.85 219.13,400.60 219.22,405.40 219.41,389.26 219.47,378.46 219.65,399.77 219.75,382.59 219.88,411.92 220.05,394.19 220.12,413.79 220.31,421.10 220.38,415.26 220.54,398.73 220.68,389.22 220.77,422.00 220.96,397.84 221.02,408.97 221.20,405.18 221.31,358.58 221.43,408.95 221.60,405.13 221.67,417.11 221.86,388.98 221.94,392.37 222.09,404.06 222.24,343.47 222.32,430.14 222.51,387.94 222.58,389.24 222.75,423.96 222.87,282.76 222.98,411.99 223.16,377.68 223.22,400.21 223.41,417.34 223.49,384.13 223.64,411.65 223.79,363.00 223.87,398.88 224.06,398.52 224.13,399.64 224.30,417.43 224.42,383.46 224.53,414.11 224.71,371.54 224.77,405.94 224.96,402.65 225.05,368.57 225.19,386.89 225.35,359.21 225.43,406.48 225.62,415.43 225.68,397.24 225.85,423.42 225.98,336.17 226.08,415.90 226.26,421.08 226.33,398.51 226.51,425.50 226.61,355.95 226.74,427.29 226.91,358.45 226.98,414.54 227.17,408.84 227.24,378.39 227.40,402.33 227.54,398.27 227.63,414.73 227.82,401.16 227.88,408.89 228.06,422.07 228.16,310.18 228.29,420.06 228.46,368.36 228.53,409.49 228.72,418.41 228.79,381.11 228.95,410.58 229.09,360.04 229.18,389.03 229.37,408.75 229.43,416.02 229.61,405.83 229.72,353.20 229.84,420.66 230.01,381.92 230.08,397.73 230.27,422.75 230.35,370.48 230.50,409.77 230.65,374.48 230.73,417.14 230.92,411.13 230.99,390.38 231.16,417.63 231.28,269.47 231.39,389.97 231.57,397.88 231.63,424.10 231.82,426.63 231.90,377.66 232.05,411.58 232.21,402.46 232.29,413.12 232.47,424.13 232.54,406.16 232.71,402.28 232.83,361.46 232.94,416.17 233.12,401.70 233.19,403.23 233.37,406.32 233.46,403.52 233.60,424.61 233.76,401.69 233.84,387.15 234.03,404.70 234.10,392.78 234.26,397.89 234.39,348.00 234.49,416.10 234.67,417.29 234.74,419.73 234.92,403.08 235.02,363.71 235.15,403.04 235.32,383.60 235.39,412.78 235.58,403.12 235.65,405.94 235.81,415.58 235.95,354.95 236.04,407.73 236.23,421.62 236.29,385.85 236.47,399.17 236.57,412.80 236.70,414.15 236.87,390.85 236.94,404.46 237.13,402.39 237.20,357.56 237.36,408.79 237.50,402.45 237.59,394.16 237.78,410.66 237.84,380.10 238.02,416.83 238.13,296.92 238.25,410.30 238.42,393.96 238.49,406.93 238.68,401.07 238.76,353.43 238.91,420.23 239.06,359.37 239.15,401.29 239.33,423.93 239.40,378.15 239.57,415.78 239.69,334.06 239.80,404.70 239.98,406.32 240.04,428.48 240.23,403.95 240.32,412.08 240.46,408.98 240.62,393.17 240.70,413.26 240.89,413.21 240.95,418.45 241.12,405.95 241.24,379.41 241.35,409.84 241.53,391.14 241.60,421.71 241.78,419.45 241.87,388.47 242.01,398.67 242.17,398.27 242.25,413.35 242.44,431.98 242.51,409.83 242.67,417.88 242.80,345.61 242.90,410.53 243.09,403.86 243.15,428.58 243.33,411.82 243.43,368.30 243.56,405.11 243.73,400.55 243.80,405.13 243.99,419.48 244.06,370.80 244.22,425.27 244.36,393.10 244.45,430.21 244.64,423.21 244.70,411.24 244.88,393.60 244.98,358.91 245.11,403.38 245.28,366.02 245.35,405.76 245.54,423.94 245.62,358.99 245.77,398.72 245.91,309.43 246.01,412.32 246.19,403.80 246.25,408.36 246.43,390.37 246.54,317.38 246.66,424.12 246.83,370.88 246.90,394.27 247.09,411.03 247.17,422.78 247.33,416.84 247.47,354.21 247.56,401.84 247.74,419.56 247.81,391.06 247.98,413.00 248.10,368.60 248.21,404.61 248.39,422.43 248.45,406.82 248.64,390.59 248.73,370.67 248.88,424.63 249.03,380.78 249.11,409.22 249.30,391.68 249.36,401.62 249.53,425.75 249.66,350.88 249.76,402.20 249.94,403.04 250.01,390.44 250.19,405.26 250.28,339.62 250.42,422.27 250.58,393.53 250.66,399.73 250.85,400.69 250.92,377.75 251.09,400.40 251.21,331.24 251.32,428.68 251.50,419.01 251.56,416.55 251.74,409.48 251.84,364.84 251.97,409.06 252.14,410.66 252.21,419.06 252.40,410.15 252.47,419.12 252.64,412.09 252.77,313.07 252.87,406.45 253.05,393.27 253.11,412.22 253.29,405.97 253.39,396.47 253.52,409.64 253.69,395.79 253.76,398.76 253.95,407.02 254.03,413.09 254.19,405.28 254.33,319.42 254.42,425.00 254.60,402.01 254.67,397.73 254.85,419.07 254.95,305.18 255.08,418.95 255.25,419.59 255.31,424.53 255.50,401.50 255.58,390.24 255.74,408.61 255.88,404.41 255.97,419.50 256.15,399.96 256.22,415.15 256.40,422.21 256.51,337.13 256.63,412.04 256.80,409.43 256.87,397.44 257.05,416.92 257.14,419.06 257.29,409.48 257.44,400.59 257.52,419.57 257.71,410.81 257.77,413.63 257.95,406.85 258.07,321.60 258.18,426.62 258.35,409.83 258.42,411.96 258.60,408.98 258.69,382.07 258.84,428.94 258.99,399.22 259.07,418.57 259.26,427.28 259.33,361.92 259.50,417.98 259.62,320.36 259.73,395.13 259.91,418.14 259.97,405.16 260.16,426.82 260.25,381.21 260.39,420.30 260.55,392.99 260.62,422.68 260.81,415.84 260.88,368.85 261.05,407.55 261.18,348.63 261.28,414.40 261.46,420.13 261.52,391.65 261.71,382.91 261.80,402.89 261.94,410.02 262.10,377.77 262.17,425.66 262.36,415.17 262.44,404.93 262.60,411.80 262.74,358.49 262.83,428.17 263.01,382.91 263.08,406.94 263.26,402.03 263.36,363.30 263.49,410.47 263.66,405.20 263.72,408.72 263.91,416.13 263.99,411.59 264.15,409.59 264.29,392.85 264.38,419.40 264.57,411.50 264.63,411.54 264.81,418.00 264.92,309.82 265.04,418.30 265.21,399.20 265.28,418.22 265.46,410.89 265.55,415.04 265.70,406.13 265.85,398.36 265.93,423.49 266.12,412.07 266.18,422.79 266.36,400.42 266.48,279.07 266.59,403.85 266.76,404.51 266.83,412.67 267.02,400.70 267.10,364.08 267.25,415.16 267.40,385.46 267.48,416.74 267.67,425.46 267.74,416.75 267.91,409.87 268.03,377.89 268.14,410.63 268.32,389.33 268.38,396.62 268.57,405.05 268.66,359.87 268.80,416.95 268.96,394.12 269.03,419.62 269.22,405.85 269.29,352.20 269.46,419.78 269.59,343.57 269.69,422.12 269.87,422.23 269.93,378.27 270.12,422.95 270.21,373.77 270.35,414.08 270.51,398.80 270.58,407.70 270.77,409.51 270.85,375.53 271.01,401.70 271.15,341.37 271.24,404.20 271.42,415.06 271.49,414.23 271.67,410.65 271.77,259.10 271.90,399.35 272.07,409.41 272.14,411.14 272.32,414.05 272.40,397.66 272.56,420.53 272.70,378.70 272.79,411.00 272.98,402.94 273.04,393.67 273.22,428.41 273.33,379.61 273.45,405.74 273.62,396.25 273.69,400.99 273.87,400.83 273.96,407.07 274.11,412.60 274.26,415.41 274.34,410.43 274.53,407.55 274.59,395.62 274.77,418.96 274.89,337.67 275.00,426.48 275.17,391.53 275.24,391.85 275.43,399.51 275.51,361.35 275.66,416.13 275.81,356.99 275.89,406.72 276.08,405.02 276.15,398.81 276.32,411.02 276.44,329.72 276.55,416.59 276.73,403.59 276.79,409.89 276.98,414.13 277.07,403.39 277.21,412.67 277.37,368.25 277.44,420.08 277.63,410.46 277.70,406.78 277.87,410.16 278.00,388.91 278.10,418.77 278.28,415.19 278.34,392.27 278.53,409.37 278.63,337.13 278.76,423.56 278.92,380.22 278.99,418.03 279.18,413.79 279.26,410.36 279.42,404.86 279.56,356.29 279.65,412.39 279.83,412.97 279.90,414.83 280.08,429.02 280.18,289.39 280.31,408.22 280.48,403.57 280.55,411.17 280.74,420.49 280.81,400.68 280.97,404.87 281.11,382.19 281.20,395.43 281.39,418.09 281.45,405.66 281.63,407.21 281.74,397.34 281.86,427.25 282.03,388.44 282.10,410.53 282.29,410.33 282.37,388.62 282.52,410.02 282.67,375.85 282.75,398.74 282.94,409.47 283.00,381.11 283.18,419.82 283.30,302.16 283.41,417.94 283.59,410.00 283.65,398.36 283.84,407.66 283.92,409.66 284.07,404.38 284.22,371.82 284.30,407.17 284.49,415.33 284.56,388.13 284.73,421.38 284.85,338.79 284.96,416.51 285.14,382.99 285.20,414.04 285.39,414.08 285.48,339.99 285.62,402.77 285.78,382.23 285.85,415.63 286.04,412.75 286.11,401.26 286.28,419.82 286.41,373.29 286.51,386.87 286.69,405.06 286.76,404.02 286.94,415.37 287.04,323.24 287.17,416.57 287.33,394.30 287.40,421.04 287.59,408.83 287.67,413.82 287.83,388.30 287.97,363.42 288.06,414.40 288.24,392.22 288.31,401.74 288.49,419.38 288.59,380.75 288.72,419.80 288.89,384.54 288.96,410.99 289.15,419.80 289.22,387.28 289.38,413.54 289.52,321.59 289.61,416.95 289.80,386.84 289.86,410.20 290.04,408.17 290.15,265.15 290.27,416.65 290.44,408.60 290.51,419.34 290.70,385.82 290.78,410.20 290.93,394.09 291.08,395.52 291.16,421.52 291.35,391.99 291.42,415.23 291.59,412.13 291.71,362.85 291.82,412.29 292.00,419.82 292.06,381.17 292.25,421.39 292.33,390.15 292.48,408.19 292.63,394.14 292.71,396.18 292.90,410.93 292.97,408.69 293.14,396.02 293.26,337.52 293.37,414.91 293.55,396.91 293.61,415.79 293.80,419.54 293.89,408.25 294.03,419.72 294.19,381.13 294.26,414.55 294.45,414.20 294.52,418.33 294.69,424.32 294.82,400.96 294.92,411.77 295.10,375.76 295.17,400.57 295.35,418.06 295.45,367.33 295.58,408.84 295.74,426.51 295.82,412.38 296.01,423.30 296.08,401.18 296.24,402.31 296.38,368.56 296.47,405.06 296.66,379.49 296.72,424.40 296.90,416.77 297.00,393.92 297.13,404.25 297.30,392.75 297.37,390.28 297.56,415.45 297.63,380.23 297.79,400.71 297.93,379.28 298.02,405.99 298.21,416.93 298.27,403.92 298.45,395.21 298.56,295.36 298.68,414.02 298.85,403.36 298.92,412.64 299.11,398.89 299.19,353.13 299.34,410.50 299.49,368.97 299.57,407.17 299.76,409.31 299.83,407.98 300.00,406.56 300.12,325.28 300.23,418.94 300.41,423.35 300.47,409.99 300.66,428.75 300.74,388.98 300.89,401.85 301.05,379.45 301.12,413.09 301.31,412.38 301.38,379.79 301.55,414.50 301.67,392.72 301.78,414.09 301.96,394.30 302.02,391.78 302.21,399.54 302.30,309.43 302.44,401.03 302.60,382.69 302.68,389.54 302.86,418.58 302.93,404.23 303.10,419.27 303.23,338.97 303.33,407.52 303.51,406.36 303.58,402.89 303.76,403.72 303.86,347.46 303.99,422.41 304.15,388.45 304.23,394.97 304.42,413.62 304.49,367.49 304.65,402.05 304.79,341.84 304.88,420.07 305.07,396.04 305.13,415.40 305.31,417.31 305.41,296.61 305.54,408.79 305.71,411.50 305.78,416.76 305.97,421.65 306.04,413.30 306.20,399.03 306.34,388.58 306.43,407.58 306.62,397.01 306.68,416.83 306.86,417.21 306.97,338.24 307.09,417.50 307.26,398.98 307.33,392.50 307.52,402.41 307.60,391.09 307.75,397.42 307.90,391.32 307.98,425.31 308.17,415.92 308.24,401.71 308.41,414.71 308.53,353.93 308.64,409.80 308.82,410.68 308.88,413.56 309.07,422.90 309.15,384.51 309.30,411.58 309.46,351.01 309.53,418.38 309.72,385.20 309.79,387.49 309.96,412.97 310.09,361.55 310.19,420.53 310.37,391.87 310.43,412.36 310.62,419.62 310.71,371.12 310.85,415.85 311.01,376.47 311.09,424.00 311.28,416.56 311.34,370.21 311.51,407.92 311.64,373.12 311.74,397.35 311.92,400.60 311.99,393.68 312.17,406.66 312.27,356.29 312.40,400.92 312.57,423.71 312.64,415.11 312.83,399.37 312.90,387.05 313.06,419.15 313.20,359.85 313.29,416.39 313.48,416.43 313.54,425.06 313.72,398.99 313.82,393.69 313.95,411.00 314.12,406.86 314.19,415.05 314.38,391.83 314.45,376.40 314.61,416.74 314.75,352.83 314.84,422.36 315.03,402.33 315.09,422.70 315.27,409.58 315.38,398.69 315.50,412.29 315.67,415.80 315.74,414.00 315.93,410.65 316.01,360.35 316.16,407.23 316.31,389.18 316.39,409.41 316.58,409.86 316.65,390.72 316.82,406.86 316.94,282.98 317.05,430.67 317.23,380.80 317.29,410.82 317.48,411.70 317.57,369.14 317.71,408.36 317.87,393.61 317.95,398.76 318.13,416.62 318.20,399.33 318.37,406.54 318.50,295.23 318.60,413.06 318.78,393.60 318.85,412.58 319.03,406.15 319.12,332.56 319.26,417.98 319.42,384.79 319.50,417.08 319.69,424.41 319.76,381.98 319.92,408.73 320.05,286.58 320.15,412.78 320.33,389.80 320.40,399.81 320.58,389.95 320.68,353.13 320.81,406.50 320.98,370.07 321.05,420.52 321.24,414.29 321.31,389.17 321.47,403.38 321.61,291.08 321.70,408.05 321.89,410.11 321.95,393.34 322.13,403.65 322.23,308.94 322.36,398.37 322.53,383.96 322.60,420.48 322.79,401.99 322.86,392.55 323.02,412.27 323.17,370.48 323.25,395.88 323.44,400.48 323.50,395.06 323.68,414.44 323.79,338.18 323.91,409.07 324.08,386.86 324.15,389.20 324.34,428.55 324.42,374.05 324.57,425.66 324.72,379.51 324.80,425.70 324.99,401.82 325.06,387.87 325.23,422.34 325.35,344.85 325.46,413.20 325.64,384.78 325.70,418.19 325.89,420.77 325.98,370.84 326.12,425.09 326.28,393.97 326.36,420.81 326.55,399.24 326.61,386.34 326.78,401.48 326.91,368.04 327.01,415.47 327.19,404.37 327.26,409.42 327.44,407.59 327.53,385.44 327.67,408.28 327.83,364.55 327.91,419.36 328.10,418.04 328.17,412.64 328.33,410.23 328.46,328.03 328.56,409.33 328.75,394.27 328.81,401.31 328.99,402.38 329.09,352.39 329.22,413.94 329.39,394.44 329.46,407.84 329.65,401.84 329.72,414.18 329.88,427.97 330.02,342.77 330.11,404.69 330.30,398.77 330.36,419.85 330.54,410.38 330.64,391.88 330.77,405.47 330.94,410.53 331.01,409.64 331.20,401.57 331.28,393.43 331.43,414.76 331.58,305.31 331.66,424.48 331.85,411.54 331.91,386.36 332.09,414.04 332.20,330.55 332.32,388.87 332.50,384.03 332.56,421.90 332.75,392.24 332.83,422.31 332.98,415.37 333.13,340.46 333.22,405.42 333.40,410.78 333.47,399.62 333.64,417.28 333.76,302.64 333.87,408.14 334.05,376.30 334.11,400.09 334.30,409.76 334.39,405.25 334.53,418.40 334.69,370.84 334.77,420.18 334.96,415.87 335.02,404.55 335.19,387.96 335.32,250.89 335.42,419.83 335.60,404.62 335.67,385.42 335.85,397.74 335.94,361.79 336.08,390.45 336.24,397.79 336.32,415.93 336.51,424.23 336.58,392.14 336.75,406.07 336.87,337.76 336.97,413.34 337.16,404.46 337.22,391.80 337.40,406.58 337.50,309.08 337.63,402.60 337.80,380.81 337.87,414.03 338.06,402.82 338.13,336.21 338.30,409.71 338.43,346.38 338.53,413.34 338.71,401.06 338.77,415.45 338.95,422.08 339.06,389.43 339.18,394.71 339.35,407.12 339.42,400.50 339.61,411.58 339.69,416.28 339.85,394.55 339.99,335.33 340.08,392.97 340.26,395.14 340.33,402.67 340.51,424.40 340.61,331.65 340.73,423.54 340.91,397.71 340.97,411.95 341.16,383.86 341.24,386.04 341.39,422.31 341.54,389.34 341.63,419.08 341.81,406.32 341.88,382.58 342.06,415.56 342.17,348.92 342.28,420.12 342.46,407.43 342.53,421.39 342.71,401.66 342.80,388.15 342.94,429.06 343.10,403.66 343.18,389.59 343.37,393.20 343.43,407.04 343.61,404.78 343.73,330.99 343.84,402.95 344.01,399.33 344.08,399.12 344.26,394.47 344.35,332.39 344.50,416.38 344.65,390.05 344.73,406.28 344.92,392.05 344.99,381.56 345.16,412.12 345.28,309.22 345.39,409.16 345.57,399.35 345.63,418.75 345.82,397.05 345.91,309.86 346.05,403.72 346.21,382.26 346.28,418.48 346.47,394.84 346.54,394.87 346.71,387.29 346.84,300.95 346.94,416.98 347.12,409.08 347.18,399.69 347.37,407.71 347.47,318.11 347.60,394.15 347.76,372.88 347.83,399.45 348.02,397.92 348.10,354.97 348.26,415.28 348.40,320.34 348.49,425.17 348.67,393.83 348.74,400.82 348.92,414.41 349.02,355.66 349.15,411.61 349.32,396.65 349.38,406.75 349.57,406.66 349.65,402.30 349.81,410.95 349.95,355.66 350.04,389.91 350.22,415.31 350.29,396.57 350.47,408.26 350.58,277.52 350.70,405.21 350.87,377.23 350.94,411.36 351.12,423.06 351.21,374.62 351.36,403.72 351.51,404.99 351.59,412.87 351.78,397.37 351.84,421.17 352.02,403.44 352.14,353.09 352.25,415.75 352.42,403.09 352.49,414.31 352.67,399.24 352.76,328.02 352.91,407.67 353.06,400.74 353.14,429.17 353.33,418.34 353.40,357.86 353.57,410.19 353.69,356.60 353.80,395.10 353.98,397.29 354.04,395.90 354.23,378.38 354.32,367.21 354.46,419.49 354.62,413.57 354.69,410.64 354.88,415.08 354.95,384.86 355.12,404.89 355.25,303.80 355.35,405.98 355.53,389.17 355.59,392.12 355.78,424.38 355.88,362.47 356.01,413.42 356.17,359.19 356.24,392.95 356.43,419.84 356.51,400.52 356.67,414.36 356.81,356.10 356.90,399.74 357.08,404.10 357.15,395.62 357.33,405.96 357.43,300.54 357.56,414.92 357.73,405.26 357.79,418.22 357.98,411.66 358.06,349.67 358.22,419.25 358.36,370.23 358.45,419.87 358.64,400.41 358.70,404.87 358.88,412.75 358.99,364.87 359.11,408.24 359.28,391.80 359.35,400.45 359.54,399.69 359.62,392.70 359.77,411.71 359.92,398.25 360.00,421.99 360.19,408.92 360.25,400.39 360.43,418.26 360.55,378.50 360.66,406.51 360.84,397.23 360.90,409.45 361.09,419.27 361.17,363.94 361.32,392.19 361.47,387.04 361.55,401.70 361.74,417.42 361.81,370.94 361.98,424.16 362.10,359.34 362.21,411.72 362.39,388.99 362.45,408.28 362.64,421.19 362.73,290.91 362.87,398.96 363.03,394.58 363.10,404.10 363.29,400.88 363.36,398.14 363.53,391.76 363.66,427.19 363.76,419.68 363.94,413.69 364.00,394.53 364.19,406.60 364.29,332.15 364.42,409.87 364.58,398.96 364.65,407.91 364.84,399.38 364.92,355.95 365.08,411.07 365.22,348.41 365.31,404.84 365.49,419.58 365.56,396.45 365.74,400.24 365.84,376.01 365.97,405.47 366.14,408.14 366.21,427.69 366.39,395.40 366.47,389.75 366.63,425.35 366.77,347.16 366.86,420.58 367.05,393.17 367.11,373.91 367.29,397.11 367.40,371.82 367.52,404.04 367.69,410.07 367.76,419.98 367.95,403.47 368.03,416.10 368.18,421.63 368.33,398.75 368.41,400.44 368.60,389.14 368.67,390.59 368.84,394.97 368.96,401.27 369.07,411.57 369.25,420.48 369.31,418.37 369.50,410.67 369.58,386.85 369.73,403.90 369.88,385.75 369.96,408.83 370.15,411.57 370.22,412.47 370.39,425.12 370.51,341.04 370.62,426.33 370.80,394.64 370.86,409.16 371.05,403.53 371.14,362.08 371.28,410.18 371.44,384.32 371.51,407.72 371.70,414.77 371.77,386.77 371.94,402.33 372.07,315.32 372.17,428.69 372.35,383.37 372.42,417.52 372.60,412.91 372.70,406.73 372.83,429.14 372.99,394.75 373.06,429.11 373.25,398.12 373.33,386.20 373.49,408.92 373.63,356.07 373.72,417.28 373.90,418.72 373.97,392.90 374.15,408.94 374.25,387.08 374.38,417.55 374.55,384.80 374.62,400.77 374.81,410.08 374.88,374.76 375.04,413.70 375.18,375.25 375.27,391.92 375.46,403.54 375.52,420.24 375.70,410.00 375.81,334.15 375.93,410.51 376.10,408.11 376.17,416.39 376.36,406.50 376.44,405.63 376.59,424.32 376.74,388.09 376.82,388.91 377.01,403.99 377.08,396.75 377.25,415.98 377.37,344.65 377.48,398.16 377.66,416.72 377.72,393.18 377.91,414.67 377.99,337.00 378.14,402.24 378.30,354.54 378.37,414.31 378.56,414.48 378.63,404.45 378.80,400.77 378.93,315.10 379.03,413.14 379.21,413.14 379.27,420.93 379.46,402.81 379.55,320.66 379.69,408.63 379.85,401.00 379.92,423.89 380.11,390.90 380.18,392.53 380.35,382.18 380.48,358.49 380.58,407.75 380.76,415.51 380.83,390.89 381.01,408.27 381.11,385.71 381.24,417.31 381.40,395.35 381.48,406.83 381.67,415.11 381.74,404.63 381.90,401.00 382.04,281.85 382.13,412.02 382.32,396.71 382.38,402.18 382.56,398.65 382.66,361.81 382.79,412.83 382.96,416.57 383.03,417.09 383.22,420.63 383.29,419.33 383.45,427.53 383.59,388.01 383.68,404.71 383.87,407.62 383.93,419.52 384.11,397.87 384.22,346.13 384.34,426.27 384.51,405.91 384.58,421.06 384.77,400.68 384.85,366.58 385.00,400.81 385.15,392.08 385.23,414.40 385.42,417.72 385.49,396.06 385.66,409.30 385.78,326.83 385.89,429.47 386.07,405.57 386.13,393.87 386.32,423.77 386.41,390.92 386.55,420.88 386.71,388.85 386.78,411.90 386.97,393.95 387.04,421.44 387.21,422.33 387.34,326.95 387.44,401.73 387.62,411.70 387.68,387.23 387.87,401.99 387.96,363.25 388.10,399.52 388.26,362.85 388.33,402.45 388.52,404.21 388.59,405.53 388.76,420.08 388.89,298.26 388.99,408.05 389.17,388.80 389.24,393.62 389.42,401.99 389.52,325.24 389.65,419.03 389.82,410.65 389.89,422.85 390.08,412.14 390.15,404.68 390.31,408.87 390.45,347.18 390.54,401.37 390.73,419.41 390.79,398.35 390.97,423.89 391.07,362.80 391.20,413.40 391.37,411.59 391.44,396.75 391.63,411.48 391.70,416.52 391.86,411.76 392.01,358.62 392.09,410.07 392.28,411.36 392.34,383.10 392.52,412.18 392.63,358.49 392.75,421.84 392.92,403.25 392.99,423.65 393.18,400.54 393.26,360.48 393.41,406.38 393.56,359.12 393.64,413.58 393.83,406.17 393.90,395.84 394.07,409.17 394.19,354.65 394.30,409.71 394.48,382.77 394.54,405.71 394.73,400.34 394.82,372.29 394.96,395.43 395.12,392.01 395.19,425.95 395.38,404.43 395.45,397.03 395.62,406.93 395.75,372.24 395.85,421.45 396.03,399.58 396.09,408.06 396.28,413.17 396.37,372.37 396.51,411.30 396.67,403.66 396.75,409.12 396.94,393.08 397.01,390.24 397.17,411.67 397.30,318.60 397.40,413.49 397.58,382.72 397.65,388.01 397.83,401.04 397.93,344.45 398.06,428.89 398.23,388.79 398.30,414.27 398.49,404.32 398.56,395.83 398.72,414.67 398.86,395.69 398.95,429.34 399.14,419.28 399.20,411.09 399.38,410.42 399.48,401.24 399.61,408.64 399.78,409.32 399.85,410.61 400.04,414.96 400.12,396.91 400.27,421.43 400.42,361.14 400.50,407.13 400.69,413.62 400.75,394.03 400.93,427.37 401.04,372.98 401.16,417.75 401.33,390.32 401.40,423.09 401.59,394.25 401.67,362.76 401.82,413.87 401.97,379.29 402.05,415.80 402.24,409.83 402.31,419.16 402.48,403.96 402.60,345.58 402.71,416.12 402.89,384.66 402.95,410.13 403.14,404.70 403.23,360.20 403.37,427.81 403.53,408.52 403.61,422.40 403.79,420.88 403.86,395.23 404.03,415.26 404.16,336.60 404.26,416.86 404.44,424.09 404.51,417.54 404.69,408.49 404.78,371.11 404.92,413.42 405.08,410.33 405.16,407.89 405.35,408.39 405.42,408.39 405.58,392.92 405.71,410.69 405.81,424.52 405.99,423.52 406.06,410.15 406.24,415.23 406.34,364.23 406.47,402.15 406.64,384.66 406.71,404.15 406.90,414.43 406.97,395.09 407.13,401.50 407.27,349.01 407.36,424.78 407.55,413.21 407.61,413.80 407.79,418.13 407.90,361.81 408.02,412.66 408.19,412.81 408.26,402.77 408.45,414.47 408.53,381.08 408.68,420.48 408.83,378.67 408.91,402.92 409.10,422.52 409.16,402.05 409.34,402.36 409.45,361.74 409.57,407.03 409.75,402.99 409.81,419.35 410.00,400.98 410.08,403.62 410.23,417.69 410.38,392.07 410.46,426.90 410.65,414.87 410.72,408.19 410.89,403.71 411.01,317.15 411.12,407.61 411.30,412.34 411.36,392.72 411.55,419.06 411.64,386.30 411.78,416.08 411.94,401.43 412.02,414.35 412.21,412.65 412.27,397.76 412.44,409.20 412.57,370.88 412.67,400.80 412.85,393.02 412.92,386.96 413.10,420.94 413.19,387.93 413.33,409.87 413.49,407.20 413.57,415.98 413.76,427.21 413.83,421.06 413.99,414.63 414.12,335.05 414.22,394.80 414.41,408.93 414.47,418.98 414.65,413.62 414.75,336.55 414.88,403.33 415.05,362.26 415.12,404.97 415.31,407.89 415.38,390.20 415.54,410.15 415.68,385.01 415.77,427.85 415.96,397.25 416.02,414.42 416.20,420.02 416.31,348.47 416.43,409.60 416.60,409.73 416.67,392.21 416.86,401.65 416.94,395.67 417.09,415.47 417.24,353.45 417.33,412.32 417.51,400.09 417.58,414.38 417.75,395.05 417.86,342.53 417.98,414.03 418.16,406.11 418.22,426.64 418.41,419.51 418.49,406.10 418.64,429.30 418.79,371.51 418.88,405.65 419.06,414.15 419.13,396.08 419.30,417.14 419.42,354.01 419.53,422.14 419.71,418.14 419.77,414.38 419.96,405.03 420.05,355.48 420.19,391.02 420.35,376.24 420.43,418.43 420.62,399.86 420.68,378.75 420.85,423.35 420.98,327.59 421.08,420.03 421.26,402.79 421.33,400.73 421.51,393.42 421.60,414.00 421.74,389.41 421.90,406.85 421.98,414.14 422.17,406.61 422.24,420.88 422.40,408.25 422.53,334.90 422.63,405.74 422.82,421.95 422.88,391.76 423.06,425.94 423.16,394.49 423.29,411.39 423.46,391.58 423.53,414.05 423.72,407.84 423.79,410.04 423.95,414.13 424.09,307.80 424.18,411.40 424.37,404.36 424.43,425.98 424.61,402.35 424.72,339.15 424.84,420.57 425.01,395.35 425.08,417.34 425.27,413.30 425.35,381.92 425.50,414.42 425.65,367.11 425.74,412.23 425.92,402.58 425.99,392.20 426.16,416.17 426.27,387.05 426.39,423.50 426.57,409.23 426.63,401.93 426.82,410.05 426.90,383.10 427.05,401.98 427.20,384.05 427.29,396.63 427.47,414.92 427.54,392.88 427.71,409.02 427.83,388.39 427.94,417.18 428.12,385.07 428.19,395.11 428.37,421.53 428.46,350.94 428.60,412.59 428.76,397.43 428.84,414.58 429.03,399.33 429.09,370.73 429.27,412.47 429.39,271.28 429.49,429.07 429.67,414.15 429.74,409.74 429.92,413.46 430.01,340.21 430.15,410.90 430.31,370.55 430.39,402.59 430.58,423.00 430.65,398.74 430.81,421.86 430.94,343.60 431.04,407.59 431.23,417.96 431.29,405.57 431.47,424.99 431.57,309.09 431.70,430.51 431.87,414.79 431.94,422.26 432.13,404.14 432.20,361.94 432.36,411.19 432.50,378.34 432.60,413.73 432.78,421.07 432.84,400.52 433.02,418.78 433.13,331.88 433.25,410.57 433.42,406.65 433.49,396.10 433.68,395.54 433.76,375.22 433.92,403.60 434.06,399.72 434.15,413.61 434.33,395.55 434.40,396.84 434.58,418.54 434.68,347.42 434.80,418.55 434.98,395.85 435.04,407.75 435.23,423.71 435.31,398.49 435.47,406.19 435.61,401.73 435.70,414.87 435.88,413.82 435.95,369.15 436.13,410.22 436.24,309.50 436.35,405.08 436.53,381.07 436.60,409.22 436.78,405.11 436.87,407.61 437.02,418.94 437.17,406.83 437.25,402.29 437.44,410.66 437.50,397.49 437.68,403.64 437.80,316.03 437.91,413.03 438.08,415.36 438.15,418.39 438.33,410.48 438.42,355.14 438.57,391.57 438.72,376.48 438.80,392.47 438.99,417.11 439.06,400.55 439.23,417.48 439.36,341.15 439.46,420.41 439.64,410.29 439.70,410.26 439.88,415.62 439.98,355.37 440.12,404.12 440.28,392.70 440.35,405.23 440.54,414.78 440.61,373.60 440.78,412.30 440.91,331.76 441.01,417.84 441.19,407.14 441.25,424.64 441.44,412.95 441.54,242.74 441.67,422.78 441.83,387.60 441.90,407.26 442.09,413.24 442.17,396.16 442.33,411.27 442.47,425.27 442.56,404.18 442.74,396.60 442.81,412.37 442.99,426.62 443.09,363.40 443.22,415.53 443.39,407.26 443.45,414.80 443.64,403.83 443.72,404.46 443.88,423.37 444.02,379.62 444.11,399.65 444.30,400.74 444.36,409.14 444.54,384.47 444.65,361.79 444.77,401.78 444.94,359.74 445.01,402.99 445.19,398.34 445.28,382.61 445.43,418.79 445.58,387.31 445.66,397.75 445.85,408.73 445.92,394.34 446.09,417.55 446.21,345.70 446.32,399.60 446.50,403.38 446.56,400.15 446.75,393.86 446.83,331.44 446.98,408.06 447.13,401.93 447.21,401.92 447.40,395.61 447.47,388.99 447.64,399.85 447.77,338.29 447.87,409.53 448.05,413.12 448.11,390.72 448.30,402.60 448.39,295.57 448.53,402.48 448.69,414.64 448.76,407.33 448.95,406.13 449.02,388.97 449.19,418.23 449.32,361.01 449.42,416.64 449.60,415.87 449.67,420.72 449.85,406.49 449.95,335.72 450.08,411.49 450.24,425.16 450.31,406.06 450.50,400.14 450.58,417.51 450.74,411.92 450.88,341.66 450.97,399.61 451.15,393.72 451.22,389.12 451.40,411.28 451.50,322.28 451.63,409.27 451.80,406.91 451.87,424.22 452.05,392.90 452.13,390.00 452.29,401.79 452.43,369.24 452.52,418.19 452.71,404.78 452.77,365.36 452.95,405.65 453.06,326.33 453.18,419.14 453.35,424.37 453.42,408.12 453.61,409.12 453.69,355.23 453.84,409.74 453.99,406.36 454.07,412.46 454.26,404.60 454.33,382.86 454.50,421.41 454.62,339.48 454.73,420.56 454.91,410.27 454.97,405.32 455.16,424.91 455.25,331.96 455.39,411.63 455.55,396.40 455.62,413.89 455.81,414.88 455.88,415.26 456.05,413.83 456.18,387.24 456.28,419.49 456.46,392.47 456.52,424.73 456.71,415.90 456.80,316.69 456.94,402.54 457.10,384.81 457.17,409.42 457.36,421.59 457.43,390.42 457.60,422.96 457.73,393.91 457.83,415.07 458.01,416.18 458.08,421.33 458.26,403.45 458.36,391.94 458.49,414.74 458.65,410.74 458.72,411.27 458.91,407.89 458.99,352.36 459.15,410.69 459.29,360.20 459.38,413.95 459.56,386.85 459.63,384.84 459.81,411.85 459.91,277.13 460.04,418.83 460.21,413.52 460.28,392.72 460.47,386.07 460.54,385.81 460.70,406.31 460.84,374.89 460.93,406.52 461.12,383.32 461.18,399.76 461.36,409.51 461.47,330.68 461.59,409.24 461.76,400.40 461.83,405.09 462.02,396.37 462.10,380.57 462.25,412.10 462.40,389.65 462.48,401.94 462.67,401.12 462.74,379.47 462.91,419.66 463.03,375.50 463.14,419.07 463.32,381.11 463.38,411.81 463.57,414.63 463.66,378.14 463.80,409.75 463.96,404.24 464.03,405.78 464.22,407.01 464.29,424.01 464.46,425.19 464.59,294.46 464.69,402.56 464.87,426.01 464.93,423.78 465.12,403.34 465.21,392.61 465.35,406.40 465.51,406.76 465.58,403.14 465.77,414.60 465.84,416.01 466.01,401.20 466.14,331.31 466.24,401.58 466.42,389.59 466.49,420.73 466.67,408.33 466.77,321.16 466.90,411.92 467.07,394.26 467.13,429.34 467.32,427.16 467.40,393.45 467.56,414.51 467.70,295.21 467.79,410.04 467.98,406.61 468.04,393.77 468.22,415.00 468.33,321.45 468.45,400.86 468.62,402.60 468.69,415.12 468.88,400.95 468.95,404.85 469.11,406.52 469.26,389.42 469.34,419.04 469.53,422.39 469.59,418.62 469.77,399.39 469.88,321.69 470.00,420.84 470.17,399.93 470.24,406.80 470.43,408.34 470.51,363.14 470.66,409.68 470.81,383.89 470.89,408.25 471.08,417.85 471.15,399.84 471.32,406.91 471.44,364.13 471.55,414.10 471.73,397.96 471.79,398.69 471.98,418.76 472.07,373.19 472.21,430.97 472.37,426.96 472.44,420.04 472.63,404.65 472.70,405.95 472.87,427.48 473.00,410.76 473.10,421.43 473.28,395.63 473.34,416.45 473.53,422.17 473.62,362.10 473.76,424.78 473.92,385.53 473.99,414.54 474.18,417.07 474.26,398.03 474.42,406.78 474.55,380.80 474.65,399.44 474.83,409.00 474.90,403.74 475.08,416.05 475.18,346.84 475.31,409.67 475.48,420.88 475.55,425.81 475.74,426.73 475.81,338.25 475.97,393.68 476.11,390.14 476.20,390.36 476.39,405.07 476.45,386.46 476.63,407.82 476.74,374.06 476.86,404.61 477.03,389.53 477.10,420.95 477.29,411.54 477.37,379.97 477.52,397.31 477.67,371.77 477.75,417.25 477.94,401.88 478.00,416.28 478.18,423.09 478.29,341.68 478.41,423.83 478.58,389.59 478.65,415.47 478.84,398.01 478.92,375.15 479.07,415.15 479.22,401.85 479.30,410.47 479.49,408.89 479.56,411.08 479.73,430.46 479.85,419.06 479.96,407.46 480.14,415.75 480.20,403.86 480.39,418.55 480.48,358.08 480.62,419.33 480.78,379.66 480.85,419.11 481.04,408.15 481.11,420.55 481.28,422.20 481.41,385.36 481.51,408.93 481.69,421.73 481.75,395.78 481.94,425.39 482.03,285.03 482.17,410.37 482.33,375.35 482.40,416.17 482.59,414.99 482.67,374.95 482.83,421.75 482.96,347.15 483.06,406.95 483.24,408.41 483.31,423.23 483.49,405.41 483.59,350.23 483.72,418.20 483.89,396.26 483.96,426.82 484.15,403.30 484.22,351.63 484.38,427.33 484.52,346.82 484.61,426.13 484.80,414.30 484.86,375.29 485.04,406.90 485.15,355.91 485.27,406.53 485.44,369.13 485.51,387.07 485.70,408.29 485.78,379.00 485.93,413.60 486.08,363.25 486.16,404.27 486.35,419.85 486.41,371.67 486.59,404.30 486.70,324.36 486.82,418.41 487.00,390.74 487.06,399.99 487.25,413.54 487.33,390.55 487.48,407.96 487.63,407.94 487.71,410.94 487.90,393.94 487.97,410.88 488.14,384.64 488.26,352.46 488.37,407.92 488.55,413.56 488.61,405.74 488.80,406.18 488.89,339.99 489.03,418.60 489.19,408.04 489.26,393.95 489.45,409.25 489.52,387.58 489.69,407.05 489.82,386.01 489.92,424.07 490.10,386.77 490.17,417.51 490.35,411.49 490.44,315.70 490.58,408.26 490.74,377.67 490.82,402.96 491.01,401.30 491.08,374.47 491.24,423.66 491.37,376.80 491.47,426.25 491.66,408.76 491.72,404.58 491.90,415.12 492.00,284.65 492.13,426.89 492.30,388.82 492.37,404.05 492.56,419.41 492.63,369.56 492.79,420.24 492.93,292.08 493.02,414.19 493.21,422.11 493.27,404.41 493.45,416.09 493.56,334.67 493.68,421.76 493.85,417.94 493.92,429.71 494.11,405.94 494.19,397.11 494.34,415.41 494.49,403.82 494.57,427.15 494.76,412.13 494.82,370.32 495.00,419.88 495.11,410.29 495.23,412.41 495.41,392.15 495.47,391.08 495.66,403.97 495.74,415.01 495.89,402.21 496.04,371.08 496.12,426.82 496.31,414.43 496.38,397.46 496.55,397.72 496.67,377.74 496.78,397.59 496.96,388.31 497.02,400.15 497.21,398.42 497.30,421.56 497.44,420.61 497.60,407.23 497.68,403.02 497.86,402.52 497.93,389.51 498.10,414.25 498.23,368.76 498.33,425.13 498.51,413.44 498.58,404.33 498.76,409.37 498.85,382.89 498.99,403.85 499.15,396.55 499.23,419.59 499.42,421.88 499.49,346.61 499.65,421.85 499.79,399.27 499.88,412.72 500.07,389.70 500.13,403.58 500.31,407.51 500.41,341.95 500.54,417.27 500.71,387.26 500.78,408.24 500.97,414.62 501.04,372.70 501.20,411.21 501.34,370.59 501.43,400.07 501.62,370.90 501.68,383.87 501.86,407.90 501.97,352.65 502.09,416.24 502.26,399.76 502.33,419.16 502.52,410.21 502.60,394.54 502.75,422.79 502.90,403.68 502.98,418.22 503.17,418.99 503.24,387.77 503.41,410.97 503.52,293.95 503.64,402.99 503.82,384.17 503.88,425.32 504.07,414.16 504.15,393.22 504.30,416.32 504.45,351.77 504.54,405.54 504.72,406.60 504.79,403.10 504.96,418.27 505.08,358.25 505.19,421.31 505.37,424.59 505.43,396.87 505.62,405.56 505.71,373.42 505.85,387.66 506.01,348.31 506.09,408.05 506.28,413.87 506.34,407.43 506.51,397.80 506.64,367.27 506.74,427.29 506.92,401.05 506.99,413.63 507.17,412.73 507.26,290.64 507.40,401.44 507.56,418.17 507.64,407.73 507.83,418.49 507.90,415.30 508.06,418.04 508.20,305.55 508.29,418.64 508.48,398.76 508.54,406.27 508.72,401.38 508.82,386.26 508.95,423.03 509.12,398.71 509.19,417.75 509.38,413.09 509.45,402.80 509.61,412.33 509.75,338.49 509.84,409.49 510.03,421.63 510.09,398.03 510.27,409.99 510.38,354.01 510.50,411.67 510.67,413.70 510.74,418.69 510.93,405.19 511.01,361.25 511.16,419.58 511.31,384.59 511.39,409.21 511.58,415.77 511.65,403.55 511.82,426.55 511.93,350.47 512.05,403.57 512.23,412.20 512.29,422.53 512.48,423.40 512.56,390.70 512.71,408.93 512.86,397.59 512.95,414.86 513.13,410.57 513.20,396.85 513.37,404.71 513.49,348.69 513.60,427.85 513.78,402.14 513.85,396.72 514.03,422.21 514.12,366.59 514.26,401.53 514.42,368.32 514.50,408.76 514.69,401.78 514.75,415.03 514.92,416.60 515.05,342.30 515.15,419.66 515.33,397.74 515.40,407.93 515.58,413.26 515.67,383.89 515.81,404.24 515.97,406.34 516.05,416.47 516.24,415.17 516.31,406.92 516.47,422.43 516.61,365.67 516.70,410.70 516.89,415.12 516.95,427.32 517.13,393.10 517.23,356.07 517.36,416.32 517.53,421.64 517.60,405.82 517.79,417.74 517.86,400.74 518.03,417.07 518.16,361.75 518.26,408.21 518.44,416.15 518.50,423.41 518.68,419.84 518.79,396.97 518.91,405.61 519.08,422.25 519.15,412.12 519.34,418.40 519.42,346.94 519.58,415.10 519.72,367.22 519.81,414.95 519.99,400.54 520.06,396.50 520.23,411.89 520.34,393.96 520.46,417.11 520.64,377.47 520.70,408.35 520.89,411.72 520.97,391.12 521.12,411.21 521.27,369.61 521.36,421.90 521.55,395.46 521.61,393.08 521.79,422.97 521.90,367.02 522.02,412.82 522.19,405.50 522.26,415.64 522.44,416.66 522.53,336.25 522.67,420.82 522.83,408.68 522.91,406.27 523.10,407.22 523.16,408.34 523.34,412.83 523.46,350.04 523.57,404.06 523.74,417.15 523.81,393.64 523.99,415.07 524.09,358.64 524.22,414.01 524.38,359.53 524.46,415.06 524.65,407.41 524.72,412.31 524.89,415.47 525.02,384.88 525.12,414.19 525.30,390.90 525.36,409.64 525.55,424.59 525.64,266.39 525.78,409.36 525.94,373.50 526.01,392.98 526.20,400.48 526.27,396.73 526.44,415.77 526.57,325.38 526.67,419.64 526.85,427.20 526.91,421.50 527.10,403.62 527.20,261.78 527.33,422.34 527.49,414.05 527.56,398.27 527.75,414.48 527.83,404.06 527.99,406.97 528.13,370.07 528.22,402.92 528.40,394.11 528.47,419.73 528.65,419.07 528.76,350.86 528.88,429.21 529.05,413.77 529.11,392.40 529.30,427.76 529.38,400.18 529.54,422.52 529.68,375.01 529.77,400.81 529.96,410.15 530.02,394.11 530.20,411.61 530.31,316.63 530.43,417.94 530.60,398.18 530.67,412.34 530.85,427.32 530.94,376.19 531.09,417.13 531.24,398.11 531.32,418.53 531.51,421.13 531.58,382.53 531.75,427.40 531.87,343.41 531.98,426.30 532.16,405.63 532.22,389.39 532.41,416.74 532.50,338.42 532.64,425.06 532.80,377.98 532.87,419.98 533.06,415.72 533.13,383.10 533.30,411.70 533.43,383.86 533.53,428.36 533.71,409.40 533.77,394.37 533.96,430.65 534.05,304.66 534.19,409.04 534.35,405.09 534.42,419.47 534.61,405.40 534.68,374.46 534.85,403.14 534.98,388.50 535.08,401.75 535.26,407.90 535.33,420.37 535.51,402.36 535.61,358.76 535.74,406.79 535.90,373.71 535.97,401.54 536.16,408.63 536.24,366.55 536.40,421.21 536.54,344.00 536.63,417.86 536.81,413.98 536.88,401.34 537.06,415.02 537.17,357.77 537.29,427.67 537.46,389.19 537.53,403.78 537.71,408.05 537.79,399.23 537.95,412.42 538.10,385.73 538.18,398.27 538.37,402.15 538.43,376.79 538.61,412.38 538.72,362.52 538.84,418.08 539.01,424.00 539.08,415.52 539.26,416.99 539.35,351.67 539.50,401.18 539.65,385.37 539.73,379.86 539.92,404.49 539.99,422.99 540.16,403.14 540.28,294.43 540.39,418.87 540.57,402.06 540.63,399.47 540.82,419.98 540.91,324.22 541.05,413.19 541.21,383.53 541.28,415.90 541.47,405.49 541.54,423.73 541.71,413.12 541.84,354.64 541.94,401.22 542.12,375.63 542.18,402.61 542.37,395.04 542.46,314.76 542.60,397.20 542.76,347.93 542.83,404.14 543.02,421.60 543.09,369.93 543.26,416.07 543.39,395.34 543.49,403.50 543.67,398.11 543.74,403.62 543.92,420.00 544.02,364.47 544.15,420.53 544.32,387.33 544.38,398.74 544.57,398.00 544.65,420.41 544.81,406.07 544.95,364.30 545.04,415.10 545.22,415.59 545.29,404.38 545.47,414.00 545.58,240.41 545.70,423.96 545.87,354.64 545.94,409.77 546.13,401.16 546.20,409.79 546.36,414.61 546.51,401.50 546.59,403.65 546.78,408.91 546.84,412.34 547.02,421.45 547.13,415.80 547.25,413.42 547.42,413.37 547.49,431.35 547.68,406.44 547.76,374.83 547.91,424.34 548.06,385.73 548.14,414.48 548.33,392.92 548.40,403.40 548.57,414.10 548.69,393.20 548.80,418.84 548.98,402.58 549.04,404.50 549.23,414.34 549.32,328.50 549.46,420.75 549.62,394.47 549.69,406.54 549.88,421.32 549.95,415.91 550.12,395.92 550.25,398.59 550.35,407.58 550.53,397.51 550.59,419.33 550.78,405.64 550.87,324.67 551.01,425.47 551.17,396.65 551.24,409.62 551.43,412.83 551.51,396.87 551.67,409.56 551.80,399.52 551.90,389.65 552.08,398.26 552.15,421.47 552.33,411.58 552.43,359.97 552.56,419.59 552.73,421.38 552.80,399.86 552.98,423.24 553.06,396.47 553.22,415.40 553.36,325.74 553.45,428.74 553.64,397.71 553.70,397.79 553.88,404.67 553.99,389.73 554.11,417.70 554.28,424.53 554.35,401.95 554.54,428.98 554.62,421.13 554.77,412.38 554.92,401.09 555.00,410.99 555.19,409.03 555.25,398.25 555.43,408.84 555.54,363.60 555.66,418.54 555.83,396.15 555.90,405.12 556.09,416.01 556.17,403.24 556.32,389.49 556.47,372.60 556.55,410.08 556.74,420.69 556.81,372.98 556.98,419.34 557.10,339.58 557.21,406.55 557.39,393.26 557.45,405.41 557.64,426.91 557.73,354.31 557.87,403.69 558.03,389.15 558.10,418.79 558.29,420.91 558.36,392.68 558.53,406.71 558.66,378.18 558.76,384.28 558.94,393.54 559.00,377.54 559.19,401.36 559.28,371.28 559.42,401.83 559.58,397.92 559.65,423.39 559.84,428.65 559.92,410.88 560.08,417.11 560.21,313.84 560.31,403.08 560.49,387.05 560.56,417.81 560.74,399.68 560.84,309.79 560.97,403.51 561.14,371.63 561.21,420.46 561.40,425.08 561.47,377.38 561.63,403.94 561.77,381.94 561.86,429.37 562.05,417.78 562.11,405.60 562.29,413.47 562.40,350.57 562.52,401.70 562.69,401.74 562.76,418.13 562.95,401.71 563.03,426.10 563.18,403.91 563.33,360.71 563.41,421.36 563.60,387.88 563.66,382.51 563.84,414.16 563.95,367.62 564.07,397.24 564.24,391.46 564.31,414.29 564.50,410.33 564.58,402.91 564.73,413.62 564.88,413.36 564.96,400.00 565.15,413.46 565.22,413.23 565.39,404.39 565.51,308.55 565.62,415.10 565.80,397.24 565.86,405.64 566.05,427.97 566.14,336.72 566.28,408.62 566.44,380.95 566.51,406.94 566.70,424.62 566.77,418.39 566.94,417.28 567.07,306.81 567.17,414.74 567.35,415.29 567.41,420.75 567.60,416.24 567.69,341.99 567.83,415.06 567.99,418.84 568.07,419.29 568.25,414.35 568.33,419.17 568.49,412.39 568.63,342.50 568.72,399.11 568.90,413.73 568.97,398.66 569.15,415.21 569.25,397.17 569.38,416.75 569.55,396.37 569.62,409.24 569.81,420.69 569.88,366.91 570.04,411.13 570.18,369.91 570.27,426.10 570.46,418.73 570.52,398.29 570.70,399.86 570.81,406.52 570.93,421.97 571.10,420.52 571.17,394.11 571.36,405.37 571.44,418.79 571.59,407.34 571.74,347.58 571.82,411.76 572.01,419.45 572.07,419.85 572.25,414.06 572.36,297.43 572.48,427.74 572.66,418.23 572.72,412.12 572.91,425.01 572.99,418.69 573.14,401.30 573.29,409.42 573.37,416.94 573.56,414.18 573.63,398.43 573.80,416.79 573.92,309.23 574.03,421.36 574.21,422.21 574.27,399.10 574.46,420.75 574.55,336.36 574.69,406.64 574.85,393.57 574.92,408.92 575.11,404.02 575.18,374.46 575.35,401.54 575.48,351.57 575.58,411.70 575.76,408.34 575.83,410.48 576.01,401.15 576.10,379.59 576.24,417.06 576.40,393.87 576.48,413.47 576.67,394.70 576.74,379.07 576.90,408.05 577.04,314.37 577.13,415.56 577.32,425.10 577.38,423.94 577.56,426.75 577.66,333.03 577.79,419.94 577.96,374.90 578.03,411.38 578.22,419.94 578.29,399.47 578.45,400.34 578.59,401.04 578.68,414.95 578.87,389.42 578.93,395.23 579.11,407.95 579.22,353.68 579.34,423.72 579.51,378.00 579.58,386.05 579.77,413.69 579.85,402.19 580.00,419.94 580.15,386.98 580.23,408.02 580.42,409.10 580.49,383.12 580.66,398.58 580.77,291.57 580.89,390.78 581.07,392.89 581.13,396.54 581.32,413.14 581.40,383.53 581.55,399.29 581.70,381.68 581.78,413.40 581.97,408.02 582.04,395.20 582.21,409.70 582.33,261.06 582.44,417.80 582.62,395.18 582.68,411.67 582.87,410.65 582.96,367.06 583.10,401.22 583.26,400.24 583.34,409.18 583.52,410.29 583.59,380.79 583.76,418.53 583.89,352.73 583.99,412.03 584.17,418.30 584.24,387.09 584.42,412.76 584.51,344.80 584.65,425.77 584.81,377.99 584.89,403.10 585.08,416.40 585.15,353.65 585.31,405.77 585.45,316.38 585.54,425.82 585.73,395.48 585.79,406.22 585.97,399.64 586.07,354.98 586.20,407.31 586.37,415.51 586.44,403.80 586.63,411.31 586.70,416.35 586.86,409.52 587.00,388.90 587.09,399.78 587.28,427.98 587.34,404.63 587.52,421.33 587.63,299.11 587.75,409.23 587.92,400.38 587.99,403.92 588.18,412.69 588.26,399.24 588.41,414.26 588.56,379.29 588.64,408.28 588.83,398.03 588.90,402.31 589.07,410.88 589.19,385.26 589.30,400.71 589.48,395.56 589.54,411.08 589.73,415.36 589.81,400.55 589.96,402.72 590.11,374.24 590.19,400.73 590.38,400.44 590.45,412.20 590.62,424.84 590.74,371.26 590.85,425.13 591.03,416.51 591.09,411.84 591.28,413.73 591.37,396.90 591.51,404.48 591.67,413.28 591.75,400.42 591.94,400.09 592.00,400.97 592.17,422.55 592.30,381.13 592.40,417.28 592.58,405.27 592.65,393.26 592.83,404.32 592.93,347.58 593.06,413.13 593.22,400.18 593.30,390.78 593.49,425.21 593.56,366.73 593.72,388.19 593.86,389.97 593.95,420.70 594.14,404.81 594.20,404.78 594.38,410.70 594.48,404.47 594.61,410.06 594.78,376.29 594.85,410.99 595.04,415.76 595.11,398.51 595.27,402.00 595.41,380.37 595.50,420.47 595.69,413.50 595.75,406.48 595.93,408.20 596.04,387.06 596.16,412.48 596.33,389.09 596.40,421.17 596.59,419.46 596.67,391.15 596.82,410.10 596.97,377.43 597.05,423.03 597.24,400.36 597.31,400.53 597.48,420.14 597.60,303.50 597.71,409.72 597.89,418.09 597.95,400.88 598.14,427.38 598.22,353.54 598.37,406.98 598.52,383.03 598.61,408.78 598.79,415.02 598.86,414.50 599.03,409.28 599.15,349.35 599.26,412.37 599.44,407.97 599.51,409.20 599.69,418.36 599.78,348.86 599.92,399.50 600.08,399.80 600.16,401.22 600.35,412.72 600.41,385.47 600.58,397.92 600.71,377.57 600.81,415.50 600.99,396.48 601.06,398.13 601.24,420.76 601.34,401.18 601.47,408.89 601.63,368.58 601.71,418.10 601.90,408.41 601.97,390.78 602.13,411.80 602.27,315.74 602.36,409.57 602.55,408.43 602.61,388.99 602.79,417.82 602.89,401.81 603.02,421.49 603.19,405.57 603.26,409.58 603.45,413.61 603.52,380.92 603.68,401.79 603.82,357.41 603.92,423.96 604.10,412.90 604.16,394.71 604.34,407.76 604.45,351.80 604.57,419.77 604.74,401.77 604.81,406.90 605.00,419.04 605.08,374.99 605.23,421.61 605.38,416.04 605.47,412.15 605.65,424.85 605.72,387.01 605.89,393.41 606.01,352.92 606.12,422.77 606.30,380.44 606.36,406.02 606.55,424.03 606.63,394.97 606.78,415.62 606.94,371.06 607.02,408.10 607.21,389.24 607.27,370.24 607.45,428.67 607.56,386.19 607.67,408.20 607.85,401.47 607.92,421.37 608.10,414.56 608.19,353.86 608.33,404.52 608.49,384.86 608.57,412.14 608.76,411.13 608.82,420.69 609.00,385.78 609.12,366.90 609.22,408.36 609.40,416.42 609.47,375.52 609.65,407.50 609.75,272.84 609.88,414.00 610.05,388.11 610.12,418.44 610.31,387.72 610.38,384.79 610.55,403.98 610.68,299.64 610.77,404.78 610.96,400.30 611.02,399.91 611.20,385.64 611.30,323.25 611.43,405.60 611.60,399.15 611.67,421.81 611.86,410.40 611.93,375.58 612.09,404.90 612.23,338.33 612.33,406.67 612.51,387.55 612.57,397.30 612.76,411.94 612.86,378.66 612.98,416.05 613.15,403.80 613.22,395.56 613.41,392.72 613.49,382.05 613.64,410.52 613.79,386.33 613.88,408.02 614.06,401.63 614.13,390.29 614.31,423.38 614.42,339.30 614.53,403.61 614.71,379.53 614.77,409.02 614.96,403.58 615.04,357.61 615.20,420.50 615.35,398.09 615.43,424.89 615.62,418.24 615.68,421.58 615.86,408.14 615.97,322.12 616.08,421.06 616.26,412.17 616.33,421.85 616.51,412.95 616.60,391.29 616.75,393.48 616.90,369.84 616.98,392.39 617.17,414.60 617.24,416.76 617.41,415.09 617.53,309.20 617.63,422.27 617.82,391.01 617.88,429.64 618.06,408.20 618.16,368.62 618.30,405.57 618.46,364.70 618.53,420.29 618.72,418.99 618.79,419.02 618.96,410.30 619.09,305.43 619.19,402.49 619.37,389.50 619.43,381.56 619.62,418.36 619.71,321.97 619.85,427.06 620.01,373.79 620.08,411.00 620.27,409.83 620.34,350.15 620.51,396.72 620.64,296.62 620.74,429.38 620.92,398.70 620.99,391.00 621.17,413.15 621.27,395.57 621.40,411.02 621.57,399.05 621.63,399.08 621.82,415.09 621.90,389.86 622.06,408.83 622.20,363.48 622.29,387.33 622.47,405.11 622.54,419.22 622.72,415.54 622.83,276.58 622.95,405.42 623.12,398.11 623.19,430.24 623.37,426.09 623.46,391.56 623.61,412.91 623.76,406.31 623.84,417.16 624.03,416.34 624.09,382.31 624.27,403.42 624.38,354.37 624.50,423.63 624.67,400.53 624.74,401.60 624.92,393.70 625.01,345.11 625.16,414.26 625.31,398.19 625.39,399.84 625.58,418.12 625.65,378.95 625.82,412.88 625.94,417.22 626.05,398.95 626.23,387.59 626.29,388.61 626.48,424.66 626.57,279.23 626.71,421.94 626.87,389.83 626.94,407.50 627.13,407.79 627.20,390.36 627.37,408.97 627.50,322.22 627.60,413.76 627.78,400.81 627.84,427.12 628.03,404.15 628.12,375.91 628.26,394.86 628.42,407.40 628.49,395.71 628.68,419.30 628.76,366.28 628.92,402.96 629.05,358.90 629.15,399.76 629.33,403.14 629.40,402.94 629.58,419.68 629.68,397.96 629.81,407.63 629.98,392.58 630.04,410.10 630.23,416.01 630.31,366.90 630.47,424.22 630.61,362.10 630.70,424.75 630.88,406.69 630.95,398.01 631.13,390.20 631.24,389.34 631.36,406.87 631.53,399.45 631.60,415.59 631.78,409.29 631.87,375.94 632.02,417.03 632.17,372.70 632.25,398.62 632.44,415.69 632.50,396.16 632.68,401.88 632.79,347.45 632.91,420.78 633.08,419.84 633.15,413.51 633.34,422.30 633.42,391.25 633.57,407.88 633.72,385.80 633.80,388.13 633.99,420.55 634.06,407.14 634.23,400.60 634.35,277.56 634.46,417.29 634.64,416.17 634.70,414.54 634.89,389.57 634.98,322.04 635.12,410.86 635.28,413.55 635.35,416.54 635.54,398.11 635.61,367.87 635.78,402.65 635.91,358.76 636.01,419.05 636.19,388.57 636.25,405.13 636.44,404.98 636.53,320.58 636.67,416.67 636.83,373.97 636.90,397.69 637.09,422.49 637.17,401.13 637.33,407.02 637.47,393.43 637.56,427.48 637.74,397.08 637.81,410.83 637.99,414.82 638.09,302.27 638.22,405.30 638.39,421.79 638.46,390.68 638.64,392.99 638.72,391.73 638.88,421.22 639.02,352.50 639.11,425.02 639.30,400.64 639.36,372.26 639.54,411.97 639.65,367.21 639.77,404.01 639.94,403.27 640.01,403.62 640.20,418.73 640.28,382.28 640.43,408.07 640.58,366.60 640.66,411.90 640.85,376.79 640.91,383.72 641.09,391.90 641.20,296.33 641.32,395.16 641.49,407.21 641.56,421.68 641.75,420.77 641.83,343.76 641.98,415.50 642.13,391.51 642.21,398.65 642.40,418.83 642.47,407.42 642.64,401.41 642.76,367.34 642.87,387.70 643.05,375.91 643.11,399.10 643.30,403.30 643.39,304.71 643.53,415.26 643.69,375.95 643.76,411.97 643.95,403.95 644.02,401.36 644.19,407.37 644.32,328.94 644.42,399.50 644.60,399.17 644.66,418.32 644.85,410.30 644.94,398.43 645.08,425.45 645.24,414.86 645.31,397.07 645.50,415.11 645.58,369.47 645.74,410.98 645.88,344.24 645.97,411.50 646.15,395.52 646.22,421.11 646.40,410.36 646.50,384.91 646.63,420.53 646.80,396.97 646.87,394.36 647.06,399.73 647.13,326.94 647.29,416.81 647.43,358.93 647.52,400.81 647.71,417.48 647.77,389.34 647.95,388.93 648.06,314.22 648.18,418.91 648.35,422.72 648.42,419.81 648.61,394.29 648.69,405.40 648.84,423.88 648.99,395.61 649.07,410.14 649.26,413.77 649.32,409.66 649.50,398.57 649.62,368.86 649.73,410.91 649.90,391.33 649.97,396.33 650.16,414.94 650.24,390.87 650.39,405.39 650.54,381.06 650.62,398.11 650.81,411.71 650.88,405.51 651.05,403.55 651.17,348.22 651.28,418.64 651.46,417.56 651.52,399.53 651.71,404.66 651.80,358.82 651.94,396.15 652.10,428.87 652.17,418.75 652.36,420.89 652.43,388.81 652.60,413.45 652.73,369.34 652.83,410.29 653.01,407.58 653.08,379.20 653.26,407.87 653.35,395.18 653.49,406.51 653.65,390.45 653.73,421.10 653.91,412.09 653.99,388.84 654.15,400.84 654.29,377.66 654.38,418.18 654.56,414.86 654.63,407.31 654.81,422.43 654.91,353.96 655.04,409.23 655.21,383.60 655.28,405.41 655.47,418.45 655.54,377.16 655.70,403.31 655.84,310.66 655.93,404.44 656.12,417.27 656.18,425.46 656.36,408.54 656.47,317.44 656.59,420.42 656.76,413.39 656.83,400.97 657.02,421.13 657.10,404.11 657.25,401.00 657.40,393.23 657.48,421.18 657.67,417.07 657.74,389.11 657.91,421.72 658.03,333.50 658.14,405.34 658.32,380.18 658.38,410.83 658.57,416.02 658.65,377.20 658.80,409.73 658.95,361.52 659.03,412.45 659.22,400.93 659.29,396.65 659.46,393.24 659.58,366.45 659.69,408.00 659.87,399.28 659.93,410.68 660.12,410.55 660.21,332.42 660.35,400.06 660.51,353.76 660.58,418.82 660.77,425.79 660.84,409.13 661.01,419.76 661.14,255.26 661.24,394.68 661.42,428.91 661.49,386.77 661.67,420.62 661.77,304.08 661.90,405.29 662.06,387.80 662.14,385.60 662.33,409.58 662.40,406.30 662.56,422.61 662.70,349.69 662.79,396.09 662.98,384.83 663.04,405.71 663.22,401.98 663.32,399.17 663.45,415.22 663.62,369.00 663.69,421.45 663.88,406.51 663.95,392.27 664.11,412.17 664.25,366.65 664.34,411.59 664.53,406.41 664.59,401.74 664.77,394.31 664.88,371.75 665.00,398.22 665.17,386.84 665.24,411.60 665.43,418.92 665.51,405.54 665.66,415.49 665.81,366.40 665.89,408.96 666.08,401.31 666.15,405.25 666.32,418.18 666.44,342.79 666.55,405.97 666.73,416.45 666.79,407.91 666.98,419.92 667.06,407.70 667.21,410.98 667.36,377.51 667.44,401.12 667.63,425.86 667.70,383.09 667.87,426.63 667.99,350.25 668.10,418.04 668.28,388.14 668.34,398.49 668.53,412.12 668.62,343.21 668.76,423.28 668.92,341.04 669.00,410.18 669.18,393.45 669.25,378.70 669.42,431.08 669.55,242.46 669.65,419.77 669.83,393.13 669.90,390.65 670.08,417.78 670.18,363.74 670.31,406.59 670.47,385.59 670.55,408.96 670.74,408.42 670.81,397.73 670.97,416.12 671.11,296.22 671.20,431.05 671.39,408.96 671.45,390.72 671.63,390.95 671.73,337.25 671.86,414.27 672.03,385.65 672.10,399.24 672.29,416.02 672.36,404.34 672.52,391.56 672.66,333.60 672.75,420.78 672.94,377.58 673.00,389.16 673.18,407.58 673.29,335.96 673.41,405.59 673.58,384.18 673.65,417.78 673.84,418.14 673.92,335.20 674.07,394.52 674.22,366.38 674.30,402.40 674.49,401.51 674.56,422.05 674.73,420.72 674.85,297.30 674.96,410.39 675.14,384.60 675.20,402.16 675.39,427.63 675.47,366.07 675.62,425.51 675.77,392.49 675.85,419.86 676.04,404.56 676.11,401.08 676.28,397.71 676.40,360.12 676.51,418.29 676.69,415.23 676.75,390.16 676.94,418.87 677.03,382.61 677.17,407.76 677.33,379.69 677.41,400.63 677.60,424.42 677.66,391.26 677.83,411.56 677.96,362.97 678.06,407.72 678.24,383.88 678.31,420.90 678.49,411.56 678.59,378.24 678.72,422.50 678.88,407.42 678.96,421.47 679.15,396.41 679.22,413.16 679.38,421.17 679.52,365.58 679.61,405.99 679.80,412.83 679.86,415.26 680.04,397.41 680.14,394.69 680.27,395.08 680.44,363.33 680.51,400.27 680.70,402.88 680.77,332.61 680.93,407.51 681.07,380.50 681.16,407.43 681.35,400.78 681.41,408.23 681.59,416.00 681.70,335.89 681.82,425.58 681.99,412.91 682.06,422.50 682.25,410.87 682.33,420.72 682.48,413.00 682.63,385.75 682.71,403.29 682.90,396.38 682.97,421.75 683.14,417.10 683.26,380.02 683.37,392.08 683.55,388.77 683.61,414.25 683.80,404.04 683.88,344.38 684.03,423.47 684.19,377.40 684.27,390.82 684.45,401.61 684.52,388.55 684.69,408.19 684.81,369.79 684.92,405.21 685.10,414.79 685.17,405.94 685.35,406.94 685.44,336.61 685.58,402.84 685.74,376.68 685.82,403.03 686.01,401.00 686.08,407.40 686.24,419.55 686.37,311.48 686.47,407.68 686.65,388.30 686.72,411.35 686.90,427.16 687.00,345.46 687.13,422.32 687.30,408.83 687.37,400.16 687.56,414.61 687.63,412.38 687.79,410.69 687.93,289.49 688.02,395.00 688.21,409.19 688.27,414.74 688.45,397.67 688.55,410.34 688.68,396.45 688.85,382.52 688.92,411.53 689.11,401.81 689.18,347.70 689.34,406.69 689.48,351.05 689.57,402.87 689.76,419.13 689.82,393.84 690.00,415.28 690.11,337.56 690.23,408.23 690.40,399.29 690.47,399.61 690.66,412.83 690.74,378.37 690.89,401.21 691.04,379.86 691.13,406.53 691.31,412.19 691.38,378.71 691.55,422.72 691.67,418.47 691.78,399.89 691.96,411.45 692.02,419.49 692.21,402.32 692.29,387.49 692.44,426.91 692.60,394.37 692.68,412.11 692.87,406.22 692.93,374.36 693.10,412.92 693.22,401.98 693.33,408.50 693.51,418.34 693.58,389.59 693.76,423.86 693.85,391.26 693.99,418.08 694.15,380.77 694.23,428.11 694.42,427.32 694.49,414.88 694.65,418.89 694.78,311.98 694.88,398.25 695.06,418.36 695.13,412.11 695.31,417.50 695.41,287.98 695.54,419.95 695.71,388.19 695.78,418.38 695.97,422.49 696.04,360.02 696.20,425.26 696.34,355.59 696.43,405.48 696.62,381.44 696.68,420.08 696.86,411.22 696.96,364.87 697.09,414.37 697.26,417.96 697.33,406.05 697.52,410.75 697.59,377.90 697.75,422.50 697.89,404.97 697.98,425.03 698.17,407.33 698.23,389.13 698.41,401.40 698.52,358.84 698.64,406.34 698.81,374.54 698.88,387.28 699.07,404.71 699.15,415.48 699.31,414.22 699.45,352.92 699.54,424.49 699.72,424.61 699.79,394.68 699.96,426.19 700.08,340.98 700.19,406.46 700.37,381.95 700.43,410.57 700.62,423.34 700.71,368.23 700.85,419.75 701.01,377.51 701.09,409.10 701.28,402.91 701.34,399.52 701.51,404.70 701.63,384.35 701.74,400.99 701.92,426.58 701.99,409.69 702.17,402.91 702.26,408.88 702.40,426.91 702.56,372.70 702.64,419.61 702.83,410.67 702.90,387.90 703.07,406.60 703.19,296.95 703.30,420.23 703.48,399.87 703.54,406.09 703.72,399.18 703.82,385.33 703.95,412.49 704.12,397.69 704.19,415.50 704.38,393.81 704.45,392.44 704.62,410.58 704.75,334.23 704.85,412.29 705.03,408.59 705.09,421.23 705.27,423.82 705.37,393.96 705.50,406.00 705.67,404.10 705.74,418.18 705.93,414.46 706.01,362.89 706.17,418.02 706.31,358.90 706.40,406.06 706.58,423.15 706.65,407.46 706.83,404.42 706.93,262.76 707.06,415.99 707.23,399.66 707.29,401.95 707.48,417.76 707.56,381.39 707.72,413.28 707.86,387.32 707.95,407.54 708.13,409.97 708.20,401.79 708.38,416.17 708.49,381.18 708.61,415.00 708.78,408.29 708.85,407.52 709.03,421.10 709.12,376.07 709.27,420.43 709.42,381.68 709.50,418.46 709.69,395.08 709.75,416.36 709.93,405.17 710.05,372.17 710.16,406.52 710.33,409.63 710.40,423.31 710.58,417.53 710.67,374.98 710.82,426.54 710.97,366.30 711.05,407.67 711.24,418.91 711.31,380.37 711.48,409.47 711.60,353.71 711.71,425.67 711.89,398.48 711.95,426.19 712.14,418.38 712.23,376.89 712.37,402.94 712.53,368.34 712.60,405.73 712.79,381.75 712.86,411.71 713.03,415.01 713.16,387.65 713.26,396.07 713.44,404.58 713.50,422.98 713.69,418.06 713.78,317.10 713.92,402.34 714.08,393.20 714.15,420.95 714.34,401.78 714.42,345.42 714.58,400.56 714.72,415.76 714.81,413.21 714.99,417.11 715.06,397.29 715.24,403.57 715.34,312.69 715.47,407.30 715.64,399.70 715.70,402.27 715.89,423.07 715.97,387.99 716.13,419.72 716.27,350.88 716.36,427.97 716.54,404.02 716.61,404.04 716.79,407.90 716.90,347.38 717.02,404.70 717.19,399.63 717.26,414.43 717.44,414.38 717.53,361.05 717.68,408.91 717.83,356.57 717.91,400.85 718.10,397.84 718.16,378.72 718.34,417.53 718.46,312.53 718.57,419.20 718.74,414.46 718.81,406.84 719.00,417.16 719.08,397.43 719.23,427.07 719.38,387.75 719.46,404.87 719.65,416.45 719.72,397.83 719.89,414.15 720.01,362.61 720.12,430.10 720.30,411.80 720.36,397.96 720.55,400.66 720.64,385.40 720.78,413.40 720.94,398.01 721.01,401.97 721.20,405.09 721.27,410.17 721.44,425.40 721.57,335.59 721.67,424.73 721.85,406.44 721.91,409.74 722.10,420.97 722.19,400.95 722.33,403.39 722.49,422.61 722.56,405.70 722.75,419.93 722.83,369.55 722.99,398.30 723.13,358.18 723.22,413.43 723.40,389.64 723.47,402.25 723.65,403.29 723.75,388.59 723.88,424.67 724.05,417.36 724.11,414.20 724.30,405.21 724.38,392.86 724.54,411.92 724.68,368.63 724.77,405.63 724.96,406.55 725.02,386.92 725.20,414.12 725.31,268.40 725.43,420.13 725.60,407.22 725.67,426.61 725.85,416.12 725.94,381.55 726.09,418.97 726.24,373.81 726.32,411.15 726.51,392.07 726.57,403.17 726.75,416.39 726.87,350.46 726.98,406.10 727.15,383.07 727.22,399.91 727.41,419.47 727.49,388.66 727.64,412.06 727.79,383.55 727.87,420.51 728.06,407.74 728.13,418.40 728.30,390.00 728.42,240.50 728.53,412.66 728.71,411.04 728.77,382.55 728.96,409.53 729.05,325.43 729.19,417.65 729.35,387.48 729.42,418.09 729.61,419.10 729.68,412.15 729.85,406.51 729.98,317.32 730.08,415.30 730.26,400.22 730.32,414.05 730.51,418.97 730.61,308.02 730.74,389.38 730.90,426.06 730.97,400.21 731.16,405.72 731.24,380.34 731.40,401.06 731.54,289.36 731.63,396.00 731.81,399.30 731.88,373.50 732.06,415.45 732.16,324.31 732.29,419.75 732.46,389.76 732.53,403.42 732.71,405.03 732.79,377.71 732.95,412.25 733.09,376.92 733.18,423.39 733.37,413.65 733.43,397.25 733.61,419.05 733.72,314.10 733.84,410.98 734.01,396.32 734.08,398.42 734.27,419.81 734.35,347.83 734.50,409.45 734.65,354.04 734.73,406.79 734.92,419.87 734.98,408.31 735.16,412.80 735.28,406.34 735.39,408.03 735.57,399.88 735.63,409.96 735.82,417.86 735.90,348.21 736.05,397.66 736.20,412.27 736.28,408.95 736.47,400.50 736.54,412.69 736.71,404.17 736.83,352.17 736.94,398.30 737.12,414.40 737.18,399.83 737.37,404.23 737.46,338.19 737.60,410.33 737.76,390.74 737.83,413.94 738.02,417.33 738.09,402.23 738.26,423.32 738.39,359.86 738.49,400.38 738.67,394.15 738.74,401.56 738.92,418.60 739.02,358.93 739.15,413.88 739.31,386.17 739.38,410.15 739.57,404.92 739.65,404.67 739.81,415.50 739.95,385.97 740.04,392.29 740.22,418.97 740.29,414.28 740.47,421.20 740.57,346.49 740.70,424.47 740.87,370.88 740.94,403.61 741.13,393.91 741.20,364.04 741.36,408.61 741.50,403.93 741.59,422.07 741.78,406.09 741.84,418.96 742.02,412.42 742.13,373.96 742.25,415.80 742.42,396.49 742.49,413.10 742.68,426.24 742.76,410.74 742.91,395.27 743.06,380.62 743.14,412.44 743.33,406.74 743.40,407.84 743.57,417.00 743.69,322.01 743.80,417.80 743.98,432.05 744.04,400.87 744.23,425.29 744.31,322.65 744.46,416.29 744.61,404.76 744.69,393.26 744.88,402.11 744.95,394.47 745.12,408.16 745.24,390.62 745.35,413.64 745.53,391.38 745.59,391.19 745.78,390.70 745.87,385.08 746.01,410.72 746.17,378.90 746.24,417.66 746.43,406.62 746.50,381.68 746.67,408.44 746.80,366.52 746.90,407.97 747.08,405.54 747.15,398.22 747.33,416.77 747.43,372.21 747.56,405.88 747.72,367.59 747.80,410.17 747.99,420.98 748.06,367.57 748.22,392.83 748.36,273.38 748.45,408.54 748.64,425.97 748.70,399.67 748.88,396.90 748.98,361.59 749.11,412.85 749.28,412.26 749.35,402.67 749.54,426.42 749.61,377.11 749.77,416.58 749.91,389.07 750.00,405.48 750.19,412.42 750.25,420.44 750.43,415.41 750.54,397.53 750.66,399.16 750.83,407.36 750.90,401.32 751.09,421.12 751.17,373.37 751.32,417.61 751.47,344.12 751.55,411.54 751.74,415.03 751.81,383.02 751.98,397.66 752.10,347.92 752.21,410.27 752.39,394.25 752.45,409.02 752.64,417.01 752.72,391.69 752.87,424.90 753.02,379.47 753.10,393.36 753.29,414.09 753.36,418.63 753.53,414.68 753.65,361.58 753.76,419.45 753.94,375.30 754.00,408.26 754.19,424.19 754.28,304.53 754.42,412.54 754.58,356.76 754.65,417.06 754.84,424.18 754.91,393.35 755.08,414.89 755.21,347.38 755.31,395.78 755.49,397.43 755.56,402.59 755.74,405.07 755.84,371.22 755.97,411.28 756.13,396.87 756.21,421.43 756.40,419.45 756.47,400.38 756.63,420.12 756.77,349.40 756.86,408.90 757.05,413.25 757.11,404.13 757.29,405.28 757.39,278.20 757.52,417.07 757.69,400.14 757.76,402.62 757.95,416.77 758.02,372.54 758.18,409.45 758.32,395.50 758.41,419.78 758.60,406.79 758.66,369.75 758.84,408.21 758.95,357.03 759.07,409.37 759.24,399.05 759.31,403.66 759.50,419.72 759.58,406.64 759.73,410.97 759.88,412.42 759.96,405.05 760.15,406.36 760.22,411.46 760.39,405.41 760.51,396.32 760.62,422.03 760.80,409.11 760.86,426.21 761.05,396.24 761.13,388.00 761.28,423.53 761.44,405.47 761.51,403.31 761.70,402.61 761.77,402.80 761.94,410.06 762.06,362.64 762.17,413.09 762.35,408.04 762.41,424.40 762.60,418.80 762.69,314.18 762.83,406.43 762.99,333.40 763.07,414.47 763.26,429.08 763.32,418.90 763.49,422.11 763.62,314.78 763.72,395.72 763.90,412.07 763.97,413.26 764.15,404.28 764.25,309.80 764.38,404.75 764.55,402.07 764.62,398.65 764.81,409.71 764.88,396.35 765.04,422.04 765.18,352.11 765.27,416.46 765.46,421.69 765.52,415.23 765.70,402.89 765.80,335.59 765.93,415.64 766.10,402.04 766.17,403.57 766.36,430.28 766.43,363.77 766.59,421.53 766.73,365.47 766.82,405.40 767.01,421.23 767.07,388.89 767.25,403.32 767.36,351.31 767.48,414.15 767.65,414.28 767.72,417.39 767.91,389.82 767.99,416.45 768.14,404.54 768.29,385.05 768.37,421.20 768.56,407.45 768.63,415.40 768.80,390.15 768.92,355.57 769.03,417.78 769.21,407.69 769.27,403.98 769.46,423.76 769.55,382.74 769.69,418.05 769.85,371.95 769.93,390.57 770.11,396.51 770.18,393.18 770.35,416.30 770.48,356.01 770.58,421.32 770.76,407.77 770.83,398.30 771.01,400.09 771.10,397.33 771.24,409.39 771.40,403.07 771.48,419.96 771.67,410.07 771.74,393.27 771.90,407.15 772.03,333.21 772.13,405.36 772.31,388.49 772.38,404.99 772.56,431.66 772.66,404.23 772.79,422.87 772.96,402.80 773.03,427.97 773.22,396.29 773.29,384.55 773.45,412.04 773.59,390.00 773.68,411.40 773.87,410.88 773.93,409.10 774.11,414.63 774.21,260.63 774.34,399.39 774.51,385.78 774.58,429.23 774.77,410.24 774.84,372.82 775.00,415.29 775.15,329.96 775.23,410.06 775.42,396.69 775.48,405.88 775.66,416.14 775.77,287.87 775.89,407.96 776.06,400.84 776.13,404.10 776.32,405.66 776.40,407.02 776.55,416.07 776.70,399.18 776.78,403.87 776.97,394.70 777.04,370.02 777.21,418.49 777.33,333.61 777.44,394.21 777.62,402.72 777.68,408.77 777.87,413.96 777.96,400.85 778.10,399.27 778.26,336.24 778.34,404.32 778.52,385.07 778.59,396.05 778.76,427.17 778.89,314.13 778.99,387.48 779.17,407.78 779.24,402.75 779.42,403.82 779.51,348.05 779.65,407.72 779.81,408.01 779.89,400.38 780.08,396.76 780.15,381.20 780.31,418.90 780.44,317.67 780.54,406.30 780.73,421.65 780.79,412.63 780.97,411.69 781.07,345.81 781.20,413.87 781.37,366.07 781.44,405.96 781.63,400.59 781.70,409.39 781.86,392.68 782.00,361.43 782.09,426.19 782.28,420.37 782.34,420.36 782.52,402.75 782.62,225.96 782.75,409.94 782.92,409.38 782.99,426.81 783.18,401.31 783.26,385.02 783.41,401.76 783.56,337.42 783.64,409.35 783.83,401.50 783.89,397.02 784.07,404.56 784.18,395.87 784.30,393.18 784.48,380.97 784.54,405.47 784.73,403.38 784.81,410.54 784.96,417.79 785.11,349.77 785.20,401.11 785.38,407.64 785.45,406.03 785.62,405.96 785.74,237.91 785.85,408.59 786.03,401.29 786.09,413.01 786.28,414.86 786.37,332.84 786.51,405.61 786.67,379.07 786.75,412.21 786.94,395.87 787.00,381.77 787.17,423.07 787.30,333.08 787.40,386.42 787.58,426.50 787.65,386.24 787.83,425.34 787.92,408.91 788.06,399.48 788.22,391.60 788.30,410.65 788.49,416.34 788.56,402.64 788.73,423.25 788.85,355.92 788.95,407.23 789.14,396.50 789.20,384.29 789.38,407.21 789.48,366.46 789.61,429.94 789.78,386.19 789.85,414.32 790.04,416.35 790.11,381.40 790.28,397.40 790.41,307.78 790.51,421.30 790.69,403.38 790.75,399.46 790.93,406.18 791.03,316.49 791.16,414.04 791.33,404.30 791.40,391.06 791.59,418.90 791.67,402.39 791.82,397.19 791.97,356.51 792.06,412.42 792.24,406.75 792.31,387.23 792.49,419.13 792.59,333.70 792.71,404.75 792.89,379.57 792.95,406.87 793.14,385.31 793.22,330.41 793.37,411.58 793.52,391.84 793.61,403.99 793.79,376.60 793.86,384.54 794.04,413.36 794.15,411.36 794.26,399.30 794.44,393.03 794.51,400.26 794.69,410.59 794.78,403.31 794.92,417.45 795.08,382.25 795.16,413.81 795.35,409.13 795.41,416.00 795.59,429.22 795.71,306.38 795.81,406.16 795.99,418.06 796.06,417.51 796.24,414.00 796.33,334.08 796.48,385.82 796.63,367.12 796.71,389.70 796.90,408.01 796.97,411.75 797.14,401.56 797.26,330.15 797.37,395.13 797.55,426.88 797.61,390.70 797.79,410.49 797.89,289.27 798.03,422.07 798.19,404.27 798.26,395.63 798.45,395.12 798.52,413.92 798.69,398.66 798.82,349.17 798.92,423.86 799.10,395.11 799.16,420.36 799.35,416.57 799.45,364.04 799.58,413.57 799.74,381.06 799.81,417.64 800.00,388.63 800.08,341.86 800.24,399.61 800.38,381.30 800.47,397.47 800.65,415.91 800.72,366.13 800.90,414.94 801.00,310.99 801.13,395.71 801.30,386.28 801.36,401.48 801.55,418.93 801.63,378.10 801.79,418.31 801.93,395.35 802.02,408.24 802.20,399.02 802.27,379.33 802.45,409.24 802.56,357.53 802.68,399.97 802.85,383.30 802.92,387.20 803.10,410.92 803.19,411.89 803.34,418.23 803.49,372.83 803.57,416.69 803.76,412.09 803.82,404.33 804.00,411.93 804.12,339.69 804.23,407.87 804.40,416.25 804.47,423.45 804.65,404.39 804.74,408.29 804.89,404.93 805.04,357.37 805.12,389.66 805.31,387.39 805.38,414.77 805.55,407.47 805.67,345.03 805.78,392.03 805.96,408.45 806.02,411.06 806.21,413.68 806.30,343.02 806.44,425.61 806.60,384.12 806.67,396.12 806.86,421.76 806.93,358.37 807.10,404.68 807.23,355.02 807.33,385.43 807.51,406.03 807.57,411.71 807.76,422.29 807.86,379.67 807.99,405.45 808.15,395.87 808.22,400.78 808.41,419.12 808.49,330.46 808.65,424.64 808.79,311.60 808.88,410.42 809.06,420.74 809.13,420.72 809.31,398.41 809.41,307.19 809.54,420.20 809.71,377.24 809.77,392.57 809.96,403.31 810.04,388.35 810.20,414.12 810.34,396.45 810.43,411.57 810.62,405.00 810.68,382.28 810.86,407.88 810.97,359.98 811.09,404.69 811.26,369.74 811.33,394.99 811.52,423.75 811.60,369.79 811.75,411.69 811.90,370.37 811.98,427.88 812.17,393.77 812.23,385.09 812.41,395.24 812.53,378.85 812.64,419.25 812.81,403.62 812.88,421.41 813.07,428.32 813.15,355.50 813.30,414.80 813.45,393.41 813.53,425.73 813.72,406.96 813.79,369.34 813.96,411.48 814.08,347.38 814.19,415.45 814.37,378.31 814.43,391.94 814.62,406.43 814.71,349.67 814.85,411.63 815.01,360.66 815.08,419.74 815.27,419.90 815.34,359.14 815.51,406.41 815.64,411.05 815.74,416.82 815.92,395.14 815.98,389.58 816.17,402.86 816.27,277.43 816.40,401.05 816.56,399.14 816.63,420.05 816.82,406.43 816.90,381.78 817.06,408.98 817.20,341.03 817.29,425.56 817.47,414.64 817.54,402.15 817.72,414.67 817.82,252.53 817.95,422.29 818.12,367.35 818.19,407.69 818.37,424.17 818.45,369.20 818.61,408.89 818.75,348.03 818.84,410.01 819.03,420.15 819.09,413.02 819.27,417.03 819.38,337.68 819.50,418.45 819.67,420.52 819.74,399.35 819.93,406.31 820.01,368.32 820.16,403.59 820.31,385.48 820.39,400.36 820.58,419.96 820.64,412.74 820.82,403.46 820.94,312.58 821.05,417.17 821.23,401.85 821.29,385.41 821.48,404.42 821.56,373.47 821.71,420.56 821.86,385.99 821.94,393.73 822.13,420.88 822.20,410.97 822.37,422.76 822.49,366.29 822.60,412.67 822.78,415.22 822.84,413.66 823.03,409.16 823.12,261.06 823.26,405.62 823.42,353.71 823.49,425.15 823.68,425.22 823.75,372.30 823.92,428.61 824.05,393.89 824.15,415.39 824.33,400.19 824.40,412.64 824.58,417.52 824.68,316.35 824.81,405.22 824.97,406.69 825.04,382.92 825.23,394.64 825.31,386.03 825.47,404.06 825.61,367.84 825.70,413.26 825.88,402.51 825.95,422.18 826.13,421.86 826.23,309.25 826.36,416.03 826.53,393.15 826.60,410.77 826.79,399.36 826.86,387.82 827.02,410.19 827.16,349.62 827.25,427.64 827.44,405.74 827.50,417.50 827.68,414.44 827.79,320.94 827.91,427.38 828.08,396.89 828.15,409.65 828.34,391.32 828.42,364.92 828.57,414.63 828.72,390.89 828.80,394.82 828.99,414.40 829.06,415.38 829.23,390.90 829.35,345.24 829.46,398.37 829.64,408.45 829.70,418.40 829.89,389.76 829.97,385.09 830.12,423.72 830.27,399.13 830.35,417.30 830.54,402.77 830.61,396.11 830.78,398.14 830.91,400.78 831.01,427.72 831.19,390.57 831.25,406.70 831.44,417.50 831.53,313.50 831.67,405.91 831.83,370.01 831.90,414.02 832.09,420.39 832.16,359.27 832.33,407.59 832.46,244.60 832.56,415.62 832.74,383.85 832.81,396.05 832.99,390.46 833.09,271.83 833.22,419.42 833.38,414.37 833.45,408.66 833.64,394.60 833.72,386.60 833.88,412.35 834.02,335.84 834.11,407.81 834.30,409.89 834.36,408.07 834.54,388.98 834.64,320.94 834.77,400.81 834.94,415.65 835.01,402.22 835.20,397.87 835.27,360.62 835.43,402.35 835.57,343.46 835.66,405.52 835.85,394.17 835.91,398.96 836.09,416.60 836.20,366.05 836.32,413.46 836.49,383.38 836.56,415.65 836.75,422.94 836.83,371.19 836.98,421.83 837.13,351.81 837.21,391.53 837.40,403.28 837.47,377.14 837.64,405.98 837.76,346.21 837.87,400.59 838.05,393.01 838.11,411.91 838.30,407.19 838.38,368.94 838.53,392.41 838.69,341.43 838.76,420.99 838.95,412.42 839.02,383.45 839.19,424.82 839.32,320.99 839.42,396.97 839.60,374.97 839.66,419.61 839.85,423.61 839.94,351.50 840.08,403.02 840.24,413.29 840.31,410.68 840.50,412.59 840.57,380.44 840.74,417.84 840.87,360.33 840.97,413.48 841.15,381.59 841.22,385.77 841.40,419.41 841.50,301.47 841.63,406.30 841.80,357.03 841.87,412.60 842.06,401.93 842.13,364.13 842.29,412.18 842.43,382.26 842.52,396.99 842.71,387.11 842.77,412.10 842.95,412.29 843.05,367.62 843.18,413.45 843.35,418.92 843.42,412.06 843.61,424.65 843.68,404.39 843.84,401.76 843.98,383.03 844.07,395.58 844.26,406.93 844.32,393.17 844.50,385.57 844.61,288.33 844.73,412.99 844.90,399.00 844.97,404.56 845.16,387.30 845.24,398.77 845.39,421.85 845.54,364.29 845.62,401.03 845.81,401.49 845.88,381.53 846.05,418.57 846.17,300.70 846.28,418.91 846.46,366.73 846.52,412.88 846.71,394.30 846.80,391.31 846.94,401.98 847.10,396.62 847.17,401.22 847.36,411.15 847.43,364.94 847.60,408.00 847.73,261.90 847.83,398.44 848.01,390.32 848.07,396.75 848.26,429.34 848.35,316.79 848.49,411.26 848.65,383.64 848.72,425.75 848.92,414.11 848.99,395.96 849.15,425.66 849.28,286.82 849.38,419.44 849.56,381.71 849.63,395.14 849.81,399.07 849.91,332.71 850.04,412.04 850.21,384.76 850.28,410.01 850.47,405.54 850.54,395.28 850.70,387.76 850.84,266.66 850.93,427.19 851.12,411.17 851.18,399.53 851.36,424.67 851.46,245.45 851.59,383.82 851.76,386.12 851.83,410.69 852.02,418.17 852.10,376.85 852.25,379.18 852.40,346.66 852.48,423.93 852.67,405.76 852.73,374.87 852.91,402.50 853.02,339.62 853.14,400.69 853.31,391.11 853.38,421.69 853.57,417.24 853.65,412.37 853.80,413.85 853.95,386.31 854.03,430.78 854.22,388.09 854.29,385.84 854.46,406.41 854.58,400.05 854.69,422.93 854.87,422.62 854.93,397.30 855.12,428.12 855.21,356.46 855.35,398.62 855.51,353.77 855.58,415.27 855.77,407.77 855.84,376.45 856.01,403.63 856.14,387.85 856.24,403.63 856.42,383.63 856.49,399.22 856.67,402.07 856.76,304.35 856.90,415.33 857.06,340.63 857.14,421.57 857.33,409.85 857.40,405.43 857.56,410.27 857.69,348.77 857.79,410.65 857.97,420.02 858.04,419.90 858.22,417.04 858.32,266.26 858.45,413.14 858.62,346.87 858.69,423.26 858.88,429.57 858.95,417.27 859.11,419.78 859.25,402.52 859.34,422.21 859.53,409.88 859.59,412.15 859.77,407.55 859.88,344.06 860.00,404.33 860.17,376.55 860.24,407.85 860.43,410.18 860.51,381.44 860.66,415.20 860.81,387.96 860.89,429.33 861.08,406.13 861.14,419.60 861.32,428.02 861.43,360.59 861.55,421.86 861.73,385.89 861.79,405.27 861.98,404.64 862.06,367.78 862.21,401.41 862.36,355.73 862.44,417.25 862.63,395.98 862.70,402.92 862.87,397.71 862.99,319.36 863.10,420.75 863.28,409.58 863.34,391.72 863.53,413.75 863.62,379.53 863.76,412.71 863.92,380.70 864.00,421.15 864.18,395.76 864.25,399.04 864.42,411.35 864.55,293.31 864.65,384.44 864.83,397.73 864.90,386.62 865.08,424.29 865.17,372.78 865.31,388.09 865.47,379.88 865.55,402.51 865.74,420.58 865.81,377.79 865.97,407.29 866.10,289.33 866.20,414.74 866.39,386.91 866.45,388.39 866.63,404.28 866.73,290.89 866.86,409.58 867.03,386.86 867.10,390.81 867.29,402.07 867.36,415.92 867.52,418.70 867.66,401.51 867.75,413.76 867.94,412.23 868.00,429.08 868.18,396.31 868.29,351.58 868.41,412.99 868.58,373.68 868.65,421.54 868.84,414.61 868.92,339.59 869.07,408.86 869.22,311.88 869.30,409.73 869.49,392.25 869.56,378.16 869.73,420.40 869.84,350.41 869.96,391.00 870.14,386.98 870.20,415.29 870.39,389.01 870.47,364.70 870.62,415.24 870.77,348.37 870.86,397.55 871.04,417.11 871.11,408.75 871.28,405.90 871.40,332.47 871.51,424.77 871.69,407.34 871.75,414.47 871.94,390.28 872.03,327.94 872.17,398.76 872.33,405.41 872.41,419.57 872.60,404.08 872.66,387.38 872.83,397.21 872.96,344.76 873.06,417.90 873.24,411.55 873.31,406.03 873.49,412.32 873.58,313.47 873.72,422.39 873.88,399.97 873.96,421.23 874.15,415.14 874.22,415.13 874.38,418.63 874.51,338.30 874.61,410.25 874.80,390.15 874.86,425.79 875.04,393.76 875.14,317.07 875.27,429.98 875.44,382.93 875.51,406.91 875.70,403.47 875.77,418.54 875.93,422.33 876.07,358.14 876.16,399.38 876.35,407.09 876.41,401.84 876.59,409.66 876.70,293.02 876.82,418.90 876.99,407.69 877.06,405.64 877.25,409.01 877.33,413.45 877.48,392.24 877.63,408.16 877.72,415.11 877.90,389.68 877.97,398.57 878.14,407.68 878.25,368.65 878.37,391.75 878.55,380.25 878.61,402.48 878.80,410.88 878.88,359.32 879.03,406.89 879.18,348.94 879.27,407.52 879.45,405.94 879.52,355.31 879.69,417.88 879.81,340.75 879.92,408.67 880.10,387.25 880.17,396.89 880.35,432.06 880.44,373.09 880.58,406.22 880.74,360.21 880.82,400.56 881.01,408.05 881.07,402.69 881.24,422.68 881.37,341.49 881.47,408.29 881.65,382.55 881.72,420.94 881.90,394.46 881.99,337.76 882.13,397.36 882.29,388.16 882.37,427.39 882.56,382.95 882.63,368.48 882.79,423.10 882.92,390.44 883.02,385.38 883.21,407.42 883.27,392.62 883.45,412.15 883.55,328.27 883.68,407.21 883.85,395.75 883.92,382.76 884.11,419.07 884.18,384.56 884.34,423.49 884.48,369.18 884.58,411.25 884.76,408.86 884.82,383.93 885.00,399.62 885.11,300.23 885.23,421.41 885.40,390.57 885.47,399.82 885.66,396.99 885.74,361.72 885.90,418.09 886.04,388.08 886.13,422.89 886.31,391.57 886.38,424.43 886.56,416.10 886.66,376.14 886.78,414.21 886.96,406.30 887.02,402.60 887.21,427.04 887.29,385.13 887.45,413.49 887.59,368.85 887.68,394.06 887.86,415.59 887.92,367.85 887.97,411.46 888.00,397.05" fill="none" stroke="#000" stroke-width="1.5" opacity="0.9"/>
<text x="500.0" y="502" font-family="Times New Roman" font-size="19" text-anchor="middle">Julian Date</text>
<text transform="translate(18,247.0) rotate(-90)" font-family="Times New Roman" font-size="19" text-anchor="middle">velocity residual (mm/s)</text>
</svg>
