<svg xmlns="http://www.w3.org/2000/svg" width="920" height="520" viewBox="0 0 920 520">
<rect width="100%" height="100%" fill="white"/>
<text x="460.0" y="24" font-family="Times New Roman" font-size="24" text-anchor="middle">Mercury native position residual</text>
<line x1="112" y1="434" x2="888" y2="434" stroke="#333"/>
<line x1="112" y1="60" x2="112" y2="434" stroke="#333"/>
<line x1="112" y1="434.00" x2="888" y2="434.00" stroke="#ddd"/>
<text x="104" y="438.00" font-family="Times New Roman" font-size="17" text-anchor="end">0</text>
<line x1="112" y1="340.50" x2="888" y2="340.50" stroke="#ddd"/>
<text x="104" y="344.50" font-family="Times New Roman" font-size="17" text-anchor="end">0.0402</text>
<line x1="112" y1="247.00" x2="888" y2="247.00" stroke="#ddd"/>
<text x="104" y="251.00" font-family="Times New Roman" font-size="17" text-anchor="end">0.0804</text>
<line x1="112" y1="153.50" x2="888" y2="153.50" stroke="#ddd"/>
<text x="104" y="157.50" font-family="Times New Roman" font-size="17" text-anchor="end">0.1206</text>
<line x1="112" y1="60.00" x2="888" y2="60.00" stroke="#ddd"/>
<text x="104" y="64.00" font-family="Times New Roman" font-size="17" text-anchor="end">0.1608</text>
<line x1="112.00" y1="434" x2="112.00" y2="439" stroke="#333"/>
<text x="112.00" y="456" font-family="Times New Roman" font-size="17" text-anchor="middle">2378495</text>
<line x1="306.00" y1="434" x2="306.00" y2="439" stroke="#333"/>
<text x="306.00" y="456" font-family="Times New Roman" font-size="17" text-anchor="middle">2433282</text>
<line x1="500.00" y1="434" x2="500.00" y2="439" stroke="#333"/>
<text x="500.00" y="456" font-family="Times New Roman" font-size="17" text-anchor="middle">2488070</text>
<line x1="694.00" y1="434" x2="694.00" y2="439" stroke="#333"/>
<text x="694.00" y="456" font-family="Times New Roman" font-size="17" text-anchor="middle">2542858</text>
<line x1="888.00" y1="434" x2="888.00" y2="439" stroke="#333"/>
<text x="888.00" y="456" font-family="Times New Roman" font-size="17" text-anchor="middle">2597645</text>
<polyline points="112.00,296.32 112.11,291.48 112.27,306.85 112.33,320.54 112.52,341.49 112.60,271.79 112.75,291.40 112.90,284.03 112.98,314.33 113.17,330.14 113.24,292.09 113.41,317.95 113.53,268.70 113.64,354.13 113.82,316.02 113.88,289.39 114.07,199.68 114.16,241.48 114.30,225.99 114.46,257.08 114.53,205.08 114.72,230.71 114.79,244.38 114.96,232.53 115.09,265.26 115.19,226.03 115.37,248.35 115.44,234.43 115.62,275.59 115.71,309.57 115.85,208.71 116.01,295.64 116.09,261.37 116.27,281.50 116.35,252.74 116.51,257.72 116.65,317.88 116.74,199.40 116.92,280.96 116.99,266.24 117.17,162.09 117.27,263.86 117.40,313.82 117.57,253.30 117.64,204.23 117.83,302.88 117.90,252.39 118.06,318.40 118.20,311.75 118.29,250.52 118.48,234.99 118.54,218.52 118.72,284.47 118.83,286.75 118.95,216.73 119.12,266.93 119.19,357.72 119.38,195.36 119.46,375.53 119.61,318.96 119.76,349.59 119.84,190.20 120.03,222.01 120.10,253.76 120.27,363.02 120.38,365.54 120.50,330.04 120.68,339.03 120.74,298.05 120.93,199.42 121.01,379.46 121.16,361.88 121.31,342.05 121.39,295.05 121.58,258.84 121.65,346.69 121.82,325.03 121.94,337.82 122.05,334.22 122.23,295.37 122.29,304.58 122.48,215.87 122.57,247.82 122.71,341.59 122.87,249.67 122.94,275.42 123.13,312.75 123.20,277.64 123.37,299.39 123.50,312.86 123.60,203.25 123.78,286.56 123.85,276.21 124.03,271.01 124.12,341.85 124.26,235.71 124.42,304.77 124.50,273.53 124.69,257.13 124.76,368.70 124.92,281.82 125.06,327.65 125.15,289.46 125.34,197.68 125.40,256.61 125.58,234.85 125.68,244.72 125.81,282.88 125.98,341.41 126.05,251.36 126.24,349.69 126.31,340.79 126.47,277.48 126.61,277.70 126.70,301.26 126.89,282.13 126.95,296.91 127.13,136.77 127.24,271.22 127.36,222.41 127.53,236.49 127.60,248.90 127.79,209.62 127.87,308.68 128.02,324.31 128.17,267.79 128.25,221.70 128.44,264.99 128.51,274.24 128.68,348.87 128.79,326.25 128.91,331.98 129.09,311.66 129.15,294.32 129.34,303.90 129.42,245.47 129.57,287.18 129.72,214.69 129.80,316.54 129.99,245.93 130.06,265.25 130.23,206.62 130.35,320.25 130.46,218.41 130.64,222.36 130.70,240.87 130.89,228.38 130.98,328.35 131.12,253.07 131.28,292.00 131.36,201.47 131.54,275.54 131.61,306.18 131.78,262.17 131.91,288.31 132.01,293.31 132.19,240.13 132.26,270.89 132.44,278.70 132.53,256.98 132.67,371.51 132.83,361.33 132.91,277.46 133.10,254.87 133.17,302.22 133.33,297.64 133.47,314.71 133.56,222.96 133.75,283.16 133.81,211.41 133.99,188.52 134.09,233.90 134.22,277.69 134.39,301.13 134.46,256.81 134.65,276.74 134.72,292.85 134.88,219.32 135.02,273.04 135.11,343.97 135.30,324.22 135.36,296.77 135.54,332.03 135.65,248.80 135.77,249.12 135.94,323.59 136.01,305.53 136.20,289.87 136.28,305.13 136.43,320.36 136.58,323.33 136.66,159.87 136.85,314.01 136.92,314.04 137.09,226.07 137.21,403.11 137.32,301.34 137.50,318.97 137.56,331.98 137.75,345.48 137.83,271.06 137.98,217.80 138.13,328.92 138.22,377.26 138.40,395.41 138.47,285.75 138.64,234.61 138.76,287.15 138.87,199.14 139.05,286.28 139.12,288.90 139.30,263.37 139.39,290.72 139.53,332.60 139.69,378.31 139.77,196.15 139.96,227.31 140.02,297.68 140.19,214.55 140.32,340.42 140.42,286.81 140.60,259.78 140.67,220.38 140.85,283.95 140.95,321.38 141.08,254.26 141.24,327.38 141.32,352.34 141.51,359.44 141.58,284.49 141.74,358.02 141.88,351.70 141.97,175.73 142.16,224.91 142.22,258.29 142.40,283.94 142.50,311.74 142.63,172.16 142.80,257.07 142.87,300.08 143.06,266.95 143.13,287.20 143.29,345.33 143.43,346.32 143.52,263.63 143.71,337.99 143.77,318.03 143.95,315.87 144.06,282.85 144.18,223.24 144.35,268.92 144.42,341.89 144.61,372.38 144.69,314.31 144.84,322.59 144.99,301.23 145.07,372.27 145.26,333.93 145.33,272.94 145.50,301.77 145.62,218.09 145.73,174.40 145.91,321.00 145.97,213.59 146.16,200.26 146.24,419.43 146.39,241.20 146.54,319.58 146.63,222.70 146.81,351.90 146.88,335.31 147.05,202.82 147.17,278.21 147.28,191.50 147.46,238.05 147.53,256.35 147.71,298.84 147.80,371.48 147.94,163.96 148.10,313.37 148.18,216.16 148.37,227.27 148.43,355.70 148.60,162.27 148.73,267.56 148.83,336.28 149.01,260.66 149.08,293.22 149.26,257.83 149.36,352.63 149.49,248.30 149.65,307.28 149.73,428.41 149.92,288.75 149.99,250.97 150.15,225.13 150.29,335.52 150.38,255.27 150.57,261.51 150.63,278.77 150.81,266.08 150.91,296.49 151.04,201.96 151.21,339.84 151.28,383.50 151.47,377.29 151.54,245.74 151.70,311.43 151.84,340.36 151.94,380.69 152.12,310.44 152.18,276.63 152.36,234.63 152.47,335.20 152.59,205.84 152.76,313.22 152.83,306.79 153.02,242.36 153.10,375.87 153.25,189.45 153.40,325.11 153.49,279.86 153.67,308.72 153.74,383.02 153.91,179.51 154.03,366.48 154.14,343.32 154.32,320.73 154.38,330.82 154.57,273.43 154.65,313.90 154.80,199.71 154.96,366.29 155.04,251.92 155.23,315.89 155.29,301.76 155.47,245.70 155.58,286.61 155.69,304.83 155.87,353.39 155.94,242.13 156.12,366.94 156.21,300.48 156.35,160.86 156.51,351.63 156.59,331.61 156.78,335.17 156.85,343.43 157.02,297.09 157.14,291.63 157.24,191.19 157.42,273.67 157.49,391.33 157.67,218.46 157.77,251.69 157.90,144.11 158.07,252.16 158.14,295.67 158.33,253.93 158.40,338.69 158.57,155.83 158.70,272.44 158.80,263.03 158.98,320.38 159.04,327.74 159.22,241.11 159.32,303.63 159.45,268.74 159.62,383.01 159.69,204.53 159.88,270.27 159.95,302.73 160.12,185.84 160.25,294.30 160.35,186.19 160.53,311.84 160.59,273.36 160.78,227.32 160.88,374.30 161.00,227.27 161.17,325.59 161.24,330.11 161.43,222.09 161.51,295.27 161.66,212.78 161.81,289.70 161.90,263.84 162.08,243.42 162.15,231.32 162.33,141.90 162.44,245.68 162.55,200.80 162.73,250.02 162.79,262.65 162.98,255.10 163.06,221.55 163.22,130.17 163.37,306.51 163.45,321.85 163.64,218.04 163.70,353.48 163.88,161.42 163.99,269.89 164.10,345.70 164.28,357.76 164.35,329.84 164.53,326.15 164.62,257.93 164.77,167.40 164.92,270.74 165.00,207.90 165.19,334.71 165.26,345.42 165.43,229.22 165.55,282.47 165.66,295.88 165.84,365.33 165.90,315.48 166.08,293.95 166.18,327.63 166.32,239.17 166.48,351.97 166.55,251.88 166.74,314.13 166.81,353.62 166.98,208.72 167.11,346.28 167.21,222.50 167.39,278.77 167.45,266.60 167.64,185.40 167.73,412.99 167.87,158.74 168.03,375.77 168.10,326.79 168.29,237.34 168.36,318.94 168.53,281.21 168.66,239.81 168.76,232.31 168.94,304.86 169.01,240.63 169.19,174.15 169.29,373.86 169.42,192.58 169.59,361.35 169.65,239.68 169.84,259.12 169.92,261.92 170.08,183.45 170.22,220.76 170.31,169.96 170.49,244.67 170.56,258.26 170.74,149.66 170.85,249.02 170.97,171.94 171.14,278.83 171.21,304.78 171.39,325.31 171.48,286.27 171.63,253.52 171.78,376.07 171.86,222.95 172.05,216.58 172.11,302.65 172.29,333.53 172.40,290.81 172.52,245.21 172.69,267.92 172.76,248.78 172.94,247.17 173.03,316.95 173.18,260.65 173.33,287.85 173.41,218.97 173.60,258.05 173.67,328.27 173.84,250.93 173.96,260.39 174.07,319.80 174.25,380.12 174.31,297.69 174.50,243.55 174.59,253.38 174.73,251.34 174.89,331.34 174.96,263.38 175.15,185.15 175.22,364.20 175.39,188.63 175.52,259.57 175.62,252.21 175.80,275.05 175.86,288.01 176.05,191.62 176.14,267.70 176.28,181.32 176.44,319.53 176.51,264.75 176.70,295.01 176.78,337.32 176.94,377.06 177.07,397.30 177.17,288.06 177.35,263.58 177.42,226.14 177.60,324.93 177.70,305.19 177.83,232.09 178.00,405.64 178.06,219.18 178.25,312.70 178.33,357.45 178.49,309.48 178.63,252.70 178.72,177.35 178.91,330.10 178.97,216.28 179.15,265.94 179.26,215.44 179.38,168.00 179.55,248.21 179.62,303.36 179.80,279.35 179.89,299.06 180.04,307.93 180.19,266.50 180.27,287.63 180.46,367.15 180.52,285.09 180.70,267.06 180.81,250.83 180.93,275.34 181.10,342.60 181.17,277.57 181.36,231.49 181.44,237.77 181.59,340.12 181.74,306.42 181.82,300.95 182.01,219.55 182.08,299.60 182.25,200.18 182.37,328.52 182.48,299.16 182.66,340.50 182.72,295.46 182.91,301.20 183.00,320.36 183.14,348.19 183.30,316.34 183.37,360.34 183.56,315.36 183.63,273.49 183.80,354.85 183.93,279.22 184.03,362.45 184.21,288.10 184.27,320.94 184.46,280.96 184.55,281.57 184.69,363.42 184.85,261.01 184.92,345.79 185.11,303.89 185.19,314.62 185.35,245.28 185.49,339.75 185.58,220.53 185.76,330.45 185.83,280.37 186.01,357.63 186.11,315.83 186.24,214.34 186.41,367.74 186.48,261.71 186.66,358.30 186.74,266.25 186.90,231.33 187.04,263.50 187.13,274.58 187.32,232.66 187.38,270.48 187.56,259.89 187.67,285.99 187.79,271.77 187.96,329.11 188.03,353.37 188.22,308.73 188.30,301.68 188.45,313.78 188.60,336.15 188.68,231.91 188.87,332.41 188.93,294.01 189.11,166.44 189.23,308.97 189.34,299.99 189.51,309.35 189.58,345.44 189.77,330.81 189.85,364.08 190.00,276.26 190.15,320.31 190.23,352.69 190.42,311.93 190.49,358.24 190.66,211.15 190.78,237.25 190.89,246.86 191.07,333.97 191.13,308.18 191.32,339.54 191.41,281.66 191.55,197.65 191.71,299.78 191.78,213.57 191.97,212.36 192.04,323.40 192.21,181.23 192.34,292.05 192.44,216.46 192.62,263.38 192.68,244.99 192.87,214.22 192.96,323.04 193.10,357.15 193.26,286.45 193.33,314.63 193.52,262.49 193.60,294.94 193.76,223.96 193.90,326.28 193.99,228.23 194.17,300.68 194.24,322.44 194.42,269.57 194.52,337.22 194.65,279.36 194.82,335.19 194.89,352.88 195.08,320.04 195.15,252.85 195.31,265.85 195.45,286.23 195.54,383.33 195.73,345.17 195.79,302.22 195.97,226.04 196.08,272.69 196.20,252.98 196.37,370.70 196.44,295.69 196.63,312.04 196.71,395.56 196.86,218.39 197.01,375.12 197.09,260.17 197.28,237.75 197.34,331.03 197.52,218.51 197.64,292.79 197.75,219.98 197.93,249.14 197.99,238.62 198.18,225.77 198.26,298.21 198.41,357.95 198.56,250.48 198.64,236.47 198.83,266.84 198.90,331.66 199.07,180.36 199.19,236.59 199.30,181.99 199.48,246.35 199.54,272.31 199.73,238.02 199.82,270.15 199.96,205.19 200.12,284.94 200.19,218.58 200.38,285.62 200.45,226.55 200.62,340.79 200.75,298.24 200.85,291.25 201.03,271.66 201.10,233.93 201.28,183.51 201.37,367.89 201.51,284.43 201.67,322.23 201.75,288.00 201.93,216.73 202.01,284.55 202.17,209.06 202.31,369.57 202.40,202.98 202.58,342.97 202.65,262.00 202.83,346.69 202.93,386.92 203.06,280.22 203.23,291.87 203.30,253.10 203.49,250.49 203.56,257.23 203.72,273.23 203.86,344.33 203.95,252.00 204.14,305.61 204.20,345.13 204.38,201.44 204.49,319.55 204.61,316.01 204.78,307.45 204.85,370.86 205.04,279.83 205.12,314.36 205.27,283.87 205.42,332.36 205.50,295.33 205.69,344.53 205.76,385.10 205.93,153.68 206.05,343.21 206.16,235.54 206.34,300.96 206.40,311.90 206.59,275.59 206.67,349.89 206.82,309.22 206.97,346.37 207.05,327.00 207.24,295.25 207.31,241.91 207.48,243.08 207.60,275.65 207.71,281.25 207.89,238.35 207.95,349.72 208.14,242.51 208.23,298.14 208.37,241.00 208.53,282.80 208.60,228.26 208.79,367.10 208.86,236.42 209.03,168.05 209.16,241.03 209.26,330.66 209.44,272.26 209.51,302.17 209.69,177.74 209.79,228.37 209.92,195.60 210.08,404.85 210.16,259.01 210.35,353.86 210.42,279.20 210.58,261.48 210.72,343.63 210.81,241.57 211.00,341.68 211.06,316.70 211.24,225.45 211.34,244.00 211.47,368.69 211.64,350.91 211.71,302.99 211.90,261.09 211.97,336.65 212.13,216.26 212.27,316.33 212.36,185.66 212.55,357.24 212.61,299.09 212.79,222.94 212.90,304.17 213.02,180.90 213.19,364.25 213.26,304.40 213.45,237.92 213.53,278.22 213.68,177.09 213.83,249.66 213.91,260.41 214.10,350.00 214.17,272.78 214.34,217.07 214.46,301.80 214.57,312.67 214.75,327.69 214.81,265.08 215.00,232.53 215.08,296.00 215.23,223.33 215.38,291.83 215.46,260.33 215.65,347.45 215.72,244.21 215.89,337.65 216.01,267.63 216.12,320.10 216.30,363.55 216.36,275.92 216.55,248.56 216.64,383.18 216.78,178.16 216.94,283.39 217.02,240.07 217.20,237.04 217.27,305.75 217.44,212.62 217.57,299.68 217.67,260.85 217.85,267.58 217.92,279.17 218.10,270.59 218.20,319.66 218.33,404.66 218.49,324.25 218.57,270.07 218.76,235.89 218.83,292.84 218.99,245.57 219.13,348.65 219.22,254.89 219.41,379.68 219.47,348.36 219.65,214.50 219.75,326.88 219.88,152.12 220.05,287.73 220.12,358.69 220.31,211.00 220.38,347.96 220.54,320.64 220.68,288.16 220.77,343.45 220.96,328.87 221.02,333.06 221.20,421.70 221.31,278.35 221.43,336.21 221.60,316.15 221.67,409.62 221.86,315.13 221.94,260.16 222.09,338.06 222.24,334.27 222.32,279.78 222.51,395.85 222.58,306.08 222.75,258.58 222.87,315.29 222.98,266.53 223.16,298.35 223.22,259.20 223.41,179.95 223.49,358.98 223.64,299.14 223.79,312.79 223.87,334.39 224.06,238.22 224.13,274.99 224.30,208.91 224.42,305.48 224.53,363.87 224.71,306.93 224.77,252.94 224.96,411.61 225.05,274.98 225.19,279.03 225.35,269.53 225.43,283.00 225.62,280.09 225.68,370.25 225.85,386.43 225.98,302.37 226.08,280.18 226.26,292.54 226.33,296.16 226.51,387.51 226.61,266.09 226.74,158.05 226.91,345.47 226.98,317.45 227.17,235.87 227.24,311.28 227.40,231.81 227.54,306.74 227.63,234.38 227.82,362.70 227.88,303.58 228.06,251.56 228.16,255.59 228.29,186.43 228.46,283.20 228.53,314.73 228.72,290.20 228.79,324.59 228.95,209.52 229.09,368.34 229.18,296.80 229.37,319.15 229.43,270.36 229.61,237.77 229.72,302.72 229.84,289.59 230.01,295.47 230.08,228.45 230.27,310.39 230.35,376.29 230.50,351.17 230.65,245.49 230.73,216.38 230.92,372.69 230.99,332.53 231.16,245.39 231.28,323.12 231.39,322.98 231.57,326.18 231.63,341.33 231.82,327.65 231.90,334.94 232.05,338.81 232.21,267.86 232.29,257.13 232.47,223.75 232.54,260.71 232.71,234.43 232.83,286.84 232.94,179.53 233.12,273.13 233.19,324.69 233.37,385.32 233.46,340.41 233.60,211.27 233.76,289.58 233.84,210.85 234.03,226.64 234.10,288.61 234.26,262.72 234.39,360.62 234.49,278.82 234.67,285.15 234.74,343.58 234.92,291.69 235.02,280.73 235.15,301.30 235.32,296.20 235.39,281.15 235.58,316.62 235.65,363.33 235.81,206.72 235.95,325.77 236.04,324.53 236.23,327.52 236.29,247.36 236.47,314.82 236.57,264.64 236.70,281.27 236.87,292.91 236.94,299.37 237.13,342.37 237.20,309.09 237.36,205.48 237.50,333.86 237.59,290.31 237.78,222.43 237.84,271.34 238.02,184.56 238.13,317.88 238.25,290.07 238.42,309.96 238.49,258.37 238.68,257.16 238.76,270.89 238.91,154.19 239.06,297.72 239.15,258.52 239.33,207.08 239.40,374.82 239.57,286.19 239.69,313.86 239.80,282.84 239.98,271.53 240.04,346.11 240.23,277.97 240.32,360.81 240.46,297.27 240.62,334.01 240.70,387.48 240.89,316.38 240.95,326.55 241.12,414.64 241.24,361.97 241.35,284.91 241.53,385.72 241.60,364.97 241.78,265.73 241.87,266.39 242.01,297.72 242.17,294.69 242.25,375.79 242.44,259.37 242.51,251.22 242.67,272.04 242.80,372.62 242.90,261.42 243.09,297.61 243.15,363.82 243.33,258.83 243.43,292.78 243.56,184.09 243.73,288.75 243.80,305.63 243.99,247.13 244.06,311.27 244.22,287.88 244.36,273.07 244.45,338.52 244.64,268.95 244.70,282.71 244.88,364.84 244.98,261.99 245.11,256.43 245.28,274.67 245.35,292.64 245.54,251.97 245.62,330.01 245.77,335.39 245.91,396.10 246.01,392.55 246.19,340.68 246.25,336.60 246.43,318.56 246.54,276.29 246.66,160.01 246.83,324.03 246.90,327.59 247.09,264.33 247.17,256.60 247.33,378.73 247.47,297.40 247.56,392.26 247.74,279.33 247.81,372.47 247.98,230.57 248.10,334.47 248.21,264.60 248.39,367.81 248.45,233.89 248.64,238.45 248.73,272.20 248.88,248.62 249.03,307.25 249.11,301.16 249.30,271.83 249.36,342.69 249.53,358.36 249.66,265.50 249.76,268.35 249.94,247.48 250.01,333.16 250.19,222.73 250.28,406.03 250.42,256.40 250.58,283.64 250.66,290.96 250.85,247.05 250.92,268.71 251.09,342.07 251.21,296.80 251.32,229.24 251.50,244.56 251.56,304.77 251.74,285.24 251.84,325.89 251.97,368.07 252.14,316.64 252.21,225.30 252.40,372.12 252.47,341.41 252.64,201.47 252.77,337.62 252.87,268.59 253.05,240.55 253.11,376.95 253.29,260.72 253.39,252.65 253.52,265.09 253.69,288.19 253.76,310.66 253.95,266.81 254.03,286.28 254.19,301.60 254.33,318.58 254.42,380.53 254.60,238.50 254.67,258.02 254.85,299.42 254.95,296.16 255.08,176.12 255.25,246.89 255.31,362.45 255.50,319.80 255.58,253.80 255.74,158.92 255.88,305.11 255.97,170.51 256.15,359.62 256.22,326.90 256.40,238.60 256.51,272.88 256.63,262.64 256.80,348.25 256.87,248.88 257.05,235.89 257.14,255.68 257.29,272.36 257.44,366.81 257.52,205.24 257.71,316.47 257.77,329.33 257.95,336.57 258.07,345.59 258.18,216.71 258.35,244.57 258.42,338.14 258.60,262.06 258.69,278.95 258.84,272.09 258.99,264.72 259.07,289.36 259.26,281.80 259.33,353.22 259.50,308.16 259.62,296.38 259.73,314.80 259.91,248.21 259.97,318.93 260.16,219.67 260.25,249.56 260.39,307.51 260.55,292.41 260.62,281.11 260.81,235.21 260.88,274.79 261.05,267.04 261.18,250.21 261.28,259.88 261.46,268.11 261.52,277.96 261.71,331.33 261.80,334.59 261.94,343.51 262.10,279.08 262.17,262.07 262.36,211.02 262.44,300.11 262.60,349.56 262.74,400.51 262.83,155.11 263.01,296.25 263.08,295.20 263.26,310.25 263.36,301.08 263.49,288.52 263.66,344.21 263.72,273.39 263.91,273.98 263.99,337.71 264.15,360.25 264.29,270.04 264.38,223.08 264.57,239.28 264.63,314.99 264.81,298.26 264.92,368.45 265.04,266.13 265.21,327.00 265.28,279.63 265.46,325.26 265.55,287.91 265.70,221.47 265.85,379.80 265.93,173.59 266.12,340.21 266.18,265.45 266.36,253.88 266.48,263.81 266.59,206.45 266.76,307.30 266.83,269.86 267.02,348.47 267.10,281.56 267.25,336.67 267.40,388.41 267.48,281.03 267.67,243.31 267.74,309.24 267.91,217.38 268.03,289.01 268.14,383.88 268.32,236.08 268.38,349.71 268.57,400.92 268.66,292.64 268.80,215.08 268.96,265.60 269.03,286.54 269.22,245.52 269.29,258.76 269.46,296.82 269.59,334.27 269.69,218.84 269.87,259.60 269.93,304.91 270.12,333.20 270.21,294.87 270.35,280.42 270.51,263.67 270.58,318.02 270.77,331.17 270.85,341.75 271.01,255.02 271.15,407.39 271.24,316.88 271.42,364.88 271.49,275.19 271.67,218.93 271.77,295.11 271.90,273.36 272.07,276.14 272.14,345.62 272.32,224.74 272.40,283.69 272.56,307.31 272.70,267.86 272.79,191.03 272.98,303.07 273.04,336.20 273.22,352.21 273.33,298.09 273.45,221.50 273.62,271.58 273.69,275.14 273.87,271.32 273.96,312.73 274.11,198.53 274.26,258.44 274.34,241.41 274.53,262.17 274.59,383.14 274.77,203.15 274.89,316.86 275.00,186.72 275.17,397.08 275.24,362.01 275.43,201.32 275.51,234.36 275.66,229.41 275.81,287.43 275.89,320.82 276.08,178.64 276.15,323.31 276.32,234.52 276.44,300.00 276.55,279.14 276.73,328.22 276.79,265.34 276.98,247.89 277.07,299.03 277.21,272.26 277.37,389.40 277.44,353.45 277.63,294.07 277.70,352.73 277.87,278.72 278.00,333.58 278.10,340.08 278.28,287.73 278.34,311.03 278.53,297.14 278.63,255.52 278.76,305.04 278.92,327.50 278.99,232.73 279.18,254.05 279.26,284.79 279.42,215.45 279.56,348.65 279.65,263.83 279.83,282.73 279.90,336.06 280.08,314.39 280.18,301.61 280.31,287.68 280.48,289.67 280.55,217.65 280.74,264.32 280.81,266.03 280.97,293.37 281.11,264.29 281.20,267.44 281.39,231.13 281.45,268.28 281.63,190.95 281.74,340.17 281.86,231.53 282.03,372.14 282.10,350.15 282.29,258.76 282.37,288.47 282.52,141.63 282.67,256.05 282.75,314.08 282.94,331.39 283.00,294.90 283.18,337.21 283.30,269.06 283.41,306.33 283.59,233.74 283.65,369.73 283.84,234.60 283.92,302.42 284.07,197.97 284.22,261.99 284.30,274.72 284.49,226.55 284.56,303.37 284.73,269.08 284.85,288.48 284.96,275.87 285.14,345.28 285.20,334.95 285.39,253.45 285.48,359.41 285.62,255.03 285.78,353.83 285.85,230.72 286.04,285.98 286.11,262.95 286.28,198.80 286.41,285.64 286.51,227.88 286.69,347.97 286.76,254.41 286.94,214.80 287.04,326.14 287.17,374.59 287.33,360.83 287.40,219.53 287.59,325.74 287.67,251.85 287.83,353.35 287.97,284.17 288.06,279.92 288.24,319.29 288.31,341.62 288.49,354.30 288.59,265.70 288.72,295.03 288.89,326.57 288.96,295.45 289.15,353.65 289.22,342.73 289.38,270.46 289.52,365.74 289.61,192.56 289.80,239.28 289.86,232.43 290.04,124.51 290.15,324.38 290.27,229.37 290.44,391.80 290.51,197.53 290.70,226.54 290.78,323.26 290.93,267.73 291.08,280.88 291.16,372.43 291.35,407.00 291.42,332.14 291.59,357.20 291.71,343.11 291.82,233.86 292.00,376.52 292.06,330.50 292.25,391.13 292.33,301.54 292.48,272.86 292.63,282.27 292.71,274.92 292.90,374.89 292.97,262.33 293.14,298.43 293.26,266.62 293.37,343.34 293.55,291.60 293.61,212.28 293.80,226.06 293.89,231.89 294.03,233.45 294.19,355.22 294.26,344.18 294.45,292.93 294.52,240.25 294.69,218.53 294.82,368.65 294.92,211.40 295.10,267.63 295.17,370.12 295.35,216.07 295.45,299.07 295.58,268.55 295.74,333.53 295.82,372.70 296.01,326.29 296.08,359.39 296.24,185.00 296.38,310.80 296.47,262.16 296.66,335.61 296.72,349.56 296.90,210.52 297.00,342.82 297.13,238.53 297.30,295.16 297.37,307.20 297.56,321.84 297.63,287.86 297.79,283.78 297.93,337.72 298.02,214.41 298.21,309.40 298.27,284.95 298.45,361.68 298.56,306.72 298.68,267.91 298.85,377.89 298.92,280.67 299.11,377.02 299.19,386.68 299.34,308.89 299.49,398.06 299.57,248.06 299.76,242.73 299.83,348.28 300.00,246.69 300.12,328.19 300.23,297.83 300.41,256.49 300.47,345.79 300.66,312.38 300.74,285.14 300.89,299.83 301.05,337.74 301.12,210.54 301.31,259.87 301.38,335.78 301.55,219.35 301.67,277.58 301.78,372.12 301.96,302.53 302.02,217.11 302.21,208.33 302.30,359.23 302.44,294.31 302.60,306.01 302.68,346.85 302.86,215.16 302.93,286.51 303.10,330.99 303.23,259.47 303.33,255.27 303.51,306.76 303.58,253.12 303.76,277.01 303.86,316.06 303.99,186.92 304.15,310.13 304.23,279.30 304.42,214.05 304.49,325.08 304.65,164.13 304.79,276.56 304.88,339.45 305.07,242.95 305.13,337.18 305.31,202.53 305.41,317.17 305.54,216.17 305.71,295.96 305.78,362.93 305.97,238.40 306.04,282.72 306.20,419.64 306.34,320.57 306.43,274.49 306.62,272.65 306.68,256.24 306.86,202.78 306.97,314.00 307.09,311.09 307.26,307.57 307.33,328.61 307.52,207.66 307.60,328.44 307.75,314.05 307.90,302.95 307.98,247.80 308.17,302.44 308.24,326.19 308.41,244.28 308.53,246.53 308.64,299.95 308.82,269.55 308.88,349.27 309.07,205.94 309.15,284.64 309.30,366.22 309.46,258.70 309.53,314.14 309.72,281.81 309.79,362.70 309.96,327.49 310.09,302.10 310.19,314.32 310.37,366.94 310.43,306.45 310.62,238.39 310.71,274.24 310.85,339.40 311.01,341.60 311.09,211.74 311.28,313.57 311.34,322.23 311.51,233.44 311.64,278.50 311.74,379.58 311.92,328.84 311.99,270.24 312.17,218.07 312.27,314.83 312.40,290.33 312.57,290.37 312.64,323.60 312.83,329.23 312.90,249.41 313.06,166.65 313.20,326.04 313.29,258.12 313.48,338.09 313.54,298.57 313.72,238.14 313.82,278.19 313.95,353.84 314.12,330.20 314.19,213.85 314.38,342.89 314.45,299.37 314.61,297.81 314.75,331.20 314.84,259.87 315.03,287.50 315.09,239.09 315.27,231.83 315.38,292.12 315.50,236.16 315.67,339.24 315.74,252.72 315.93,335.03 316.01,308.81 316.16,209.27 316.31,357.66 316.39,316.40 316.58,312.93 316.65,309.71 316.82,281.92 316.94,260.14 317.05,181.70 317.23,271.84 317.29,292.76 317.48,244.20 317.57,276.17 317.71,259.78 317.87,274.82 317.95,381.66 318.13,233.58 318.20,299.10 318.37,209.60 318.50,257.46 318.60,201.82 318.78,267.61 318.85,352.59 319.03,259.74 319.12,394.42 319.26,212.37 319.42,357.78 319.50,250.32 319.69,240.72 319.76,307.95 319.92,205.03 320.05,297.76 320.15,214.61 320.33,339.63 320.40,312.31 320.58,285.57 320.68,275.35 320.81,236.37 320.98,295.16 321.05,291.48 321.24,315.71 321.31,311.51 321.47,173.78 321.61,389.67 321.70,218.36 321.89,273.96 321.95,326.48 322.13,165.83 322.23,342.06 322.36,259.85 322.53,326.75 322.60,328.93 322.79,222.12 322.86,304.84 323.02,340.48 323.17,298.32 323.25,225.20 323.44,367.81 323.50,282.77 323.68,349.27 323.79,316.68 323.91,279.40 324.08,286.40 324.15,385.14 324.34,197.01 324.42,338.38 324.57,200.78 324.72,297.04 324.80,185.10 324.99,251.09 325.06,331.37 325.23,215.08 325.35,231.64 325.46,199.72 325.64,325.62 325.70,304.97 325.89,240.90 325.98,391.67 326.12,286.67 326.28,294.48 326.36,195.91 326.55,325.22 326.61,279.17 326.78,290.36 326.91,342.68 327.01,210.98 327.19,298.50 327.26,277.87 327.44,249.05 327.53,325.44 327.67,292.03 327.83,331.19 327.91,203.08 328.10,300.81 328.17,222.63 328.33,242.54 328.46,264.17 328.56,326.35 328.75,370.32 328.81,270.22 328.99,283.98 329.09,271.78 329.22,280.33 329.39,253.12 329.46,212.07 329.65,246.40 329.72,361.55 329.88,165.29 330.02,271.36 330.11,325.02 330.30,311.99 330.36,217.19 330.54,334.91 330.64,322.10 330.77,226.94 330.94,297.59 331.01,291.49 331.20,340.76 331.28,309.82 331.43,373.02 331.58,352.63 331.66,258.18 331.85,223.08 331.91,312.74 332.09,173.78 332.20,260.52 332.32,285.36 332.50,306.62 332.56,239.48 332.75,302.35 332.83,269.34 332.98,280.92 333.13,301.74 333.22,244.92 333.40,210.96 333.47,231.31 333.64,290.38 333.76,288.55 333.87,335.08 334.05,370.92 334.11,313.40 334.30,292.47 334.39,227.04 334.53,325.51 334.69,337.92 334.77,304.69 334.96,246.96 335.02,383.54 335.19,323.87 335.32,246.82 335.42,368.02 335.60,328.67 335.67,312.32 335.85,320.07 335.94,333.82 336.08,275.56 336.24,332.17 336.32,355.79 336.51,237.06 336.58,291.84 336.75,179.40 336.87,309.13 336.97,182.96 337.16,295.70 337.22,306.58 337.40,291.00 337.50,328.31 337.63,283.65 337.80,376.17 337.87,304.25 338.06,300.48 338.13,302.63 338.30,335.77 338.43,275.95 338.53,350.89 338.71,306.75 338.77,260.93 338.95,169.51 339.06,297.82 339.18,251.36 339.35,365.09 339.42,357.44 339.61,371.26 339.69,266.26 339.85,203.92 339.99,355.24 340.08,234.45 340.26,365.12 340.33,322.33 340.51,181.77 340.61,331.06 340.73,173.85 340.91,241.14 340.97,357.68 341.16,303.93 341.24,299.53 341.39,251.05 341.54,272.80 341.63,258.67 341.81,402.20 341.88,269.92 342.06,152.90 342.17,281.55 342.28,263.96 342.46,284.89 342.53,284.68 342.71,270.01 342.80,320.05 342.94,201.44 343.10,296.46 343.18,338.60 343.37,266.53 343.43,280.35 343.61,220.93 343.73,295.85 343.84,192.33 344.01,310.27 344.08,287.43 344.26,348.04 344.35,374.86 344.50,185.07 344.65,274.02 344.73,223.74 344.92,359.10 344.99,313.07 345.16,249.50 345.28,327.26 345.39,203.40 345.57,272.03 345.63,280.33 345.82,271.62 345.91,376.89 346.05,241.12 346.21,361.18 346.28,323.66 346.47,301.14 346.54,346.88 346.71,255.53 346.84,347.05 346.94,345.59 347.12,241.88 347.18,328.73 347.37,214.88 347.47,330.50 347.60,235.56 347.76,245.75 347.83,301.75 348.02,307.04 348.10,289.87 348.26,369.54 348.40,315.71 348.49,218.55 348.67,311.77 348.74,282.58 348.92,369.79 349.02,303.49 349.15,270.77 349.32,304.97 349.38,340.50 349.57,213.68 349.65,310.03 349.81,321.57 349.95,336.86 350.04,285.89 350.22,278.12 350.29,366.13 350.47,310.77 350.58,292.01 350.70,218.87 350.87,343.83 350.94,246.93 351.12,262.03 351.21,288.64 351.36,225.03 351.51,301.07 351.59,360.51 351.78,248.08 351.84,266.37 352.02,344.44 352.14,288.67 352.25,282.00 352.42,329.00 352.49,272.34 352.67,293.05 352.76,260.54 352.91,285.45 353.06,285.88 353.14,280.21 353.33,273.92 353.40,384.41 353.57,247.40 353.69,273.98 353.80,266.59 353.98,318.42 354.04,273.97 354.23,292.68 354.32,237.79 354.46,317.75 354.62,322.36 354.69,283.44 354.88,315.51 354.95,362.76 355.12,266.75 355.25,344.19 355.35,279.31 355.53,313.01 355.59,322.19 355.78,276.64 355.88,304.72 356.01,159.85 356.17,356.75 356.24,366.70 356.43,186.36 356.51,312.93 356.67,262.72 356.81,347.10 356.90,298.15 357.08,355.25 357.15,317.80 357.33,179.01 357.43,354.81 357.56,306.53 357.73,273.18 357.79,295.51 357.98,219.18 358.06,384.80 358.22,288.91 358.36,331.97 358.45,235.00 358.64,266.50 358.70,357.46 358.88,236.24 358.99,348.24 359.11,267.45 359.28,264.58 359.35,353.35 359.54,321.40 359.62,263.27 359.77,240.95 359.92,252.42 360.00,374.24 360.19,271.74 360.25,298.44 360.43,335.73 360.55,269.28 360.66,309.39 360.84,332.50 360.90,330.23 361.09,317.03 361.17,252.02 361.32,258.36 361.47,268.48 361.55,340.67 361.74,224.10 361.81,331.38 361.98,370.69 362.10,292.07 362.21,191.65 362.39,289.41 362.45,261.83 362.64,351.49 362.73,372.80 362.87,260.12 363.03,288.88 363.10,361.57 363.29,231.75 363.36,346.59 363.53,222.81 363.66,300.02 363.76,306.05 363.94,291.13 364.00,406.98 364.19,261.70 364.29,258.31 364.42,221.42 364.58,262.24 364.65,379.33 364.84,335.08 364.92,354.77 365.08,245.53 365.22,318.25 365.31,234.51 365.49,278.84 365.56,301.40 365.74,183.87 365.84,294.11 365.97,142.32 366.14,357.15 366.21,339.88 366.39,254.96 366.47,313.37 366.63,200.70 366.77,271.53 366.86,212.81 367.05,377.39 367.11,315.80 367.29,363.84 367.40,364.01 367.52,328.02 367.69,285.55 367.76,283.34 367.95,303.39 368.03,295.18 368.18,249.91 368.33,250.16 368.41,270.57 368.60,291.87 368.67,328.94 368.84,250.72 368.96,328.10 369.07,209.87 369.25,297.36 369.31,309.36 369.50,237.42 369.58,380.49 369.73,314.21 369.88,263.36 369.96,398.47 370.15,233.24 370.22,394.97 370.39,298.15 370.51,363.59 370.62,170.80 370.80,360.55 370.86,234.25 371.05,265.44 371.14,271.52 371.28,183.28 371.44,278.83 371.51,331.38 371.70,204.97 371.77,316.84 371.94,346.08 372.07,320.83 372.17,368.53 372.35,332.38 372.42,233.33 372.60,152.46 372.70,301.90 372.83,211.86 372.99,313.53 373.06,274.69 373.25,231.15 373.33,305.62 373.49,354.02 373.63,368.78 373.72,201.32 373.90,243.58 373.97,246.94 374.15,153.23 374.25,259.26 374.38,213.17 374.55,246.27 374.62,252.45 374.81,248.19 374.88,270.60 375.04,265.78 375.18,369.19 375.27,297.88 375.46,257.98 375.52,293.78 375.70,313.94 375.81,259.83 375.93,217.76 376.10,347.69 376.17,314.18 376.36,215.14 376.44,246.71 376.59,303.26 376.74,271.69 376.82,230.35 377.01,323.38 377.08,257.06 377.25,297.70 377.37,292.71 377.48,314.77 377.66,257.10 377.72,310.66 377.91,176.49 377.99,356.74 378.14,314.48 378.30,338.92 378.37,253.78 378.56,254.99 378.63,381.42 378.80,297.13 378.93,264.47 379.03,209.37 379.21,262.19 379.27,307.66 379.46,275.02 379.55,343.48 379.69,337.90 379.85,388.58 379.92,301.09 380.11,312.89 380.18,232.71 380.35,210.10 380.48,307.73 380.58,218.98 380.76,329.77 380.83,280.12 381.01,316.33 381.11,320.52 381.24,235.15 381.40,251.15 381.48,362.66 381.67,222.39 381.74,262.80 381.90,254.29 382.04,379.36 382.13,226.42 382.32,301.40 382.38,286.20 382.56,386.94 382.66,282.30 382.79,322.15 382.96,292.49 383.03,317.57 383.22,305.48 383.29,299.93 383.45,206.70 383.59,282.84 383.68,298.29 383.87,259.43 383.93,248.83 384.11,275.66 384.22,362.10 384.34,195.18 384.51,307.94 384.58,318.78 384.77,347.84 384.85,287.36 385.00,356.74 385.15,255.54 385.23,196.08 385.42,245.97 385.49,391.91 385.66,338.50 385.78,261.71 385.89,326.86 386.07,286.36 386.13,325.98 386.32,210.37 386.41,308.80 386.55,342.92 386.71,322.20 386.78,311.27 386.97,336.83 387.04,277.63 387.21,234.22 387.34,326.92 387.44,318.33 387.62,303.03 387.68,257.55 387.87,188.97 387.96,264.64 388.10,237.86 388.26,283.44 388.33,268.45 388.52,230.19 388.59,308.20 388.76,277.41 388.89,304.48 388.99,219.83 389.17,242.06 389.24,355.67 389.42,333.15 389.52,298.82 389.65,241.62 389.82,394.90 389.89,267.17 390.08,271.04 390.15,308.09 390.31,305.97 390.45,325.36 390.54,259.94 390.73,251.62 390.79,317.53 390.97,367.52 391.07,308.75 391.20,214.51 391.37,297.57 391.44,271.61 391.63,205.74 391.70,272.07 391.86,250.64 392.01,295.38 392.09,250.08 392.28,268.00 392.34,340.15 392.52,183.50 392.63,317.11 392.75,318.20 392.92,379.31 392.99,221.90 393.18,254.11 393.26,339.47 393.41,330.67 393.56,281.76 393.64,310.86 393.83,359.00 393.90,273.76 394.07,270.04 394.19,235.74 394.30,197.39 394.48,367.90 394.54,242.34 394.73,232.36 394.82,357.61 394.96,373.38 395.12,276.21 395.19,324.82 395.38,355.87 395.45,335.20 395.62,265.75 395.75,326.97 395.85,188.25 396.03,301.81 396.09,287.86 396.28,282.63 396.37,307.61 396.51,352.19 396.67,291.81 396.75,337.39 396.94,342.68 397.01,302.01 397.17,230.56 397.30,273.99 397.40,278.44 397.58,290.78 397.65,385.00 397.83,257.81 397.93,297.57 398.06,293.34 398.23,364.11 398.30,294.62 398.49,313.91 398.56,362.27 398.72,233.41 398.86,296.08 398.95,304.12 399.14,300.26 399.20,272.61 399.38,285.60 399.48,238.66 399.61,220.55 399.78,261.69 399.85,299.90 400.04,351.12 400.12,315.17 400.27,215.57 400.42,359.94 400.50,241.81 400.69,277.67 400.75,282.63 400.93,254.92 401.04,342.63 401.16,409.16 401.33,369.12 401.40,290.76 401.59,267.40 401.67,268.89 401.82,314.90 401.97,234.50 402.05,301.04 402.24,289.57 402.31,270.86 402.48,257.23 402.60,315.85 402.71,233.34 402.89,280.49 402.95,348.47 403.14,238.80 403.23,290.85 403.37,304.34 403.53,323.25 403.61,214.72 403.79,268.98 403.86,377.07 404.03,276.79 404.16,346.96 404.26,257.67 404.44,268.85 404.51,351.82 404.69,310.73 404.78,350.09 404.92,240.82 405.08,311.32 405.16,263.54 405.35,288.80 405.42,251.12 405.58,282.39 405.71,253.47 405.81,343.19 405.99,324.47 406.06,318.09 406.24,281.94 406.34,317.08 406.47,316.88 406.64,362.93 406.71,259.12 406.90,230.99 406.97,237.95 407.13,251.43 407.27,368.52 407.36,282.74 407.55,326.79 407.61,273.41 407.79,235.06 407.90,334.01 408.02,231.64 408.19,258.01 408.26,304.80 408.45,314.19 408.53,279.37 408.68,245.26 408.83,257.59 408.91,241.02 409.10,286.34 409.16,299.23 409.34,242.49 409.45,301.01 409.57,293.72 409.75,302.57 409.81,269.26 410.00,355.15 410.08,284.32 410.23,348.62 410.38,349.04 410.46,339.22 410.65,248.41 410.72,247.75 410.89,222.60 411.01,372.94 411.12,380.19 411.30,283.80 411.36,337.72 411.55,283.70 411.64,267.06 411.78,261.86 411.94,363.78 412.02,256.70 412.21,242.88 412.27,281.23 412.44,295.89 412.57,317.49 412.67,276.83 412.85,262.36 412.92,254.93 413.10,310.37 413.19,315.23 413.33,175.80 413.49,275.43 413.57,403.96 413.76,287.34 413.83,279.98 413.99,258.01 414.12,336.33 414.22,300.74 414.41,232.51 414.47,251.95 414.65,319.51 414.75,377.78 414.88,214.23 415.05,313.39 415.12,281.48 415.31,256.23 415.38,348.08 415.54,316.39 415.68,316.10 415.77,260.02 415.96,338.06 416.02,335.56 416.20,363.05 416.31,251.71 416.43,295.72 416.60,218.09 416.67,303.82 416.86,325.96 416.94,280.21 417.09,198.94 417.24,280.74 417.33,195.73 417.51,303.17 417.58,308.42 417.75,353.85 417.86,301.73 417.98,231.18 418.16,307.31 418.22,249.90 418.41,330.05 418.49,372.03 418.64,182.91 418.79,304.28 418.88,247.49 419.06,221.72 419.13,315.50 419.30,300.00 419.42,322.40 419.53,331.67 419.71,325.79 419.77,294.49 419.96,223.20 420.05,258.97 420.19,360.39 420.35,373.20 420.43,252.14 420.62,270.52 420.68,408.39 420.85,248.77 420.98,337.02 421.08,322.25 421.26,371.75 421.33,289.56 421.51,358.93 421.60,238.68 421.74,381.38 421.90,243.36 421.98,207.75 422.17,328.70 422.24,312.46 422.40,400.75 422.53,327.27 422.63,272.31 422.82,346.72 422.88,397.64 423.06,383.68 423.16,278.84 423.29,185.23 423.46,283.69 423.53,341.75 423.72,368.50 423.79,328.03 423.95,365.49 424.09,377.25 424.18,368.25 424.37,346.45 424.43,253.75 424.61,370.36 424.72,352.11 424.84,339.41 425.01,285.09 425.08,267.76 425.27,346.60 425.35,387.68 425.50,298.43 425.65,343.99 425.74,211.55 425.92,322.90 425.99,277.92 426.16,252.58 426.27,291.65 426.39,177.01 426.57,297.87 426.63,301.97 426.82,353.49 426.90,274.87 427.05,353.02 427.20,304.19 427.29,257.31 427.47,358.54 427.54,258.15 427.71,240.41 427.83,285.45 427.94,249.17 428.12,314.14 428.19,349.05 428.37,323.04 428.46,304.35 428.60,222.80 428.76,323.33 428.84,255.91 429.03,228.00 429.09,335.21 429.27,235.55 429.39,279.36 429.49,318.08 429.67,264.27 429.74,318.10 429.92,190.30 430.01,351.55 430.15,316.49 430.31,353.47 430.39,312.80 430.58,215.23 430.65,304.86 430.81,319.39 430.94,316.77 431.04,282.11 431.23,266.22 431.29,291.21 431.47,236.09 431.57,333.12 431.70,230.77 431.87,318.08 431.94,305.72 432.13,294.35 432.20,371.59 432.36,246.66 432.50,313.76 432.60,265.30 432.78,269.27 432.84,348.94 433.02,302.93 433.13,312.60 433.25,297.27 433.42,301.65 433.49,293.40 433.68,247.00 433.76,260.93 433.92,181.80 434.06,263.41 434.15,300.04 434.33,375.89 434.40,386.69 434.58,248.04 434.68,325.62 434.80,371.03 434.98,311.09 435.04,271.13 435.23,216.90 435.31,299.66 435.47,319.94 435.61,265.08 435.70,345.99 435.88,366.70 435.95,299.81 436.13,232.56 436.24,262.26 436.35,277.24 436.53,277.75 436.60,412.12 436.78,299.76 436.87,274.99 437.02,352.28 437.17,268.60 437.25,284.16 437.44,273.24 437.50,302.87 437.68,284.07 437.80,313.41 437.91,226.86 438.08,348.32 438.15,264.85 438.33,249.28 438.42,333.97 438.57,339.28 438.72,357.09 438.80,326.95 438.99,209.65 439.06,305.84 439.23,216.01 439.36,293.56 439.46,277.42 439.64,307.59 439.70,232.50 439.88,244.88 439.98,275.61 440.12,300.58 440.28,372.28 440.35,268.28 440.54,306.83 440.61,329.66 440.78,275.51 440.91,319.00 441.01,354.70 441.19,356.40 441.25,358.28 441.44,269.98 441.54,309.37 441.67,199.80 441.83,291.69 441.90,268.98 442.09,191.56 442.17,306.24 442.33,158.05 442.47,257.52 442.56,233.77 442.74,335.14 442.81,332.65 442.99,321.37 443.09,252.44 443.22,204.60 443.39,263.24 443.45,258.37 443.64,294.98 443.72,283.73 443.88,278.92 444.02,263.34 444.11,325.06 444.30,348.79 444.36,318.92 444.54,364.52 444.65,239.74 444.77,272.92 444.94,361.54 445.01,268.69 445.19,329.40 445.28,284.04 445.43,286.40 445.58,306.59 445.66,349.25 445.85,243.38 445.92,293.70 446.09,167.11 446.21,301.47 446.32,255.33 446.50,331.83 446.56,334.40 446.75,353.29 446.83,338.15 446.98,327.23 447.13,281.25 447.21,217.96 447.40,325.31 447.47,254.58 447.64,181.04 447.77,286.24 447.87,294.13 448.05,318.96 448.11,302.14 448.30,257.56 448.39,370.28 448.53,272.80 448.69,300.90 448.76,407.39 448.95,273.11 449.02,368.29 449.19,226.36 449.32,371.56 449.42,350.55 449.60,271.62 449.67,377.35 449.85,295.10 449.95,298.90 450.08,258.63 450.24,299.77 450.31,219.20 450.50,294.38 450.58,318.77 450.74,294.45 450.88,406.82 450.97,328.72 451.15,316.04 451.22,378.77 451.40,352.29 451.50,279.65 451.63,309.41 451.80,291.29 451.87,334.31 452.05,282.93 452.13,308.83 452.29,388.23 452.43,313.49 452.52,247.72 452.71,298.79 452.77,341.69 452.95,266.36 453.06,298.19 453.18,275.53 453.35,276.07 453.42,221.60 453.61,283.29 453.69,283.67 453.84,207.08 453.99,315.81 454.07,236.75 454.26,301.92 454.33,393.80 454.50,371.68 454.62,303.57 454.73,251.65 454.91,285.92 454.97,273.55 455.16,302.80 455.25,346.29 455.39,207.17 455.55,342.05 455.62,239.28 455.81,253.40 455.88,337.63 456.05,248.00 456.18,275.24 456.28,203.77 456.46,269.12 456.52,273.49 456.71,259.36 456.80,221.08 456.94,168.21 457.10,333.49 457.17,228.49 457.36,247.25 457.43,315.98 457.60,363.59 457.73,322.28 457.83,294.79 458.01,400.94 458.08,342.05 458.26,343.13 458.36,298.45 458.49,276.35 458.65,320.15 458.72,260.71 458.91,225.76 458.99,344.90 459.15,228.81 459.29,328.73 459.38,196.08 459.56,288.81 459.63,381.21 459.81,304.94 459.91,318.56 460.04,213.04 460.21,264.61 460.28,322.77 460.47,302.39 460.54,210.79 460.70,310.06 460.84,328.64 460.93,338.72 461.12,278.11 461.18,336.04 461.36,282.77 461.47,291.81 461.59,235.72 461.76,348.74 461.83,246.35 462.02,320.13 462.10,325.31 462.25,325.05 462.40,325.30 462.48,272.76 462.67,259.38 462.74,354.50 462.91,122.34 463.03,323.38 463.14,217.29 463.32,347.80 463.38,252.29 463.57,246.88 463.66,338.52 463.80,334.93 463.96,319.61 464.03,293.61 464.22,234.41 464.29,303.95 464.46,168.62 464.59,267.75 464.69,296.32 464.87,269.69 464.93,340.64 465.12,277.68 465.21,337.30 465.35,277.93 465.51,290.83 465.58,333.97 465.77,271.57 465.84,365.45 466.01,336.12 466.14,357.41 466.24,359.86 466.42,342.02 466.49,311.99 466.67,264.46 466.77,291.89 466.90,208.05 467.07,320.53 467.13,274.32 467.32,324.37 467.40,299.15 467.56,275.79 467.70,344.95 467.79,274.56 467.98,292.23 468.04,262.33 468.22,266.54 468.33,381.97 468.45,279.19 468.62,357.95 468.69,358.54 468.88,230.06 468.95,426.44 469.11,282.38 469.26,322.83 469.34,246.17 469.53,233.26 469.59,270.84 469.77,195.74 469.88,296.71 470.00,276.71 470.17,275.29 470.24,252.86 470.43,264.45 470.51,294.26 470.66,312.58 470.81,251.83 470.89,237.09 471.08,342.41 471.15,227.91 471.32,215.13 471.44,235.40 471.55,245.04 471.73,351.30 471.79,284.04 471.98,354.65 472.07,272.49 472.21,172.34 472.37,336.90 472.44,260.34 472.63,235.76 472.70,373.82 472.87,276.50 473.00,326.86 473.10,376.27 473.28,351.63 473.34,261.76 473.53,210.29 473.62,266.33 473.76,284.58 473.92,370.73 473.99,261.57 474.18,217.72 474.26,285.36 474.42,213.90 474.55,258.49 474.65,251.88 474.83,334.46 474.90,372.37 475.08,355.52 475.18,369.69 475.31,139.99 475.48,216.29 475.55,232.44 475.74,231.64 475.81,320.14 475.97,254.08 476.11,293.41 476.20,317.84 476.39,223.44 476.45,317.46 476.63,324.71 476.74,238.39 476.86,221.38 477.03,331.30 477.10,252.78 477.29,227.78 477.37,365.35 477.52,336.44 477.67,261.65 477.75,265.72 477.94,305.67 478.00,335.76 478.18,354.81 478.29,271.11 478.41,305.54 478.58,309.31 478.65,284.93 478.84,364.10 478.92,301.94 479.07,242.60 479.22,277.50 479.30,318.09 479.49,310.91 479.56,334.62 479.73,258.93 479.85,317.09 479.96,331.20 480.14,267.78 480.20,261.17 480.39,158.54 480.48,320.83 480.62,299.57 480.78,299.23 480.85,273.14 481.04,310.11 481.11,327.42 481.28,260.56 481.41,341.58 481.51,169.96 481.69,270.21 481.75,362.14 481.94,371.07 482.03,349.38 482.17,297.01 482.33,366.43 482.40,341.56 482.59,367.65 482.67,292.97 482.83,319.32 482.96,301.90 483.06,196.38 483.24,374.01 483.31,297.45 483.49,203.72 483.59,344.20 483.72,272.33 483.89,325.86 483.96,228.79 484.15,328.32 484.22,350.19 484.38,241.54 484.52,365.28 484.61,394.14 484.80,273.47 484.86,357.13 485.04,313.88 485.15,276.44 485.27,204.31 485.44,288.08 485.51,274.78 485.70,334.49 485.78,292.91 485.93,330.65 486.08,304.28 486.16,243.04 486.35,300.86 486.41,334.60 486.59,149.13 486.70,286.88 486.82,270.82 487.00,332.64 487.06,291.44 487.25,347.71 487.33,276.09 487.48,299.56 487.63,315.32 487.71,385.70 487.90,258.05 487.97,245.94 488.14,233.87 488.26,280.48 488.37,217.63 488.55,224.95 488.61,318.35 488.80,278.87 488.89,274.97 489.03,258.52 489.19,345.48 489.26,347.46 489.45,392.07 489.52,258.35 489.69,253.16 489.82,294.49 489.92,214.34 490.10,255.94 490.17,285.18 490.35,318.64 490.44,272.50 490.58,174.66 490.74,358.81 490.82,368.64 491.01,267.68 491.08,351.86 491.24,236.27 491.37,294.64 491.47,353.25 491.66,334.86 491.72,323.88 491.90,195.67 492.00,339.45 492.13,175.20 492.30,302.43 492.37,241.09 492.56,202.15 492.63,345.35 492.79,417.83 492.93,348.82 493.02,246.76 493.21,343.57 493.27,336.44 493.45,180.34 493.56,299.11 493.68,229.92 493.85,279.64 493.92,256.36 494.11,299.51 494.19,288.86 494.34,201.13 494.49,285.48 494.57,286.87 494.76,275.09 494.82,368.69 495.00,299.82 495.11,287.94 495.23,210.66 495.41,338.01 495.47,298.65 495.66,261.81 495.74,247.14 495.89,222.46 496.04,288.23 496.12,196.30 496.31,319.66 496.38,316.37 496.55,332.47 496.67,311.30 496.78,279.54 496.96,288.82 497.02,243.28 497.21,244.52 497.30,270.23 497.44,222.75 497.60,284.62 497.68,305.53 497.86,298.70 497.93,242.31 498.10,259.30 498.23,262.80 498.33,270.69 498.51,272.20 498.58,389.10 498.76,234.14 498.85,253.58 498.99,196.50 499.15,317.50 499.23,355.96 499.42,330.42 499.49,325.13 499.65,187.40 499.79,315.08 499.88,305.68 500.07,412.48 500.13,276.81 500.31,293.29 500.41,353.50 500.54,343.43 500.71,339.37 500.78,266.69 500.97,282.12 501.04,380.62 501.20,275.92 501.34,325.84 501.43,180.53 501.62,400.41 501.68,307.58 501.86,185.19 501.97,275.87 502.09,300.42 502.26,311.93 502.33,249.12 502.52,301.73 502.60,260.09 502.75,180.92 502.90,324.29 502.98,350.30 503.17,325.60 503.24,268.62 503.41,288.27 503.52,287.42 503.64,256.36 503.82,270.22 503.88,299.14 504.07,322.70 504.15,241.63 504.30,330.04 504.45,331.39 504.54,188.96 504.72,276.50 504.79,296.67 504.96,364.21 505.08,326.35 505.19,201.18 505.37,281.63 505.43,289.22 505.62,360.32 505.71,299.95 505.85,164.53 506.01,266.46 506.09,242.08 506.28,343.00 506.34,336.80 506.51,349.98 506.64,321.55 506.74,263.86 506.92,376.55 506.99,276.09 507.17,291.07 507.26,328.13 507.40,392.43 507.56,325.86 507.64,304.72 507.83,360.55 507.90,328.52 508.06,303.24 508.20,328.45 508.29,341.74 508.48,338.31 508.54,259.25 508.72,336.45 508.82,326.86 508.95,264.91 509.12,295.52 509.19,251.86 509.38,274.52 509.45,286.64 509.61,222.13 509.75,336.75 509.84,287.81 510.03,264.07 510.09,299.08 510.27,302.26 510.38,320.07 510.50,220.79 510.67,302.62 510.74,274.14 510.93,223.33 511.01,259.91 511.16,301.41 511.31,291.95 511.39,261.55 511.58,258.73 511.65,296.27 511.82,210.69 511.93,279.30 512.05,313.77 512.23,387.18 512.29,273.51 512.48,336.30 512.56,393.65 512.71,363.48 512.86,252.56 512.95,348.84 513.13,216.54 513.20,378.95 513.37,287.74 513.49,398.05 513.60,210.95 513.78,337.39 513.85,305.72 514.03,350.27 514.12,362.58 514.26,232.57 514.42,298.19 514.50,341.60 514.69,369.61 514.75,296.84 514.92,157.12 515.05,335.52 515.15,346.29 515.33,305.02 515.40,250.36 515.58,384.29 515.67,266.67 515.81,317.07 515.97,319.32 516.05,231.30 516.24,305.24 516.31,248.06 516.47,203.85 516.61,311.29 516.70,379.15 516.89,361.12 516.95,359.79 517.13,328.35 517.23,276.38 517.36,337.92 517.53,287.04 517.60,339.19 517.79,228.87 517.86,278.02 518.03,227.47 518.16,331.77 518.26,241.61 518.44,304.43 518.50,279.45 518.68,188.19 518.79,283.99 518.91,303.85 519.08,288.34 519.15,307.80 519.34,207.74 519.42,325.22 519.58,166.62 519.72,287.93 519.81,209.73 519.99,278.63 520.06,309.44 520.23,337.05 520.34,334.61 520.46,289.44 520.64,333.68 520.70,281.94 520.89,360.37 520.97,363.32 521.12,203.39 521.27,417.80 521.36,274.93 521.55,383.03 521.61,362.28 521.79,211.35 521.90,317.50 522.02,233.55 522.19,295.81 522.26,311.41 522.44,277.06 522.53,290.59 522.67,156.06 522.83,252.34 522.91,372.63 523.10,263.95 523.16,271.44 523.34,218.28 523.46,315.07 523.57,234.03 523.74,230.14 523.81,380.24 523.99,218.66 524.09,274.44 524.22,225.14 524.38,421.18 524.46,314.75 524.65,256.28 524.72,281.33 524.89,191.25 525.02,320.09 525.12,205.58 525.30,371.71 525.36,254.60 525.55,151.58 525.64,349.32 525.78,184.28 525.94,305.81 526.01,293.40 526.20,278.55 526.27,324.65 526.44,288.14 526.57,278.71 526.67,189.90 526.85,385.63 526.91,261.30 527.10,281.02 527.20,223.84 527.33,293.62 527.49,226.91 527.56,361.23 527.75,222.52 527.83,323.22 527.99,242.84 528.13,362.83 528.22,397.81 528.40,335.01 528.47,241.74 528.65,229.80 528.76,282.66 528.88,263.87 529.05,273.82 529.11,265.31 529.30,239.70 529.38,294.98 529.54,220.59 529.68,334.40 529.77,268.51 529.96,233.55 530.02,307.03 530.20,192.92 530.31,343.92 530.43,252.57 530.60,233.23 530.67,323.68 530.85,310.25 530.94,302.86 531.09,203.24 531.24,285.69 531.32,294.09 531.51,286.15 531.58,285.53 531.75,214.75 531.87,302.59 531.98,226.04 532.16,262.40 532.22,273.21 532.41,243.91 532.50,319.37 532.64,208.98 532.80,338.55 532.87,200.32 533.06,289.82 533.13,279.88 533.30,243.36 533.43,285.43 533.53,176.99 533.71,326.80 533.77,352.77 533.96,257.04 534.05,260.17 534.19,217.43 534.35,304.86 534.42,267.82 534.61,240.91 534.68,291.79 534.85,221.37 534.98,287.44 535.08,301.55 535.26,301.97 535.33,308.80 535.51,338.97 535.61,265.34 535.74,263.67 535.90,293.09 535.97,281.29 536.16,326.95 536.24,371.32 536.40,216.14 536.54,338.87 536.63,287.53 536.81,305.72 536.88,267.83 537.06,325.79 537.17,285.54 537.29,229.40 537.46,235.17 537.53,318.19 537.71,266.53 537.79,246.38 537.95,228.51 538.10,242.30 538.18,278.39 538.37,332.34 538.43,345.28 538.61,315.35 538.72,322.83 538.84,315.01 539.01,292.72 539.08,335.56 539.26,284.07 539.35,299.50 539.50,236.75 539.65,371.22 539.73,355.56 539.92,237.19 539.99,289.80 540.16,344.82 540.28,337.74 540.39,287.72 540.57,321.23 540.63,294.33 540.82,267.95 540.91,313.64 541.05,296.99 541.21,318.75 541.28,201.29 541.47,290.74 541.54,256.33 541.71,169.65 541.84,304.04 541.94,378.33 542.12,317.16 542.18,298.45 542.37,385.08 542.46,237.64 542.60,204.09 542.76,331.94 542.83,266.80 543.02,229.90 543.09,347.35 543.26,249.22 543.39,351.89 543.49,220.77 543.67,286.05 543.74,327.65 543.92,268.66 544.02,290.68 544.15,237.02 544.32,349.49 544.38,322.36 544.57,322.19 544.65,274.39 544.81,300.50 544.95,262.72 545.04,249.06 545.22,297.26 545.29,259.37 545.47,315.71 545.58,270.01 545.70,149.32 545.87,319.68 545.94,398.95 546.13,357.21 546.20,310.71 546.36,351.81 546.51,311.95 546.59,225.51 546.78,327.87 546.84,274.41 547.02,218.49 547.13,334.29 547.25,344.98 547.42,335.29 547.49,272.67 547.68,339.67 547.76,322.37 547.91,336.62 548.06,278.65 548.14,319.50 548.33,411.65 548.40,372.15 548.57,246.83 548.69,230.89 548.80,346.18 548.98,318.00 549.04,368.90 549.23,349.46 549.32,366.78 549.46,387.07 549.62,270.64 549.69,333.92 549.88,287.52 549.95,270.31 550.12,246.19 550.25,320.86 550.35,206.02 550.53,236.87 550.59,357.32 550.78,366.45 550.87,374.77 551.01,198.00 551.17,356.11 551.24,315.36 551.43,330.30 551.51,255.82 551.67,279.42 551.80,279.08 551.90,319.98 552.08,255.12 552.15,306.87 552.33,262.14 552.43,334.23 552.56,240.36 552.73,307.81 552.80,361.11 552.98,272.08 553.06,252.05 553.22,239.22 553.36,346.57 553.45,184.93 553.64,306.74 553.70,286.02 553.88,286.24 553.99,355.04 554.11,346.42 554.28,249.98 554.35,216.97 554.54,178.68 554.62,259.80 554.77,237.98 554.92,265.33 555.00,305.93 555.19,333.20 555.25,264.64 555.43,230.84 555.54,278.75 555.66,200.42 555.83,284.32 555.90,330.48 556.09,232.95 556.17,252.89 556.32,340.76 556.47,280.93 556.55,257.18 556.74,274.02 556.81,341.23 556.98,181.49 557.10,295.03 557.21,390.05 557.39,310.43 557.45,294.43 557.64,399.05 557.73,326.03 557.87,297.06 558.03,341.48 558.10,252.33 558.29,250.49 558.36,240.60 558.53,324.72 558.66,257.07 558.76,301.76 558.94,254.03 559.00,335.78 559.19,193.80 559.28,350.20 559.42,370.37 559.58,309.65 559.65,298.74 559.84,238.59 559.92,284.55 560.08,300.94 560.21,303.62 560.31,336.73 560.49,274.85 560.56,353.88 560.74,292.77 560.84,271.29 560.97,313.09 561.14,296.04 561.21,238.93 561.40,276.03 561.47,320.20 561.63,252.30 561.77,391.75 561.86,230.20 562.05,332.32 562.11,270.99 562.29,259.68 562.40,307.94 562.52,211.12 562.69,279.62 562.76,350.30 562.95,387.64 563.03,258.38 563.18,203.35 563.33,307.50 563.41,177.94 563.60,246.33 563.66,279.11 563.84,177.65 563.95,279.09 564.07,255.19 564.24,352.01 564.31,254.43 564.50,336.00 564.58,295.05 564.73,312.11 564.88,278.75 564.96,270.34 565.15,266.84 565.22,316.12 565.39,256.78 565.51,281.64 565.62,348.98 565.80,374.17 565.86,291.92 566.05,351.35 566.14,350.60 566.28,335.98 566.44,333.03 566.51,228.11 566.70,243.52 566.77,303.26 566.94,218.36 567.07,382.89 567.17,249.02 567.35,278.63 567.41,285.90 567.60,232.89 567.69,369.22 567.83,246.57 567.99,316.43 568.07,289.73 568.25,259.71 568.33,307.55 568.49,195.36 568.63,282.13 568.72,376.28 568.90,364.56 568.97,375.75 569.15,318.25 569.25,314.60 569.38,230.80 569.55,300.05 569.62,227.54 569.81,333.11 569.88,286.77 570.04,177.14 570.18,286.92 570.27,332.83 570.46,262.72 570.52,307.76 570.70,311.79 570.81,267.55 570.93,233.52 571.10,269.05 571.17,309.08 571.36,324.91 571.44,243.39 571.59,342.29 571.74,347.70 571.82,357.14 572.01,270.02 572.07,297.85 572.25,286.89 572.36,354.95 572.48,145.61 572.66,371.40 572.72,273.77 572.91,188.76 572.99,282.29 573.14,234.50 573.29,256.32 573.37,308.86 573.56,319.80 573.63,322.54 573.80,410.94 573.92,290.37 574.03,241.47 574.21,284.55 574.27,398.73 574.46,241.55 574.55,281.75 574.69,252.75 574.85,273.95 574.92,334.54 575.11,365.18 575.18,258.04 575.35,306.41 575.48,255.77 575.58,262.87 575.76,304.89 575.83,246.75 576.01,396.61 576.10,356.54 576.24,278.01 576.40,258.13 576.48,200.58 576.67,360.84 576.74,371.08 576.90,228.37 577.04,279.89 577.13,292.21 577.32,270.16 577.38,385.82 577.56,354.48 577.66,292.96 577.79,179.00 577.96,315.90 578.03,264.39 578.22,266.30 578.29,268.11 578.45,251.83 578.59,271.99 578.68,334.07 578.87,299.53 578.93,313.96 579.11,298.07 579.22,249.81 579.34,235.93 579.51,338.79 579.58,385.64 579.77,333.86 579.85,261.19 580.00,336.09 580.15,282.08 580.23,316.04 580.42,316.51 580.49,342.94 580.66,286.45 580.77,361.47 580.89,313.91 581.07,244.02 581.13,363.06 581.32,260.45 581.40,388.16 581.55,235.40 581.70,258.83 581.78,238.26 581.97,336.09 582.04,304.88 582.21,300.59 582.33,257.39 582.44,289.41 582.62,231.07 582.68,371.28 582.87,286.12 582.96,284.09 583.10,242.62 583.26,367.16 583.34,193.96 583.52,248.81 583.59,293.25 583.76,242.40 583.89,291.86 583.99,311.31 584.17,249.68 584.24,347.06 584.42,287.85 584.51,311.56 584.65,247.06 584.81,277.59 584.89,318.91 585.08,352.09 585.15,338.22 585.31,220.22 585.45,254.67 585.54,313.22 585.73,280.77 585.79,310.40 585.97,371.81 586.07,344.15 586.20,209.18 586.37,314.34 586.44,338.25 586.63,335.15 586.70,255.03 586.86,226.34 587.00,330.36 587.09,260.09 587.28,248.68 587.34,302.08 587.52,288.83 587.63,318.63 587.75,259.22 587.92,351.61 587.99,320.54 588.18,219.41 588.26,297.10 588.41,297.60 588.56,393.44 588.64,220.24 588.83,350.13 588.90,237.95 589.07,175.09 589.19,324.32 589.30,279.51 589.48,270.89 589.54,340.97 589.73,223.74 589.81,325.42 589.96,165.74 590.11,288.66 590.19,257.61 590.38,258.74 590.45,308.65 590.62,372.31 590.74,277.31 590.85,209.95 591.03,311.46 591.09,361.37 591.28,284.95 591.37,240.67 591.51,178.34 591.67,288.22 591.75,228.83 591.94,299.41 592.00,294.09 592.17,253.12 592.30,255.39 592.40,202.41 592.58,310.24 592.65,330.06 592.83,183.82 592.93,327.24 593.06,213.12 593.22,269.62 593.30,229.92 593.49,233.42 593.56,370.30 593.72,213.74 593.86,245.38 593.95,186.94 594.14,273.97 594.20,255.29 594.38,285.65 594.48,297.79 594.61,168.71 594.78,275.16 594.85,336.27 595.04,295.83 595.11,325.78 595.27,276.27 595.41,254.71 595.50,315.71 595.69,272.37 595.75,301.90 595.93,319.59 596.04,270.42 596.16,280.19 596.33,319.65 596.40,182.39 596.59,321.58 596.67,263.25 596.82,258.53 596.97,265.08 597.05,280.08 597.24,323.51 597.31,290.00 597.48,282.09 597.60,295.06 597.71,312.18 597.89,354.00 597.95,278.29 598.14,259.31 598.22,298.66 598.37,286.23 598.52,266.59 598.61,274.46 598.79,284.22 598.86,268.72 599.03,417.61 599.15,275.60 599.26,257.52 599.44,289.38 599.51,268.83 599.69,268.23 599.78,349.39 599.92,307.53 600.08,284.65 600.16,333.83 600.35,245.42 600.41,309.70 600.58,291.37 600.71,288.46 600.81,252.73 600.99,342.74 601.06,224.81 601.24,199.42 601.34,313.71 601.47,364.43 601.63,346.15 601.71,242.21 601.90,226.44 601.97,334.66 602.13,184.97 602.27,338.74 602.36,281.33 602.55,264.60 602.61,338.83 602.79,293.61 602.89,292.74 603.02,228.52 603.19,299.08 603.26,353.98 603.45,264.88 603.52,345.99 603.68,279.72 603.82,277.03 603.92,384.33 604.10,304.38 604.16,311.57 604.34,201.84 604.45,333.93 604.57,151.93 604.74,241.69 604.81,287.06 605.00,279.01 605.08,276.19 605.23,381.92 605.38,292.21 605.47,215.56 605.65,375.06 605.72,296.05 605.89,233.20 606.01,265.65 606.12,189.76 606.30,272.62 606.36,329.31 606.55,322.70 606.63,269.97 606.78,255.11 606.94,309.57 607.02,312.09 607.21,316.58 607.27,340.72 607.45,293.55 607.56,326.62 607.67,241.80 607.85,370.43 607.92,231.45 608.10,198.35 608.19,292.76 608.33,264.79 608.49,258.35 608.57,177.53 608.76,279.38 608.82,313.11 609.00,343.09 609.12,281.87 609.22,230.32 609.40,284.75 609.47,306.50 609.65,246.01 609.75,354.57 609.88,182.32 610.05,319.31 610.12,254.68 610.31,297.56 610.38,317.68 610.55,273.96 610.68,319.44 610.77,316.58 610.96,227.00 611.02,294.43 611.20,260.81 611.30,378.10 611.43,167.90 611.60,323.95 611.67,232.90 611.86,281.87 611.93,299.17 612.09,286.96 612.23,381.60 612.33,288.55 612.51,313.32 612.57,297.55 612.76,228.11 612.86,231.82 612.98,321.07 613.15,278.26 613.22,319.65 613.41,347.53 613.49,313.49 613.64,257.81 613.79,383.16 613.88,241.89 614.06,331.35 614.13,348.69 614.31,150.94 614.42,308.73 614.53,220.53 614.71,273.88 614.77,258.66 614.96,242.54 615.04,380.83 615.20,150.08 615.35,322.16 615.43,315.20 615.62,242.31 615.68,305.58 615.86,325.20 615.97,226.67 616.08,352.99 616.26,257.80 616.33,264.64 616.51,229.12 616.60,298.71 616.75,300.77 616.90,327.31 616.98,268.56 617.17,276.52 617.24,261.72 617.41,180.20 617.53,317.14 617.63,220.42 617.82,276.75 617.88,364.90 618.06,239.86 618.16,352.73 618.30,299.10 618.46,330.56 618.53,265.36 618.72,225.60 618.79,391.79 618.96,238.71 619.09,305.58 619.19,180.03 619.37,313.37 619.43,326.76 619.62,298.27 619.71,323.56 619.85,147.40 620.01,292.47 620.08,359.72 620.27,202.09 620.34,325.06 620.51,325.32 620.64,323.52 620.74,231.63 620.92,251.09 620.99,230.37 621.17,232.53 621.27,232.54 621.40,173.90 621.57,316.54 621.63,276.93 621.82,251.78 621.90,331.58 622.06,192.19 622.20,290.78 622.29,304.10 622.47,337.83 622.54,268.61 622.72,202.54 622.83,291.89 622.95,228.50 623.12,289.11 623.19,355.23 623.37,375.78 623.46,302.21 623.61,322.28 623.76,304.58 623.84,221.69 624.03,277.78 624.09,347.12 624.27,293.28 624.38,273.08 624.50,204.45 624.67,361.78 624.74,251.52 624.92,293.51 625.01,365.66 625.16,358.77 625.31,357.83 625.39,221.08 625.58,387.04 625.65,297.59 625.82,184.53 625.94,244.84 626.05,286.33 626.23,314.83 626.29,319.22 626.48,205.72 626.57,404.61 626.71,215.71 626.87,378.84 626.94,354.70 627.13,243.76 627.20,254.88 627.37,269.15 627.50,364.24 627.60,235.44 627.78,255.82 627.84,322.08 628.03,232.61 628.12,297.51 628.26,194.80 628.42,360.69 628.49,206.13 628.68,222.99 628.76,280.71 628.92,253.59 629.05,342.50 629.15,269.44 629.33,347.07 629.40,366.15 629.58,267.04 629.68,366.18 629.81,333.18 629.98,270.89 630.04,284.53 630.23,311.17 630.31,337.74 630.47,187.15 630.61,318.34 630.70,295.47 630.88,340.11 630.95,328.43 631.13,295.41 631.24,308.31 631.36,352.58 631.53,279.77 631.60,355.19 631.78,237.99 631.87,357.38 632.02,249.05 632.17,266.86 632.25,284.07 632.44,217.12 632.50,350.97 632.68,325.63 632.79,299.19 632.91,209.21 633.08,330.85 633.15,216.82 633.34,235.26 633.42,308.83 633.57,305.40 633.72,328.09 633.80,380.97 633.99,239.58 634.06,272.23 634.23,282.10 634.35,276.11 634.46,257.09 634.64,244.62 634.70,288.86 634.89,361.72 634.98,338.45 635.12,172.97 635.28,307.98 635.35,320.39 635.54,297.78 635.61,264.21 635.78,174.95 635.91,347.02 636.01,156.42 636.19,379.37 636.25,298.64 636.44,190.70 636.53,340.08 636.67,169.09 636.83,334.85 636.90,237.48 637.09,303.54 637.17,333.71 637.33,370.87 637.47,302.77 637.56,241.08 637.74,348.87 637.81,292.57 637.99,241.88 638.09,281.99 638.22,230.38 638.39,354.91 638.46,330.15 638.64,323.80 638.72,243.56 638.88,346.11 639.02,324.97 639.11,351.40 639.30,214.23 639.36,301.96 639.54,230.86 639.65,276.83 639.77,201.72 639.94,359.08 640.01,381.67 640.20,346.05 640.28,273.15 640.43,370.08 640.58,284.91 640.66,306.04 640.85,319.40 640.91,308.29 641.09,299.58 641.20,255.43 641.32,278.71 641.49,263.02 641.56,328.49 641.75,220.13 641.83,303.04 641.98,322.80 642.13,359.79 642.21,306.76 642.40,237.65 642.47,304.29 642.64,217.29 642.76,352.31 642.87,199.98 643.05,332.06 643.11,274.45 643.30,309.48 643.39,311.89 643.53,329.75 643.69,325.59 643.76,318.28 643.95,389.07 644.02,290.15 644.19,279.37 644.32,319.02 644.42,352.12 644.60,258.40 644.66,254.59 644.85,332.82 644.94,236.41 645.08,242.20 645.24,292.33 645.31,306.91 645.50,249.04 645.58,326.79 645.74,331.05 645.88,296.61 645.97,343.24 646.15,367.49 646.22,371.91 646.40,246.03 646.50,333.52 646.63,267.81 646.80,315.82 646.87,330.50 647.06,288.99 647.13,383.33 647.29,138.98 647.43,332.35 647.52,286.25 647.71,210.43 647.77,286.96 647.95,270.13 648.06,277.49 648.18,328.84 648.35,286.50 648.42,264.20 648.61,260.95 648.69,264.01 648.84,164.38 648.99,342.91 649.07,200.91 649.26,267.56 649.32,259.82 649.50,305.32 649.62,253.73 649.73,180.70 649.90,320.31 649.97,297.06 650.16,254.52 650.24,279.69 650.39,203.04 650.54,331.75 650.62,347.48 650.81,233.77 650.88,304.51 651.05,301.50 651.17,290.07 651.28,231.79 651.46,300.42 651.52,219.31 651.71,209.20 651.80,283.86 651.94,334.72 652.10,292.60 652.17,173.97 652.36,211.66 652.43,288.31 652.60,226.97 652.73,329.92 652.83,302.49 653.01,265.52 653.08,278.69 653.26,300.03 653.35,369.01 653.49,245.02 653.65,328.28 653.73,218.85 653.91,222.63 653.99,324.45 654.15,201.87 654.29,300.55 654.38,221.79 654.56,311.33 654.63,333.71 654.81,199.85 654.91,315.43 655.04,298.91 655.21,300.08 655.28,264.03 655.47,354.58 655.54,328.01 655.70,200.18 655.84,317.61 655.93,324.32 656.12,272.64 656.18,289.56 656.36,334.44 656.47,347.19 656.59,244.41 656.76,323.08 656.83,234.19 657.02,369.39 657.10,298.75 657.25,226.85 657.40,354.41 657.48,301.42 657.67,232.28 657.74,339.99 657.91,386.36 658.03,364.54 658.14,366.58 658.32,377.48 658.38,234.25 658.57,187.43 658.65,376.28 658.80,202.21 658.95,282.06 659.03,233.56 659.22,299.93 659.29,250.48 659.46,261.64 659.58,279.78 659.69,278.31 659.87,295.85 659.93,333.51 660.12,237.67 660.21,334.58 660.35,333.82 660.51,365.00 660.58,258.78 660.77,255.83 660.84,330.08 661.01,330.71 661.14,320.10 661.24,257.57 661.42,293.46 661.49,316.81 661.67,208.64 661.77,275.83 661.90,313.00 662.06,268.15 662.14,398.98 662.33,229.71 662.40,291.69 662.56,221.03 662.70,271.61 662.79,173.17 662.98,212.05 663.04,257.57 663.22,311.72 663.32,297.19 663.45,218.41 663.62,351.46 663.69,282.06 663.88,324.22 663.95,296.38 664.11,336.58 664.25,328.60 664.34,339.03 664.53,340.42 664.59,299.81 664.77,284.87 664.88,367.14 665.00,209.01 665.17,289.39 665.24,339.75 665.43,235.13 665.51,249.72 665.66,284.71 665.81,284.64 665.89,390.52 666.08,268.75 666.15,260.35 666.32,266.37 666.44,280.17 666.55,245.01 666.73,369.16 666.79,207.73 666.98,379.37 667.06,301.72 667.21,263.27 667.36,310.61 667.44,265.10 667.63,312.45 667.70,359.56 667.87,204.10 667.99,281.21 668.10,360.32 668.28,234.74 668.34,297.07 668.53,259.39 668.62,338.91 668.76,238.11 668.92,329.96 669.00,396.93 669.18,282.04 669.25,294.38 669.42,159.24 669.55,318.30 669.65,388.32 669.83,349.32 669.90,299.02 670.08,292.43 670.18,297.87 670.31,309.34 670.47,280.36 670.55,279.62 670.74,223.79 670.81,274.50 670.97,330.04 671.11,365.35 671.20,337.71 671.39,304.16 671.45,293.77 671.63,356.68 671.73,314.27 671.86,282.91 672.03,261.95 672.10,280.60 672.29,206.51 672.36,252.96 672.52,266.87 672.66,370.57 672.75,331.97 672.94,318.35 673.00,303.79 673.18,317.15 673.29,373.94 673.41,218.58 673.58,258.07 673.65,247.34 673.84,273.89 673.92,407.27 674.07,286.44 674.22,340.41 674.30,238.50 674.49,269.31 674.56,330.62 674.73,319.66 674.85,256.15 674.96,221.22 675.14,373.43 675.20,259.65 675.39,282.58 675.47,374.76 675.62,227.45 675.77,227.18 675.85,289.72 676.04,287.03 676.11,306.88 676.28,271.96 676.40,308.24 676.51,204.67 676.69,374.75 676.75,344.54 676.94,269.60 677.03,253.02 677.17,237.28 677.33,303.82 677.41,219.87 677.60,369.75 677.66,280.33 677.83,292.20 677.96,295.05 678.06,336.92 678.24,357.33 678.31,211.57 678.49,244.49 678.59,283.64 678.72,204.52 678.88,268.84 678.96,210.95 679.15,323.26 679.22,353.85 679.38,271.23 679.52,312.05 679.61,259.63 679.80,242.36 679.86,251.04 680.04,282.93 680.14,366.07 680.27,271.35 680.44,327.54 680.51,321.91 680.70,306.19 680.77,369.71 680.93,343.82 681.07,389.12 681.16,300.69 681.35,341.02 681.41,335.91 681.59,207.20 681.70,251.91 681.82,365.92 681.99,231.86 682.06,371.33 682.25,269.17 682.33,259.98 682.48,302.94 682.63,327.65 682.71,359.51 682.90,296.92 682.97,266.86 683.14,330.76 683.26,242.41 683.37,328.30 683.55,290.35 683.61,286.45 683.80,304.12 683.88,336.75 684.03,254.37 684.19,269.76 684.27,280.05 684.45,215.55 684.52,274.00 684.69,319.99 684.81,365.03 684.92,169.53 685.10,346.98 685.17,310.43 685.35,361.10 685.44,282.01 685.58,265.98 685.74,386.67 685.82,304.85 686.01,301.33 686.08,341.89 686.24,351.95 686.37,292.62 686.47,252.52 686.65,361.37 686.72,359.23 686.90,293.21 687.00,412.14 687.13,204.60 687.30,286.84 687.37,290.83 687.56,261.22 687.63,275.73 687.79,271.75 687.93,367.18 688.02,197.75 688.21,280.77 688.27,379.81 688.45,348.52 688.55,329.36 688.68,331.43 688.85,296.02 688.92,308.33 689.11,238.86 689.18,310.62 689.34,320.60 689.48,319.20 689.57,353.10 689.76,281.10 689.82,259.06 690.00,213.03 690.11,381.78 690.23,278.54 690.40,293.32 690.47,337.16 690.66,226.37 690.74,302.94 690.89,263.26 691.04,297.50 691.13,288.13 691.31,324.68 691.38,280.76 691.55,331.51 691.67,270.03 691.78,200.58 691.96,260.81 692.02,247.50 692.21,263.41 692.29,303.46 692.44,293.93 692.60,330.59 692.68,195.90 692.87,232.73 692.93,275.40 693.10,345.69 693.22,360.73 693.33,392.99 693.51,256.92 693.58,391.29 693.76,304.99 693.85,289.83 693.99,341.05 694.15,294.30 694.23,294.72 694.42,265.32 694.49,260.73 694.65,246.05 694.78,314.68 694.88,194.56 695.06,283.27 695.13,283.30 695.31,185.56 695.41,363.00 695.54,354.74 695.71,260.77 695.78,326.02 695.97,242.22 696.04,291.64 696.20,355.23 696.34,235.59 696.43,351.16 696.62,353.01 696.68,241.73 696.86,187.64 696.96,315.03 697.09,235.44 697.26,291.92 697.33,237.26 697.52,244.36 697.59,346.98 697.75,357.73 697.89,253.24 697.98,196.30 698.17,338.56 698.23,346.71 698.41,259.91 698.52,306.38 698.64,338.32 698.81,345.92 698.88,312.66 699.07,304.67 699.15,262.07 699.31,193.66 699.45,270.52 699.54,239.67 699.72,242.92 699.79,255.00 699.96,218.32 700.08,348.25 700.19,267.54 700.37,259.10 700.43,297.42 700.62,240.83 700.71,324.72 700.85,226.14 701.01,278.86 701.09,235.02 701.28,291.70 701.34,271.30 701.51,313.71 701.63,330.15 701.74,269.97 701.92,263.13 701.99,331.60 702.17,276.86 702.26,291.67 702.40,257.88 702.56,299.09 702.64,312.67 702.83,316.56 702.90,338.63 703.07,264.46 703.19,311.27 703.30,264.88 703.48,254.99 703.54,307.47 703.72,218.47 703.82,319.28 703.95,341.35 704.12,292.35 704.19,277.23 704.38,315.60 704.45,287.31 704.62,197.06 704.75,345.06 704.85,297.56 705.03,283.75 705.09,330.54 705.27,193.70 705.37,268.64 705.50,360.96 705.67,305.21 705.74,269.10 705.93,284.01 706.01,411.62 706.17,352.85 706.31,317.02 706.40,289.36 706.58,233.74 706.65,268.60 706.83,328.09 706.93,363.65 707.06,332.16 707.23,253.62 707.29,356.78 707.48,252.58 707.56,294.12 707.72,280.63 707.86,299.08 707.95,308.46 708.13,355.59 708.20,304.69 708.38,349.95 708.49,371.31 708.61,252.87 708.78,303.00 708.85,323.99 709.03,193.99 709.12,400.55 709.27,316.32 709.42,237.91 709.50,212.76 709.69,334.56 709.75,271.52 709.93,269.53 710.05,348.29 710.16,317.19 710.33,273.43 710.40,300.60 710.58,361.95 710.67,284.83 710.82,289.50 710.97,290.80 711.05,240.43 711.24,310.49 711.31,299.50 711.48,192.94 711.60,286.41 711.71,262.78 711.89,315.75 711.95,369.72 712.14,312.37 712.23,276.19 712.37,255.33 712.53,309.97 712.60,327.07 712.79,202.95 712.86,331.26 713.03,215.73 713.16,335.28 713.26,372.41 713.44,349.64 713.50,290.48 713.69,366.22 713.78,290.15 713.92,278.15 714.08,354.12 714.15,224.25 714.34,312.03 714.42,351.39 714.58,195.17 714.72,328.61 714.81,334.41 714.99,242.89 715.06,361.18 715.24,243.09 715.34,343.09 715.47,287.60 715.64,335.22 715.70,330.05 715.89,260.16 715.97,265.80 716.13,176.50 716.27,353.68 716.36,303.84 716.54,258.62 716.61,274.80 716.79,268.49 716.90,307.42 717.02,333.73 717.19,275.50 717.26,303.40 717.44,363.32 717.53,401.77 717.68,156.09 717.83,388.67 717.91,310.75 718.10,280.67 718.16,307.47 718.34,290.73 718.46,249.69 718.57,256.60 718.74,299.08 718.81,367.25 719.00,261.38 719.08,317.58 719.23,278.85 719.38,313.61 719.46,235.22 719.65,370.37 719.72,354.94 719.89,281.72 720.01,309.37 720.12,343.24 720.30,245.99 720.36,382.25 720.55,287.24 720.64,302.17 720.78,297.05 720.94,274.31 721.01,278.03 721.20,334.18 721.27,368.16 721.44,215.52 721.57,362.08 721.67,325.96 721.85,231.65 721.91,254.26 722.10,204.15 722.19,320.67 722.33,341.57 722.49,340.26 722.56,219.84 722.75,334.81 722.83,333.19 722.99,277.55 723.13,390.07 723.22,254.92 723.40,305.89 723.47,390.42 723.65,285.84 723.75,272.03 723.88,224.69 724.05,323.19 724.11,371.04 724.30,229.28 724.38,359.94 724.54,216.95 724.68,312.00 724.77,305.48 724.96,308.39 725.02,275.39 725.20,368.83 725.31,318.11 725.43,240.22 725.60,367.89 725.67,325.66 725.85,235.74 725.94,333.67 726.09,290.08 726.24,299.18 726.32,228.12 726.51,282.58 726.57,291.51 726.75,228.56 726.87,287.68 726.98,228.16 727.15,271.04 727.22,304.62 727.41,267.19 727.49,328.96 727.64,255.57 727.79,291.60 727.87,301.01 728.06,302.86 728.13,244.28 728.30,319.90 728.42,287.04 728.53,258.87 728.71,313.03 728.77,217.16 728.96,237.21 729.05,334.68 729.19,306.76 729.35,282.21 729.42,295.75 729.61,299.05 729.68,321.49 729.85,243.54 729.98,324.16 730.08,289.99 730.26,236.32 730.32,252.58 730.51,222.31 730.61,367.52 730.74,313.80 730.90,259.09 730.97,280.30 731.16,269.91 731.24,322.42 731.40,309.15 731.54,354.93 731.63,326.47 731.81,389.74 731.88,364.28 732.06,301.38 732.16,287.74 732.29,186.50 732.46,276.80 732.53,167.33 732.71,316.83 732.79,326.14 732.95,257.58 733.09,330.24 733.18,270.86 733.37,303.13 733.43,288.92 733.61,314.97 733.72,292.25 733.84,288.94 734.01,359.94 734.08,297.82 734.27,164.60 734.35,369.48 734.50,223.18 734.65,402.52 734.73,314.48 734.92,196.04 734.98,331.25 735.16,258.70 735.28,312.85 735.39,162.25 735.57,237.81 735.63,313.37 735.82,308.14 735.90,326.59 736.05,271.44 736.20,270.38 736.28,276.11 736.47,314.41 736.54,252.39 736.71,249.45 736.83,273.41 736.94,388.06 737.12,256.19 737.18,391.42 737.37,254.04 737.46,289.59 737.60,290.14 737.76,234.42 737.83,239.46 738.02,326.50 738.09,366.37 738.26,283.11 738.39,299.60 738.49,232.92 738.67,282.10 738.74,356.65 738.92,212.51 739.02,272.22 739.15,253.14 739.31,320.75 739.38,198.18 739.57,261.61 739.65,357.00 739.81,330.56 739.95,264.35 740.04,303.61 740.22,219.59 740.29,337.76 740.47,303.99 740.57,270.09 740.70,305.40 740.87,309.63 740.94,277.82 741.13,256.20 741.20,272.03 741.36,301.33 741.50,278.68 741.59,238.27 741.78,379.85 741.84,222.50 742.02,268.03 742.13,290.00 742.25,383.17 742.42,302.61 742.49,252.63 742.68,295.94 742.76,278.86 742.91,236.24 743.06,241.23 743.14,336.19 743.33,329.26 743.40,269.62 743.57,176.79 743.69,300.78 743.80,218.32 743.98,289.36 744.04,235.84 744.23,198.26 744.31,338.28 744.46,361.65 744.61,329.73 744.69,216.94 744.88,237.46 744.95,251.69 745.12,189.65 745.24,294.89 745.35,288.85 745.53,314.95 745.59,332.29 745.78,344.91 745.87,349.56 746.01,269.06 746.17,393.72 746.24,209.83 746.43,328.41 746.50,313.93 746.67,164.24 746.80,268.68 746.90,234.24 747.08,307.06 747.15,295.53 747.33,375.99 747.43,293.98 747.56,276.17 747.72,316.07 747.80,282.35 747.99,269.00 748.06,317.10 748.22,277.13 748.36,316.62 748.45,264.33 748.64,239.44 748.70,350.83 748.88,248.62 748.98,301.06 749.11,312.85 749.28,312.51 749.35,276.09 749.54,248.80 749.61,354.73 749.77,261.65 749.91,347.30 750.00,262.99 750.19,326.71 750.25,329.16 750.43,407.98 750.54,347.44 750.66,364.88 750.83,343.24 750.90,311.86 751.09,211.10 751.17,296.06 751.32,218.20 751.47,303.44 751.55,297.76 751.74,298.41 751.81,354.82 751.98,279.98 752.10,270.41 752.21,138.24 752.39,291.92 752.45,285.28 752.64,310.29 752.72,297.86 752.87,291.67 753.02,337.60 753.10,238.01 753.29,382.61 753.36,361.57 753.53,259.53 753.65,297.24 753.76,223.12 753.94,291.65 754.00,316.29 754.19,235.99 754.28,318.05 754.42,203.49 754.58,301.53 754.65,252.65 754.84,271.99 754.91,344.54 755.08,252.72 755.21,289.82 755.31,303.28 755.49,281.24 755.56,281.38 755.74,299.11 755.84,228.25 755.97,246.13 756.13,369.10 756.21,263.82 756.40,345.32 756.47,277.39 756.63,313.77 756.77,312.37 756.86,216.77 757.05,314.43 757.11,277.43 757.29,219.53 757.39,356.21 757.52,224.04 757.69,286.93 757.76,278.67 757.95,286.19 758.02,239.80 758.18,180.87 758.32,288.70 758.41,227.45 758.60,262.39 758.66,378.72 758.84,239.88 758.95,360.40 759.07,268.22 759.24,315.41 759.31,312.61 759.50,202.19 759.58,265.26 759.73,249.56 759.88,285.25 759.96,362.94 760.15,305.65 760.22,355.95 760.39,341.81 760.51,327.81 760.62,181.24 760.80,300.10 760.86,277.09 761.05,385.92 761.13,374.76 761.28,317.85 761.44,318.96 761.51,208.48 761.70,315.82 761.77,345.94 761.94,247.21 762.06,272.06 762.17,184.96 762.35,334.64 762.41,257.31 762.60,192.30 762.69,317.60 762.83,296.30 762.99,324.58 763.07,228.03 763.26,187.99 763.32,331.15 763.49,137.57 763.62,254.67 763.72,330.46 763.90,304.29 763.97,255.71 764.15,232.28 764.25,318.98 764.38,216.14 764.55,254.72 764.62,291.44 764.81,221.00 764.88,357.06 765.04,286.72 765.18,349.72 765.27,248.11 765.46,271.95 765.52,242.93 765.70,304.42 765.80,320.64 765.93,172.95 766.10,301.79 766.17,293.39 766.36,258.98 766.43,279.63 766.59,284.12 766.73,277.86 766.82,215.81 767.01,246.41 767.07,284.20 767.25,237.70 767.36,291.02 767.48,315.90 767.65,277.92 767.72,296.51 767.91,325.17 767.99,258.46 768.14,387.53 768.29,291.06 768.37,383.59 768.56,335.61 768.63,241.87 768.80,287.78 768.92,281.31 769.03,276.85 769.21,340.62 769.27,276.97 769.46,237.72 769.55,256.84 769.69,286.97 769.85,349.55 769.93,252.88 770.11,372.44 770.18,308.89 770.35,253.15 770.48,318.12 770.58,231.90 770.76,291.54 770.83,279.21 771.01,313.93 771.10,291.67 771.24,213.95 771.40,280.10 771.48,207.01 771.67,344.64 771.74,305.93 771.90,194.12 772.03,340.71 772.13,286.43 772.31,240.23 772.38,302.87 772.56,165.30 772.66,397.22 772.79,334.39 772.96,376.95 773.03,205.23 773.22,328.79 773.29,357.70 773.45,380.36 773.59,327.36 773.68,281.65 773.87,370.45 773.93,273.55 774.11,267.40 774.21,282.08 774.34,239.82 774.51,255.96 774.58,270.11 774.77,325.01 774.84,304.47 775.00,177.12 775.15,342.43 775.23,322.92 775.42,348.06 775.48,233.69 775.66,204.43 775.77,292.99 775.89,301.63 776.06,281.99 776.13,277.73 776.32,282.02 776.40,375.57 776.55,250.37 776.70,362.82 776.78,270.81 776.97,237.67 777.04,267.62 777.21,300.98 777.33,326.50 777.44,411.75 777.62,324.41 777.68,267.34 777.87,312.66 777.96,313.02 778.10,336.66 778.26,260.34 778.34,363.42 778.52,338.89 778.59,277.67 778.76,331.03 778.89,302.74 778.99,394.65 779.17,392.02 779.24,290.02 779.42,281.39 779.51,280.32 779.65,318.45 779.81,277.79 779.89,260.72 780.08,318.07 780.15,291.00 780.31,262.70 780.44,263.28 780.54,401.14 780.73,209.76 780.79,272.26 780.97,287.84 781.07,281.69 781.20,289.99 781.37,296.20 781.44,237.30 781.63,245.48 781.70,253.56 781.86,254.70 782.00,247.37 782.09,237.18 782.28,290.44 782.34,244.28 782.52,232.44 782.62,335.09 782.75,317.82 782.92,270.15 782.99,331.78 783.18,224.97 783.26,265.75 783.41,205.48 783.56,324.60 783.64,193.58 783.83,348.44 783.89,360.00 784.07,326.35 784.18,278.61 784.30,297.73 784.48,318.08 784.54,312.98 784.73,330.79 784.81,269.37 784.96,363.90 785.11,362.42 785.20,296.50 785.38,269.68 785.45,259.04 785.62,219.87 785.74,328.32 785.85,306.72 786.03,271.49 786.09,208.09 786.28,356.03 786.37,383.40 786.51,199.81 786.67,340.82 786.75,255.62 786.94,359.38 787.00,344.27 787.17,223.86 787.30,257.78 787.40,222.48 787.58,222.61 787.65,308.02 787.83,244.50 787.92,264.76 788.06,210.28 788.22,313.17 788.30,295.92 788.49,269.78 788.56,310.91 788.73,158.72 788.85,296.94 788.95,281.87 789.14,325.89 789.20,367.46 789.38,343.22 789.48,329.62 789.61,301.50 789.78,336.05 789.85,199.58 790.04,372.03 790.11,382.08 790.28,203.20 790.41,308.44 790.51,306.69 790.69,267.30 790.75,346.01 790.93,285.95 791.03,348.04 791.16,327.50 791.33,274.02 791.40,325.79 791.59,229.69 791.67,267.16 791.82,182.65 791.97,305.71 792.06,253.06 792.24,366.60 792.31,344.19 792.49,397.41 792.59,276.80 792.71,163.36 792.89,315.24 792.95,345.89 793.14,307.69 793.22,324.83 793.37,235.84 793.52,212.28 793.61,234.46 793.79,259.15 793.86,360.92 794.04,346.56 794.15,243.33 794.26,297.41 794.44,317.02 794.51,304.08 794.69,289.16 794.78,345.40 794.92,311.40 795.08,252.11 795.16,301.96 795.35,242.94 795.41,237.13 795.59,319.20 795.71,279.07 795.81,235.48 795.99,233.36 796.06,289.21 796.24,311.51 796.33,278.95 796.48,330.36 796.63,330.63 796.71,358.09 796.90,267.24 796.97,283.32 797.14,284.79 797.26,305.44 797.37,258.86 797.55,266.67 797.61,306.98 797.79,339.90 797.89,383.42 798.03,381.29 798.19,293.73 798.26,311.20 798.45,332.10 798.52,295.16 798.69,259.49 798.82,332.59 798.92,341.11 799.10,312.76 799.16,317.87 799.35,358.31 799.45,256.33 799.58,222.10 799.74,291.63 799.81,327.47 800.00,368.34 800.08,357.08 800.24,222.73 800.38,321.42 800.47,303.57 800.65,234.62 800.72,351.88 800.90,325.23 801.00,265.96 801.13,290.99 801.30,232.38 801.36,242.43 801.55,224.08 801.63,273.27 801.79,243.78 801.93,318.84 802.02,190.04 802.20,377.05 802.27,304.44 802.45,344.14 802.56,241.41 802.68,313.76 802.85,339.08 802.92,371.93 803.10,272.02 803.19,312.09 803.34,277.21 803.49,384.46 803.57,355.77 803.76,247.50 803.82,317.04 804.00,222.56 804.12,240.04 804.23,300.94 804.40,326.80 804.47,367.29 804.65,265.95 804.74,289.71 804.89,371.85 805.04,319.38 805.12,364.13 805.31,319.95 805.38,277.82 805.55,270.47 805.67,278.05 805.78,340.55 805.96,349.68 806.02,238.69 806.21,189.27 806.30,317.67 806.44,202.28 806.60,303.44 806.67,397.91 806.86,266.58 806.93,348.73 807.10,253.96 807.23,367.58 807.33,359.03 807.51,305.33 807.57,356.18 807.76,189.19 807.86,275.91 807.99,205.05 808.15,286.16 808.22,274.21 808.41,288.96 808.49,370.04 808.65,351.00 808.79,317.49 808.88,210.13 809.06,309.80 809.13,365.96 809.31,353.16 809.41,379.70 809.54,219.78 809.71,329.10 809.77,231.61 809.96,220.51 810.04,329.36 810.20,316.72 810.34,310.33 810.43,183.80 810.62,290.42 810.68,308.83 810.86,221.54 810.97,223.97 811.09,399.78 811.26,328.62 811.33,306.09 811.52,175.51 811.60,277.77 811.75,374.90 811.90,274.97 811.98,201.47 812.17,330.67 812.23,368.35 812.41,309.53 812.53,263.46 812.64,239.09 812.81,350.57 812.88,227.13 813.07,209.27 813.15,309.77 813.30,292.85 813.45,364.47 813.53,251.43 813.72,209.70 813.79,383.59 813.96,308.89 814.08,356.27 814.19,271.59 814.37,348.43 814.43,356.81 814.62,247.64 814.71,287.03 814.85,279.75 815.01,312.78 815.08,341.54 815.27,262.60 815.34,330.96 815.51,294.34 815.64,265.04 815.74,185.29 815.92,309.38 815.98,252.15 816.17,366.22 816.27,363.84 816.40,354.46 816.56,312.95 816.63,244.00 816.82,236.95 816.90,314.12 817.06,394.29 817.20,282.02 817.29,306.62 817.47,238.61 817.54,313.56 817.72,257.30 817.82,229.88 817.95,135.88 818.12,349.83 818.19,287.94 818.37,203.66 818.45,368.58 818.61,197.36 818.75,333.53 818.84,268.15 819.03,273.92 819.09,244.77 819.27,297.71 819.38,287.26 819.50,207.95 819.67,372.12 819.74,252.84 819.93,209.69 820.01,277.29 820.16,282.78 820.31,295.62 820.39,177.28 820.58,250.02 820.64,312.33 820.82,261.61 820.94,296.88 821.05,270.13 821.23,296.91 821.29,333.07 821.48,248.74 821.56,233.78 821.71,370.21 821.86,319.66 821.94,367.38 822.13,256.34 822.20,325.58 822.37,196.64 822.49,247.34 822.60,262.18 822.78,285.66 822.84,235.21 823.03,230.42 823.12,388.34 823.26,239.34 823.42,326.21 823.49,256.34 823.68,293.03 823.75,302.18 823.92,398.44 824.05,385.12 824.15,123.71 824.33,239.19 824.40,300.59 824.58,344.17 824.68,294.54 824.81,378.92 824.97,279.83 825.04,244.76 825.23,185.02 825.31,296.21 825.47,273.69 825.61,313.74 825.70,316.71 825.88,331.48 825.95,295.21 826.13,321.99 826.23,275.22 826.36,231.98 826.53,301.10 826.60,237.45 826.79,313.23 826.86,244.47 827.02,399.19 827.16,363.31 827.25,218.07 827.44,283.84 827.50,251.36 827.68,253.14 827.79,301.44 827.91,338.91 828.08,371.16 828.15,315.00 828.34,304.02 828.42,277.67 828.57,321.20 828.72,304.82 828.80,277.28 828.99,335.39 829.06,305.27 829.23,287.00 829.35,339.82 829.46,281.87 829.64,277.57 829.70,270.34 829.89,322.03 829.97,255.60 830.12,151.75 830.27,365.05 830.35,224.88 830.54,394.38 830.61,278.93 830.78,370.75 830.91,241.85 831.01,220.53 831.19,270.76 831.25,274.27 831.44,284.09 831.53,403.02 831.67,213.43 831.83,318.37 831.90,242.70 832.09,296.75 832.16,270.94 832.33,168.23 832.46,324.61 832.56,176.82 832.74,273.50 832.81,263.17 832.99,234.69 833.09,262.67 833.22,158.62 833.38,267.32 833.45,295.85 833.64,322.65 833.72,220.81 833.88,145.64 834.02,267.33 834.11,353.89 834.30,247.06 834.36,254.17 834.54,245.34 834.64,328.37 834.77,294.21 834.94,326.15 835.01,274.29 835.20,280.86 835.27,305.58 835.43,342.79 835.57,339.27 835.66,278.62 835.85,386.05 835.91,242.78 836.09,213.61 836.20,292.35 836.32,199.39 836.49,280.92 836.56,239.26 836.75,241.56 836.83,274.00 836.98,394.12 837.13,266.91 837.21,315.18 837.40,228.31 837.47,317.91 837.64,310.39 837.76,313.69 837.87,206.36 838.05,354.79 838.11,348.72 838.30,266.21 838.38,249.30 838.53,391.77 838.69,346.15 838.76,209.43 838.95,233.47 839.02,313.21 839.19,295.98 839.32,271.58 839.42,266.32 839.60,347.11 839.66,289.30 839.85,257.91 839.94,290.77 840.08,363.91 840.24,288.36 840.31,281.39 840.50,248.63 840.57,313.20 840.74,210.77 840.87,329.14 840.97,290.11 841.15,291.56 841.22,258.15 841.40,112.51 841.50,287.57 841.63,188.48 841.80,353.57 841.87,327.72 842.06,375.79 842.13,329.05 842.29,276.70 842.43,324.43 842.52,304.26 842.71,253.85 842.77,327.45 842.95,224.58 843.05,291.46 843.18,367.20 843.35,265.23 843.42,289.35 843.61,263.28 843.68,279.12 843.84,323.36 843.98,283.67 844.07,307.45 844.26,303.56 844.32,370.90 844.50,319.61 844.61,240.26 844.73,345.49 844.90,390.35 844.97,320.02 845.16,313.56 845.24,378.31 845.39,294.90 845.54,331.90 845.62,292.15 845.81,349.28 845.88,250.70 846.05,316.32 846.17,284.69 846.28,228.76 846.46,361.16 846.52,256.73 846.71,190.15 846.80,284.59 846.94,186.12 847.10,301.90 847.17,340.20 847.36,351.35 847.43,351.14 847.60,218.73 847.73,355.17 847.83,344.43 848.01,285.13 848.07,268.85 848.26,298.02 848.35,389.95 848.49,291.86 848.65,231.15 848.72,394.59 848.92,284.62 848.99,314.69 849.15,254.43 849.28,295.92 849.38,209.03 849.56,328.91 849.63,259.35 849.81,206.67 849.91,254.66 850.04,249.60 850.21,270.03 850.28,280.21 850.47,316.00 850.54,282.85 850.70,362.61 850.84,355.77 850.93,238.71 851.12,334.08 851.18,286.97 851.36,292.50 851.46,233.84 851.59,253.28 851.76,273.06 851.83,262.71 852.02,295.48 852.10,218.58 852.25,196.95 852.40,310.36 852.48,229.50 852.67,258.11 852.73,281.40 852.91,325.38 853.02,285.65 853.14,227.40 853.31,220.96 853.38,295.96 853.57,242.56 853.65,250.62 853.80,330.53 853.95,273.90 854.03,270.10 854.22,376.65 854.29,334.41 854.46,299.35 854.58,314.88 854.69,214.76 854.87,269.74 854.93,319.21 855.12,301.91 855.21,298.13 855.35,188.74 855.51,365.31 855.58,223.37 855.77,279.66 855.84,355.14 856.01,278.91 856.14,283.75 856.24,316.32 856.42,284.82 856.49,274.09 856.67,266.32 856.76,365.92 856.90,256.87 857.06,389.59 857.14,332.77 857.33,287.77 857.40,306.95 857.56,172.39 857.69,245.64 857.79,237.69 857.97,257.02 858.04,278.52 858.22,176.95 858.32,307.94 858.45,301.86 858.62,424.80 858.69,256.03 858.88,226.82 858.95,289.13 859.11,268.67 859.25,293.48 859.34,324.78 859.53,336.21 859.59,311.71 859.77,329.99 859.88,388.59 860.00,266.84 860.17,295.20 860.24,377.97 860.43,274.86 860.51,266.70 860.66,374.55 860.81,299.92 860.89,269.39 861.08,336.30 861.14,364.58 861.32,227.60 861.43,291.67 861.55,193.32 861.73,327.86 861.79,222.20 861.98,278.33 862.06,350.05 862.21,341.01 862.36,277.83 862.44,263.94 862.63,241.81 862.70,269.91 862.87,234.72 862.99,279.56 863.10,207.84 863.28,261.68 863.34,295.92 863.53,302.15 863.62,339.14 863.76,213.77 863.92,248.22 864.00,273.15 864.18,286.37 864.25,273.31 864.42,314.20 864.55,406.98 864.65,269.90 864.83,300.66 864.90,276.09 865.08,235.48 865.17,229.21 865.31,332.16 865.47,328.08 865.55,306.94 865.74,259.27 865.81,383.05 865.97,223.93 866.10,348.77 866.20,246.22 866.39,306.30 866.45,342.11 866.63,288.50 866.73,315.56 866.86,331.93 867.03,288.73 867.10,355.09 867.29,263.84 867.36,259.86 867.52,156.14 867.66,262.51 867.75,218.00 867.94,347.27 868.00,335.64 868.18,215.54 868.29,244.37 868.41,226.66 868.58,246.10 868.65,248.71 868.84,200.68 868.92,331.79 869.07,275.28 869.22,249.45 869.30,228.08 869.49,299.19 869.56,317.40 869.73,363.17 869.84,296.45 869.96,280.55 870.14,353.98 870.20,214.31 870.39,238.09 870.47,374.56 870.62,201.02 870.77,376.68 870.86,233.62 871.04,263.04 871.11,240.13 871.28,291.88 871.40,280.50 871.51,296.74 871.69,282.62 871.75,243.66 871.94,262.74 872.03,395.46 872.17,199.88 872.33,350.03 872.41,204.01 872.60,287.17 872.66,323.60 872.83,252.98 872.96,335.91 873.06,183.49 873.24,338.30 873.31,310.84 873.49,215.93 873.58,347.92 873.72,248.61 873.88,252.47 873.96,223.59 874.15,279.60 874.22,298.93 874.38,307.26 874.51,343.51 874.61,253.86 874.80,377.45 874.86,282.81 875.04,240.86 875.14,308.42 875.27,319.58 875.44,353.12 875.51,284.83 875.70,288.14 875.77,329.50 875.93,216.17 876.07,311.02 876.16,338.66 876.35,324.73 876.41,285.08 876.59,275.69 876.70,348.65 876.82,182.93 876.99,243.85 877.06,211.10 877.25,319.90 877.33,287.32 877.48,290.77 877.63,295.73 877.72,357.09 877.90,273.65 877.97,354.54 878.14,262.06 878.25,319.90 878.37,270.99 878.55,330.43 878.61,276.58 878.80,259.80 878.88,246.16 879.03,346.79 879.18,298.72 879.27,283.29 879.45,207.60 879.52,267.05 879.69,220.73 879.81,228.07 879.92,216.61 880.10,317.97 880.17,304.82 880.35,266.13 880.44,326.58 880.58,350.81 880.74,333.80 880.82,345.05 881.01,246.10 881.07,269.80 881.24,294.43 881.37,259.18 881.47,239.42 881.65,381.80 881.72,259.76 881.90,294.42 881.99,361.41 882.13,271.24 882.29,323.75 882.37,193.58 882.56,224.43 882.63,383.53 882.79,240.06 882.92,347.59 883.02,361.91 883.21,296.04 883.27,317.20 883.45,254.54 883.55,351.57 883.68,342.87 883.85,322.24 883.92,365.53 884.11,208.49 884.18,330.22 884.34,173.54 884.48,382.74 884.58,380.59 884.76,331.14 884.82,273.35 885.00,278.65 885.11,274.67 885.23,249.40 885.40,401.95 885.47,259.42 885.66,226.95 885.74,425.56 885.90,129.05 886.04,261.25 886.13,226.07 886.31,298.04 886.38,299.58 886.56,218.25 886.66,298.13 886.78,281.01 886.96,283.37 887.02,272.02 887.21,358.97 887.29,367.56 887.45,278.24 887.59,295.83 887.68,339.62 887.86,267.52 887.92,340.04 887.97,375.49 888.00,342.50" fill="none" stroke="#000" stroke-width="1.5" opacity="0.9"/>
<text x="500.0" y="502" font-family="Times New Roman" font-size="19" text-anchor="middle">Julian Date</text>
<text transform="translate(18,247.0) rotate(-90)" font-family="Times New Roman" font-size="19" text-anchor="middle">position residual (km)</text>
</svg>
