<svg xmlns="http://www.w3.org/2000/svg" width="920" height="520" viewBox="0 0 920 520">
<rect width="100%" height="100%" fill="white"/>
<text x="460.0" y="24" font-family="Times New Roman" font-size="24" text-anchor="middle">Moon native velocity residual</text>
<line x1="112" y1="434" x2="888" y2="434" stroke="#333"/>
<line x1="112" y1="60" x2="112" y2="434" stroke="#333"/>
<line x1="112" y1="434.00" x2="888" y2="434.00" stroke="#ddd"/>
<text x="104" y="438.00" font-family="Times New Roman" font-size="17" text-anchor="end">0</text>
<line x1="112" y1="340.50" x2="888" y2="340.50" stroke="#ddd"/>
<text x="104" y="344.50" font-family="Times New Roman" font-size="17" text-anchor="end">0.02957</text>
<line x1="112" y1="247.00" x2="888" y2="247.00" stroke="#ddd"/>
<text x="104" y="251.00" font-family="Times New Roman" font-size="17" text-anchor="end">0.05914</text>
<line x1="112" y1="153.50" x2="888" y2="153.50" stroke="#ddd"/>
<text x="104" y="157.50" font-family="Times New Roman" font-size="17" text-anchor="end">0.08871</text>
<line x1="112" y1="60.00" x2="888" y2="60.00" stroke="#ddd"/>
<text x="104" y="64.00" font-family="Times New Roman" font-size="17" text-anchor="end">0.1183</text>
<line x1="112.00" y1="434" x2="112.00" y2="439" stroke="#333"/>
<text x="112.00" y="456" font-family="Times New Roman" font-size="17" text-anchor="middle">2378495</text>
<line x1="306.00" y1="434" x2="306.00" y2="439" stroke="#333"/>
<text x="306.00" y="456" font-family="Times New Roman" font-size="17" text-anchor="middle">2433282</text>
<line x1="500.00" y1="434" x2="500.00" y2="439" stroke="#333"/>
<text x="500.00" y="456" font-family="Times New Roman" font-size="17" text-anchor="middle">2488070</text>
<line x1="694.00" y1="434" x2="694.00" y2="439" stroke="#333"/>
<text x="694.00" y="456" font-family="Times New Roman" font-size="17" text-anchor="middle">2542858</text>
<line x1="888.00" y1="434" x2="888.00" y2="439" stroke="#333"/>
<text x="888.00" y="456" font-family="Times New Roman" font-size="17" text-anchor="middle">2597645</text>
<polyline points="112.00,392.07 112.09,401.40 112.24,425.65 112.36,282.16 112.48,411.74 112.63,421.39 112.75,329.57 112.87,422.60 113.01,428.05 113.14,375.27 113.26,414.87 113.40,410.40 113.53,356.03 113.65,402.77 113.79,426.96 113.92,400.77 114.03,413.50 114.18,418.72 114.31,365.00 114.42,419.53 114.56,411.07 114.70,418.52 114.81,375.33 114.95,405.21 115.09,395.31 115.20,367.40 115.34,402.78 115.48,421.33 115.59,410.54 115.72,424.77 115.87,389.91 115.98,388.98 116.11,411.91 116.25,416.22 116.37,348.22 116.50,403.86 116.64,409.79 116.76,376.35 116.88,418.51 117.03,413.97 117.15,399.70 117.27,422.78 117.42,407.73 117.54,422.66 117.66,409.94 117.80,403.26 117.93,283.71 118.05,415.70 118.19,411.64 118.32,374.11 118.43,407.30 118.58,426.87 118.71,341.34 118.82,403.98 118.96,424.72 119.09,411.96 119.21,406.34 119.35,424.02 119.48,405.11 119.60,408.68 119.74,412.89 119.87,402.85 119.98,393.91 120.13,408.61 120.26,398.84 120.37,411.63 120.51,421.01 120.65,413.91 120.76,372.43 120.90,413.69 121.04,418.57 121.15,391.02 121.29,428.15 121.43,378.52 121.54,369.67 121.67,410.98 121.82,403.14 121.93,402.45 122.06,397.33 122.20,402.26 122.32,353.76 122.45,409.51 122.59,418.14 122.71,371.19 122.83,409.63 122.98,409.29 123.10,383.07 123.22,420.07 123.37,421.57 123.49,316.68 123.61,388.89 123.75,409.84 123.88,360.01 124.00,427.49 124.14,409.69 124.27,407.94 124.38,409.52 124.53,428.06 124.66,347.78 124.77,407.40 124.92,426.05 125.05,370.33 125.16,418.69 125.30,406.46 125.44,397.33 125.55,427.92 125.69,410.66 125.82,362.07 125.94,393.25 126.08,413.72 126.21,377.26 126.32,416.32 126.46,405.45 126.60,408.43 126.71,404.11 126.85,414.91 126.99,411.25 127.10,398.43 127.24,410.54 127.38,385.29 127.49,380.11 127.62,416.93 127.77,427.27 127.88,389.09 128.01,401.31 128.15,424.07 128.27,378.33 128.40,423.20 128.54,422.85 128.66,309.23 128.78,413.49 128.93,412.28 129.05,315.87 129.17,399.72 129.32,425.45 129.44,321.12 129.56,426.54 129.70,403.02 129.83,258.45 129.95,414.06 130.09,418.58 130.22,370.58 130.33,414.85 130.48,424.25 130.61,357.56 130.72,420.33 130.87,421.68 131.00,356.20 131.11,395.57 131.25,418.63 131.39,407.05 131.50,420.13 131.64,398.55 131.78,382.76 131.89,384.40 132.03,410.91 132.16,426.87 132.27,385.94 132.41,412.18 132.55,411.86 132.66,375.76 132.80,414.28 132.94,404.57 133.05,339.32 133.19,400.77 133.33,406.85 133.44,384.91 133.57,415.99 133.72,427.01 133.83,360.50 133.96,420.30 134.11,426.49 134.22,378.40 134.35,414.62 134.49,422.79 134.61,388.40 134.73,422.25 134.88,415.29 135.00,361.61 135.12,424.12 135.27,421.18 135.39,339.65 135.51,423.44 135.65,406.33 135.78,327.10 135.90,405.74 136.04,410.50 136.17,378.57 136.28,414.06 136.43,415.47 136.56,369.52 136.67,400.07 136.82,397.60 136.95,391.24 137.06,403.27 137.20,420.97 137.34,400.31 137.45,420.81 137.59,410.65 137.73,399.35 137.84,402.93 137.98,420.97 138.12,398.45 138.23,411.80 138.36,412.47 138.50,410.13 138.61,399.19 138.75,420.62 138.89,422.25 139.00,402.72 139.14,417.56 139.28,397.00 139.39,372.41 139.52,429.25 139.67,401.72 139.78,378.08 139.91,429.55 140.06,412.52 140.17,357.39 140.30,422.43 140.44,400.61 140.56,315.10 140.69,413.43 140.83,412.08 140.95,369.44 141.07,421.23 141.22,416.56 141.34,340.02 141.46,394.74 141.61,401.09 141.73,333.24 141.85,414.19 141.99,410.16 142.12,372.72 142.24,426.86 142.38,407.68 142.51,408.87 142.62,402.11 142.77,408.12 142.90,422.41 143.01,400.77 143.15,417.58 143.29,407.19 143.40,420.36 143.54,411.09 143.68,401.00 143.79,405.36 143.93,424.34 144.07,405.89 144.18,414.23 144.31,410.68 144.45,400.12 144.57,390.99 144.70,420.65 144.84,418.71 144.95,389.33 145.09,404.46 145.23,423.14 145.34,397.63 145.47,414.84 145.62,423.95 145.73,341.49 145.86,415.44 146.01,413.48 146.12,325.76 146.25,416.19 146.39,417.57 146.51,381.10 146.64,422.45 146.78,409.17 146.90,277.77 147.02,412.39 147.17,411.86 147.29,273.59 147.41,419.47 147.56,416.75 147.68,366.65 147.80,426.22 147.94,406.80 148.07,317.28 148.19,421.85 148.33,406.45 148.46,376.28 148.57,401.72 148.72,412.04 148.85,389.66 148.96,418.87 149.10,425.61 149.24,376.70 149.35,400.10 149.49,412.29 149.63,403.54 149.74,398.94 149.88,407.50 150.02,401.04 150.13,412.13 150.26,415.59 150.41,399.47 150.52,373.99 150.65,401.77 150.79,419.28 150.91,373.95 151.04,425.85 151.18,414.51 151.30,372.49 151.42,423.09 151.57,416.48 151.68,409.67 151.81,426.03 151.96,413.99 152.07,284.20 152.20,409.32 152.34,405.72 152.46,332.28 152.59,428.67 152.73,400.73 152.86,374.12 152.97,404.80 153.12,397.08 153.25,329.95 153.36,422.29 153.51,429.69 153.63,382.41 153.75,418.90 153.89,405.73 154.02,362.15 154.14,412.15 154.28,419.09 154.41,414.29 154.52,408.38 154.67,405.79 154.80,395.86 154.91,407.87 155.05,424.43 155.19,411.88 155.30,403.31 155.44,418.56 155.58,425.68 155.69,413.94 155.83,417.89 155.97,429.37 156.08,414.96 156.21,414.19 156.36,410.88 156.47,353.37 156.60,416.66 156.74,416.08 156.86,398.60 156.99,422.35 157.13,417.27 157.25,340.99 157.38,417.81 157.52,411.76 157.64,387.43 157.76,417.37 157.91,425.29 158.03,361.34 158.15,415.56 158.30,396.35 158.42,342.76 158.54,407.72 158.68,408.84 158.81,353.22 158.92,399.79 159.07,422.47 159.20,367.76 159.31,402.27 159.46,411.32 159.59,383.52 159.70,403.68 159.84,420.11 159.98,380.04 160.09,401.48 160.23,412.00 160.36,391.99 160.48,410.07 160.62,423.85 160.75,401.00 160.86,399.61 161.00,412.94 161.14,381.95 161.25,395.67 161.39,417.53 161.53,419.22 161.64,382.73 161.78,414.70 161.92,409.60 162.03,415.75 162.16,410.02 162.31,411.35 162.42,409.06 162.55,420.16 162.70,391.09 162.81,401.58 162.94,418.71 163.08,413.25 163.20,371.64 163.33,402.49 163.47,400.83 163.59,303.53 163.71,413.84 163.86,402.28 163.98,302.93 164.10,424.32 164.25,418.54 164.37,370.37 164.49,415.51 164.63,422.77 164.76,348.46 164.87,397.31 165.02,426.56 165.15,385.24 165.26,423.48 165.41,407.90 165.54,337.41 165.65,421.14 165.79,416.25 165.93,388.13 166.04,405.22 166.18,412.13 166.32,370.11 166.43,398.66 166.57,413.90 166.70,405.17 166.81,421.06 166.95,410.42 167.09,396.23 167.20,408.11 167.34,406.65 167.48,406.72 167.59,387.14 167.73,413.38 167.87,416.61 167.98,366.92 168.12,422.41 168.26,417.95 168.37,355.33 168.50,417.21 168.65,415.36 168.76,372.86 168.89,400.72 169.03,420.77 169.15,372.39 169.28,414.91 169.42,422.44 169.54,347.69 169.66,415.49 169.81,407.06 169.93,313.07 170.05,417.94 170.20,414.15 170.32,356.91 170.44,410.25 170.58,413.35 170.71,331.32 170.83,430.28 170.97,421.36 171.10,402.61 171.21,415.24 171.36,416.13 171.49,363.57 171.60,401.36 171.74,427.47 171.88,417.98 171.99,392.44 172.13,412.72 172.27,387.60 172.38,423.11 172.52,409.30 172.66,381.32 172.77,397.18 172.90,423.24 173.04,420.82 173.15,403.81 173.29,415.12 173.43,407.95 173.54,401.61 173.68,420.06 173.82,416.91 173.93,393.50 174.07,404.25 174.21,405.71 174.32,368.84 174.45,421.36 174.60,419.46 174.71,406.28 174.84,415.81 174.98,397.37 175.10,341.56 175.23,420.34 175.37,405.26 175.49,294.58 175.61,414.88 175.76,396.01 175.88,290.95 176.00,424.17 176.15,420.23 176.27,309.71 176.39,393.65 176.53,399.41 176.66,383.54 176.78,423.37 176.92,408.93 177.05,371.36 177.16,416.38 177.31,422.93 177.44,395.89 177.55,401.44 177.69,425.70 177.83,418.21 177.94,399.21 178.08,409.91 178.22,405.50 178.33,376.30 178.47,414.35 178.61,364.33 178.72,405.47 178.86,423.62 179.00,410.96 179.11,375.69 179.24,411.77 179.38,387.59 179.49,382.56 179.63,418.04 179.77,414.32 179.88,419.40 180.02,408.52 180.16,406.48 180.27,383.56 180.40,414.08 180.55,414.49 180.66,360.14 180.79,423.53 180.94,411.44 181.05,288.12 181.18,414.76 181.32,407.91 181.44,313.67 181.56,422.61 181.71,424.53 181.83,425.79 181.95,413.62 182.10,414.36 182.22,369.33 182.34,406.45 182.48,418.90 182.61,410.89 182.73,408.20 182.87,416.97 183.00,351.93 183.11,403.38 183.26,421.63 183.39,373.57 183.50,387.88 183.64,424.60 183.78,366.58 183.89,414.60 184.03,412.14 184.17,387.74 184.28,394.07 184.42,408.09 184.56,405.87 184.67,406.99 184.81,408.86 184.95,408.15 185.06,383.95 185.19,422.24 185.33,396.09 185.45,409.75 185.58,430.45 185.72,421.89 185.84,360.57 185.97,417.77 186.11,425.91 186.22,395.70 186.35,408.35 186.50,409.84 186.61,397.08 186.74,417.37 186.89,422.08 187.00,331.38 187.13,411.23 187.27,399.22 187.39,348.56 187.51,423.77 187.66,417.79 187.78,342.78 187.90,405.83 188.05,410.16 188.17,342.29 188.29,415.69 188.43,404.54 188.56,370.66 188.68,405.04 188.82,407.59 188.95,369.09 189.07,430.15 189.21,404.92 189.34,409.33 189.45,410.17 189.60,424.42 189.73,396.69 189.84,404.94 189.98,426.49 190.12,387.78 190.23,386.35 190.37,417.54 190.51,404.81 190.62,373.92 190.76,404.54 190.90,419.95 191.01,372.60 191.14,420.37 191.29,414.25 191.40,400.21 191.53,401.69 191.67,426.19 191.79,361.10 191.92,414.61 192.06,417.41 192.18,328.36 192.30,417.94 192.45,428.16 192.57,364.61 192.69,421.54 192.84,414.54 192.96,287.76 193.08,405.02 193.22,408.75 193.35,390.30 193.47,408.11 193.61,421.45 193.74,287.53 193.85,416.40 194.00,424.67 194.13,365.55 194.24,422.83 194.38,413.90 194.52,378.33 194.63,393.49 194.77,426.56 194.91,373.33 195.02,402.63 195.16,396.50 195.29,374.45 195.40,402.50 195.55,420.15 195.68,382.77 195.79,417.33 195.93,403.47 196.07,388.11 196.18,420.99 196.32,422.48 196.46,410.32 196.57,370.74 196.71,411.44 196.85,385.89 196.96,415.89 197.09,411.27 197.24,424.15 197.35,387.03 197.48,428.27 197.62,404.62 197.74,380.48 197.87,428.16 198.01,423.37 198.13,345.36 198.25,408.50 198.40,400.09 198.52,379.18 198.64,399.81 198.79,415.25 198.91,276.02 199.03,414.84 199.17,410.41 199.30,393.31 199.42,389.96 199.56,419.11 199.69,355.31 199.80,421.76 199.95,418.86 200.08,347.94 200.19,392.27 200.34,420.33 200.47,384.88 200.58,409.49 200.72,407.93 200.86,380.57 200.97,400.02 201.11,410.57 201.25,410.51 201.36,417.87 201.50,427.06 201.63,386.58 201.74,422.36 201.88,404.02 202.02,411.51 202.13,383.45 202.27,401.37 202.41,410.16 202.52,397.27 202.66,421.61 202.80,408.04 202.91,411.66 203.04,410.94 203.19,414.08 203.30,382.85 203.43,424.88 203.57,420.17 203.69,383.01 203.82,415.67 203.96,413.23 204.08,367.27 204.20,421.09 204.35,417.00 204.47,291.52 204.59,409.14 204.74,408.13 204.86,266.49 204.98,407.66 205.12,415.41 205.25,289.35 205.37,399.11 205.51,403.93 205.64,382.36 205.75,411.92 205.90,410.82 206.03,362.33 206.14,411.80 206.29,411.83 206.42,402.05 206.53,416.11 206.67,422.23 206.81,386.62 206.92,410.71 207.06,423.83 207.20,387.25 207.31,417.45 207.45,416.17 207.59,393.94 207.70,403.22 207.83,413.92 207.97,388.56 208.08,382.19 208.22,410.24 208.36,400.88 208.47,402.46 208.61,418.91 208.75,398.45 208.86,337.09 208.99,406.62 209.14,397.62 209.25,350.48 209.38,425.82 209.53,411.46 209.64,313.47 209.77,401.27 209.91,412.06 210.03,298.74 210.15,414.85 210.30,402.85 210.42,281.40 210.54,405.47 210.69,404.66 210.81,360.82 210.93,416.91 211.08,404.05 211.20,370.41 211.32,418.83 211.46,399.38 211.59,391.40 211.70,394.14 211.85,412.40 211.98,373.65 212.09,424.25 212.24,415.01 212.37,388.71 212.48,414.53 212.62,415.30 212.76,410.75 212.87,393.07 213.01,401.88 213.15,378.99 213.26,390.90 213.40,407.24 213.54,414.02 213.65,401.27 213.78,411.36 213.92,421.10 214.03,344.19 214.17,409.68 214.31,377.15 214.42,396.62 214.56,413.32 214.70,418.09 214.81,384.18 214.94,415.99 215.09,406.78 215.20,385.98 215.33,408.67 215.48,404.78 215.59,362.60 215.72,407.94 215.86,404.14 215.98,382.60 216.11,414.09 216.25,407.84 216.37,359.52 216.49,410.16 216.64,424.74 216.76,350.20 216.88,395.70 217.03,403.91 217.15,299.84 217.27,406.52 217.41,415.57 217.54,426.48 217.66,404.48 217.80,418.62 217.93,369.01 218.04,422.97 218.19,421.13 218.32,384.59 218.43,396.37 218.57,421.35 218.71,386.24 218.82,396.36 218.96,421.71 219.10,414.15 219.21,380.22 219.35,422.02 219.49,403.12 219.60,422.96 219.73,422.37 219.88,377.26 219.99,398.47 220.12,410.54 220.26,405.56 220.38,380.57 220.51,419.43 220.65,396.01 220.76,381.00 220.89,419.30 221.04,415.57 221.15,398.95 221.28,417.13 221.43,409.06 221.54,406.46 221.67,416.84 221.81,423.11 221.93,305.99 222.06,395.73 222.20,410.53 222.32,347.34 222.44,411.95 222.59,414.25 222.71,399.81 222.83,409.56 222.98,409.22 223.10,322.66 223.22,406.52 223.36,426.18 223.49,379.74 223.61,399.42 223.75,400.62 223.88,404.96 223.99,414.07 224.14,411.31 224.27,415.45 224.38,423.20 224.52,426.83 224.66,393.85 224.77,395.77 224.91,407.38 225.05,381.85 225.16,403.10 225.30,417.45 225.44,419.10 225.55,404.84 225.68,412.15 225.83,409.33 225.94,405.17 226.07,414.32 226.21,422.59 226.33,383.64 226.46,406.50 226.60,405.58 226.72,380.30 226.84,403.81 226.99,411.05 227.11,335.80 227.23,400.22 227.38,402.69 227.50,372.71 227.62,414.39 227.76,404.29 227.89,356.83 228.01,421.72 228.15,418.25 228.28,295.46 228.39,420.24 228.54,410.82 228.67,368.96 228.78,409.46 228.93,426.37 229.06,349.67 229.17,412.08 229.31,423.56 229.45,402.55 229.56,408.73 229.70,411.15 229.83,389.39 229.95,396.80 230.09,404.46 230.22,402.64 230.33,401.04 230.47,403.66 230.61,406.18 230.72,388.45 230.86,412.36 231.00,403.75 231.11,400.59 231.25,403.93 231.39,410.73 231.50,353.87 231.63,415.50 231.78,409.09 231.89,387.01 232.02,410.30 232.16,408.47 232.28,384.46 232.41,408.17 232.55,410.62 232.67,362.52 232.80,424.61 232.94,416.96 233.06,334.53 233.18,419.15 233.33,413.17 233.45,341.14 233.57,413.28 233.72,407.69 233.84,298.84 233.96,397.96 234.10,409.08 234.23,288.13 234.34,392.85 234.49,417.96 234.62,370.82 234.73,422.72 234.88,405.32 235.01,376.01 235.12,406.64 235.26,427.32 235.40,398.94 235.51,399.94 235.65,424.28 235.79,397.95 235.90,412.98 236.04,416.77 236.17,419.80 236.28,421.99 236.42,414.15 236.56,413.61 236.67,423.13 236.81,424.19 236.95,412.41 237.06,426.00 237.20,411.48 237.34,386.39 237.45,399.08 237.58,418.09 237.73,424.58 237.84,417.11 237.97,413.80 238.12,417.63 238.23,376.06 238.36,400.89 238.50,389.10 238.62,331.62 238.75,409.10 238.89,392.14 239.01,338.99 239.13,411.96 239.28,424.66 239.40,359.49 239.52,415.19 239.67,403.68 239.79,379.28 239.91,393.77 240.05,414.84 240.18,314.69 240.30,409.09 240.44,410.33 240.57,374.28 240.68,404.67 240.83,419.77 240.96,404.36 241.07,424.85 241.21,414.48 241.35,391.55 241.46,411.50 241.60,412.01 241.74,379.83 241.85,392.99 241.99,424.89 242.13,410.04 242.24,406.11 242.37,421.00 242.51,402.95 242.62,405.45 242.76,413.55 242.90,414.41 243.01,393.69 243.15,417.47 243.29,411.21 243.40,386.97 243.54,408.76 243.68,398.41 243.79,361.88 243.92,401.52 244.07,405.08 244.18,420.65 244.31,412.20 244.45,415.57 244.57,347.23 244.70,409.19 244.84,414.21 244.96,322.09 245.08,421.64 245.23,401.38 245.35,411.24 245.47,414.88 245.62,411.98 245.74,413.02 245.86,405.26 246.00,418.02 246.13,365.53 246.25,403.04 246.39,417.40 246.52,309.88 246.63,398.12 246.78,418.19 246.91,378.26 247.02,415.81 247.16,410.47 247.30,387.52 247.41,405.22 247.55,418.44 247.69,378.44 247.80,391.56 247.94,417.54 248.08,388.35 248.19,412.44 248.32,412.15 248.47,394.53 248.58,376.00 248.71,410.38 248.85,419.30 248.96,372.03 249.10,405.31 249.24,410.32 249.35,376.85 249.49,406.82 249.63,419.38 249.74,324.81 249.87,424.77 250.02,420.22 250.13,366.20 250.26,406.29 250.40,420.92 250.52,390.06 250.65,414.61 250.79,413.41 250.91,415.45 251.03,426.40 251.18,411.48 251.30,256.39 251.42,411.47 251.57,394.93 251.69,365.03 251.81,411.22 251.95,415.92 252.08,353.19 252.20,402.58 252.34,414.32 252.47,402.30 252.58,413.39 252.73,424.45 252.86,372.49 252.97,400.28 253.11,407.68 253.25,399.43 253.36,391.30 253.50,409.28 253.64,410.34 253.75,383.09 253.89,428.95 254.03,414.99 254.14,391.27 254.28,420.01 254.42,390.76 254.53,412.36 254.66,420.90 254.80,390.86 254.92,414.37 255.05,412.00 255.19,389.07 255.30,393.32 255.44,414.31 255.58,397.55 255.69,398.65 255.82,408.15 255.97,423.35 256.08,366.77 256.21,412.77 256.36,421.23 256.47,332.07 256.60,391.55 256.74,392.22 256.86,329.84 256.98,408.21 257.13,411.33 257.25,324.64 257.37,391.44 257.52,424.46 257.64,379.81 257.76,397.40 257.90,418.00 258.03,412.32 258.15,412.86 258.29,416.13 258.42,359.75 258.54,416.53 258.68,416.48 258.81,395.12 258.92,400.98 259.06,426.74 259.20,387.91 259.31,397.52 259.45,422.24 259.59,383.37 259.70,414.51 259.84,422.88 259.98,400.64 260.09,388.63 260.23,402.25 260.37,393.37 260.48,401.48 260.61,423.27 260.76,396.55 260.87,396.14 261.00,420.83 261.14,404.08 261.26,360.41 261.39,417.36 261.53,411.37 261.65,389.96 261.77,398.31 261.92,404.82 262.04,390.46 262.16,400.08 262.31,411.26 262.43,286.99 262.55,413.65 262.69,412.45 262.82,394.75 262.94,396.39 263.08,413.83 263.21,393.19 263.32,414.92 263.47,430.84 263.60,344.56 263.71,403.94 263.85,415.64 263.99,387.72 264.10,406.72 264.24,426.16 264.37,388.29 264.49,404.50 264.63,397.62 264.76,369.37 264.87,411.97 265.02,416.27 265.15,403.44 265.26,397.31 265.40,416.06 265.54,404.67 265.65,389.21 265.79,407.50 265.93,402.14 266.04,394.13 266.18,405.72 266.32,421.89 266.43,371.01 266.56,415.70 266.71,417.76 266.82,352.19 266.95,410.75 267.09,415.74 267.21,366.53 267.34,409.98 267.48,407.50 267.60,388.82 267.72,420.71 267.87,415.46 267.99,369.14 268.11,398.83 268.26,396.67 268.38,217.99 268.50,410.42 268.64,407.62 268.77,361.63 268.89,407.91 269.03,414.83 269.16,343.52 269.27,415.60 269.42,423.03 269.55,371.88 269.66,406.21 269.80,402.18 269.94,396.53 270.05,408.59 270.19,409.95 270.33,409.70 270.44,396.38 270.58,401.35 270.71,396.46 270.82,382.44 270.97,419.50 271.10,390.63 271.21,389.76 271.35,422.26 271.49,396.74 271.60,387.29 271.74,412.86 271.88,388.70 271.99,382.35 272.13,414.93 272.27,421.63 272.38,385.48 272.51,427.95 272.66,386.36 272.77,402.52 272.90,409.52 273.04,414.26 273.16,352.25 273.29,423.54 273.43,401.37 273.55,390.24 273.67,407.11 273.82,418.40 273.94,350.13 274.06,419.19 274.21,419.44 274.33,235.39 274.45,409.34 274.59,420.80 274.72,315.53 274.84,417.91 274.98,420.23 275.11,375.39 275.22,431.73 275.37,408.47 275.50,390.47 275.61,421.03 275.76,411.59 275.89,402.15 276.00,403.57 276.14,401.51 276.28,407.66 276.39,416.34 276.53,417.14 276.67,391.13 276.78,383.96 276.92,414.22 277.05,387.80 277.16,406.05 277.30,417.39 277.44,411.54 277.55,386.14 277.69,412.82 277.83,378.60 277.94,405.26 278.08,418.29 278.22,415.60 278.33,397.14 278.46,420.84 278.61,388.67 278.72,390.33 278.85,417.46 278.99,407.89 279.11,374.00 279.24,416.38 279.38,404.50 279.50,276.15 279.62,405.76 279.77,413.72 279.89,287.39 280.01,421.96 280.16,408.83 280.28,412.14 280.40,400.58 280.54,416.72 280.67,344.41 280.79,415.28 280.93,409.08 281.06,360.97 281.17,418.71 281.32,413.74 281.45,334.24 281.56,425.93 281.71,413.78 281.84,399.82 281.95,413.55 282.09,412.39 282.23,398.94 282.34,418.54 282.48,417.08 282.62,412.89 282.73,383.99 282.87,406.30 283.01,388.49 283.12,404.85 283.25,420.78 283.39,404.59 283.50,390.82 283.64,402.89 283.78,408.85 283.89,386.21 284.03,423.20 284.17,405.54 284.28,379.36 284.41,422.49 284.56,410.56 284.67,393.55 284.80,414.46 284.95,425.96 285.06,284.78 285.19,413.48 285.33,398.90 285.45,239.62 285.58,412.08 285.72,424.18 285.84,377.69 285.96,421.33 286.11,406.24 286.23,378.01 286.35,419.70 286.50,405.06 286.62,389.15 286.74,418.04 286.88,407.41 287.01,359.08 287.13,416.67 287.27,413.00 287.40,395.09 287.51,412.58 287.66,400.01 287.79,381.62 287.90,410.38 288.04,418.42 288.18,415.94 288.29,399.10 288.43,418.40 288.57,397.65 288.68,385.26 288.82,418.62 288.96,399.69 289.07,403.38 289.20,397.06 289.34,411.78 289.46,403.31 289.59,427.07 289.73,393.16 289.84,391.76 289.98,407.37 290.12,396.95 290.23,346.74 290.36,406.47 290.51,402.85 290.62,386.44 290.75,411.04 290.90,404.71 291.01,396.14 291.14,416.95 291.28,407.80 291.40,336.01 291.53,428.78 291.67,404.32 291.79,244.25 291.91,429.08 292.06,404.12 292.18,365.81 292.30,408.46 292.45,409.62 292.57,326.21 292.69,396.62 292.83,421.55 292.96,410.30 293.08,422.44 293.22,426.93 293.35,369.93 293.46,408.53 293.61,409.87 293.74,404.01 293.85,411.39 293.99,414.75 294.13,425.04 294.24,370.68 294.38,418.79 294.52,367.92 294.63,421.07 294.77,424.59 294.91,392.88 295.02,384.46 295.15,410.85 295.30,405.81 295.41,413.55 295.54,420.06 295.68,413.66 295.80,371.67 295.93,416.14 296.07,392.99 296.19,347.54 296.31,415.51 296.46,404.40 296.58,361.25 296.70,415.53 296.85,394.90 296.97,360.92 297.09,406.81 297.23,416.91 297.36,314.97 297.48,416.03 297.62,416.58 297.75,365.95 297.86,410.30 298.01,409.58 298.14,376.99 298.25,418.89 298.40,404.09 298.53,390.44 298.64,401.82 298.78,421.38 298.91,408.49 299.03,403.00 299.17,419.32 299.30,376.54 299.41,379.91 299.56,401.21 299.69,382.93 299.80,403.08 299.94,419.65 300.08,413.44 300.19,402.08 300.33,399.09 300.47,394.04 300.58,426.14 300.72,417.13 300.86,398.12 300.97,406.52 301.10,405.18 301.25,406.04 301.36,371.73 301.49,404.45 301.63,390.22 301.75,359.57 301.88,424.11 302.02,418.78 302.14,317.72 302.26,418.69 302.41,400.06 302.53,256.64 302.65,408.25 302.80,420.97 302.92,288.74 303.04,421.24 303.18,422.75 303.31,331.15 303.43,425.35 303.57,421.17 303.70,294.50 303.81,398.93 303.96,405.31 304.09,400.77 304.20,419.39 304.35,418.23 304.48,428.15 304.59,402.42 304.73,402.83 304.87,400.50 304.98,412.49 305.12,417.38 305.26,401.28 305.37,431.78 305.51,419.82 305.64,417.80 305.75,416.80 305.89,416.21 306.03,395.45 306.14,399.11 306.28,407.06 306.42,389.23 306.53,405.29 306.67,416.09 306.81,417.08 306.92,388.33 307.05,416.50 307.20,424.95 307.31,354.53 307.44,425.16 307.59,422.92 307.70,406.30 307.83,420.86 307.97,419.14 308.09,325.63 308.22,413.18 308.36,389.93 308.48,327.50 308.60,399.50 308.75,429.94 308.87,231.78 308.99,428.96 309.14,423.03 309.26,360.01 309.38,428.66 309.52,415.45 309.65,356.09 309.76,405.65 309.91,417.97 310.04,367.35 310.15,399.71 310.30,407.55 310.43,378.89 310.54,400.04 310.68,416.31 310.82,407.72 310.93,400.13 311.07,407.09 311.21,400.05 311.32,412.85 311.46,418.48 311.60,401.08 311.70,407.46 311.84,414.09 311.98,373.05 312.09,396.33 312.23,428.24 312.37,399.63 312.48,398.91 312.62,408.71 312.76,401.84 312.87,394.31 313.00,413.01 313.15,407.01 313.26,361.05 313.39,408.11 313.54,421.38 313.65,384.90 313.78,426.05 313.92,422.76 314.04,321.66 314.17,405.81 314.31,419.70 314.43,366.13 314.55,417.29 314.70,416.68 314.82,290.94 314.94,408.60 315.09,426.71 315.21,357.77 315.33,390.89 315.47,425.87 315.60,315.36 315.72,417.51 315.86,423.58 315.99,405.00 316.10,390.47 316.25,413.03 316.38,416.01 316.49,417.77 316.63,418.14 316.77,410.14 316.88,391.84 317.02,402.39 317.16,386.11 317.27,383.08 317.41,422.26 317.55,411.77 317.66,377.92 317.79,411.38 317.93,409.24 318.04,382.17 318.18,401.64 318.32,413.40 318.43,399.46 318.57,422.16 318.71,417.70 318.82,361.90 318.96,416.04 319.10,405.31 319.21,364.42 319.34,418.29 319.49,408.97 319.60,327.80 319.73,406.19 319.87,403.65 319.99,313.84 320.12,414.35 320.26,418.85 320.38,300.06 320.50,395.83 320.65,426.83 320.77,299.96 320.89,413.76 321.04,426.48 321.16,281.21 321.28,413.48 321.42,411.26 321.55,396.43 321.67,412.61 321.81,421.92 321.94,373.49 322.05,394.23 322.20,420.89 322.33,413.11 322.44,408.76 322.58,410.11 322.72,403.01 322.83,408.66 322.97,419.74 323.11,376.10 323.22,415.35 323.36,407.50 323.50,390.35 323.61,405.38 323.74,422.77 323.89,419.32 324.00,387.98 324.13,404.79 324.27,385.29 324.38,386.62 324.52,414.59 324.66,414.21 324.77,369.66 324.91,405.66 325.05,416.68 325.16,371.93 325.29,411.33 325.44,416.93 325.55,294.74 325.68,402.26 325.82,397.12 325.94,309.47 326.07,404.14 326.21,424.12 326.33,394.21 326.45,429.61 326.60,420.24 326.72,300.69 326.84,412.16 326.99,421.59 327.11,361.21 327.23,416.64 327.37,417.86 327.50,354.19 327.62,406.47 327.76,421.39 327.89,364.11 328.00,408.20 328.15,405.24 328.28,380.76 328.39,407.77 328.53,428.85 328.67,375.42 328.78,401.47 328.92,414.03 329.06,377.49 329.17,389.02 329.31,402.51 329.45,400.56 329.56,387.57 329.70,424.23 329.84,410.57 329.95,393.74 330.08,412.58 330.22,388.88 330.34,395.56 330.47,422.77 330.61,420.83 330.73,386.01 330.86,409.92 331.00,394.39 331.12,396.61 331.24,421.41 331.39,412.50 331.51,300.89 331.63,414.74 331.78,392.74 331.90,330.98 332.02,405.00 332.16,402.87 332.29,304.42 332.40,411.30 332.55,416.00 332.68,319.30 332.79,398.56 332.94,413.92 333.07,362.49 333.18,411.93 333.32,426.17 333.45,390.68 333.57,411.39 333.71,414.63 333.84,387.14 333.96,405.41 334.10,414.05 334.23,421.59 334.34,385.53 334.48,406.86 334.62,393.20 334.73,401.43 334.87,416.45 335.01,390.26 335.12,352.63 335.26,410.66 335.40,400.68 335.51,393.93 335.65,413.93 335.79,402.23 335.90,379.97 336.03,412.31 336.18,414.88 336.29,389.38 336.42,414.56 336.56,412.97 336.68,384.39 336.81,414.41 336.95,408.82 337.07,327.72 337.19,411.61 337.34,401.96 337.46,319.92 337.58,418.26 337.73,422.23 337.85,341.81 337.97,416.17 338.11,410.28 338.24,259.82 338.36,428.12 338.50,420.55 338.63,417.09 338.74,396.65 338.89,421.27 339.02,346.51 339.13,411.83 339.27,415.21 339.41,365.76 339.52,409.50 339.66,401.82 339.80,388.42 339.91,406.40 340.05,420.11 340.18,413.16 340.29,398.43 340.44,416.96 340.57,390.07 340.68,393.01 340.82,413.01 340.96,381.33 341.07,384.86 341.21,423.53 341.35,400.83 341.46,420.13 341.60,407.87 341.74,393.45 341.85,370.00 341.98,410.88 342.13,393.70 342.24,353.61 342.37,408.72 342.51,416.58 342.63,392.61 342.76,426.21 342.90,415.29 343.02,327.24 343.14,423.34 343.29,424.74 343.41,273.11 343.53,413.94 343.68,423.66 343.80,336.59 343.92,416.52 344.06,416.00 344.19,306.77 344.31,421.09 344.45,399.23 344.58,378.18 344.69,406.32 344.84,409.28 344.97,386.70 345.08,412.05 345.22,411.04 345.36,359.30 345.47,405.36 345.61,398.40 345.75,359.21 345.86,398.29 346.00,399.72 346.14,409.29 346.25,405.90 346.39,408.78 346.52,416.89 346.63,389.75 346.77,409.34 346.91,408.88 347.02,391.79 347.16,421.53 347.30,395.96 347.41,395.53 347.55,408.29 347.69,419.13 347.80,387.10 347.93,421.11 348.08,418.11 348.19,358.68 348.32,410.93 348.46,397.92 348.58,340.68 348.71,420.14 348.85,410.81 348.97,259.30 349.09,421.40 349.24,403.08 349.36,369.50 349.48,422.01 349.63,405.44 349.75,312.43 349.87,399.21 350.01,396.34 350.14,383.67 350.26,406.07 350.40,413.90 350.53,367.76 350.64,413.04 350.79,406.70 350.92,367.63 351.03,413.58 351.18,419.19 351.31,405.61 351.42,396.24 351.56,427.02 351.70,411.60 351.81,425.03 351.95,416.55 352.09,402.05 352.20,408.21 352.34,417.69 352.48,402.09 352.59,386.16 352.72,402.14 352.86,391.37 352.97,394.65 353.11,428.10 353.25,396.31 353.36,391.34 353.50,408.62 353.64,413.23 353.75,396.37 353.88,400.62 354.03,398.49 354.14,391.92 354.27,417.47 354.42,415.43 354.53,338.51 354.66,402.35 354.80,421.55 354.92,324.08 355.04,415.56 355.19,399.98 355.31,367.63 355.43,420.26 355.58,406.07 355.70,354.79 355.82,407.61 355.96,417.35 356.09,364.30 356.21,426.02 356.35,412.47 356.48,329.22 356.59,406.65 356.74,417.48 356.87,377.46 356.98,407.63 357.13,417.83 357.26,394.47 357.37,412.25 357.51,415.57 357.65,382.56 357.76,403.09 357.90,409.58 358.04,368.15 358.15,414.08 358.29,414.30 358.43,395.03 358.54,408.51 358.67,400.58 358.81,385.22 358.93,384.05 359.06,409.77 359.20,408.22 359.31,373.57 359.45,398.55 359.59,418.27 359.70,384.84 359.83,418.11 359.98,401.29 360.09,313.84 360.22,404.83 360.37,417.03 360.48,315.59 360.61,420.47 360.75,410.87 360.87,374.55 361.00,409.62 361.14,427.71 361.26,353.50 361.38,422.27 361.53,411.56 361.65,394.97 361.77,414.84 361.92,415.40 362.04,374.20 362.16,394.04 362.30,408.36 362.43,376.99 362.55,415.82 362.69,414.01 362.82,410.26 362.93,409.63 363.08,408.29 363.21,408.46 363.32,402.30 363.46,416.70 363.60,402.48 363.71,408.44 363.85,404.55 363.99,388.49 364.10,392.99 364.24,418.31 364.38,396.20 364.49,373.01 364.62,418.74 364.77,405.76 364.88,396.56 365.01,412.26 365.15,414.20 365.27,409.95 365.40,429.55 365.54,414.53 365.66,396.15 365.78,417.80 365.93,413.18 366.04,335.18 366.17,416.41 366.32,416.63 366.43,326.29 366.56,403.92 366.70,411.69 366.82,294.67 366.95,402.63 367.09,420.84 367.22,349.85 367.33,417.96 367.48,401.77 367.61,342.33 367.72,417.94 367.87,409.97 367.99,415.40 368.11,404.83 368.25,404.77 368.38,379.67 368.50,412.08 368.64,404.69 368.77,397.67 368.88,411.90 369.03,405.83 369.16,403.46 369.27,398.64 369.41,410.11 369.55,423.05 369.66,392.00 369.80,411.02 369.94,411.53 370.05,413.46 370.19,419.96 370.33,388.52 370.44,384.11 370.57,421.00 370.72,412.60 370.83,379.27 370.96,403.73 371.10,421.15 371.22,377.28 371.35,411.20 371.49,408.03 371.61,361.73 371.73,412.58 371.88,391.19 372.00,309.65 372.12,407.47 372.27,406.51 372.39,314.16 372.51,419.45 372.65,404.96 372.78,299.34 372.90,418.79 373.04,416.15 373.17,324.94 373.28,394.21 373.43,416.99 373.56,349.43 373.67,410.86 373.82,422.10 373.95,366.74 374.06,400.24 374.20,415.55 374.34,394.95 374.45,413.13 374.59,417.02 374.72,352.65 374.84,411.57 374.98,417.07 375.11,367.20 375.22,413.42 375.36,414.52 375.50,377.10 375.61,410.51 375.75,416.89 375.89,416.16 376.00,408.69 376.14,416.62 376.28,391.99 376.39,375.63 376.52,423.41 376.67,415.64 376.78,386.85 376.91,407.16 377.05,399.98 377.17,386.86 377.30,416.59 377.44,408.41 377.56,360.67 377.68,401.98 377.83,406.63 377.95,403.66 378.07,423.01 378.22,410.83 378.34,326.38 378.46,419.54 378.60,415.24 378.73,328.02 378.85,396.61 378.99,401.04 379.12,370.88 379.23,414.78 379.38,404.73 379.51,350.65 379.62,399.13 379.77,404.13 379.90,380.42 380.01,399.95 380.15,414.01 380.29,410.34 380.40,390.18 380.54,407.08 380.68,370.30 380.79,422.50 380.93,413.19 381.06,402.57 381.17,409.11 381.31,408.76 381.45,412.28 381.56,394.47 381.70,410.95 381.84,419.21 381.95,380.52 382.09,419.37 382.23,417.25 382.34,383.92 382.47,416.71 382.62,395.27 382.73,379.77 382.86,408.20 383.01,410.63 383.12,354.68 383.25,411.54 383.39,413.27 383.51,321.03 383.64,423.90 383.78,420.05 383.90,279.82 384.02,413.34 384.17,404.25 384.29,314.29 384.41,419.12 384.56,410.75 384.68,329.05 384.80,411.79 384.94,397.98 385.07,402.35 385.19,416.39 385.33,432.20 385.46,360.71 385.57,407.53 385.72,400.27 385.85,406.10 385.96,397.39 386.10,423.29 386.24,401.31 386.35,420.24 386.49,429.60 386.63,394.69 386.74,387.79 386.88,414.80 387.02,403.93 387.13,402.44 387.26,413.74 387.40,409.71 387.51,387.80 387.65,407.51 387.79,402.01 387.90,408.50 388.04,419.22 388.18,403.77 388.29,367.14 388.42,407.66 388.57,408.03 388.68,360.81 388.81,417.27 388.96,416.04 389.07,332.98 389.20,414.56 389.34,404.62 389.46,416.03 389.59,413.18 389.73,410.27 389.85,396.92 389.97,428.54 390.12,396.59 390.24,346.59 390.36,429.48 390.51,414.83 390.63,334.34 390.75,410.69 390.89,418.56 391.02,407.49 391.14,409.83 391.28,422.15 391.41,360.61 391.52,401.63 391.67,422.51 391.80,391.51 391.91,398.74 392.05,420.77 392.19,370.69 392.30,415.37 392.44,427.84 392.58,408.06 392.69,400.05 392.83,404.81 392.97,369.29 393.08,388.49 393.21,420.49 393.36,406.36 393.47,385.63 393.60,422.34 393.74,397.10 393.85,384.04 393.99,422.93 394.13,406.25 394.24,403.27 394.38,406.93 394.52,389.15 394.63,372.35 394.76,416.69 394.91,412.15 395.02,304.96 395.15,417.30 395.29,429.18 395.41,335.71 395.54,408.43 395.68,413.70 395.80,307.14 395.92,418.29 396.07,423.87 396.19,256.91 396.31,429.13 396.46,417.58 396.58,358.83 396.70,406.11 396.84,412.22 396.97,398.52 397.09,408.34 397.23,409.38 397.36,341.49 397.47,403.70 397.62,404.04 397.75,362.71 397.86,410.36 398.00,418.27 398.14,372.48 398.25,419.00 398.39,410.31 398.53,405.99 398.64,404.52 398.78,418.63 398.92,400.53 399.03,409.64 399.16,426.80 399.31,391.70 399.42,411.21 399.55,416.85 399.69,422.65 399.81,407.74 399.94,406.55 400.08,429.49 400.20,351.49 400.33,402.79 400.47,413.87 400.58,344.27 400.71,406.84 400.86,408.26 400.97,341.75 401.10,408.87 401.25,409.46 401.36,263.15 401.49,403.05 401.63,412.16 401.75,290.37 401.87,411.34 402.02,413.60 402.14,348.55 402.26,417.23 402.41,410.68 402.53,336.95 402.65,414.71 402.79,424.54 402.92,364.51 403.04,417.25 403.18,408.20 403.31,425.37 403.43,393.09 403.57,414.95 403.70,372.20 403.81,400.34 403.95,414.48 404.09,403.06 404.20,400.23 404.34,416.35 404.48,394.20 404.59,385.46 404.73,406.61 404.87,412.49 404.98,373.93 405.12,399.32 405.26,412.75 405.37,408.41 405.50,424.62 405.65,415.96 405.76,350.45 405.89,415.00 406.03,400.65 406.15,418.97 406.28,406.00 406.42,416.49 406.54,354.64 406.66,419.87 406.81,402.03 406.93,408.01 407.05,416.57 407.20,407.73 407.32,303.64 407.44,399.14 407.58,425.44 407.71,316.26 407.82,428.88 407.97,414.77 408.10,378.49 408.21,412.45 408.36,402.33 408.49,348.49 408.60,398.22 408.74,423.13 408.88,360.88 408.99,414.77 409.13,422.86 409.26,391.43 409.38,391.26 409.52,424.30 409.65,398.11 409.76,412.09 409.90,414.33 410.04,383.27 410.15,378.07 410.29,416.15 410.43,396.87 410.54,408.95 410.68,423.66 410.82,408.90 410.93,374.47 411.07,401.49 411.21,392.15 411.32,373.69 411.45,425.11 411.60,420.60 411.71,352.56 411.84,416.48 411.98,415.59 412.10,387.65 412.23,415.08 412.37,395.36 412.49,346.97 412.61,425.50 412.76,417.27 412.88,289.59 413.00,406.71 413.15,416.17 413.27,368.84 413.39,410.23 413.53,411.78 413.66,345.46 413.78,398.80 413.92,429.81 414.05,394.23 414.16,412.73 414.31,418.70 414.44,365.70 414.55,396.79 414.69,416.31 414.83,393.96 414.94,403.33 415.08,417.61 415.22,392.82 415.33,401.08 415.47,413.61 415.61,368.70 415.72,416.59 415.86,421.04 415.99,424.62 416.10,406.15 416.24,413.94 416.38,385.68 416.49,407.42 416.63,413.44 416.77,400.65 416.88,415.97 417.02,401.75 417.16,420.28 417.27,382.15 417.40,424.73 417.55,390.76 417.66,324.71 417.79,417.11 417.93,412.56 418.05,360.69 418.18,395.48 418.32,417.34 418.44,361.62 418.56,403.42 418.71,415.68 418.83,248.11 418.95,412.44 419.10,417.96 419.22,317.49 419.34,423.47 419.48,419.66 419.61,340.20 419.73,383.08 419.87,421.35 420.00,375.83 420.11,413.95 420.26,415.28 420.39,355.72 420.50,404.97 420.64,406.50 420.78,368.38 420.89,425.85 421.03,418.55 421.17,388.63 421.28,405.95 421.42,413.35 421.56,416.67 421.67,394.96 421.81,409.78 421.94,403.06 422.05,407.00 422.19,412.39 422.33,405.33 422.44,394.89 422.58,399.33 422.72,400.94 422.83,382.23 422.97,419.22 423.11,408.86 423.22,360.48 423.35,410.80 423.50,413.45 423.61,386.65 423.74,414.76 423.88,423.20 424.00,354.05 424.13,408.32 424.27,412.50 424.39,325.27 424.51,420.36 424.66,410.25 424.78,263.68 424.90,420.63 425.05,427.60 425.17,291.44 425.29,421.48 425.43,411.48 425.56,357.98 425.68,425.42 425.82,427.00 425.95,364.81 426.06,394.49 426.21,413.72 426.34,416.85 426.45,400.63 426.60,411.65 426.73,407.41 426.84,384.94 426.98,419.09 427.12,401.22 427.23,417.84 427.37,415.89 427.51,396.93 427.62,411.42 427.76,412.49 427.90,395.21 428.01,414.53 428.14,418.59 428.28,413.49 428.39,365.13 428.53,418.37 428.67,423.68 428.78,411.85 428.92,416.60 429.06,423.68 429.17,351.04 429.30,411.92 429.45,427.14 429.56,343.33 429.69,413.86 429.84,409.43 429.95,350.76 430.08,418.94 430.22,404.40 430.34,373.01 430.46,428.07 430.61,413.24 430.73,360.28 430.85,415.39 431.00,412.79 431.12,392.64 431.24,401.36 431.38,410.90 431.51,375.08 431.63,420.21 431.77,415.23 431.90,371.60 432.02,421.39 432.16,410.25 432.29,396.48 432.40,407.48 432.55,406.89 432.68,411.17 432.79,388.66 432.93,429.24 433.07,406.89 433.18,407.09 433.32,424.95 433.46,409.45 433.57,391.55 433.71,417.16 433.85,418.18 433.96,388.98 434.09,422.45 434.23,398.34 434.35,407.55 434.48,422.25 434.62,387.06 434.74,359.73 434.87,422.32 435.01,394.87 435.12,378.24 435.25,406.41 435.40,397.75 435.51,327.28 435.64,409.01 435.79,411.98 435.90,333.44 436.03,408.76 436.17,412.64 436.29,269.59 436.42,406.78 436.56,413.55 436.68,384.91 436.80,402.82 436.95,428.55 437.07,308.94 437.19,401.64 437.34,422.53 437.46,341.67 437.58,410.97 437.72,411.25 437.85,358.44 437.97,405.84 438.11,417.01 438.24,399.66 438.35,413.20 438.50,423.81 438.63,403.90 438.74,392.80 438.88,402.72 439.02,375.83 439.13,390.49 439.27,425.89 439.41,378.62 439.52,396.50 439.66,418.33 439.80,422.04 439.91,392.18 440.04,421.91 440.19,416.45 440.30,415.61 440.43,408.28 440.57,407.05 440.69,352.82 440.82,392.72 440.96,416.26 441.08,380.18 441.20,407.15 441.35,412.52 441.47,377.82 441.59,419.66 441.74,426.35 441.86,359.73 441.98,424.90 442.12,430.33 442.25,374.15 442.37,402.99 442.51,415.60 442.64,328.72 442.75,417.98 442.90,425.62 443.03,354.35 443.14,418.08 443.29,412.17 443.42,374.34 443.53,426.35 443.67,410.61 443.80,386.97 443.92,410.29 444.06,398.47 444.19,374.18 444.30,403.39 444.45,410.06 444.58,374.36 444.69,416.71 444.83,413.61 444.97,413.21 445.08,402.73 445.22,427.22 445.36,413.39 445.47,402.51 445.61,414.39 445.75,416.89 445.86,358.04 445.99,411.50 446.14,418.21 446.25,405.73 446.38,427.73 446.52,414.66 446.64,347.64 446.77,418.80 446.91,420.10 447.03,380.74 447.15,421.59 447.30,403.18 447.42,293.52 447.54,419.34 447.69,402.45 447.81,337.49 447.93,429.35 448.07,422.91 448.20,330.71 448.32,393.51 448.46,410.44 448.59,350.88 448.70,409.58 448.85,406.26 448.98,373.93 449.09,410.68 449.24,409.85 449.37,368.59 449.48,418.53 449.62,409.92 449.76,401.03 449.87,412.86 450.01,419.34 450.15,403.46 450.26,417.91 450.40,416.23 450.53,394.83 450.64,410.22 450.78,417.86 450.92,397.16 451.03,417.20 451.17,412.07 451.31,421.12 451.42,384.30 451.56,410.02 451.70,399.47 451.81,420.37 451.94,405.57 452.09,400.57 452.20,425.18 452.33,407.90 452.48,399.76 452.59,343.63 452.72,408.83 452.86,417.27 452.98,364.86 453.11,413.18 453.25,401.91 453.37,347.14 453.49,401.58 453.64,407.56 453.76,336.80 453.88,414.31 454.02,408.30 454.15,367.76 454.27,402.60 454.41,420.52 454.54,398.41 454.65,406.33 454.80,409.46 454.93,358.27 455.04,410.28 455.19,415.90 455.32,375.88 455.43,417.79 455.57,416.76 455.71,372.58 455.82,414.89 455.96,401.22 456.10,400.43 456.21,411.73 456.35,420.49 456.49,396.78 456.60,407.77 456.73,414.11 456.87,425.31 456.98,389.97 457.12,414.26 457.26,412.18 457.37,408.44 457.51,417.83 457.65,413.18 457.76,377.98 457.89,426.15 458.04,408.82 458.15,345.05 458.28,419.49 458.43,414.32 458.54,375.14 458.67,413.53 458.81,420.06 458.93,403.57 459.06,424.84 459.20,415.14 459.32,278.89 459.44,410.02 459.59,412.69 459.71,302.13 459.83,414.15 459.98,404.65 460.10,385.10 460.22,400.11 460.36,416.51 460.49,393.79 460.61,406.40 460.75,404.61 460.88,385.93 460.99,419.32 461.14,411.96 461.27,391.50 461.38,411.78 461.52,405.19 461.66,384.23 461.77,410.73 461.91,428.89 462.05,399.61 462.16,410.04 462.30,404.44 462.44,423.53 462.55,384.51 462.68,406.33 462.82,388.20 462.93,384.13 463.07,412.88 463.21,414.11 463.32,371.36 463.46,416.82 463.60,395.80 463.71,391.42 463.84,414.97 463.99,407.73 464.10,375.69 464.23,418.08 464.38,408.04 464.49,387.79 464.62,418.36 464.76,412.81 464.88,288.84 465.01,405.12 465.15,417.26 465.27,356.49 465.39,420.78 465.54,408.56 465.66,311.99 465.78,410.82 465.93,414.17 466.05,361.77 466.17,422.62 466.31,427.15 466.44,322.25 466.56,424.31 466.70,409.20 466.83,377.80 466.94,424.07 467.09,418.86 467.22,381.96 467.33,413.01 467.47,413.20 467.61,395.97 467.72,404.68 467.86,414.96 468.00,399.17 468.11,405.67 468.25,424.76 468.39,416.93 468.50,401.79 468.63,420.35 468.78,396.53 468.89,378.87 469.02,430.38 469.16,411.20 469.28,393.37 469.41,408.80 469.55,399.81 469.66,408.79 469.80,428.26 469.94,425.68 470.05,339.06 470.18,396.64 470.33,394.52 470.44,368.74 470.57,423.77 470.71,397.61 470.83,322.65 470.96,415.30 471.10,408.69 471.22,336.74 471.34,405.35 471.49,409.57 471.61,394.55 471.73,423.98 471.88,414.07 472.00,345.52 472.12,409.23 472.26,411.72 472.39,408.22 472.51,412.12 472.65,426.20 472.78,388.27 472.89,408.65 473.04,419.09 473.17,407.11 473.28,406.85 473.42,408.40 473.56,408.46 473.67,391.98 473.81,403.73 473.95,399.78 474.06,398.52 474.20,420.39 474.34,394.80 474.45,405.57 474.58,407.53 474.73,387.66 474.84,390.69 474.97,423.52 475.11,407.13 475.23,378.59 475.36,405.27 475.50,409.35 475.62,378.40 475.75,408.58 475.89,408.45 476.01,348.15 476.13,418.41 476.28,411.72 476.40,192.20 476.52,410.13 476.67,404.39 476.79,288.21 476.91,421.11 477.05,409.99 477.18,295.71 477.29,420.42 477.44,423.62 477.57,348.59 477.68,410.48 477.83,424.88 477.96,348.22 478.07,405.07 478.21,405.15 478.34,359.48 478.46,417.57 478.60,420.68 478.73,368.61 478.85,407.55 478.99,416.00 479.12,365.48 479.23,424.56 479.37,419.21 479.51,398.21 479.62,386.40 479.76,410.63 479.90,371.86 480.01,401.79 480.15,408.48 480.29,399.79 480.40,366.71 480.54,420.30 480.68,416.35 480.79,413.36 480.92,420.17 481.07,408.74 481.18,395.70 481.31,408.78 481.45,429.03 481.57,344.42 481.70,404.92 481.84,423.96 481.96,372.47 482.08,427.60 482.23,424.21 482.35,331.54 482.47,406.13 482.62,422.89 482.74,405.40 482.86,427.79 483.00,408.02 483.13,281.55 483.24,414.85 483.39,405.28 483.52,332.17 483.63,421.72 483.78,426.61 483.91,401.54 484.02,395.88 484.16,425.57 484.30,348.97 484.41,416.60 484.55,412.45 484.69,372.79 484.80,416.99 484.94,412.17 485.07,393.74 485.18,422.85 485.32,415.12 485.46,417.15 485.57,416.32 485.71,418.39 485.85,423.92 485.96,376.96 486.10,402.76 486.24,399.22 486.35,383.92 486.49,411.44 486.63,403.99 486.74,367.73 486.87,423.41 487.02,414.10 487.13,385.22 487.26,413.64 487.40,401.20 487.52,398.42 487.65,399.05 487.79,400.20 487.91,307.30 488.03,420.41 488.18,424.10 488.30,313.51 488.42,406.10 488.57,408.81 488.69,340.39 488.81,406.48 488.95,410.40 489.08,332.25 489.20,413.04 489.34,407.54 489.47,372.26 489.58,410.06 489.73,416.73 489.86,372.23 489.97,399.24 490.11,413.55 490.25,380.31 490.36,409.17 490.50,417.38 490.64,402.71 490.75,418.43 490.89,415.74 491.03,386.18 491.14,403.62 491.28,414.08 491.41,400.08 491.52,413.32 491.66,419.41 491.80,408.09 491.91,375.46 492.05,414.15 492.19,404.51 492.30,370.56 492.44,419.72 492.58,412.54 492.69,361.23 492.82,423.45 492.97,405.95 493.08,401.66 493.21,421.34 493.35,407.70 493.47,334.84 493.60,416.54 493.74,418.20 493.86,382.46 493.98,400.95 494.13,405.38 494.25,323.35 494.37,421.32 494.52,424.03 494.64,337.48 494.76,406.37 494.90,402.89 495.03,356.87 495.15,407.78 495.29,418.69 495.42,386.69 495.53,409.00 495.68,401.44 495.81,383.92 495.92,415.47 496.06,411.88 496.20,368.54 496.31,390.74 496.45,407.22 496.59,386.51 496.70,408.14 496.84,405.18 496.98,404.16 497.09,400.56 497.23,409.61 497.37,395.08 497.48,403.15 497.61,419.88 497.75,390.87 497.86,368.67 498.00,416.60 498.14,395.40 498.25,390.40 498.39,413.92 498.53,418.72 498.64,329.97 498.77,413.45 498.92,410.62 499.03,360.95 499.16,402.49 499.30,410.60 499.42,337.53 499.55,417.20 499.69,418.87 499.81,387.79 499.93,407.09 500.08,406.64 500.20,368.05 500.32,423.94 500.47,404.20 500.59,283.81 500.71,406.61 500.85,389.38 500.98,315.13 501.10,419.83 501.24,422.30 501.37,385.06 501.48,409.51 501.63,419.86 501.76,379.41 501.87,402.33 502.02,415.32 502.15,364.22 502.26,389.68 502.40,417.04 502.54,392.98 502.65,402.55 502.79,420.75 502.93,406.63 503.04,392.40 503.18,425.57 503.32,409.17 503.43,364.80 503.56,414.42 503.70,389.07 503.82,378.42 503.95,422.87 504.09,410.50 504.20,403.61 504.34,405.56 504.48,397.01 504.59,361.29 504.72,413.66 504.87,414.08 504.98,359.74 505.11,419.46 505.26,396.71 505.37,340.41 505.50,423.26 505.64,406.56 505.76,384.36 505.88,406.54 506.03,410.82 506.15,254.39 506.27,418.85 506.42,417.97 506.54,399.71 506.66,399.37 506.80,422.65 506.93,373.36 507.05,397.87 507.19,399.18 507.32,396.45 507.44,403.20 507.58,422.05 507.71,404.48 507.82,401.91 507.97,418.47 508.10,369.32 508.21,386.43 508.35,415.69 508.49,414.42 508.60,374.91 508.74,405.62 508.88,397.92 508.99,417.17 509.13,411.15 509.27,413.41 509.38,380.48 509.51,413.10 509.66,398.89 509.77,383.37 509.90,419.86 510.04,415.97 510.16,373.82 510.29,416.74 510.43,401.28 510.55,381.25 510.67,407.50 510.82,398.15 510.94,378.74 511.06,412.53 511.21,413.89 511.33,313.58 511.45,398.17 511.59,417.17 511.72,304.78 511.84,418.70 511.98,418.35 512.11,403.22 512.22,405.21 512.37,420.83 512.50,329.16 512.61,408.13 512.76,421.49 512.88,378.00 513.00,393.11 513.14,413.85 513.27,362.91 513.39,402.06 513.53,416.55 513.66,397.76 513.77,395.15 513.92,414.69 514.05,397.22 514.16,396.68 514.30,428.47 514.44,398.84 514.55,405.24 514.69,420.41 514.83,405.70 514.94,412.46 515.08,414.10 515.22,385.53 515.33,412.45 515.46,416.64 515.61,412.94 515.72,375.33 515.85,398.70 515.99,397.37 516.11,361.52 516.24,419.97 516.38,408.92 516.50,377.33 516.62,411.36 516.77,419.99 516.89,327.98 517.01,411.13 517.16,409.91 517.28,262.26 517.40,412.96 517.54,405.44 517.67,263.10 517.79,419.72 517.93,414.51 518.06,317.40 518.17,398.87 518.32,420.42 518.45,364.85 518.56,416.63 518.71,422.00 518.84,358.74 518.95,392.85 519.09,426.58 519.23,371.58 519.34,420.87 519.48,411.70 519.61,346.92 519.73,402.30 519.87,422.11 520.00,410.12 520.11,405.81 520.25,418.08 520.39,414.43 520.50,391.10 520.64,397.49 520.78,398.93 520.89,404.18 521.03,404.48 521.17,415.18 521.28,394.36 521.41,420.48 521.56,415.86 521.67,340.33 521.80,423.16 521.94,402.06 522.06,363.00 522.19,417.13 522.33,401.53 522.45,368.95 522.57,408.07 522.72,415.91 522.84,337.62 522.96,426.83 523.11,410.99 523.23,370.30 523.35,411.74 523.49,419.04 523.62,284.95 523.74,419.38 523.88,414.55 524.01,334.60 524.12,394.39 524.27,424.28 524.40,356.65 524.51,404.44 524.66,415.84 524.79,376.32 524.90,408.19 525.04,416.97 525.18,387.24 525.29,423.73 525.43,408.90 525.57,391.21 525.68,397.23 525.82,424.77 525.95,389.45 526.06,364.82 526.20,403.60 526.34,407.07 526.45,378.98 526.59,409.82 526.73,406.30 526.84,364.74 526.98,414.85 527.12,401.00 527.23,411.74 527.36,415.49 527.51,397.91 527.62,389.13 527.75,421.29 527.90,407.39 528.01,389.07 528.14,420.26 528.28,414.01 528.40,318.34 528.53,412.03 528.67,420.99 528.79,357.07 528.91,413.84 529.06,428.14 529.18,329.75 529.30,405.47 529.44,407.55 529.57,405.44 529.69,393.74 529.83,409.18 529.96,381.37 530.07,416.34 530.22,424.11 530.35,373.21 530.46,415.07 530.61,407.37 530.74,383.36 530.85,405.59 530.99,406.20 531.13,405.07 531.24,374.09 531.38,426.12 531.52,387.93 531.63,417.33 531.77,420.63 531.91,408.55 532.02,395.31 532.15,428.88 532.29,391.59 532.40,405.11 532.54,411.45 532.68,391.32 532.79,381.87 532.93,421.30 533.07,410.24 533.18,374.23 533.31,411.59 533.46,402.79 533.57,349.67 533.70,413.72 533.85,412.99 533.96,354.92 534.09,402.75 534.23,408.22 534.35,265.61 534.48,408.69 534.62,413.04 534.74,361.32 534.86,405.21 535.01,407.67 535.13,292.24 535.25,408.23 535.40,418.33 535.52,372.05 535.64,411.10 535.78,419.70 535.91,275.11 536.03,410.65 536.17,411.40 536.30,389.11 536.41,394.39 536.56,414.09 536.69,362.42 536.80,400.95 536.94,429.30 537.08,414.05 537.19,421.77 537.33,416.11 537.47,422.77 537.58,391.68 537.72,397.21 537.86,398.46 537.97,392.58 538.10,416.74 538.25,400.09 538.36,411.86 538.49,402.99 538.63,416.50 538.74,403.58 538.88,422.04 539.02,423.57 539.13,346.34 539.26,400.47 539.41,416.26 539.52,355.56 539.65,421.24 539.80,415.93 539.91,382.79 540.04,408.01 540.18,418.72 540.30,307.95 540.43,423.26 540.57,409.99 540.69,418.51 540.81,408.61 540.96,414.73 541.08,307.14 541.20,415.62 541.35,407.01 541.47,345.03 541.59,410.99 541.73,420.70 541.86,390.92 541.98,403.98 542.12,411.03 542.25,394.67 542.36,381.41 542.51,407.06 542.64,403.03 542.75,387.23 542.89,404.60 543.03,422.49 543.14,420.93 543.28,403.37 543.42,411.14 543.53,388.31 543.67,402.26 543.81,410.93 543.92,376.99 544.05,427.92 544.20,396.60 544.31,390.43 544.44,418.96 544.58,397.83 544.70,359.58 544.83,414.46 544.97,415.59 545.09,358.23 545.22,407.85 545.36,402.52 545.47,324.94 545.60,414.56 545.75,406.97 545.86,398.17 545.99,423.48 546.13,395.46 546.25,381.86 546.38,401.56 546.52,405.18 546.65,382.39 546.76,402.80 546.91,397.46 547.04,365.33 547.15,411.36 547.30,417.86 547.42,393.45 547.54,408.38 547.68,412.68 547.81,376.91 547.93,404.15 548.07,401.77 548.20,349.47 548.31,427.17 548.46,423.66 548.59,393.29 548.70,373.27 548.84,420.64 548.98,409.19 549.09,410.07 549.23,417.85 549.37,389.36 549.48,409.11 549.62,424.30 549.76,405.41 549.87,386.55 550.00,418.00 550.15,403.95 550.26,395.72 550.39,407.90 550.53,406.40 550.65,415.58 550.78,401.45 550.92,396.92 551.04,393.52 551.17,416.62 551.31,407.24 551.43,351.10 551.55,410.86 551.70,418.02 551.82,346.50 551.94,413.19 552.09,417.44 552.21,339.45 552.33,397.55 552.47,407.65 552.60,197.41 552.71,404.24 552.86,410.90 552.99,357.58 553.10,395.81 553.25,418.66 553.38,340.03 553.49,416.90 553.63,416.34 553.77,396.10 553.88,409.68 554.02,412.07 554.15,366.46 554.27,402.52 554.41,420.48 554.54,396.50 554.65,404.80 554.79,412.49 554.93,389.66 555.04,379.55 555.18,415.90 555.32,408.45 555.43,395.64 555.57,401.34 555.71,412.37 555.82,378.31 555.95,402.34 556.10,410.67 556.21,352.31 556.34,424.55 556.49,406.34 556.60,376.28 556.73,410.92 556.87,420.57 556.99,367.92 557.12,407.53 557.26,406.04 557.38,374.63 557.50,404.93 557.65,401.47 557.77,377.04 557.89,414.15 558.04,410.45 558.16,340.50 558.28,422.33 558.42,410.40 558.55,216.28 558.67,412.01 558.81,414.67 558.94,344.49 559.05,408.69 559.20,405.34 559.33,390.65 559.44,399.78 559.58,407.50 559.72,359.31 559.83,399.98 559.97,408.63 560.11,384.26 560.22,407.67 560.36,419.40 560.50,387.40 560.61,378.62 560.74,412.63 560.88,417.62 560.99,399.23 561.13,418.79 561.27,407.76 561.38,352.43 561.52,424.51 561.66,417.43 561.77,400.11 561.91,403.10 562.05,402.81 562.16,386.89 562.29,415.93 562.44,414.78 562.55,362.80 562.68,418.74 562.82,400.69 562.94,338.99 563.07,416.70 563.21,419.72 563.33,287.09 563.45,400.55 563.60,411.53 563.72,292.04 563.84,427.81 563.99,411.31 564.11,318.73 564.23,397.32 564.37,400.81 564.50,391.72 564.62,423.97 564.76,412.84 564.89,397.78 565.00,415.24 565.15,415.83 565.28,412.16 565.39,410.82 565.53,421.03 565.67,380.35 565.78,383.38 565.92,417.28 566.06,409.50 566.17,405.43 566.31,419.59 566.45,409.87 566.56,400.71 566.70,421.08 566.83,415.81 566.94,416.31 567.08,416.65 567.22,422.17 567.33,419.18 567.47,414.26 567.61,393.55 567.72,392.86 567.86,402.90 568.00,405.47 568.11,381.83 568.24,417.94 568.39,409.70 568.50,342.14 568.63,416.40 568.77,417.54 568.89,362.58 569.02,405.73 569.16,401.04 569.28,338.33 569.40,400.75 569.55,412.86 569.67,346.55 569.79,413.72 569.94,405.44 570.06,336.34 570.18,394.79 570.32,422.11 570.45,376.75 570.57,402.86 570.71,411.97 570.84,374.28 570.95,411.85 571.10,415.18 571.23,418.02 571.34,404.89 571.48,415.06 571.62,365.15 571.73,424.77 571.87,409.02 572.01,422.21 572.12,383.45 572.26,413.28 572.40,389.70 572.51,409.82 572.65,419.11 572.79,389.99 572.90,393.32 573.03,417.85 573.17,398.68 573.28,414.67 573.42,417.63 573.56,423.35 573.67,393.10 573.81,395.09 573.95,401.70 574.06,375.07 574.19,426.41 574.34,401.37 574.45,350.75 574.58,418.63 574.73,424.84 574.84,337.74 574.97,413.31 575.11,409.92 575.23,323.35 575.35,409.76 575.50,415.13 575.62,284.00 575.74,407.85 575.89,414.54 576.01,298.50 576.13,416.73 576.27,418.77 576.40,384.70 576.52,412.45 576.66,413.70 576.79,349.50 576.90,409.86 577.05,428.21 577.18,392.04 577.29,406.30 577.44,402.38 577.57,381.49 577.68,397.18 577.82,422.44 577.96,414.70 578.07,398.66 578.21,418.55 578.35,408.13 578.46,409.67 578.60,419.91 578.74,397.30 578.85,364.97 578.98,422.72 579.12,414.27 579.24,372.87 579.37,421.90 579.51,413.11 579.63,366.56 579.76,420.26 579.90,407.19 580.01,388.34 580.14,413.47 580.29,398.00 580.40,374.61 580.53,425.65 580.68,403.94 580.79,329.91 580.92,413.59 581.06,399.00 581.18,344.08 581.30,416.49 581.45,419.30 581.57,309.40 581.69,404.92 581.84,416.96 581.96,387.12 582.08,423.91 582.22,410.56 582.35,341.38 582.47,406.45 582.61,405.91 582.74,362.36 582.86,415.38 583.00,410.80 583.13,410.82 583.24,397.40 583.39,424.62 583.52,402.65 583.63,405.32 583.77,418.12 583.91,399.45 584.02,408.26 584.16,408.98 584.30,405.48 584.41,382.77 584.55,409.54 584.69,423.99 584.80,401.84 584.93,417.95 585.08,419.16 585.19,379.08 585.32,418.46 585.46,391.70 585.58,368.48 585.71,420.36 585.85,410.19 585.97,385.82 586.09,408.34 586.24,387.76 586.36,376.00 586.48,401.87 586.63,397.99 586.75,367.64 586.87,412.78 587.01,409.67 587.14,353.20 587.26,412.25 587.40,409.40 587.53,376.68 587.64,420.31 587.79,408.69 587.92,420.10 588.03,425.55 588.18,422.71 588.31,354.45 588.42,414.82 588.56,417.98 588.70,411.08 588.81,406.93 588.95,405.38 589.08,401.97 589.19,403.93 589.34,423.79 589.47,430.18 589.58,415.46 589.72,406.99 589.86,383.47 589.97,402.68 590.11,415.08 590.25,412.70 590.36,412.11 590.50,400.62 590.64,407.79 590.75,377.54 590.88,409.81 591.03,414.45 591.14,356.82 591.27,422.37 591.41,397.51 591.53,402.72 591.66,419.42 591.80,421.74 591.92,380.00 592.04,421.49 592.19,427.74 592.31,340.07 592.43,408.18 592.58,414.80 592.70,312.98 592.82,417.14 592.96,428.44 593.09,375.39 593.21,408.01 593.35,412.56 593.48,298.22 593.59,420.34 593.74,412.96 593.87,385.94 593.98,413.50 594.13,405.91 594.26,343.37 594.37,401.51 594.51,415.74 594.65,398.69 594.76,403.89 594.90,423.53 595.04,400.76 595.15,404.44 595.29,408.78 595.42,406.53 595.53,389.61 595.67,427.66 595.81,407.14 595.92,393.17 596.06,409.88 596.20,402.19 596.31,391.97 596.45,412.27 596.59,395.47 596.70,391.49 596.83,417.52 596.98,407.50 597.09,336.46 597.22,413.82 597.36,419.12 597.48,369.51 597.61,403.00 597.75,409.57 597.87,323.42 597.99,410.78 598.14,411.62 598.26,322.55 598.38,414.20 598.53,421.92 598.65,247.81 598.77,420.17 598.91,414.36 599.04,348.07 599.16,422.29 599.30,417.65 599.43,395.50 599.54,417.74 599.69,410.51 599.82,385.19 599.93,413.34 600.08,408.53 600.21,381.73 600.32,397.81 600.46,422.40 600.60,382.40 600.71,406.00 600.85,424.94 600.99,391.55 601.10,392.03 601.24,410.96 601.38,400.31 601.49,387.25 601.62,420.25 601.76,408.24 601.87,364.44 602.01,418.81 602.15,408.62 602.26,399.71 602.40,422.63 602.54,418.54 602.65,382.21 602.78,401.96 602.93,407.15 603.04,410.01 603.17,426.42 603.32,417.43 603.43,331.67 603.56,413.13 603.70,390.05 603.82,338.78 603.95,424.62 604.09,398.84 604.21,330.01 604.33,416.18 604.48,406.10 604.60,348.05 604.72,419.17 604.87,427.57 604.99,327.53 605.11,407.20 605.25,425.36 605.38,371.11 605.50,400.74 605.64,415.75 605.77,340.60 605.88,406.79 606.03,420.54 606.16,378.24 606.27,386.16 606.41,413.74 606.55,386.21 606.66,401.77 606.80,420.00 606.94,417.25 607.05,402.99 607.19,418.25 607.33,401.68 607.44,408.20 607.57,423.87 607.71,414.59 607.83,386.28 607.96,424.05 608.10,403.93 608.21,379.87 608.35,415.23 608.49,415.12 608.60,392.97 608.73,428.41 608.88,414.49 608.99,398.24 609.12,420.07 609.27,416.28 609.38,317.49 609.51,420.39 609.65,421.62 609.77,335.39 609.90,402.59 610.04,421.82 610.16,319.63 610.28,413.57 610.43,403.15 610.55,309.73 610.67,409.99 610.82,412.95 610.94,366.26 611.06,399.59 611.20,417.61 611.33,397.53 611.45,416.29 611.59,416.18 611.72,391.57 611.83,407.25 611.98,421.84 612.11,367.27 612.22,402.45 612.36,412.99 612.50,385.63 612.61,402.83 612.75,416.06 612.89,410.28 613.00,411.64 613.14,416.24 613.28,395.64 613.39,424.31 613.52,413.77 613.67,411.02 613.78,398.33 613.91,426.33 614.05,410.48 614.17,412.83 614.30,424.12 614.44,406.95 614.55,397.05 614.68,417.79 614.83,412.94 614.94,323.56 615.07,409.89 615.22,409.78 615.33,292.68 615.46,406.15 615.60,411.59 615.72,170.40 615.85,408.79 615.99,426.48 616.11,217.57 616.23,409.20 616.38,408.63 616.50,335.88 616.62,415.16 616.77,422.00 616.89,393.48 617.01,424.21 617.15,425.48 617.28,378.02 617.40,418.77 617.54,418.70 617.67,390.38 617.78,413.66 617.93,411.09 618.06,392.54 618.17,427.84 618.31,417.93 618.45,407.43 618.56,398.98 618.70,416.26 618.84,410.16 618.95,428.28 619.09,413.60 619.23,428.51 619.34,414.37 619.47,410.33 619.62,422.23 619.73,367.53 619.86,411.61 620.00,423.21 620.12,385.37 620.25,421.26 620.39,410.52 620.51,383.76 620.64,412.15 620.78,418.31 620.90,377.65 621.02,413.12 621.17,408.94 621.29,337.53 621.41,407.74 621.55,403.44 621.68,280.74 621.80,405.66 621.94,407.18 622.07,403.34 622.18,404.13 622.33,424.48 622.46,386.18 622.57,414.79 622.72,411.49 622.85,363.00 622.96,416.26 623.10,426.33 623.24,400.32 623.35,407.92 623.49,404.53 623.62,407.34 623.74,384.90 623.88,406.42 624.01,411.96 624.12,422.78 624.26,409.75 624.40,403.37 624.51,416.18 624.65,404.19 624.79,392.78 624.90,387.89 625.04,418.33 625.18,397.97 625.29,351.93 625.42,418.76 625.57,402.58 625.68,405.19 625.81,418.05 625.96,425.18 626.07,372.02 626.20,412.15 626.34,415.83 626.46,396.35 626.59,421.11 626.73,415.86 626.85,327.60 626.97,421.09 627.12,411.40 627.24,379.80 627.36,414.61 627.51,418.17 627.63,314.80 627.75,415.52 627.89,415.30 628.02,318.96 628.13,396.65 628.28,418.31 628.41,411.75 628.52,419.67 628.67,417.14 628.80,394.52 628.91,399.74 629.05,417.47 629.19,405.93 629.30,411.69 629.44,425.77 629.58,402.85 629.69,406.45 629.83,419.51 629.96,409.66 630.07,416.18 630.21,420.11 630.35,411.10 630.46,407.93 630.60,414.56 630.74,402.51 630.85,395.03 630.99,423.07 631.13,406.16 631.24,380.16 631.37,413.06 631.52,411.61 631.63,386.19 631.76,423.27 631.91,412.80 632.02,371.40 632.15,417.41 632.29,410.45 632.41,319.56 632.54,404.21 632.68,401.74 632.80,396.30 632.92,404.86 633.07,417.82 633.19,306.45 633.31,391.79 633.46,411.12 633.58,251.82 633.70,414.48 633.84,414.67 633.97,345.81 634.09,404.07 634.23,404.48 634.36,403.17 634.47,416.04 634.62,415.49 634.75,380.13 634.86,413.65 635.00,420.49 635.14,401.87 635.25,408.02 635.39,418.15 635.53,382.22 635.64,400.48 635.78,416.14 635.92,418.28 636.03,409.85 636.16,407.63 636.30,407.74 636.41,377.77 636.55,419.62 636.69,416.51 636.80,409.19 636.94,419.38 637.08,404.65 637.19,391.45 637.33,411.97 637.47,420.20 637.58,312.70 637.71,418.37 637.86,426.56 637.97,386.05 638.10,415.78 638.24,411.07 638.36,312.96 638.49,415.15 638.63,402.86 638.75,348.13 638.87,420.05 639.02,404.52 639.14,321.10 639.26,415.79 639.41,417.72 639.53,350.62 639.65,411.70 639.79,420.61 639.92,364.71 640.04,407.86 640.18,426.52 640.31,376.28 640.42,416.25 640.57,405.86 640.70,351.81 640.81,392.59 640.95,398.55 641.09,393.57 641.20,405.25 641.34,415.84 641.48,387.86 641.59,393.00 641.73,425.45 641.87,390.29 641.98,384.89 642.11,416.24 642.26,410.94 642.37,396.41 642.50,408.88 642.64,399.06 642.75,383.00 642.89,422.09 643.03,416.22 643.14,392.79 643.28,410.63 643.42,415.93 643.53,331.17 643.66,408.41 643.81,400.96 643.92,359.40 644.05,415.49 644.19,396.26 644.31,381.85 644.44,407.80 644.58,410.71 644.70,344.06 644.82,414.93 644.97,403.44 645.09,384.17 645.21,401.41 645.36,407.55 645.48,387.09 645.60,416.35 645.74,419.77 645.87,380.69 645.99,401.85 646.13,422.29 646.26,372.86 646.37,408.65 646.52,414.85 646.65,395.58 646.76,417.45 646.90,413.98 647.04,396.19 647.15,389.00 647.29,417.98 647.43,387.61 647.54,401.38 647.68,422.09 647.82,425.61 647.93,408.36 648.07,418.83 648.21,402.43 648.32,396.42 648.45,419.81 648.59,407.25 648.71,398.66 648.84,421.60 648.98,411.49 649.09,388.53 649.23,416.11 649.37,415.38 649.48,388.07 649.61,411.42 649.76,393.30 649.87,332.30 650.00,416.50 650.15,415.15 650.26,388.23 650.39,413.21 650.53,414.39 650.65,397.76 650.77,410.45 650.92,407.87 651.04,298.28 651.16,408.89 651.31,423.80 651.43,429.83 651.55,408.71 651.69,406.80 651.82,376.13 651.94,406.14 652.08,423.78 652.21,408.99 652.33,394.41 652.47,417.65 652.60,373.86 652.71,415.31 652.86,419.94 652.99,389.43 653.10,402.80 653.24,407.14 653.38,396.94 653.49,405.67 653.63,405.47 653.77,408.91 653.88,398.56 654.02,409.47 654.16,410.11 654.27,417.99 654.40,424.66 654.55,402.12 654.66,359.21 654.79,419.05 654.93,422.19 655.05,322.90 655.18,407.03 655.32,402.63 655.44,379.34 655.56,413.24 655.71,412.80 655.83,333.29 655.95,406.77 656.10,414.23 656.22,398.15 656.34,421.63 656.48,421.02 656.61,269.57 656.73,415.10 656.87,403.02 657.00,366.02 657.11,407.36 657.26,412.78 657.39,377.03 657.50,420.87 657.64,403.85 657.78,353.40 657.89,390.42 658.03,411.61 658.16,374.54 658.28,396.19 658.42,418.95 658.55,393.16 658.66,408.29 658.81,413.42 658.94,412.10 659.05,399.51 659.19,429.28 659.33,408.03 659.44,374.48 659.58,415.65 659.72,408.15 659.83,406.69 659.97,403.57 660.11,406.87 660.22,409.45 660.35,415.95 660.50,392.61 660.61,408.50 660.74,421.14 660.88,415.87 661.00,380.18 661.13,401.82 661.27,400.29 661.39,355.60 661.51,405.32 661.66,413.57 661.78,405.23 661.90,405.94 662.05,421.45 662.17,246.07 662.29,424.28 662.43,411.91 662.56,345.43 662.68,413.98 662.82,392.97 662.95,375.30 663.06,416.97 663.21,412.98 663.34,375.32 663.45,414.28 663.60,419.04 663.73,415.95 663.84,389.76 663.98,411.51 664.12,390.53 664.23,406.02 664.37,424.95 664.50,385.70 664.62,410.59 664.76,421.44 664.89,417.74 665.00,395.43 665.14,431.49 665.28,385.10 665.39,397.79 665.53,415.63 665.67,387.26 665.78,404.09 665.92,417.07 666.06,406.10 666.17,357.30 666.30,413.05 666.45,387.78 666.56,397.37 666.69,421.59 666.83,407.19 666.95,344.85 667.08,415.32 667.22,408.16 667.34,342.60 667.46,405.34 667.61,416.94 667.73,309.04 667.85,421.66 668.00,406.01 668.12,339.09 668.24,414.57 668.38,397.56 668.51,266.84 668.63,401.51 668.77,413.26 668.90,392.87 669.01,404.23 669.16,398.06 669.29,341.15 669.40,403.23 669.55,419.10 669.68,376.31 669.79,391.96 669.93,423.60 670.07,356.68 670.18,408.68 670.32,408.97 670.46,400.82 670.57,417.02 670.71,405.85 670.84,383.03 670.95,404.23 671.09,414.82 671.23,404.17 671.34,409.53 671.48,402.33 671.62,383.85 671.73,375.95 671.87,401.09 672.01,409.25 672.12,403.07 672.25,420.27 672.40,421.20 672.51,341.66 672.64,404.54 672.79,404.71 672.90,347.37 673.03,414.07 673.17,422.55 673.29,268.26 673.41,413.23 673.56,406.99 673.68,310.78 673.80,421.41 673.95,408.26 674.07,313.83 674.19,412.54 674.33,409.66 674.46,272.00 674.58,426.68 674.72,417.65 674.85,360.23 674.96,414.52 675.11,400.85 675.24,358.36 675.35,402.67 675.50,425.56 675.63,386.41 675.74,406.31 675.88,410.54 676.02,380.33 676.13,394.13 676.27,414.20 676.41,379.23 676.52,386.61 676.66,416.15 676.80,397.49 676.91,384.84 677.04,424.75 677.18,409.23 677.29,371.79 677.43,417.70 677.57,390.73 677.68,395.05 677.82,423.08 677.96,410.04 678.07,347.22 678.20,404.89 678.35,411.10 678.46,338.03 678.59,422.92 678.74,402.15 678.85,378.81 678.98,423.64 679.12,398.89 679.24,385.73 679.37,417.19 679.51,410.00 679.63,350.14 679.75,404.06 679.90,412.16 680.02,378.07 680.14,407.93 680.29,407.98 680.41,371.34 680.53,420.00 680.67,425.58 680.80,397.51 680.92,413.27 681.06,412.77 681.19,404.11 681.30,399.25 681.45,410.40 681.58,371.71 681.69,408.71 681.83,426.53 681.97,411.62 682.08,398.19 682.22,405.93 682.36,400.02 682.47,409.43 682.61,407.36 682.75,381.86 682.86,364.83 682.99,413.56 683.13,391.19 683.25,399.39 683.38,408.75 683.52,408.29 683.63,367.16 683.77,406.01 683.91,393.12 684.02,391.03 684.15,412.28 684.30,418.83 684.41,377.72 684.54,411.99 684.69,397.99 684.80,359.59 684.93,426.94 685.07,402.79 685.19,313.90 685.32,418.82 685.46,417.61 685.58,398.07 685.70,410.16 685.85,415.21 685.97,296.79 686.09,412.24 686.24,418.60 686.36,422.38 686.48,407.22 686.62,416.89 686.75,374.98 686.87,410.20 687.01,417.23 687.14,389.56 687.25,417.47 687.40,403.80 687.53,347.69 687.64,422.77 687.78,416.29 687.92,395.68 688.03,393.68 688.17,411.32 688.31,383.85 688.42,413.47 688.56,413.37 688.70,420.95 688.81,390.73 688.94,416.85 689.09,392.32 689.20,398.08 689.33,407.10 689.47,414.20 689.59,360.98 689.72,425.37 689.86,402.21 689.98,397.09 690.10,428.19 690.25,412.89 690.37,299.25 690.49,420.24 690.64,413.14 690.76,274.37 690.88,399.28 691.02,411.87 691.15,242.58 691.27,420.13 691.41,421.88 691.54,352.96 691.65,409.42 691.80,410.74 691.93,380.07 692.04,426.41 692.19,408.65 692.32,411.22 692.43,421.00 692.57,416.34 692.70,383.40 692.82,405.29 692.96,419.47 693.09,394.14 693.20,414.00 693.35,413.24 693.48,410.89 693.59,401.95 693.73,409.98 693.87,384.49 693.98,415.35 694.12,411.28 694.26,417.44 694.37,379.67 694.51,425.50 694.65,406.52 694.76,403.98 694.89,419.76 695.04,407.03 695.15,370.93 695.28,408.05 695.42,407.16 695.54,379.13 695.67,412.16 695.81,407.73 695.93,357.26 696.06,411.29 696.20,414.85 696.32,367.38 696.44,405.39 696.59,417.89 696.71,300.26 696.83,407.19 696.98,403.18 697.10,249.78 697.22,419.23 697.36,421.03 697.49,344.53 697.60,415.52 697.75,416.59 697.88,347.41 697.99,420.05 698.14,407.19 698.27,379.24 698.38,411.96 698.52,419.97 698.66,418.94 698.77,417.86 698.91,417.27 699.05,396.86 699.16,404.91 699.30,407.24 699.43,379.45 699.54,406.19 699.68,415.72 699.82,402.87 699.93,389.09 700.07,419.45 700.21,412.80 700.32,382.28 700.46,408.74 700.60,393.70 700.71,401.18 700.84,415.41 700.99,404.10 701.10,394.40 701.23,422.85 701.38,392.73 701.49,388.20 701.62,414.93 701.76,397.36 701.88,321.38 702.01,416.31 702.15,414.14 702.27,339.55 702.39,417.83 702.54,406.31 702.66,374.14 702.78,412.72 702.93,421.19 703.05,405.64 703.17,414.50 703.31,421.53 703.44,337.99 703.55,416.15 703.70,426.67 703.83,411.09 703.94,396.58 704.09,414.25 704.22,359.43 704.33,402.00 704.47,428.08 704.61,418.82 704.72,401.07 704.86,421.69 705.00,374.67 705.11,393.30 705.25,423.10 705.39,414.13 705.50,387.38 705.63,406.15 705.77,388.20 705.88,418.90 706.02,410.17 706.16,406.40 706.27,378.10 706.41,423.27 706.55,379.19 706.66,393.99 706.79,427.56 706.94,411.89 707.05,382.97 707.18,422.69 707.33,422.60 707.44,327.05 707.57,402.16 707.71,408.07 707.83,336.49 707.96,404.53 708.10,428.70 708.22,293.74 708.34,407.38 708.49,427.12 708.61,302.33 708.73,423.00 708.88,418.57 709.00,360.52 709.12,397.66 709.26,414.29 709.39,309.84 709.51,413.36 709.65,417.38 709.78,364.85 709.89,407.77 710.04,408.89 710.17,364.26 710.28,409.71 710.42,415.25 710.56,363.68 710.67,421.49 710.81,404.19 710.95,375.41 711.06,404.92 711.20,426.82 711.34,394.41 711.45,390.38 711.58,410.35 711.72,413.14 711.83,381.32 711.97,411.26 712.11,394.11 712.22,412.28 712.36,405.44 712.50,406.99 712.61,392.68 712.75,419.71 712.89,411.05 713.00,379.68 713.13,417.79 713.28,410.05 713.39,337.96 713.52,394.50 713.66,406.49 713.78,332.80 713.91,427.18 714.05,412.55 714.17,357.58 714.29,404.59 714.44,410.38 714.56,241.21 714.68,409.42 714.83,408.21 714.95,271.42 715.07,420.83 715.21,412.65 715.34,303.03 715.46,417.19 715.60,429.83 715.73,412.28 715.84,425.58 715.99,423.04 716.12,386.00 716.23,395.21 716.37,420.18 716.51,403.24 716.62,404.24 716.76,414.35 716.90,407.77 717.01,391.30 717.15,393.81 717.29,394.94 717.40,390.46 717.53,408.15 717.68,388.56 717.79,359.28 717.92,422.72 718.06,411.73 718.18,381.51 718.31,414.51 718.45,418.96 718.56,388.21 718.70,403.70 718.84,404.57 718.95,408.88 719.08,412.13 719.23,416.08 719.34,381.73 719.47,415.58 719.61,395.44 719.73,350.90 719.86,406.36 720.00,410.65 720.12,365.70 720.24,415.43 720.39,402.95 720.51,296.75 720.63,418.13 720.78,399.42 720.90,339.57 721.02,395.85 721.16,419.98 721.29,418.07 721.41,403.02 721.55,401.79 721.68,350.32 721.79,413.60 721.94,428.03 722.07,388.63 722.18,394.69 722.32,411.06 722.46,403.25 722.57,417.18 722.71,425.02 722.85,418.82 722.96,388.26 723.10,404.03 723.24,386.93 723.35,390.92 723.49,418.99 723.63,398.31 723.74,378.69 723.87,413.21 724.01,401.52 724.13,372.03 724.26,413.65 724.40,419.92 724.52,368.35 724.65,407.07 724.79,402.45 724.91,340.51 725.03,420.02 725.18,396.31 725.30,378.27 725.42,416.78 725.57,418.38 725.69,325.15 725.81,409.87 725.95,416.13 726.08,402.19 726.19,405.24 726.34,400.96 726.47,370.14 726.58,388.94 726.73,416.39 726.86,362.64 726.97,416.04 727.11,425.51 727.24,369.06 727.36,403.96 727.50,403.32 727.63,408.12 727.75,420.99 727.89,420.67 728.02,393.48 728.13,411.21 728.28,408.10 728.41,407.29 728.52,402.07 728.66,413.30 728.80,379.80 728.91,408.49 729.05,426.48 729.19,404.23 729.30,396.24 729.44,409.87 729.58,402.90 729.69,387.17 729.82,410.37 729.97,399.28 730.08,398.69 730.21,399.01 730.35,414.46 730.47,359.66 730.60,403.05 730.74,415.02 730.86,319.00 730.98,410.52 731.13,418.28 731.25,309.10 731.37,413.85 731.52,426.34 731.64,301.43 731.76,391.62 731.90,416.29 732.03,264.79 732.15,420.69 732.29,419.91 732.42,358.51 732.53,415.50 732.68,424.82 732.81,355.49 732.92,426.35 733.06,412.64 733.20,389.93 733.31,405.33 733.45,412.61 733.59,364.66 733.70,398.24 733.84,425.85 733.97,385.25 734.08,386.64 734.23,420.74 734.36,382.30 734.47,380.35 734.61,420.19 734.75,406.39 734.86,413.04 735.00,407.09 735.14,411.68 735.25,340.57 735.39,408.53 735.53,389.44 735.64,392.20 735.77,416.52 735.92,421.54 736.03,316.40 736.16,413.40 736.30,404.69 736.42,369.81 736.55,411.86 736.69,404.85 736.81,339.74 736.93,413.91 737.08,418.25 737.20,361.38 737.32,421.34 737.47,407.83 737.59,321.86 737.71,415.38 737.85,423.35 737.98,367.97 738.10,428.20 738.24,415.49 738.37,396.77 738.48,406.87 738.63,426.59 738.76,383.68 738.87,389.53 739.02,398.82 739.15,384.30 739.26,409.97 739.40,418.63 739.54,407.24 739.65,374.85 739.79,415.18 739.93,388.94 740.04,404.10 740.18,425.16 740.31,396.83 740.42,395.41 740.56,426.87 740.70,407.59 740.81,397.63 740.95,418.39 741.09,425.25 741.20,404.22 741.34,405.15 741.48,403.28 741.59,422.91 741.72,427.48 741.87,410.48 741.98,388.33 742.11,420.00 742.25,423.54 742.37,370.65 742.50,408.92 742.64,410.76 742.76,348.49 742.88,399.28 743.03,398.42 743.15,297.76 743.27,403.70 743.42,400.17 743.54,336.17 743.66,409.81 743.80,424.05 743.93,336.65 744.05,421.13 744.19,424.06 744.32,367.05 744.43,401.89 744.58,417.93 744.71,359.80 744.82,412.53 744.97,418.06 745.10,387.20 745.21,425.24 745.35,420.33 745.49,369.14 745.60,409.31 745.74,415.14 745.88,399.49 745.99,420.14 746.13,426.15 746.27,373.92 746.38,424.13 746.51,411.40 746.65,412.93 746.76,419.71 746.90,410.91 747.04,411.82 747.15,378.86 747.29,413.88 747.43,411.28 747.54,396.76 747.67,424.00 747.82,408.32 747.93,417.08 748.06,400.41 748.21,396.16 748.32,373.02 748.45,418.41 748.59,409.78 748.71,368.84 748.83,426.61 748.98,421.67 749.10,344.68 749.22,411.95 749.37,411.22 749.49,256.90 749.61,406.92 749.75,411.87 749.88,313.57 750.00,409.00 750.14,410.75 750.27,341.81 750.38,419.05 750.53,422.28 750.66,358.61 750.77,415.73 750.92,401.69 751.05,372.46 751.16,417.96 751.30,411.45 751.44,414.36 751.55,407.88 751.69,418.00 751.83,382.28 751.94,404.26 752.08,414.71 752.22,387.85 752.33,383.73 752.46,401.77 752.60,420.89 752.72,398.25 752.85,405.66 752.99,405.17 753.10,370.69 753.24,408.19 753.38,409.67 753.49,349.33 753.62,430.01 753.77,423.03 753.88,382.94 754.01,416.89 754.16,411.31 754.27,310.19 754.40,403.63 754.54,400.76 754.66,286.52 754.79,409.26 754.93,400.31 755.05,254.01 755.17,411.03 755.32,408.30 755.44,403.27 755.56,403.26 755.71,413.01 755.83,325.97 755.95,407.57 756.09,401.20 756.22,378.87 756.34,397.17 756.48,420.90 756.61,418.94 756.72,405.97 756.87,403.68 757.00,396.48 757.11,400.31 757.25,429.35 757.39,396.79 757.50,392.26 757.64,415.61 757.78,405.14 757.89,400.75 758.03,418.78 758.17,407.64 758.28,399.64 758.41,422.98 758.56,408.12 758.67,391.87 758.80,425.95 758.94,403.68 759.06,388.33 759.19,413.89 759.33,426.99 759.45,399.74 759.57,419.39 759.72,400.02 759.83,331.60 759.96,408.80 760.11,404.44 760.22,408.55 760.35,416.72 760.49,400.25 760.61,361.28 760.74,419.64 760.88,408.37 761.01,379.62 761.12,417.83 761.27,412.14 761.40,385.47 761.51,399.20 761.66,415.78 761.78,393.50 761.90,416.64 762.04,409.35 762.17,399.52 762.29,405.63 762.43,420.10 762.56,378.89 762.67,397.80 762.82,414.51 762.95,427.59 763.06,382.40 763.20,423.24 763.34,378.72 763.45,408.31 763.59,420.52 763.73,410.62 763.84,420.59 763.98,400.60 764.12,395.26 764.23,404.62 764.36,420.89 764.51,406.99 764.62,408.27 764.75,410.24 764.89,406.55 765.01,365.79 765.14,413.08 765.28,415.93 765.40,367.95 765.52,404.29 765.67,397.46 765.79,330.83 765.91,401.94 766.06,410.08 766.18,333.33 766.30,407.67 766.44,415.85 766.57,326.00 766.69,410.01 766.83,405.77 766.96,317.75 767.07,413.17 767.22,417.90 767.35,324.20 767.46,424.66 767.61,392.91 767.74,366.54 767.85,418.79 767.99,418.32 768.13,412.26 768.24,406.10 768.38,415.23 768.51,348.13 768.63,421.14 768.77,414.70 768.90,371.78 769.01,377.09 769.15,405.42 769.29,391.01 769.40,392.53 769.54,409.76 769.68,403.91 769.79,404.34 769.93,395.46 770.07,395.16 770.18,389.34 770.31,420.78 770.46,412.31 770.57,352.47 770.70,414.38 770.84,418.43 770.96,387.93 771.09,409.69 771.23,422.59 771.35,352.24 771.48,418.01 771.62,409.51 771.74,322.36 771.86,430.26 772.01,425.25 772.13,358.32 772.25,410.34 772.40,419.13 772.52,361.81 772.64,415.44 772.78,397.72 772.91,322.31 773.02,420.13 773.17,424.21 773.30,379.56 773.41,399.85 773.56,413.93 773.69,393.13 773.80,419.40 773.94,427.46 774.08,362.87 774.19,408.31 774.33,406.81 774.47,405.32 774.58,408.62 774.72,411.35 774.85,384.41 774.96,385.24 775.10,405.81 775.24,407.60 775.35,397.26 775.49,422.54 775.63,399.13 775.74,405.24 775.88,417.64 776.02,416.89 776.13,358.36 776.26,418.83 776.41,407.60 776.52,398.53 776.65,411.68 776.80,408.74 776.91,393.16 777.04,405.03 777.18,408.63 777.30,323.34 777.43,409.60 777.57,406.84 777.69,355.36 777.81,413.40 777.96,407.53 778.08,377.83 778.20,423.27 778.35,418.69 778.47,309.20 778.59,405.53 778.73,403.09 778.86,307.83 778.98,417.63 779.12,423.66 779.25,386.46 779.36,425.35 779.51,426.23 779.64,385.78 779.75,388.19 779.89,416.08 780.03,379.48 780.14,416.51 780.28,411.35 780.42,377.65 780.53,389.46 780.67,404.75 780.81,402.49 780.92,382.68 781.05,418.31 781.19,410.33 781.30,400.45 781.44,421.09 781.58,386.53 781.69,385.01 781.83,417.53 781.97,394.10 782.08,384.11 782.21,410.03 782.36,418.43 782.47,362.07 782.60,406.28 782.75,414.64 782.86,325.29 782.99,418.71 783.13,411.60 783.25,349.43 783.38,409.95 783.52,413.90 783.64,280.84 783.76,416.84 783.91,394.88 784.03,332.83 784.15,413.00 784.30,411.33 784.42,290.94 784.54,420.19 784.68,416.55 784.81,393.18 784.93,404.06 785.07,425.06 785.20,376.59 785.31,414.44 785.46,417.22 785.59,362.80 785.70,398.67 785.84,406.44 785.98,385.56 786.09,396.14 786.23,409.46 786.37,384.58 786.48,402.37 786.62,418.64 786.76,397.71 786.87,418.35 787.00,413.22 787.15,407.93 787.26,400.74 787.39,406.17 787.53,409.28 787.64,404.52 787.78,414.57 787.92,411.95 788.03,385.08 788.17,407.57 788.31,405.19 788.42,352.31 788.55,405.46 788.70,404.36 788.81,368.47 788.94,422.40 789.08,417.53 789.20,308.16 789.33,423.65 789.47,421.04 789.59,302.00 789.71,419.31 789.86,414.53 789.98,294.42 790.10,402.58 790.25,401.34 790.37,297.19 790.49,406.91 790.63,413.73 790.76,346.64 790.88,408.88 791.02,403.07 791.15,376.27 791.26,423.61 791.41,420.15 791.54,385.90 791.65,417.32 791.79,400.01 791.93,405.43 792.04,416.31 792.18,426.86 792.32,412.39 792.43,417.77 792.57,407.68 792.71,410.37 792.82,373.82 792.95,420.29 793.10,423.44 793.21,382.79 793.34,413.16 793.48,418.33 793.60,378.98 793.73,418.49 793.87,425.95 793.99,400.29 794.12,416.49 794.26,418.36 794.37,359.14 794.50,421.60 794.65,423.22 794.76,358.83 794.89,418.27 795.04,422.65 795.15,209.36 795.28,403.48 795.42,426.39 795.54,318.31 795.66,425.80 795.81,420.09 795.93,286.46 796.05,399.66 796.20,400.23 796.32,330.44 796.44,395.79 796.58,420.43 796.71,384.96 796.83,404.94 796.97,415.21 797.10,387.84 797.22,402.59 797.36,410.01 797.49,406.40 797.60,414.58 797.74,412.29 797.88,382.70 797.99,414.35 798.13,410.69 798.27,371.97 798.38,412.22 798.52,416.84 798.66,417.85 798.77,386.50 798.91,416.50 799.05,412.88 799.16,368.06 799.29,415.12 799.44,396.89 799.55,372.70 799.68,409.74 799.82,386.33 799.94,406.36 800.07,412.53 800.21,405.96 800.33,376.90 800.45,403.07 800.60,401.19 800.72,289.49 800.84,419.33 800.99,406.38 801.11,377.16 801.23,407.35 801.37,407.97 801.50,354.87 801.61,412.13 801.76,417.33 801.89,339.20 802.00,403.50 802.15,415.51 802.28,356.69 802.39,428.26 802.53,421.09 802.67,412.69 802.78,410.22 802.92,407.96 803.05,389.58 803.17,405.88 803.31,409.19 803.44,365.59 803.55,421.37 803.69,422.81 803.83,377.16 803.94,387.13 804.08,408.50 804.22,393.36 804.33,422.27 804.47,418.78 804.61,407.22 804.72,371.84 804.86,405.03 805.00,404.76 805.11,386.65 805.24,403.13 805.39,394.81 805.50,415.29 805.63,424.91 805.77,427.74 805.89,395.10 806.02,419.94 806.16,419.92 806.28,306.95 806.40,419.98 806.55,402.25 806.67,273.99 806.79,397.25 806.94,397.77 807.06,270.22 807.18,411.99 807.32,422.38 807.45,368.66 807.57,399.88 807.71,404.57 807.84,370.14 807.95,416.04 808.10,419.90 808.23,373.46 808.34,418.20 808.48,404.68 808.62,370.78 808.73,413.37 808.87,412.89 809.01,373.33 809.12,417.44 809.26,416.96 809.39,392.55 809.51,418.45 809.65,424.91 809.78,398.72 809.89,385.61 810.03,423.91 810.17,419.32 810.28,410.55 810.42,420.64 810.56,414.08 810.67,355.33 810.81,422.47 810.95,418.44 811.06,362.64 811.19,411.23 811.34,407.71 811.45,392.59 811.58,423.18 811.72,419.78 811.84,370.44 811.97,398.19 812.11,397.20 812.23,361.55 812.35,424.35 812.50,408.67 812.62,312.43 812.74,402.65 812.89,394.50 813.01,304.06 813.13,413.68 813.27,418.60 813.40,384.00 813.52,419.07 813.66,416.55 813.79,374.52 813.90,401.87 814.05,410.61 814.18,364.56 814.29,414.42 814.43,429.67 814.57,406.18 814.68,394.55 814.82,413.92 814.96,390.83 815.07,409.51 815.21,408.58 815.35,390.88 815.46,420.93 815.60,416.43 815.73,412.99 815.84,386.52 815.98,422.09 816.12,409.72 816.23,369.89 816.37,421.69 816.51,397.74 816.62,388.49 816.76,421.84 816.90,400.97 817.01,375.04 817.14,424.67 817.29,390.83 817.40,379.47 817.53,423.14 817.68,424.86 817.79,265.27 817.92,420.12 818.06,419.61 818.18,343.92 818.30,416.06 818.45,423.97 818.57,253.72 818.69,424.79 818.84,423.89 818.96,355.95 819.08,394.51 819.22,416.26 819.35,384.01 819.47,405.59 819.61,422.23 819.74,392.38 819.85,384.94 820.00,407.72 820.13,363.53 820.24,407.64 820.39,418.36 820.52,392.07 820.63,375.06 820.77,413.27 820.91,405.52 821.02,407.80 821.16,426.79 821.30,396.79 821.41,411.86 821.55,403.57 821.69,420.70 821.80,393.02 821.93,415.62 822.07,402.77 822.18,408.66 822.32,411.73 822.46,397.54 822.57,397.03 822.71,429.92 822.85,390.20 822.96,365.42 823.09,406.89 823.24,402.29 823.35,339.33 823.48,417.98 823.63,399.77 823.74,308.45 823.87,428.23 824.01,417.53 824.13,348.81 824.26,424.79 824.40,400.76 824.52,198.35 824.64,417.75 824.79,405.28 824.91,317.71 825.03,402.07 825.17,409.77 825.30,354.57 825.42,400.00 825.56,410.21 825.69,373.67 825.81,395.34 825.95,411.34 826.08,404.37 826.19,413.38 826.34,418.78 826.47,370.40 826.58,403.84 826.72,419.37 826.86,415.79 826.97,403.59 827.11,414.10 827.25,396.30 827.36,400.11 827.50,414.39 827.64,415.66 827.75,401.88 827.88,409.65 828.02,410.64 828.14,379.21 828.27,407.11 828.41,413.67 828.53,364.51 828.66,402.96 828.80,403.28 828.91,384.71 829.04,414.54 829.19,411.97 829.30,317.13 829.43,403.35 829.58,396.91 829.69,345.98 829.82,419.98 829.96,406.29 830.08,245.21 830.21,408.47 830.35,409.45 830.47,256.65 830.59,413.69 830.74,418.81 830.86,329.00 830.98,416.49 831.13,416.73 831.25,322.15 831.37,401.82 831.51,429.19 831.64,391.20 831.76,402.14 831.90,410.13 832.03,414.27 832.14,396.56 832.29,415.33 832.42,374.79 832.53,402.96 832.67,408.56 832.81,400.37 832.92,375.21 833.06,407.93 833.20,391.34 833.31,390.54 833.45,414.37 833.59,411.31 833.70,357.41 833.83,407.79 833.98,389.56 834.09,367.15 834.22,418.11 834.36,412.35 834.48,338.22 834.61,400.96 834.75,415.42 834.87,377.23 834.99,417.54 835.14,424.45 835.26,338.56 835.38,414.83 835.53,416.83 835.65,361.25 835.77,404.88 835.91,423.63 836.04,326.77 836.16,419.91 836.30,424.06 836.43,382.16 836.54,410.52 836.69,423.25 836.82,400.65 836.93,415.67 837.08,415.42 837.21,413.21 837.32,388.20 837.46,415.35 837.60,374.25 837.71,393.55 837.85,428.24 837.98,407.13 838.09,408.03 838.24,407.52 838.37,404.88 838.48,407.74 838.62,406.80 838.76,407.68 838.87,368.71 839.01,412.78 839.15,386.14 839.26,386.28 839.40,407.30 839.54,429.23 839.65,377.66 839.78,405.08 839.93,416.01 840.04,384.59 840.17,411.29 840.31,402.46 840.43,383.65 840.56,426.78 840.70,407.23 840.82,371.27 840.94,411.51 841.09,421.00 841.21,302.75 841.33,415.84 841.48,427.34 841.60,388.43 841.72,409.10 841.86,402.28 841.99,323.35 842.11,413.30 842.25,405.17 842.38,332.97 842.49,391.36 842.64,402.57 842.77,353.53 842.88,414.34 843.03,425.22 843.16,389.49 843.27,392.60 843.41,409.73 843.55,405.40 843.66,413.64 843.80,419.60 843.94,373.58 844.05,417.28 844.19,421.97 844.32,379.09 844.43,396.04 844.57,428.02 844.71,401.69 844.82,395.52 844.96,414.10 845.10,381.51 845.21,376.98 845.35,424.56 845.49,410.84 845.60,421.68 845.73,409.17 845.88,390.64 845.99,387.37 846.12,407.38 846.27,394.41 846.38,406.72 846.51,418.22 846.65,412.24 846.77,303.98 846.90,412.39 847.04,418.41 847.16,282.49 847.28,416.62 847.43,419.92 847.55,393.06 847.67,408.17 847.82,404.98 847.94,294.58 848.06,414.62 848.20,412.53 848.33,324.71 848.44,419.84 848.59,426.29 848.72,344.42 848.83,415.13 848.98,411.08 849.11,395.13 849.22,412.37 849.36,415.07 849.50,413.66 849.61,398.97 849.75,422.12 849.89,391.65 850.00,415.79 850.14,430.82 850.28,407.80 850.39,383.10 850.52,420.19 850.66,405.95 850.77,403.99 850.91,403.62 851.05,411.00 851.16,398.78 851.30,423.63 851.44,391.82 851.55,393.93 851.68,407.35 851.83,418.80 851.94,362.12 852.07,405.75 852.22,419.34 852.33,410.03 852.46,421.50 852.60,421.01 852.72,386.83 852.85,420.26 852.99,420.75 853.11,325.85 853.23,420.47 853.38,413.79 853.50,388.04 853.62,413.97 853.77,412.17 853.89,309.88 854.01,406.86 854.15,409.93 854.28,368.66 854.40,419.78 854.54,411.23 854.67,368.12 854.78,408.73 854.93,423.81 855.06,388.04 855.17,404.79 855.31,412.20 855.45,395.58 855.56,410.45 855.70,403.54 855.84,371.75 855.95,415.43 856.09,425.91 856.23,416.38 856.34,404.43 856.47,415.31 856.61,411.08 856.73,369.29 856.86,414.55 857.00,408.35 857.11,388.02 857.25,411.54 857.39,422.13 857.50,377.98 857.63,414.55 857.78,398.63 857.89,373.25 858.02,420.26 858.17,385.87 858.28,320.66 858.41,410.01 858.55,391.87 858.67,292.91 858.80,417.40 858.94,406.99 859.06,297.07 859.18,417.48 859.33,429.04 859.45,339.58 859.57,391.41 859.72,408.64 859.84,374.73 859.96,412.82 860.10,414.70 860.23,371.23 860.35,398.70 860.49,415.57 860.62,390.11 860.73,409.45 860.88,411.56 861.01,420.69 861.12,410.92 861.26,416.01 861.40,372.82 861.51,414.71 861.65,423.12 861.79,395.25 861.90,397.65 862.04,411.38 862.18,408.57 862.29,384.94 862.42,412.80 862.57,420.74 862.68,377.77 862.81,425.87 862.95,384.70 863.07,404.48 863.20,410.99 863.34,417.60 863.45,361.26 863.59,418.26 863.73,422.06 863.84,314.63 863.97,415.24 864.12,424.53 864.23,326.61 864.36,423.62 864.50,414.23 864.62,292.20 864.75,412.56 864.89,417.46 865.01,374.53 865.13,411.57 865.28,408.08 865.40,394.76 865.52,421.34 865.67,425.28 865.79,334.24 865.91,410.08 866.05,399.54 866.18,336.45 866.30,413.81 866.44,414.55 866.57,361.86 866.68,420.28 866.83,410.32 866.96,366.19 867.07,417.81 867.21,416.25 867.35,408.68 867.46,408.02 867.60,412.91 867.74,393.41 867.85,402.86 867.99,409.43 868.13,416.23 868.24,400.88 868.37,411.36 868.52,410.20 868.63,399.84 868.76,396.23 868.90,393.43 869.02,393.37 869.15,402.54 869.29,404.37 869.41,371.73 869.54,410.58 869.68,411.50 869.80,421.27 869.92,417.59 870.07,421.72 870.19,239.89 870.31,419.92 870.46,410.40 870.58,358.82 870.70,414.83 870.84,409.80 870.97,358.29 871.08,403.37 871.23,403.08 871.36,350.04 871.47,430.50 871.62,420.00 871.75,386.64 871.86,425.25 872.00,421.33 872.14,386.59 872.25,413.93 872.39,401.92 872.52,372.47 872.64,392.82 872.78,412.22 872.91,395.17 873.02,401.94 873.16,416.91 873.30,411.71 873.41,383.48 873.55,402.38 873.69,413.15 873.80,416.40 873.94,408.43 874.08,398.67 874.19,403.20 874.33,423.61 874.47,400.17 874.58,390.37 874.71,409.65 874.86,399.03 874.97,403.52 875.10,418.08 875.24,411.78 875.36,317.84 875.49,412.07 875.63,396.92 875.75,319.68 875.87,415.34 876.02,423.35 876.14,329.83 876.26,406.33 876.41,403.33 876.53,336.55 876.65,426.95 876.79,411.51 876.92,292.41 877.04,411.07 877.18,425.57 877.31,354.62 877.42,418.19 877.57,410.17 877.70,357.40 877.81,411.07 877.95,412.29 878.09,380.85 878.20,405.75 878.34,413.97 878.48,372.36 878.59,399.58 878.73,421.00 878.86,407.60 878.97,403.90 879.11,416.06 879.25,353.11 879.36,414.46 879.50,408.67 879.64,401.78 879.75,382.80 879.89,403.53 880.03,387.46 880.14,410.63 880.28,428.17 880.42,398.01 880.53,364.51 880.66,422.46 880.81,410.61 880.92,399.47 881.05,408.04 881.19,408.98 881.31,335.74 881.44,414.51 881.58,416.05 881.70,368.87 881.82,408.96 881.97,406.59 882.09,368.24 882.21,413.18 882.36,393.61 882.48,392.81 882.60,407.46 882.74,413.54 882.87,355.06 882.99,421.89 883.13,414.76 883.26,334.38 883.37,413.94 883.52,421.52 883.65,324.11 883.76,407.74 883.90,423.91 884.04,405.91 884.15,384.00 884.29,405.52 884.43,366.09 884.54,418.47 884.68,420.91 884.82,396.97 884.93,400.10 885.07,412.11 885.20,382.65 885.31,400.40 885.45,419.14 885.59,426.72 885.70,355.31 885.84,404.40 885.98,417.06 886.09,381.58 886.23,409.06 886.37,407.10 886.48,379.38 886.61,403.74 886.76,419.71 886.87,341.41 887.00,420.47 887.14,414.22 887.26,376.66 887.39,424.71 887.53,421.04 887.65,360.23 887.77,400.97 887.92,410.59 888.00,406.22" fill="none" stroke="#000" stroke-width="1.5" opacity="0.9"/>
<text x="500.0" y="502" font-family="Times New Roman" font-size="19" text-anchor="middle">Julian Date</text>
<text transform="translate(18,247.0) rotate(-90)" font-family="Times New Roman" font-size="19" text-anchor="middle">velocity residual (mm/s)</text>
</svg>
