<svg xmlns="http://www.w3.org/2000/svg" width="920" height="520" viewBox="0 0 920 520">
<rect width="100%" height="100%" fill="white"/>
<text x="460.0" y="24" font-family="Times New Roman" font-size="24" text-anchor="middle">Moon native position residual</text>
<line x1="112" y1="434" x2="888" y2="434" stroke="#333"/>
<line x1="112" y1="60" x2="112" y2="434" stroke="#333"/>
<line x1="112" y1="434.00" x2="888" y2="434.00" stroke="#ddd"/>
<text x="104" y="438.00" font-family="Times New Roman" font-size="17" text-anchor="end">0</text>
<line x1="112" y1="340.50" x2="888" y2="340.50" stroke="#ddd"/>
<text x="104" y="344.50" font-family="Times New Roman" font-size="17" text-anchor="end">0.0002625</text>
<line x1="112" y1="247.00" x2="888" y2="247.00" stroke="#ddd"/>
<text x="104" y="251.00" font-family="Times New Roman" font-size="17" text-anchor="end">0.000525</text>
<line x1="112" y1="153.50" x2="888" y2="153.50" stroke="#ddd"/>
<text x="104" y="157.50" font-family="Times New Roman" font-size="17" text-anchor="end">0.0007875</text>
<line x1="112" y1="60.00" x2="888" y2="60.00" stroke="#ddd"/>
<text x="104" y="64.00" font-family="Times New Roman" font-size="17" text-anchor="end">0.00105</text>
<line x1="112.00" y1="434" x2="112.00" y2="439" stroke="#333"/>
<text x="112.00" y="456" font-family="Times New Roman" font-size="17" text-anchor="middle">2378495</text>
<line x1="306.00" y1="434" x2="306.00" y2="439" stroke="#333"/>
<text x="306.00" y="456" font-family="Times New Roman" font-size="17" text-anchor="middle">2433282</text>
<line x1="500.00" y1="434" x2="500.00" y2="439" stroke="#333"/>
<text x="500.00" y="456" font-family="Times New Roman" font-size="17" text-anchor="middle">2488070</text>
<line x1="694.00" y1="434" x2="694.00" y2="439" stroke="#333"/>
<text x="694.00" y="456" font-family="Times New Roman" font-size="17" text-anchor="middle">2542858</text>
<line x1="888.00" y1="434" x2="888.00" y2="439" stroke="#333"/>
<text x="888.00" y="456" font-family="Times New Roman" font-size="17" text-anchor="middle">2597645</text>
<polyline points="112.00,333.80 112.09,283.68 112.24,192.04 112.36,208.94 112.48,263.70 112.63,323.26 112.75,178.44 112.87,220.47 113.01,222.10 113.14,234.41 113.26,212.78 113.40,312.69 113.53,244.82 113.65,332.49 113.79,169.77 113.92,265.06 114.03,282.43 114.18,237.17 114.31,322.17 114.42,220.97 114.56,220.28 114.70,221.62 114.81,208.63 114.95,287.17 115.09,323.44 115.20,229.72 115.34,262.71 115.48,286.59 115.59,180.09 115.72,310.43 115.87,330.44 115.98,332.56 116.11,228.74 116.25,250.57 116.37,348.95 116.50,222.59 116.64,340.10 116.76,224.07 116.88,272.46 117.03,233.93 117.15,188.12 117.27,181.94 117.42,191.81 117.54,280.88 117.66,318.67 117.80,360.20 117.93,329.92 118.05,209.53 118.19,248.01 118.32,271.70 118.43,318.27 118.58,303.01 118.71,389.37 118.82,186.54 118.96,268.25 119.09,290.73 119.21,290.37 119.35,270.45 119.48,345.58 119.60,254.55 119.74,250.71 119.87,190.03 119.98,234.73 120.13,198.91 120.26,357.22 120.37,361.97 120.51,218.97 120.65,255.31 120.76,385.71 120.90,312.05 121.04,212.93 121.15,339.88 121.29,283.59 121.43,273.34 121.54,288.94 121.67,263.30 121.82,241.42 121.93,215.98 122.06,381.78 122.20,195.92 122.32,362.79 122.45,224.15 122.59,199.26 122.71,307.65 122.83,249.14 122.98,256.08 123.10,239.57 123.22,265.81 123.37,338.00 123.49,299.67 123.61,356.13 123.75,284.73 123.88,225.97 124.00,274.15 124.14,292.85 124.27,382.80 124.38,247.12 124.53,300.42 124.66,219.31 124.77,255.66 124.92,271.81 125.05,257.13 125.16,317.52 125.30,246.93 125.44,243.16 125.55,253.22 125.69,279.60 125.82,316.79 125.94,338.13 126.08,204.47 126.21,383.16 126.32,266.92 126.46,266.78 126.60,238.47 126.71,245.42 126.85,339.90 126.99,294.57 127.10,230.24 127.24,213.03 127.38,279.61 127.49,228.78 127.62,300.36 127.77,313.40 127.88,183.01 128.01,247.10 128.15,258.09 128.27,299.60 128.40,288.60 128.54,240.42 128.66,241.45 128.78,207.79 128.93,182.01 129.05,265.60 129.17,256.38 129.32,276.08 129.44,333.45 129.56,249.79 129.70,215.60 129.83,329.49 129.95,302.83 130.09,182.37 130.22,337.87 130.33,294.30 130.48,178.42 130.61,382.82 130.72,201.45 130.87,214.76 131.00,227.21 131.11,353.16 131.25,248.75 131.39,284.41 131.50,319.70 131.64,268.56 131.78,207.75 131.89,346.94 132.03,237.64 132.16,188.67 132.27,326.72 132.41,384.56 132.55,219.72 132.66,302.31 132.80,287.35 132.94,279.71 133.05,262.05 133.19,230.61 133.33,310.70 133.44,265.83 133.57,285.01 133.72,320.61 133.83,298.47 133.96,204.62 134.11,221.40 134.22,266.83 134.35,218.24 134.49,281.75 134.61,238.12 134.73,380.69 134.88,181.64 135.00,308.66 135.12,218.21 135.27,265.64 135.39,258.12 135.51,224.34 135.65,333.48 135.78,267.66 135.90,337.21 136.04,242.65 136.17,239.13 136.28,234.34 136.43,248.82 136.56,195.90 136.67,257.94 136.82,322.84 136.95,215.96 137.06,311.21 137.20,195.78 137.34,319.24 137.45,215.78 137.59,271.28 137.73,233.04 137.84,242.62 137.98,412.65 138.12,215.24 138.23,306.97 138.36,213.47 138.50,202.56 138.61,225.61 138.75,232.14 138.89,244.68 139.00,394.50 139.14,279.57 139.28,231.22 139.39,285.28 139.52,251.04 139.67,232.73 139.78,234.92 139.91,276.67 140.06,224.18 140.17,330.76 140.30,210.33 140.44,307.29 140.56,368.34 140.69,323.75 140.83,249.98 140.95,235.28 141.07,254.54 141.22,350.54 141.34,278.09 141.46,336.20 141.61,357.72 141.73,323.13 141.85,174.74 141.99,271.59 142.12,248.98 142.24,211.00 142.38,355.99 142.51,246.40 142.62,234.48 142.77,202.28 142.90,301.85 143.01,200.18 143.15,281.17 143.29,296.04 143.40,307.81 143.54,194.96 143.68,276.84 143.79,257.31 143.93,260.12 144.07,208.14 144.18,264.26 144.31,196.01 144.45,324.80 144.57,312.27 144.70,280.50 144.84,340.75 144.95,353.02 145.09,292.42 145.23,237.83 145.34,281.81 145.47,327.73 145.62,179.75 145.73,249.87 145.86,367.56 146.01,283.16 146.12,309.40 146.25,217.51 146.39,309.89 146.51,218.37 146.64,253.96 146.78,271.46 146.90,297.25 147.02,173.78 147.17,257.48 147.29,294.92 147.41,218.47 147.56,204.35 147.68,308.47 147.80,256.73 147.94,237.95 148.07,363.95 148.19,244.47 148.33,346.56 148.46,281.24 148.57,308.50 148.72,276.23 148.85,285.01 148.96,209.24 149.10,303.83 149.24,191.55 149.35,354.96 149.49,218.31 149.63,328.88 149.74,296.19 149.88,283.67 150.02,257.35 150.13,315.85 150.26,231.17 150.41,376.84 150.52,236.23 150.65,254.75 150.79,277.29 150.91,280.08 151.04,214.43 151.18,247.83 151.30,260.99 151.42,277.93 151.57,272.86 151.68,225.39 151.81,293.22 151.96,211.10 152.07,269.84 152.20,212.64 152.34,281.53 152.46,297.29 152.59,261.00 152.73,338.97 152.86,194.60 152.97,245.34 153.12,391.64 153.25,237.42 153.36,229.92 153.51,328.13 153.63,194.78 153.75,290.23 153.89,303.19 154.02,292.54 154.14,245.15 154.28,221.21 154.41,329.10 154.52,335.77 154.67,298.45 154.80,388.43 154.91,321.86 155.05,211.24 155.19,223.46 155.30,198.37 155.44,206.10 155.58,259.48 155.69,249.09 155.83,252.62 155.97,294.11 156.08,227.67 156.21,379.37 156.36,214.62 156.47,276.85 156.60,213.01 156.74,256.18 156.86,237.04 156.99,413.38 157.13,310.79 157.25,225.70 157.38,189.66 157.52,242.99 157.64,226.11 157.76,260.98 157.91,250.83 158.03,238.82 158.15,233.36 158.30,307.11 158.42,296.31 158.54,287.51 158.68,296.55 158.81,221.96 158.92,278.14 159.07,396.08 159.20,223.71 159.31,179.33 159.46,259.92 159.59,394.04 159.70,296.24 159.84,293.42 159.98,248.97 160.09,205.50 160.23,352.35 160.36,244.34 160.48,297.26 160.62,293.45 160.75,332.99 160.86,250.31 161.00,261.35 161.14,338.29 161.25,325.01 161.39,263.45 161.53,186.74 161.64,254.20 161.78,336.32 161.92,320.39 162.03,381.05 162.16,195.38 162.31,188.70 162.42,189.78 162.55,179.39 162.70,205.45 162.81,271.57 162.94,324.81 163.08,194.81 163.20,257.76 163.33,346.84 163.47,265.66 163.59,281.92 163.71,180.52 163.86,381.48 163.98,269.22 164.10,299.29 164.25,227.88 164.37,240.42 164.49,395.16 164.63,269.26 164.76,234.53 164.87,235.01 165.02,322.05 165.15,217.43 165.26,329.01 165.41,212.73 165.54,401.89 165.65,247.66 165.79,274.71 165.93,220.35 166.04,215.07 166.18,244.45 166.32,298.72 166.43,301.28 166.57,313.24 166.70,129.86 166.81,216.74 166.95,184.63 167.09,296.48 167.20,253.31 167.34,385.81 167.48,331.80 167.59,249.65 167.73,218.49 167.87,331.95 167.98,231.38 168.12,199.47 168.26,214.41 168.37,244.41 168.50,249.81 168.65,283.65 168.76,270.65 168.89,271.50 169.03,268.17 169.15,243.37 169.28,295.93 169.42,256.71 169.54,199.28 169.66,266.11 169.81,228.03 169.93,283.06 170.05,358.12 170.20,216.52 170.32,185.17 170.44,235.19 170.58,192.92 170.71,241.95 170.83,199.14 170.97,264.72 171.10,250.91 171.21,296.59 171.36,191.26 171.49,254.69 171.60,363.60 171.74,290.06 171.88,214.61 171.99,219.87 172.13,285.27 172.27,327.29 172.38,274.12 172.52,171.86 172.66,319.21 172.77,153.25 172.90,202.85 173.04,263.28 173.15,229.63 173.29,247.07 173.43,336.89 173.54,295.14 173.68,265.11 173.82,172.12 173.93,241.95 174.07,229.32 174.21,350.06 174.32,254.86 174.45,213.82 174.60,281.07 174.71,238.81 174.84,264.57 174.98,192.59 175.10,301.61 175.23,323.02 175.37,309.63 175.49,217.81 175.61,211.83 175.76,342.93 175.88,261.58 176.00,337.13 176.15,203.78 176.27,326.71 176.39,227.98 176.53,261.07 176.66,331.10 176.78,239.12 176.92,194.39 177.05,174.48 177.16,244.78 177.31,202.75 177.44,305.15 177.55,227.26 177.69,274.27 177.83,207.77 177.94,276.25 178.08,320.75 178.22,369.62 178.33,323.17 178.47,214.32 178.61,289.93 178.72,362.11 178.86,353.11 179.00,224.27 179.11,380.81 179.24,241.52 179.38,210.83 179.49,232.89 179.63,284.50 179.77,189.35 179.88,333.11 180.02,213.76 180.16,228.24 180.27,291.35 180.40,221.12 180.55,228.58 180.66,260.13 180.79,192.46 180.94,327.99 181.05,316.41 181.18,250.52 181.32,280.34 181.44,181.89 181.56,300.81 181.71,197.55 181.83,295.09 181.95,146.03 182.10,292.45 182.22,284.21 182.34,262.88 182.48,315.39 182.61,195.06 182.73,230.72 182.87,257.51 183.00,213.37 183.11,294.31 183.26,189.04 183.39,366.02 183.50,255.91 183.64,342.03 183.78,273.07 183.89,262.38 184.03,284.20 184.17,324.45 184.28,297.55 184.42,266.92 184.56,247.87 184.67,261.06 184.81,240.93 184.95,189.51 185.06,329.07 185.19,180.23 185.33,259.45 185.45,287.84 185.58,321.51 185.72,319.78 185.84,249.46 185.97,324.98 186.11,263.91 186.22,310.50 186.35,214.63 186.50,331.51 186.61,247.54 186.74,313.88 186.89,328.90 187.00,262.96 187.13,184.87 187.27,257.69 187.39,230.92 187.51,311.87 187.66,232.45 187.78,312.58 187.90,368.74 188.05,318.78 188.17,308.17 188.29,226.47 188.43,304.64 188.56,311.65 188.68,364.80 188.82,211.12 188.95,185.39 189.07,242.74 189.21,230.75 189.34,277.10 189.45,233.41 189.60,241.68 189.73,274.63 189.84,198.24 189.98,164.94 190.12,273.92 190.23,381.95 190.37,240.08 190.51,230.40 190.62,346.93 190.76,288.48 190.90,240.28 191.01,359.15 191.14,397.95 191.29,212.34 191.40,351.29 191.53,250.70 191.67,243.38 191.79,271.42 191.92,250.16 192.06,234.73 192.18,235.67 192.30,221.71 192.45,240.16 192.57,234.90 192.69,219.21 192.84,182.66 192.96,299.95 193.08,358.27 193.22,310.28 193.35,207.12 193.47,217.51 193.61,184.92 193.74,230.40 193.85,256.07 194.00,146.42 194.13,184.66 194.24,268.74 194.38,197.38 194.52,293.69 194.63,191.93 194.77,357.28 194.91,278.77 195.02,327.47 195.16,334.40 195.29,203.14 195.40,196.37 195.55,306.36 195.68,350.69 195.79,202.69 195.93,248.50 196.07,306.99 196.18,337.10 196.32,190.56 196.46,329.43 196.57,258.51 196.71,305.65 196.85,292.07 196.96,346.66 197.09,220.01 197.24,222.94 197.35,213.64 197.48,276.16 197.62,224.84 197.74,267.87 197.87,261.49 198.01,327.65 198.13,292.61 198.25,187.22 198.40,198.86 198.52,260.95 198.64,193.85 198.79,212.12 198.91,328.33 199.03,207.54 199.17,267.51 199.30,185.06 199.42,350.07 199.56,187.24 199.69,264.78 199.80,280.61 199.95,208.05 200.08,354.58 200.19,255.55 200.34,252.45 200.47,218.03 200.58,244.91 200.72,211.07 200.86,252.06 200.97,295.25 201.11,238.37 201.25,276.88 201.36,316.39 201.50,188.98 201.63,264.34 201.74,191.55 201.88,313.64 202.02,223.00 202.13,281.54 202.27,389.79 202.41,200.83 202.52,237.96 202.66,286.92 202.80,336.90 202.91,219.60 203.04,316.06 203.19,237.62 203.30,297.94 203.43,160.13 203.57,366.85 203.69,277.31 203.82,168.08 203.96,248.99 204.08,309.17 204.20,251.36 204.35,247.45 204.47,227.17 204.59,281.50 204.74,261.06 204.86,231.10 204.98,297.29 205.12,371.19 205.25,243.58 205.37,312.65 205.51,280.73 205.64,205.53 205.75,239.94 205.90,384.14 206.03,251.69 206.14,270.48 206.29,359.73 206.42,251.90 206.53,252.20 206.67,174.66 206.81,187.10 206.92,280.36 207.06,204.24 207.20,213.96 207.31,249.99 207.45,337.62 207.59,295.77 207.70,287.17 207.83,187.29 207.97,271.66 208.08,256.87 208.22,207.15 208.36,346.63 208.47,213.88 208.61,256.15 208.75,278.87 208.86,305.54 208.99,180.44 209.14,258.05 209.25,241.85 209.38,272.12 209.53,319.95 209.64,185.09 209.77,244.41 209.91,245.17 210.03,224.29 210.15,241.05 210.30,198.81 210.42,341.62 210.54,341.58 210.69,308.47 210.81,224.93 210.93,353.71 211.08,253.80 211.20,309.53 211.32,262.15 211.46,244.03 211.59,260.56 211.70,300.87 211.85,308.86 211.98,238.49 212.09,360.92 212.24,288.33 212.37,267.32 212.48,245.20 212.62,257.51 212.76,295.74 212.87,218.72 213.01,170.63 213.15,313.88 213.26,229.70 213.40,301.41 213.54,324.48 213.65,322.77 213.78,277.54 213.92,255.15 214.03,298.45 214.17,241.44 214.31,304.66 214.42,278.73 214.56,259.70 214.70,230.89 214.81,248.79 214.94,364.52 215.09,231.60 215.20,286.83 215.33,307.66 215.48,345.38 215.59,201.14 215.72,238.47 215.86,295.72 215.98,229.33 216.11,220.97 216.25,272.58 216.37,276.03 216.49,164.00 216.64,189.95 216.76,340.16 216.88,309.15 217.03,284.77 217.15,286.02 217.27,330.29 217.41,250.56 217.54,228.87 217.66,362.47 217.80,362.09 217.93,202.63 218.04,348.61 218.19,225.40 218.32,219.19 218.43,267.67 218.57,221.07 218.71,223.26 218.82,266.17 218.96,273.43 219.10,258.84 219.21,372.42 219.35,264.99 219.49,157.30 219.60,272.15 219.73,193.77 219.88,280.97 219.99,346.69 220.12,216.38 220.26,378.25 220.38,225.47 220.51,169.24 220.65,328.67 220.76,321.88 220.89,191.62 221.04,185.44 221.15,299.37 221.28,162.26 221.43,214.58 221.54,165.31 221.67,176.37 221.81,219.91 221.93,207.91 222.06,193.88 222.20,395.19 222.32,230.61 222.44,180.19 222.59,315.78 222.71,275.81 222.83,389.82 222.98,266.84 223.10,193.07 223.22,274.99 223.36,314.84 223.49,226.09 223.61,324.57 223.75,314.20 223.88,230.63 223.99,263.27 224.14,245.47 224.27,255.11 224.38,272.93 224.52,265.51 224.66,189.70 224.77,218.51 224.91,325.46 225.05,280.46 225.16,309.88 225.30,286.26 225.44,208.83 225.55,333.04 225.68,282.62 225.83,277.62 225.94,205.62 226.07,228.11 226.21,310.15 226.33,387.64 226.46,226.06 226.60,375.01 226.72,256.26 226.84,245.31 226.99,290.20 227.11,200.15 227.23,287.63 227.38,268.55 227.50,353.91 227.62,277.36 227.76,383.21 227.89,325.95 228.01,183.07 228.15,296.20 228.28,288.28 228.39,257.15 228.54,384.08 228.67,272.45 228.78,210.38 228.93,235.64 229.06,308.34 229.17,203.11 229.31,265.12 229.45,237.71 229.56,277.92 229.70,172.04 229.83,269.38 229.95,199.07 230.09,258.49 230.22,288.44 230.33,183.60 230.47,308.17 230.61,276.91 230.72,240.73 230.86,259.79 231.00,267.54 231.11,263.14 231.25,333.11 231.39,373.13 231.50,310.53 231.63,249.78 231.78,169.50 231.89,258.89 232.02,293.65 232.16,272.05 232.28,267.97 232.41,408.74 232.55,202.35 232.67,319.62 232.80,205.44 232.94,223.76 233.06,291.30 233.18,169.90 233.33,210.42 233.45,261.23 233.57,263.60 233.72,367.23 233.84,211.96 233.96,309.06 234.10,209.39 234.23,245.54 234.34,304.85 234.49,232.06 234.62,300.43 234.73,179.58 234.88,260.03 235.01,300.04 235.12,187.95 235.26,284.26 235.40,238.08 235.51,261.47 235.65,215.11 235.79,269.82 235.90,341.52 236.04,331.34 236.17,171.80 236.28,247.90 236.42,258.67 236.56,224.43 236.67,302.33 236.81,174.07 236.95,221.23 237.06,358.90 237.20,203.26 237.34,309.23 237.45,203.98 237.58,175.16 237.73,216.48 237.84,176.94 237.97,205.83 238.12,249.35 238.23,259.89 238.36,320.29 238.50,279.14 238.62,281.90 238.75,352.00 238.89,225.49 239.01,307.00 239.13,237.62 239.28,298.17 239.40,184.79 239.52,346.39 239.67,176.64 239.79,224.27 239.91,264.13 240.05,287.46 240.18,310.22 240.30,271.14 240.44,372.40 240.57,284.60 240.68,256.36 240.83,274.85 240.96,296.62 241.07,160.53 241.21,308.83 241.35,332.45 241.46,307.05 241.60,243.39 241.74,329.65 241.85,199.31 241.99,280.16 242.13,220.19 242.24,407.26 242.37,246.41 242.51,299.58 242.62,325.92 242.76,142.34 242.90,331.94 243.01,360.37 243.15,177.87 243.29,301.94 243.40,233.37 243.54,245.35 243.68,401.56 243.79,360.11 243.92,351.32 244.07,319.12 244.18,278.04 244.31,320.98 244.45,317.31 244.57,377.37 244.70,201.16 244.84,298.81 244.96,331.11 245.08,337.59 245.23,271.12 245.35,250.42 245.47,225.45 245.62,271.24 245.74,194.03 245.86,322.84 246.00,321.08 246.13,266.83 246.25,194.24 246.39,322.12 246.52,275.75 246.63,257.34 246.78,228.23 246.91,401.19 247.02,245.47 247.16,192.03 247.30,225.66 247.41,320.44 247.55,287.46 247.69,249.66 247.80,420.66 247.94,277.96 248.08,343.07 248.19,361.16 248.32,337.29 248.47,339.99 248.58,276.21 248.71,285.20 248.85,260.08 248.96,249.31 249.10,296.23 249.24,340.48 249.35,195.25 249.49,207.73 249.63,210.37 249.74,291.88 249.87,286.52 250.02,237.77 250.13,238.74 250.26,333.08 250.40,250.08 250.52,175.27 250.65,315.44 250.79,307.30 250.91,272.35 251.03,270.50 251.18,318.96 251.30,306.09 251.42,241.44 251.57,394.30 251.69,300.06 251.81,319.44 251.95,289.59 252.08,268.26 252.20,338.51 252.34,178.91 252.47,352.52 252.58,256.50 252.73,319.27 252.86,214.14 252.97,408.40 253.11,281.90 253.25,273.60 253.36,246.25 253.50,216.50 253.64,297.18 253.75,192.50 253.89,351.15 254.03,220.58 254.14,297.74 254.28,352.35 254.42,198.31 254.53,237.97 254.66,218.13 254.80,284.26 254.92,210.41 255.05,353.13 255.19,227.28 255.30,368.81 255.44,344.07 255.58,213.53 255.69,194.13 255.82,197.37 255.97,207.09 256.08,251.94 256.21,277.71 256.36,229.91 256.47,217.35 256.60,319.98 256.74,265.68 256.86,247.73 256.98,227.52 257.13,337.93 257.25,273.84 257.37,254.93 257.52,265.69 257.64,354.40 257.76,299.26 257.90,229.57 258.03,228.78 258.15,280.38 258.29,312.64 258.42,252.75 258.54,215.98 258.68,205.40 258.81,248.44 258.92,286.54 259.06,271.80 259.20,250.93 259.31,205.33 259.45,184.05 259.59,225.12 259.70,263.07 259.84,348.86 259.98,170.92 260.09,218.65 260.23,300.47 260.37,301.96 260.48,263.66 260.61,263.28 260.76,304.07 260.87,315.23 261.00,272.00 261.14,278.30 261.26,316.34 261.39,173.64 261.53,325.11 261.65,391.64 261.77,348.68 261.92,275.72 262.04,216.38 262.16,273.24 262.31,206.88 262.43,277.54 262.55,222.87 262.69,199.12 262.82,338.68 262.94,400.04 263.08,353.33 263.21,373.45 263.32,190.40 263.47,200.75 263.60,292.52 263.71,172.55 263.85,251.92 263.99,335.93 264.10,212.22 264.24,264.94 264.37,309.03 264.49,194.78 264.63,321.36 264.76,311.71 264.87,221.59 265.02,254.02 265.15,199.38 265.26,240.28 265.40,278.62 265.54,221.28 265.65,246.29 265.79,290.67 265.93,355.17 266.04,290.18 266.18,285.01 266.32,217.90 266.43,210.81 266.56,293.64 266.71,267.19 266.82,257.65 266.95,301.63 267.09,235.82 267.21,215.34 267.34,281.36 267.48,219.89 267.60,181.04 267.72,213.60 267.87,226.02 267.99,387.17 268.11,247.05 268.26,277.26 268.38,155.61 268.50,368.29 268.64,263.73 268.77,342.96 268.89,264.02 269.03,266.64 269.16,253.00 269.27,280.96 269.42,364.55 269.55,242.47 269.66,218.45 269.80,333.30 269.94,205.53 270.05,254.75 270.19,333.31 270.33,295.76 270.44,248.90 270.58,341.59 270.71,320.47 270.82,246.42 270.97,159.45 271.10,252.10 271.21,280.53 271.35,250.77 271.49,306.40 271.60,242.49 271.74,233.74 271.88,310.61 271.99,258.46 272.13,249.23 272.27,251.81 272.38,186.94 272.51,313.83 272.66,270.56 272.77,323.77 272.90,219.23 273.04,194.72 273.16,298.77 273.29,237.09 273.43,259.52 273.55,356.37 273.67,313.38 273.82,169.70 273.94,303.09 274.06,308.06 274.21,274.24 274.33,384.29 274.45,239.73 274.59,284.38 274.72,238.49 274.84,294.24 274.98,261.48 275.11,229.47 275.22,364.80 275.37,274.72 275.50,229.83 275.61,312.70 275.76,260.93 275.89,270.35 276.00,293.84 276.14,284.74 276.28,319.55 276.39,244.10 276.53,308.11 276.67,317.55 276.78,295.53 276.92,192.70 277.05,345.96 277.16,209.97 277.30,206.49 277.44,235.96 277.55,240.20 277.69,218.20 277.83,295.26 277.94,335.81 278.08,274.80 278.22,207.19 278.33,272.03 278.46,282.09 278.61,281.94 278.72,233.62 278.85,370.49 278.99,304.08 279.11,224.32 279.24,341.19 279.38,224.85 279.50,366.20 279.62,242.17 279.77,304.20 279.89,324.57 280.01,139.23 280.16,290.58 280.28,246.61 280.40,330.57 280.54,268.62 280.67,150.39 280.79,200.01 280.93,280.30 281.06,257.62 281.17,207.46 281.32,246.27 281.45,314.91 281.56,338.64 281.71,205.47 281.84,305.84 281.95,216.20 282.09,249.07 282.23,270.91 282.34,268.81 282.48,246.48 282.62,272.44 282.73,296.28 282.87,306.66 283.01,254.84 283.12,371.33 283.25,254.68 283.39,256.62 283.50,189.51 283.64,336.84 283.78,229.90 283.89,278.70 284.03,138.45 284.17,166.28 284.28,301.32 284.41,279.50 284.56,221.92 284.67,235.70 284.80,318.33 284.95,176.65 285.06,274.74 285.19,243.42 285.33,280.89 285.45,348.87 285.58,358.60 285.72,258.90 285.84,326.66 285.96,199.47 286.11,343.41 286.23,232.76 286.35,227.65 286.50,355.46 286.62,199.68 286.74,296.00 286.88,220.54 287.01,298.36 287.13,355.35 287.27,295.87 287.40,219.60 287.51,267.08 287.66,306.51 287.79,232.38 287.90,274.57 288.04,334.91 288.18,265.73 288.29,198.65 288.43,253.25 288.57,239.96 288.68,194.19 288.82,278.46 288.96,338.49 289.07,357.36 289.20,264.82 289.34,234.81 289.46,185.01 289.59,288.86 289.73,357.76 289.84,310.21 289.98,254.47 290.12,258.54 290.23,275.52 290.36,329.23 290.51,224.97 290.62,283.56 290.75,180.10 290.90,264.98 291.01,254.79 291.14,392.69 291.28,285.05 291.40,268.67 291.53,345.53 291.67,226.17 291.79,261.92 291.91,219.52 292.06,353.14 292.18,194.41 292.30,210.46 292.45,242.88 292.57,326.99 292.69,315.16 292.83,246.02 292.96,167.72 293.08,174.05 293.22,285.20 293.35,359.26 293.46,207.21 293.61,318.23 293.74,238.50 293.85,212.27 293.99,268.70 294.13,201.61 294.24,327.54 294.38,244.56 294.52,399.29 294.63,249.14 294.77,246.80 294.91,295.50 295.02,276.17 295.15,376.60 295.30,190.08 295.41,321.77 295.54,270.93 295.68,277.06 295.80,269.56 295.93,215.12 296.07,276.90 296.19,296.36 296.31,309.84 296.46,328.13 296.58,266.61 296.70,164.78 296.85,253.26 296.97,200.76 297.09,337.69 297.23,269.57 297.36,316.69 297.48,256.18 297.62,415.83 297.75,267.87 297.86,246.48 298.01,264.02 298.14,356.88 298.25,269.12 298.40,356.16 298.53,250.86 298.64,289.95 298.78,210.44 298.91,315.12 299.03,345.17 299.17,305.30 299.30,278.66 299.41,333.39 299.56,354.96 299.69,246.28 299.80,300.92 299.94,291.91 300.08,198.38 300.19,269.97 300.33,262.94 300.47,198.68 300.58,359.41 300.72,368.78 300.86,269.98 300.97,261.57 301.10,358.39 301.25,273.22 301.36,259.75 301.49,323.63 301.63,364.80 301.75,211.00 301.88,184.72 302.02,327.88 302.14,250.56 302.26,317.50 302.41,198.22 302.53,318.27 302.65,344.32 302.80,279.03 302.92,304.82 303.04,202.32 303.18,264.75 303.31,222.20 303.43,320.78 303.57,209.06 303.70,371.78 303.81,260.66 303.96,236.72 304.09,249.36 304.20,321.03 304.35,361.38 304.48,203.11 304.59,257.57 304.73,367.60 304.87,243.68 304.98,257.66 305.12,176.54 305.26,194.64 305.37,218.87 305.51,279.08 305.64,214.47 305.75,198.93 305.89,209.54 306.03,306.60 306.14,170.34 306.28,380.08 306.42,315.08 306.53,356.73 306.67,329.70 306.81,232.84 306.92,203.41 307.05,176.26 307.20,204.31 307.31,220.99 307.44,203.31 307.59,322.26 307.70,271.88 307.83,242.58 307.97,262.23 308.09,349.80 308.22,244.65 308.36,218.92 308.48,289.10 308.60,355.09 308.75,225.59 308.87,341.67 308.99,303.59 309.14,332.26 309.26,241.06 309.38,279.39 309.52,311.03 309.65,356.93 309.76,223.76 309.91,287.97 310.04,263.90 310.15,312.24 310.30,352.86 310.43,214.42 310.54,281.80 310.68,274.29 310.82,233.60 310.93,217.27 311.07,302.89 311.21,219.54 311.32,243.56 311.46,274.60 311.60,306.38 311.70,218.86 311.84,277.27 311.98,338.25 312.09,246.54 312.23,387.17 312.37,261.64 312.48,187.57 312.62,298.77 312.76,281.49 312.87,334.39 313.00,280.43 313.15,305.55 313.26,348.76 313.39,357.77 313.54,164.90 313.65,280.45 313.78,194.67 313.92,143.13 314.04,230.39 314.17,214.28 314.31,202.09 314.43,259.46 314.55,347.59 314.70,282.72 314.82,317.95 314.94,181.52 315.09,235.87 315.21,368.40 315.33,252.97 315.47,213.21 315.60,339.42 315.72,205.82 315.86,314.48 315.99,239.60 316.10,356.98 316.25,204.62 316.38,343.66 316.49,232.97 316.63,298.53 316.77,185.63 316.88,262.70 317.02,218.39 317.16,397.45 317.27,412.67 317.41,279.66 317.55,199.48 317.66,322.82 317.79,227.49 317.93,341.48 318.04,279.50 318.18,287.39 318.32,177.13 318.43,307.22 318.57,210.80 318.71,206.99 318.82,232.10 318.96,148.70 319.10,249.68 319.21,285.87 319.34,170.38 319.49,248.91 319.60,270.88 319.73,212.19 319.87,283.86 319.99,243.08 320.12,309.99 320.26,259.61 320.38,239.64 320.50,270.92 320.65,321.82 320.77,320.56 320.89,249.98 321.04,297.69 321.16,340.59 321.28,232.55 321.42,338.64 321.55,280.06 321.67,335.31 321.81,316.55 321.94,187.84 322.05,309.96 322.20,176.95 322.33,303.31 322.44,262.15 322.58,211.16 322.72,242.26 322.83,295.53 322.97,280.59 323.11,338.70 323.22,236.23 323.36,226.19 323.50,277.48 323.61,191.70 323.74,225.93 323.89,250.95 324.00,199.17 324.13,291.03 324.27,190.99 324.38,230.87 324.52,267.33 324.66,325.19 324.77,263.06 324.91,346.11 325.05,315.72 325.16,177.31 325.29,190.95 325.44,315.37 325.55,282.21 325.68,230.57 325.82,264.46 325.94,242.81 326.07,265.97 326.21,223.60 326.33,303.97 326.45,214.65 326.60,342.66 326.72,211.88 326.84,239.57 326.99,203.13 327.11,196.99 327.23,234.12 327.37,226.84 327.50,264.64 327.62,281.32 327.76,295.61 327.89,199.71 328.00,229.75 328.15,303.74 328.28,273.88 328.39,238.16 328.53,259.31 328.67,293.36 328.78,257.71 328.92,293.97 329.06,264.85 329.17,339.78 329.31,278.51 329.45,332.06 329.56,235.25 329.70,284.53 329.84,231.13 329.95,296.54 330.08,185.55 330.22,285.03 330.34,211.96 330.47,283.70 330.61,271.56 330.73,293.58 330.86,205.65 331.00,273.83 331.12,272.92 331.24,177.99 331.39,363.88 331.51,309.50 331.63,244.55 331.78,277.43 331.90,220.54 332.02,322.41 332.16,246.69 332.29,321.27 332.40,328.15 332.55,297.37 332.68,312.20 332.79,344.05 332.94,219.34 333.07,244.19 333.18,241.13 333.32,251.83 333.45,214.63 333.57,288.32 333.71,246.00 333.84,206.53 333.96,346.18 334.10,234.55 334.23,286.76 334.34,269.73 334.48,298.45 334.62,162.34 334.73,216.73 334.87,300.90 335.01,232.79 335.12,288.05 335.26,276.33 335.40,221.76 335.51,300.96 335.65,254.34 335.79,273.09 335.90,337.65 336.03,261.68 336.18,203.08 336.29,274.40 336.42,231.51 336.56,218.37 336.68,185.84 336.81,266.57 336.95,194.72 337.07,301.71 337.19,180.82 337.34,276.82 337.46,312.99 337.58,293.42 337.73,273.25 337.85,381.54 337.97,225.26 338.11,311.37 338.24,354.40 338.36,196.12 338.50,191.09 338.63,259.32 338.74,228.04 338.89,170.98 339.02,278.81 339.13,370.42 339.27,335.40 339.41,265.65 339.52,184.14 339.66,263.88 339.80,311.10 339.91,358.65 340.05,368.43 340.18,259.33 340.29,303.99 340.44,279.76 340.57,222.11 340.68,195.39 340.82,206.05 340.96,230.05 341.07,342.26 341.21,315.24 341.35,248.88 341.46,241.80 341.60,266.10 341.74,314.24 341.85,274.71 341.98,378.74 342.13,377.27 342.24,295.76 342.37,324.48 342.51,255.60 342.63,241.44 342.76,308.12 342.90,340.28 343.02,368.77 343.14,193.56 343.29,339.80 343.41,201.86 343.53,229.01 343.68,308.51 343.80,347.52 343.92,229.14 344.06,236.65 344.19,217.53 344.31,337.27 344.45,321.27 344.58,195.98 344.69,263.28 344.84,197.83 344.97,270.24 345.08,363.51 345.22,318.30 345.36,325.92 345.47,254.56 345.61,308.57 345.75,283.03 345.86,328.12 346.00,159.91 346.14,307.79 346.25,193.90 346.39,185.17 346.52,346.53 346.63,252.43 346.77,288.35 346.91,279.52 347.02,312.94 347.16,212.51 347.30,320.36 347.41,262.95 347.55,343.25 347.69,231.40 347.80,237.95 347.93,378.45 348.08,194.17 348.19,312.69 348.32,366.18 348.46,254.85 348.58,289.74 348.71,209.87 348.85,175.42 348.97,207.67 349.09,295.49 349.24,213.49 349.36,377.50 349.48,240.99 349.63,249.63 349.75,261.01 349.87,220.97 350.01,346.81 350.14,225.10 350.26,312.65 350.40,309.71 350.53,201.76 350.64,275.40 350.79,263.84 350.92,326.89 351.03,296.61 351.18,182.42 351.31,240.06 351.42,325.55 351.56,278.41 351.70,314.35 351.81,186.71 351.95,392.90 352.09,244.13 352.20,319.95 352.34,295.86 352.48,304.53 352.59,232.69 352.72,259.58 352.86,350.61 352.97,319.08 353.11,242.78 353.25,291.52 353.36,312.28 353.50,288.56 353.64,248.43 353.75,223.68 353.88,322.98 354.03,345.84 354.14,190.81 354.27,210.55 354.42,272.32 354.53,294.60 354.66,212.29 354.80,210.79 354.92,298.96 355.04,182.69 355.19,236.39 355.31,261.20 355.43,237.45 355.58,287.96 355.70,184.58 355.82,330.46 355.96,250.60 356.09,241.49 356.21,186.40 356.35,231.93 356.48,294.96 356.59,217.19 356.74,337.04 356.87,248.96 356.98,285.03 357.13,360.91 357.26,227.97 357.37,232.27 357.51,241.24 357.65,244.52 357.76,281.70 357.90,223.95 358.04,222.42 358.15,265.90 358.29,172.70 358.43,258.51 358.54,301.42 358.67,331.24 358.81,256.45 358.93,366.92 359.06,327.59 359.20,237.52 359.31,276.78 359.45,279.86 359.59,180.81 359.70,206.18 359.83,206.40 359.98,323.73 360.09,223.22 360.22,336.93 360.37,223.43 360.48,346.00 360.61,207.99 360.75,191.31 360.87,343.11 361.00,270.05 361.14,261.68 361.26,182.62 361.38,185.64 361.53,316.02 361.65,223.90 361.77,220.53 361.92,252.25 362.04,251.45 362.16,340.29 362.30,220.23 362.43,235.47 362.55,229.15 362.69,193.01 362.82,142.27 362.93,381.71 363.08,211.99 363.21,252.35 363.32,290.10 363.46,227.79 363.60,240.97 363.71,188.36 363.85,308.44 363.99,307.50 364.10,315.55 364.24,146.29 364.38,303.62 364.49,289.78 364.62,286.07 364.77,205.76 364.88,239.05 365.01,254.52 365.15,226.73 365.27,330.39 365.40,165.39 365.54,225.47 365.66,349.42 365.78,227.22 365.93,275.33 366.04,211.22 366.17,337.90 366.32,263.42 366.43,216.07 366.56,374.93 366.70,330.34 366.82,317.90 366.95,245.12 367.09,274.93 367.22,267.31 367.33,378.31 367.48,393.66 367.61,234.58 367.72,298.47 367.87,296.53 367.99,166.96 368.11,283.56 368.25,256.02 368.38,321.13 368.50,313.73 368.64,204.01 368.77,260.19 368.88,211.63 369.03,238.95 369.16,228.05 369.27,273.92 369.41,176.33 369.55,235.19 369.66,244.16 369.80,257.71 369.94,244.26 370.05,238.84 370.19,261.17 370.33,371.72 370.44,248.88 370.57,211.19 370.72,290.76 370.83,369.57 370.96,313.79 371.10,342.56 371.22,304.84 371.35,362.79 371.49,284.31 371.61,301.51 371.73,314.28 371.88,252.93 372.00,352.00 372.12,244.61 372.27,190.20 372.39,362.47 372.51,299.87 372.65,291.40 372.78,245.12 372.90,248.63 373.04,277.61 373.17,284.77 373.28,287.98 373.43,182.62 373.56,345.85 373.67,304.30 373.82,155.97 373.95,206.11 374.06,290.71 374.20,190.24 374.34,219.98 374.45,242.80 374.59,205.85 374.72,242.47 374.84,365.18 374.98,193.07 375.11,300.14 375.22,248.59 375.36,335.77 375.50,356.88 375.61,243.39 375.75,270.20 375.89,318.34 376.00,217.40 376.14,251.90 376.28,285.32 376.39,362.94 376.52,226.18 376.67,389.78 376.78,271.11 376.91,222.46 377.05,279.98 377.17,301.69 377.30,325.87 377.44,211.24 377.56,248.98 377.68,259.16 377.83,280.91 377.95,244.45 378.07,191.95 378.22,324.72 378.34,271.83 378.46,290.83 378.60,334.39 378.73,387.73 378.85,250.24 378.99,321.22 379.12,287.52 379.23,229.75 379.38,296.75 379.51,291.81 379.62,272.37 379.77,247.93 379.90,317.17 380.01,387.00 380.15,256.70 380.29,281.62 380.40,372.80 380.54,159.26 380.68,232.55 380.79,228.80 380.93,226.70 381.06,296.58 381.17,199.40 381.31,218.16 381.45,332.31 381.56,214.73 381.70,264.33 381.84,215.20 381.95,300.36 382.09,269.04 382.23,251.34 382.34,267.75 382.47,350.87 382.62,280.97 382.73,197.39 382.86,287.16 383.01,264.65 383.12,243.41 383.25,397.15 383.39,228.52 383.51,235.83 383.64,276.54 383.78,249.43 383.90,282.48 384.02,246.53 384.17,265.75 384.29,254.23 384.41,242.67 384.56,362.10 384.68,223.37 384.80,271.14 384.94,285.62 385.07,326.95 385.19,280.43 385.33,146.59 385.46,230.20 385.57,254.97 385.72,365.56 385.85,205.23 385.96,282.76 386.10,177.14 386.24,295.46 386.35,185.94 386.49,191.22 386.63,269.46 386.74,258.87 386.88,229.39 387.02,293.63 387.13,195.57 387.26,217.00 387.40,235.87 387.51,267.18 387.65,264.20 387.79,250.93 387.90,294.21 388.04,268.89 388.18,189.16 388.29,248.73 388.42,299.49 388.57,172.51 388.68,239.41 388.81,225.30 388.96,233.77 389.07,237.95 389.20,208.88 389.34,354.31 389.46,275.40 389.59,300.17 389.73,224.21 389.85,262.72 389.97,215.91 390.12,311.88 390.24,189.87 390.36,205.59 390.51,197.43 390.63,244.45 390.75,201.60 390.89,223.09 391.02,207.95 391.14,287.20 391.28,255.03 391.41,309.16 391.52,240.67 391.67,210.26 391.80,236.82 391.91,254.33 392.05,162.65 392.19,268.52 392.30,174.85 392.44,274.19 392.58,218.40 392.69,379.29 392.83,232.74 392.97,298.91 393.08,292.48 393.21,300.76 393.36,281.53 393.47,195.76 393.60,296.52 393.74,258.97 393.85,278.58 393.99,321.06 394.13,188.87 394.24,311.97 394.38,207.76 394.52,280.64 394.63,214.33 394.76,254.42 394.91,149.86 395.02,227.30 395.15,261.79 395.29,155.78 395.41,281.53 395.54,303.36 395.68,208.20 395.80,195.97 395.92,209.47 396.07,175.32 396.19,285.36 396.31,261.37 396.46,235.03 396.58,273.57 396.70,278.91 396.84,348.30 396.97,275.69 397.09,220.36 397.23,169.84 397.36,301.39 397.47,334.86 397.62,231.26 397.75,340.07 397.86,376.61 398.00,224.25 398.14,387.67 398.25,281.50 398.39,345.48 398.53,286.73 398.64,227.83 398.78,333.38 398.92,185.56 399.03,275.26 399.16,260.06 399.31,197.50 399.42,266.01 399.55,187.23 399.69,312.77 399.81,222.52 399.94,322.62 400.08,265.19 400.20,272.56 400.33,275.91 400.47,219.48 400.58,211.21 400.71,244.28 400.86,223.00 400.97,250.78 401.10,221.61 401.25,367.79 401.36,270.36 401.49,316.37 401.63,206.06 401.75,333.12 401.87,314.98 402.02,320.80 402.14,272.41 402.26,269.61 402.41,344.69 402.53,310.66 402.65,314.28 402.79,228.64 402.92,225.38 403.04,271.53 403.18,230.93 403.31,234.31 403.43,241.74 403.57,318.90 403.70,373.70 403.81,233.54 403.95,233.38 404.09,306.50 404.20,327.86 404.34,196.60 404.48,236.40 404.59,273.42 404.73,244.12 404.87,314.83 404.98,265.48 405.12,270.71 405.26,228.24 405.37,230.99 405.50,273.66 405.65,313.39 405.76,307.69 405.89,275.94 406.03,239.55 406.15,174.26 406.28,339.16 406.42,266.60 406.54,285.20 406.66,207.01 406.81,309.81 406.93,210.21 407.05,309.42 407.20,337.09 407.32,242.90 407.44,258.26 407.58,223.65 407.71,216.55 407.82,207.55 407.97,249.54 408.10,248.07 408.21,275.19 408.36,169.59 408.49,339.57 408.60,225.74 408.74,215.28 408.88,234.96 408.99,340.30 409.13,166.20 409.26,254.74 409.38,274.77 409.52,186.75 409.65,368.12 409.76,333.67 409.90,361.58 410.04,272.88 410.15,230.22 410.29,283.16 410.43,203.63 410.54,187.69 410.68,314.90 410.82,328.94 410.93,277.30 411.07,246.67 411.21,246.75 411.32,299.14 411.45,362.42 411.60,175.07 411.71,244.62 411.84,203.03 411.98,182.52 412.10,387.10 412.23,417.93 412.37,226.04 412.49,311.90 412.61,185.39 412.76,253.67 412.88,264.85 413.00,256.71 413.15,267.91 413.27,196.18 413.39,289.43 413.53,208.35 413.66,343.82 413.78,250.79 413.92,167.97 414.05,392.20 414.16,233.68 414.31,330.20 414.44,205.61 414.55,214.05 414.69,310.16 414.83,215.72 414.94,239.13 415.08,230.20 415.22,294.12 415.33,205.84 415.47,175.51 415.61,209.86 415.72,298.81 415.86,215.06 415.99,173.80 416.10,217.91 416.24,210.26 416.38,300.62 416.49,322.46 416.63,287.52 416.77,351.05 416.88,287.61 417.02,177.82 417.16,272.11 417.27,274.27 417.40,165.07 417.55,306.17 417.66,343.82 417.79,242.31 417.93,226.93 418.05,347.85 418.18,342.55 418.32,214.29 418.44,208.20 418.56,279.89 418.71,196.50 418.83,185.07 418.95,216.08 419.10,280.75 419.22,189.96 419.34,206.00 419.48,227.23 419.61,361.46 419.73,295.10 419.87,274.65 420.00,187.52 420.11,314.95 420.26,249.14 420.39,340.76 420.50,203.46 420.64,241.03 420.78,288.83 420.89,258.57 421.03,185.76 421.17,292.89 421.28,248.77 421.42,351.03 421.56,235.77 421.67,214.03 421.81,345.56 421.94,315.95 422.05,278.76 422.19,196.88 422.33,330.57 422.44,236.07 422.58,212.33 422.72,306.77 422.83,259.39 422.97,225.76 423.11,295.13 423.22,276.73 423.35,342.70 423.50,280.12 423.61,376.18 423.74,209.12 423.88,279.32 424.00,208.01 424.13,186.43 424.27,203.15 424.39,298.17 424.51,244.85 424.66,376.77 424.78,244.80 424.90,206.07 425.05,350.70 425.17,232.85 425.29,207.74 425.43,349.74 425.56,292.01 425.68,191.56 425.82,136.65 425.95,222.74 426.06,344.51 426.21,237.13 426.34,230.14 426.45,241.95 426.60,247.94 426.73,213.98 426.84,299.05 426.98,215.94 427.12,200.66 427.23,254.95 427.37,147.02 427.51,217.32 427.62,280.18 427.76,327.52 427.90,321.48 428.01,349.22 428.14,321.46 428.28,252.91 428.39,350.18 428.53,332.39 428.67,262.29 428.78,238.58 428.92,243.12 429.06,226.38 429.17,218.89 429.30,321.35 429.45,196.74 429.56,293.89 429.69,216.96 429.84,249.41 429.95,217.34 430.08,215.53 430.22,228.36 430.34,255.87 430.46,244.54 430.61,226.40 430.73,299.84 430.85,272.83 431.00,235.49 431.12,255.72 431.24,287.05 431.38,232.16 431.51,294.43 431.63,230.48 431.77,243.36 431.90,218.07 432.02,252.05 432.16,332.21 432.29,203.55 432.40,341.62 432.55,301.00 432.68,268.34 432.79,348.42 432.93,223.81 433.07,311.76 433.18,309.06 433.32,386.29 433.46,255.94 433.57,177.55 433.71,285.46 433.85,213.29 433.96,261.76 434.09,169.84 434.23,281.75 434.35,222.23 434.48,227.43 434.62,260.32 434.74,248.60 434.87,196.70 435.01,330.52 435.12,184.32 435.25,357.58 435.40,379.39 435.51,362.85 435.64,244.93 435.79,320.69 435.90,369.04 436.03,271.46 436.17,230.66 436.29,270.65 436.42,402.43 436.56,300.02 436.68,182.40 436.80,222.77 436.95,262.28 437.07,410.18 437.19,245.86 437.34,235.87 437.46,323.49 437.58,284.20 437.72,344.11 437.85,305.38 437.97,211.78 438.11,188.86 438.24,230.57 438.35,277.66 438.50,282.23 438.63,192.75 438.74,259.25 438.88,338.57 439.02,232.69 439.13,284.91 439.27,242.51 439.41,340.45 439.52,223.26 439.66,223.40 439.80,348.38 439.91,204.02 440.04,208.28 440.19,270.84 440.30,206.12 440.43,247.20 440.57,312.21 440.69,271.30 440.82,303.21 440.96,348.72 441.08,187.48 441.20,377.69 441.35,282.35 441.47,218.15 441.59,280.00 441.74,295.43 441.86,199.53 441.98,275.83 442.12,226.44 442.25,266.28 442.37,274.02 442.51,246.58 442.64,321.83 442.75,341.81 442.90,281.57 443.03,188.07 443.14,292.79 443.29,254.62 443.42,271.83 443.53,251.62 443.67,155.89 443.80,345.94 443.92,205.72 444.06,289.20 444.19,268.83 444.30,314.15 444.45,199.20 444.58,313.90 444.69,184.84 444.83,268.03 444.97,318.57 445.08,316.28 445.22,262.91 445.36,190.91 445.47,257.99 445.61,209.33 445.75,250.26 445.86,232.41 445.99,241.72 446.14,183.31 446.25,181.29 446.38,226.15 446.52,297.56 446.64,275.55 446.77,180.88 446.91,353.51 447.03,221.84 447.15,280.22 447.30,277.77 447.42,279.51 447.54,173.34 447.69,370.36 447.81,210.19 447.93,225.40 448.07,320.27 448.20,375.17 448.32,310.13 448.46,303.75 448.59,262.16 448.70,290.60 448.85,240.04 448.98,302.19 449.09,308.49 449.24,327.93 449.37,344.20 449.48,224.10 449.62,283.77 449.76,339.54 449.87,276.75 450.01,209.53 450.15,262.70 450.26,250.24 450.40,331.89 450.53,206.71 450.64,217.65 450.78,235.53 450.92,258.13 451.03,242.89 451.17,235.08 451.31,209.95 451.42,265.65 451.56,276.44 451.70,369.09 451.81,265.35 451.94,179.65 452.09,234.67 452.20,316.47 452.33,320.09 452.48,201.26 452.59,332.16 452.72,202.20 452.86,222.97 452.98,284.66 453.11,270.38 453.25,299.12 453.37,222.15 453.49,282.87 453.64,228.05 453.76,399.08 453.88,189.48 454.02,405.39 454.15,178.98 454.27,363.61 454.41,228.70 454.54,348.19 454.65,259.54 454.80,336.75 454.93,277.99 455.04,279.09 455.19,315.53 455.32,268.81 455.43,280.30 455.57,317.52 455.71,289.27 455.82,232.79 455.96,376.66 456.10,256.98 456.21,376.77 456.35,249.87 456.49,298.68 456.60,281.31 456.73,282.42 456.87,205.89 456.98,339.60 457.12,221.43 457.26,216.71 457.37,247.19 457.51,224.10 457.65,355.13 457.76,265.22 457.89,270.27 458.04,274.00 458.15,342.88 458.28,135.81 458.43,367.73 458.54,150.63 458.67,247.27 458.81,198.60 458.93,319.85 459.06,133.66 459.20,240.02 459.32,224.29 459.44,205.69 459.59,257.14 459.71,306.98 459.83,241.78 459.98,165.88 460.10,156.03 460.22,312.52 460.36,194.90 460.49,217.84 460.61,256.89 460.75,317.81 460.88,254.96 460.99,231.96 461.14,232.42 461.27,350.34 461.38,246.18 461.52,339.12 461.66,193.68 461.77,222.12 461.91,304.78 462.05,237.64 462.16,286.87 462.30,200.79 462.44,276.87 462.55,190.46 462.68,183.35 462.82,249.66 462.93,382.05 463.07,179.46 463.21,332.70 463.32,233.86 463.46,185.44 463.60,284.92 463.71,190.88 463.84,266.98 463.99,247.91 464.10,240.16 464.23,259.29 464.38,218.60 464.49,271.22 464.62,185.78 464.76,287.08 464.88,371.52 465.01,294.55 465.15,237.43 465.27,216.91 465.39,307.75 465.54,265.73 465.66,253.21 465.78,229.35 465.93,321.34 466.05,223.97 466.17,304.33 466.31,284.72 466.44,372.54 466.56,287.46 466.70,275.10 466.83,256.96 466.94,197.67 467.09,302.50 467.22,256.59 467.33,190.55 467.47,233.68 467.61,227.87 467.72,266.80 467.86,248.83 468.00,227.28 468.11,201.12 468.25,234.94 468.39,359.42 468.50,258.78 468.63,247.11 468.78,206.67 468.89,298.09 469.02,318.21 469.16,274.42 469.28,215.27 469.41,224.89 469.55,340.38 469.66,236.79 469.80,293.41 469.94,248.53 470.05,215.05 470.18,337.21 470.33,299.60 470.44,266.16 470.57,289.75 470.71,222.92 470.83,259.74 470.96,247.43 471.10,170.31 471.22,235.19 471.34,240.56 471.49,224.74 471.61,235.38 471.73,336.68 471.88,223.70 472.00,266.40 472.12,259.90 472.26,178.26 472.39,226.79 472.51,350.30 472.65,367.95 472.78,238.03 472.89,278.10 473.04,287.97 473.17,249.66 473.28,343.57 473.42,358.67 473.56,246.51 473.67,361.23 473.81,327.65 473.95,279.51 474.06,324.14 474.20,328.72 474.34,366.82 474.45,213.83 474.58,320.80 474.73,292.45 474.84,218.01 474.97,275.85 475.11,168.80 475.23,243.09 475.36,275.51 475.50,225.46 475.62,271.43 475.75,202.72 475.89,205.56 476.01,222.48 476.13,263.58 476.28,340.54 476.40,300.33 476.52,197.26 476.67,284.42 476.79,287.17 476.91,244.22 477.05,310.82 477.18,265.92 477.29,284.44 477.44,258.25 477.57,223.04 477.68,231.92 477.83,262.69 477.96,267.11 478.07,299.03 478.21,292.36 478.34,321.96 478.46,258.77 478.60,190.02 478.73,321.85 478.85,265.09 478.99,253.53 479.12,325.12 479.23,295.01 479.37,208.14 479.51,199.87 479.62,328.27 479.76,186.97 479.90,401.19 480.01,348.84 480.15,216.94 480.29,222.74 480.40,257.16 480.54,179.60 480.68,334.60 480.79,213.26 480.92,182.08 481.07,267.04 481.18,163.99 481.31,317.13 481.45,227.29 481.57,313.16 481.70,310.85 481.84,209.31 481.96,362.36 482.08,188.95 482.23,259.31 482.35,293.24 482.47,313.71 482.62,242.13 482.74,214.77 482.86,248.01 483.00,226.93 483.13,250.78 483.24,234.31 483.39,291.20 483.52,284.43 483.63,327.94 483.78,285.64 483.91,164.78 484.02,354.96 484.16,259.58 484.30,256.35 484.41,185.28 484.55,245.22 484.69,270.85 484.80,304.60 484.94,207.39 485.07,254.47 485.18,237.91 485.32,219.75 485.46,365.04 485.57,316.20 485.71,268.13 485.85,211.51 485.96,344.00 486.10,312.85 486.24,216.01 486.35,278.72 486.49,322.51 486.63,301.37 486.74,341.15 486.87,302.00 487.02,183.89 487.13,215.68 487.26,232.63 487.40,304.88 487.52,229.75 487.65,257.65 487.79,215.18 487.91,271.20 488.03,208.41 488.18,186.26 488.30,217.23 488.42,326.70 488.57,353.18 488.69,317.22 488.81,309.16 488.95,284.62 489.08,368.91 489.20,251.30 489.34,183.23 489.47,247.74 489.58,287.11 489.73,347.36 489.86,238.74 489.97,292.09 490.11,333.47 490.25,298.02 490.36,191.24 490.50,249.10 490.64,211.30 490.75,201.85 490.89,282.49 491.03,347.13 491.14,225.26 491.28,304.09 491.41,317.88 491.52,218.07 491.66,221.92 491.80,285.86 491.91,240.52 492.05,354.68 492.19,343.68 492.30,396.56 492.44,236.78 492.58,184.72 492.69,233.26 492.82,233.21 492.97,235.90 493.08,275.98 493.21,186.10 493.35,237.13 493.47,228.65 493.60,279.13 493.74,204.23 493.86,229.54 493.98,345.66 494.13,230.41 494.25,252.74 494.37,339.55 494.52,230.08 494.64,311.43 494.76,209.93 494.90,211.04 495.03,224.41 495.15,269.30 495.29,236.91 495.42,322.00 495.53,297.08 495.68,363.24 495.81,201.56 495.92,227.12 496.06,220.36 496.20,259.66 496.31,300.32 496.45,260.34 496.59,318.95 496.70,236.94 496.84,373.30 496.98,195.90 497.09,184.15 497.23,156.84 497.37,364.64 497.48,323.69 497.61,170.38 497.75,250.40 497.86,263.47 498.00,290.10 498.14,277.39 498.25,359.19 498.39,204.33 498.53,237.85 498.64,382.93 498.77,275.36 498.92,312.56 499.03,190.14 499.16,328.71 499.30,282.35 499.42,384.26 499.55,252.94 499.69,327.87 499.81,271.48 499.93,165.34 500.08,241.64 500.20,283.96 500.32,343.07 500.47,247.16 500.59,278.62 500.71,261.76 500.85,173.54 500.98,270.72 501.10,290.97 501.24,220.29 501.37,171.71 501.48,326.54 501.63,284.31 501.76,194.12 501.87,345.61 502.02,227.22 502.15,306.93 502.26,163.90 502.40,217.98 502.54,277.03 502.65,277.04 502.79,192.93 502.93,259.58 503.04,224.26 503.18,185.52 503.32,246.63 503.43,314.24 503.56,160.60 503.70,288.10 503.82,235.64 503.95,287.71 504.09,206.75 504.20,226.36 504.34,302.33 504.48,289.06 504.59,197.41 504.72,345.56 504.87,212.81 504.98,412.04 505.11,268.25 505.26,335.46 505.37,275.05 505.50,209.59 505.64,343.91 505.76,221.20 505.88,223.94 506.03,328.99 506.15,238.46 506.27,220.80 506.42,210.02 506.54,230.80 506.66,213.09 506.80,335.62 506.93,217.44 507.05,316.84 507.19,262.19 507.32,219.79 507.44,258.03 507.58,408.62 507.71,210.24 507.82,219.06 507.97,297.91 508.10,232.54 508.21,309.00 508.35,285.11 508.49,231.54 508.60,341.27 508.74,275.73 508.88,377.00 508.99,253.24 509.13,319.43 509.27,307.96 509.38,191.19 509.51,296.64 509.66,287.17 509.77,278.83 509.90,241.61 510.04,256.16 510.16,344.06 510.29,257.85 510.43,379.37 510.55,238.18 510.67,188.00 510.82,267.49 510.94,263.15 511.06,298.13 511.21,205.72 511.33,315.90 511.45,355.09 511.59,383.26 511.72,302.31 511.84,261.63 511.98,263.31 512.11,291.44 512.22,349.32 512.37,370.10 512.50,260.70 512.61,301.12 512.76,228.75 512.88,330.66 513.00,299.66 513.14,288.97 513.27,300.42 513.39,304.86 513.53,320.61 513.66,247.80 513.77,267.45 513.92,217.99 514.05,233.83 514.16,244.60 514.30,218.39 514.44,255.66 514.55,294.52 514.69,276.09 514.83,371.87 514.94,211.34 515.08,282.52 515.22,402.19 515.33,247.95 515.46,230.59 515.61,308.11 515.72,304.45 515.85,280.08 515.99,230.18 516.11,249.36 516.24,154.92 516.38,283.79 516.50,271.80 516.62,241.52 516.77,189.99 516.89,225.58 517.01,270.17 517.16,331.30 517.28,292.22 517.40,176.58 517.54,216.00 517.67,186.79 517.79,392.72 517.93,289.03 518.06,317.22 518.17,218.72 518.32,205.77 518.45,210.27 518.56,329.05 518.71,360.06 518.84,290.05 518.95,230.10 519.09,153.84 519.23,230.45 519.34,321.55 519.48,257.88 519.61,269.71 519.73,272.15 519.87,231.73 520.00,209.88 520.11,284.86 520.25,158.16 520.39,188.24 520.50,183.49 520.64,213.97 520.78,237.97 520.89,327.93 521.03,262.15 521.17,198.77 521.28,297.18 521.41,212.36 521.56,357.88 521.67,296.29 521.80,218.71 521.94,294.17 522.06,196.39 522.19,404.40 522.33,227.14 522.45,214.23 522.57,359.78 522.72,249.25 522.84,399.53 522.96,229.43 523.11,200.01 523.23,175.43 523.35,298.09 523.49,279.87 523.62,301.02 523.74,187.68 523.88,267.53 524.01,246.95 524.12,328.79 524.27,382.46 524.40,268.81 524.51,254.36 524.66,258.13 524.79,215.36 524.90,166.10 525.04,253.54 525.18,315.80 525.29,310.81 525.43,260.14 525.57,183.05 525.68,258.60 525.82,295.30 525.95,242.36 526.06,306.88 526.20,355.74 526.34,402.94 526.45,272.68 526.59,241.70 526.73,251.27 526.84,244.60 526.98,217.78 527.12,162.16 527.23,245.60 527.36,290.60 527.51,193.29 527.62,321.20 527.75,293.77 527.90,205.90 528.01,220.46 528.14,172.50 528.28,239.43 528.40,263.03 528.53,295.47 528.67,207.00 528.79,227.36 528.91,242.31 529.06,284.98 529.18,225.88 529.30,231.09 529.44,276.72 529.57,229.42 529.69,246.36 529.83,245.05 529.96,259.24 530.07,240.14 530.22,210.11 530.35,259.25 530.46,201.72 530.61,313.58 530.74,272.65 530.85,346.42 530.99,257.04 531.13,254.39 531.24,219.63 531.38,211.86 531.52,253.20 531.63,289.17 531.77,312.06 531.91,281.83 532.02,348.52 532.15,220.31 532.29,345.06 532.40,278.79 532.54,285.14 532.68,186.93 532.79,265.62 532.93,332.96 533.07,300.27 533.18,315.80 533.31,241.50 533.46,308.86 533.57,274.74 533.70,226.25 533.85,300.26 533.96,284.46 534.09,277.14 534.23,287.19 534.35,323.93 534.48,288.15 534.62,313.34 534.74,260.47 534.86,300.26 535.01,276.99 535.13,252.86 535.25,343.20 535.40,313.29 535.52,243.76 535.64,207.25 535.78,244.68 535.91,351.04 536.03,300.01 536.17,401.69 536.30,342.42 536.41,254.46 536.56,196.97 536.69,221.21 536.80,351.62 536.94,197.13 537.08,361.18 537.19,178.97 537.33,194.25 537.47,210.30 537.58,236.31 537.72,283.15 537.86,327.97 537.97,344.98 538.10,240.62 538.25,263.89 538.36,318.60 538.49,286.45 538.63,295.95 538.74,222.13 538.88,172.14 539.02,288.29 539.13,258.19 539.26,350.21 539.41,177.84 539.52,212.38 539.65,236.27 539.80,315.48 539.91,235.32 540.04,213.16 540.18,216.95 540.30,311.73 540.43,316.98 540.57,213.77 540.69,246.26 540.81,271.86 540.96,191.14 541.08,330.64 541.20,242.94 541.35,270.60 541.47,214.43 541.59,300.93 541.73,352.32 541.86,205.03 541.98,344.67 542.12,222.76 542.25,217.60 542.36,195.87 542.51,281.87 542.64,315.91 542.75,277.92 542.89,216.58 543.03,274.59 543.14,214.00 543.28,282.25 543.42,256.76 543.53,275.50 543.67,278.26 543.81,241.61 543.92,263.26 544.05,209.25 544.20,297.99 544.31,237.19 544.44,241.83 544.58,294.42 544.70,356.92 544.83,272.67 544.97,233.48 545.09,261.98 545.22,392.36 545.36,223.92 545.47,315.06 545.60,179.29 545.75,318.70 545.86,269.17 545.99,287.84 546.13,334.86 546.25,284.74 546.38,279.24 546.52,278.28 546.65,243.54 546.76,283.50 546.91,350.90 547.04,230.45 547.15,217.20 547.30,228.76 547.42,265.32 547.54,335.12 547.68,291.13 547.81,338.42 547.93,160.50 548.07,316.26 548.20,202.24 548.31,233.74 548.46,203.53 548.59,285.89 548.70,209.09 548.84,181.05 548.98,271.39 549.09,342.24 549.23,315.94 549.37,357.10 549.48,262.39 549.62,322.28 549.76,242.74 549.87,306.02 550.00,240.38 550.15,339.52 550.26,250.49 550.39,246.49 550.53,197.67 550.65,236.58 550.78,372.88 550.92,293.23 551.04,223.00 551.17,224.40 551.31,311.27 551.43,376.27 551.55,376.79 551.70,230.22 551.82,229.38 551.94,288.61 552.09,267.83 552.21,195.84 552.33,290.14 552.47,318.20 552.60,298.28 552.71,332.68 552.86,281.65 552.99,364.71 553.10,303.18 553.25,157.55 553.38,298.38 553.49,266.38 553.63,290.23 553.77,246.92 553.88,203.67 554.02,188.75 554.15,352.26 554.27,317.03 554.41,176.10 554.54,273.79 554.65,212.12 554.79,225.26 554.93,332.95 555.04,254.50 555.18,253.62 555.32,285.75 555.43,352.30 555.57,262.08 555.71,239.93 555.82,265.58 555.95,242.65 556.10,277.72 556.21,397.87 556.34,330.57 556.49,257.23 556.60,285.20 556.73,209.24 556.87,275.04 556.99,216.61 557.12,357.64 557.26,351.96 557.38,196.29 557.50,272.71 557.65,233.04 557.77,204.96 557.89,294.89 558.04,283.93 558.16,194.75 558.28,345.55 558.42,227.71 558.55,373.41 558.67,288.47 558.81,222.42 558.94,229.45 559.05,203.93 559.20,192.71 559.33,264.16 559.44,255.40 559.58,243.30 559.72,236.72 559.83,321.58 559.97,261.95 560.11,305.99 560.22,194.67 560.36,351.22 560.50,229.12 560.61,255.72 560.74,275.28 560.88,242.09 560.99,219.21 561.13,254.96 561.27,300.98 561.38,358.92 561.52,279.45 561.66,248.71 561.77,268.78 561.91,254.10 562.05,155.49 562.16,269.51 562.29,301.94 562.44,252.24 562.55,224.33 562.68,358.98 562.82,184.69 562.94,299.86 563.07,220.14 563.21,244.53 563.33,259.23 563.45,168.63 563.60,179.84 563.72,218.43 563.84,204.33 563.99,277.09 564.11,312.93 564.23,292.59 564.37,258.77 564.50,262.15 564.62,316.22 564.76,188.89 564.89,198.36 565.00,179.83 565.15,328.35 565.28,289.78 565.39,369.64 565.53,202.21 565.67,248.06 565.78,293.72 565.92,245.34 566.06,314.15 566.17,210.09 566.31,233.29 566.45,227.78 566.56,317.23 566.70,360.70 566.83,243.58 566.94,230.73 567.08,217.77 567.22,242.57 567.33,288.05 567.47,304.17 567.61,234.35 567.72,333.41 567.86,199.62 568.00,257.21 568.11,273.11 568.24,303.29 568.39,216.25 568.50,265.16 568.63,256.06 568.77,190.97 568.89,286.00 569.02,268.74 569.16,357.72 569.28,254.47 569.40,300.49 569.55,288.23 569.67,379.76 569.79,220.16 569.94,288.30 570.06,278.16 570.18,379.71 570.32,345.86 570.45,291.40 570.57,193.48 570.71,255.58 570.84,233.84 570.95,217.72 571.10,284.50 571.23,217.61 571.34,300.57 571.48,344.70 571.62,261.45 571.73,239.45 571.87,272.47 572.01,208.47 572.12,395.71 572.26,167.49 572.40,248.61 572.51,313.66 572.65,251.93 572.79,242.06 572.90,335.74 573.03,185.58 573.17,259.53 573.28,261.69 573.42,207.88 573.56,271.29 573.67,260.91 573.81,362.47 573.95,273.95 574.06,311.79 574.19,267.12 574.34,355.58 574.45,260.22 574.58,293.94 574.73,276.89 574.84,212.19 574.97,157.25 575.11,273.66 575.23,256.81 575.35,265.31 575.50,298.09 575.62,300.63 575.74,195.62 575.89,228.34 576.01,275.29 576.13,300.82 576.27,262.67 576.40,203.22 576.52,205.41 576.66,220.51 576.79,215.57 576.90,342.08 577.05,277.98 577.18,226.36 577.29,308.83 577.44,257.42 577.57,250.77 577.68,236.30 577.82,272.44 577.96,241.30 578.07,382.64 578.21,159.47 578.35,290.32 578.46,250.42 578.60,290.15 578.74,293.22 578.85,329.35 578.98,236.93 579.12,294.44 579.24,250.40 579.37,237.14 579.51,289.28 579.63,304.80 579.76,330.46 579.90,228.02 580.01,275.54 580.14,238.14 580.29,221.82 580.40,198.82 580.53,180.91 580.68,235.85 580.79,333.68 580.92,328.09 581.06,377.86 581.18,260.02 581.30,266.13 581.45,314.71 581.57,190.77 581.69,316.76 581.84,257.69 581.96,210.12 582.08,256.29 582.22,241.99 582.35,233.74 582.47,249.62 582.61,266.09 582.74,290.22 582.86,359.07 583.00,267.19 583.13,336.52 583.24,314.09 583.39,274.15 583.52,219.49 583.63,292.73 583.77,263.50 583.91,239.48 584.02,282.84 584.16,288.51 584.30,219.07 584.41,330.26 584.55,204.26 584.69,217.19 584.80,237.44 584.93,207.43 585.08,276.56 585.19,323.84 585.32,230.60 585.46,253.09 585.58,312.22 585.71,287.67 585.85,198.31 585.97,221.80 586.09,267.66 586.24,311.64 586.36,246.37 586.48,275.80 586.63,271.29 586.75,196.47 586.87,196.63 587.01,223.14 587.14,282.27 587.26,183.84 587.40,207.82 587.53,268.65 587.64,261.88 587.79,316.53 587.92,326.95 588.03,280.35 588.18,253.49 588.31,297.92 588.42,232.61 588.56,188.22 588.70,328.10 588.81,210.08 588.95,346.84 589.08,382.86 589.19,267.25 589.34,257.71 589.47,303.87 589.58,375.69 589.72,310.62 589.86,307.23 589.97,286.72 590.11,392.52 590.25,194.65 590.36,294.45 590.50,299.16 590.64,212.72 590.75,229.31 590.88,182.30 591.03,329.15 591.14,327.55 591.27,299.12 591.41,300.60 591.53,239.00 591.66,284.43 591.80,215.21 591.92,294.98 592.04,249.93 592.19,193.05 592.31,321.87 592.43,249.86 592.58,261.45 592.70,339.36 592.82,273.83 592.96,260.85 593.09,326.20 593.21,275.49 593.35,184.57 593.48,273.46 593.59,255.92 593.74,240.85 593.87,207.48 593.98,233.02 594.13,317.75 594.26,293.01 594.37,257.32 594.51,205.12 594.65,200.80 594.76,249.59 594.90,283.38 595.04,264.10 595.15,282.51 595.29,278.09 595.42,222.29 595.53,293.86 595.67,132.50 595.81,382.27 595.92,214.99 596.06,308.71 596.20,288.58 596.31,289.36 596.45,216.64 596.59,206.39 596.70,248.69 596.83,346.54 596.98,282.09 597.09,304.46 597.22,197.34 597.36,282.51 597.48,190.80 597.61,319.56 597.75,214.42 597.87,289.16 597.99,212.22 598.14,291.95 598.26,390.71 598.38,208.30 598.53,277.68 598.65,272.18 598.77,295.79 598.91,201.74 599.04,314.97 599.16,260.49 599.30,186.59 599.43,212.54 599.54,232.38 599.69,154.26 599.82,233.46 599.93,271.11 600.08,311.01 600.21,258.84 600.32,273.55 600.46,300.49 600.60,275.56 600.71,335.65 600.85,300.50 600.99,295.74 601.10,209.63 601.24,203.17 601.38,228.06 601.49,327.01 601.62,246.21 601.76,311.62 601.87,275.59 602.01,289.28 602.15,265.10 602.26,299.82 602.40,198.60 602.54,329.60 602.65,236.79 602.78,398.79 602.93,211.00 603.04,312.54 603.17,215.48 603.32,318.06 603.43,281.80 603.56,189.93 603.70,274.41 603.82,403.50 603.95,190.02 604.09,280.09 604.21,238.81 604.33,360.60 604.48,328.59 604.60,263.32 604.72,313.79 604.87,217.96 604.99,247.83 605.11,333.35 605.25,314.34 605.38,260.66 605.50,239.33 605.64,355.33 605.77,335.28 605.88,191.68 606.03,211.12 606.16,229.32 606.27,264.78 606.41,175.43 606.55,279.11 606.66,275.45 606.80,260.81 606.94,270.62 607.05,286.33 607.19,300.43 607.33,222.38 607.44,232.88 607.57,271.57 607.71,243.88 607.83,226.43 607.96,168.71 608.10,164.26 608.21,240.34 608.35,322.78 608.49,194.92 608.60,282.93 608.73,253.93 608.88,260.27 608.99,270.35 609.12,262.38 609.27,312.18 609.38,289.26 609.51,259.74 609.65,240.46 609.77,211.00 609.90,373.38 610.04,231.43 610.16,402.03 610.28,303.53 610.43,384.75 610.55,273.82 610.67,279.48 610.82,389.44 610.94,212.60 611.06,236.15 611.20,233.93 611.33,191.59 611.45,204.72 611.59,276.72 611.72,329.94 611.83,294.79 611.98,188.62 612.11,269.96 612.22,371.97 612.36,244.44 612.50,273.21 612.61,226.60 612.75,221.71 612.89,175.97 613.00,211.00 613.14,224.05 613.28,280.81 613.39,224.35 613.52,267.34 613.67,281.74 613.78,261.44 613.91,263.62 614.05,291.72 614.17,259.54 614.30,274.80 614.44,268.87 614.55,347.97 614.68,277.95 614.83,311.88 614.94,287.97 615.07,309.74 615.22,211.37 615.33,337.19 615.46,292.41 615.60,255.24 615.72,253.69 615.85,221.69 615.99,205.58 616.11,253.55 616.23,280.42 616.38,301.80 616.50,363.90 616.62,240.32 616.77,269.56 616.89,212.54 617.01,290.77 617.15,334.92 617.28,310.02 617.40,207.70 617.54,269.15 617.67,219.25 617.78,214.51 617.93,218.53 618.06,228.59 618.17,253.16 618.31,354.87 618.45,276.77 618.56,335.43 618.70,172.38 618.84,304.95 618.95,209.75 619.09,299.78 619.23,307.90 619.34,226.70 619.47,227.63 619.62,290.67 619.73,257.06 619.86,296.53 620.00,232.04 620.12,373.05 620.25,323.39 620.39,311.20 620.51,406.89 620.64,371.43 620.78,242.22 620.90,200.57 621.02,243.28 621.17,332.77 621.29,287.67 621.41,209.44 621.55,308.11 621.68,313.20 621.80,263.03 621.94,269.03 622.07,240.63 622.18,250.52 622.33,235.12 622.46,280.83 622.57,220.96 622.72,319.03 622.85,236.17 622.96,311.60 623.10,172.04 623.24,273.28 623.35,267.19 623.49,306.73 623.62,272.15 623.74,337.14 623.88,423.35 624.01,282.92 624.12,267.42 624.26,207.50 624.40,210.20 624.51,318.27 624.65,286.64 624.79,249.28 624.90,204.63 625.04,192.20 625.18,303.45 625.29,356.42 625.42,176.56 625.57,182.74 625.68,254.99 625.81,341.53 625.96,305.77 626.07,176.59 626.20,190.96 626.34,238.69 626.46,262.11 626.59,241.72 626.73,352.95 626.85,254.55 626.97,312.66 627.12,314.64 627.24,276.32 627.36,244.65 627.51,256.44 627.63,239.85 627.75,261.20 627.89,218.09 628.02,318.76 628.13,233.90 628.28,307.83 628.41,300.39 628.52,235.20 628.67,274.23 628.80,225.71 628.91,233.31 629.05,254.74 629.19,241.25 629.30,366.60 629.44,269.86 629.58,295.13 629.69,224.82 629.83,193.18 629.96,226.37 630.07,232.72 630.21,261.06 630.35,235.60 630.46,235.86 630.60,260.80 630.74,272.83 630.85,325.49 630.99,184.09 631.13,263.51 631.24,233.16 631.37,358.29 631.52,266.39 631.63,233.47 631.76,221.93 631.91,247.37 632.02,213.31 632.15,204.31 632.29,227.77 632.41,212.13 632.54,335.79 632.68,334.79 632.80,288.64 632.92,228.60 633.07,257.33 633.19,229.50 633.31,267.38 633.46,218.77 633.58,381.90 633.70,212.82 633.84,290.33 633.97,219.51 634.09,225.61 634.23,216.08 634.36,191.93 634.47,209.24 634.62,311.91 634.75,245.85 634.86,207.06 635.00,198.80 635.14,257.02 635.25,327.66 635.39,181.92 635.53,313.79 635.64,306.49 635.78,258.56 635.92,260.98 636.03,259.83 636.16,254.78 636.30,161.49 636.41,163.29 636.55,206.45 636.69,263.08 636.80,190.01 636.94,179.78 637.08,196.55 637.19,310.05 637.33,318.13 637.47,189.08 637.58,320.25 637.71,379.56 637.86,337.74 637.97,256.16 638.10,266.40 638.24,313.32 638.36,290.20 638.49,300.33 638.63,252.33 638.75,283.48 638.87,364.61 639.02,321.60 639.14,245.85 639.26,344.63 639.41,227.09 639.53,343.77 639.65,290.81 639.79,183.97 639.92,153.32 640.04,261.25 640.18,254.38 640.31,249.95 640.42,309.56 640.57,317.68 640.70,245.38 640.81,345.72 640.95,239.63 641.09,270.00 641.20,199.25 641.34,229.46 641.48,267.43 641.59,284.43 641.73,288.41 641.87,280.48 641.98,272.43 642.11,250.95 642.26,246.75 642.37,273.57 642.50,272.89 642.64,247.54 642.75,186.14 642.89,268.05 643.03,322.21 643.14,271.96 643.28,224.71 643.42,197.09 643.53,349.50 643.66,360.85 643.81,229.06 643.92,254.35 644.05,327.60 644.19,249.76 644.31,304.66 644.44,387.84 644.58,202.14 644.70,238.71 644.82,250.60 644.97,247.82 645.09,287.21 645.21,294.70 645.36,235.61 645.48,352.77 645.60,282.93 645.74,223.42 645.87,270.56 645.99,260.53 646.13,358.57 646.26,341.39 646.37,213.61 646.52,266.96 646.65,252.34 646.76,227.76 646.90,230.23 647.04,330.18 647.15,298.79 647.29,196.65 647.43,147.43 647.54,294.73 647.68,231.21 647.82,209.23 647.93,227.85 648.07,409.33 648.21,306.11 648.32,255.03 648.45,238.06 648.59,205.00 648.71,202.73 648.84,231.65 648.98,198.41 649.09,284.96 649.23,200.93 649.37,293.34 649.48,347.93 649.61,239.69 649.76,345.46 649.87,353.00 650.00,260.63 650.15,247.25 650.26,231.02 650.39,323.66 650.53,281.30 650.65,215.49 650.77,278.49 650.92,250.02 651.04,301.00 651.16,311.06 651.31,325.48 651.43,205.51 651.55,177.50 651.69,280.05 651.82,241.12 651.94,337.03 652.08,249.26 652.21,196.29 652.33,276.90 652.47,316.49 652.60,251.40 652.71,231.00 652.86,292.62 652.99,225.00 653.10,237.56 653.24,230.21 653.38,320.14 653.49,345.13 653.63,252.45 653.77,168.72 653.88,246.98 654.02,300.97 654.16,274.49 654.27,346.44 654.40,235.35 654.55,280.60 654.66,252.77 654.79,285.10 654.93,258.92 655.05,333.91 655.18,243.73 655.32,321.85 655.44,216.95 655.56,272.91 655.71,226.58 655.83,229.72 655.95,308.56 656.10,228.97 656.22,211.85 656.34,172.20 656.48,350.87 656.61,341.95 656.73,196.18 656.87,236.61 657.00,260.77 657.11,316.29 657.26,217.37 657.39,329.62 657.50,215.37 657.64,219.19 657.78,244.71 657.89,353.71 658.03,393.26 658.16,291.46 658.28,309.32 658.42,293.43 658.55,240.50 658.66,212.78 658.81,205.39 658.94,198.48 659.05,299.87 659.19,227.99 659.33,316.76 659.44,344.54 659.58,246.17 659.72,210.41 659.83,212.45 659.97,379.05 660.11,220.94 660.22,336.41 660.35,264.75 660.50,294.14 660.61,240.94 660.74,249.13 660.88,220.09 661.00,200.92 661.13,305.19 661.27,172.48 661.39,287.12 661.51,345.44 661.66,218.99 661.78,241.94 661.90,224.05 662.05,168.88 662.17,302.31 662.29,222.93 662.43,295.95 662.56,315.04 662.68,230.23 662.82,242.73 662.95,269.68 663.06,264.64 663.21,333.31 663.34,310.48 663.45,337.19 663.60,256.88 663.73,241.17 663.84,199.82 663.98,225.68 664.12,231.85 664.23,239.52 664.37,212.77 664.50,215.02 664.62,189.14 664.76,225.08 664.89,265.05 665.00,383.03 665.14,287.00 665.28,336.48 665.39,216.38 665.53,189.75 665.67,278.15 665.78,281.87 665.92,284.26 666.06,271.37 666.17,262.66 666.30,186.43 666.45,389.36 666.56,302.55 666.69,288.90 666.83,247.00 666.95,256.46 667.08,296.00 667.22,322.84 667.34,269.80 667.46,295.67 667.61,305.91 667.73,156.24 667.85,285.82 668.00,224.85 668.12,287.75 668.24,176.85 668.38,260.90 668.51,200.45 668.63,196.17 668.77,271.74 668.90,338.42 669.01,242.68 669.16,321.80 669.29,366.69 669.40,338.53 669.55,215.35 669.68,274.76 669.79,341.69 669.93,260.36 670.07,326.57 670.18,278.07 670.32,299.56 670.46,196.67 670.57,300.69 670.71,350.60 670.84,392.59 670.95,388.30 671.09,266.60 671.23,192.89 671.34,279.20 671.48,196.07 671.62,216.99 671.73,352.50 671.87,381.64 672.01,272.76 672.12,390.72 672.25,267.91 672.40,202.72 672.51,269.51 672.64,211.24 672.79,379.72 672.90,343.13 673.03,237.99 673.17,391.20 673.29,238.12 673.41,150.88 673.56,279.53 673.68,236.77 673.80,305.37 673.95,233.88 674.07,274.38 674.19,281.20 674.33,195.35 674.46,309.71 674.58,337.78 674.72,204.80 674.85,306.37 674.96,210.58 675.11,363.59 675.24,312.21 675.35,289.00 675.50,236.75 675.63,193.67 675.74,335.39 675.88,362.26 676.02,292.25 676.13,328.33 676.27,184.29 676.41,339.60 676.52,313.49 676.66,268.89 676.80,274.97 676.91,382.01 677.04,161.72 677.18,304.65 677.29,283.47 677.43,223.98 677.57,307.99 677.68,222.86 677.82,192.52 677.96,248.40 678.07,217.22 678.20,262.24 678.35,219.78 678.46,268.22 678.59,299.13 678.74,239.79 678.85,299.08 678.98,336.18 679.12,325.34 679.24,278.45 679.37,187.49 679.51,428.28 679.63,365.20 679.75,299.66 679.90,240.71 680.02,311.14 680.14,295.39 680.29,387.13 680.41,276.66 680.53,246.39 680.67,186.00 680.80,227.24 680.92,259.95 681.06,212.50 681.19,367.43 681.30,221.44 681.45,294.45 681.58,269.72 681.69,222.69 681.83,223.00 681.97,276.88 682.08,221.67 682.22,312.63 682.36,260.12 682.47,263.25 682.61,302.89 682.75,376.99 682.86,218.78 682.99,205.84 683.13,350.15 683.25,315.88 683.38,272.95 683.52,268.29 683.63,320.52 683.77,160.29 683.91,283.32 684.02,333.05 684.15,190.98 684.30,215.55 684.41,312.92 684.54,352.96 684.69,242.42 684.80,218.72 684.93,212.86 685.07,277.40 685.19,266.41 685.32,231.04 685.46,195.21 685.58,261.06 685.70,192.61 685.85,266.09 685.97,311.27 686.09,255.79 686.24,366.06 686.36,359.24 686.48,216.96 686.62,270.59 686.75,253.29 686.87,296.29 687.01,328.60 687.14,213.82 687.25,336.41 687.40,328.40 687.53,327.14 687.64,260.83 687.78,233.89 687.92,226.93 688.03,387.61 688.17,332.27 688.31,260.98 688.42,214.56 688.56,181.52 688.70,313.29 688.81,289.38 688.94,284.56 689.09,327.93 689.20,311.28 689.33,300.60 689.47,197.05 689.59,345.60 689.72,279.01 689.86,245.49 689.98,205.77 690.10,159.02 690.25,258.29 690.37,239.66 690.49,308.11 690.64,314.99 690.76,308.68 690.88,307.28 691.02,294.41 691.15,196.16 691.27,271.74 691.41,227.24 691.54,317.82 691.65,187.76 691.80,372.87 691.93,273.15 692.04,229.12 692.19,226.87 692.32,200.75 692.43,310.93 692.57,307.36 692.70,249.75 692.82,283.91 692.96,203.50 693.09,202.18 693.20,274.84 693.35,234.10 693.48,239.17 693.59,230.52 693.73,279.75 693.87,268.54 693.98,374.50 694.12,146.92 694.26,185.73 694.37,219.98 694.51,143.84 694.65,204.00 694.76,188.20 694.89,180.53 695.04,238.80 695.15,250.79 695.28,297.80 695.42,241.06 695.54,197.39 695.67,297.52 695.81,406.78 695.93,261.15 696.06,226.59 696.20,234.70 696.32,202.69 696.44,243.65 696.59,359.35 696.71,253.30 696.83,211.03 696.98,275.38 697.10,250.61 697.22,268.70 697.36,190.15 697.49,249.13 697.60,369.35 697.75,317.08 697.88,216.15 697.99,244.09 698.14,198.79 698.27,243.81 698.38,325.60 698.52,294.29 698.66,255.70 698.77,194.10 698.91,350.18 699.05,312.68 699.16,221.69 699.30,213.05 699.43,293.18 699.54,255.17 699.68,243.98 699.82,276.69 699.93,296.98 700.07,193.57 700.21,294.82 700.32,275.89 700.46,275.37 700.60,220.59 700.71,343.91 700.84,309.88 700.99,212.87 701.10,246.17 701.23,302.09 701.38,301.53 701.49,291.98 701.62,347.46 701.76,324.86 701.88,231.18 702.01,260.42 702.15,230.12 702.27,282.71 702.39,348.73 702.54,245.24 702.66,253.87 702.78,336.85 702.93,315.39 703.05,215.58 703.17,197.00 703.31,129.79 703.44,240.18 703.55,343.56 703.70,275.34 703.83,230.61 703.94,266.20 704.09,246.13 704.22,286.15 704.33,257.73 704.47,371.68 704.61,260.52 704.72,280.83 704.86,315.78 705.00,345.51 705.11,266.89 705.25,260.67 705.39,219.67 705.50,270.11 705.63,294.89 705.77,248.68 705.88,232.00 706.02,223.44 706.16,281.29 706.27,356.69 706.41,258.42 706.55,356.93 706.66,286.61 706.79,180.41 706.94,123.93 707.05,318.50 707.18,246.17 707.33,279.82 707.44,218.45 707.57,226.85 707.71,413.97 707.83,248.69 707.96,245.22 708.10,204.56 708.22,328.80 708.34,191.74 708.49,254.36 708.61,271.82 708.73,224.46 708.88,358.62 709.00,253.72 709.12,251.79 709.26,363.25 709.39,355.88 709.51,170.50 709.65,239.29 709.78,202.68 709.89,282.67 710.04,291.50 710.17,217.39 710.28,348.37 710.42,349.49 710.56,261.96 710.67,269.83 710.81,190.80 710.95,214.01 711.06,210.39 711.20,296.52 711.34,320.79 711.45,239.58 711.58,258.29 711.72,388.00 711.83,331.69 711.97,227.06 712.11,277.21 712.22,207.13 712.36,340.69 712.50,265.54 712.61,241.60 712.75,220.19 712.89,325.64 713.00,286.59 713.13,319.47 713.28,290.17 713.39,184.01 713.52,340.07 713.66,207.22 713.78,290.06 713.91,224.66 714.05,315.27 714.17,271.66 714.29,308.41 714.44,186.00 714.56,319.74 714.68,330.76 714.83,185.43 714.95,304.43 715.07,345.49 715.21,242.31 715.34,352.39 715.46,258.13 715.60,190.63 715.73,177.56 715.84,213.24 715.99,166.52 716.12,202.33 716.23,285.98 716.37,313.91 716.51,257.71 716.62,258.30 716.76,303.83 716.90,199.07 717.01,245.22 717.15,331.32 717.29,272.98 717.40,348.12 717.53,272.00 717.68,316.08 717.79,328.22 717.92,231.01 718.06,223.17 718.18,359.20 718.31,345.38 718.45,234.11 718.56,303.11 718.70,212.14 718.84,228.29 718.95,276.93 719.08,260.15 719.23,362.51 719.34,232.77 719.47,224.18 719.61,287.62 719.73,318.93 719.86,284.32 720.00,203.09 720.12,388.96 720.24,215.49 720.39,270.54 720.51,218.48 720.63,193.96 720.78,299.49 720.90,281.99 721.02,222.52 721.16,199.75 721.29,288.06 721.41,268.32 721.55,304.05 721.68,360.04 721.79,308.25 721.94,271.23 722.07,217.49 722.18,327.37 722.32,343.59 722.46,211.66 722.57,209.56 722.71,224.74 722.85,292.71 722.96,230.89 723.10,280.50 723.24,220.38 723.35,256.52 723.49,185.75 723.63,287.87 723.74,361.42 723.87,251.97 724.01,345.87 724.13,274.74 724.26,209.06 724.40,173.66 724.52,322.08 724.65,328.38 724.79,251.59 724.91,331.69 725.03,226.64 725.18,213.86 725.30,262.60 725.42,175.25 725.57,291.82 725.69,317.99 725.81,286.41 725.95,304.71 726.08,296.80 726.19,203.95 726.34,377.59 726.47,242.50 726.58,307.14 726.73,319.73 726.86,318.74 726.97,262.75 727.11,310.30 727.24,218.46 727.36,355.60 727.50,362.11 727.63,229.15 727.75,289.45 727.89,193.49 728.02,296.94 728.13,258.49 728.28,286.81 728.41,325.96 728.52,232.36 728.66,214.45 728.80,236.18 728.91,168.60 729.05,252.88 729.19,223.03 729.30,253.00 729.44,305.15 729.58,227.71 729.69,290.05 729.82,221.79 729.97,302.15 730.08,178.47 730.21,339.95 730.35,358.48 730.47,356.03 730.60,308.09 730.74,262.48 730.86,270.23 730.98,201.92 731.13,199.82 731.25,316.41 731.37,208.92 731.52,273.14 731.64,209.65 731.76,345.15 731.90,382.81 732.03,303.76 732.15,298.96 732.29,405.33 732.42,309.74 732.53,199.95 732.68,185.34 732.81,291.84 732.92,213.63 733.06,236.02 733.20,322.19 733.31,312.87 733.45,151.49 733.59,262.69 733.70,299.13 733.84,304.04 733.97,282.32 734.08,187.33 734.23,190.96 734.36,268.61 734.47,222.52 734.61,176.91 734.75,232.89 734.86,188.11 735.00,275.32 735.14,243.79 735.25,285.61 735.39,217.96 735.53,318.75 735.64,219.88 735.77,353.44 735.92,270.43 736.03,312.97 736.16,210.01 736.30,221.58 736.42,209.66 736.55,260.94 736.69,267.25 736.81,318.95 736.93,228.42 737.08,213.03 737.20,260.91 737.32,341.91 737.47,287.38 737.59,256.45 737.71,340.18 737.85,254.98 737.98,229.01 738.10,219.79 738.24,191.91 738.37,198.33 738.48,280.39 738.63,235.25 738.76,319.91 738.87,292.09 739.02,207.94 739.15,196.10 739.26,183.07 739.40,308.50 739.54,335.46 739.65,326.28 739.79,202.50 739.93,293.01 740.04,219.18 740.18,306.32 740.31,278.43 740.42,304.08 740.56,223.03 740.70,192.17 740.81,203.63 740.95,182.24 741.09,276.70 741.20,202.04 741.34,305.18 741.48,295.68 741.59,273.31 741.72,299.50 741.87,337.45 741.98,211.29 742.11,302.05 742.25,261.26 742.37,306.87 742.50,174.82 742.64,265.63 742.76,310.68 742.88,217.68 743.03,226.37 743.15,330.58 743.27,329.51 743.42,221.18 743.54,229.89 743.66,285.90 743.80,320.01 743.93,278.20 744.05,335.34 744.19,284.64 744.32,190.36 744.43,288.40 744.58,215.08 744.71,203.57 744.82,255.18 744.97,267.45 745.10,290.15 745.21,189.61 745.35,290.59 745.49,285.57 745.60,197.50 745.74,245.20 745.88,230.63 745.99,197.77 746.13,311.54 746.27,286.61 746.38,368.42 746.51,172.96 746.65,268.24 746.76,242.93 746.90,214.75 747.04,225.44 747.15,373.05 747.29,218.48 747.43,287.36 747.54,245.43 747.67,193.28 747.82,296.39 747.93,274.19 748.06,225.06 748.21,289.39 748.32,214.42 748.45,273.48 748.59,312.32 748.71,412.26 748.83,355.77 748.98,220.11 749.10,376.73 749.22,293.63 749.37,317.19 749.49,314.69 749.61,253.39 749.75,195.68 749.88,321.89 750.00,294.41 750.14,277.33 750.27,308.85 750.38,343.27 750.53,271.95 750.66,204.59 750.77,300.28 750.92,213.28 751.05,221.45 751.16,250.20 751.30,235.96 751.44,230.17 751.55,250.35 751.69,190.54 751.83,289.79 751.94,290.62 752.08,251.85 752.22,399.74 752.33,277.46 752.46,323.27 752.60,216.81 752.72,264.09 752.85,264.06 752.99,238.97 753.10,304.23 753.24,320.58 753.38,212.65 753.49,181.69 753.62,185.03 753.77,175.57 753.88,307.64 754.01,308.79 754.16,213.27 754.27,217.07 754.40,274.84 754.54,173.82 754.66,291.95 754.79,211.43 754.93,180.49 755.05,374.25 755.17,344.01 755.32,290.41 755.44,227.44 755.56,283.56 755.71,328.55 755.83,220.21 755.95,232.19 756.09,348.92 756.22,308.73 756.34,294.21 756.48,183.38 756.61,302.93 756.72,199.24 756.87,206.46 757.00,238.23 757.11,302.08 757.25,180.39 757.39,215.29 757.50,301.76 757.64,241.48 757.78,311.19 757.89,242.68 758.03,177.85 758.17,222.60 758.28,267.66 758.41,265.63 758.56,227.81 758.67,290.35 758.80,181.10 758.94,216.27 759.06,329.73 759.19,377.55 759.33,185.85 759.45,296.45 759.57,242.45 759.72,320.34 759.83,254.56 759.96,292.43 760.11,188.74 760.22,163.69 760.35,231.82 760.49,343.55 760.61,224.00 760.74,282.27 760.88,296.13 761.01,317.12 761.12,190.10 761.27,382.23 761.40,289.33 761.51,389.08 761.66,199.57 761.78,202.17 761.90,197.86 762.04,274.78 762.17,322.91 762.29,331.19 762.43,257.62 762.56,279.25 762.67,325.88 762.82,310.86 762.95,248.21 763.06,327.98 763.20,197.18 763.34,209.84 763.45,252.87 763.59,218.59 763.73,223.25 763.84,280.64 763.98,288.13 764.12,186.60 764.23,277.66 764.36,209.97 764.51,232.79 764.62,216.26 764.75,298.10 764.89,311.70 765.01,279.02 765.14,344.98 765.28,284.95 765.40,197.09 765.52,349.71 765.67,279.85 765.79,266.78 765.91,278.62 766.06,266.99 766.18,339.99 766.30,208.42 766.44,246.98 766.57,241.50 766.69,298.66 766.83,327.89 766.96,309.40 767.07,282.20 767.22,354.16 767.35,245.12 767.46,230.06 767.61,329.49 767.74,385.53 767.85,270.15 767.99,383.14 768.13,261.24 768.24,326.62 768.38,343.66 768.51,347.15 768.63,294.31 768.77,259.26 768.90,266.11 769.01,212.95 769.15,294.84 769.29,256.51 769.40,242.76 769.54,221.50 769.68,174.19 769.79,245.36 769.93,288.96 770.07,307.54 770.18,261.65 770.31,187.83 770.46,275.48 770.57,349.77 770.70,245.44 770.84,293.24 770.96,307.32 771.09,245.91 771.23,318.44 771.35,284.64 771.48,244.10 771.62,357.90 771.74,249.77 771.86,201.97 772.01,251.01 772.13,292.17 772.25,247.80 772.40,190.77 772.52,189.17 772.64,341.13 772.78,368.88 772.91,349.43 773.02,314.98 773.17,224.70 773.30,240.60 773.41,347.64 773.56,288.98 773.69,362.43 773.80,285.16 773.94,170.98 774.08,294.08 774.19,179.07 774.33,349.67 774.47,210.51 774.58,277.30 774.72,220.83 774.85,283.38 774.96,269.52 775.10,285.29 775.24,284.59 775.35,229.62 775.49,176.16 775.63,281.54 775.74,278.78 775.88,268.75 776.02,201.81 776.13,232.10 776.26,257.50 776.41,265.90 776.52,218.85 776.65,387.79 776.80,273.16 776.91,291.40 777.04,180.52 777.18,275.83 777.30,365.52 777.43,336.61 777.57,333.60 777.69,260.41 777.81,195.37 777.96,276.12 778.08,188.47 778.20,285.23 778.35,300.04 778.47,244.96 778.59,262.48 778.73,264.16 778.86,353.04 778.98,270.77 779.12,182.75 779.25,236.27 779.36,372.91 779.51,222.38 779.64,377.84 779.75,266.74 779.89,301.15 780.03,258.14 780.14,268.75 780.28,273.43 780.42,323.13 780.53,269.82 780.67,199.17 780.81,329.30 780.92,249.18 781.05,272.45 781.19,202.23 781.30,185.53 781.44,346.77 781.58,266.31 781.69,281.78 781.83,321.11 781.97,213.09 782.08,343.66 782.21,366.35 782.36,200.44 782.47,234.32 782.60,186.26 782.75,241.88 782.86,351.82 782.99,242.34 783.13,306.40 783.25,249.52 783.38,295.29 783.52,295.40 783.64,298.99 783.76,305.04 783.91,346.10 784.03,212.89 784.15,265.62 784.30,230.15 784.42,378.87 784.54,374.47 784.68,301.02 784.81,193.11 784.93,243.70 785.07,186.93 785.20,384.47 785.31,293.06 785.46,191.08 785.59,367.52 785.70,268.88 785.84,225.10 785.98,345.59 786.09,300.95 786.23,272.87 786.37,219.15 786.48,357.45 786.62,167.24 786.76,203.32 786.87,226.47 787.00,177.63 787.15,206.16 787.26,220.78 787.39,323.46 787.53,316.38 787.64,297.69 787.78,270.34 787.92,221.03 788.03,244.94 788.17,183.35 788.31,282.23 788.42,224.10 788.55,290.53 788.70,361.01 788.81,206.94 788.94,185.99 789.08,276.50 789.20,282.62 789.33,212.75 789.47,264.52 789.59,203.88 789.71,223.25 789.86,332.97 789.98,356.40 790.10,222.07 790.25,339.95 790.37,244.83 790.49,300.11 790.63,322.05 790.76,253.86 790.88,183.73 791.02,201.75 791.15,239.94 791.26,255.43 791.41,355.77 791.54,180.43 791.65,225.93 791.79,209.44 791.93,213.00 792.04,344.68 792.18,379.63 792.32,274.75 792.43,211.41 792.57,238.70 792.71,232.79 792.82,223.36 792.95,197.48 793.10,295.67 793.21,266.93 793.34,235.15 793.48,310.58 793.60,175.10 793.73,189.82 793.87,326.37 793.99,289.81 794.12,207.69 794.26,233.29 794.37,278.37 794.50,358.76 794.65,213.98 794.76,234.31 794.89,356.16 795.04,190.32 795.15,218.13 795.28,245.79 795.42,282.96 795.54,244.03 795.66,285.49 795.81,208.19 795.93,265.67 796.05,272.15 796.20,311.01 796.32,300.90 796.44,348.72 796.58,193.68 796.71,312.54 796.83,179.88 796.97,258.79 797.10,268.18 797.22,174.58 797.36,217.74 797.49,235.22 797.60,285.49 797.74,259.21 797.88,374.17 797.99,281.57 798.13,268.83 798.27,242.28 798.38,232.81 798.52,216.84 798.66,250.17 798.77,251.87 798.91,180.08 799.05,297.20 799.16,336.35 799.29,274.08 799.44,253.00 799.55,277.13 799.68,220.88 799.82,271.07 799.94,255.76 800.07,205.46 800.21,333.18 800.33,185.54 800.45,274.27 800.60,265.37 800.72,313.19 800.84,230.24 800.99,212.74 801.11,194.25 801.23,215.77 801.37,154.91 801.50,349.87 801.61,290.53 801.76,157.06 801.89,317.40 802.00,306.23 802.15,397.37 802.28,345.62 802.39,193.64 802.53,317.98 802.67,181.07 802.78,265.93 802.92,376.34 803.05,198.54 803.17,252.37 803.31,253.69 803.44,250.41 803.55,324.00 803.69,233.99 803.83,253.33 803.94,274.26 804.08,247.61 804.22,242.87 804.33,297.40 804.47,259.88 804.61,257.85 804.72,295.83 804.86,193.58 805.00,321.80 805.11,213.86 805.24,306.88 805.39,205.73 805.50,269.65 805.63,221.66 805.77,220.57 805.89,235.04 806.02,292.74 806.16,289.18 806.28,191.96 806.40,224.04 806.55,239.03 806.67,361.35 806.79,314.45 806.94,270.09 807.06,255.15 807.18,247.26 807.32,248.43 807.45,310.83 807.57,291.40 807.71,219.20 807.84,225.73 807.95,283.61 808.10,198.11 808.23,324.02 808.34,358.47 808.48,327.20 808.62,362.70 808.73,249.93 808.87,223.57 809.01,290.24 809.12,214.95 809.26,242.06 809.39,205.47 809.51,302.71 809.65,329.11 809.78,151.41 809.89,264.95 810.03,358.49 810.17,209.64 810.28,275.73 810.42,244.64 810.56,244.98 810.67,204.26 810.81,347.60 810.95,211.51 811.06,246.53 811.19,190.74 811.34,286.58 811.45,283.02 811.58,225.19 811.72,282.78 811.84,221.54 811.97,338.83 812.11,280.88 812.23,283.19 812.35,210.92 812.50,278.85 812.62,337.17 812.74,264.52 812.89,284.31 813.01,239.10 813.13,252.92 813.27,382.34 813.40,260.08 813.52,304.04 813.66,216.68 813.79,241.43 813.90,294.74 814.05,185.26 814.18,311.78 814.29,296.28 814.43,209.96 814.57,226.86 814.68,287.69 814.82,303.49 814.96,304.90 815.07,291.16 815.21,261.17 815.35,236.05 815.46,280.98 815.60,210.36 815.73,386.03 815.84,233.64 815.98,210.24 816.12,296.42 816.23,273.11 816.37,194.87 816.51,298.23 816.62,276.61 816.76,265.39 816.90,319.88 817.01,308.85 817.14,316.16 817.29,367.02 817.40,270.48 817.53,210.77 817.68,205.70 817.79,372.59 817.92,185.47 818.06,193.53 818.18,284.09 818.30,358.45 818.45,215.28 818.57,319.22 818.69,338.09 818.84,204.17 818.96,241.65 819.08,301.37 819.22,208.00 819.35,248.68 819.47,269.25 819.61,331.61 819.74,239.91 819.85,376.34 820.00,268.82 820.13,396.60 820.24,304.72 820.39,222.11 820.52,237.57 820.63,243.42 820.77,211.39 820.91,222.64 821.02,258.50 821.16,315.35 821.30,368.59 821.41,321.37 821.55,256.67 821.69,173.51 821.80,301.10 821.93,303.85 822.07,222.59 822.18,199.92 822.32,281.19 822.46,329.61 822.57,257.40 822.71,219.14 822.85,335.14 822.96,199.13 823.09,298.62 823.24,260.08 823.35,312.44 823.48,303.08 823.63,259.12 823.74,218.91 823.87,172.32 824.01,191.23 824.13,238.81 824.26,312.60 824.40,206.14 824.52,271.86 824.64,205.09 824.79,325.84 824.91,292.93 825.03,284.27 825.17,265.10 825.30,357.15 825.42,224.12 825.56,289.68 825.69,314.10 825.81,233.55 825.95,166.51 826.08,269.58 826.19,354.77 826.34,189.47 826.47,298.70 826.58,355.72 826.72,209.16 826.86,253.96 826.97,335.62 827.11,227.12 827.25,234.83 827.36,375.71 827.50,214.24 827.64,329.00 827.75,224.50 827.88,262.62 828.02,392.52 828.14,263.74 828.27,244.31 828.41,217.51 828.53,294.30 828.66,313.20 828.80,338.94 828.91,216.97 829.04,367.24 829.19,209.61 829.30,231.61 829.43,275.71 829.58,311.54 829.69,187.41 829.82,221.06 829.96,302.01 830.08,361.34 830.21,333.86 830.35,273.01 830.47,211.37 830.59,311.78 830.74,331.98 830.86,355.17 830.98,215.07 831.13,258.53 831.25,347.05 831.37,273.06 831.51,245.76 831.64,253.66 831.76,339.31 831.90,223.17 832.03,301.32 832.14,353.17 832.29,158.07 832.42,283.90 832.53,367.83 832.67,170.03 832.81,300.75 832.92,318.28 833.06,254.44 833.20,203.43 833.31,379.76 833.45,243.91 833.59,233.33 833.70,225.57 833.83,237.62 833.98,348.55 834.09,306.58 834.22,171.20 834.36,290.00 834.48,287.06 834.61,330.93 834.75,196.95 834.87,333.77 834.99,179.41 835.14,259.15 835.26,308.02 835.38,368.30 835.53,309.12 835.65,267.92 835.77,400.41 835.91,329.58 836.04,228.50 836.16,334.59 836.30,299.60 836.43,358.91 836.54,308.70 836.69,256.15 836.82,194.58 836.93,264.18 837.08,332.16 837.21,227.38 837.32,339.35 837.46,170.84 837.60,358.20 837.71,242.41 837.85,231.16 837.98,253.50 838.09,276.12 838.24,353.76 838.37,287.43 838.48,255.76 838.62,309.29 838.76,320.05 838.87,219.04 839.01,266.26 839.15,238.15 839.26,344.87 839.40,260.28 839.54,201.22 839.65,200.02 839.78,234.67 839.93,180.15 840.04,284.47 840.17,217.31 840.31,215.52 840.43,230.51 840.56,172.13 840.70,403.51 840.82,281.85 840.94,267.35 841.09,231.58 841.21,279.63 841.33,342.93 841.48,221.10 841.60,200.58 841.72,247.18 841.86,290.96 841.99,225.91 842.11,183.20 842.25,331.45 842.38,330.61 842.49,256.46 842.64,322.02 842.77,246.90 842.88,373.65 843.03,291.55 843.16,209.60 843.27,278.70 843.41,252.22 843.55,208.92 843.66,239.84 843.80,323.12 843.94,276.91 844.05,329.62 844.19,262.14 844.32,195.94 844.43,278.97 844.57,223.14 844.71,290.62 844.82,228.44 844.96,221.65 845.10,226.42 845.21,261.20 845.35,261.46 845.49,287.90 845.60,207.29 845.73,217.92 845.88,370.63 845.99,194.29 846.12,279.39 846.27,197.39 846.38,174.05 846.51,279.79 846.65,354.61 846.77,282.60 846.90,226.53 847.04,188.99 847.16,317.67 847.28,245.04 847.43,334.01 847.55,210.01 847.67,357.75 847.82,271.32 847.94,348.44 848.06,233.25 848.20,371.54 848.33,181.34 848.44,215.52 848.59,170.80 848.72,283.00 848.83,254.61 848.98,281.80 849.11,267.42 849.22,239.20 849.36,399.63 849.50,220.50 849.61,347.15 849.75,238.45 849.89,269.07 850.00,337.70 850.14,363.10 850.28,303.83 850.39,271.35 850.52,296.81 850.66,316.00 850.77,362.21 850.91,226.39 851.05,255.24 851.16,204.30 851.30,286.55 851.44,277.35 851.55,209.66 851.68,263.52 851.83,247.41 851.94,268.36 852.07,319.58 852.22,267.19 852.33,246.11 852.46,169.74 852.60,385.46 852.72,210.63 852.85,308.70 852.99,329.34 853.11,190.73 853.23,327.52 853.38,266.24 853.50,258.63 853.62,269.77 853.77,336.65 853.89,268.71 854.01,263.93 854.15,367.33 854.28,278.74 854.40,243.92 854.54,188.32 854.67,252.78 854.78,331.95 854.93,192.13 855.06,207.01 855.17,183.84 855.31,205.64 855.45,289.00 855.56,246.83 855.70,226.30 855.84,312.52 855.95,368.23 856.09,217.62 856.23,219.57 856.34,243.75 856.47,233.71 856.61,247.89 856.73,342.82 856.86,274.25 857.00,292.92 857.11,273.02 857.25,292.74 857.39,205.68 857.50,326.88 857.63,327.38 857.78,389.68 857.89,276.73 858.02,246.01 858.17,259.94 858.28,364.89 858.41,234.03 858.55,352.97 858.67,263.46 858.80,304.05 858.94,262.10 859.06,213.15 859.18,195.51 859.33,189.96 859.45,148.53 859.57,325.21 859.72,189.80 859.84,325.39 859.96,284.31 860.10,343.10 860.23,288.43 860.35,281.52 860.49,271.86 860.62,290.18 860.73,153.33 860.88,388.10 861.01,252.73 861.12,288.18 861.26,298.14 861.40,269.76 861.51,241.14 861.65,176.73 861.79,328.67 861.90,230.76 862.04,346.49 862.18,289.70 862.29,167.15 862.42,269.67 862.57,221.90 862.68,361.30 862.81,349.32 862.95,356.29 863.07,336.99 863.20,243.04 863.34,306.93 863.45,297.95 863.59,216.32 863.73,209.32 863.84,243.54 863.97,252.99 864.12,197.91 864.23,284.06 864.36,213.60 864.50,228.89 864.62,307.52 864.75,316.64 864.89,326.21 865.01,233.17 865.13,195.30 865.28,284.63 865.40,250.83 865.52,244.47 865.67,243.36 865.79,310.47 865.91,307.79 866.05,256.93 866.18,241.85 866.30,228.34 866.44,369.22 866.57,262.27 866.68,295.38 866.83,259.38 866.96,291.47 867.07,281.19 867.21,218.98 867.35,175.22 867.46,263.94 867.60,306.66 867.74,183.41 867.85,220.27 867.99,289.04 868.13,245.53 868.24,178.27 868.37,180.11 868.52,270.87 868.63,255.85 868.76,342.61 868.90,355.29 869.02,341.24 869.15,209.00 869.29,268.93 869.41,264.12 869.54,303.40 869.68,363.55 869.80,186.95 869.92,291.45 870.07,229.17 870.19,242.22 870.31,214.60 870.46,277.53 870.58,295.50 870.70,331.39 870.84,269.85 870.97,229.18 871.08,342.51 871.23,268.48 871.36,243.03 871.47,376.84 871.62,377.75 871.75,250.64 871.86,194.48 872.00,220.70 872.14,334.21 872.25,317.30 872.39,289.52 872.52,347.64 872.64,355.93 872.78,258.93 872.91,181.27 873.02,325.00 873.16,201.58 873.30,237.15 873.41,222.55 873.55,366.43 873.69,201.29 873.80,277.65 873.94,299.26 874.08,272.36 874.19,287.44 874.33,208.61 874.47,301.25 874.58,224.27 874.71,351.01 874.86,184.35 874.97,234.32 875.10,248.19 875.24,207.62 875.36,230.79 875.49,337.76 875.63,307.55 875.75,316.14 875.87,242.97 876.02,168.22 876.14,244.70 876.26,221.23 876.41,241.69 876.53,297.81 876.65,379.78 876.79,269.69 876.92,223.13 877.04,363.88 877.18,276.86 877.31,323.28 877.42,226.99 877.57,203.66 877.70,207.87 877.81,246.29 877.95,307.20 878.09,352.03 878.20,360.08 878.34,235.81 878.48,334.83 878.59,216.59 878.73,213.37 878.86,325.76 878.97,314.82 879.11,266.69 879.25,316.27 879.36,212.86 879.50,246.25 879.64,210.74 879.75,352.22 879.89,327.41 880.03,273.65 880.14,207.33 880.28,188.59 880.42,381.26 880.53,367.61 880.66,230.77 880.81,287.18 880.92,231.02 881.05,303.90 881.19,251.72 881.31,272.93 881.44,275.03 881.58,306.15 881.70,270.73 881.82,225.30 881.97,262.41 882.09,239.36 882.21,229.95 882.36,308.01 882.48,304.29 882.60,255.62 882.74,199.25 882.87,251.65 882.99,366.76 883.13,229.85 883.26,302.32 883.37,183.46 883.52,286.23 883.65,318.90 883.76,233.67 883.90,327.29 884.04,262.47 884.15,257.70 884.29,290.07 884.43,238.49 884.54,271.82 884.68,213.84 884.82,255.97 884.93,288.51 885.07,256.50 885.20,313.30 885.31,328.34 885.45,244.27 885.59,228.42 885.70,327.15 885.84,250.47 885.98,274.31 886.09,270.27 886.23,189.33 886.37,240.23 886.48,231.75 886.61,228.55 886.76,331.33 886.87,251.96 887.00,188.02 887.14,358.91 887.26,277.55 887.39,227.28 887.53,212.91 887.65,231.70 887.77,328.59 887.92,281.34 888.00,305.86" fill="none" stroke="#000" stroke-width="1.5" opacity="0.9"/>
<text x="500.0" y="502" font-family="Times New Roman" font-size="19" text-anchor="middle">Julian Date</text>
<text transform="translate(18,247.0) rotate(-90)" font-family="Times New Roman" font-size="19" text-anchor="middle">position residual (km)</text>
</svg>
