<svg xmlns="http://www.w3.org/2000/svg" width="920" height="520" viewBox="0 0 920 520">
<rect width="100%" height="100%" fill="white"/>
<text x="460.0" y="24" font-family="Times New Roman" font-size="24" text-anchor="middle">Neptune native velocity residual</text>
<line x1="112" y1="434" x2="888" y2="434" stroke="#333"/>
<line x1="112" y1="60" x2="112" y2="434" stroke="#333"/>
<line x1="112" y1="434.00" x2="888" y2="434.00" stroke="#ddd"/>
<text x="104" y="438.00" font-family="Times New Roman" font-size="17" text-anchor="end">0</text>
<line x1="112" y1="340.50" x2="888" y2="340.50" stroke="#ddd"/>
<text x="104" y="344.50" font-family="Times New Roman" font-size="17" text-anchor="end">0.797</text>
<line x1="112" y1="247.00" x2="888" y2="247.00" stroke="#ddd"/>
<text x="104" y="251.00" font-family="Times New Roman" font-size="17" text-anchor="end">1.594</text>
<line x1="112" y1="153.50" x2="888" y2="153.50" stroke="#ddd"/>
<text x="104" y="157.50" font-family="Times New Roman" font-size="17" text-anchor="end">2.391</text>
<line x1="112" y1="60.00" x2="888" y2="60.00" stroke="#ddd"/>
<text x="104" y="64.00" font-family="Times New Roman" font-size="17" text-anchor="end">3.188</text>
<line x1="112.00" y1="434" x2="112.00" y2="439" stroke="#333"/>
<text x="112.00" y="456" font-family="Times New Roman" font-size="17" text-anchor="middle">2378495</text>
<line x1="306.00" y1="434" x2="306.00" y2="439" stroke="#333"/>
<text x="306.00" y="456" font-family="Times New Roman" font-size="17" text-anchor="middle">2433282</text>
<line x1="500.00" y1="434" x2="500.00" y2="439" stroke="#333"/>
<text x="500.00" y="456" font-family="Times New Roman" font-size="17" text-anchor="middle">2488070</text>
<line x1="694.00" y1="434" x2="694.00" y2="439" stroke="#333"/>
<text x="694.00" y="456" font-family="Times New Roman" font-size="17" text-anchor="middle">2542858</text>
<line x1="888.00" y1="434" x2="888.00" y2="439" stroke="#333"/>
<text x="888.00" y="456" font-family="Times New Roman" font-size="17" text-anchor="middle">2597645</text>
<polyline points="112.00,399.87 112.00,399.87 112.00,399.86 112.00,399.86 112.01,399.85 112.01,399.85 112.01,399.84 112.02,399.83 112.02,399.82 112.03,399.81 112.04,399.80 112.05,399.80 112.06,399.79 112.07,399.80 112.08,399.80 112.09,399.82 112.10,399.84 112.11,399.85 112.12,399.88 112.13,399.93 112.15,399.98 112.17,400.06 112.18,400.14 112.20,400.24 112.22,400.37 112.24,400.51 112.26,400.67 112.28,400.86 112.30,401.08 112.32,401.32 112.34,401.59 112.37,401.89 112.39,402.22 112.42,402.59 112.44,402.99 112.47,403.43 112.50,403.91 112.53,404.42 112.55,404.97 112.58,405.57 112.61,406.20 112.65,406.88 112.68,407.60 112.71,408.35 112.74,409.15 112.78,409.97 112.81,410.83 112.85,411.71 112.88,412.61 112.92,413.52 112.96,414.43 112.98,414.89 113.01,415.78 113.05,416.65 113.09,417.48 113.13,418.25 113.17,418.94 113.22,419.53 113.26,419.99 113.30,420.32 113.34,420.48 113.39,420.47 113.43,420.30 113.48,419.97 113.52,419.50 113.57,418.92 113.62,418.24 113.66,417.50 113.71,416.72 113.76,415.92 113.81,415.12 113.86,414.34 113.91,413.59 113.96,412.90 114.01,412.27 114.06,411.71 114.12,411.25 114.17,410.89 114.22,410.64 114.28,410.51 114.33,410.49 114.39,410.59 114.44,410.81 114.50,411.15 114.55,411.60 114.58,411.87 114.64,412.48 114.70,413.17 114.75,413.93 114.81,414.74 114.87,415.58 114.93,416.41 114.99,417.19 115.05,417.88 115.11,418.41 115.17,418.73 115.23,418.81 115.29,418.61 115.35,418.14 115.41,417.42 115.47,416.48 115.53,415.37 115.60,414.15 115.66,412.86 115.72,411.55 115.78,410.26 115.85,409.04 115.91,407.92 115.98,406.93 116.04,406.09 116.10,405.41 116.17,404.92 116.23,404.63 116.30,404.55 116.36,404.70 116.43,405.08 116.49,405.69 116.56,406.53 116.62,407.59 116.66,408.20 116.72,409.57 116.79,411.12 116.85,412.80 116.92,414.57 116.99,416.37 117.05,418.13 117.12,419.74 117.18,421.05 117.25,421.88 117.32,422.08 117.38,421.59 117.45,420.51 117.52,419.00 117.58,417.24 117.65,415.36 117.71,413.47 117.78,411.66 117.85,409.99 117.91,408.50 117.98,407.23 118.04,406.23 118.11,405.53 118.18,405.15 118.24,405.10 118.31,405.39 118.37,406.02 118.44,406.99 118.50,408.28 118.57,409.90 118.63,411.82 118.70,414.00 118.76,416.42 118.82,419.03 118.86,420.39 118.92,423.12 118.98,425.69 119.05,427.62 119.11,428.04 119.17,426.61 119.23,424.09 119.30,421.17 119.36,418.14 119.42,415.14 119.48,412.28 119.54,409.60 119.60,407.17 119.66,405.01 119.72,403.16 119.78,401.66 119.84,400.51 119.90,399.74 119.96,399.34 120.02,399.30 120.08,399.61 120.13,400.23 120.19,401.14 120.25,402.27 120.30,403.56 120.36,404.95 120.41,406.32 120.47,407.56 120.52,408.55 120.58,409.16 120.63,409.32 120.68,408.97 120.74,408.13 120.79,406.90 120.81,406.16 120.86,404.52 120.91,402.77 120.96,401.01 121.01,399.34 121.06,397.85 121.11,396.59 121.16,395.63 121.21,395.01 121.25,394.76 121.30,394.89 121.34,395.41 121.39,396.32 121.43,397.58 121.48,399.16 121.52,401.02 121.56,403.07 121.61,405.22 121.65,407.34 121.69,409.28 121.73,410.85 121.77,411.83 121.81,412.07 121.84,411.50 121.88,410.16 121.92,408.21 121.95,405.84 121.99,403.21 122.02,400.49 122.06,397.78 122.09,395.18 122.12,392.75 122.15,390.54 122.19,388.60 122.20,387.74 122.23,386.22 122.26,385.00 122.29,384.06 122.32,383.39 122.34,382.96 122.37,382.73 122.40,382.66 122.42,382.69 122.44,382.77 122.47,382.85 122.49,382.86 122.51,382.74 122.53,382.46 122.55,381.96 122.57,381.23 122.59,380.25 122.61,379.03 122.63,377.57 122.64,375.91 122.66,374.07 122.67,372.08 122.69,369.99 122.70,367.84 122.71,365.65 122.72,363.47 122.73,361.32 122.74,359.24 122.75,357.25 122.76,355.36 122.77,353.61 122.78,352.00 122.78,350.56 122.79,349.29 122.79,348.73 122.79,347.74 122.80,346.96 122.80,346.37 122.80,346.00 122.80,345.84 122.80,177.12 122.80,178.89 122.80,186.66 122.81,200.25 122.82,218.96 122.83,241.86 122.84,267.70 122.86,294.98 122.88,321.85 122.90,345.85 122.93,363.73 122.95,372.04 122.98,370.59 123.02,363.81 123.05,356.50 123.09,351.48 123.13,350.06 123.17,352.62 123.22,359.05 123.27,368.81 123.32,381.03 123.37,394.34 123.43,406.11 123.49,410.60 123.55,404.17 123.61,392.74 123.68,381.05 123.75,370.98 123.78,366.83 123.85,360.59 123.93,357.29 124.01,356.95 124.09,359.44 124.17,364.44 124.25,371.54 124.34,380.24 124.43,389.96 124.52,399.96 124.62,409.27 124.71,416.18 124.81,418.10 124.92,414.95 125.02,410.00 125.13,405.41 125.24,401.98 125.35,399.99 125.46,399.45 125.58,400.22 125.69,401.95 125.81,404.21 125.94,406.46 126.06,408.14 126.19,408.92 126.32,408.79 126.45,408.15 126.58,407.63 126.72,407.77 126.85,408.96 126.99,411.37 127.13,414.96 127.28,419.43 127.35,421.71 127.50,424.82 127.64,423.01 127.79,417.45 127.95,410.98 128.10,404.89 128.26,399.91 128.42,396.55 128.57,395.06 128.74,395.58 128.90,398.04 129.06,402.11 129.23,407.02 129.40,411.25 129.57,412.56 129.74,409.68 129.91,403.96 130.09,397.54 130.27,391.86 130.44,387.77 130.62,385.87 130.80,386.31 130.99,388.93 131.17,393.22 131.36,398.18 131.54,402.14 131.73,403.12 131.92,400.36 132.11,395.14 132.30,389.44 132.50,384.77 132.69,382.03 132.89,381.74 133.08,383.93 133.18,385.85 133.38,390.83 133.58,396.42 133.78,401.01 133.98,402.93 134.18,401.74 134.39,398.74 134.59,395.85 134.80,394.38 135.00,395.00 135.21,397.85 135.42,402.54 135.63,407.99 135.83,412.44 136.04,413.58 136.26,410.81 136.47,406.08 136.68,401.42 136.89,397.99 137.10,396.18 137.32,395.99 137.53,397.08 137.75,398.89 137.96,400.64 138.18,401.61 138.39,401.37 138.61,400.03 138.82,397.99 139.04,395.90 139.26,394.30 139.47,393.54 139.69,393.84 139.91,395.35 140.12,398.02 140.23,399.75 140.45,403.86 140.67,408.56 140.88,413.23 141.10,416.80 141.32,417.95 141.54,416.21 141.75,412.71 141.97,408.79 142.19,405.41 142.40,403.06 142.62,401.97 142.83,402.24 143.05,403.89 143.26,406.67 143.48,410.32 143.69,414.46 143.91,418.45 144.12,421.37 144.33,422.38 144.54,421.42 144.75,419.55 144.96,417.67 145.17,416.31 145.38,415.63 145.59,415.52 145.80,415.75 146.01,416.13 146.21,416.38 146.42,416.39 146.62,416.26 146.83,416.22 147.03,416.48 147.23,417.21 147.33,417.80 147.53,419.42 147.73,421.51 147.93,423.71 148.12,425.49 148.32,426.04 148.51,425.03 148.71,423.10 148.90,421.01 149.09,419.21 149.28,417.83 149.47,416.95 149.65,416.55 149.84,416.60 150.02,417.02 150.21,417.88 150.39,419.26 150.57,421.20 150.74,423.73 150.92,426.65 151.09,428.61 151.27,426.83 151.44,422.27 151.61,416.84 151.78,411.40 151.95,406.51 152.11,402.58 152.27,399.94 152.43,398.91 152.59,399.60 152.75,401.96 152.91,405.72 153.06,410.29 153.21,414.47 153.29,415.76 153.44,415.42 153.59,411.38 153.73,405.53 153.88,399.59 154.02,394.59 154.16,391.21 154.29,389.85 154.43,390.66 154.56,393.63 154.69,398.57 154.82,404.97 154.95,411.88 155.07,417.16 155.20,417.27 155.32,411.97 155.43,404.67 155.55,397.59 155.66,391.82 155.77,387.97 155.88,386.34 155.99,387.03 156.09,389.85 156.20,394.34 156.29,399.65 156.39,404.28 156.49,406.14 156.58,403.78 156.67,398.07 156.76,390.99 156.84,384.16 156.92,378.66 157.00,375.17 157.08,374.09 157.12,374.51 157.19,377.29 157.26,382.45 157.33,389.51 157.40,397.53 157.46,404.68 157.52,407.85 157.58,404.63 157.64,396.81 157.69,387.50 157.74,378.60 157.79,371.11 157.84,365.49 157.88,361.74 157.92,359.38 157.96,357.38 157.99,354.26 158.03,348.36 158.06,338.51 158.08,324.50 158.11,307.00 158.13,287.14 158.15,266.21 158.17,245.46 158.18,226.03 158.19,208.93 158.20,195.00 158.21,184.91 158.21,179.15 158.21,177.84 158.21,225.26 158.21,227.16 158.22,231.49 158.22,238.11 158.23,242.20 158.24,251.76 158.25,262.90 158.27,275.29 158.29,288.65 158.31,302.69 158.34,317.19 158.36,331.95 158.39,346.77 158.43,361.42 158.46,375.54 158.50,388.51 158.54,399.12 158.58,405.24 158.63,404.99 158.68,399.76 158.73,392.58 158.78,385.43 158.84,379.17 158.89,374.13 158.96,370.28 159.02,367.39 159.09,365.09 159.15,362.97 159.23,360.70 159.30,358.16 159.38,355.50 159.46,353.07 159.54,351.35 159.62,350.82 159.71,351.88 159.80,354.78 159.89,359.58 159.98,366.09 160.03,369.83 160.12,377.84 160.22,385.59 160.33,391.51 160.43,394.02 160.54,392.59 160.65,388.39 160.76,383.24 160.87,378.62 160.99,375.44 161.10,374.12 161.22,374.65 161.35,376.66 161.47,379.41 161.60,382.00 161.73,383.51 161.86,383.32 161.99,381.55 162.13,378.97 162.26,376.62 162.40,375.40 162.54,375.93 162.69,378.57 162.83,383.36 162.98,389.92 163.13,397.48 163.28,404.63 163.43,409.23 163.59,409.16 163.75,405.13 163.90,399.90 164.06,395.51 164.23,393.09 164.39,393.17 164.47,394.22 164.64,398.28 164.81,404.61 164.98,412.60 165.15,421.20 165.32,426.90 165.50,422.78 165.68,415.54 165.85,409.28 166.03,404.92 166.21,402.66 166.40,402.23 166.58,402.89 166.77,403.56 166.95,403.16 167.14,401.20 167.33,398.15 167.52,395.01 167.71,392.80 167.91,392.11 168.10,393.01 168.30,395.08 168.49,397.37 168.69,398.62 168.89,397.83 169.09,395.10 169.29,391.53 169.49,388.42 169.69,386.69 169.90,386.90 170.10,389.18 170.31,393.08 170.52,397.72 170.72,401.74 170.83,403.00 171.04,403.30 171.24,400.73 171.45,396.63 171.67,392.58 171.88,389.69 172.09,388.54 172.30,389.49 172.51,392.49 172.73,397.22 172.94,403.10 173.16,409.13 173.37,413.57 173.59,414.26 173.80,410.97 174.02,405.91 174.23,400.88 174.45,397.00 174.67,394.84 174.88,394.70 175.10,396.58 175.32,400.42 175.53,405.95 175.75,412.76 175.97,420.36 176.19,428.04 176.40,430.24 176.62,423.86 176.84,417.90 177.05,413.31 177.27,410.34 177.49,409.03 177.70,409.35 177.81,410.05 178.03,412.23 178.24,415.09 178.46,417.99 178.67,420.15 178.89,421.10 179.10,421.00 179.31,420.53 179.53,420.39 179.74,420.81 179.95,421.53 180.16,421.90 180.37,421.08 180.58,418.83 180.79,415.73 181.00,412.64 181.21,410.26 181.42,408.93 181.62,408.82 181.83,409.72 182.03,410.87 182.24,411.07 182.44,409.31 182.64,405.51 182.84,400.65 183.04,395.91 183.24,392.36 183.43,390.76 183.63,391.50 183.83,394.71 184.02,400.24 184.21,407.48 184.40,415.31 184.59,421.48 184.69,422.53 184.88,419.62 185.06,414.30 185.25,409.87 185.43,407.48 185.61,407.54 185.80,409.90 185.98,414.06 186.15,419.07 186.33,423.09 186.50,423.11 186.68,419.51 186.85,415.37 187.02,412.28 187.19,410.90 187.35,411.38 187.52,413.40 187.68,416.18 187.84,418.24 188.00,417.71 188.16,414.29 188.32,409.52 188.47,404.83 188.62,401.21 188.77,399.27 188.92,399.29 189.07,401.29 189.21,404.93 189.36,409.44 189.50,413.23 189.63,413.85 189.77,410.12 189.91,403.66 190.04,396.54 190.10,393.17 190.23,387.38 190.36,383.41 190.48,381.66 190.60,382.28 190.73,385.17 190.84,389.97 190.96,395.95 191.07,401.87 191.18,405.76 191.29,405.58 191.40,401.32 191.50,394.95 191.60,388.42 191.70,382.97 191.80,379.34 191.90,377.94 191.99,378.86 192.08,381.91 192.17,386.60 192.25,392.04 192.33,396.83 192.41,399.23 192.49,398.03 192.57,393.66 192.64,387.69 192.71,381.65 192.78,376.62 192.84,373.25 192.90,371.81 192.96,372.26 193.02,374.20 193.08,376.85 193.13,379.03 193.15,379.49 193.20,378.30 193.25,373.72 193.29,365.95 193.33,355.84 193.37,344.40 193.40,332.45 193.44,320.58 193.47,309.17 193.49,298.45 193.52,288.55 193.54,279.51 193.56,271.36 193.57,264.12 193.59,257.83 193.60,252.57 193.61,248.42 193.61,245.48 193.62,243.81 193.62,243.43 193.62,195.92 193.62,190.34 193.63,177.87 193.63,159.98 193.64,139.02 193.66,118.07 193.67,100.54 193.69,89.72 193.71,88.30 193.73,98.03 193.76,119.45 193.79,151.77 193.82,192.84 193.85,239.08 193.87,262.56 193.91,305.78 193.95,335.44 193.99,341.91 194.04,329.94 194.09,313.95 194.14,302.86 194.19,299.75 194.25,304.59 194.30,315.45 194.37,329.14 194.43,341.68 194.50,349.39 194.56,350.96 194.64,348.30 194.71,344.68 194.79,342.47 194.86,342.54 194.95,344.66 195.03,348.07 195.12,352.12 195.20,356.65 195.30,362.09 195.39,369.15 195.49,378.29 195.58,389.35 195.68,401.01 195.79,409.45 195.89,408.57 196.00,399.86 196.11,389.89 196.22,382.04 196.34,377.65 196.45,377.02 196.51,378.02 196.63,382.14 196.76,388.07 196.88,394.38 197.01,399.74 197.14,403.53 197.27,406.12 197.40,408.43 197.53,410.91 197.67,413.04 197.81,413.44 197.95,411.17 198.10,407.14 198.24,403.05 198.39,400.17 198.54,398.99 198.69,399.13 198.84,399.47 199.00,398.44 199.15,395.18 199.31,390.33 199.47,385.51 199.64,382.38 199.80,382.13 199.97,385.26 200.13,391.57 200.30,399.86 200.47,407.13 200.65,408.19 200.82,401.55 201.00,391.91 201.17,383.21 201.35,377.44 201.53,375.53 201.62,376.09 201.81,380.00 201.99,387.00 202.18,395.62 202.36,403.70 202.55,408.56 202.74,408.85 202.93,406.62 203.12,405.04 203.32,405.82 203.51,409.45 203.70,415.60 203.90,423.20 204.10,428.97 204.30,425.05 204.50,419.06 204.70,415.02 204.90,413.45 205.10,413.64 205.31,413.64 205.51,410.84 205.72,404.68 205.93,396.94 206.13,389.75 206.34,384.76 206.55,383.00 206.76,384.92 206.97,390.41 207.18,398.61 207.39,407.78 207.60,414.70 207.82,415.25 208.03,410.85 208.24,406.56 208.35,405.41 208.56,405.80 208.78,409.92 208.99,416.92 209.21,423.46 209.43,420.27 209.64,410.40 209.86,400.69 210.08,393.55 210.29,390.15 210.51,390.82 210.73,395.17 210.94,401.63 211.16,406.79 211.38,406.21 211.60,399.50 211.81,390.90 212.03,383.84 212.25,380.08 212.46,380.41 212.68,384.71 212.90,391.94 213.11,400.11 213.33,405.91 213.54,406.06 213.76,401.60 213.98,396.42 214.19,393.22 214.40,393.07 214.62,395.82 214.83,400.46 215.04,405.15 215.26,407.51 215.47,406.52 215.57,405.16 215.78,402.01 215.99,399.44 216.20,397.72 216.41,396.21 216.62,393.95 216.83,390.63 217.03,387.04 217.24,384.66 217.44,384.96 217.64,388.85 217.85,396.56 218.05,407.21 218.25,417.47 218.45,417.01 218.65,405.81 218.84,394.01 219.04,385.38 219.24,381.40 219.43,382.47 219.62,387.83 219.81,394.92 220.00,398.81 220.19,394.84 220.38,384.88 220.57,374.19 220.75,366.49 220.93,363.84 221.11,367.06 221.30,375.85 221.47,388.50 221.65,400.96 221.83,405.00 221.91,401.97 222.09,390.60 222.26,379.29 222.43,372.46 222.60,371.90 222.76,378.11 222.93,390.31 223.09,405.81 223.25,414.99 223.41,403.83 223.57,385.85 223.73,370.21 223.88,360.11 224.03,357.04 224.18,361.35 224.33,372.12 224.48,386.77 224.62,399.11 224.77,398.19 224.91,384.45 225.04,368.53 225.18,356.24 225.31,350.09 225.45,350.91 225.58,358.24 225.70,370.11 225.83,382.73 225.95,390.05 226.07,387.46 226.19,378.50 226.31,369.63 226.43,364.60 226.54,364.60 226.65,368.79 226.70,371.65 226.81,376.35 226.91,376.12 227.01,369.78 227.11,360.51 227.21,352.53 227.31,348.80 227.40,350.62 227.49,357.43 227.57,366.41 227.66,372.06 227.74,368.70 227.82,356.81 227.90,342.20 227.98,330.42 228.05,325.15 228.12,328.40 228.19,340.65 228.25,360.60 228.31,383.66 228.37,394.61 228.43,376.32 228.48,345.33 228.54,314.80 228.59,290.01 228.63,273.88 228.68,268.05 228.72,273.04 228.76,288.38 228.79,312.60 228.83,343.11 228.86,375.06 228.89,393.72 228.91,376.94 228.93,360.83 228.95,325.68 228.97,291.73 228.98,261.36 229.00,235.55 229.01,214.66 229.02,198.80 229.02,187.90 229.03,181.88 229.03,180.53 229.03,319.61 229.03,318.66 229.04,316.45 229.04,313.05 229.05,308.55 229.07,303.11 229.08,296.95 229.10,290.30 229.12,283.49 229.14,276.81 229.17,270.62 229.20,265.30 229.23,261.23 229.26,258.85 229.30,258.58 229.34,260.82 229.38,265.92 229.42,274.08 229.47,285.31 229.52,299.33 229.57,315.43 229.63,332.33 229.68,347.85 229.74,358.75 229.78,361.36 229.84,359.89 229.91,351.25 229.97,339.42 230.05,327.97 230.12,319.28 230.20,314.78 230.27,315.21 230.36,320.70 230.44,330.89 230.53,344.86 230.61,361.01 230.71,376.71 230.80,387.63 230.89,388.96 230.99,381.42 231.09,370.70 231.20,361.17 231.30,355.04 231.41,353.31 231.52,356.23 231.63,363.48 231.75,374.21 231.86,387.10 231.98,400.08 232.10,409.27 232.23,409.51 232.35,402.68 232.48,394.94 232.61,389.39 232.74,387.06 232.88,388.14 233.01,392.17 233.15,398.00 233.22,401.01 233.36,405.53 233.51,405.90 233.65,401.98 233.80,396.25 233.95,391.12 234.10,387.96 234.25,387.36 234.41,389.33 234.56,393.37 234.72,398.47 234.88,403.05 235.05,405.39 235.21,404.85 235.38,402.50 235.54,400.20 235.71,399.41 235.88,400.91 236.06,404.76 236.23,410.48 236.41,416.42 236.58,418.46 236.76,413.50 236.94,405.09 237.12,396.54 237.31,389.58 237.49,385.12 237.68,383.66 237.87,385.35 238.05,390.11 238.24,397.36 238.44,406.14 238.63,414.61 238.82,418.48 238.92,417.23 239.11,410.69 239.31,403.05 239.51,396.77 239.71,392.82 239.91,391.51 240.11,392.68 240.31,395.90 240.51,400.12 240.72,403.87 240.92,405.57 241.13,404.44 241.33,401.34 241.54,397.96 241.75,395.62 241.96,395.10 242.17,396.80 242.38,400.62 242.59,406.14 242.80,412.48 243.01,417.94 243.23,419.48 243.44,416.11 243.65,410.71 243.87,405.51 244.08,401.41 244.30,398.72 244.51,397.34 244.73,396.94 244.94,397.15 245.16,397.71 245.38,398.46 245.59,399.50 245.81,401.07 245.92,402.13 246.14,404.70 246.35,407.61 246.57,410.10 246.79,410.98 247.00,409.54 247.22,406.31 247.44,402.70 247.66,399.93 247.87,398.91 248.09,400.18 248.31,403.91 248.52,409.78 248.74,417.09 248.95,423.67 249.17,423.43 249.38,416.68 249.60,409.46 249.81,403.91 250.03,400.85 250.24,400.60 250.45,403.22 250.67,408.27 250.88,414.82 251.09,420.78 251.30,421.60 251.51,416.41 251.72,409.92 251.92,404.71 252.13,401.86 252.34,401.86 252.54,404.70 252.75,410.02 252.95,416.55 253.05,419.32 253.26,419.96 253.46,413.15 253.66,403.97 253.86,395.32 254.06,388.55 254.25,384.46 254.45,383.54 254.64,385.92 254.84,391.43 255.03,399.70 255.22,410.00 255.41,421.07 255.60,426.99 255.79,418.51 255.97,408.03 256.16,398.99 256.34,392.27 256.52,388.27 256.70,387.25 256.88,389.07 257.06,393.40 257.24,399.65 257.41,406.86 257.58,413.28 257.75,416.10 257.92,413.64 258.09,408.25 258.26,402.74 258.42,398.62 258.58,396.52 258.74,396.65 258.90,398.91 259.06,402.78 259.14,405.00 259.29,408.97 259.44,410.44 259.59,407.95 259.74,402.43 259.89,395.99 260.03,390.23 260.17,386.14 260.32,384.31 260.45,384.95 260.59,387.89 260.72,392.47 260.86,397.30 260.99,400.18 261.11,399.03 261.24,393.81 261.36,386.52 261.48,379.32 261.60,373.81 261.72,371.03 261.83,371.54 261.95,375.50 262.06,382.49 262.16,391.23 262.27,398.88 262.37,400.46 262.47,393.28 262.57,380.79 262.67,367.12 262.76,354.79 262.85,345.36 262.94,339.82 263.03,338.72 263.07,339.89 263.15,345.55 263.23,355.17 263.31,367.75 263.38,381.61 263.46,393.84 263.53,399.54 263.59,395.48 263.66,385.54 263.72,374.72 263.78,365.53 263.84,358.97 263.89,355.12 263.95,353.45 264.00,352.91 264.04,352.16 264.09,350.00 264.13,345.81 264.17,339.81 264.20,332.86 264.24,326.06 264.27,320.37 264.30,316.43 264.32,314.50 264.35,314.47 264.37,315.93 264.39,318.25 264.40,320.78 264.41,322.95 264.42,324.46 264.43,325.30 264.44,325.64 264.44,325.73 264.44,270.86 264.44,270.96 264.44,273.38 264.44,278.93 264.45,287.39 264.46,298.42 264.47,311.58 264.49,326.38 264.51,342.29 264.53,358.74 264.55,375.17 264.58,390.96 264.61,405.24 264.64,415.97 264.67,418.08 264.71,411.56 264.75,402.97 264.79,394.95 264.83,388.21 264.88,382.98 264.93,379.32 264.98,377.20 265.04,376.51 265.09,377.04 265.15,378.51 265.22,380.51 265.28,382.60 265.35,384.35 265.42,385.46 265.49,385.87 265.57,385.82 265.64,385.73 265.72,386.13 265.81,387.44 265.89,389.95 265.94,391.68 266.02,396.01 266.11,401.10 266.21,405.96 266.30,408.85 266.40,407.96 266.50,403.27 266.61,396.50 266.71,389.33 266.82,382.87 266.93,377.83 267.04,374.65 267.16,373.55 267.27,374.53 267.39,377.36 267.51,381.61 267.64,386.62 267.76,391.53 267.89,395.39 268.02,397.39 268.15,397.35 268.29,395.82 268.42,393.68 268.56,391.74 268.70,390.43 268.84,389.90 268.99,390.01 269.13,390.40 269.28,390.67 269.43,390.59 269.59,390.15 269.74,389.63 269.90,389.51 270.05,390.24 270.13,391.04 270.29,393.73 270.46,397.93 270.62,403.46 270.79,409.68 270.95,415.12 271.12,417.06 271.29,413.82 271.47,407.61 271.64,401.03 271.82,395.46 271.99,391.70 272.17,390.26 272.35,391.29 272.53,394.69 272.72,400.14 272.90,406.90 273.09,413.35 273.27,416.26 273.46,413.01 273.65,405.95 273.84,398.26 274.04,391.57 274.23,386.71 274.43,384.20 274.62,384.19 274.82,386.55 275.02,390.94 275.22,396.81 275.42,403.12 275.62,408.43 275.82,410.96 276.03,409.91 276.23,406.60 276.33,404.69 276.54,401.33 276.74,399.34 276.95,399.08 277.16,400.55 277.37,403.51 277.58,407.38 277.79,411.25 278.00,414.03 278.21,414.88 278.42,414.01 278.64,412.41 278.85,411.16 279.06,410.86 279.28,411.56 279.49,412.76 279.71,413.54 279.92,412.75 280.14,409.93 280.35,405.60 280.57,400.85 280.79,396.58 281.00,393.44 281.22,391.86 281.44,392.09 281.65,394.08 281.87,397.63 282.09,402.32 282.31,407.38 282.52,411.41 282.74,412.60 282.96,410.09 283.17,405.01 283.39,399.10 283.50,396.26 283.72,391.39 283.93,388.11 284.15,386.84 284.36,387.80 284.58,391.06 284.79,396.33 285.01,403.17 285.22,410.86 285.44,418.10 285.65,422.20 285.86,420.57 286.07,416.01 286.29,411.73 286.50,408.87 286.71,407.80 286.92,408.43 287.13,410.33 287.33,412.81 287.54,415.03 287.75,416.03 287.95,415.51 288.16,414.04 288.36,412.56 288.57,411.78 288.77,412.01 288.97,413.31 289.17,415.40 289.37,417.48 289.56,418.33 289.76,416.95 289.96,413.54 290.15,409.11 290.34,404.59 290.44,402.51 290.63,399.03 290.82,396.68 291.01,395.59 291.20,395.88 291.38,397.52 291.57,400.36 291.75,404.19 291.93,408.85 292.11,414.07 292.29,419.55 292.47,424.98 292.65,429.48 292.82,429.05 292.99,424.82 293.16,420.31 293.33,416.08 293.50,412.29 293.67,409.06 293.83,406.39 293.99,404.32 294.15,402.98 294.31,402.45 294.47,402.80 294.62,404.06 294.78,406.31 294.93,409.57 295.08,413.74 295.22,418.69 295.37,424.15 295.51,429.23 295.65,428.83 295.79,423.53 295.93,418.05 296.00,415.54 296.13,411.24 296.27,408.23 296.40,406.76 296.52,407.01 296.65,409.03 296.77,412.70 296.89,417.67 297.01,423.06 297.13,425.67 297.24,421.54 297.36,414.34 297.47,406.85 297.57,400.11 297.68,394.67 297.78,390.89 297.88,388.93 297.98,388.68 298.08,389.69 298.17,391.11 298.26,391.70 298.35,390.27 298.44,386.34 298.52,380.41 298.60,373.64 298.68,367.29 298.76,362.42 298.83,359.87 298.90,360.22 298.97,363.67 299.04,370.02 299.10,378.44 299.16,386.98 299.22,391.97 299.25,391.72 299.30,384.76 299.36,371.69 299.41,356.31 299.45,341.31 299.50,328.48 299.54,319.08 299.58,313.98 299.61,313.68 299.65,318.33 299.68,327.65 299.71,340.86 299.73,356.49 299.76,371.83 299.78,381.96 299.80,381.09 299.81,369.65 299.82,353.58 299.83,337.55 299.84,324.21 299.85,315.09 299.85,311.03 299.85,281.67 299.85,282.74 299.85,287.10 299.86,293.38 299.87,299.14 299.88,301.57 299.89,298.80 299.91,291.03 299.93,280.42 299.95,269.89 299.97,262.13 300.00,259.05 300.02,259.65 300.05,265.37 300.08,276.90 300.12,293.25 300.16,312.58 300.20,332.13 300.24,348.06 300.29,356.12 300.34,354.66 300.39,346.64 300.45,336.79 300.50,328.47 300.56,323.38 300.63,322.04 300.69,324.16 300.76,328.98 300.83,335.44 300.90,342.50 300.98,349.34 301.05,355.54 301.13,361.06 301.22,366.03 301.30,370.53 301.39,374.31 301.48,376.86 301.57,377.65 301.67,376.63 301.76,374.48 301.86,372.39 301.96,371.62 302.07,373.20 302.17,377.73 302.28,385.29 302.34,390.11 302.45,401.23 302.57,412.54 302.68,418.10 302.80,411.60 302.92,400.60 303.05,390.62 303.17,383.62 303.30,380.52 303.43,381.75 303.56,387.23 303.70,396.36 303.83,407.66 303.97,416.87 304.11,414.12 304.25,402.00 304.40,388.85 304.54,377.72 304.69,370.01 304.84,366.47 304.99,367.39 305.15,372.64 305.30,381.75 305.46,393.68 305.62,406.77 305.78,417.27 305.95,416.52 306.11,406.92 306.28,397.12 306.45,389.94 306.62,386.32 306.79,386.62 306.96,390.74 307.14,398.22 307.23,402.97 307.40,413.78 307.58,424.55 307.76,424.84 307.94,414.86 308.13,405.37 308.31,398.13 308.50,393.88 308.68,392.89 308.87,395.10 309.06,400.16 309.25,407.53 309.45,416.18 309.64,423.91 309.84,424.00 310.03,416.91 310.23,409.51 310.43,403.71 310.63,400.12 310.83,399.08 311.03,400.58 311.23,404.34 311.43,409.93 311.64,416.62 311.84,422.80 312.05,424.56 312.26,420.06 312.46,413.97 312.67,408.64 312.88,404.85 313.09,403.03 313.30,403.32 313.51,405.55 313.73,409.46 313.83,411.85 314.05,416.81 314.26,420.18 314.47,419.24 314.69,414.46 314.90,408.42 315.12,402.70 315.33,398.08 315.55,394.99 315.76,393.52 315.98,393.63 316.20,395.12 316.41,397.61 316.63,400.60 316.85,403.65 317.06,406.23 317.28,407.91 317.50,408.40 317.72,407.71 317.93,406.01 318.15,403.64 318.37,401.12 318.58,398.97 318.80,397.59 319.02,397.40 319.23,398.61 319.45,401.22 319.67,404.89 319.88,409.05 320.10,412.62 320.31,414.36 320.53,413.73 320.74,411.61 320.95,409.40 321.06,408.58 321.27,407.92 321.48,408.74 321.70,410.93 321.91,413.87 322.12,416.69 322.33,418.25 322.54,417.95 322.74,416.45 322.95,415.04 323.16,414.63 323.36,415.61 323.57,417.85 323.77,420.58 323.97,421.84 324.18,419.61 324.38,414.67 324.58,408.95 324.78,403.78 324.97,399.88 325.17,397.70 325.37,397.43 325.56,398.93 325.75,401.74 325.95,405.20 326.14,408.15 326.33,409.36 326.51,408.25 326.70,405.32 326.89,401.59 327.07,398.01 327.25,395.00 327.43,392.71 327.61,391.10 327.70,390.52 327.88,389.69 328.06,389.21 328.23,389.12 328.40,389.42 328.57,390.15 328.74,391.34 328.91,392.81 329.08,394.11 329.24,394.83 329.40,394.59 329.56,393.30 329.72,391.29 329.88,389.18 330.03,387.57 330.19,386.88 330.34,387.40 330.49,389.13 330.63,391.84 330.78,395.06 330.92,398.26 331.06,400.95 331.20,402.80 331.34,403.89 331.48,404.59 331.61,405.31 331.74,406.27 331.87,407.41 332.00,408.51 332.12,409.38 332.24,410.10 332.36,411.03 332.48,412.63 332.60,415.10 332.65,416.48 332.77,418.08 332.88,415.04 332.98,406.45 333.09,394.47 333.19,381.10 333.29,367.94 333.39,356.41 333.49,347.83 333.58,343.33 333.67,343.75 333.76,349.51 333.85,360.37 333.93,375.08 334.01,389.93 334.09,395.52 334.17,383.71 334.24,362.23 334.31,339.38 334.38,319.41 334.45,304.94 334.51,297.84 334.57,299.29 334.63,309.82 334.69,329.15 334.74,355.88 334.79,385.83 334.84,399.55 334.88,372.32 334.93,331.39 334.97,289.67 335.01,251.33 335.04,218.87 335.07,194.03 335.09,184.81 335.12,173.08 335.14,170.18 335.17,175.34 335.19,187.18 335.21,203.80 335.22,222.97 335.23,242.36 335.24,259.82 335.25,273.64 335.26,282.77 335.26,286.73 335.26,221.73 335.26,222.06 335.26,223.48 335.27,225.87 335.28,228.96 335.29,232.47 335.30,236.18 335.32,239.99 335.34,243.96 335.36,248.30 335.38,253.32 335.41,259.35 335.44,266.63 335.47,275.30 335.51,285.33 335.55,296.49 335.59,308.42 335.63,320.64 335.68,332.61 335.72,343.84 335.77,353.92 335.83,362.61 335.86,366.39 335.91,372.75 335.97,377.42 336.04,380.11 336.10,380.46 336.17,378.24 336.24,373.67 336.31,367.43 336.39,360.43 336.46,353.64 336.54,347.92 336.63,344.01 336.71,342.45 336.80,343.58 336.89,347.55 336.98,354.28 337.07,363.48 337.17,374.67 337.27,387.15 337.37,399.95 337.48,411.34 337.58,417.19 337.69,413.56 337.80,405.47 337.92,397.45 338.03,391.02 338.15,386.67 338.27,384.52 338.39,384.48 338.52,386.34 338.64,389.73 338.77,394.19 338.90,399.15 339.04,403.93 339.11,406.03 339.24,409.18 339.38,410.47 339.52,409.97 339.66,408.38 339.81,406.58 339.95,405.22 340.10,404.73 340.25,405.37 340.40,407.27 340.56,410.34 340.71,414.34 340.87,418.83 341.03,422.78 341.19,424.08 341.36,421.59 341.52,417.41 341.69,413.28 341.86,410.08 342.03,408.28 342.20,408.14 342.37,409.69 342.55,412.78 342.72,417.09 342.90,421.73 343.08,424.52 343.26,422.63 343.44,417.63 343.63,412.20 343.81,407.57 344.00,404.28 344.19,402.65 344.38,402.83 344.47,403.60 344.66,406.37 344.86,410.52 345.05,415.65 345.25,421.18 345.44,426.01 345.64,427.65 345.84,425.14 346.04,421.76 346.24,419.05 346.44,417.35 346.64,416.72 346.84,417.04 347.05,418.03 347.25,419.35 347.46,420.61 347.67,421.33 347.87,420.97 348.08,419.24 348.29,416.25 348.50,412.40 348.71,408.17 348.92,403.98 349.14,400.29 349.35,397.52 349.56,395.89 349.77,395.51 349.99,396.41 350.20,398.37 350.42,401.01 350.63,403.91 350.85,406.56 351.06,408.48 351.28,409.45 351.39,409.59 351.61,409.38 351.82,408.83 352.04,408.38 352.26,408.43 352.47,409.24 352.69,410.93 352.91,413.56 353.12,417.00 353.34,420.92 353.56,424.73 353.78,427.19 353.99,426.78 354.21,424.56 354.43,422.24 354.64,420.35 354.86,418.82 355.08,417.06 355.29,414.41 355.51,410.63 355.72,406.00 355.94,401.12 356.15,396.63 356.36,393.26 356.58,391.48 356.79,391.54 357.00,393.47 357.21,396.91 357.42,400.85 357.63,403.67 357.84,403.49 358.05,399.60 358.26,393.22 358.46,386.17 358.57,382.88 358.77,377.44 358.98,374.07 359.18,373.16 359.38,374.80 359.59,378.63 359.79,383.84 359.99,389.23 360.19,393.13 360.38,393.96 360.58,391.50 360.78,387.02 360.97,382.35 361.16,378.86 361.36,377.40 361.55,378.45 361.74,382.00 361.92,387.58 362.11,394.29 362.30,400.65 362.48,404.37 362.66,403.63 362.84,399.08 363.02,393.02 363.20,387.41 363.38,383.31 363.55,381.16 363.73,381.04 363.90,382.66 364.07,385.41 364.24,388.42 364.40,390.82 364.57,392.00 364.73,391.88 364.81,391.47 364.97,390.43 365.13,389.62 365.29,389.52 365.44,390.25 365.60,391.48 365.75,392.54 365.90,392.64 366.04,391.28 366.19,388.54 366.33,385.04 366.47,381.63 366.61,379.06 366.75,377.85 366.89,378.22 367.02,380.08 367.15,383.04 367.28,386.33 367.41,388.98 367.53,390.14 367.65,389.42 367.77,387.17 367.89,384.17 368.01,381.22 368.12,378.79 368.23,376.96 368.34,375.43 368.45,373.64 368.55,371.01 368.65,367.18 368.75,362.25 368.85,356.80 368.94,351.65 369.04,347.69 369.08,346.42 369.17,345.74 369.26,347.97 369.34,353.44 369.42,362.23 369.50,374.18 369.58,388.85 369.65,405.44 369.72,421.15 369.79,417.68 369.86,399.50 369.92,380.23 369.98,361.79 370.04,344.94 370.10,330.22 370.15,317.97 370.20,308.40 370.25,301.59 370.29,297.51 370.34,295.98 370.38,296.75 370.42,299.43 370.45,303.50 370.48,308.30 370.51,313.04 370.54,316.83 370.56,318.82 370.59,318.43 370.61,315.52 370.62,310.48 370.64,304.11 370.65,297.38 370.66,291.22 370.66,286.43 370.66,284.73 370.67,282.99 370.67,231.97 370.67,233.60 370.67,240.62 370.68,252.27 370.69,266.93 370.70,282.37 370.71,296.08 370.73,305.87 370.75,310.82 370.77,311.92 370.79,311.48 370.82,312.05 370.85,315.49 370.88,322.66 370.92,333.44 370.96,346.65 371.00,359.99 371.04,369.91 371.09,372.73 371.13,367.89 371.18,358.81 371.24,349.40 371.29,342.19 371.35,338.33 371.41,337.96 371.48,340.41 371.54,344.39 371.61,348.29 371.68,350.70 371.76,351.06 371.83,349.96 371.91,348.81 371.95,348.69 372.04,350.15 372.12,354.38 372.21,361.31 372.30,369.79 372.39,377.33 372.48,380.36 372.58,376.58 372.68,367.44 372.78,356.49 372.89,346.84 372.99,340.57 373.10,338.94 373.21,342.56 373.33,351.46 373.44,365.04 373.56,382.15 373.68,400.78 373.80,415.26 373.93,410.70 374.05,394.94 374.18,379.83 374.31,368.41 374.45,361.82 374.58,360.51 374.72,364.43 374.86,373.08 375.00,385.55 375.14,400.49 375.29,415.72 375.44,423.23 375.59,413.47 375.74,401.56 375.89,392.36 375.97,389.16 376.12,385.83 376.28,386.62 376.44,391.21 376.60,398.94 376.77,408.63 376.93,418.35 377.10,423.02 377.27,417.89 377.44,410.17 377.61,403.88 377.78,400.04 377.96,398.86 378.13,400.15 378.31,403.39 378.49,407.77 378.67,412.29 378.85,415.94 379.04,418.04 379.22,418.57 379.41,417.93 379.60,416.17 379.79,413.01 379.98,408.39 380.17,402.77 380.36,397.03 380.56,392.17 380.75,389.22 380.95,388.91 381.15,391.69 381.35,397.71 381.55,406.76 381.75,418.11 381.95,429.97 382.05,428.93 382.25,416.56 382.46,404.96 382.66,395.73 382.87,389.63 383.08,387.17 383.28,388.35 383.49,392.72 383.70,399.55 383.91,407.73 384.12,415.67 384.33,421.25 384.55,422.25 384.76,420.23 384.97,418.32 385.18,417.34 385.40,416.63 385.61,414.76 385.83,410.86 386.04,405.57 386.26,400.07 386.47,395.62 386.69,393.22 386.91,393.49 387.12,396.75 387.34,402.99 387.56,411.68 387.77,421.29 387.99,424.34 388.21,414.90 388.43,403.30 388.64,392.83 388.86,384.78 388.97,381.93 389.19,378.87 389.40,379.60 389.62,384.11 389.84,391.95 390.05,402.17 390.27,412.90 390.48,418.51 390.70,412.54 390.92,401.66 391.13,391.31 391.34,383.39 391.56,378.78 391.77,377.93 391.99,380.93 392.20,387.34 392.41,396.43 392.62,406.74 392.83,414.81 393.04,414.23 393.25,405.75 393.46,395.71 393.67,387.08 393.87,381.09 394.08,378.41 394.28,379.20 394.49,383.28 394.69,390.20 394.90,399.20 395.10,408.95 395.30,417.04 395.50,418.76 395.69,413.48 395.89,406.63 395.99,403.58 396.19,398.93 396.38,396.67 396.57,396.75 396.77,398.76 396.96,401.93 397.15,405.27 397.33,407.52 397.52,407.96 397.71,406.90 397.89,405.39 398.07,404.47 398.25,404.68 398.43,406.09 398.61,408.31 398.79,410.42 398.96,411.25 399.14,410.13 399.31,407.59 399.48,404.78 399.65,402.71 399.81,402.06 399.98,403.10 400.14,405.81 400.30,409.82 400.46,414.40 400.62,418.57 400.77,421.12 400.93,421.50 401.08,420.74 401.23,420.37 401.38,421.13 401.53,422.79 401.67,423.80 401.74,423.16 401.88,418.90 402.02,412.07 402.16,404.39 402.30,397.02 402.43,390.77 402.56,386.29 402.69,384.09 402.82,384.46 402.94,387.43 403.06,392.79 403.18,399.91 403.30,407.57 403.42,413.17 403.53,412.78 403.64,406.41 403.75,397.89 403.86,389.84 403.96,383.61 404.06,380.01 404.16,379.51 404.26,382.29 404.35,388.24 404.45,396.72 404.54,406.01 404.62,411.37 404.71,406.25 404.79,393.32 404.87,378.03 404.95,363.12 405.02,350.13 405.10,340.22 405.17,334.25 405.23,332.81 405.27,333.90 405.33,339.71 405.39,350.09 405.45,364.22 405.51,380.25 405.56,393.78 405.61,395.65 405.66,382.40 405.70,362.20 405.75,340.97 405.79,321.45 405.82,305.11 405.86,292.78 405.89,284.79 405.92,280.98 405.95,280.70 405.97,282.89 406.00,286.12 406.02,288.90 406.03,289.99 406.05,288.85 406.06,285.75 406.07,281.66 406.07,277.81 406.08,275.27 406.08,274.66 406.08,270.59 406.08,272.38 406.08,276.49 406.09,282.78 406.10,291.03 406.11,300.96 406.13,312.27 406.15,324.58 406.16,331.00 406.18,344.15 406.20,357.40 406.23,370.40 406.26,382.83 406.29,394.38 406.33,404.72 406.37,413.41 406.41,419.68 406.45,422.19 406.49,420.75 406.54,417.39 406.59,413.49 406.65,409.33 406.70,404.82 406.76,399.81 406.82,394.26 406.89,388.28 406.95,382.12 407.02,376.17 407.09,370.83 407.17,366.51 407.24,363.62 407.32,362.45 407.40,363.22 407.49,365.99 407.57,370.64 407.66,376.80 407.75,383.84 407.85,390.72 407.94,395.92 408.04,397.75 408.14,395.57 408.24,390.56 408.30,387.57 408.40,381.66 408.51,376.78 408.62,373.63 408.74,372.57 408.85,373.66 408.97,376.69 409.09,381.15 409.21,386.24 409.34,390.94 409.46,394.14 409.59,395.21 409.72,394.44 409.86,392.86 409.99,391.70 410.13,391.91 410.27,394.10 410.41,398.49 410.55,405.01 410.70,413.30 410.85,422.32 411.00,427.25 411.15,420.47 411.30,411.40 411.46,403.44 411.61,397.67 411.77,394.70 411.93,394.81 412.09,398.12 412.26,404.44 412.42,413.30 412.59,423.59 412.76,427.90 412.93,417.71 413.02,412.04 413.19,401.60 413.37,393.36 413.54,388.17 413.72,386.52 413.90,388.73 414.08,394.69 414.26,403.91 414.45,415.49 414.63,427.23 414.82,423.01 415.01,410.65 415.20,399.68 415.39,391.51 415.58,386.93 415.77,386.35 415.97,389.63 416.16,396.30 416.36,405.42 416.56,415.16 416.76,420.79 416.96,416.39 417.16,407.70 417.36,399.67 417.56,393.83 417.77,390.68 417.97,390.27 418.18,392.27 418.38,395.97 418.59,400.37 418.80,404.22 419.01,406.18 419.22,405.60 419.43,403.16 419.53,401.65 419.74,398.82 419.95,396.87 420.17,396.35 420.38,397.47 420.59,400.21 420.81,404.30 421.02,409.34 421.24,414.60 421.45,418.73 421.67,419.91 421.88,417.70 422.10,413.91 422.32,410.19 422.53,407.46 422.75,406.17 422.97,406.51 423.18,408.44 423.40,411.90 423.62,416.58 423.84,422.04 424.05,427.51 424.27,429.30 424.49,424.84 424.70,419.50 424.92,414.72 425.14,410.95 425.35,408.24 425.57,406.64 425.79,406.11 426.00,406.47 426.22,407.47 426.43,408.91 426.65,410.46 426.75,411.17 426.97,412.18 427.18,412.28 427.39,411.19 427.61,408.78 427.82,405.31 428.03,401.25 428.24,397.14 428.45,393.45 428.66,390.70 428.87,389.33 429.08,389.63 429.28,391.70 429.49,395.56 429.69,400.89 429.90,407.03 430.10,412.81 430.30,416.44 430.51,416.27 430.71,413.32 430.91,410.00 431.10,407.89 431.30,407.78 431.50,409.82 431.69,413.90 431.89,419.57 432.08,426.12 432.27,432.09 432.46,428.64 432.65,424.03 432.84,421.24 433.02,420.54 433.21,421.58 433.39,423.10 433.48,423.21 433.66,420.59 433.84,415.00 434.02,408.55 434.20,402.72 434.37,398.57 434.54,396.87 434.72,397.99 434.89,402.02 435.05,408.67 435.22,416.84 435.39,422.21 435.55,416.93 435.71,405.91 435.87,394.37 436.03,384.20 436.18,376.51 436.34,372.05 436.49,371.26 436.64,374.38 436.79,381.36 436.94,391.79 437.08,404.92 437.22,419.02 437.36,423.43 437.50,409.74 437.64,394.10 437.77,379.91 437.90,368.37 438.03,360.27 438.16,356.13 438.29,356.22 438.41,360.53 438.47,364.18 438.59,374.12 438.71,386.87 438.83,401.24 438.94,414.66 439.05,418.54 439.16,408.64 439.27,396.17 439.37,385.41 439.47,377.73 439.57,373.69 439.67,373.45 439.76,376.76 439.85,382.91 439.94,390.47 440.03,396.91 440.12,398.72 440.20,394.20 440.28,385.62 440.36,376.26 440.43,368.43 440.50,363.53 440.58,362.33 440.64,365.10 440.71,371.52 440.77,380.35 440.83,388.71 440.89,391.17 440.94,383.26 440.99,367.20 441.04,347.54 441.09,327.34 441.13,308.50 441.18,292.27 441.20,285.38 441.23,274.31 441.27,266.85 441.30,262.58 441.33,260.60 441.36,259.63 441.38,258.15 441.41,254.80 441.43,248.78 441.44,240.09 441.46,229.53 441.47,218.41 441.48,208.19 441.48,200.19 441.48,195.41 441.49,194.30 441.49,269.93 441.49,271.38 441.49,274.74 441.50,279.98 441.51,287.07 441.52,295.91 441.54,306.41 441.56,318.42 441.58,331.73 441.60,346.08 441.63,361.12 441.65,376.32 441.69,390.84 441.72,402.93 441.76,408.93 441.79,405.78 441.84,397.04 441.88,387.10 441.90,382.37 441.95,374.02 442.00,367.62 442.06,363.49 442.11,361.75 442.17,362.37 442.23,365.17 442.30,369.85 442.36,375.93 442.43,382.79 442.50,389.59 442.58,395.30 442.65,398.86 442.73,399.69 442.81,398.18 442.90,395.46 442.98,392.72 443.07,390.82 443.16,390.26 443.26,391.28 443.35,393.93 443.45,398.09 443.55,403.49 443.65,409.74 443.76,416.23 443.87,421.72 443.98,423.44 444.09,420.14 444.20,414.85 444.32,409.60 444.44,405.12 444.56,401.71 444.68,399.46 444.81,398.40 444.87,398.28 445.00,398.77 445.13,399.99 445.27,401.62 445.40,403.25 445.54,404.48 445.68,404.97 445.82,404.59 445.96,403.40 446.11,401.61 446.26,399.55 446.41,397.51 446.56,395.74 446.71,394.41 446.86,393.60 447.02,393.39 447.18,393.86 447.34,395.04 447.50,396.94 447.67,399.53 447.83,402.67 448.00,406.18 448.17,409.64 448.34,412.35 448.51,413.50 448.69,412.69 448.86,410.39 449.04,407.59 449.22,405.19 449.40,403.87 449.58,404.07 449.76,406.02 449.95,409.60 450.14,414.30 450.23,416.73 450.42,420.28 450.61,419.35 450.80,414.13 450.99,407.48 451.18,401.22 451.38,396.35 451.57,393.37 451.77,392.44 451.97,393.50 452.17,396.19 452.37,399.66 452.57,402.79 452.77,404.31 452.97,403.54 453.17,400.95 453.38,397.78 453.59,395.29 453.79,394.31 454.00,395.24 454.21,398.20 454.42,402.97 454.63,408.82 454.84,414.35 455.05,417.07 455.26,414.98 455.47,409.79 455.68,404.15 455.90,399.63 456.11,397.05 456.32,396.70 456.54,398.77 456.75,403.10 456.97,409.27 457.08,412.87 457.29,420.65 457.51,427.19 457.73,425.58 457.94,418.94 458.16,412.72 458.38,408.17 458.59,405.66 458.81,405.39 459.03,407.37 459.24,411.26 459.46,416.55 459.68,422.12 459.90,424.96 460.11,421.91 460.33,416.19 460.55,410.67 460.76,406.46 460.98,404.05 461.20,403.70 461.41,405.53 461.63,409.34 461.84,414.78 462.06,421.04 462.27,425.49 462.48,422.68 462.70,415.51 462.91,407.94 463.12,401.32 463.33,396.31 463.55,393.43 463.76,393.03 463.96,395.20 464.17,399.85 464.28,403.03 464.49,410.76 464.69,419.21 464.90,424.50 465.10,419.83 465.31,411.04 465.51,402.67 465.71,396.00 465.92,391.70 466.12,390.06 466.32,391.01 466.51,394.19 466.71,399.03 466.91,404.51 467.10,409.22 467.30,411.54 467.49,410.72 467.68,407.77 467.87,404.20 468.06,401.07 468.25,398.87 468.43,397.73 468.62,397.48 468.80,397.88 468.98,398.71 469.16,399.76 469.34,400.93 469.52,402.19 469.69,403.64 469.87,405.35 470.04,407.36 470.21,409.65 470.38,412.15 470.55,414.81 470.63,416.16 470.80,418.74 470.96,421.10 471.12,423.14 471.28,424.76 471.44,425.87 471.59,426.40 471.75,426.40 471.90,425.92 472.05,424.98 472.20,423.56 472.35,421.64 472.49,419.21 472.63,416.34 472.77,413.20 472.91,410.01 473.05,407.04 473.18,404.59 473.31,402.98 473.44,402.47 473.57,403.24 473.70,405.28 473.82,408.37 473.94,411.92 474.06,414.60 474.18,414.53 474.29,410.94 474.40,405.12 474.51,398.75 474.62,393.05 474.73,388.86 474.83,386.78 474.93,387.21 475.03,390.16 475.08,392.48 475.17,398.13 475.26,403.31 475.35,404.26 475.44,398.28 475.53,387.12 475.61,373.92 475.69,360.90 475.77,349.64 475.84,341.31 475.91,336.82 475.98,336.73 476.05,341.31 476.12,350.36 476.18,363.13 476.24,377.82 476.30,390.19 476.35,392.14 476.40,380.03 476.45,360.51 476.50,339.42 476.54,319.76 476.59,303.23 476.63,290.83 476.66,283.01 476.70,279.67 476.73,280.06 476.76,282.76 476.78,285.75 476.80,286.67 476.83,283.56 476.84,275.64 476.86,263.68 476.87,256.73 476.88,242.32 476.89,229.00 476.89,218.58 476.89,212.37 476.90,210.92 476.90,208.63 476.90,213.91 476.90,225.99 476.91,244.26 476.92,267.79 476.93,295.38 476.95,325.50 476.97,356.22 476.99,384.33 477.01,401.32 477.04,394.61 477.06,376.01 477.09,357.67 477.13,343.04 477.17,333.21 477.20,328.44 477.25,328.56 477.29,333.11 477.34,341.35 477.39,352.42 477.44,365.33 477.49,379.05 477.55,392.56 477.61,404.81 477.67,414.66 477.74,420.56 477.81,421.59 477.88,419.95 477.91,418.98 477.99,417.30 478.06,415.71 478.14,413.56 478.22,410.40 478.31,406.33 478.39,401.86 478.48,397.62 478.57,394.16 478.67,391.89 478.76,390.99 478.86,391.47 478.96,393.08 479.06,395.38 479.17,397.76 479.28,399.50 479.39,400.03 479.50,399.25 479.61,397.55 479.73,395.64 479.85,394.15 479.97,393.57 480.09,394.19 480.22,396.10 480.35,399.18 480.48,403.08 480.61,407.28 480.74,410.98 480.88,413.31 481.02,413.68 481.16,412.33 481.30,410.12 481.45,407.91 481.59,406.23 481.67,405.68 481.81,405.18 481.97,405.50 482.12,406.52 482.27,408.05 482.43,409.97 482.59,412.22 482.75,414.82 482.91,417.86 483.08,421.41 483.24,425.45 483.41,429.54 483.58,429.97 483.75,425.33 483.92,419.95 484.10,414.79 484.27,410.29 484.45,406.88 484.63,404.85 484.81,404.37 484.99,405.41 485.17,407.85 485.36,411.21 485.54,414.53 485.73,416.32 485.92,415.20 486.11,411.48 486.30,406.73 486.49,402.16 486.69,398.62 486.88,396.61 487.08,396.37 487.28,397.85 487.48,400.89 487.57,402.86 487.77,407.21 487.98,411.19 488.18,413.44 488.38,413.04 488.58,410.51 488.79,407.27 488.99,404.53 489.20,403.12 489.41,403.32 489.62,405.19 489.83,408.53 490.04,412.74 490.25,416.65 490.46,418.50 490.67,417.02 490.88,413.28 491.09,409.12 491.31,405.78 491.52,404.04 491.73,404.16 491.95,406.24 492.16,410.18 492.38,415.48 492.59,421.05 492.81,423.95 493.03,420.76 493.24,414.42 493.46,407.82 493.68,402.23 493.89,398.22 494.11,396.08 494.33,395.94 494.55,397.77 494.65,399.32 494.87,403.45 495.09,408.35 495.31,413.01 495.52,415.75 495.74,415.12 495.96,411.65 496.17,407.09 496.39,402.78 496.61,399.49 496.82,397.73 497.04,397.71 497.25,399.47 497.47,402.93 497.68,407.80 497.89,413.34 498.11,418.24 498.32,420.04 498.53,417.33 498.74,412.30 498.95,407.23 499.16,403.28 499.37,401.04 499.58,400.67 499.79,402.25 500.00,405.60 500.21,410.35 500.41,416.04 500.62,422.19 500.82,427.89 501.02,430.05 501.22,426.53 501.43,422.66 501.63,419.82 501.73,418.86 501.92,417.88 502.12,418.16 502.32,419.59 502.51,421.85 502.71,424.35 502.90,425.93 503.09,424.87 503.28,421.50 503.47,417.29 503.66,413.11 503.84,409.50 504.03,406.90 504.21,405.59 504.39,405.73 504.57,407.42 504.75,410.71 504.93,415.41 505.10,421.24 505.28,427.65 505.45,430.14 505.62,423.88 505.79,416.92 505.96,410.55 506.12,405.27 506.29,401.39 506.45,399.13 506.61,398.51 506.77,399.44 506.93,401.79 507.08,405.20 507.23,409.18 507.39,413.14 507.53,416.33 507.61,417.43 507.75,418.42 507.90,418.02 508.04,416.95 508.18,415.89 508.32,415.17 508.46,414.80 508.59,414.64 508.72,414.43 508.85,414.04 508.98,413.52 509.11,413.09 509.23,412.97 509.35,413.29 509.47,413.88 509.59,414.15 509.70,413.03 509.81,409.67 509.92,404.05 510.03,396.89 510.14,389.05 510.24,381.39 510.34,374.70 510.44,369.68 510.53,366.91 510.63,366.88 510.72,369.88 510.81,376.02 510.89,385.20 510.98,397.04 511.06,410.64 511.14,421.85 511.21,415.45 511.29,399.20 511.32,390.57 511.39,373.75 511.46,358.50 511.53,345.78 511.59,336.33 511.65,330.77 511.71,329.52 511.76,332.82 511.81,340.73 511.86,353.09 511.91,369.53 511.95,389.31 512.00,410.25 512.03,416.08 512.07,393.48 512.11,364.97 512.14,335.17 512.16,305.32 512.19,276.21 512.21,248.50 512.23,222.74 512.25,199.42 512.27,178.91 512.28,161.54 512.29,147.57 512.30,137.18 512.30,130.50 512.30,127.63 512.30,221.41 512.31,221.77 512.31,223.42 512.31,226.51 512.32,231.23 512.33,237.80 512.34,241.86 512.36,251.67 512.37,263.87 512.40,278.54 512.42,295.61 512.44,314.83 512.47,335.69 512.50,357.35 512.54,378.26 512.57,395.10 512.61,400.92 512.66,392.94 512.70,379.41 512.75,366.34 512.80,356.13 512.85,349.86 512.90,347.97 512.96,350.50 513.02,357.14 513.08,367.25 513.15,379.82 513.22,393.38 513.29,405.37 513.36,410.96 513.43,407.12 513.51,399.15 513.59,391.96 513.67,387.65 513.76,387.03 513.85,390.36 513.94,397.44 514.03,407.71 514.12,420.17 514.17,426.34 514.27,423.47 514.37,409.28 514.47,395.55 514.58,383.69 514.69,374.57 514.80,368.72 514.91,366.35 515.02,367.28 515.14,370.92 515.26,376.25 515.38,381.71 515.50,385.40 515.63,385.84 515.76,383.10 515.89,378.73 516.02,374.62 516.15,372.24 516.29,372.53 516.43,375.90 516.57,382.18 516.71,390.57 516.85,399.33 517.00,405.11 517.15,403.81 517.30,396.01 517.45,385.97 517.61,376.68 517.76,369.77 517.92,366.16 518.08,366.39 518.24,370.57 518.40,378.40 518.57,389.33 518.65,395.67 518.82,409.09 518.99,419.71 519.16,416.36 519.33,404.04 519.51,391.47 519.68,380.98 519.86,373.54 520.04,369.58 520.22,369.24 520.40,372.42 520.58,378.63 520.77,387.06 520.95,396.58 521.14,405.36 521.33,410.35 521.52,409.18 521.71,403.76 521.90,397.60 522.10,392.74 522.29,390.08 522.49,389.89 522.69,392.20 522.88,396.65 523.08,402.63 523.28,409.30 523.49,415.20 523.69,417.93 523.89,416.16 524.10,411.79 524.30,407.17 524.51,403.55 524.71,401.36 524.92,400.80 525.03,401.14 525.24,402.94 525.44,406.01 525.66,410.14 525.87,414.99 526.08,420.19 526.29,425.30 526.50,428.89 526.72,427.46 526.93,423.10 527.14,418.47 527.36,414.29 527.57,410.76 527.79,408.19 528.00,406.80 528.22,406.66 528.44,407.79 528.65,410.02 528.87,412.68 529.09,414.64 529.30,414.42 529.52,411.37 529.74,406.41 529.96,400.97 530.17,396.19 530.39,392.85 530.61,391.46 530.82,392.40 531.04,395.66 531.26,401.02 531.47,408.04 531.69,415.82 531.91,422.43 532.12,423.42 532.23,421.29 532.45,415.37 532.66,409.79 532.88,405.65 533.09,403.32 533.30,402.78 533.52,403.74 533.73,405.84 533.94,408.65 534.15,411.68 534.36,414.47 534.57,416.56 534.78,417.44 534.99,416.80 535.20,414.75 535.41,411.82 535.61,408.66 535.82,405.84 536.03,403.82 536.23,403.03 536.43,403.68 536.63,405.80 536.84,409.18 537.04,413.33 537.23,417.09 537.43,418.62 537.63,416.75 537.82,412.66 538.02,408.20 538.21,404.48 538.40,402.19 538.59,401.71 538.78,403.12 538.97,406.24 539.07,408.36 539.25,413.41 539.44,418.82 539.62,423.10 539.80,423.84 539.98,421.01 540.16,417.38 540.34,414.54 540.51,413.10 540.69,413.19 540.86,414.65 541.03,416.84 541.20,418.48 541.37,417.92 541.53,414.64 541.70,409.69 541.86,404.38 542.02,399.61 542.18,395.90 542.34,393.64 542.49,392.95 542.64,393.73 542.79,395.63 542.94,397.97 543.09,399.85 543.24,400.26 543.38,398.58 543.52,394.97 543.66,390.28 543.80,385.45 543.93,381.34 544.07,378.64 544.20,377.83 544.33,379.23 544.39,380.80 544.52,385.74 544.64,392.97 544.76,402.18 544.88,412.71 545.00,422.27 545.11,421.38 545.22,410.59 545.33,398.53 545.44,387.46 545.55,378.35 545.65,371.90 545.75,368.58 545.85,368.57 545.94,371.69 546.04,377.18 546.13,383.38 546.22,387.43 546.30,385.94 546.39,377.90 546.47,365.58 546.55,352.00 546.62,339.54 546.70,329.97 546.77,324.58 546.84,324.26 546.90,329.50 546.97,340.30 547.03,356.11 547.09,375.38 547.14,393.87 547.20,398.97 547.25,382.23 547.30,356.46 547.32,342.93 547.36,316.94 547.41,294.14 547.44,275.99 547.48,263.41 547.51,256.77 547.55,255.86 547.57,259.86 547.60,267.27 547.62,275.97 547.64,283.40 547.66,287.18 547.68,286.03 547.69,280.39 547.70,272.17 547.71,263.79 547.71,257.37 547.71,254.36 547.71,307.27 547.72,307.97 547.72,310.79 547.72,314.77 547.73,318.22 547.74,319.33 547.76,317.02 547.78,311.54 547.79,304.39 547.82,297.62 547.84,293.15 547.87,292.41 547.90,296.16 547.93,304.51 547.97,316.82 548.00,331.71 548.02,339.44 548.07,353.56 548.11,362.74 548.16,364.13 548.21,358.43 548.26,349.33 548.31,340.36 548.37,333.68 548.43,330.14 548.49,329.63 548.56,331.32 548.63,333.84 548.70,335.70 548.77,335.84 548.84,334.14 548.92,331.49 549.00,329.35 549.08,329.20 549.17,332.22 549.26,339.07 549.35,349.86 549.44,364.12 549.53,380.73 549.63,397.45 549.73,408.64 549.83,405.36 549.93,392.58 550.04,379.13 550.15,368.34 550.26,361.50 550.37,359.11 550.49,361.13 550.61,367.06 550.73,376.01 550.79,381.22 550.91,392.04 551.04,401.47 551.17,406.59 551.30,405.94 551.43,402.07 551.56,398.36 551.70,396.70 551.84,397.78 551.98,401.60 552.12,407.59 552.26,414.48 552.41,419.48 552.56,418.50 552.71,412.70 552.86,406.21 553.02,401.07 553.17,398.16 553.33,397.79 553.49,399.91 553.65,404.10 553.81,409.48 553.98,414.42 554.15,416.23 554.31,413.39 554.48,407.77 554.66,401.64 554.83,396.18 555.00,391.88 555.18,388.82 555.36,386.89 555.54,385.81 555.72,385.32 555.81,385.25 555.99,385.47 556.18,386.28 556.36,387.84 556.55,390.26 556.74,393.54 556.93,397.23 557.12,400.43 557.31,401.85 557.51,400.53 557.70,396.74 557.90,391.72 558.10,386.89 558.29,383.42 558.49,382.14 558.69,383.45 558.90,387.55 559.10,394.29 559.30,403.20 559.51,413.42 559.71,423.06 559.92,424.21 560.12,415.85 560.33,407.01 560.54,399.93 560.75,395.36 560.96,393.51 561.17,394.30 561.38,397.38 561.59,402.03 561.81,407.30 562.02,412.02 562.23,415.01 562.45,415.97 562.55,415.98 562.77,415.86 562.98,416.45 563.20,418.02 563.41,419.85 563.63,420.16 563.85,417.45 564.06,412.53 564.28,407.03 564.50,402.19 564.71,398.84 564.93,397.48 565.15,398.19 565.36,400.70 565.58,404.26 565.80,407.29 566.02,407.69 566.23,404.36 566.45,398.34 566.67,391.51 566.88,385.46 567.10,381.27 567.32,379.61 567.53,380.74 567.75,384.54 567.96,390.40 568.18,396.89 568.39,401.68 568.61,402.09 568.82,397.71 569.03,390.92 569.25,384.40 569.46,379.86 569.67,378.28 569.77,378.72 569.98,382.11 570.19,388.46 570.40,396.69 570.61,404.68 570.82,408.63 571.02,405.54 571.23,397.89 571.43,389.69 571.64,383.31 571.84,380.02 572.04,380.34 572.24,384.42 572.44,392.00 572.64,402.47 572.84,414.87 573.04,427.37 573.23,424.12 573.43,412.18 573.62,401.90 573.81,394.39 574.00,390.30 574.19,389.86 574.38,392.87 574.57,398.84 574.75,406.79 574.94,414.76 575.12,418.49 575.30,414.68 575.48,407.56 575.66,401.11 575.83,397.00 576.01,395.85 576.18,397.83 576.27,399.89 576.44,405.58 576.61,411.76 576.78,414.79 576.94,411.32 577.11,403.67 577.27,395.56 577.43,389.05 577.59,385.28 577.74,384.80 577.90,387.70 578.05,393.49 578.20,400.77 578.35,406.67 578.50,406.72 578.65,399.84 578.79,389.78 578.93,379.91 579.07,372.12 579.21,367.50 579.34,366.59 579.48,369.45 579.61,375.62 579.74,384.05 579.86,392.87 579.99,399.14 580.11,399.81 580.23,395.13 580.35,388.49 580.46,382.91 580.58,380.13 580.69,380.99 580.80,385.69 580.90,393.80 580.96,398.82 581.06,409.46 581.16,416.29 581.26,411.75 581.35,400.50 581.45,388.94 581.54,379.48 581.63,373.12 581.71,370.09 581.80,369.87 581.88,371.09 581.96,371.53 582.03,368.83 582.11,361.86 582.18,351.47 582.25,339.75 582.31,328.89 582.38,320.74 582.44,316.63 582.50,317.37 582.55,323.19 582.61,333.70 582.66,347.74 582.71,363.04 582.75,375.39 582.79,378.65 582.83,370.16 582.87,354.42 582.91,336.80 582.94,320.44 582.97,306.95 583.00,297.00 583.02,290.61 583.04,287.37 583.05,286.69 583.07,286.66 583.09,287.61 583.10,288.77 583.11,289.64 583.12,290.07 583.12,290.19 583.12,290.19 583.12,198.46 583.12,199.18 583.13,202.41 583.13,208.34 583.14,217.15 583.15,229.06 583.17,244.25 583.18,262.79 583.20,284.60 583.23,309.31 583.25,336.12 583.28,363.33 583.31,386.68 583.34,394.69 583.38,380.71 583.41,358.37 583.45,336.54 583.50,318.57 583.54,306.20 583.59,300.40 583.64,301.65 583.69,309.90 583.75,324.63 583.81,344.77 583.87,368.67 583.93,393.39 583.97,403.85 584.03,407.73 584.10,389.17 584.18,367.83 584.25,349.90 584.33,337.39 584.41,331.25 584.49,331.76 584.58,338.69 584.66,351.32 584.75,368.47 584.85,388.47 584.94,408.31 585.04,416.87 585.14,403.58 585.24,386.45 585.34,371.91 585.45,361.54 585.56,355.91 585.67,355.10 585.78,358.81 585.90,366.38 586.02,376.92 586.14,389.35 586.26,402.48 586.38,414.99 586.51,424.58 586.64,424.64 586.77,418.82 586.90,414.11 587.04,411.66 587.18,411.46 587.32,413.17 587.46,416.30 587.53,418.20 587.67,422.06 587.82,424.77 587.97,424.46 588.12,421.32 588.27,417.05 588.43,412.66 588.58,408.56 588.74,405.01 588.90,402.29 589.06,400.66 589.22,400.32 589.39,401.33 589.55,403.72 589.72,407.27 589.89,411.33 590.07,414.80 590.24,416.09 590.41,414.20 590.59,410.09 590.77,405.41 590.95,401.21 591.13,398.16 591.31,396.63 591.49,396.75 591.68,398.39 591.87,401.42 592.05,405.49 592.24,410.09 592.43,414.54 592.63,417.82 592.82,418.57 593.01,416.46 593.21,412.62 593.31,410.45 593.51,406.26 593.70,402.74 593.90,400.26 594.10,399.16 594.31,399.57 594.51,401.31 594.71,403.98 594.92,406.78 595.12,408.45 595.33,407.91 595.53,405.20 595.74,401.48 595.95,397.99 596.16,395.81 596.37,395.56 596.58,397.53 596.79,401.48 597.00,406.84 597.21,412.26 597.43,415.39 597.64,414.22 597.86,410.02 598.07,405.51 598.28,402.39 598.50,401.47 598.72,402.90 598.93,406.14 599.15,409.77 599.36,411.66 599.58,410.12 599.80,405.95 600.01,401.34 600.23,398.03 600.34,397.17 600.56,397.18 600.77,399.07 600.99,401.71 601.21,403.12 601.43,401.57 601.64,397.20 601.86,391.87 602.08,387.52 602.29,385.53 602.51,386.73 602.73,391.40 602.94,399.16 603.16,409.04 603.37,418.54 603.59,420.13 603.80,411.83 604.02,402.04 604.23,394.22 604.44,389.65 604.65,388.85 604.87,391.93 605.08,398.50 605.29,407.48 605.50,416.78 605.71,420.36 605.92,413.85 606.12,404.49 606.33,396.47 606.54,391.34 606.74,389.78 606.95,391.92 607.15,397.62 607.25,401.63 607.45,411.42 607.65,422.63 607.85,430.31 608.05,420.80 608.25,411.16 608.45,403.86 608.64,399.64 608.84,398.87 609.03,401.47 609.22,406.92 609.41,414.25 609.60,420.90 609.79,420.85 609.98,413.92 610.16,405.90 610.35,399.43 610.53,395.63 610.71,394.96 610.89,397.43 611.07,402.63 611.24,409.23 611.42,414.11 611.59,412.56 611.76,404.70 611.93,394.72 612.10,385.35 612.27,377.99 612.43,373.37 612.60,371.91 612.76,373.64 612.92,378.19 613.08,384.79 613.23,392.29 613.31,395.89 613.46,401.45 613.61,403.21 613.76,401.06 613.91,396.91 614.06,392.83 614.20,390.10 614.34,389.36 614.48,390.76 614.62,394.05 614.75,398.82 614.89,404.50 615.02,410.47 615.15,416.02 615.27,420.34 615.40,422.71 615.52,422.92 615.64,421.58 615.76,419.29 615.87,416.26 615.99,412.52 616.10,408.22 616.21,403.67 616.31,399.26 616.42,395.43 616.52,392.69 616.62,391.48 616.72,392.21 616.81,395.18 616.90,400.55 616.99,408.20 617.08,417.12 617.16,421.78 617.25,413.11 617.29,406.01 617.37,390.07 617.44,373.58 617.52,357.98 617.59,344.51 617.66,334.30 617.72,328.37 617.79,327.49 617.85,332.19 617.91,342.55 617.96,358.18 618.02,377.79 618.07,397.49 618.12,403.26 618.16,384.53 618.20,356.88 618.24,328.37 618.28,301.93 618.32,279.27 618.35,261.53 618.38,249.32 618.41,242.81 618.43,241.66 618.45,245.12 618.47,252.06 618.49,261.09 618.50,270.78 618.51,279.83 618.52,287.24 618.53,292.48 618.53,295.37 618.53,352.57 618.53,352.77 618.54,357.29 618.54,361.62 618.54,373.33 618.55,386.06 618.56,392.65 618.58,385.65 618.59,368.74 618.61,349.32 618.64,331.69 618.66,318.23 618.69,310.33 618.72,308.66 618.75,313.23 618.78,323.50 618.82,338.33 618.86,356.07 618.91,374.39 618.95,389.88 619.00,397.73 619.05,395.79 619.10,389.02 619.16,382.69 619.22,378.94 619.28,377.85 619.34,378.16 619.41,377.78 619.48,374.72 619.55,368.44 619.62,360.16 619.70,351.95 619.78,345.77 619.86,343.09 619.94,344.81 620.03,351.14 620.12,361.57 620.16,367.93 620.26,381.34 620.35,391.73 620.45,392.64 620.55,383.11 620.65,369.26 620.75,356.11 620.86,346.38 620.97,341.52 621.08,342.21 621.19,348.53 621.31,359.99 621.43,375.57 621.55,393.60 621.67,410.83 621.79,415.93 621.92,403.32 622.05,388.21 622.18,375.84 622.31,367.74 622.45,364.44 622.59,365.90 622.73,371.65 622.87,380.63 623.01,391.17 623.16,400.72 623.30,405.68 623.45,403.99 623.60,398.55 623.76,393.30 623.91,390.43 624.07,390.77 624.23,394.47 624.39,401.18 624.47,405.47 624.63,415.31 624.80,425.60 624.96,428.68 625.13,420.28 625.30,412.77 625.47,407.69 625.65,405.45 625.82,405.96 626.00,408.80 626.18,413.04 626.36,417.01 626.54,418.35 626.72,416.12 626.90,412.28 627.09,408.98 627.28,407.31 627.46,407.71 627.65,410.18 627.84,414.45 628.04,419.84 628.23,425.52 628.42,429.86 628.62,429.05 628.82,426.10 629.01,423.90 629.21,422.47 629.41,421.10 629.61,419.04 629.82,416.23 630.02,413.26 630.22,411.06 630.43,410.42 630.63,411.80 630.74,413.28 630.94,417.71 631.15,423.23 631.36,426.10 631.57,421.55 631.78,414.23 631.99,407.50 632.20,402.56 632.41,400.13 632.62,400.63 632.84,404.17 633.05,410.46 633.26,418.97 633.48,428.25 633.69,425.90 633.91,415.53 634.12,405.76 634.34,397.88 634.56,392.65 634.77,390.55 634.99,391.83 635.21,396.44 635.42,403.88 635.64,413.21 635.86,421.86 636.08,421.34 636.29,411.96 636.51,401.79 636.73,393.31 636.94,387.59 637.16,385.15 637.38,386.28 637.59,390.83 637.81,398.33 637.92,402.92 638.14,413.01 638.35,421.34 638.57,419.90 638.78,410.99 639.00,401.82 639.21,394.65 639.43,390.33 639.64,389.31 639.85,391.67 640.06,397.09 640.28,405.01 640.49,414.43 640.70,422.81 640.91,422.63 641.12,414.63 641.33,406.33 641.53,399.86 641.74,396.01 641.95,395.17 642.15,397.33 642.36,402.10 642.56,408.87 642.76,416.35 642.96,421.62 643.16,420.16 643.36,414.09 643.56,407.93 643.76,403.53 643.95,401.61 644.15,402.42 644.34,406.01 644.54,411.95 644.73,419.55 644.82,423.61 645.01,428.81 645.20,422.82 645.39,414.80 645.57,407.89 645.76,402.88 645.94,400.07 646.12,399.41 646.30,400.38 646.48,402.15 646.65,403.65 646.83,403.83 647.00,402.37 647.17,399.85 647.34,397.22 647.51,395.28 647.68,394.32 647.84,394.14 648.01,394.15 648.17,393.61 648.33,391.99 648.49,389.31 648.64,386.21 648.80,383.64 648.95,382.51 649.10,383.50 649.25,386.97 649.39,392.87 649.54,400.69 649.68,409.03 649.82,414.27 649.96,411.36 650.09,402.16 650.16,396.77 650.30,386.15 650.43,377.01 650.56,370.32 650.68,366.65 650.81,366.22 650.93,368.95 651.05,374.40 651.17,381.70 651.28,389.28 651.40,394.60 651.51,394.79 651.62,389.31 651.72,380.48 651.83,370.94 651.93,362.53 652.03,356.44 652.13,353.40 652.22,353.84 652.31,357.87 652.40,365.36 652.49,375.89 652.57,388.82 652.66,403.22 652.74,417.46 652.81,424.31 652.89,414.89 652.96,403.36 653.03,393.94 653.10,387.58 653.16,384.56 653.23,384.54 653.29,386.41 653.34,387.90 653.37,387.54 653.43,382.91 653.48,372.72 653.52,358.59 653.57,342.83 653.61,327.46 653.65,314.09 653.69,303.97 653.73,297.99 653.76,296.70 653.79,300.25 653.82,308.43 653.84,320.66 653.86,336.02 653.88,353.25 653.90,370.75 653.91,386.49 653.92,397.85 653.93,402.57 653.94,401.86 653.94,399.81 653.94,399.20 653.94,320.57 653.95,319.30 653.95,316.35 653.96,311.86 653.97,306.07 653.98,299.42 654.00,292.52 654.01,286.11 654.03,280.98 654.06,277.89 654.08,277.50 654.11,280.28 654.13,282.97 654.16,291.00 654.19,302.46 654.23,317.02 654.27,334.05 654.32,352.60 654.36,371.24 654.41,387.54 654.46,397.18 654.51,396.02 654.57,387.16 654.63,376.52 654.69,367.35 654.75,361.02 654.82,358.07 654.89,358.56 654.96,362.20 655.03,368.45 655.11,376.50 655.19,385.34 655.27,393.70 655.35,400.19 655.44,403.69 655.53,404.26 655.62,403.23 655.71,402.18 655.81,402.05 655.91,403.05 656.01,404.67 656.11,405.80 656.22,405.09 656.32,401.84 656.43,396.63 656.55,390.65 656.60,387.74 656.72,382.65 656.84,379.15 656.96,377.76 657.08,378.73 657.20,382.04 657.33,387.44 657.46,394.42 657.59,402.17 657.72,409.32 657.86,413.61 658.00,413.08 658.14,408.99 658.28,404.12 658.42,400.19 658.57,398.07 658.71,398.13 658.86,400.41 659.01,404.68 659.17,410.44 659.32,416.80 659.48,421.71 659.64,421.36 659.80,416.05 659.96,409.41 660.12,403.18 660.29,398.04 660.46,394.26 660.63,391.89 660.80,390.77 660.97,390.69 661.14,391.38 661.32,392.52 661.50,393.84 661.59,394.48 661.77,395.73 661.95,396.97 662.13,398.23 662.31,399.63 662.50,401.32 662.69,403.41 662.87,405.93 663.06,408.69 663.25,411.36 663.45,413.34 663.64,413.97 663.83,412.93 664.03,410.66 664.23,408.07 664.42,405.95 664.62,404.83 664.82,404.88 665.02,406.01 665.23,407.72 665.43,409.07 665.63,409.06 665.84,407.27 666.04,404.22 666.25,400.87 666.46,398.19 666.66,396.84 666.87,397.24 667.08,399.38 667.29,403.07 667.50,407.79 667.72,412.58 667.93,415.94 668.14,416.41 668.25,415.51 668.46,412.38 668.67,408.91 668.89,406.18 669.10,404.77 669.32,404.73 669.53,405.94 669.75,408.06 669.97,410.46 670.18,412.42 670.40,413.39 670.62,413.23 670.83,412.38 671.05,411.51 671.27,411.24 671.48,411.92 671.70,413.64 671.92,416.34 672.14,419.71 672.35,423.05 672.57,425.22 672.79,424.78 673.00,422.30 673.22,419.32 673.44,416.69 673.65,414.84 673.87,413.84 674.08,413.56 674.30,413.82 674.51,414.30 674.73,414.62 674.94,414.57 675.16,414.16 675.37,413.57 675.47,413.27 675.69,412.90 675.90,412.98 676.11,413.64 676.32,414.78 676.53,416.35 676.74,418.01 676.94,419.40 677.15,420.24 677.36,420.41 677.56,419.95 677.77,419.18 677.97,418.21 678.17,416.91 678.37,415.00 678.57,412.23 678.77,408.41 678.97,403.66 679.17,398.32 679.36,392.87 679.56,387.79 679.75,383.57 679.95,380.69 680.14,379.49 680.33,380.14 680.52,382.62 680.70,386.69 680.89,391.67 681.07,396.45 681.26,399.53 681.44,399.66 681.62,396.82 681.80,392.30 681.98,387.67 682.06,385.71 682.24,383.03 682.41,382.44 682.58,384.06 682.75,387.80 682.92,393.29 683.09,399.87 683.25,406.55 683.42,411.92 683.58,414.48 683.74,413.85 683.90,411.60 684.05,409.54 684.21,408.70 684.36,409.48 684.51,411.83 684.66,415.27 684.80,418.59 684.95,419.76 685.09,417.45 685.23,412.91 685.37,407.98 685.50,403.85 685.64,401.23 685.77,400.45 685.90,401.66 686.03,404.72 686.15,409.18 686.28,414.00 686.40,417.05 686.52,415.74 686.63,410.48 686.75,403.72 686.86,397.20 686.92,394.37 687.03,389.99 687.13,387.72 687.24,387.84 687.34,390.42 687.44,395.33 687.53,402.25 687.63,410.66 687.72,419.60 687.81,425.77 687.90,421.85 687.98,413.71 688.07,406.16 688.15,400.42 688.22,397.14 688.30,396.70 688.37,399.27 688.44,404.87 688.51,413.28 688.57,424.07 688.64,429.91 688.70,416.26 688.75,401.44 688.81,386.72 688.86,372.94 688.91,360.84 688.96,351.07 689.00,344.12 689.04,340.29 689.08,339.60 689.12,341.74 689.15,345.95 689.18,350.91 689.20,353.09 689.23,355.42 689.25,353.36 689.27,346.09 689.29,334.45 689.31,320.26 689.32,305.38 689.33,291.42 689.34,279.60 689.35,270.85 689.35,265.78 689.35,260.15 689.35,260.18 689.35,260.82 689.36,262.32 689.37,264.70 689.38,267.96 689.39,272.13 689.40,277.22 689.42,283.25 689.44,290.21 689.47,298.08 689.49,306.82 689.52,316.33 689.55,326.50 689.59,337.14 689.62,347.99 689.66,358.73 689.70,368.92 689.75,377.97 689.79,385.19 689.84,389.83 689.90,391.50 689.95,390.51 689.98,389.28 690.04,386.06 690.10,382.57 690.16,379.51 690.23,377.33 690.30,376.32 690.37,376.60 690.44,378.22 690.52,381.15 690.60,385.26 690.68,390.33 690.76,396.06 690.85,402.01 690.94,407.56 691.03,411.76 691.12,413.50 691.22,412.40 691.32,409.36 691.42,405.64 691.52,402.19 691.63,399.52 691.73,397.89 691.84,397.37 691.96,397.90 692.07,399.29 692.19,401.23 692.31,403.27 692.43,404.93 692.55,405.80 692.68,405.72 692.80,404.86 692.93,403.56 693.07,402.22 693.20,401.17 693.27,400.81 693.41,400.40 693.55,400.33 693.69,400.37 693.83,400.35 693.98,400.11 694.12,399.61 694.27,399.09 694.42,398.86 694.58,399.26 694.73,400.52 694.89,402.78 695.05,406.01 695.21,409.83 695.37,413.41 695.53,415.45 695.70,414.73 695.87,411.45 696.04,407.04 696.21,402.81 696.38,399.54 696.55,397.72 696.73,397.61 696.91,399.22 697.09,402.30 697.27,406.53 697.45,411.35 697.63,415.96 697.82,419.42 698.00,421.02 698.19,420.94 698.38,420.34 698.57,420.21 698.76,420.90 698.86,421.51 699.05,422.94 699.24,423.63 699.44,422.43 699.64,419.54 699.83,415.98 700.03,412.69 700.23,410.36 700.43,409.34 700.63,409.83 700.84,411.86 701.04,415.17 701.25,419.02 701.45,421.84 701.66,421.14 701.87,416.81 702.07,411.00 702.28,405.23 702.49,400.33 702.70,396.75 702.91,394.79 703.13,394.63 703.34,396.21 703.55,399.35 703.76,403.75 703.98,408.90 704.19,414.00 704.41,417.96 704.62,419.45 704.84,418.19 705.05,415.60 705.27,413.12 705.48,411.57 705.70,411.26 705.81,411.61 706.03,413.33 706.24,416.27 706.46,420.10 706.68,424.46 706.89,428.50 707.11,429.42 707.33,426.33 707.55,422.62 707.76,419.40 707.98,416.91 708.20,415.13 708.41,414.05 708.63,413.47 708.85,413.17 709.06,413.06 709.28,413.12 709.49,413.41 709.71,414.05 709.92,415.17 710.14,416.70 710.35,418.29 710.56,419.30 710.78,418.97 710.99,416.98 711.20,413.89 711.41,410.57 711.62,407.79 711.83,406.01 712.04,405.53 712.25,406.43 712.46,408.46 712.66,410.97 712.87,413.05 712.97,413.59 713.17,413.24 713.38,411.30 713.58,408.81 713.78,406.89 713.98,406.33 714.18,407.53 714.38,410.56 714.58,415.33 714.77,421.41 714.97,428.22 715.16,432.15 715.36,425.92 715.55,420.48 715.74,416.59 715.93,414.47 716.11,414.16 716.30,415.24 716.48,416.72 716.67,417.02 716.85,414.88 717.03,410.61 717.21,405.61 717.38,401.13 717.56,398.02 717.73,396.95 717.91,398.26 718.08,401.95 718.25,407.69 718.41,414.57 718.58,419.94 718.74,418.33 718.91,410.49 719.07,401.07 719.15,396.53 719.30,388.56 719.46,382.81 719.61,379.87 719.77,380.01 719.92,383.26 720.07,389.37 720.21,397.63 720.36,406.49 720.50,412.44 720.64,410.47 720.78,401.76 720.91,391.11 721.05,381.23 721.18,373.49 721.31,368.66 721.44,367.15 721.56,369.07 721.69,374.26 721.81,382.21 721.93,392.02 722.04,402.15 722.16,409.84 722.27,411.14 722.38,406.05 722.49,399.05 722.59,393.24 722.70,390.11 722.80,390.33 722.90,394.04 722.99,400.87 723.09,409.60 723.18,416.52 723.27,413.76 723.31,408.67 723.39,395.83 723.48,382.77 723.56,371.55 723.63,363.51 723.71,359.62 723.78,360.53 723.85,366.48 723.92,377.19 723.98,391.40 724.05,404.61 724.11,403.47 724.16,384.40 724.22,358.84 724.27,332.08 724.32,306.58 724.37,284.03 724.41,265.69 724.45,252.46 724.49,244.73 724.53,242.30 724.56,244.26 724.59,248.86 724.62,253.47 724.65,254.91 724.67,250.30 724.69,238.35 724.71,219.94 724.73,197.51 724.74,174.03 724.75,152.27 724.76,134.49 724.76,122.37 724.76,116.98 724.76,116.76 724.76,265.12 724.76,267.63 724.77,272.92 724.78,279.73 724.79,286.21 724.80,290.42 724.81,290.96 724.83,287.71 724.85,281.90 724.88,275.57 724.90,270.88 724.93,269.59 724.96,272.92 725.00,281.44 725.03,295.09 725.07,313.19 725.11,334.37 725.16,356.19 725.20,374.23 725.25,381.33 725.31,373.99 725.36,358.71 725.42,342.53 725.48,329.11 725.54,320.17 725.61,316.47 725.67,318.13 725.74,324.77 725.82,335.59 725.89,349.41 725.97,364.59 726.05,378.87 726.13,389.13 726.17,391.68 726.26,390.94 726.35,384.99 726.44,377.84 726.53,372.01 726.63,368.67 726.73,368.21 726.83,370.49 726.93,375.04 727.04,381.12 727.14,387.82 727.25,394.03 727.37,398.56 727.48,400.53 727.60,399.93 727.72,397.71 727.84,395.01 727.96,392.69 728.09,391.24 728.21,390.98 728.34,392.04 728.48,394.46 728.61,398.18 728.75,403.07 728.88,408.88 729.03,415.10 729.17,420.48 729.31,422.41 729.46,419.40 729.61,414.15 729.76,408.92 729.91,404.75 730.06,402.06 730.14,401.31 730.30,400.96 730.46,401.93 730.62,403.61 730.78,405.11 730.94,405.50 731.11,404.40 731.28,402.10 731.45,399.51 731.62,397.61 731.79,397.13 731.96,398.51 732.14,401.93 732.32,407.27 732.50,413.93 732.68,420.45 732.86,422.76 733.04,417.90 733.23,410.51 733.41,403.56 733.60,398.23 733.79,395.17 733.98,394.74 734.17,396.97 734.36,401.70 734.56,408.54 734.75,416.62 734.95,423.87 735.14,423.85 735.34,416.76 735.54,409.09 735.74,402.80 735.94,398.68 736.15,397.17 736.25,397.44 736.45,399.92 736.66,404.80 736.86,411.53 737.07,419.02 737.28,424.39 737.48,422.07 737.69,415.25 737.90,408.58 738.11,403.54 738.32,400.80 738.53,400.72 738.75,403.27 738.96,408.28 739.17,415.37 739.39,423.67 739.60,429.42 739.82,422.71 740.03,413.86 740.25,406.02 740.46,399.92 740.68,396.07 740.89,394.68 741.11,395.71 741.33,398.91 741.54,403.75 741.76,409.20 741.98,413.73 742.20,415.31 742.41,413.24 742.63,409.17 742.85,405.11 743.06,402.18 743.28,400.86 743.39,400.86 743.61,402.20 743.82,405.05 744.04,409.04 744.26,413.72 744.47,418.51 744.69,422.59 744.90,424.79 745.12,423.92 745.33,420.71 745.55,416.35 745.76,411.56 745.97,406.76 746.19,402.36 746.40,398.91 746.61,396.97 746.82,396.92 747.03,399.12 747.24,403.66 747.45,410.27 747.66,418.28 747.87,425.47 748.07,423.80 748.28,415.65 748.48,407.54 748.69,401.24 748.89,397.55 749.09,396.79 749.29,398.96 749.49,403.58 749.69,409.33 749.89,413.56 750.09,412.78 750.28,407.00 750.38,403.31 750.57,396.09 750.76,390.47 750.96,387.51 751.15,387.63 751.33,390.73 751.52,396.12 751.71,402.26 751.89,406.11 752.08,404.33 752.26,397.26 752.44,388.14 752.62,379.63 752.79,373.36 752.97,370.26 753.14,370.89 753.32,375.38 753.49,383.48 753.66,394.46 753.82,407.01 753.99,417.47 754.15,415.88 754.32,404.23 754.48,391.48 754.64,380.51 754.79,372.50 754.95,368.14 755.10,367.63 755.25,370.92 755.40,377.70 755.55,387.35 755.69,398.92 755.84,410.88 755.98,419.63 756.05,420.21 756.19,413.51 756.32,404.11 756.46,395.93 756.59,390.13 756.72,387.08 756.85,386.72 756.97,388.75 757.10,392.58 757.22,397.30 757.34,401.71 757.45,404.51 757.57,404.95 757.68,403.43 757.79,401.13 757.90,399.23 758.00,398.50 758.11,399.33 758.21,401.79 758.31,405.66 758.40,410.52 758.49,415.71 758.59,420.15 758.67,422.20 758.76,421.00 758.84,418.03 758.93,414.93 759.00,412.53 759.08,411.11 759.15,410.68 759.23,411.11 759.29,412.17 759.36,413.56 759.42,414.99 759.46,415.64 759.52,416.63 759.57,417.10 759.63,416.88 759.68,415.87 759.73,413.96 759.78,411.07 759.82,407.14 759.86,402.18 759.90,396.17 759.94,389.13 759.97,381.07 760.00,372.02 760.03,362.08 760.06,351.38 760.08,340.16 760.10,328.72 760.12,317.43 760.13,306.71 760.15,297.03 760.16,288.80 760.16,282.42 760.17,278.21 760.17,276.36 760.17,276.28 760.17,311.21 760.18,319.21 760.18,332.00 760.19,346.25 760.20,356.03 760.22,354.25 760.23,339.48 760.25,317.16 760.27,293.22 760.29,281.97 760.31,262.68 760.34,249.34 760.37,243.22 760.41,244.97 760.44,254.62 760.48,271.64 760.52,295.06 760.57,323.45 760.61,355.01 760.66,387.23 760.72,412.91 760.77,403.95 760.83,378.87 760.89,356.12 760.95,338.47 761.01,326.85 761.08,321.51 761.15,322.27 761.22,328.51 761.30,339.29 761.38,353.35 761.46,369.12 761.54,384.53 761.63,396.52 761.71,401.08 761.80,397.36 761.89,389.82 761.99,382.34 762.09,376.63 762.19,373.23 762.29,372.17 762.39,373.16 762.50,375.77 762.55,377.55 762.66,381.77 762.77,386.61 762.89,391.78 763.01,397.00 763.13,401.93 763.25,406.02 763.37,408.38 763.50,408.16 763.62,405.40 763.75,401.07 763.89,396.29 764.02,391.96 764.16,388.71 764.29,386.93 764.43,386.74 764.58,388.01 764.72,390.37 764.87,393.19 765.02,395.64 765.17,396.83 765.32,396.24 765.47,394.05 765.63,391.04 765.79,388.10 765.95,385.98 766.11,385.19 766.27,385.94 766.44,388.33 766.60,392.25 766.77,397.39 766.94,403.29 767.11,409.37 767.29,414.80 767.37,416.90 767.55,418.98 767.73,418.03 767.91,415.30 768.09,412.26 768.27,409.68 768.45,407.87 768.63,406.98 768.82,407.01 769.01,407.92 769.20,409.61 769.39,412.05 769.58,415.12 769.77,418.64 769.96,422.33 770.16,425.44 770.36,426.31 770.55,424.16 770.75,420.49 770.95,416.65 771.15,413.28 771.35,410.70 771.56,409.13 771.76,408.74 771.96,409.53 772.17,411.40 772.37,414.20 772.58,417.60 772.79,420.95 773.00,423.21 773.21,423.09 773.42,420.67 773.63,417.25 773.73,415.50 773.94,412.33 774.16,409.88 774.37,408.36 774.58,407.90 774.80,408.58 775.01,410.33 775.22,413.03 775.44,416.58 775.66,420.70 775.87,425.01 776.09,428.86 776.30,429.88 776.52,427.31 776.74,424.20 776.95,421.54 777.17,419.47 777.39,417.79 777.60,416.18 777.82,414.38 778.04,412.26 778.26,409.89 778.47,407.54 778.69,405.58 778.91,404.17 779.12,403.31 779.34,402.80 779.56,402.34 779.77,401.54 779.99,400.40 780.21,399.22 780.42,398.57 780.64,399.00 780.85,400.98 780.96,402.62 781.17,407.02 781.38,412.36 781.60,417.05 781.81,418.10 782.02,414.20 782.23,407.96 782.44,401.76 782.65,396.80 782.86,393.57 783.07,392.15 783.28,392.34 783.48,393.59 783.69,395.12 783.89,396.15 784.10,396.17 784.30,395.08 784.50,393.26 784.70,391.25 784.90,389.62 785.10,388.58 785.30,388.21 785.50,388.46 785.69,389.18 785.89,390.16 786.08,391.32 786.27,392.68 786.46,394.32 786.65,396.32 786.84,398.69 787.02,401.41 787.21,404.25 787.39,406.79 787.58,408.56 787.67,409.02 787.85,409.05 788.03,408.03 788.20,406.42 788.38,404.74 788.55,403.40 788.73,402.66 788.90,402.64 789.07,403.29 789.23,404.56 789.40,406.39 789.56,408.63 789.73,411.18 789.89,413.94 790.05,416.89 790.20,419.94 790.36,422.94 790.51,425.70 790.66,427.89 790.81,429.10 790.96,429.21 791.10,428.80 791.25,428.38 791.39,427.94 791.53,427.01 791.67,425.08 791.80,422.13 791.93,418.47 792.06,414.58 792.19,410.99 792.32,408.17 792.44,406.49 792.57,406.32 792.69,407.86 792.75,409.28 792.86,413.30 792.98,418.23 793.09,421.70 793.20,419.31 793.31,411.63 793.41,402.02 793.52,392.15 793.62,382.95 793.72,375.02 793.81,368.80 793.90,364.48 794.00,362.04 794.08,361.21 794.17,361.55 794.25,362.48 794.34,363.40 794.41,363.88 794.49,363.76 794.56,363.23 794.64,362.58 794.70,361.98 794.77,361.21 794.83,359.50 794.90,355.58 794.95,348.20 795.01,336.74 795.06,321.54 795.11,303.67 795.16,284.56 795.21,265.66 795.25,248.34 795.29,233.77 795.33,222.83 795.35,218.92 795.38,214.41 795.41,214.26 795.44,218.08 795.47,225.05 795.49,234.01 795.51,243.56 795.53,252.26 795.54,258.96 795.56,263.08 795.57,264.78 795.57,264.81 795.58,264.18 795.58,263.73 795.58,290.28 795.58,289.78 795.59,287.65 795.59,284.18 795.60,279.98 795.61,275.86 795.63,272.74 795.64,271.55 795.66,273.12 795.68,278.12 795.71,286.93 795.73,299.59 795.76,315.80 795.80,334.88 795.83,355.79 795.87,377.15 795.91,396.97 795.95,411.47 796.00,413.63 796.05,406.69 796.07,403.09 796.12,398.26 796.18,397.47 796.24,400.50 796.30,405.78 796.36,409.55 796.42,406.59 796.49,396.96 796.56,384.91 796.63,373.57 796.71,364.78 796.79,359.68 796.87,358.86 796.95,362.33 797.03,369.50 797.12,378.96 797.21,388.21 797.30,393.31 797.40,391.08 797.50,383.03 797.60,373.23 797.70,364.75 797.80,359.25 797.91,357.51 798.02,359.57 798.13,364.80 798.24,371.96 798.36,379.16 798.47,384.07 798.60,384.93 798.72,382.04 798.84,377.50 798.97,373.60 799.10,371.84 799.16,372.02 799.30,374.62 799.43,379.87 799.57,386.76 799.70,393.42 799.84,397.34 799.99,396.61 800.13,392.00 800.28,386.04 800.43,380.98 800.58,378.12 800.73,378.04 800.88,380.84 801.04,386.19 801.20,393.37 801.36,401.28 801.52,408.36 801.68,412.77 801.85,413.41 802.01,411.61 802.18,409.66 802.35,408.84 802.52,409.47 802.70,411.22 802.87,413.08 803.05,413.65 803.22,412.11 803.40,409.00 803.59,405.63 803.77,403.14 803.95,402.23 804.14,403.27 804.32,406.30 804.51,411.01 804.61,413.74 804.80,419.10 804.99,421.84 805.18,419.21 805.37,413.48 805.57,407.45 805.77,402.27 805.96,398.54 806.16,396.40 806.36,395.67 806.56,396.08 806.76,397.23 806.96,398.55 807.17,399.73 807.37,400.65 807.58,401.39 807.78,402.30 807.99,403.73 808.20,405.77 808.41,408.31 808.62,410.88 808.83,412.53 809.04,412.45 809.25,410.43 809.46,407.25 809.67,404.12 809.89,401.86 810.10,401.17 810.31,402.45 810.53,405.73 810.74,410.74 810.96,416.90 811.17,422.46 811.39,423.50 811.50,421.68 811.71,416.17 811.93,410.97 812.15,407.45 812.36,406.17 812.58,407.33 812.80,410.73 813.01,415.79 813.23,421.56 813.45,425.64 813.67,423.90 813.88,418.49 814.10,412.87 814.32,408.16 814.53,404.77 814.75,402.92 814.97,402.77 815.18,404.30 815.40,407.24 815.61,410.93 815.83,413.99 816.04,414.20 816.26,410.62 816.47,404.72 816.69,398.42 816.90,393.05 817.11,389.37 817.32,387.91 817.54,388.76 817.75,391.67 817.96,396.13 818.16,401.37 818.37,406.13 818.48,407.90 818.68,409.52 818.89,408.48 819.10,405.77 819.30,402.53 819.51,399.53 819.71,397.10 819.91,395.25 820.11,393.90 820.31,393.15 820.51,393.15 820.71,394.13 820.90,396.33 821.10,399.99 821.29,405.18 821.49,411.73 821.68,419.27 821.87,426.80 822.06,428.05 822.25,421.28 822.43,414.32 822.62,408.72 822.80,405.04 822.99,403.61 823.17,404.43 823.35,407.40 823.52,412.23 823.70,418.34 823.88,424.74 824.05,428.01 824.22,423.79 824.39,417.61 824.56,411.99 824.73,407.50 824.81,405.73 824.97,403.14 825.14,401.78 825.30,401.52 825.45,402.13 825.61,403.49 825.77,405.50 825.92,408.13 826.07,411.32 826.22,414.86 826.37,418.47 826.51,421.59 826.66,423.35 826.80,423.31 826.94,422.19 827.07,421.10 827.21,420.52 827.34,420.14 827.47,418.93 827.60,415.64 827.73,409.99 827.85,402.74 827.98,394.92 828.10,387.60 828.21,381.71 828.33,378.05 828.44,377.27 828.55,379.81 828.66,385.81 828.77,395.10 828.87,407.14 828.98,420.74 829.08,426.77 829.17,413.56 829.22,406.30 829.31,392.82 829.41,381.82 829.49,374.20 829.58,370.50 829.66,370.87 829.74,375.02 829.82,382.15 829.90,390.94 829.97,399.33 830.05,404.66 830.11,405.33 830.18,403.10 830.24,401.27 830.31,401.95 830.36,405.40 830.42,408.88 830.47,405.12 830.52,390.55 830.57,369.14 830.62,344.55 830.66,319.27 830.70,295.33 830.74,274.49 830.77,258.17 830.81,247.40 830.84,242.71 830.86,244.04 830.89,250.76 830.91,261.63 830.93,274.89 830.95,288.45 830.96,300.18 830.97,308.55 830.98,311.31 830.98,314.31 830.99,315.13 830.99,315.17 830.99,315.17 830.99,312.53 830.99,308.54 831.00,300.72 831.01,288.72 831.02,273.07 831.03,255.28 831.05,237.50 831.07,222.08 831.09,211.20 831.12,206.63 831.14,209.59 831.17,220.64 831.21,239.62 831.24,265.62 831.28,296.86 831.32,330.40 831.36,360.86 831.41,377.01 831.46,368.68 831.51,347.04 831.56,325.14 831.62,308.50 831.68,299.37 831.74,298.57 831.80,305.99 831.87,320.82 831.94,341.67 832.01,366.71 832.08,393.63 832.12,406.74 832.20,421.77 832.28,404.19 832.36,384.94 832.44,370.55 832.53,362.22 832.62,360.27 832.71,364.40 832.81,373.81 832.91,387.24 833.01,402.88 833.11,417.21 833.21,418.57 833.32,406.87 833.43,395.03 833.54,386.36 833.65,381.79 833.77,381.47 833.88,385.05 834.00,391.67 834.13,399.87 834.25,407.26 834.38,410.33 834.51,407.42 834.64,401.52 834.77,395.90 834.91,392.23 835.04,391.15 835.18,392.67 835.32,396.28 835.47,400.99 835.61,405.38 835.76,407.94 835.91,407.90 835.99,407.10 836.14,404.94 836.29,403.25 836.45,402.88 836.61,404.13 836.77,406.78 836.93,410.09 837.09,412.92 837.26,414.08 837.42,413.34 837.59,411.61 837.76,410.13 837.93,409.76 838.11,410.62 838.28,412.20 838.46,413.33 838.63,412.60 838.81,409.56 839.00,405.24 839.18,401.08 839.36,398.29 839.55,397.72 839.73,399.72 839.92,404.18 840.11,410.41 840.30,416.28 840.49,417.23 840.69,411.37 840.88,402.90 841.08,395.15 841.27,389.78 841.47,387.72 841.67,389.40 841.87,394.87 841.97,398.81 842.17,408.21 842.37,416.61 842.58,415.87 842.78,405.90 842.99,394.37 843.19,384.64 843.40,378.31 843.61,376.14 843.82,378.21 844.03,384.02 844.24,392.18 844.45,400.07 844.66,403.59 844.87,400.29 845.08,393.06 845.29,385.83 845.51,380.99 845.72,379.66 845.94,382.12 846.15,387.98 846.37,396.40 846.58,405.91 846.80,413.83 847.01,415.76 847.23,411.16 847.45,404.82 847.66,399.84 847.88,397.42 848.10,398.04 848.32,401.69 848.53,408.00 848.75,416.31 848.97,425.46 849.08,428.84 849.29,424.10 849.51,415.03 849.73,406.99 849.94,400.97 850.16,397.32 850.38,396.21 850.59,397.52 850.81,400.81 851.02,405.27 851.24,409.90 851.45,413.20 851.67,413.89 851.88,412.12 852.10,409.30 852.31,406.68 852.52,404.89 852.73,404.11 852.94,404.21 853.16,404.73 853.37,405.24 853.57,405.46 853.78,405.23 853.99,404.65 854.20,403.95 854.40,403.30 854.61,402.64 854.81,401.77 855.02,400.46 855.22,398.67 855.42,396.46 855.62,394.23 855.82,392.51 856.02,391.79 856.12,391.91 856.31,393.25 856.51,396.07 856.70,399.97 856.90,404.00 857.09,406.50 857.28,405.75 857.47,401.52 857.66,395.25 857.84,388.71 858.03,383.25 858.21,379.85 858.40,379.04 858.58,381.18 858.76,386.35 858.93,394.33 859.11,404.57 859.29,416.04 859.46,424.93 859.63,419.26 859.80,407.49 859.97,396.22 860.14,386.87 860.30,380.17 860.46,376.56 860.63,376.15 860.79,378.75 860.94,383.92 861.10,390.85 861.25,398.26 861.41,404.27 861.56,406.79 861.70,405.17 861.85,401.22 861.92,399.13 862.07,395.79 862.21,394.47 862.35,395.65 862.48,399.39 862.62,405.53 862.75,413.61 862.88,422.90 863.01,430.79 863.14,424.10 863.26,415.42 863.39,408.22 863.51,403.20 863.62,400.74 863.74,400.88 863.85,403.16 863.96,406.36 864.07,408.03 864.18,405.33 864.28,397.91 864.39,387.87 864.49,377.36 864.58,367.98 864.68,360.91 864.77,357.01 864.86,356.86 864.95,360.77 865.03,368.67 865.11,380.13 865.19,394.15 865.27,408.29 865.35,414.35 865.42,404.25 865.45,396.41 865.52,380.11 865.59,365.43 865.65,353.92 865.71,346.55 865.77,343.91 865.83,346.25 865.88,353.43 865.93,364.91 865.98,379.57 866.03,394.95 866.07,404.39 866.11,397.83 866.15,379.89 866.18,358.75 866.22,337.66 866.25,318.02 866.27,300.51 866.30,285.49 866.32,273.02 866.34,262.98 866.36,255.15 866.37,249.19 866.38,244.81 866.39,241.73 866.40,239.73 866.40,238.66 866.40,238.42 866.40,273.08 866.40,274.25 866.40,276.91 866.41,280.92 866.41,286.05 866.42,292.02 866.43,295.23 866.44,301.91 866.45,308.70 866.46,315.37 866.48,321.78 866.49,327.87 866.51,333.68 866.53,339.32 866.55,344.90 866.58,350.57 866.60,356.39 866.63,362.36 866.66,368.39 866.68,374.27 866.72,379.74 866.75,384.48 866.78,388.19 866.82,390.68 866.86,391.96 866.89,392.28 866.93,391.97 866.98,391.39 867.02,390.80 867.07,390.34 867.11,390.01 867.16,389.76 867.21,389.48 867.26,389.12 867.31,388.65 867.37,388.16 867.42,387.83 867.48,387.85 867.54,388.45 867.60,389.80 867.63,390.79 867.69,393.42 867.75,396.85 867.82,400.82 867.89,404.84 867.95,408.08 868.02,409.46 868.09,408.26 868.17,404.74 868.24,399.93 868.31,394.82 868.39,390.17 868.47,386.48 868.55,384.11 868.63,383.28 868.71,384.08 868.79,386.54 868.87,390.58 868.96,396.00 869.04,402.52 869.13,409.70 869.22,416.84 869.31,422.26 869.40,422.58 869.49,417.94 869.59,411.93 869.68,406.21 869.78,401.35 869.87,397.62 869.97,395.05 870.07,393.57 870.17,392.96 870.27,392.92 870.37,393.10 870.43,393.16 870.53,393.03 870.63,392.47 870.74,391.52 870.85,390.38 870.95,389.41 871.06,388.95 871.17,389.32 871.28,390.76 871.39,393.41 871.51,397.28 871.62,402.26 871.73,408.00 871.85,413.77 871.96,417.93 872.08,418.00 872.20,413.66 872.31,407.22 872.43,400.45 872.55,394.28 872.67,389.26 872.79,385.72 872.91,383.88 873.04,383.90 873.16,385.80 873.28,389.55 873.41,394.98 873.53,401.88 873.66,409.90 873.78,418.68 873.91,427.56 874.03,428.92 874.16,420.54 874.29,412.26 874.35,408.46 874.48,401.77 874.61,396.49 874.74,392.83 874.87,390.92 875.00,390.81 875.13,392.40 875.26,395.53 875.39,400.01 875.52,405.53 875.65,411.72 875.78,417.99 875.91,423.19 876.04,424.99 876.17,422.34 876.31,418.10 876.44,414.12 876.57,411.08 876.70,409.26 876.84,408.69 876.97,409.34 877.10,411.08 877.23,413.67 877.37,416.66 877.50,419.34 877.63,420.71 877.76,420.01 877.90,417.56 878.03,414.27 878.16,410.95 878.29,408.10 878.42,406.00 878.55,404.80 878.69,404.54 878.75,404.75 878.88,405.84 879.01,407.70 879.14,410.09 879.27,412.67 879.40,415.02 879.53,416.58 879.66,416.88 879.79,415.83 879.92,413.79 880.05,411.28 880.18,408.72 880.30,406.44 880.43,404.66 880.56,403.49 880.68,403.01 880.81,403.24 880.93,404.13 881.06,405.64 881.18,407.71 881.30,410.24 881.42,413.10 881.55,416.13 881.67,419.15 881.79,421.89 881.91,423.96 882.03,424.93 882.14,424.61 882.26,423.33 882.38,421.62 882.49,419.87 882.61,418.28 882.72,416.95 882.84,415.95 882.89,415.58 883.01,415.11 883.12,414.97 883.23,415.09 883.34,415.45 883.45,416.01 883.55,416.71 883.66,417.48 883.77,418.28 883.87,419.06 883.97,419.76 884.08,420.34 884.18,420.81 884.28,421.16 884.38,421.43 884.48,421.61 884.57,421.74 884.67,421.84 884.77,421.90 884.86,421.94 884.95,421.93 885.04,421.86 885.14,421.71 885.22,421.48 885.31,421.15 885.40,420.71 885.49,420.16 885.57,419.52 885.65,418.80 885.73,418.02 885.82,417.23 885.89,416.44 885.97,415.69 886.05,415.01 886.09,414.70 886.16,414.14 886.23,413.68 886.31,413.32 886.38,413.08 886.45,412.95 886.51,412.96 886.58,413.09 886.65,413.34 886.71,413.71 886.77,414.18 886.83,414.74 886.89,415.39 886.95,416.09 887.01,416.85 887.06,417.62 887.11,418.40 887.17,419.16 887.22,419.87 887.26,420.52 887.31,421.08 887.36,421.52 887.40,421.82 887.44,421.97 887.49,421.97 887.53,421.81 887.56,421.52 887.60,421.11 887.63,420.61 887.67,420.03 887.70,419.41 887.73,418.75 887.76,418.08 887.79,417.41 887.80,417.08 887.82,416.42 887.85,415.79 887.87,415.19 887.89,414.62 887.91,414.09 887.92,413.60 887.94,413.16 887.95,412.76 887.96,412.40 887.97,412.10 887.98,411.84 887.99,411.63 887.99,411.47 888.00,411.36 888.00,411.29 888.00,411.28" fill="none" stroke="#000" stroke-width="1.5" opacity="0.9"/>
<text x="500.0" y="502" font-family="Times New Roman" font-size="19" text-anchor="middle">Julian Date</text>
<text transform="translate(18,247.0) rotate(-90)" font-family="Times New Roman" font-size="19" text-anchor="middle">velocity residual (mm/s)</text>
</svg>
