<svg xmlns="http://www.w3.org/2000/svg" width="920" height="520" viewBox="0 0 920 520">
<rect width="100%" height="100%" fill="white"/>
<text x="460.0" y="24" font-family="Times New Roman" font-size="24" text-anchor="middle">Neptune native position residual</text>
<line x1="112" y1="434" x2="888" y2="434" stroke="#333"/>
<line x1="112" y1="60" x2="112" y2="434" stroke="#333"/>
<line x1="112" y1="434.00" x2="888" y2="434.00" stroke="#ddd"/>
<text x="104" y="438.00" font-family="Times New Roman" font-size="17" text-anchor="end">0</text>
<line x1="112" y1="340.50" x2="888" y2="340.50" stroke="#ddd"/>
<text x="104" y="344.50" font-family="Times New Roman" font-size="17" text-anchor="end">2.97</text>
<line x1="112" y1="247.00" x2="888" y2="247.00" stroke="#ddd"/>
<text x="104" y="251.00" font-family="Times New Roman" font-size="17" text-anchor="end">5.94</text>
<line x1="112" y1="153.50" x2="888" y2="153.50" stroke="#ddd"/>
<text x="104" y="157.50" font-family="Times New Roman" font-size="17" text-anchor="end">8.91</text>
<line x1="112" y1="60.00" x2="888" y2="60.00" stroke="#ddd"/>
<text x="104" y="64.00" font-family="Times New Roman" font-size="17" text-anchor="end">11.88</text>
<line x1="112.00" y1="434" x2="112.00" y2="439" stroke="#333"/>
<text x="112.00" y="456" font-family="Times New Roman" font-size="17" text-anchor="middle">2378495</text>
<line x1="306.00" y1="434" x2="306.00" y2="439" stroke="#333"/>
<text x="306.00" y="456" font-family="Times New Roman" font-size="17" text-anchor="middle">2433282</text>
<line x1="500.00" y1="434" x2="500.00" y2="439" stroke="#333"/>
<text x="500.00" y="456" font-family="Times New Roman" font-size="17" text-anchor="middle">2488070</text>
<line x1="694.00" y1="434" x2="694.00" y2="439" stroke="#333"/>
<text x="694.00" y="456" font-family="Times New Roman" font-size="17" text-anchor="middle">2542858</text>
<line x1="888.00" y1="434" x2="888.00" y2="439" stroke="#333"/>
<text x="888.00" y="456" font-family="Times New Roman" font-size="17" text-anchor="middle">2597645</text>
<polyline points="112.00,261.73 112.00,261.78 112.00,261.98 112.00,262.35 112.01,262.89 112.01,263.59 112.01,264.45 112.02,265.48 112.02,266.67 112.03,268.03 112.04,269.55 112.05,271.23 112.06,273.08 112.07,275.09 112.08,277.26 112.09,279.59 112.10,282.08 112.11,283.39 112.12,286.11 112.13,289.00 112.15,292.03 112.17,295.21 112.18,298.54 112.20,302.00 112.22,305.61 112.24,309.34 112.26,313.20 112.28,317.17 112.30,321.25 112.32,325.42 112.34,329.68 112.37,334.02 112.39,338.42 112.42,342.86 112.44,347.32 112.47,351.80 112.50,356.26 112.53,360.67 112.55,365.02 112.58,369.26 112.61,373.35 112.65,377.27 112.68,380.94 112.71,384.33 112.74,387.37 112.78,390.02 112.81,392.20 112.85,393.88 112.88,395.04 112.92,395.67 112.96,395.82 112.98,395.72 113.01,395.22 113.05,394.39 113.09,393.32 113.13,392.07 113.17,390.73 113.22,389.35 113.26,387.97 113.30,386.64 113.34,385.38 113.39,384.19 113.43,383.09 113.48,382.05 113.52,381.06 113.57,380.09 113.62,379.09 113.66,378.01 113.71,376.80 113.76,375.41 113.81,373.76 113.86,371.80 113.91,369.50 113.96,366.81 114.01,363.71 114.06,360.20 114.12,356.29 114.17,352.00 114.22,347.38 114.28,342.47 114.33,337.32 114.39,331.99 114.44,326.55 114.50,321.07 114.55,315.62 114.58,312.93 114.64,307.64 114.70,302.56 114.75,297.73 114.81,293.24 114.87,289.14 114.93,285.51 114.99,282.38 115.05,279.82 115.11,277.87 115.17,276.57 115.23,275.95 115.29,276.02 115.35,276.81 115.41,278.30 115.47,280.50 115.53,283.39 115.60,286.92 115.66,291.04 115.72,295.70 115.78,300.80 115.85,306.24 115.91,311.88 115.98,317.57 116.04,323.13 116.10,328.37 116.17,333.07 116.23,337.01 116.30,340.00 116.36,341.89 116.43,342.61 116.49,342.18 116.56,340.70 116.62,338.37 116.66,336.95 116.72,333.79 116.79,330.40 116.85,327.01 116.92,323.84 116.99,321.09 117.05,318.92 117.12,317.47 117.18,316.84 117.25,317.12 117.32,318.37 117.38,320.63 117.45,323.88 117.52,328.11 117.58,333.27 117.65,339.27 117.71,345.98 117.78,353.22 117.85,360.76 117.91,368.24 117.98,375.19 118.04,380.92 118.11,384.60 118.18,385.50 118.24,383.32 118.31,378.42 118.37,371.59 118.44,363.59 118.50,355.06 118.57,346.45 118.63,338.12 118.70,330.35 118.76,323.32 118.82,317.21 118.86,314.55 118.92,310.06 118.98,306.76 119.05,304.73 119.11,304.00 119.17,304.57 119.23,306.42 119.30,309.53 119.36,313.82 119.42,319.21 119.48,325.57 119.54,332.76 119.60,340.57 119.66,348.76 119.72,357.00 119.78,364.93 119.84,371.98 119.90,377.55 119.96,380.93 120.02,381.68 120.08,379.76 120.13,375.63 120.19,369.99 120.25,363.52 120.30,356.74 120.36,350.05 120.41,343.74 120.47,337.97 120.52,332.88 120.58,328.52 120.63,324.91 120.68,322.02 120.74,319.79 120.79,318.14 120.81,317.49 120.86,316.45 120.91,315.64 120.96,314.88 121.01,314.02 121.06,312.88 121.11,311.37 121.16,309.37 121.21,306.86 121.25,303.84 121.30,300.34 121.34,296.48 121.39,292.36 121.43,288.13 121.48,283.92 121.52,279.86 121.56,276.11 121.61,272.77 121.65,269.93 121.69,267.69 121.73,266.09 121.77,265.17 121.81,264.95 121.84,265.41 121.88,266.54 121.92,268.29 121.95,270.61 121.99,273.43 122.02,276.67 122.06,280.23 122.09,284.03 122.12,287.97 122.15,291.97 122.19,295.93 122.20,297.87 122.23,301.64 122.26,305.21 122.29,308.53 122.32,311.60 122.34,314.39 122.37,316.92 122.40,319.21 122.42,321.30 122.44,323.23 122.47,325.03 122.49,326.75 122.51,328.42 122.53,330.07 122.55,331.72 122.57,333.37 122.59,335.03 122.61,336.69 122.63,338.34 122.64,339.95 122.66,341.49 122.67,342.94 122.69,344.27 122.70,345.46 122.71,346.48 122.72,347.31 122.73,347.95 122.74,348.41 122.75,348.68 122.76,348.80 122.77,348.77 122.78,348.63 122.78,348.41 122.79,348.14 122.79,348.00 122.79,347.72 122.80,347.46 122.80,347.26 122.80,347.12 122.80,347.05 122.80,257.76 122.80,258.86 122.80,263.66 122.81,271.87 122.82,282.83 122.83,295.65 122.84,309.35 122.86,323.01 122.88,335.85 122.90,347.36 122.93,357.20 122.95,364.94 122.98,369.59 123.02,369.42 123.05,362.85 123.09,349.82 123.13,331.74 123.17,310.56 123.22,288.20 123.27,266.40 123.32,246.76 123.37,230.64 123.43,219.17 123.49,213.15 123.55,212.93 123.61,218.48 123.68,229.19 123.75,243.85 123.78,252.08 123.85,268.76 123.93,282.98 124.01,291.24 124.09,291.00 124.17,282.37 124.25,267.97 124.34,251.30 124.43,235.40 124.52,222.47 124.62,213.95 124.71,210.65 124.81,212.82 124.92,220.26 125.02,232.36 125.13,248.16 125.24,266.35 125.35,285.35 125.46,303.24 125.58,317.99 125.69,327.75 125.81,331.60 125.94,330.00 126.06,324.43 126.19,316.42 126.32,306.98 126.45,296.53 126.58,285.17 126.72,273.07 126.85,260.61 126.99,248.56 127.13,237.97 127.28,229.99 127.35,227.36 127.50,225.38 127.64,228.32 127.79,236.26 127.95,248.49 128.10,263.24 128.26,277.40 128.42,286.62 128.57,286.79 128.74,276.70 128.90,259.09 129.06,238.64 129.23,219.77 129.40,205.81 129.57,198.88 129.74,199.96 129.91,208.73 130.09,223.42 130.27,240.58 130.44,255.18 130.62,261.60 130.80,256.67 130.99,242.19 131.17,223.61 131.36,206.80 131.54,196.32 131.73,194.95 131.92,203.76 132.11,221.99 132.30,246.64 132.50,271.76 132.69,288.17 132.89,286.80 133.08,267.44 133.18,253.65 133.38,223.94 133.58,197.41 133.78,178.51 133.98,169.03 134.18,168.61 134.39,174.97 134.59,184.22 134.80,191.66 135.00,193.47 135.21,188.39 135.42,178.34 135.63,167.06 135.83,158.28 136.04,154.44 136.26,156.34 136.47,163.18 136.68,172.88 136.89,182.79 137.10,190.49 137.32,194.81 137.53,196.27 137.75,196.91 137.96,199.21 138.18,205.36 138.39,216.74 138.61,233.57 138.82,254.76 139.04,277.76 139.26,298.07 139.47,309.36 139.69,306.44 139.91,290.30 140.12,266.92 140.23,254.47 140.45,231.07 140.67,212.51 140.88,201.15 141.10,198.41 141.32,205.05 141.54,221.12 141.75,246.00 141.97,278.49 142.19,316.52 142.40,356.26 142.62,386.48 142.83,378.63 143.05,343.09 143.26,304.08 143.48,268.41 143.69,238.66 143.91,216.18 144.12,201.49 144.33,194.59 144.54,195.05 144.75,201.99 144.96,214.33 145.17,230.90 145.38,250.43 145.59,271.68 145.80,293.46 146.01,314.38 146.21,332.59 146.42,345.45 146.62,349.88 146.83,344.54 147.03,331.49 147.23,314.30 147.33,305.12 147.53,287.08 147.73,270.85 147.93,257.51 148.12,247.71 148.32,241.67 148.51,239.12 148.71,239.43 148.90,241.57 149.09,244.31 149.28,246.19 149.47,245.94 149.65,242.64 149.84,235.97 150.02,226.15 150.21,213.97 150.39,200.54 150.57,187.05 150.74,174.74 150.92,164.78 151.09,158.19 151.27,155.64 151.44,157.47 151.61,163.53 151.78,173.07 151.95,184.74 152.11,196.67 152.27,206.84 152.43,213.49 152.59,215.87 152.75,214.67 152.91,211.78 153.06,209.64 153.21,210.66 153.29,212.96 153.44,222.02 153.59,237.57 153.73,259.63 153.88,287.47 154.02,319.65 154.16,353.69 154.29,384.23 154.43,395.37 154.56,377.24 154.69,351.11 154.82,327.57 154.95,309.82 155.07,299.09 155.20,295.60 155.32,298.80 155.43,307.24 155.55,318.48 155.66,328.82 155.77,333.78 155.88,330.08 155.99,318.22 156.09,301.70 156.20,284.29 156.29,268.78 156.39,256.85 156.49,249.31 156.58,246.17 156.67,246.69 156.76,249.52 156.84,252.77 156.92,254.37 157.00,252.57 157.08,246.51 157.12,241.92 157.19,230.28 157.26,216.61 157.33,202.48 157.40,189.21 157.46,177.74 157.52,168.55 157.58,161.78 157.64,157.23 157.69,154.56 157.74,153.38 157.79,153.34 157.84,154.24 157.88,156.08 157.92,158.99 157.96,163.21 157.99,168.99 158.03,176.45 158.06,185.56 158.08,196.08 158.11,207.54 158.13,219.28 158.15,230.56 158.17,240.64 158.18,248.97 158.19,255.27 158.20,259.57 158.21,262.18 158.21,263.46 158.21,263.73 158.21,301.43 158.21,301.33 158.22,300.88 158.22,299.66 158.23,298.60 158.24,295.19 158.25,289.71 158.27,281.90 158.29,271.81 158.31,259.76 158.34,246.25 158.36,231.89 158.39,217.27 158.43,202.98 158.46,189.56 158.50,177.45 158.54,167.01 158.58,158.51 158.63,152.11 158.68,147.85 158.73,145.68 158.78,145.49 158.84,147.13 158.89,150.46 158.96,155.41 159.02,161.99 159.09,170.29 159.15,180.41 159.23,192.37 159.30,205.96 159.38,220.58 159.46,235.00 159.54,247.33 159.62,255.13 159.71,256.17 159.80,249.45 159.89,235.94 159.98,218.06 160.03,208.39 160.12,189.29 160.22,172.41 160.33,159.40 160.43,151.19 160.54,147.98 160.65,149.25 160.76,153.86 160.87,160.20 160.99,166.49 161.10,171.26 161.22,173.78 161.35,174.33 161.47,174.08 161.60,174.58 161.73,177.26 161.86,182.94 161.99,191.46 162.13,201.51 162.26,210.63 162.40,215.80 162.54,214.57 162.69,206.34 162.83,192.85 162.98,177.44 163.13,163.83 163.28,155.17 163.43,153.64 163.59,160.31 163.75,175.11 163.90,196.70 164.06,222.44 164.23,248.38 164.39,269.43 164.47,276.51 164.64,281.91 164.81,276.76 164.98,265.73 165.15,253.90 165.32,244.54 165.50,238.72 165.68,235.66 165.85,233.37 166.03,229.56 166.21,222.74 166.40,212.96 166.58,201.75 166.77,191.24 166.95,183.34 167.14,179.03 167.33,178.15 167.52,179.60 167.71,181.90 167.91,183.95 168.10,185.71 168.30,188.47 168.49,194.45 168.69,205.94 168.89,224.35 169.09,249.61 169.29,279.27 169.49,306.99 169.69,321.14 169.90,311.58 170.10,283.33 170.31,248.92 170.52,217.18 170.72,193.03 170.83,184.64 171.04,175.81 171.24,177.11 171.45,186.63 171.67,200.89 171.88,215.14 172.09,224.31 172.30,225.02 172.51,217.49 172.73,205.34 172.94,193.55 173.16,186.61 173.37,187.60 173.59,198.16 173.80,218.49 174.02,247.18 174.23,280.70 174.45,311.83 174.67,327.21 174.88,314.99 175.10,281.98 175.32,242.02 175.53,203.80 175.75,171.97 175.97,149.11 176.19,136.53 176.40,134.42 176.62,142.06 176.84,158.00 177.05,180.09 177.27,205.65 177.49,231.79 177.70,255.72 177.81,266.11 178.03,282.94 178.24,294.47 178.46,301.83 178.67,306.77 178.89,310.57 179.10,313.58 179.31,315.34 179.53,315.04 179.74,312.28 179.95,307.37 180.16,301.08 180.37,294.22 180.58,287.11 180.79,279.46 181.00,270.65 181.21,260.23 181.42,248.43 181.62,236.43 181.83,226.21 182.03,220.03 182.24,219.98 182.44,227.62 182.64,243.45 182.84,266.53 183.04,293.88 183.24,319.16 183.43,331.54 183.63,322.56 183.83,297.86 184.02,268.99 184.21,243.91 184.40,226.96 184.59,220.21 184.69,220.86 184.88,229.67 185.06,246.92 185.25,269.61 185.43,293.77 185.61,314.62 185.80,327.82 185.98,331.94 186.15,329.82 186.33,325.96 186.50,323.54 186.68,323.50 186.85,324.99 187.02,326.21 187.19,325.60 187.35,322.76 187.52,318.76 187.68,315.47 187.84,314.67 188.00,317.26 188.16,322.82 188.32,329.12 188.47,332.19 188.62,327.66 188.77,313.80 188.92,292.83 189.07,268.71 189.21,245.13 189.36,224.87 189.50,209.84 189.63,201.12 189.77,198.95 189.91,202.70 190.04,210.91 190.10,216.02 190.23,226.59 190.36,235.28 190.48,239.76 190.60,239.08 190.73,234.11 190.84,227.13 190.96,220.88 191.07,217.80 191.18,219.66 191.29,227.47 191.40,241.48 191.50,261.27 191.60,285.81 191.70,313.47 191.80,341.76 191.90,366.33 191.99,379.07 192.08,373.12 192.17,355.10 192.25,334.09 192.33,314.08 192.41,296.32 192.49,280.91 192.57,267.40 192.64,255.08 192.71,243.31 192.78,231.66 192.84,220.07 192.90,208.85 192.96,198.54 193.02,189.86 193.08,183.47 193.13,179.92 193.15,179.34 193.20,180.63 193.25,185.21 193.29,192.83 193.33,203.04 193.37,215.23 193.40,228.66 193.44,242.50 193.47,255.91 193.49,268.08 193.52,278.31 193.54,286.14 193.56,291.37 193.57,294.20 193.59,295.07 193.60,294.63 193.61,293.54 193.61,292.39 193.62,291.61 193.62,291.41 193.62,209.33 193.62,212.34 193.63,219.65 193.63,231.88 193.64,249.75 193.66,273.85 193.67,304.14 193.69,338.86 193.71,370.23 193.73,372.38 193.76,335.80 193.79,285.71 193.82,234.33 193.85,187.08 193.87,166.14 193.91,131.26 193.95,107.12 193.99,94.30 194.04,92.13 194.09,98.78 194.14,111.59 194.19,127.60 194.25,144.30 194.30,160.31 194.37,175.69 194.43,191.65 194.50,209.77 194.56,231.16 194.64,255.88 194.71,282.66 194.79,308.73 194.86,329.52 194.95,339.23 195.03,334.59 195.12,318.58 195.20,296.70 195.30,273.01 195.39,250.14 195.49,230.25 195.58,215.36 195.68,207.45 195.79,208.12 195.89,218.33 196.00,238.07 196.11,266.07 196.22,299.52 196.34,332.96 196.45,355.62 196.51,358.03 196.63,343.25 196.76,314.81 196.88,284.47 197.01,257.00 197.14,233.86 197.27,215.15 197.40,200.52 197.53,189.64 197.67,182.29 197.81,178.34 197.95,177.56 198.10,179.39 198.24,182.98 198.39,187.53 198.54,192.78 198.69,199.41 198.84,208.93 199.00,223.06 199.15,242.93 199.31,268.10 199.47,295.41 199.64,317.31 199.80,322.82 199.97,308.18 200.13,282.92 200.30,258.52 200.47,242.34 200.65,238.09 200.82,246.24 201.00,263.75 201.17,282.78 201.35,290.12 201.53,274.90 201.62,259.40 201.81,219.92 201.99,178.55 202.18,143.27 202.36,118.62 202.55,106.44 202.74,106.33 202.93,116.01 203.12,131.79 203.32,149.44 203.51,165.10 203.70,176.12 203.90,181.54 204.10,181.64 204.30,177.11 204.50,168.76 204.70,157.81 204.90,146.40 205.10,137.53 205.31,134.67 205.51,140.79 205.72,157.38 205.93,183.67 206.13,215.56 206.34,244.34 206.55,257.36 206.76,246.33 206.97,216.83 207.18,181.55 207.39,150.32 207.60,128.32 207.82,117.00 208.03,114.96 208.24,118.93 208.35,122.02 208.56,128.57 208.78,134.67 208.99,141.19 209.21,150.40 209.43,163.89 209.64,180.82 209.86,196.77 210.08,204.29 210.29,197.11 210.51,175.92 210.73,148.20 210.94,123.31 211.16,108.75 211.38,108.72 211.60,124.01 211.81,151.71 212.03,184.87 212.25,212.89 212.46,224.51 212.68,216.25 212.90,196.22 213.11,176.10 213.33,164.17 213.54,163.90 213.76,174.48 213.98,191.59 214.19,208.33 214.40,217.27 214.62,214.38 214.83,201.31 215.04,183.28 215.26,165.16 215.47,149.71 215.57,143.35 215.78,133.59 215.99,128.09 216.20,127.67 216.41,133.67 216.62,147.19 216.83,168.05 217.03,193.79 217.24,219.04 217.44,236.19 217.64,239.29 217.85,229.57 218.05,214.70 218.25,202.69 218.45,197.81 218.65,199.47 218.84,202.47 219.04,199.10 219.24,184.12 219.43,159.20 219.62,131.86 219.81,110.78 220.00,102.60 220.19,110.52 220.38,133.79 220.57,167.05 220.75,199.95 220.93,218.76 221.11,214.76 221.30,193.78 221.47,170.37 221.65,156.91 221.83,160.33 221.91,169.21 222.09,200.64 222.26,246.45 222.43,298.06 222.60,339.03 222.76,344.85 222.93,321.36 223.09,298.18 223.25,289.92 223.41,300.41 223.57,326.28 223.73,351.33 223.88,339.13 224.03,287.22 224.18,224.28 224.33,166.21 224.48,121.66 224.62,95.68 224.77,90.34 224.91,104.62 225.04,134.53 225.18,173.22 225.31,211.30 225.45,238.58 225.58,249.12 225.70,246.65 225.83,241.19 225.95,241.11 226.07,249.97 226.19,266.87 226.31,287.24 226.43,304.11 226.54,311.29 226.65,308.59 226.70,305.36 226.81,299.56 226.91,298.38 227.01,302.67 227.11,309.14 227.21,311.50 227.31,304.38 227.40,288.44 227.49,269.56 227.57,254.25 227.66,247.06 227.74,250.06 227.82,262.72 227.90,281.70 227.98,300.59 228.05,310.76 228.12,306.65 228.19,291.66 228.25,274.22 228.31,261.09 228.37,255.58 228.43,257.79 228.48,264.76 228.54,270.68 228.59,268.49 228.63,253.91 228.68,228.52 228.72,197.60 228.76,166.57 228.79,139.43 228.83,118.64 228.86,105.28 228.89,99.42 228.91,100.33 228.93,102.96 228.95,111.59 228.97,123.40 228.98,136.80 229.00,150.32 229.01,162.73 229.02,173.07 229.02,180.63 229.03,184.97 229.03,185.96 229.03,177.90 229.03,178.90 229.04,181.29 229.04,185.21 229.05,190.84 229.07,198.42 229.08,208.23 229.10,220.48 229.12,235.37 229.14,252.91 229.17,272.89 229.20,294.57 229.23,316.24 229.26,334.17 229.30,341.91 229.34,333.47 229.38,310.20 229.42,278.07 229.47,242.22 229.52,206.18 229.57,172.59 229.63,143.64 229.68,121.16 229.74,106.62 229.78,102.66 229.84,101.71 229.91,109.97 229.97,126.61 230.05,149.77 230.12,176.33 230.20,201.87 230.27,221.03 230.36,229.25 230.44,225.64 230.53,214.01 230.61,200.47 230.71,190.75 230.80,188.93 230.89,197.39 230.99,216.87 231.09,246.57 231.20,283.86 231.30,323.07 231.41,350.93 231.52,346.28 231.63,313.17 231.75,272.37 231.86,234.37 231.98,203.48 232.10,181.40 232.23,168.08 232.35,162.16 232.48,161.27 232.61,162.57 232.74,163.61 232.88,163.19 233.01,161.85 233.15,161.54 233.22,162.58 233.36,168.67 233.51,181.66 233.65,202.53 233.80,231.03 233.95,265.54 234.10,302.79 234.25,336.90 234.41,357.01 234.56,352.30 234.72,329.83 234.88,302.60 235.05,276.35 235.21,252.28 235.38,229.78 235.54,207.77 235.71,185.74 235.88,164.37 236.06,145.45 236.23,131.43 236.41,124.93 236.58,128.09 236.76,142.14 236.94,166.96 237.12,200.75 237.31,239.28 237.49,274.30 237.68,292.47 237.87,283.09 238.05,252.08 238.24,213.54 238.44,177.42 238.63,149.02 238.82,130.66 238.92,125.35 239.11,121.63 239.31,124.93 239.51,131.66 239.71,137.85 239.91,140.49 240.11,138.71 240.31,134.05 240.51,129.79 240.72,129.44 240.92,135.69 241.13,149.77 241.33,171.18 241.54,197.50 241.75,224.27 241.96,245.30 242.17,254.19 242.38,248.55 242.59,231.90 242.80,210.53 243.01,189.70 243.23,172.31 243.44,159.27 243.65,150.14 243.87,143.74 244.08,138.72 244.30,134.28 244.51,130.29 244.73,127.30 244.94,126.23 245.16,128.02 245.38,133.19 245.59,141.95 245.81,154.17 245.92,161.54 246.14,178.69 246.35,199.21 246.57,223.36 246.79,251.08 247.00,281.09 247.22,309.08 247.44,324.69 247.66,315.51 247.87,283.23 248.09,240.24 248.31,196.47 248.52,158.29 248.74,129.98 248.95,114.36 249.17,112.84 249.38,125.30 249.60,150.29 249.81,184.98 250.03,225.37 250.24,266.63 250.45,303.23 250.67,329.72 250.88,343.33 251.09,346.91 251.30,346.04 251.51,342.96 251.72,335.09 251.92,318.74 252.13,293.64 252.34,263.40 252.54,233.03 252.75,207.48 252.95,190.88 253.05,186.95 253.26,189.15 253.46,205.62 253.66,236.21 253.86,279.27 254.06,331.66 254.25,385.83 254.45,391.61 254.64,337.83 254.84,282.56 255.03,235.27 255.22,199.79 255.41,178.43 255.60,172.23 255.79,181.11 255.97,203.81 256.16,237.80 256.34,279.25 256.52,321.89 256.70,352.87 256.88,351.75 257.06,322.54 257.24,286.53 257.41,254.02 257.58,228.78 257.75,211.87 257.92,202.89 258.09,200.33 258.26,201.89 258.42,204.96 258.58,207.34 258.74,207.90 258.90,206.93 259.06,206.02 259.14,206.27 259.29,209.63 259.44,218.22 259.59,233.07 259.74,254.17 259.89,280.22 260.03,308.07 260.17,331.74 260.32,341.90 260.45,332.88 260.59,310.83 260.72,285.19 260.86,261.73 260.99,243.13 261.11,230.02 261.24,221.48 261.36,215.38 261.48,208.88 261.60,199.39 261.72,185.65 261.83,168.32 261.95,149.73 262.06,133.02 262.16,121.34 262.27,117.31 262.37,122.76 262.47,138.56 262.57,164.63 262.67,199.95 262.76,242.58 262.85,289.45 262.94,335.30 263.03,367.60 263.07,370.84 263.15,349.38 263.23,314.00 263.31,279.89 263.38,251.82 263.46,231.36 263.53,218.76 263.59,213.44 263.66,214.32 263.72,219.95 263.78,228.88 263.84,239.77 263.89,251.62 263.95,263.87 264.00,276.31 264.04,288.95 264.09,301.75 264.13,314.39 264.17,326.11 264.20,335.66 264.24,341.57 264.27,342.74 264.30,339.20 264.32,332.13 264.35,323.16 264.37,313.71 264.39,304.78 264.40,296.93 264.41,290.44 264.42,285.40 264.43,281.78 264.44,279.52 264.44,278.56 264.44,331.04 264.44,330.98 264.44,329.67 264.44,326.60 264.45,321.82 264.46,315.47 264.47,307.83 264.49,299.33 264.51,290.53 264.53,282.02 264.55,274.44 264.58,268.33 264.61,264.17 264.64,262.30 264.67,262.96 264.71,266.20 264.75,271.94 264.79,279.89 264.83,289.60 264.88,300.36 264.93,311.22 264.98,320.93 265.04,328.04 265.09,331.18 265.15,329.55 265.22,323.31 265.28,313.38 265.35,300.86 265.42,286.68 265.49,271.42 265.57,255.42 265.64,238.88 265.72,222.00 265.81,205.10 265.89,188.69 265.94,180.88 266.02,166.59 266.11,154.87 266.21,146.66 266.30,142.84 266.40,144.05 266.50,150.57 266.61,162.27 266.71,178.39 266.82,197.55 266.93,217.61 267.04,235.74 267.16,248.78 267.27,254.28 267.39,251.79 267.51,243.25 267.64,231.95 267.76,221.13 267.89,213.27 268.02,209.92 268.15,211.77 268.29,218.74 268.42,230.18 268.56,245.03 268.70,261.97 268.84,279.58 268.99,296.47 269.13,311.27 269.28,322.47 269.43,328.35 269.59,327.18 269.74,318.09 269.90,301.83 270.05,280.43 270.13,268.58 270.29,244.29 270.46,221.39 270.62,202.39 270.79,189.55 270.95,184.70 271.12,189.16 271.29,203.56 271.47,227.67 271.64,260.20 271.82,298.30 271.99,335.80 272.17,357.62 272.35,345.18 272.53,309.80 272.72,270.22 272.90,235.00 273.09,208.20 273.27,191.77 273.46,186.24 273.65,190.76 273.84,202.82 274.04,218.10 274.23,230.58 274.43,233.99 274.62,224.91 274.82,205.28 275.02,180.62 275.22,156.96 275.42,139.02 275.62,129.94 275.82,131.47 276.03,144.00 276.23,166.66 276.33,181.24 276.54,215.20 276.74,252.45 276.95,287.84 277.16,314.18 277.37,323.62 277.58,314.79 277.79,295.25 278.00,272.72 278.21,251.18 278.42,232.05 278.64,215.55 278.85,201.62 279.06,190.52 279.28,183.08 279.49,180.53 279.71,184.34 279.92,195.82 280.14,215.67 280.35,243.72 280.57,278.43 280.79,315.49 281.00,344.08 281.22,344.19 281.44,313.08 281.65,269.63 281.87,226.08 282.09,188.48 282.31,160.43 282.52,144.28 282.74,141.44 282.96,152.47 283.17,177.00 283.39,213.73 283.50,235.95 283.72,285.81 283.93,336.76 284.15,367.88 284.36,345.70 284.58,296.23 284.79,245.61 285.01,202.01 285.22,169.07 285.44,148.61 285.65,141.13 285.86,146.09 286.07,161.97 286.29,186.37 286.50,216.30 286.71,248.35 286.92,278.65 287.13,303.13 287.33,317.94 287.54,321.03 287.75,313.77 287.95,299.55 288.16,281.34 288.36,261.13 288.57,240.41 288.77,220.57 288.97,203.15 289.17,189.73 289.37,181.77 289.56,180.38 289.76,186.27 289.96,199.54 290.15,219.58 290.34,244.97 290.44,258.98 290.63,287.33 290.82,311.36 291.01,323.24 291.20,317.06 291.38,295.76 291.57,267.11 291.75,237.06 291.93,209.11 292.11,185.24 292.29,166.49 292.47,153.35 292.65,145.95 292.82,144.09 292.99,147.35 293.16,155.12 293.33,166.66 293.50,181.08 293.67,197.28 293.83,214.00 293.99,229.76 294.15,242.88 294.31,251.72 294.47,255.15 294.62,253.03 294.78,246.27 294.93,236.56 295.08,225.81 295.22,215.73 295.37,207.61 295.51,202.29 295.65,200.16 295.79,201.13 295.93,204.65 296.00,207.11 296.13,212.73 296.27,218.37 296.40,223.05 296.52,226.19 296.65,227.81 296.77,228.54 296.89,229.42 297.01,231.60 297.13,236.03 297.24,243.26 297.36,253.30 297.47,265.57 297.57,278.88 297.68,291.54 297.78,301.69 297.88,307.80 297.98,309.52 298.08,307.90 298.17,304.84 298.26,302.21 298.35,301.18 298.44,301.90 298.52,303.47 298.60,303.97 298.68,301.00 298.76,292.71 298.83,278.78 298.90,260.48 298.97,239.95 299.04,219.40 299.10,200.70 299.16,185.16 299.22,173.51 299.25,169.20 299.30,163.44 299.36,160.85 299.41,160.33 299.45,160.60 299.50,160.41 299.54,158.87 299.58,155.63 299.61,150.96 299.65,145.56 299.68,140.37 299.71,136.25 299.73,133.86 299.76,133.52 299.78,135.20 299.80,138.59 299.81,143.13 299.82,148.17 299.83,153.04 299.84,157.12 299.85,159.95 299.85,161.22 299.85,195.67 299.85,196.13 299.85,198.22 299.86,202.11 299.87,208.05 299.88,216.41 299.89,227.64 299.91,242.20 299.93,260.40 299.95,282.18 299.97,306.89 300.00,332.77 300.02,345.02 300.05,363.84 300.08,367.07 300.12,352.78 300.16,330.05 300.20,306.44 300.24,285.72 300.29,269.53 300.34,258.17 300.39,250.92 300.45,246.19 300.50,241.87 300.56,235.90 300.63,227.00 300.69,215.08 300.76,201.17 300.83,186.93 300.90,174.07 300.98,164.00 301.05,157.69 301.13,155.72 301.22,158.38 301.30,165.80 301.39,178.07 301.48,195.27 301.57,217.36 301.67,244.05 301.76,274.44 301.86,306.56 301.96,336.26 302.07,355.21 302.17,353.86 302.28,335.56 302.34,323.90 302.45,301.20 302.57,283.25 302.68,272.24 302.80,268.14 302.92,268.88 303.05,270.37 303.17,267.36 303.30,256.01 303.43,236.47 303.56,212.70 303.70,190.14 303.83,173.93 303.97,168.11 304.11,175.35 304.25,196.93 304.40,232.70 304.54,281.17 304.69,339.52 304.84,403.05 304.99,393.81 305.15,329.85 305.30,271.66 305.46,223.68 305.62,188.83 305.78,168.73 305.95,163.53 306.11,171.73 306.28,189.97 306.45,213.00 306.62,233.90 306.79,245.68 306.96,244.94 307.14,234.64 307.23,228.03 307.40,216.23 307.58,210.52 307.76,213.64 307.94,225.70 308.13,244.14 308.31,263.62 308.50,276.25 308.68,274.80 308.87,258.74 309.06,234.57 309.25,210.15 309.45,191.41 309.64,181.93 309.84,183.39 310.03,195.89 310.23,218.01 310.43,246.94 310.63,278.47 310.83,306.47 311.03,323.48 311.23,325.13 311.43,315.56 311.64,303.45 311.84,295.25 312.05,294.04 312.26,300.40 312.46,312.73 312.67,326.69 312.88,334.97 313.09,330.00 313.30,311.33 313.51,285.42 313.73,259.02 313.83,247.24 314.05,228.71 314.26,218.84 314.47,219.02 314.69,229.58 314.90,249.71 315.12,277.31 315.33,308.44 315.55,335.30 315.76,344.40 315.98,327.83 316.20,295.73 316.41,259.80 316.63,226.15 316.85,197.94 317.06,176.82 317.28,163.58 317.50,158.47 317.72,161.29 317.93,171.28 318.15,187.19 318.37,207.11 318.58,228.24 318.80,247.00 319.02,259.70 319.23,264.06 319.45,260.96 319.67,254.07 319.88,247.96 320.10,246.34 320.31,251.45 320.53,264.02 320.74,283.45 320.95,307.66 321.06,320.53 321.27,344.70 321.48,360.87 321.70,362.72 321.91,352.39 322.12,337.70 322.33,323.75 322.54,312.21 322.74,302.68 322.95,294.05 323.16,285.43 323.36,276.76 323.57,268.97 323.77,263.63 323.97,262.20 324.18,265.40 324.38,272.77 324.58,282.14 324.78,289.40 324.97,289.53 325.17,279.36 325.37,259.94 325.56,235.51 325.75,210.75 325.95,189.45 326.14,174.26 326.33,166.73 326.51,167.45 326.70,176.21 326.89,192.18 327.07,213.99 327.25,239.98 327.43,268.16 327.61,295.95 327.70,308.57 327.88,328.12 328.06,334.98 328.23,326.14 328.40,305.44 328.57,278.98 328.74,251.22 328.91,225.05 329.08,202.34 329.24,184.19 329.40,171.10 329.56,162.96 329.72,159.06 329.88,158.24 330.03,159.15 330.19,160.57 330.34,161.64 330.49,162.09 330.63,162.20 330.78,162.65 330.92,164.11 331.06,166.99 331.20,171.29 331.34,176.58 331.48,182.07 331.61,186.81 331.74,189.91 331.87,190.78 332.00,189.20 332.12,185.29 332.24,179.59 332.36,172.91 332.48,166.37 332.60,161.32 332.65,159.80 332.77,159.74 332.88,164.73 332.98,175.76 333.09,193.11 333.19,215.94 333.29,241.72 333.39,265.47 333.49,279.55 333.58,276.85 333.67,257.46 333.76,228.62 333.85,198.52 333.93,173.28 334.01,156.91 334.09,151.73 334.17,158.52 334.24,176.61 334.31,203.82 334.38,236.23 334.45,267.80 334.51,290.28 334.57,296.20 334.63,286.08 334.69,268.53 334.74,252.45 334.79,243.54 334.84,244.68 334.88,256.76 334.93,279.09 334.97,309.43 335.01,343.10 335.04,368.60 335.07,364.20 335.09,350.13 335.12,312.15 335.14,271.46 335.17,233.35 335.19,200.02 335.21,172.34 335.22,150.44 335.23,133.93 335.24,122.15 335.25,114.32 335.26,109.74 335.26,107.87 335.26,192.68 335.26,192.97 335.26,194.24 335.27,196.50 335.28,199.75 335.29,203.92 335.30,208.90 335.32,214.49 335.34,220.36 335.36,225.96 335.38,230.59 335.41,233.38 335.44,233.47 335.47,230.21 335.51,223.37 335.55,213.25 335.59,200.59 335.63,186.37 335.68,171.68 335.72,157.53 335.77,144.80 335.83,134.24 335.86,129.96 335.91,123.77 335.97,121.16 336.04,122.60 336.10,128.55 336.17,139.41 336.24,155.45 336.31,176.75 336.39,203.03 336.46,233.43 336.54,266.14 336.63,297.48 336.71,320.39 336.80,324.87 336.89,307.55 336.98,276.54 337.07,240.97 337.17,206.48 337.27,176.42 337.37,152.84 337.48,136.95 337.58,129.31 337.69,129.88 337.80,138.05 337.92,152.70 338.03,172.27 338.15,194.82 338.27,218.17 338.39,240.04 338.52,258.35 338.64,271.68 338.77,279.69 338.90,283.27 339.04,283.99 339.11,283.77 339.24,282.85 339.38,281.55 339.52,279.43 339.66,275.44 339.81,268.36 339.95,257.40 340.10,242.62 340.25,224.91 340.40,205.84 340.56,187.24 340.71,170.94 340.87,158.52 341.03,151.23 341.19,149.93 341.36,154.97 341.52,166.08 341.69,182.47 341.86,202.79 342.03,225.18 342.20,247.38 342.37,267.06 342.55,282.33 342.72,292.25 342.90,297.22 343.08,298.47 343.26,297.01 343.44,292.82 343.63,284.82 343.81,271.72 344.00,252.94 344.19,229.27 344.38,202.61 344.47,188.94 344.66,162.53 344.86,139.27 345.05,121.14 345.25,109.50 345.44,104.98 345.64,107.41 345.84,115.91 346.04,128.82 346.24,143.82 346.44,158.21 346.64,169.21 346.84,174.61 347.05,173.52 347.25,166.70 347.46,156.10 347.67,144.35 347.87,134.01 348.08,127.18 348.29,125.40 348.50,129.55 348.71,139.63 348.92,154.71 349.14,172.89 349.35,191.15 349.56,205.81 349.77,213.50 349.99,212.57 350.20,204.16 350.42,191.49 350.63,178.33 350.85,167.89 351.06,162.32 351.28,162.73 351.39,165.28 351.61,174.83 351.82,189.45 352.04,207.55 352.26,226.94 352.47,244.95 352.69,258.87 352.91,266.72 353.12,268.08 353.34,264.33 353.56,257.85 353.78,250.85 353.99,244.84 354.21,240.75 354.43,239.04 354.64,240.13 354.86,244.60 355.08,253.19 355.29,266.58 355.51,284.99 355.72,307.30 355.94,329.32 356.15,341.02 356.36,330.07 356.58,297.82 356.79,255.26 357.00,210.93 357.21,170.49 357.42,137.91 357.63,116.01 357.84,106.57 358.05,110.06 358.26,125.37 358.46,149.71 358.57,163.82 358.77,191.71 358.98,212.17 359.18,217.57 359.38,206.01 359.59,183.06 359.79,157.20 359.99,135.57 360.19,122.86 360.38,121.31 360.58,131.19 360.78,150.90 360.97,177.04 361.16,204.45 361.36,226.78 361.55,238.37 361.74,237.68 361.92,228.79 362.11,218.57 362.30,213.21 362.48,216.81 362.66,231.41 362.84,257.36 363.02,293.60 363.20,337.54 363.38,382.54 363.55,393.46 363.73,350.25 363.90,299.04 364.07,250.58 364.24,207.91 364.40,172.44 364.57,144.76 364.73,124.77 364.81,117.51 364.97,108.00 365.13,104.54 365.29,106.61 365.44,113.97 365.60,126.68 365.75,145.06 365.90,169.38 366.04,199.75 366.19,235.77 366.33,276.24 366.47,318.42 366.61,355.33 366.75,368.18 366.89,344.54 367.02,305.09 367.15,263.93 367.28,226.06 367.41,193.53 367.53,167.24 367.65,147.39 367.77,133.70 367.89,125.65 368.01,122.60 368.12,124.05 368.23,129.65 368.34,139.34 368.45,153.18 368.55,171.23 368.65,193.33 368.75,218.79 368.85,246.08 368.94,272.34 369.04,292.94 369.08,299.26 369.17,300.95 369.26,288.33 369.34,266.46 369.42,241.47 369.50,217.96 369.58,198.90 369.65,186.16 369.72,180.74 369.79,183.03 369.86,192.86 369.92,209.65 369.98,232.39 370.04,259.76 370.10,289.99 370.15,320.65 370.20,347.72 370.25,363.85 370.29,361.19 370.34,342.90 370.38,318.28 370.42,292.88 370.45,269.17 370.48,248.26 370.51,230.64 370.54,216.41 370.56,205.43 370.59,197.40 370.61,191.88 370.62,188.38 370.64,186.40 370.65,185.46 370.66,185.15 370.66,185.14 370.66,185.18 370.67,185.23 370.67,170.45 370.67,169.52 370.67,165.48 370.68,158.66 370.69,149.77 370.70,139.70 370.71,129.43 370.73,119.87 370.75,111.77 370.77,105.61 370.79,101.59 370.82,99.62 370.85,99.46 370.88,100.88 370.92,103.77 370.96,108.25 371.00,114.76 371.04,123.85 371.09,136.10 371.13,151.87 371.18,171.13 371.24,193.31 371.29,217.32 371.35,241.56 371.41,264.10 371.48,282.96 371.54,296.52 371.61,303.89 371.68,304.92 371.76,299.85 371.83,288.89 371.91,272.36 371.95,262.26 372.04,239.35 372.12,214.68 372.21,190.98 372.30,171.17 372.39,157.98 372.48,153.53 372.58,158.98 372.68,174.14 372.78,196.98 372.89,222.96 372.99,244.34 373.10,251.48 373.21,239.04 373.33,211.43 373.44,178.33 373.56,148.41 373.68,127.72 373.80,119.97 373.93,126.86 374.05,148.18 374.18,181.76 374.31,223.07 374.45,264.24 374.58,292.51 374.72,294.52 374.86,272.40 375.00,241.64 375.14,214.64 375.29,197.99 375.44,194.59 375.59,204.88 375.74,227.28 375.89,258.23 375.97,275.20 376.12,307.07 376.28,327.08 376.44,326.86 376.60,311.33 376.77,292.61 376.93,278.83 377.10,273.41 377.27,276.53 377.44,285.72 377.61,295.77 377.78,299.51 377.96,291.19 378.13,270.94 378.31,243.68 378.49,214.88 378.67,188.53 378.85,167.09 379.04,151.97 379.22,144.00 379.41,143.68 379.60,151.41 379.79,167.53 379.98,192.13 380.17,224.50 380.36,262.32 380.56,299.87 380.75,324.16 380.95,318.38 381.15,286.02 381.35,245.07 381.55,207.93 381.75,181.54 381.95,169.82 382.05,170.09 382.25,183.10 382.46,211.37 382.66,251.10 382.87,295.07 383.08,328.77 383.28,330.13 383.49,299.65 383.70,259.50 383.91,222.94 384.12,195.08 384.33,177.31 384.55,169.12 384.76,169.00 384.97,175.23 385.18,186.71 385.40,203.14 385.61,224.97 385.83,252.88 386.04,286.61 386.26,323.17 386.47,351.94 386.69,349.86 386.91,314.73 387.12,268.64 387.34,224.88 387.56,190.44 387.77,169.82 387.99,165.99 388.21,180.36 388.43,212.62 388.64,260.77 388.86,320.43 388.97,351.58 389.19,387.88 389.40,338.91 389.62,271.23 389.84,209.56 390.05,160.76 390.27,128.92 390.48,116.29 390.70,123.28 390.92,148.43 391.13,187.97 391.34,234.92 391.56,276.74 391.77,293.43 391.99,273.86 392.20,233.68 392.41,192.03 392.62,159.58 392.83,141.54 393.04,139.85 393.25,153.95 393.46,180.72 393.67,213.98 393.87,243.60 394.08,256.19 394.28,243.66 394.49,212.26 394.69,174.76 394.90,141.18 395.10,117.57 395.30,107.10 395.50,110.92 395.69,128.56 395.89,158.20 395.99,176.67 396.19,218.69 396.38,263.77 396.57,305.94 396.77,335.80 396.96,341.38 397.15,323.02 397.33,293.78 397.52,262.16 397.71,231.30 397.89,202.27 398.07,175.69 398.25,152.34 398.43,133.32 398.61,119.90 398.79,113.24 398.96,114.11 399.14,122.67 399.31,138.40 399.48,160.06 399.65,185.76 399.81,213.14 399.98,239.61 400.14,262.58 400.30,279.85 400.46,290.09 400.62,293.26 400.77,290.42 400.93,283.15 401.08,273.13 401.23,262.00 401.38,251.47 401.53,243.21 401.67,238.71 401.74,238.27 401.88,241.50 402.02,250.34 402.16,264.08 402.30,280.75 402.43,296.75 402.56,306.92 402.69,306.37 402.82,294.29 402.94,274.61 403.06,252.62 403.18,232.54 403.30,217.13 403.42,207.91 403.53,205.33 403.64,208.81 403.75,216.81 403.86,226.92 403.96,236.15 404.06,241.59 404.16,241.47 404.26,236.07 404.35,227.52 404.45,218.85 404.54,212.94 404.62,212.00 404.71,217.30 404.79,229.10 404.87,246.59 404.95,267.66 405.02,288.53 405.10,303.47 405.17,306.35 405.23,295.18 405.27,285.51 405.33,261.93 405.39,237.33 405.45,215.69 405.51,199.46 405.56,189.96 405.61,187.63 405.66,192.17 405.70,202.63 405.75,217.54 405.79,234.96 405.82,252.60 405.86,268.03 405.89,279.09 405.92,284.43 405.95,284.01 405.97,279.02 406.00,271.17 406.02,262.05 406.03,252.82 406.05,244.23 406.06,236.77 406.07,230.77 406.07,226.46 406.08,224.01 406.08,223.46 406.08,327.06 406.08,325.13 406.08,320.69 406.09,313.91 406.10,305.03 406.11,294.42 406.13,282.50 406.15,269.77 406.16,263.26 406.18,250.28 406.20,237.75 406.23,226.14 406.26,215.84 406.29,207.17 406.33,200.36 406.37,195.58 406.41,192.90 406.45,192.36 406.49,193.92 406.54,197.55 406.59,203.20 406.65,210.83 406.70,220.44 406.76,231.97 406.82,245.33 406.89,260.25 406.95,276.14 407.02,291.81 407.09,305.21 407.17,313.28 407.24,312.77 407.32,302.32 407.40,283.49 407.49,259.46 407.57,233.46 407.66,208.15 407.75,185.69 407.85,167.80 407.94,155.78 408.04,150.48 408.14,152.30 408.24,161.11 408.30,167.93 408.40,185.73 408.51,207.65 408.62,231.55 408.74,254.78 408.85,274.48 408.97,288.28 409.09,295.36 409.21,297.15 409.34,296.42 409.46,295.83 409.59,296.83 409.72,299.36 409.86,301.90 409.99,302.01 410.13,297.54 410.27,288.04 410.41,275.18 410.55,261.92 410.70,251.40 410.85,246.18 411.00,247.89 411.15,257.07 411.30,272.78 411.46,292.22 411.61,309.86 411.77,317.75 411.93,310.36 412.09,290.69 412.26,266.87 412.42,246.18 412.59,233.65 412.76,232.39 412.93,244.01 413.02,254.78 413.19,285.76 413.37,327.68 413.54,377.38 413.72,422.45 413.90,378.72 414.08,328.98 414.26,287.66 414.45,258.74 414.63,244.93 414.82,247.55 415.01,266.08 415.20,297.65 415.39,334.96 415.58,358.26 415.77,339.47 415.97,293.73 416.16,244.80 416.36,202.99 416.56,173.40 416.76,158.60 416.96,159.27 417.16,174.44 417.36,201.52 417.56,236.40 417.77,273.30 417.97,304.36 418.18,320.41 418.38,317.71 418.59,303.43 418.80,287.36 419.01,275.16 419.22,268.58 419.43,266.83 419.53,267.02 419.74,267.38 419.95,264.78 420.17,256.90 420.38,243.84 420.59,227.88 420.81,212.29 421.02,200.26 421.24,194.31 421.45,195.97 421.67,205.89 421.88,223.66 422.10,247.63 422.32,274.74 422.53,299.71 422.75,314.73 422.97,312.97 423.18,295.87 423.40,271.37 423.62,246.81 423.84,226.76 424.05,213.83 424.27,209.36 424.49,213.61 424.70,225.96 424.92,244.98 425.14,268.21 425.35,291.88 425.57,310.43 425.79,317.12 426.00,308.48 426.22,287.91 426.43,261.66 426.65,234.73 426.75,222.06 426.97,199.72 427.18,182.66 427.39,171.95 427.61,168.05 427.82,170.82 428.03,179.43 428.24,192.12 428.45,206.03 428.66,217.40 428.87,222.32 429.08,218.42 429.28,206.32 429.49,189.37 429.69,171.88 429.90,157.69 430.10,149.50 430.30,148.68 430.51,155.11 430.71,167.37 430.91,182.84 431.10,198.15 431.30,209.98 431.50,216.30 431.69,217.26 431.89,214.89 432.08,211.91 432.27,210.50 432.46,211.70 432.65,215.53 432.84,221.41 433.02,228.69 433.21,237.11 433.39,246.91 433.48,252.46 433.66,264.80 433.84,277.87 434.02,288.68 434.20,292.30 434.37,284.16 434.54,264.10 434.72,236.58 434.89,207.48 435.05,182.01 435.22,164.27 435.39,157.07 435.55,161.91 435.71,178.89 435.87,206.52 436.03,241.19 436.18,276.01 436.34,299.04 436.49,297.25 436.64,271.52 436.79,235.42 436.94,200.53 437.08,173.72 437.22,158.93 437.36,158.24 437.50,172.36 437.64,200.77 437.77,241.84 437.90,292.88 438.03,349.65 438.16,397.75 438.29,372.95 438.41,316.61 438.47,288.94 438.59,238.69 438.71,197.81 438.83,168.19 438.94,150.75 439.05,145.49 439.16,151.58 439.27,167.41 439.37,190.74 439.47,218.90 439.57,248.97 439.67,278.11 439.76,303.98 439.85,325.28 439.94,342.32 440.03,356.89 440.12,371.16 440.20,385.94 440.28,397.44 440.36,394.02 440.43,373.21 440.50,344.57 440.58,313.78 440.64,283.93 440.71,257.26 440.77,235.49 440.83,219.84 440.89,210.99 440.94,209.03 440.99,213.45 441.04,223.12 441.09,236.36 441.13,250.98 441.18,264.46 441.20,269.99 441.23,277.39 441.27,279.19 441.30,275.88 441.33,269.06 441.36,260.63 441.38,252.10 441.41,244.39 441.43,237.90 441.44,232.68 441.46,228.58 441.47,225.41 441.48,223.02 441.48,221.36 441.48,220.42 441.49,220.21 441.49,351.66 441.49,351.41 441.49,350.63 441.50,348.89 441.51,345.66 441.52,340.49 441.54,333.22 441.56,324.01 441.58,313.31 441.60,301.75 441.63,290.07 441.65,278.97 441.69,269.11 441.72,261.01 441.76,255.06 441.79,251.44 441.84,250.08 441.88,250.65 441.90,251.46 441.95,253.63 442.00,255.66 442.06,256.43 442.11,255.01 442.17,250.88 442.23,244.13 442.30,235.48 442.36,226.05 442.43,217.12 442.50,209.88 442.58,205.33 442.65,204.15 442.73,206.68 442.81,212.90 442.90,222.39 442.98,234.38 443.07,247.73 443.16,261.04 443.26,272.81 443.35,281.75 443.45,287.18 443.55,289.31 443.65,289.19 443.76,288.27 443.87,287.96 443.98,289.32 444.09,292.86 444.20,298.53 444.32,305.69 444.44,313.09 444.56,319.03 444.68,321.65 444.81,319.70 444.87,316.95 445.00,308.50 445.13,297.44 445.27,285.53 445.40,274.29 445.54,264.88 445.68,258.03 445.82,254.11 445.96,253.12 446.11,254.72 446.26,258.28 446.41,262.87 446.56,267.37 446.71,270.57 446.86,271.34 447.02,269.01 447.18,263.57 447.34,255.65 447.50,246.43 447.67,237.30 447.83,229.75 448.00,225.25 448.17,225.05 448.34,230.14 448.51,241.19 448.69,258.39 448.86,281.32 449.04,308.58 449.22,337.16 449.40,360.39 449.58,366.22 449.76,350.38 449.95,324.67 450.14,299.06 450.23,287.94 450.42,270.83 450.61,261.70 450.80,260.60 450.99,265.95 451.18,274.44 451.38,280.93 451.57,279.89 451.77,268.48 451.97,248.64 452.17,225.23 452.37,203.18 452.57,186.19 452.77,176.53 452.97,174.98 453.17,180.78 453.38,191.88 453.59,205.10 453.79,216.77 454.00,223.90 454.21,225.67 454.42,223.97 454.63,222.47 454.84,225.08 455.05,234.88 455.26,253.52 455.47,281.02 455.68,315.42 455.90,350.84 456.11,370.04 456.32,351.60 456.54,311.92 456.75,269.84 456.97,232.95 457.08,217.67 457.29,194.97 457.51,183.81 457.73,184.30 457.94,195.38 458.16,214.78 458.38,238.83 458.59,262.71 458.81,280.90 459.03,289.07 459.24,287.31 459.46,280.22 459.68,273.52 459.90,271.42 460.11,275.87 460.33,286.61 460.55,301.23 460.76,314.77 460.98,320.43 461.20,313.49 461.41,296.08 461.63,274.67 461.84,255.44 462.06,242.83 462.27,239.77 462.48,247.79 462.70,267.28 462.91,297.22 463.12,334.39 463.33,368.94 463.55,370.87 463.76,332.12 463.96,282.33 464.17,234.51 464.28,213.21 464.49,178.38 464.69,156.28 464.90,148.78 465.10,156.62 465.31,179.34 465.51,215.16 465.71,261.11 465.92,312.52 466.12,359.65 466.32,373.51 466.51,339.94 466.71,294.96 466.91,253.79 467.10,220.54 467.30,196.46 467.49,181.47 467.68,174.59 467.87,174.27 468.06,178.74 468.25,186.28 468.43,195.43 468.62,205.14 468.80,214.75 468.98,223.99 469.16,232.67 469.34,240.63 469.52,247.64 469.69,253.47 469.87,257.92 470.04,260.92 470.21,262.60 470.38,263.24 470.55,263.23 470.63,263.08 470.80,262.64 470.96,262.18 471.12,261.78 471.28,261.42 471.44,261.07 471.59,260.68 471.75,260.30 471.90,260.02 472.05,259.96 472.20,260.25 472.35,260.97 472.49,262.08 472.63,263.31 472.77,264.11 472.91,263.69 473.05,261.13 473.18,255.63 473.31,246.81 473.44,234.92 473.57,220.83 473.70,205.82 473.82,191.28 473.94,178.51 474.06,168.52 474.18,161.94 474.29,158.93 474.40,159.09 474.51,161.62 474.62,165.38 474.73,169.18 474.83,172.13 474.93,173.93 475.03,175.05 475.08,175.70 475.17,178.10 475.26,183.27 475.35,192.57 475.44,206.82 475.53,226.06 475.61,249.22 475.69,273.71 475.77,294.83 475.84,305.72 475.91,300.88 475.98,281.63 476.05,254.46 476.12,225.61 476.18,199.29 476.24,178.10 476.30,163.45 476.35,155.83 476.40,154.92 476.45,159.80 476.50,168.97 476.54,180.62 476.59,192.84 476.63,203.95 476.66,212.84 476.70,219.18 476.73,223.41 476.76,226.47 476.78,229.35 476.80,232.82 476.83,237.24 476.84,242.55 476.86,248.37 476.87,251.30 476.88,256.84 476.89,261.52 476.89,264.95 476.89,266.92 476.90,267.37 476.90,311.06 476.90,308.32 476.90,302.17 476.91,293.11 476.92,281.97 476.93,269.80 476.95,257.84 476.97,247.33 476.99,239.49 477.01,235.32 477.04,235.54 477.06,240.52 477.09,250.19 477.13,263.99 477.17,280.80 477.20,298.89 477.25,315.80 477.29,328.47 477.34,334.06 477.39,331.77 477.44,323.60 477.49,312.80 477.55,302.08 477.61,293.16 477.67,286.87 477.74,283.42 477.81,282.59 477.88,283.92 477.91,285.22 477.99,288.73 478.06,292.95 478.14,297.35 478.22,301.30 478.31,304.07 478.39,304.76 478.48,302.46 478.57,296.52 478.67,286.87 478.76,274.18 478.86,259.62 478.96,244.63 479.06,230.60 479.17,218.80 479.28,210.15 479.39,205.22 479.50,204.15 479.61,206.65 479.73,212.01 479.85,219.22 479.97,227.13 480.09,234.69 480.22,241.22 480.35,246.64 480.48,251.48 480.61,256.75 480.74,263.62 480.88,273.14 481.02,286.09 481.16,302.80 481.30,323.17 481.45,346.68 481.59,372.33 481.67,385.36 481.81,408.22 481.97,407.66 482.12,384.44 482.27,358.11 482.43,332.73 482.59,309.49 482.75,289.13 482.91,272.22 483.08,259.29 483.24,250.80 483.41,247.18 483.58,248.67 483.75,255.17 483.92,266.03 484.10,279.82 484.27,293.93 484.45,304.41 484.63,306.87 484.81,299.12 484.99,283.00 485.17,262.78 485.36,242.81 485.54,226.38 485.73,215.65 485.92,211.70 486.11,214.59 486.30,223.09 486.49,234.79 486.69,246.06 486.88,252.70 487.08,251.44 487.28,241.84 487.48,226.51 487.57,217.95 487.77,201.48 487.98,188.46 488.18,180.89 488.38,179.54 488.58,183.99 488.79,192.73 488.99,203.51 489.20,213.75 489.41,221.32 489.62,225.40 489.83,226.88 490.04,227.99 490.25,231.27 490.46,238.75 490.67,251.33 490.88,268.25 491.09,286.70 491.31,301.45 491.52,305.76 491.73,296.07 491.95,275.64 492.16,251.17 492.38,228.58 492.59,211.92 492.81,203.62 493.03,204.66 493.24,214.53 493.46,231.16 493.68,250.67 493.89,267.11 494.11,273.57 494.33,266.10 494.55,247.08 494.65,235.21 494.87,210.92 495.09,190.29 495.31,177.16 495.52,173.84 495.74,181.49 495.96,200.32 496.17,229.63 496.39,267.97 496.61,313.32 496.82,363.07 497.04,412.99 497.25,400.15 497.47,354.43 497.68,314.73 497.89,283.81 498.11,263.35 498.32,254.21 498.53,256.32 498.74,268.49 498.95,288.42 499.16,312.18 499.37,333.42 499.58,343.25 499.79,336.20 500.00,317.28 500.21,295.03 500.41,274.94 500.62,259.63 500.82,249.81 501.02,244.93 501.22,243.56 501.43,243.70 501.63,243.22 501.73,242.21 501.92,238.17 502.12,231.57 502.32,223.54 502.51,215.85 502.71,210.30 502.90,208.39 503.09,211.19 503.28,219.11 503.47,231.86 503.66,248.36 503.84,266.66 504.03,283.65 504.21,295.52 504.39,298.95 504.57,293.27 504.75,281.19 504.93,266.94 505.10,254.21 505.28,245.61 505.45,242.68 505.62,246.02 505.79,255.25 505.96,269.08 506.12,285.31 506.29,300.65 506.45,311.04 506.61,313.01 506.77,306.04 506.93,292.91 507.08,277.47 507.23,262.87 507.39,251.12 507.53,243.21 507.61,240.82 507.75,239.07 507.90,240.88 508.04,245.39 508.18,251.57 508.32,258.36 508.46,264.71 508.59,269.73 508.72,272.74 508.85,273.38 508.98,271.65 509.11,267.93 509.23,262.93 509.35,257.60 509.47,253.08 509.59,250.50 509.70,250.90 509.81,255.01 509.92,263.11 510.03,274.82 510.14,288.80 510.24,302.40 510.34,311.43 510.44,311.24 510.53,299.77 510.63,279.29 510.72,254.18 510.81,228.57 510.89,205.65 510.98,187.77 511.06,176.56 511.14,173.05 511.21,177.68 511.29,190.33 511.32,199.47 511.39,222.70 511.46,251.22 511.53,282.85 511.59,314.36 511.65,340.53 511.71,353.47 511.76,348.21 511.81,330.67 511.86,309.75 511.91,290.72 511.95,276.09 512.00,266.99 512.03,263.72 512.07,266.01 512.11,273.09 512.14,283.76 512.16,296.39 512.19,308.91 512.21,318.91 512.23,324.19 512.25,323.68 512.27,318.10 512.28,309.48 512.29,300.09 512.30,291.82 512.30,285.98 512.30,283.34 512.30,213.27 512.31,213.26 512.31,213.17 512.31,212.78 512.32,211.74 512.33,209.63 512.34,208.02 512.36,203.51 512.37,197.10 512.40,188.87 512.42,179.24 512.44,168.95 512.47,159.00 512.50,150.52 512.54,144.68 512.57,142.53 512.61,144.95 512.66,152.51 512.70,165.39 512.75,183.38 512.80,205.76 512.85,231.31 512.90,258.32 512.96,284.50 513.02,307.12 513.08,323.29 513.15,331.17 513.22,331.35 513.29,326.46 513.36,319.05 513.43,310.29 513.51,299.95 513.59,287.14 513.67,271.27 513.76,252.67 513.85,232.67 513.94,213.30 514.03,196.83 514.12,185.37 514.17,182.06 514.27,181.05 514.37,187.94 514.47,202.40 514.58,223.02 514.69,247.08 514.80,270.32 514.91,287.17 515.02,292.66 515.14,286.11 515.26,271.99 515.38,256.18 515.50,242.92 515.63,234.16 515.76,229.71 515.89,227.57 516.02,224.52 516.15,217.32 516.29,204.28 516.43,186.32 516.57,166.65 516.71,149.43 516.85,138.69 517.00,137.67 517.15,148.53 517.30,172.10 517.45,207.68 517.61,252.57 517.76,300.51 517.92,335.78 518.08,330.60 518.24,288.71 518.40,237.17 518.57,189.96 518.65,170.18 518.82,140.96 518.99,127.77 519.16,132.00 519.33,153.65 519.51,191.48 519.68,242.79 519.86,302.95 520.04,360.95 520.22,371.03 520.40,317.54 520.58,254.71 520.77,197.74 520.95,151.49 521.14,118.43 521.33,99.52 521.52,94.28 521.71,101.05 521.90,116.91 522.10,137.88 522.29,159.34 522.49,176.94 522.69,187.80 522.88,191.83 523.08,191.77 523.28,191.65 523.49,195.28 523.69,205.37 523.89,223.18 524.10,248.69 524.30,280.63 524.51,316.27 524.71,350.14 524.92,369.55 525.03,368.17 525.24,345.93 525.44,313.48 525.66,281.28 525.87,253.45 526.08,231.76 526.29,217.01 526.50,209.44 526.72,208.73 526.93,214.12 527.14,224.36 527.36,237.64 527.57,251.47 527.79,262.93 528.00,269.18 528.22,268.75 528.44,262.58 528.65,253.70 528.87,245.84 529.09,242.38 529.30,245.83 529.52,257.48 529.74,276.97 529.96,301.72 530.17,324.73 530.39,332.51 530.61,314.59 530.82,278.16 531.04,235.66 531.26,195.27 531.47,162.04 531.69,139.20 531.91,128.48 532.12,130.38 532.23,135.88 532.45,154.98 532.66,182.71 532.88,215.61 533.09,249.09 533.30,277.37 533.52,294.32 533.73,296.58 533.94,286.94 534.15,271.92 534.36,257.14 534.57,246.08 534.78,240.59 534.99,241.37 535.20,248.22 535.41,260.06 535.61,274.66 535.82,288.36 536.03,296.43 536.23,294.69 536.43,282.69 536.63,264.07 536.84,243.80 537.04,226.21 537.23,214.39 537.43,210.21 537.63,214.47 537.82,227.00 538.02,246.64 538.21,271.35 538.40,298.24 538.59,323.45 538.78,342.31 538.97,351.14 539.07,351.85 539.25,348.93 539.44,345.21 539.62,344.93 539.80,349.99 539.98,360.48 540.16,374.71 540.34,388.32 540.51,392.54 540.69,381.88 540.86,363.25 541.03,343.52 541.20,325.81 541.37,311.22 541.53,299.59 541.70,289.74 541.86,279.84 542.02,267.95 542.18,252.78 542.34,234.26 542.49,213.52 542.64,192.46 542.79,173.24 542.94,157.84 543.09,147.90 543.24,144.59 543.38,148.47 543.52,159.50 543.66,176.98 543.80,199.56 543.93,225.20 544.07,251.12 544.20,273.80 544.33,289.57 544.39,294.02 544.52,296.05 544.64,291.36 544.76,284.29 544.88,278.74 545.00,277.18 545.11,280.46 545.22,287.83 545.33,296.69 545.44,302.51 545.55,299.90 545.65,285.83 545.75,261.90 545.85,232.47 545.94,202.06 546.04,174.31 546.13,151.89 546.22,136.52 546.30,128.97 546.39,129.09 546.47,135.69 546.55,146.57 546.62,158.65 546.70,168.35 546.77,172.49 546.84,169.45 546.90,159.89 546.97,146.33 547.03,132.00 547.09,119.85 547.14,111.98 547.20,109.44 547.25,112.28 547.30,119.64 547.32,124.54 547.36,135.51 547.41,146.25 547.44,154.78 547.48,159.77 547.51,160.97 547.55,159.08 547.57,155.48 547.60,151.66 547.62,148.82 547.64,147.66 547.66,148.37 547.68,150.70 547.69,154.10 547.70,157.87 547.71,161.30 547.71,163.79 547.71,164.93 547.71,297.42 547.72,297.16 547.72,296.07 547.72,294.30 547.73,292.15 547.74,289.95 547.76,288.01 547.78,286.39 547.79,284.84 547.82,282.66 547.84,278.81 547.87,272.20 547.90,262.09 547.93,248.56 547.97,232.51 548.00,215.41 548.02,206.98 548.07,191.39 548.11,178.54 548.16,169.29 548.21,163.93 548.26,162.17 548.31,163.22 548.37,166.04 548.43,169.65 548.49,173.41 548.56,177.24 548.63,181.58 548.70,187.07 548.77,194.08 548.84,202.23 548.92,210.03 549.00,214.97 549.08,214.15 549.17,205.76 549.26,190.29 549.35,170.53 549.44,150.50 549.53,134.26 549.63,125.21 549.73,125.83 549.83,137.47 549.93,160.34 550.04,193.45 550.15,234.53 550.26,279.68 550.37,321.96 550.49,347.62 550.61,341.54 550.73,313.62 550.79,297.59 550.91,267.92 551.04,245.18 551.17,231.05 551.30,225.28 551.43,226.36 551.56,231.92 551.70,239.32 551.84,246.38 551.98,252.12 552.12,257.03 552.26,262.66 552.41,270.69 552.56,281.88 552.71,295.20 552.86,307.07 553.02,311.37 553.17,302.67 553.33,281.14 553.49,251.91 553.65,220.77 553.81,192.20 553.98,169.29 554.15,153.94 554.31,147.00 554.48,148.45 554.66,157.49 554.83,172.73 555.00,192.31 555.18,214.15 555.36,235.94 555.54,255.09 555.72,268.82 555.81,272.82 555.99,273.95 556.18,265.96 556.36,250.85 556.55,232.02 556.74,213.17 556.93,197.67 557.12,188.36 557.31,187.32 557.51,195.72 557.70,213.37 557.90,238.27 558.10,265.69 558.29,286.78 558.49,289.87 558.69,270.41 558.90,236.42 559.10,198.93 559.30,165.96 559.51,142.53 559.71,131.61 559.92,134.43 560.12,150.54 560.33,177.86 560.54,212.56 560.75,248.52 560.96,276.87 561.17,287.77 561.38,278.17 561.59,255.64 561.81,229.96 562.02,207.19 562.23,189.99 562.45,178.88 562.55,175.45 562.77,172.26 562.98,173.26 563.20,178.15 563.41,187.24 563.63,201.20 563.85,220.49 564.06,244.63 564.28,271.07 564.50,293.89 564.71,303.43 564.93,292.39 565.15,264.69 565.36,230.37 565.58,197.73 565.80,172.24 566.02,157.11 566.23,153.78 566.45,161.85 566.67,178.83 566.88,199.89 567.10,217.95 567.32,225.24 567.53,217.91 567.75,199.34 567.96,177.39 568.18,159.81 568.39,152.19 568.61,157.61 568.82,176.58 569.03,206.90 569.25,242.96 569.46,274.05 569.67,284.86 569.77,279.49 569.98,251.90 570.19,215.30 570.40,182.44 570.61,160.88 570.82,154.62 571.02,165.03 571.23,191.09 571.43,229.36 571.64,272.97 571.84,308.65 572.04,315.95 572.24,290.13 572.44,250.95 572.64,214.60 572.84,189.06 573.04,178.04 573.23,182.62 573.43,201.69 573.62,231.97 573.81,267.70 574.00,299.24 574.19,312.98 574.38,301.89 574.57,275.71 574.75,247.71 574.94,225.70 575.12,213.02 575.30,210.16 575.48,215.54 575.66,225.97 575.83,237.34 576.01,245.84 576.18,249.75 576.27,250.27 576.44,250.44 576.61,252.82 576.78,260.87 576.94,276.48 577.11,299.19 577.27,324.95 577.43,343.31 577.59,338.70 577.74,310.19 577.90,271.54 578.05,233.18 578.20,200.93 578.35,178.02 578.50,165.87 578.65,164.25 578.79,171.24 578.93,183.24 579.07,195.29 579.21,202.19 579.34,200.58 579.48,190.83 579.61,176.67 579.74,163.09 579.86,154.44 579.99,153.63 580.11,162.00 580.23,179.43 580.35,204.46 580.46,234.48 580.58,265.87 580.69,294.08 580.80,314.14 580.90,322.61 580.96,322.58 581.06,316.56 581.16,306.38 581.26,294.70 581.35,281.92 581.45,267.23 581.54,249.94 581.63,230.29 581.71,209.58 581.80,189.78 581.88,173.01 581.96,161.00 582.03,154.86 582.11,154.81 582.18,160.20 582.25,169.44 582.31,180.29 582.38,190.18 582.44,196.95 582.50,199.53 582.55,198.38 582.61,195.25 582.66,192.42 582.71,191.99 582.75,195.46 582.79,203.55 582.83,216.31 582.87,233.16 582.91,253.11 582.94,274.90 582.97,297.14 583.00,318.41 583.02,337.41 583.04,352.96 583.05,359.16 583.07,368.10 583.09,372.66 583.10,373.85 583.11,373.08 583.12,371.62 583.12,370.32 583.12,369.69 583.12,295.04 583.12,294.23 583.13,290.57 583.13,283.95 583.14,274.36 583.15,261.99 583.17,247.23 583.18,230.77 583.20,213.57 583.23,196.80 583.25,181.80 583.28,169.97 583.31,162.69 583.34,161.19 583.38,166.43 583.41,178.94 583.45,198.75 583.50,225.20 583.54,256.78 583.59,290.80 583.64,322.69 583.69,344.81 583.75,348.91 583.81,337.12 583.87,320.65 583.93,308.23 583.97,305.10 584.03,306.67 584.10,319.56 584.18,343.36 584.25,374.78 584.33,396.71 584.41,370.17 584.49,320.70 584.58,268.12 584.66,218.67 584.75,176.42 584.85,144.54 584.94,125.35 585.04,120.25 585.14,129.59 585.24,152.70 585.34,187.87 585.45,232.48 585.56,283.00 585.67,334.44 585.78,376.05 585.90,379.07 586.02,347.52 586.14,313.37 586.26,285.95 586.38,267.55 586.51,258.37 586.64,257.46 586.77,263.02 586.90,272.60 587.04,283.39 587.18,292.63 587.32,298.32 587.46,299.92 587.53,299.43 587.67,296.97 587.82,294.17 587.97,292.77 588.12,293.99 588.27,298.42 588.43,306.01 588.58,315.96 588.74,326.56 588.90,334.89 589.06,337.18 589.22,330.97 589.39,317.19 589.55,299.18 589.72,280.62 589.89,264.48 590.07,252.82 590.24,246.82 590.41,246.78 590.59,251.95 590.77,260.41 590.95,269.08 591.13,274.10 591.31,272.05 591.49,261.84 591.68,245.29 591.87,225.74 592.05,206.64 592.24,190.68 592.43,179.65 592.63,174.54 592.82,175.63 593.01,182.36 593.21,193.42 593.31,199.94 593.51,213.22 593.70,223.96 593.90,228.80 594.10,225.73 594.31,215.21 594.51,200.03 594.71,184.05 594.92,170.96 595.12,163.51 595.33,163.27 595.53,170.55 595.74,184.28 595.95,202.00 596.16,220.22 596.37,235.19 596.58,244.32 596.79,247.79 597.00,248.66 597.21,251.08 597.43,258.27 597.64,271.30 597.86,288.19 598.07,302.92 598.28,306.22 598.50,292.20 598.72,264.85 598.93,232.93 599.15,203.54 599.36,181.01 599.58,167.30 599.80,162.28 600.01,164.21 600.23,170.56 600.34,174.63 600.56,183.64 600.77,194.00 600.99,207.59 601.21,227.20 601.43,255.34 601.64,292.95 601.86,337.82 602.08,376.96 602.29,365.92 602.51,314.12 602.73,258.06 602.94,209.17 603.16,173.19 603.37,153.80 603.59,152.88 603.80,170.42 604.02,204.66 604.23,252.11 604.44,307.53 604.65,362.84 604.87,393.50 605.08,367.13 605.29,331.90 605.50,308.08 605.71,299.61 605.92,306.31 606.12,324.27 606.33,343.23 606.54,343.53 606.74,315.11 606.95,271.66 607.15,226.90 607.25,206.68 607.45,173.83 607.65,153.91 607.85,148.65 608.05,158.10 608.25,180.67 608.45,213.49 608.64,252.61 608.84,293.33 609.03,330.48 609.22,359.09 609.41,376.05 609.60,383.69 609.79,387.41 609.98,386.39 610.16,372.73 610.35,344.19 610.53,306.00 610.71,263.90 610.89,222.83 611.07,187.09 611.24,160.32 611.42,145.14 611.59,143.02 611.76,154.12 611.93,177.12 612.10,208.90 612.27,244.06 612.43,274.09 612.60,287.80 612.76,278.95 612.92,253.94 613.08,223.99 613.23,197.02 613.31,186.11 613.46,170.87 613.61,164.93 613.76,167.64 613.91,177.19 614.06,190.97 614.20,205.84 614.34,218.70 614.48,227.20 614.62,230.47 614.75,229.22 614.89,225.21 615.02,220.36 615.15,216.23 615.27,213.81 615.40,213.59 615.52,215.79 615.64,220.51 615.76,227.87 615.87,238.05 615.99,251.21 616.10,267.47 616.21,286.81 616.31,308.98 616.42,333.51 616.52,359.64 616.62,386.26 616.72,411.44 616.81,422.66 616.90,405.84 616.99,389.64 617.08,378.75 617.16,374.39 617.25,376.96 617.29,380.65 617.37,390.97 617.44,396.97 617.52,383.47 617.59,352.84 617.66,314.01 617.72,271.70 617.79,229.02 617.85,188.60 617.91,152.78 617.96,123.54 618.02,102.40 618.07,90.32 618.12,87.70 618.16,94.32 618.20,109.39 618.24,131.64 618.28,159.42 618.32,190.83 618.35,223.87 618.38,256.55 618.41,286.97 618.43,313.38 618.45,334.26 618.47,348.57 618.49,356.26 618.50,358.61 618.51,357.74 618.52,355.58 618.53,353.45 618.53,352.07 618.53,166.55 618.53,166.53 618.54,166.14 618.54,165.78 618.54,164.93 618.55,164.25 618.56,164.26 618.58,165.54 618.59,168.55 618.61,173.53 618.64,180.33 618.66,188.33 618.69,196.39 618.72,203.04 618.75,206.80 618.78,206.67 618.82,202.51 618.86,195.14 618.91,185.98 618.95,176.49 619.00,167.87 619.05,160.78 619.10,155.45 619.16,151.76 619.22,149.55 619.28,148.78 619.34,149.64 619.41,152.46 619.48,157.47 619.55,164.47 619.62,172.48 619.70,179.63 619.78,183.37 619.86,181.39 619.94,172.84 620.03,159.06 620.12,143.30 620.16,135.95 620.26,124.86 620.35,121.50 620.45,128.44 620.55,146.93 620.65,176.62 620.75,215.26 620.86,257.76 620.97,294.02 621.08,307.59 621.19,289.80 621.31,253.97 621.43,216.30 621.55,186.20 621.67,168.62 621.79,165.91 621.92,178.48 622.05,204.90 622.18,241.83 622.31,283.32 622.45,318.60 622.59,330.42 622.73,311.95 622.87,279.25 623.01,247.19 623.16,222.65 623.30,208.05 623.45,203.11 623.60,205.47 623.76,211.12 623.91,215.27 624.07,214.10 624.23,206.51 624.39,194.54 624.47,188.07 624.63,176.64 624.80,169.79 624.96,169.28 625.13,175.34 625.30,186.83 625.47,201.67 625.65,217.44 625.82,232.17 626.00,245.17 626.18,257.21 626.36,270.07 626.54,285.42 626.72,303.91 626.90,324.22 627.09,342.08 627.28,350.08 627.46,343.02 627.65,324.93 627.84,303.75 628.04,285.06 628.23,271.81 628.42,265.09 628.62,264.68 628.82,269.22 629.01,276.53 629.21,283.81 629.41,287.94 629.61,285.94 629.82,275.98 630.02,258.07 630.22,233.91 630.43,206.38 630.63,178.92 630.74,166.31 630.94,145.46 631.15,133.00 631.36,131.21 631.57,141.22 631.78,162.85 631.99,194.28 632.20,231.83 632.41,269.64 632.62,299.21 632.84,311.60 633.05,306.22 633.26,293.10 633.48,282.66 633.69,280.61 633.91,288.11 634.12,302.01 634.34,313.77 634.56,310.47 634.77,285.93 634.99,247.46 635.21,205.78 635.42,169.09 635.64,143.12 635.86,131.74 636.08,137.05 636.29,159.44 636.51,197.60 636.73,248.26 636.94,305.23 637.16,353.51 637.38,354.47 637.59,309.69 637.81,258.86 637.92,236.19 638.14,200.25 638.35,179.39 638.57,174.46 638.78,184.24 639.00,205.31 639.21,231.57 639.43,254.06 639.64,262.87 639.85,253.67 640.06,232.14 640.28,208.23 640.49,189.92 640.70,182.01 640.91,186.62 641.12,203.75 641.33,231.31 641.53,265.13 641.74,298.18 641.95,319.77 642.15,320.18 642.36,302.94 642.56,280.46 642.76,261.84 642.96,251.38 643.16,250.08 643.36,256.52 643.56,266.96 643.76,275.73 643.95,276.98 644.15,268.03 644.34,251.33 644.54,232.24 644.73,215.81 644.82,209.75 645.01,203.26 645.20,204.85 645.39,213.75 645.57,227.78 645.76,243.62 645.94,257.29 646.12,265.25 646.30,265.92 646.48,260.34 646.65,251.02 646.83,240.27 647.00,229.30 647.17,218.29 647.34,206.95 647.51,195.17 647.68,183.44 647.84,172.82 648.01,164.65 648.17,160.11 648.33,159.78 648.49,163.29 648.64,169.27 648.80,175.59 648.95,179.89 649.10,180.47 649.25,177.06 649.39,171.09 649.54,165.14 649.68,161.97 649.82,163.75 649.96,171.56 650.09,185.13 650.16,193.55 650.30,211.69 650.43,227.65 650.56,235.94 650.68,232.41 650.81,217.09 650.93,194.03 651.05,168.69 651.17,145.82 651.28,128.90 651.40,120.17 651.51,120.73 651.62,130.66 651.72,149.12 651.83,174.38 651.93,203.81 652.03,233.85 652.13,259.92 652.22,277.05 652.31,282.03 652.40,276.00 652.49,263.75 652.57,250.39 652.66,239.46 652.74,232.84 652.81,231.06 652.89,233.72 652.96,239.73 653.03,247.66 653.10,256.03 653.16,263.69 653.23,270.09 653.29,275.36 653.34,280.10 653.37,282.47 653.43,287.45 653.48,292.53 653.52,296.76 653.57,298.43 653.61,295.68 653.65,287.40 653.69,273.91 653.73,256.69 653.76,237.72 653.79,218.88 653.82,201.62 653.84,186.96 653.86,175.40 653.88,167.05 653.90,161.66 653.91,158.75 653.92,157.64 653.93,157.65 653.94,158.13 653.94,158.58 653.94,158.69 653.94,217.54 653.95,218.70 653.95,221.47 653.96,226.05 653.97,232.68 653.98,241.65 654.00,253.18 654.01,267.35 654.03,284.02 654.06,302.65 654.08,322.07 654.11,340.02 654.13,347.31 654.16,355.54 654.19,352.60 654.23,340.01 654.27,322.66 654.32,304.84 654.36,289.42 654.41,278.18 654.46,272.19 654.51,271.83 654.57,276.84 654.63,286.13 654.69,297.66 654.75,308.19 654.82,313.55 654.89,310.17 654.96,297.45 655.03,277.89 655.11,254.97 655.19,231.62 655.27,209.81 655.35,190.69 655.44,174.81 655.53,162.26 655.62,152.87 655.71,146.41 655.81,142.72 655.91,141.87 656.01,144.17 656.11,150.13 656.22,160.30 656.32,175.08 656.43,194.51 656.55,218.00 656.60,230.86 656.72,257.33 656.84,281.74 656.96,298.93 657.08,303.71 657.20,295.05 657.33,277.54 657.46,257.38 657.59,239.39 657.72,226.63 657.86,220.77 658.00,222.26 658.14,230.52 658.28,243.92 658.42,259.80 658.57,274.51 658.71,283.97 658.86,285.35 659.01,278.84 659.17,267.47 659.32,255.09 659.48,244.85 659.64,238.71 659.80,237.42 659.96,240.62 660.12,247.06 660.29,254.75 660.46,261.28 660.63,264.35 660.80,262.58 660.97,256.07 661.14,246.18 661.32,234.82 661.50,223.79 661.59,218.86 661.77,210.84 661.95,205.87 662.13,204.32 662.31,206.29 662.50,211.73 662.69,220.53 662.87,232.45 663.06,247.18 663.25,264.34 663.45,283.19 663.64,302.15 663.83,318.04 664.03,325.68 664.23,319.85 664.42,300.38 664.62,272.04 664.82,240.29 665.02,209.45 665.23,182.82 665.43,162.70 665.63,150.48 665.84,146.56 666.04,150.26 666.25,159.70 666.46,172.02 666.66,183.77 666.87,191.65 667.08,193.72 667.29,190.25 667.50,183.30 667.72,175.62 667.93,169.55 668.14,166.33 668.25,165.83 668.46,166.58 668.67,168.44 668.89,169.77 669.10,169.30 669.32,166.73 669.53,162.80 669.75,159.14 669.97,157.64 670.18,159.85 670.40,166.76 670.62,178.56 670.83,194.53 671.05,213.26 671.27,232.67 671.48,250.20 671.70,263.42 671.92,270.67 672.14,271.62 672.35,267.35 672.57,259.48 672.79,249.31 673.00,237.59 673.22,224.64 673.44,210.57 673.65,195.73 673.87,180.76 674.08,166.52 674.30,154.01 674.51,144.22 674.73,137.81 674.94,135.14 675.16,136.15 675.37,140.31 675.47,143.30 675.69,150.45 675.90,158.18 676.11,165.29 676.32,170.78 676.53,174.02 676.74,174.67 676.94,172.79 677.15,168.75 677.36,163.12 677.56,156.63 677.77,150.20 677.97,144.91 678.17,141.91 678.37,142.42 678.57,147.65 678.77,158.47 678.97,175.33 679.17,197.96 679.36,224.93 679.56,252.92 679.75,275.84 679.95,285.01 680.14,274.43 680.33,247.26 680.52,212.05 680.70,176.43 680.89,145.67 681.07,123.22 681.26,111.17 681.44,110.42 681.62,120.75 681.80,140.75 681.98,168.02 682.06,183.33 682.24,214.66 682.41,242.78 682.58,262.66 682.75,271.23 682.92,269.55 683.09,262.18 683.25,254.03 683.42,248.35 683.58,246.44 683.74,247.96 683.90,251.38 684.05,254.61 684.21,255.66 684.36,253.44 684.51,248.07 684.66,240.72 684.80,232.91 684.95,225.86 685.09,220.15 685.23,215.63 685.37,211.64 685.50,207.30 685.64,201.89 685.77,195.24 685.90,187.87 686.03,180.88 686.15,175.65 686.28,173.54 686.40,175.56 686.52,182.27 686.63,193.57 686.75,208.74 686.86,226.41 686.92,235.58 687.03,253.07 687.13,267.35 687.24,276.35 687.34,279.36 687.44,277.51 687.53,273.19 687.63,268.95 687.72,266.82 687.81,268.03 687.90,272.99 687.98,281.40 688.07,292.38 688.15,304.56 688.22,316.28 688.30,325.90 688.37,332.29 688.44,335.29 688.51,335.76 688.57,335.02 688.64,334.12 688.70,333.41 688.75,332.36 688.81,329.79 688.86,324.26 688.91,314.83 688.96,301.51 689.00,285.23 689.04,267.35 689.08,249.31 689.12,232.36 689.15,217.46 689.18,205.28 689.20,200.31 689.23,192.70 689.25,188.05 689.27,186.00 689.29,186.03 689.31,187.53 689.32,189.85 689.33,192.43 689.34,194.80 689.35,196.63 689.35,197.70 689.35,183.04 689.35,183.09 689.35,184.43 689.36,187.47 689.37,192.07 689.38,197.97 689.39,204.80 689.40,212.14 689.42,219.43 689.44,226.08 689.47,231.50 689.49,235.16 689.52,236.74 689.55,236.16 689.59,233.65 689.62,229.71 689.66,225.02 689.70,220.35 689.75,216.44 689.79,213.96 689.84,213.40 689.90,215.13 689.95,219.26 689.98,222.20 690.04,229.69 690.10,238.88 690.16,249.02 690.23,259.07 690.30,267.78 690.37,273.84 690.44,276.19 690.52,274.39 690.60,268.80 690.68,260.45 690.76,250.73 690.85,240.98 690.94,232.32 691.03,225.57 691.12,221.22 691.22,219.41 691.32,219.94 691.42,222.31 691.52,225.77 691.63,229.44 691.73,232.42 691.84,234.02 691.96,233.91 692.07,232.20 692.19,229.43 692.31,226.34 692.43,223.72 692.55,222.20 692.68,222.17 692.80,223.73 692.93,226.77 693.07,230.98 693.20,235.95 693.27,238.62 693.41,244.18 693.55,250.01 693.69,256.15 693.83,262.64 693.98,269.37 694.12,275.96 694.27,281.58 694.42,285.10 694.58,285.49 694.73,282.41 694.89,276.49 695.05,269.30 695.21,262.94 695.37,259.47 695.53,260.59 695.70,267.40 695.87,280.28 696.04,298.58 696.21,320.23 696.38,340.92 696.55,352.72 696.73,347.65 696.91,327.76 697.09,301.61 697.27,275.55 697.45,253.14 697.63,236.29 697.82,225.73 698.00,221.36 698.19,222.51 698.38,227.97 698.57,236.36 698.76,246.42 698.86,251.73 699.05,262.40 699.24,272.51 699.44,281.34 699.64,287.69 699.83,289.78 700.03,285.79 700.23,274.90 700.43,258.01 700.63,237.48 700.84,216.37 701.04,197.74 701.25,184.23 701.45,178.02 701.66,180.68 701.87,193.00 702.07,215.02 702.28,246.05 702.49,284.43 702.70,327.21 702.91,367.76 703.13,383.60 703.34,356.11 703.55,315.11 703.76,275.68 703.98,242.35 704.19,217.16 704.41,201.04 704.62,194.13 704.84,195.79 705.05,204.72 705.27,219.11 705.48,236.71 705.70,255.07 705.81,263.83 706.03,279.42 706.24,291.58 706.46,300.43 706.68,307.03 706.89,312.70 707.11,318.22 707.33,323.42 707.55,326.93 707.76,326.71 707.98,321.12 708.20,309.92 708.41,294.38 708.63,276.51 708.85,258.10 709.06,240.54 709.28,224.84 709.49,211.65 709.71,201.43 709.92,194.66 710.14,191.73 710.35,193.01 710.56,198.82 710.78,209.13 710.99,223.37 711.20,240.18 711.41,257.10 711.62,270.53 711.83,276.63 712.04,273.33 712.25,262.05 712.46,246.79 712.66,231.86 712.87,220.51 712.97,216.84 713.17,214.02 713.38,216.91 713.58,224.08 713.78,233.18 713.98,241.38 714.18,246.35 714.38,247.22 714.58,244.89 714.77,241.38 714.97,238.77 715.16,238.34 715.36,240.33 715.55,244.01 715.74,248.19 715.93,251.85 716.11,254.76 716.30,257.87 716.48,262.97 716.67,272.06 716.85,286.86 717.03,308.33 717.21,336.47 717.38,370.06 717.56,405.06 717.73,407.40 717.91,371.42 718.08,335.01 718.25,303.81 718.41,280.41 718.58,266.45 718.74,262.53 718.91,267.84 719.07,279.80 719.15,286.80 719.30,298.09 719.46,298.28 719.61,282.17 719.77,252.94 719.92,217.92 720.07,183.65 720.21,154.98 720.36,135.23 720.50,126.50 720.64,129.74 720.78,144.88 720.91,170.81 721.05,205.38 721.18,245.24 721.31,285.38 721.44,317.90 721.56,331.90 721.69,323.08 721.81,301.61 721.93,279.08 722.04,261.69 722.16,252.05 722.27,250.77 722.38,257.13 722.49,269.35 722.59,284.80 722.70,300.18 722.80,312.10 722.90,318.22 722.99,318.58 723.09,315.33 723.18,311.02 723.27,307.07 723.31,305.20 723.39,300.73 723.48,293.30 723.56,280.73 723.63,262.24 723.71,238.97 723.78,213.33 723.85,188.20 723.92,166.30 723.98,149.92 724.05,140.76 724.11,139.79 724.16,147.28 724.22,162.68 724.27,184.67 724.32,211.04 724.37,238.61 724.41,263.20 724.45,279.93 724.49,285.03 724.53,278.52 724.56,264.27 724.59,246.98 724.62,230.11 724.65,215.54 724.67,203.96 724.69,195.25 724.71,188.90 724.73,184.20 724.74,180.59 724.75,177.70 724.76,175.42 724.76,173.86 724.76,173.15 724.76,173.12 724.76,213.65 724.76,213.37 724.77,212.74 724.78,211.83 724.79,210.75 724.80,209.65 724.81,208.67 724.83,207.84 724.85,206.95 724.88,205.50 724.90,202.71 724.93,197.72 724.96,189.90 725.00,179.22 725.03,166.43 725.07,153.00 725.11,140.90 725.16,132.28 725.20,129.15 725.25,133.17 725.31,145.47 725.36,166.58 725.42,196.33 725.48,233.90 725.54,277.74 725.61,325.48 725.67,372.63 725.74,399.35 725.82,371.37 725.89,329.68 725.97,291.07 726.05,258.77 726.13,233.83 726.17,224.15 726.26,209.97 726.35,201.60 726.44,197.23 726.53,194.75 726.63,192.21 726.73,188.32 726.83,182.80 726.93,176.43 727.04,170.67 727.14,167.17 727.25,167.41 727.37,172.41 727.48,182.60 727.60,197.77 727.72,216.95 727.84,238.33 727.96,259.03 728.09,275.10 728.21,282.09 728.34,277.33 728.48,261.91 728.61,239.78 728.75,215.25 728.88,191.78 729.03,171.88 729.17,157.22 729.31,148.79 729.46,146.96 729.61,151.51 729.76,161.67 729.91,176.19 730.06,193.46 730.14,202.61 730.30,220.94 730.46,238.22 730.62,253.63 730.78,266.87 730.94,277.79 731.11,285.78 731.28,289.36 731.45,286.44 731.62,275.59 731.79,257.37 731.96,234.32 732.14,209.93 732.32,187.80 732.50,171.13 732.68,162.44 732.86,163.45 733.04,174.98 733.23,196.81 733.41,227.55 733.60,264.65 733.79,303.85 733.98,337.84 734.17,354.57 734.36,347.13 734.56,327.69 734.75,309.90 734.95,300.45 735.14,302.06 735.34,315.25 735.54,338.50 735.74,367.09 735.94,385.31 736.15,367.22 736.25,348.56 736.45,306.41 736.66,265.67 736.86,231.27 737.07,206.11 737.28,191.66 737.48,188.14 737.69,194.33 737.90,207.42 738.11,223.13 738.32,236.16 738.53,241.77 738.75,238.41 738.96,228.77 739.17,218.01 739.39,211.20 739.60,211.86 739.82,221.69 740.03,240.30 740.25,264.91 740.46,289.47 740.68,303.91 740.89,298.42 741.11,274.02 741.33,240.56 741.54,207.02 741.76,178.95 741.98,159.42 742.20,149.69 742.41,149.45 742.63,156.99 742.85,169.44 743.06,182.97 743.28,193.43 743.39,196.42 743.61,196.84 743.82,190.24 744.04,178.87 744.26,165.90 744.47,154.24 744.69,146.02 744.90,142.72 745.12,145.28 745.33,154.24 745.55,169.97 745.76,192.49 745.97,221.22 746.19,254.74 746.40,290.05 746.61,321.07 746.82,337.37 747.03,331.07 747.24,309.59 747.45,285.86 747.66,268.16 747.87,260.96 748.07,266.34 748.28,284.68 748.48,314.80 748.69,353.88 748.89,394.82 749.09,398.31 749.29,357.13 749.49,314.84 749.69,279.56 749.89,253.93 750.09,238.62 750.28,232.29 750.38,231.49 750.57,231.57 750.76,229.26 750.96,220.22 751.15,203.73 751.33,183.08 751.52,163.57 751.71,150.47 751.89,147.85 752.08,158.11 752.26,181.90 752.44,217.82 752.62,261.77 752.79,304.49 752.97,326.19 753.14,308.01 753.32,264.43 753.49,216.74 753.66,175.84 753.82,147.27 753.99,134.06 754.15,137.49 754.32,157.32 754.48,191.94 754.64,238.48 754.79,292.33 754.95,344.57 755.10,368.61 755.25,338.41 755.40,289.39 755.55,242.73 755.69,204.63 755.84,177.44 755.98,161.84 756.05,158.26 756.19,158.77 756.32,167.78 756.46,182.67 756.59,200.40 756.72,217.95 756.85,232.93 756.97,244.12 757.10,251.80 757.22,257.50 757.34,263.19 757.45,270.47 757.57,280.20 757.68,292.34 757.79,306.06 757.90,319.87 758.00,331.91 758.11,340.38 758.21,344.40 758.31,344.56 758.40,342.63 758.49,340.55 758.59,339.75 758.67,341.02 758.76,344.55 758.84,350.15 758.93,357.32 759.00,365.43 759.08,373.78 759.15,381.69 759.23,388.56 759.29,393.98 759.36,397.75 759.42,399.97 759.46,400.59 759.52,401.09 759.57,400.93 759.63,400.43 759.68,399.71 759.73,398.81 759.78,397.57 759.82,395.72 759.86,392.91 759.90,388.75 759.94,383.00 759.97,375.55 760.00,366.49 760.03,356.04 760.06,344.48 760.08,332.21 760.10,319.64 760.12,307.25 760.13,295.52 760.15,284.94 760.16,275.98 760.16,269.05 760.17,264.47 760.17,262.47 760.17,262.39 760.17,161.94 760.18,160.98 760.18,159.55 760.19,158.17 760.20,157.53 760.22,158.44 760.23,161.66 760.25,167.75 760.27,176.82 760.29,182.32 760.31,194.52 760.34,206.63 760.37,215.91 760.41,219.41 760.44,215.25 760.48,203.71 760.52,187.29 760.57,169.60 760.61,154.29 760.66,144.36 760.72,141.95 760.77,148.15 760.83,162.96 760.89,185.11 760.95,211.81 761.01,238.34 761.08,257.80 761.15,262.81 761.22,250.64 761.30,225.72 761.38,195.40 761.46,165.78 761.54,140.89 761.63,123.12 761.71,113.63 761.80,112.65 761.89,119.70 761.99,133.73 762.09,153.30 762.19,176.76 762.29,202.29 762.39,228.03 762.50,252.09 762.55,262.89 762.66,280.89 762.77,292.84 762.89,298.03 763.01,297.09 763.13,291.79 763.25,284.24 763.37,276.22 763.50,268.82 763.62,262.36 763.75,256.39 763.89,249.89 764.02,241.56 764.16,230.39 764.29,216.09 764.43,199.31 764.58,181.52 764.72,164.61 764.87,150.54 765.02,141.01 765.17,137.20 765.32,139.66 765.47,148.15 765.63,161.60 765.79,178.10 765.95,194.89 766.11,208.70 766.27,216.54 766.44,216.90 766.60,210.44 766.77,199.70 766.94,187.90 767.11,177.96 767.29,172.00 767.37,170.95 767.55,173.10 767.73,180.98 767.91,194.16 768.09,211.69 768.27,232.13 768.45,253.64 768.63,273.92 768.82,290.32 769.01,300.29 769.20,302.47 769.39,297.71 769.58,288.63 769.77,278.24 769.96,269.08 770.16,262.92 770.36,260.79 770.55,262.99 770.75,269.13 770.95,277.92 771.15,287.06 771.35,293.32 771.56,293.26 771.76,284.84 771.96,268.82 772.17,247.91 772.37,225.20 772.58,203.50 772.79,184.86 773.00,170.66 773.21,161.73 773.42,158.35 773.63,160.21 773.73,162.90 773.94,171.24 774.16,182.43 774.37,195.05 774.58,207.73 774.80,219.29 775.01,228.96 775.22,236.66 775.44,242.86 775.66,248.27 775.87,253.55 776.09,258.88 776.30,263.68 776.52,266.61 776.74,265.96 776.95,260.24 777.17,249.04 777.39,233.29 777.60,214.67 777.82,195.13 778.04,176.42 778.26,159.81 778.47,146.24 778.69,136.41 778.91,130.91 779.12,130.28 779.34,135.11 779.56,145.80 779.77,162.29 779.99,183.82 780.21,208.49 780.42,232.98 780.64,252.72 780.85,263.23 780.96,264.28 781.17,259.05 781.38,247.97 781.60,236.11 781.81,226.95 782.02,221.64 782.23,219.17 782.44,216.93 782.65,211.80 782.86,201.69 783.07,186.62 783.28,168.76 783.48,151.31 783.69,137.38 783.89,129.33 784.10,128.56 784.30,135.30 784.50,148.87 784.70,167.77 784.90,189.84 785.10,212.35 785.30,232.31 785.50,246.73 785.69,253.34 785.89,251.49 786.08,242.34 786.27,228.24 786.46,211.78 786.65,195.22 786.84,180.46 787.02,169.07 787.21,162.28 787.39,161.00 787.58,165.75 787.67,170.44 787.85,184.36 788.03,203.82 788.20,227.75 788.38,254.63 788.55,282.23 788.73,307.29 788.90,325.18 789.07,331.05 789.23,323.61 789.40,306.86 789.56,286.01 789.73,264.70 789.89,244.98 790.05,227.96 790.20,214.26 790.36,204.09 790.51,197.38 790.66,193.88 790.81,193.17 790.96,194.74 791.10,197.93 791.25,202.08 791.39,206.57 791.53,210.82 791.67,214.29 791.80,216.43 791.93,216.69 792.06,214.54 792.19,209.63 792.32,201.84 792.44,191.51 792.57,179.47 792.69,166.96 792.75,160.98 792.86,150.56 792.98,143.43 793.09,140.90 793.20,143.92 793.31,153.05 793.41,168.38 793.52,189.48 793.62,215.37 793.72,244.49 793.81,274.52 793.90,302.03 794.00,321.97 794.08,328.62 794.17,320.13 794.25,300.81 794.34,276.36 794.41,250.54 794.49,225.43 794.56,202.24 794.64,181.78 794.70,164.77 794.77,151.92 794.83,143.90 794.90,141.28 794.95,144.44 795.01,153.41 795.06,167.76 795.11,186.46 795.16,207.77 795.21,229.09 795.25,247.00 795.29,257.74 795.33,258.68 795.35,255.37 795.38,242.58 795.41,224.51 795.44,204.57 795.47,185.34 795.49,168.42 795.51,154.62 795.53,144.12 795.54,136.72 795.56,131.90 795.57,129.07 795.57,127.59 795.58,126.94 795.58,126.72 795.58,155.97 795.58,156.64 795.59,159.62 795.59,165.08 795.60,173.13 795.61,183.87 795.63,197.30 795.64,213.24 795.66,231.27 795.68,250.63 795.71,270.22 795.73,288.58 795.76,304.04 795.80,315.11 795.83,321.11 795.87,322.56 795.91,320.97 795.95,317.92 796.00,314.48 796.05,311.04 796.07,309.31 796.12,305.77 796.18,302.20 796.24,299.16 796.30,297.76 796.36,299.40 796.42,305.51 796.49,317.12 796.56,334.60 796.63,357.10 796.71,380.91 796.79,392.79 796.87,375.99 796.95,344.32 797.03,310.66 797.12,280.10 797.21,255.39 797.30,238.07 797.40,228.54 797.50,225.92 797.60,227.97 797.70,231.15 797.80,231.48 797.91,225.97 798.02,214.28 798.13,198.81 798.24,183.43 798.36,171.97 798.47,167.32 798.60,171.09 798.72,183.42 798.84,203.06 798.97,227.34 799.10,252.46 799.16,263.93 799.30,282.13 799.43,292.35 799.57,296.12 799.70,298.05 799.84,302.93 799.99,313.62 800.13,329.99 800.28,347.40 800.43,353.92 800.58,337.41 800.73,302.61 800.88,260.66 801.04,218.88 801.20,181.81 801.36,152.37 801.52,132.22 801.68,121.93 801.85,121.13 802.01,128.58 802.18,142.45 802.35,160.60 802.52,180.98 802.70,201.75 802.87,221.36 803.05,238.31 803.22,250.82 803.40,256.58 803.59,253.40 803.77,240.64 803.95,219.95 804.14,194.64 804.32,168.53 804.51,145.20 804.61,135.52 804.80,121.53 804.99,115.98 805.18,119.61 805.37,132.13 805.57,152.33 805.77,178.23 805.96,207.05 806.16,235.51 806.36,260.05 806.56,277.39 806.76,285.46 806.96,284.51 807.17,276.50 807.37,263.71 807.58,247.89 807.78,230.16 807.99,211.65 808.20,193.76 808.41,178.08 808.62,166.31 808.83,159.96 809.04,159.88 809.25,166.14 809.46,177.74 809.67,192.36 809.89,206.66 810.10,216.88 810.31,220.31 810.53,217.03 810.74,209.99 810.96,203.61 811.17,202.10 811.39,208.41 811.50,215.00 811.71,235.24 811.93,264.04 812.15,299.34 812.36,338.16 812.58,376.67 812.80,408.18 813.01,409.32 813.23,390.69 813.45,377.06 813.67,371.07 813.88,370.80 814.10,371.09 814.32,364.37 814.53,346.43 814.75,319.76 814.97,289.28 815.18,259.43 815.40,233.90 815.61,215.87 815.83,207.93 816.04,211.94 816.26,228.83 816.47,258.61 816.69,300.14 816.90,350.99 817.11,404.69 817.32,389.00 817.54,329.25 817.75,271.24 817.96,219.76 818.16,177.69 818.37,146.89 818.48,136.04 818.68,123.59 818.89,123.17 819.10,133.70 819.30,153.62 819.51,181.03 819.71,213.70 819.91,248.85 820.11,282.60 820.31,308.71 820.51,318.57 820.71,307.85 820.90,282.66 821.10,252.20 821.29,222.93 821.49,198.78 821.68,182.16 821.87,174.35 822.06,175.64 822.25,185.20 822.43,201.12 822.62,220.42 822.80,239.10 822.99,252.91 823.17,258.85 823.35,256.88 823.52,249.95 823.70,242.25 823.88,237.38 824.05,237.62 824.22,243.94 824.39,256.25 824.56,273.40 824.73,293.31 824.81,303.38 824.97,321.19 825.14,331.75 825.30,330.93 825.45,318.89 825.61,299.56 825.77,277.06 825.92,254.20 826.07,232.71 826.22,213.62 826.37,197.51 826.51,184.63 826.66,174.98 826.80,168.36 826.94,164.48 827.07,163.06 827.21,164.01 827.34,167.44 827.47,173.60 827.60,182.76 827.73,194.92 827.85,209.53 827.98,225.09 828.10,238.97 828.21,247.61 828.33,247.78 828.44,238.53 828.55,221.96 828.66,202.09 828.77,183.12 828.87,168.47 828.98,160.52 829.08,160.51 829.17,168.63 829.22,175.52 829.31,193.98 829.41,216.71 829.49,240.60 829.58,261.88 829.66,276.81 829.74,283.03 829.82,280.93 829.90,273.25 829.97,263.18 830.05,253.05 830.11,244.04 830.18,236.63 830.24,230.98 830.31,227.32 830.36,226.08 830.42,227.88 830.47,233.28 830.52,242.48 830.57,255.02 830.62,269.44 830.66,282.94 830.70,291.48 830.74,291.02 830.77,280.08 830.81,260.71 830.84,236.73 830.86,211.69 830.89,188.11 830.91,167.57 830.93,150.83 830.95,138.02 830.96,128.84 830.97,122.73 830.98,120.60 830.98,117.75 830.99,116.28 830.99,115.74 830.99,115.72 830.99,165.73 830.99,168.19 831.00,172.97 831.01,180.63 831.02,191.86 831.03,207.40 831.05,227.82 831.07,253.45 831.09,284.11 831.12,318.87 831.14,355.36 831.17,386.17 831.21,388.15 831.24,360.19 831.28,327.37 831.32,298.68 831.36,277.53 831.41,265.57 831.46,263.11 831.51,268.79 831.56,279.02 831.62,287.34 831.68,285.49 831.74,268.45 831.80,238.69 831.87,202.94 831.94,167.82 832.01,138.39 832.08,118.20 832.12,112.30 832.20,109.60 832.28,119.06 832.36,139.62 832.44,169.01 832.53,203.91 832.62,240.03 832.71,272.44 832.81,296.37 832.91,309.31 833.01,313.17 833.11,312.84 833.21,312.17 833.32,311.76 833.43,309.08 833.54,300.25 833.65,283.16 833.77,259.22 833.88,232.20 834.00,206.31 834.13,185.15 834.25,171.30 834.38,166.26 834.51,170.38 834.64,182.87 834.77,201.95 834.91,225.04 835.04,249.03 835.18,270.68 835.32,287.35 835.47,297.83 835.61,302.61 835.76,303.12 835.91,300.38 835.99,297.82 836.14,289.96 836.29,278.11 836.45,262.59 836.61,244.77 836.77,226.64 836.93,210.25 837.09,197.21 837.26,188.35 837.42,183.71 837.59,182.66 837.76,184.10 837.93,186.89 838.11,190.31 838.28,194.20 838.46,198.83 838.63,204.43 838.81,210.70 839.00,216.23 839.18,218.66 839.36,215.51 839.55,205.75 839.73,190.73 839.92,173.85 840.11,159.31 840.30,150.85 840.49,150.85 840.69,159.83 840.88,175.93 841.08,194.38 841.27,207.77 841.47,208.67 841.67,194.67 841.87,170.69 841.97,157.67 842.17,134.87 842.37,121.95 842.58,123.32 842.78,140.70 842.99,172.94 843.19,215.72 843.40,260.36 843.61,291.76 843.82,293.51 844.03,269.15 844.24,238.22 844.45,215.00 844.66,206.31 844.87,214.10 845.08,236.36 845.29,266.71 845.51,292.81 845.72,297.67 845.94,275.59 846.15,239.76 846.37,204.77 846.58,179.28 846.80,167.46 847.01,170.37 847.23,186.51 847.45,211.70 847.66,238.89 847.88,258.44 848.10,261.45 848.32,247.22 848.53,223.98 848.75,201.20 848.97,185.45 849.08,181.40 849.29,181.79 849.51,193.01 849.73,212.61 849.94,236.00 850.16,256.55 850.38,267.07 850.59,263.70 850.81,249.27 851.02,230.48 851.24,213.48 851.45,202.14 851.67,198.23 851.88,201.94 852.10,212.40 852.31,227.92 852.52,246.50 852.73,266.19 852.94,285.35 853.16,302.74 853.37,317.49 853.57,328.70 853.78,335.14 853.99,335.48 854.20,329.29 854.40,317.65 854.61,302.53 854.81,285.83 855.02,268.81 855.22,251.94 855.42,234.93 855.62,217.06 855.82,197.70 856.02,176.80 856.12,165.97 856.31,144.41 856.51,124.80 856.70,109.53 856.90,101.03 857.09,101.37 857.28,112.01 857.47,133.45 857.66,165.07 857.84,204.85 858.03,248.76 858.21,289.13 858.40,312.31 858.58,305.51 858.76,275.69 858.93,239.27 859.11,206.73 859.29,183.33 859.46,171.56 859.63,171.93 859.80,183.16 859.97,202.13 860.14,223.56 860.30,240.06 860.46,243.87 860.63,231.81 860.79,207.71 860.94,178.77 861.10,151.41 861.25,130.06 861.41,117.26 861.56,113.97 861.70,119.95 861.85,133.93 861.92,143.30 862.07,165.24 862.21,189.12 862.35,212.16 862.48,232.04 862.62,247.32 862.75,257.64 862.88,263.58 863.01,265.90 863.14,264.97 863.26,260.58 863.39,252.37 863.51,240.49 863.62,225.98 863.74,210.65 863.85,196.72 863.96,186.39 864.07,181.50 864.18,183.31 864.28,192.30 864.39,208.08 864.49,229.20 864.58,253.00 864.68,275.37 864.77,290.95 864.86,295.10 864.95,287.48 865.03,272.66 865.11,256.49 865.19,243.57 865.27,236.79 865.35,237.65 865.42,246.59 865.45,253.97 865.52,273.91 865.59,299.39 865.65,328.14 865.71,356.75 865.77,379.11 865.83,384.95 865.88,372.98 865.93,355.17 865.98,339.00 866.03,327.15 866.07,320.36 866.11,318.33 866.15,320.01 866.18,323.75 866.22,327.36 866.25,328.57 866.27,325.64 866.30,318.17 866.32,307.03 866.34,293.77 866.36,279.92 866.37,266.73 866.38,255.12 866.39,245.73 866.40,238.99 866.40,235.17 866.40,234.30 866.40,293.85 866.40,293.58 866.40,292.94 866.41,291.91 866.41,290.47 866.42,288.61 866.43,287.51 866.44,285.02 866.45,282.14 866.46,278.93 866.48,275.44 866.49,271.71 866.51,267.80 866.53,263.75 866.55,259.58 866.58,255.35 866.60,251.11 866.63,246.93 866.66,242.92 866.68,239.20 866.72,235.91 866.75,233.16 866.78,231.08 866.82,229.74 866.86,229.19 866.89,229.40 866.93,230.32 866.98,231.85 867.02,233.84 867.07,236.14 867.11,238.57 867.16,240.93 867.21,243.03 867.26,244.67 867.31,245.65 867.37,245.78 867.42,244.94 867.48,243.04 867.54,240.15 867.60,236.43 867.63,234.35 867.69,230.04 867.75,225.93 867.82,222.62 867.89,220.67 867.95,220.65 868.02,223.00 868.09,228.01 868.17,235.76 868.24,246.06 868.31,258.38 868.39,271.81 868.47,284.93 868.55,295.89 868.63,302.63 868.71,303.55 868.79,298.37 868.87,288.29 868.96,275.38 869.04,261.74 869.13,249.11 869.22,238.75 869.31,231.51 869.40,227.85 869.49,227.91 869.59,231.53 869.68,238.33 869.78,247.78 869.87,259.19 869.97,271.86 870.07,285.10 870.17,298.33 870.27,311.10 870.37,323.04 870.43,328.59 870.53,338.51 870.63,346.13 870.74,350.11 870.85,348.91 870.95,341.61 871.06,328.66 871.17,311.52 871.28,292.00 871.39,271.81 871.51,252.54 871.62,235.60 871.73,222.26 871.85,213.57 871.96,210.35 872.08,213.15 872.20,222.21 872.31,237.43 872.43,258.28 872.55,283.70 872.67,311.79 872.79,339.02 872.91,358.31 873.04,359.30 873.16,341.09 873.28,313.74 873.41,284.95 873.53,258.65 873.66,237.03 873.78,221.41 873.91,212.58 874.03,210.85 874.16,216.08 874.29,227.65 874.35,235.48 874.48,254.28 874.61,275.46 874.74,296.10 874.87,312.21 875.00,319.45 875.13,315.77 875.26,303.30 875.39,286.46 875.52,269.21 875.65,254.28 875.78,243.37 875.91,237.35 876.04,236.54 876.17,240.81 876.31,249.68 876.44,262.31 876.57,277.64 876.70,294.42 876.84,311.31 876.97,327.09 877.10,340.75 877.23,351.78 877.37,360.47 877.50,367.81 877.63,375.08 877.76,383.32 877.90,392.77 878.03,401.99 878.16,405.75 878.29,397.67 878.42,380.53 878.55,359.24 878.69,336.32 878.75,324.72 878.88,302.00 879.01,280.70 879.14,261.66 879.27,245.52 879.40,232.75 879.53,223.65 879.66,218.34 879.79,216.73 879.92,218.57 880.05,223.39 880.18,230.56 880.30,239.32 880.43,248.78 880.56,257.99 880.68,266.01 880.81,272.03 880.93,275.54 881.06,276.41 881.18,274.97 881.30,271.79 881.42,267.58 881.55,263.06 881.67,258.79 881.79,255.20 881.91,252.53 882.03,250.88 882.14,250.18 882.26,250.29 882.38,250.99 882.49,251.99 882.61,253.03 882.72,253.84 882.84,254.22 882.89,254.21 883.01,253.73 883.12,252.66 883.23,251.09 883.34,249.15 883.45,247.02 883.55,244.90 883.66,242.99 883.77,241.44 883.87,240.42 883.97,240.03 884.08,240.34 884.18,241.38 884.28,243.17 884.38,245.72 884.48,249.01 884.57,252.98 884.67,257.58 884.77,262.77 884.86,268.47 884.95,274.63 885.04,281.17 885.14,288.04 885.22,295.14 885.31,302.35 885.40,309.57 885.49,316.65 885.57,323.42 885.65,329.68 885.73,335.20 885.82,339.73 885.89,343.00 885.97,344.79 886.05,344.95 886.09,344.41 886.16,342.11 886.23,338.35 886.31,333.33 886.38,327.33 886.45,320.58 886.51,313.33 886.58,305.79 886.65,298.11 886.71,290.46 886.77,282.94 886.83,275.65 886.89,268.66 886.95,262.04 887.01,255.82 887.06,250.04 887.11,244.71 887.17,239.84 887.22,235.44 887.26,231.49 887.31,228.00 887.36,224.94 887.40,222.29 887.44,220.04 887.49,218.15 887.53,216.60 887.56,215.35 887.60,214.39 887.63,213.67 887.67,213.18 887.70,212.87 887.73,212.73 887.76,212.73 887.79,212.84 887.80,212.93 887.82,213.17 887.85,213.47 887.87,213.81 887.89,214.18 887.91,214.56 887.92,214.94 887.94,215.31 887.95,215.67 887.96,215.99 887.97,216.28 887.98,216.53 887.99,216.74 887.99,216.90 888.00,217.01 888.00,217.08 888.00,217.09" fill="none" stroke="#000" stroke-width="1.5" opacity="0.9"/>
<text x="500.0" y="502" font-family="Times New Roman" font-size="19" text-anchor="middle">Julian Date</text>
<text transform="translate(18,247.0) rotate(-90)" font-family="Times New Roman" font-size="19" text-anchor="middle">position residual (km)</text>
</svg>
