<svg xmlns="http://www.w3.org/2000/svg" width="920" height="520" viewBox="0 0 920 520">
<rect width="100%" height="100%" fill="white"/>
<text x="460.0" y="24" font-family="Times New Roman" font-size="24" text-anchor="middle">Pluto native position residual</text>
<line x1="112" y1="434" x2="888" y2="434" stroke="#333"/>
<line x1="112" y1="60" x2="112" y2="434" stroke="#333"/>
<line x1="112" y1="434.00" x2="888" y2="434.00" stroke="#ddd"/>
<text x="104" y="438.00" font-family="Times New Roman" font-size="17" text-anchor="end">0</text>
<line x1="112" y1="340.50" x2="888" y2="340.50" stroke="#ddd"/>
<text x="104" y="344.50" font-family="Times New Roman" font-size="17" text-anchor="end">3.342</text>
<line x1="112" y1="247.00" x2="888" y2="247.00" stroke="#ddd"/>
<text x="104" y="251.00" font-family="Times New Roman" font-size="17" text-anchor="end">6.684</text>
<line x1="112" y1="153.50" x2="888" y2="153.50" stroke="#ddd"/>
<text x="104" y="157.50" font-family="Times New Roman" font-size="17" text-anchor="end">10.03</text>
<line x1="112" y1="60.00" x2="888" y2="60.00" stroke="#ddd"/>
<text x="104" y="64.00" font-family="Times New Roman" font-size="17" text-anchor="end">13.37</text>
<line x1="112.00" y1="434" x2="112.00" y2="439" stroke="#333"/>
<text x="112.00" y="456" font-family="Times New Roman" font-size="17" text-anchor="middle">2378495</text>
<line x1="306.00" y1="434" x2="306.00" y2="439" stroke="#333"/>
<text x="306.00" y="456" font-family="Times New Roman" font-size="17" text-anchor="middle">2433282</text>
<line x1="500.00" y1="434" x2="500.00" y2="439" stroke="#333"/>
<text x="500.00" y="456" font-family="Times New Roman" font-size="17" text-anchor="middle">2488070</text>
<line x1="694.00" y1="434" x2="694.00" y2="439" stroke="#333"/>
<text x="694.00" y="456" font-family="Times New Roman" font-size="17" text-anchor="middle">2542858</text>
<line x1="888.00" y1="434" x2="888.00" y2="439" stroke="#333"/>
<text x="888.00" y="456" font-family="Times New Roman" font-size="17" text-anchor="middle">2597645</text>
<polyline points="112.00,293.41 112.00,293.44 112.00,293.54 112.00,293.73 112.01,294.00 112.01,294.36 112.01,294.80 112.02,295.31 112.02,295.90 112.03,296.56 112.04,297.29 112.05,298.08 112.06,298.94 112.07,299.84 112.08,300.80 112.09,301.80 112.10,302.84 112.11,303.37 112.12,304.45 112.13,305.54 112.15,306.65 112.17,307.75 112.18,308.84 112.20,309.90 112.22,310.94 112.24,311.93 112.26,312.87 112.28,313.74 112.30,314.53 112.32,315.24 112.34,315.85 112.37,316.35 112.39,316.73 112.42,316.99 112.44,317.12 112.47,317.12 112.50,316.98 112.53,316.69 112.55,316.27 112.58,315.72 112.61,315.03 112.65,314.22 112.68,313.28 112.71,312.24 112.74,311.10 112.78,309.87 112.81,308.57 112.85,307.21 112.88,305.80 112.92,304.35 112.96,302.89 112.98,302.16 113.01,300.69 113.05,299.24 113.09,297.82 113.13,296.44 113.17,295.11 113.22,293.84 113.26,292.64 113.30,291.53 113.34,290.51 113.39,289.58 113.43,288.75 113.48,288.03 113.52,287.43 113.57,286.94 113.62,286.58 113.66,286.34 113.71,286.23 113.76,286.26 113.81,286.44 113.86,286.76 113.91,287.23 113.96,287.86 114.01,288.65 114.06,289.63 114.12,290.79 114.17,292.14 114.22,293.70 114.28,295.49 114.33,297.50 114.39,299.77 114.44,302.29 114.50,305.07 114.55,308.14 114.58,309.78 114.64,313.28 114.70,317.07 114.75,321.16 114.81,325.52 114.87,330.16 114.93,335.05 114.99,340.14 115.05,345.40 115.11,350.74 115.17,356.07 115.23,361.27 115.29,366.16 115.35,370.53 115.41,374.14 115.47,376.68 115.53,377.92 115.60,377.67 115.66,375.90 115.72,372.71 115.78,368.35 115.85,363.07 115.91,357.16 115.98,350.84 116.04,344.34 116.10,337.84 116.17,331.49 116.23,325.43 116.30,319.77 116.36,314.62 116.43,310.07 116.49,306.20 116.56,303.08 116.62,300.76 116.66,299.92 116.72,298.90 116.79,298.78 116.85,299.59 116.92,301.33 116.99,303.99 117.05,307.56 117.12,312.00 117.18,317.25 117.25,323.25 117.32,329.92 117.38,337.14 117.45,344.79 117.52,352.69 117.58,360.63 117.65,368.35 117.71,375.49 117.78,381.61 117.85,386.19 117.91,388.72 117.98,388.96 118.04,387.05 118.11,383.50 118.18,378.93 118.24,373.89 118.31,368.81 118.37,364.03 118.44,359.75 118.50,356.15 118.57,353.34 118.63,351.39 118.70,350.33 118.76,350.16 118.82,350.85 118.86,351.50 118.92,353.34 118.98,355.81 119.05,358.72 119.11,361.89 119.17,365.04 119.23,367.89 119.30,370.12 119.36,371.43 119.42,371.60 119.48,370.53 119.54,368.29 119.60,365.07 119.66,361.16 119.72,356.86 119.78,352.50 119.84,348.32 119.90,344.59 119.96,341.48 120.02,339.18 120.08,337.80 120.13,337.44 120.19,338.16 120.25,339.99 120.30,342.92 120.36,346.88 120.41,351.81 120.47,357.52 120.52,363.80 120.58,370.30 120.63,376.54 120.68,381.82 120.74,385.27 120.79,386.01 120.81,385.21 120.86,381.34 120.91,374.96 120.96,366.86 121.01,357.81 121.06,348.35 121.11,338.95 121.16,329.92 121.21,321.55 121.25,314.03 121.30,307.53 121.34,302.21 121.39,298.16 121.43,295.48 121.48,294.20 121.52,294.37 121.56,295.99 121.61,299.05 121.65,303.49 121.69,309.27 121.73,316.29 121.77,324.45 121.81,333.64 121.84,343.69 121.88,354.44 121.92,365.69 121.95,377.14 121.99,388.38 122.02,398.67 122.06,406.44 122.09,409.07 122.12,405.22 122.15,397.14 122.19,387.30 122.20,382.14 122.23,371.79 122.26,361.71 122.29,352.13 122.32,343.18 122.34,334.95 122.37,327.51 122.40,320.89 122.42,315.09 122.44,310.11 122.47,305.93 122.49,302.51 122.51,299.83 122.53,297.81 122.55,296.41 122.57,295.56 122.59,295.19 122.61,295.23 122.63,295.61 122.64,296.26 122.66,297.12 122.67,298.13 122.69,299.22 122.70,300.35 122.71,301.47 122.72,302.55 122.73,303.55 122.74,304.47 122.75,305.28 122.76,305.98 122.77,306.57 122.78,307.05 122.78,307.43 122.79,307.73 122.79,307.85 122.79,308.04 122.80,308.18 122.80,308.27 122.80,308.32 122.80,308.34 122.80,220.78 122.80,220.78 122.80,220.79 122.81,220.95 122.82,221.45 122.83,222.61 122.84,224.79 122.86,228.40 122.88,233.85 122.90,241.53 122.93,251.74 122.95,264.64 122.98,280.16 123.02,297.94 123.05,317.13 123.09,336.04 123.13,351.54 123.17,358.81 123.22,354.07 123.27,339.01 123.32,318.49 123.37,296.50 123.43,275.58 123.49,257.38 123.55,242.95 123.61,232.99 123.68,227.80 123.75,227.31 123.78,228.70 123.85,234.27 123.93,242.58 124.01,252.05 124.09,260.73 124.17,266.52 124.25,267.72 124.34,263.69 124.43,255.13 124.52,243.72 124.62,231.48 124.71,220.28 124.81,211.62 124.92,206.53 125.02,205.60 125.13,208.97 125.24,216.37 125.35,227.12 125.46,240.12 125.58,253.87 125.69,266.56 125.81,276.24 125.94,281.32 126.06,281.12 126.19,276.19 126.32,268.01 126.45,258.35 126.58,248.72 126.72,240.17 126.85,233.25 126.99,228.06 127.13,224.35 127.28,221.61 127.35,220.41 127.50,217.97 127.64,215.11 127.79,211.64 127.95,207.72 128.10,203.86 128.26,200.85 128.42,199.62 128.57,201.11 128.74,206.17 128.90,215.48 129.06,229.50 129.23,248.43 129.40,272.20 129.57,300.41 129.74,332.32 129.91,366.42 130.09,397.72 130.27,400.50 130.44,369.28 130.62,332.34 130.80,296.14 130.99,262.74 131.17,233.41 131.36,209.06 131.54,190.33 131.73,177.50 131.92,170.52 132.11,168.94 132.30,171.91 132.50,178.16 132.69,186.07 132.89,193.79 133.08,199.53 133.18,201.22 133.38,201.74 133.58,198.58 133.78,192.69 133.98,185.61 134.18,179.04 134.39,174.50 134.59,173.11 134.80,175.47 135.00,181.74 135.21,191.56 135.42,204.16 135.63,218.42 135.83,233.00 136.04,246.41 136.26,257.19 136.47,264.16 136.68,266.50 136.89,263.96 137.10,256.76 137.32,245.53 137.53,231.14 137.75,214.75 137.96,197.71 138.18,181.57 138.39,168.00 138.61,158.64 138.82,154.96 139.04,158.13 139.26,168.87 139.47,187.36 139.69,213.15 139.91,245.04 140.12,280.84 140.23,299.09 140.45,332.30 140.67,351.40 140.88,344.88 141.10,318.94 141.32,287.07 141.54,256.67 141.75,231.22 141.97,212.52 142.19,201.45 142.40,198.29 142.62,202.88 142.83,214.67 143.05,232.81 143.26,256.22 143.48,283.59 143.69,313.47 143.91,344.21 144.12,373.55 144.33,396.88 144.54,402.34 144.75,388.48 144.96,370.65 145.17,354.86 145.38,342.51 145.59,333.63 145.80,327.45 146.01,322.62 146.21,317.40 146.42,310.04 146.62,299.33 146.83,285.05 147.03,267.94 147.23,249.31 147.33,239.90 147.53,221.86 147.73,206.02 147.93,193.60 148.12,185.55 148.32,182.54 148.51,184.96 148.71,192.88 148.90,206.03 149.09,223.85 149.28,245.40 149.47,269.28 149.65,293.46 149.84,314.87 150.02,329.24 150.21,332.24 150.39,323.17 150.57,305.71 150.74,284.46 150.92,262.68 151.09,242.35 151.27,224.61 151.44,210.12 151.61,199.15 151.78,191.74 151.95,187.71 152.11,186.70 152.27,188.18 152.43,191.49 152.59,195.83 152.75,200.35 152.91,204.18 153.06,206.54 153.21,206.93 153.29,206.31 153.44,203.52 153.59,199.09 153.73,193.78 153.88,188.59 154.02,184.55 154.16,182.66 154.29,183.78 154.43,188.60 154.56,197.55 154.69,210.80 154.82,228.25 154.95,249.48 155.07,273.69 155.20,299.61 155.32,325.15 155.43,346.76 155.55,358.84 155.66,356.67 155.77,342.76 155.88,323.74 155.99,304.45 156.09,287.58 156.20,274.59 156.29,266.30 156.39,263.06 156.49,264.87 156.58,271.47 156.67,282.30 156.76,296.60 156.84,313.35 156.92,331.31 157.00,348.89 157.08,364.02 157.12,369.86 157.19,376.51 157.26,375.89 157.33,369.97 157.40,361.86 157.46,353.80 157.52,346.96 157.58,341.80 157.64,338.32 157.69,336.28 157.74,335.29 157.79,334.91 157.84,334.74 157.88,334.51 157.92,334.11 157.96,333.56 157.99,332.98 158.03,332.54 158.06,332.38 158.08,332.58 158.11,333.14 158.13,333.98 158.15,334.96 158.17,335.96 158.18,336.86 158.19,337.56 158.20,338.06 158.21,338.37 158.21,338.52 158.21,338.55 158.21,231.44 158.21,230.69 158.22,229.02 158.22,226.59 158.23,225.17 158.24,222.13 158.25,219.11 158.27,216.54 158.29,214.86 158.31,214.51 158.34,215.92 158.36,219.46 158.39,225.43 158.43,234.04 158.46,245.42 158.50,259.52 158.54,276.23 158.58,295.26 158.63,316.21 158.68,338.54 158.73,361.49 158.78,383.93 158.84,403.18 158.89,410.57 158.96,400.06 159.02,383.88 159.09,368.21 159.15,354.71 159.23,343.96 159.30,336.14 159.38,331.09 159.46,328.41 159.54,327.41 159.62,327.15 159.71,326.51 159.80,324.40 159.89,320.04 159.98,313.16 160.03,308.86 160.12,298.94 160.22,288.02 160.33,277.01 160.43,266.76 160.54,257.96 160.65,251.08 160.76,246.41 160.87,244.00 160.99,243.69 161.10,245.09 161.22,247.66 161.35,250.70 161.47,253.44 161.60,255.18 161.73,255.40 161.86,253.90 161.99,250.80 162.13,246.58 162.26,241.91 162.40,237.58 162.54,234.35 162.69,232.87 162.83,233.70 162.98,237.22 163.13,243.69 163.28,253.19 163.43,265.66 163.59,280.90 163.75,298.55 163.90,318.07 164.06,338.57 164.23,358.57 164.39,375.16 164.47,380.57 164.64,381.91 164.81,370.80 164.98,352.85 165.15,332.65 165.32,312.54 165.50,293.71 165.68,276.86 165.85,262.37 166.03,250.41 166.21,241.00 166.40,234.02 166.58,229.22 166.77,226.34 166.95,225.11 167.14,225.34 167.33,226.96 167.52,230.11 167.71,235.07 167.91,242.27 168.10,252.17 168.30,265.20 168.49,281.66 168.69,301.56 168.89,324.51 169.09,349.42 169.29,373.48 169.49,388.81 169.69,382.95 169.90,360.72 170.10,333.93 170.31,307.80 170.52,284.70 170.72,265.95 170.83,258.45 171.04,247.44 171.24,241.70 171.45,240.77 171.67,243.70 171.88,249.17 172.09,255.50 172.30,260.94 172.51,263.97 172.73,263.68 172.94,260.01 173.16,253.68 173.37,245.78 173.59,237.48 173.80,229.69 174.02,223.07 174.23,218.01 174.45,214.69 174.67,213.17 174.88,213.44 175.10,215.47 175.32,219.21 175.53,224.59 175.75,231.47 175.97,239.60 176.19,248.56 176.40,257.76 176.62,266.38 176.84,273.51 177.05,278.21 177.27,279.84 177.49,278.18 177.70,273.57 177.81,270.40 178.03,262.90 178.24,254.68 178.46,246.60 178.67,239.30 178.89,233.23 179.10,228.56 179.31,225.33 179.53,223.42 179.74,222.61 179.95,222.68 180.16,223.38 180.37,224.49 180.58,225.85 180.79,227.35 181.00,228.85 181.21,230.27 181.42,231.48 181.62,232.36 181.83,232.81 182.03,232.80 182.24,232.39 182.44,231.78 182.64,231.32 182.84,231.47 183.04,232.73 183.24,235.63 183.43,240.59 183.63,247.88 183.83,257.56 184.02,269.40 184.21,282.86 184.40,297.00 184.59,310.45 184.69,316.36 184.88,325.37 185.06,329.30 185.25,327.63 185.43,321.36 185.61,312.45 185.80,302.86 185.98,294.12 186.15,287.23 186.33,282.69 186.50,280.61 186.68,280.76 186.85,282.65 187.02,285.64 187.19,288.97 187.35,292.03 187.52,294.38 187.68,295.92 187.84,296.90 188.00,297.82 188.16,299.30 188.32,301.95 188.47,306.23 188.62,312.31 188.77,320.08 188.92,328.98 189.07,337.93 189.21,345.25 189.36,348.81 189.50,346.85 189.63,339.11 189.77,326.89 189.91,312.17 190.04,296.81 190.10,289.36 190.23,275.68 190.36,264.46 190.48,256.43 190.60,252.16 190.73,252.03 190.84,256.21 190.96,264.74 191.07,277.47 191.18,294.10 191.29,314.15 191.40,336.92 191.50,361.32 191.60,385.04 191.70,400.78 191.80,394.22 191.90,372.02 191.99,346.16 192.08,320.45 192.17,296.36 192.25,274.72 192.33,256.09 192.41,240.84 192.49,229.22 192.57,221.31 192.64,217.09 192.71,216.42 192.78,219.03 192.84,224.58 192.90,232.60 192.96,242.59 193.02,253.97 193.08,266.12 193.13,278.41 193.15,284.42 193.20,295.76 193.25,305.78 193.29,314.02 193.33,320.25 193.37,324.42 193.40,326.71 193.44,327.46 193.47,327.08 193.49,325.98 193.52,324.47 193.54,322.82 193.56,321.18 193.57,319.68 193.59,318.36 193.60,317.27 193.61,316.42 193.61,315.82 193.62,315.49 193.62,315.41 193.62,222.98 193.62,222.71 193.63,222.17 193.63,221.50 193.64,220.97 193.66,220.91 193.67,221.74 193.69,223.93 193.71,227.96 193.73,234.26 193.76,243.23 193.79,255.06 193.82,269.79 193.85,287.12 193.87,296.55 193.91,316.15 193.95,334.83 193.99,348.81 194.04,352.87 194.09,344.32 194.14,326.15 194.19,303.36 194.25,279.72 194.30,257.66 194.37,238.88 194.43,224.53 194.50,215.41 194.56,211.94 194.64,214.21 194.71,221.83 194.79,233.96 194.86,249.13 194.95,265.10 195.03,278.78 195.12,286.56 195.20,285.59 195.30,275.57 195.39,258.91 195.49,239.14 195.58,219.54 195.68,202.67 195.79,190.42 195.89,184.06 196.00,184.34 196.11,191.50 196.22,205.29 196.34,224.87 196.45,248.70 196.51,261.48 196.63,286.48 196.76,306.35 196.88,314.64 197.01,307.57 197.14,288.11 197.27,262.66 197.40,236.63 197.53,213.63 197.67,196.02 197.81,185.35 197.95,182.53 198.10,187.99 198.24,201.62 198.39,222.84 198.54,250.51 198.69,282.73 198.84,316.23 199.00,344.47 199.15,355.15 199.31,340.42 199.47,310.52 199.64,276.85 199.80,245.14 199.97,218.33 200.13,198.14 200.30,185.60 200.47,181.17 200.65,184.86 200.82,196.24 201.00,214.49 201.17,238.38 201.35,266.35 201.53,296.43 201.62,311.48 201.81,339.53 201.99,360.72 202.18,368.96 202.36,362.89 202.55,349.09 202.74,333.95 202.93,320.56 203.12,310.01 203.32,302.37 203.51,297.21 203.70,293.91 203.90,291.83 204.10,290.49 204.30,289.69 204.50,289.44 204.70,289.90 204.90,291.20 205.10,293.26 205.31,295.75 205.51,298.01 205.72,299.26 205.93,298.78 206.13,296.25 206.34,291.99 206.55,286.94 206.76,282.42 206.97,279.82 207.18,280.41 207.39,285.17 207.60,294.66 207.82,308.92 208.03,327.27 208.24,347.82 208.35,357.66 208.56,371.38 208.78,368.40 208.99,348.16 209.21,319.64 209.43,289.32 209.64,260.76 209.86,236.24 210.08,217.41 210.29,205.42 210.51,200.99 210.73,204.38 210.94,215.35 211.16,233.08 211.38,256.03 211.60,281.65 211.81,305.72 212.03,321.78 212.25,322.93 212.46,308.35 212.68,284.23 212.90,257.32 213.11,232.14 213.33,211.44 213.54,196.90 213.76,189.44 213.98,189.36 214.19,196.51 214.40,210.24 214.62,229.50 214.83,252.82 215.04,278.33 215.26,303.55 215.47,325.24 215.57,333.50 215.78,342.42 215.99,340.18 216.20,329.45 216.41,314.55 216.62,298.66 216.83,283.38 217.03,269.31 217.24,256.54 217.44,244.90 217.64,234.21 217.85,224.43 218.05,215.67 218.25,208.23 218.45,202.50 218.65,198.91 218.84,197.77 219.04,199.20 219.24,203.10 219.43,209.05 219.62,216.33 219.81,223.94 220.00,230.78 220.19,235.83 220.38,238.38 220.57,238.36 220.75,236.30 220.93,233.24 221.11,230.48 221.30,229.26 221.47,230.62 221.65,235.27 221.83,243.56 221.91,249.08 222.09,262.63 222.26,278.93 222.43,296.81 222.60,314.44 222.76,329.21 222.93,337.84 223.09,337.82 223.25,329.42 223.41,315.43 223.57,299.00 223.73,282.45 223.88,267.22 224.03,254.10 224.18,243.44 224.33,235.26 224.48,229.32 224.62,225.21 224.77,222.41 224.91,220.36 225.04,218.59 225.18,216.70 225.31,214.48 225.45,211.90 225.58,209.10 225.70,206.33 225.83,203.94 225.95,202.25 226.07,201.57 226.19,202.14 226.31,204.10 226.43,207.48 226.54,212.23 226.65,218.20 226.70,221.56 226.81,228.85 226.91,236.56 227.01,244.26 227.11,251.47 227.21,257.70 227.31,262.54 227.40,265.70 227.49,267.05 227.57,266.71 227.66,264.96 227.74,262.24 227.82,259.07 227.90,255.95 227.98,253.36 228.05,251.65 228.12,251.14 228.19,251.98 228.25,254.28 228.31,258.01 228.37,263.07 228.43,269.29 228.48,276.42 228.54,284.18 228.59,292.23 228.63,300.19 228.68,307.67 228.72,314.26 228.76,319.58 228.79,323.30 228.83,325.18 228.86,325.17 228.89,323.36 228.91,320.01 228.93,317.87 228.95,312.91 228.97,307.40 228.98,301.76 229.00,296.36 229.01,291.55 229.02,287.59 229.02,284.71 229.03,283.06 229.03,282.68 229.03,179.24 229.03,178.43 229.04,176.64 229.04,174.02 229.05,170.82 229.07,167.36 229.08,163.96 229.10,160.95 229.12,158.62 229.14,157.20 229.17,156.83 229.20,157.53 229.23,159.27 229.26,161.90 229.30,165.27 229.34,169.21 229.38,173.66 229.42,178.63 229.47,184.26 229.52,190.83 229.57,198.66 229.63,208.11 229.68,219.45 229.74,232.81 229.78,240.22 229.84,256.29 229.91,273.49 229.97,290.82 230.05,306.78 230.12,319.53 230.20,327.26 230.27,329.14 230.36,326.03 230.44,320.11 230.53,313.84 230.61,309.21 230.71,307.55 230.80,309.56 230.89,315.39 230.99,324.57 231.09,336.05 231.20,348.00 231.30,357.69 231.41,361.96 231.52,359.18 231.63,350.80 231.75,340.10 231.86,330.08 231.98,322.86 232.10,319.81 232.23,321.70 232.35,328.76 232.48,340.70 232.61,356.55 232.74,374.10 232.88,388.11 233.01,388.54 233.15,372.72 233.22,361.48 233.36,336.81 233.51,312.20 233.65,289.67 233.80,270.36 233.95,254.85 234.10,243.30 234.25,235.36 234.41,230.31 234.56,227.07 234.72,224.38 234.88,221.04 235.05,216.15 235.21,209.41 235.38,201.18 235.54,192.36 235.71,184.20 235.88,178.01 236.06,175.00 236.23,176.15 236.41,182.14 236.58,193.32 236.76,209.70 236.94,231.00 237.12,256.58 237.31,285.47 237.49,316.26 237.68,346.57 237.87,371.41 238.05,380.21 238.24,367.14 238.44,343.04 238.63,316.89 238.82,292.27 238.92,281.04 239.11,261.28 239.31,245.41 239.51,233.49 239.71,225.25 239.91,220.12 240.11,217.31 240.31,215.86 240.51,214.72 240.72,212.94 240.92,209.83 241.13,205.13 241.33,199.06 241.54,192.25 241.75,185.63 241.96,180.20 242.17,176.96 242.38,176.66 242.59,179.84 242.80,186.73 243.01,197.23 243.23,210.87 243.44,226.85 243.65,244.03 243.87,260.94 244.08,275.89 244.30,287.16 244.51,293.42 244.73,294.19 244.94,290.05 245.16,282.29 245.38,272.30 245.59,261.28 245.81,250.09 245.92,244.66 246.14,234.51 246.35,225.86 246.57,219.41 246.79,215.88 247.00,215.97 247.22,220.18 247.44,228.74 247.66,241.36 247.87,257.07 248.09,273.92 248.31,288.73 248.52,297.35 248.74,296.18 248.95,284.81 249.17,266.20 249.38,244.58 249.60,223.54 249.81,205.65 250.03,192.50 250.24,184.87 250.45,182.81 250.67,185.79 250.88,192.69 251.09,202.10 251.30,212.42 251.51,222.21 251.72,230.53 251.92,237.16 252.13,242.61 252.34,247.86 252.54,253.91 252.75,261.37 252.95,270.07 253.05,274.56 253.26,282.59 253.46,287.05 253.66,285.18 253.86,275.61 254.06,259.21 254.25,238.57 254.45,216.75 254.64,196.54 254.84,180.21 255.03,169.44 255.22,165.34 255.41,168.45 255.60,178.70 255.79,195.42 255.97,217.20 256.16,241.81 256.34,265.89 256.52,284.85 256.70,293.58 256.88,289.34 257.06,274.26 257.24,253.38 257.41,231.40 257.58,211.64 257.75,196.17 257.92,186.18 258.09,182.20 258.26,184.29 258.42,192.13 258.58,205.14 258.74,222.58 258.90,243.61 259.06,267.40 259.14,280.08 259.29,306.60 259.44,334.17 259.59,362.29 259.74,390.33 259.89,415.75 260.03,412.89 260.17,386.87 260.32,359.35 260.45,332.38 260.59,306.73 260.72,283.05 260.86,261.96 260.99,244.07 261.11,229.90 261.24,219.85 261.36,214.11 261.48,212.72 261.60,215.49 261.72,222.04 261.83,231.79 261.95,244.07 262.06,258.10 262.16,273.10 262.27,288.42 262.37,303.55 262.47,318.16 262.57,332.14 262.67,345.40 262.76,357.60 262.85,367.75 262.94,373.71 263.03,372.65 263.07,368.99 263.15,356.14 263.23,338.01 263.31,317.00 263.38,294.94 263.46,273.25 263.53,253.08 263.59,235.41 263.66,221.01 263.72,210.51 263.78,204.31 263.84,202.64 263.89,205.51 263.95,212.78 264.00,224.10 264.04,239.00 264.09,256.91 264.13,277.15 264.17,299.00 264.20,321.72 264.24,344.54 264.27,366.60 264.30,386.75 264.32,402.63 264.35,408.80 264.37,402.62 264.39,391.38 264.40,379.95 264.41,369.89 264.42,361.72 264.43,355.65 264.44,351.77 264.44,350.10 264.44,267.79 264.44,267.85 264.44,269.23 264.44,272.51 264.45,277.75 264.46,285.06 264.47,294.56 264.49,306.33 264.51,320.37 264.53,336.50 264.55,354.14 264.58,371.81 264.61,385.67 264.64,388.09 264.67,375.44 264.71,354.00 264.75,329.37 264.79,304.35 264.83,280.53 264.88,258.96 264.93,240.36 264.98,225.17 265.04,213.54 265.09,205.30 265.15,200.07 265.22,197.20 265.28,196.00 265.35,195.75 265.42,195.95 265.49,196.38 265.57,197.20 265.64,198.84 265.72,201.98 265.81,207.33 265.89,215.52 265.94,220.82 266.02,234.00 266.11,250.61 266.21,270.41 266.30,292.93 266.40,317.52 266.50,343.34 266.61,369.28 266.71,393.22 266.82,407.58 266.93,398.59 267.04,377.13 267.16,353.28 267.27,329.33 267.39,306.05 267.51,283.99 267.64,263.72 267.76,245.93 267.89,231.35 268.02,220.67 268.15,214.43 268.29,212.88 268.42,215.86 268.56,222.68 268.70,232.03 268.84,241.95 268.99,250.02 269.13,253.92 269.28,252.35 269.43,245.73 269.59,236.08 269.74,226.23 269.90,218.98 270.05,216.64 270.13,217.85 270.29,225.73 270.46,241.27 270.62,264.23 270.79,293.47 270.95,326.37 271.12,356.79 271.29,369.50 271.47,351.36 271.64,316.41 271.82,278.29 271.99,242.84 272.17,212.94 272.35,190.26 272.53,175.70 272.72,169.41 272.90,170.86 273.09,178.77 273.27,191.13 273.46,205.28 273.65,218.07 273.84,226.49 274.04,228.60 274.23,224.39 274.43,215.77 274.62,205.57 274.82,196.55 275.02,190.76 275.22,189.37 275.42,192.56 275.62,199.58 275.82,208.77 276.03,217.72 276.23,223.72 276.33,224.89 276.54,222.80 276.74,215.19 276.95,203.96 277.16,191.93 277.37,181.87 277.58,176.01 277.79,175.75 278.00,181.53 278.21,192.79 278.42,207.89 278.64,224.07 278.85,237.79 279.06,245.55 279.28,245.45 279.49,238.48 279.71,227.97 279.92,217.90 280.14,211.57 280.35,211.01 280.57,216.79 280.79,227.94 281.00,241.89 281.22,254.46 281.44,260.85 281.65,257.76 281.87,245.72 282.09,228.69 282.31,211.57 282.52,198.39 282.74,191.68 282.96,192.40 283.17,199.92 283.39,212.01 283.50,218.67 283.72,230.40 283.93,236.27 284.15,233.57 284.36,223.01 284.58,208.19 284.79,193.58 285.01,182.83 285.22,178.15 285.44,180.17 285.65,187.94 285.86,199.05 286.07,209.94 286.29,216.74 286.50,216.86 286.71,210.41 286.92,200.26 287.13,190.60 287.33,185.44 287.54,187.80 287.75,199.43 287.95,220.64 288.16,250.24 288.36,284.97 288.57,317.79 288.77,334.91 288.97,323.24 289.17,290.48 289.37,251.77 289.56,216.08 289.76,188.17 289.96,170.74 290.15,165.18 290.34,171.81 290.44,179.52 290.63,202.93 290.82,235.24 291.01,273.55 291.20,313.67 291.38,348.37 291.57,364.15 291.75,352.46 291.93,327.38 292.11,302.16 292.29,281.98 292.47,268.34 292.65,260.87 292.82,258.01 292.99,257.30 293.16,256.02 293.33,252.04 293.50,244.70 293.67,235.10 293.83,225.52 293.99,218.64 294.15,216.84 294.31,221.88 294.47,234.79 294.62,255.84 294.78,284.56 294.93,319.74 295.08,359.24 295.22,397.31 295.37,399.83 295.51,362.23 295.65,321.54 295.79,284.29 295.93,252.64 296.00,239.32 296.13,218.11 296.27,204.30 296.40,197.54 296.52,196.98 296.65,201.27 296.77,208.73 296.89,217.52 297.01,225.93 297.13,232.65 297.24,237.07 297.36,239.30 297.47,240.02 297.57,240.06 297.68,240.05 297.78,240.22 297.88,240.33 297.98,239.79 298.08,237.87 298.17,234.05 298.26,228.23 298.35,220.84 298.44,212.74 298.52,205.08 298.60,198.99 298.68,195.48 298.76,195.34 298.83,199.04 298.90,206.77 298.97,218.44 299.04,233.73 299.10,252.05 299.16,272.68 299.22,294.66 299.25,305.79 299.30,327.42 299.36,346.57 299.41,360.53 299.45,366.25 299.50,362.75 299.54,352.54 299.58,339.10 299.61,324.89 299.65,311.22 299.68,298.79 299.71,287.90 299.73,278.66 299.76,271.04 299.78,264.92 299.80,260.15 299.81,256.54 299.82,253.88 299.83,252.01 299.84,250.77 299.85,250.04 299.85,249.74 299.85,154.48 299.85,154.88 299.85,156.69 299.86,160.03 299.87,165.03 299.88,171.87 299.89,180.71 299.91,191.68 299.93,204.81 299.95,220.00 299.97,236.91 300.00,254.91 300.02,264.01 300.05,281.52 300.08,296.52 300.12,306.76 300.16,310.22 300.20,306.26 300.24,296.08 300.29,281.95 300.34,266.15 300.39,250.38 300.45,235.82 300.50,223.17 300.56,212.80 300.63,204.91 300.69,199.62 300.76,197.08 300.83,197.54 300.90,201.38 300.98,209.09 301.05,221.19 301.13,238.20 301.22,260.43 301.30,287.93 301.39,320.21 301.48,355.76 301.57,388.79 301.67,392.79 301.76,358.92 301.86,316.54 301.96,274.60 302.07,236.45 302.17,204.38 302.28,180.23 302.34,171.58 302.45,161.77 302.57,162.41 302.68,173.46 302.80,194.11 302.92,222.61 303.05,255.76 303.17,287.91 303.30,309.45 303.43,309.32 303.56,287.04 303.70,253.21 303.83,217.54 303.97,185.80 304.11,161.29 304.25,145.79 304.40,139.96 304.54,143.43 304.69,154.86 304.84,171.87 304.99,191.16 305.15,208.65 305.30,220.33 305.46,223.65 305.62,218.93 305.78,209.25 305.95,198.75 306.11,191.21 306.28,189.30 306.45,194.50 306.62,207.17 306.79,226.62 306.96,251.14 307.14,277.85 307.23,290.74 307.40,312.15 307.58,322.77 307.76,319.73 307.94,306.53 308.13,289.42 308.31,273.13 308.50,260.15 308.68,251.27 308.87,246.13 309.06,243.61 309.25,242.22 309.45,240.52 309.64,237.73 309.84,233.88 310.03,229.78 310.23,226.64 310.43,225.58 310.63,227.24 310.83,231.49 311.03,237.32 311.23,242.82 311.43,245.58 311.64,243.54 311.84,235.89 312.05,223.65 312.26,209.16 312.46,195.20 312.67,184.37 312.88,178.72 313.09,179.53 313.30,187.28 313.51,201.56 313.73,220.81 313.83,231.46 314.05,252.27 314.26,267.85 314.47,272.51 314.69,263.66 314.90,244.05 315.12,219.42 315.33,195.27 315.55,175.72 315.76,163.61 315.98,160.68 316.20,167.75 316.41,184.80 316.63,211.01 316.85,244.72 317.06,283.36 317.28,322.54 317.50,353.39 317.72,359.52 317.93,337.70 318.15,305.22 318.37,273.22 318.58,246.23 318.80,226.28 319.02,214.20 319.23,210.07 319.45,213.44 319.67,223.32 319.88,238.41 320.10,257.12 320.31,277.64 320.53,298.18 320.74,317.01 320.95,332.73 321.06,339.15 321.27,349.02 321.48,355.31 321.70,358.70 321.91,359.44 322.12,356.86 322.33,349.86 322.54,337.79 322.74,321.06 322.95,300.92 323.16,279.09 323.36,257.32 323.57,237.22 323.77,220.32 323.97,207.86 324.18,200.80 324.38,199.77 324.58,205.07 324.78,216.49 324.97,233.38 325.17,254.55 325.37,278.02 325.56,300.78 325.75,318.48 325.95,326.03 326.14,321.01 326.33,306.39 326.51,287.57 326.70,268.98 326.89,253.51 327.07,242.86 327.25,237.85 327.43,238.66 327.61,244.81 327.70,249.55 327.88,261.29 328.06,274.01 328.23,284.60 328.40,289.63 328.57,286.70 328.74,275.82 328.91,259.30 329.08,240.28 329.24,221.54 329.40,205.19 329.56,192.63 329.72,184.70 329.88,181.65 330.03,183.27 330.19,189.00 330.34,197.94 330.49,208.94 330.63,220.80 330.78,232.39 330.92,242.89 331.06,251.95 331.20,259.70 331.34,266.75 331.48,273.88 331.61,281.84 331.74,291.10 331.87,301.68 332.00,313.10 332.12,324.31 332.24,333.75 332.36,339.64 332.48,340.78 332.60,337.34 332.65,334.35 332.77,327.12 332.88,319.91 332.98,314.35 333.09,311.56 333.19,312.17 333.29,316.38 333.39,323.94 333.49,334.19 333.58,345.90 333.67,357.06 333.76,364.83 333.85,366.22 333.93,360.31 334.01,349.07 334.09,335.48 334.17,321.89 334.24,309.86 334.31,300.38 334.38,294.05 334.45,291.10 334.51,291.53 334.57,295.05 334.63,301.16 334.69,309.09 334.74,317.84 334.79,326.19 334.84,332.76 334.88,336.27 334.93,335.92 334.97,331.74 335.01,324.47 335.04,315.16 335.07,304.79 335.09,299.46 335.12,288.83 335.14,278.57 335.17,268.93 335.19,260.06 335.21,252.05 335.22,244.98 335.23,238.94 335.24,234.02 335.25,230.32 335.26,227.91 335.26,226.87 335.26,272.67 335.26,272.44 335.26,271.39 335.27,269.50 335.28,266.78 335.29,263.24 335.30,258.96 335.32,254.02 335.34,248.59 335.36,242.83 335.38,236.97 335.41,231.22 335.44,225.77 335.47,220.80 335.51,216.46 335.55,212.83 335.59,209.95 335.63,207.80 335.68,206.30 335.72,205.38 335.77,204.94 335.83,204.92 335.86,205.08 335.91,205.78 335.97,207.18 336.04,209.60 336.10,213.49 336.17,219.32 336.24,227.62 336.31,238.81 336.39,253.17 336.46,270.76 336.54,291.27 336.63,313.88 336.71,336.80 336.80,356.32 336.89,365.64 336.98,358.92 337.07,339.50 337.17,314.55 337.27,288.72 337.37,264.51 337.48,243.36 337.58,226.07 337.69,212.97 337.80,204.02 337.92,198.81 338.03,196.66 338.15,196.65 338.27,197.80 338.39,199.15 338.52,200.01 338.64,200.07 338.77,199.38 338.90,198.38 339.04,197.70 339.11,197.72 339.24,198.89 339.38,202.12 339.52,207.91 339.66,216.57 339.81,228.28 339.95,243.08 340.10,260.87 340.25,281.40 340.40,304.19 340.56,328.34 340.71,352.02 340.87,371.00 341.03,376.88 341.19,364.65 341.36,341.10 341.52,313.40 341.69,285.13 341.86,258.11 342.03,233.50 342.20,212.09 342.37,194.52 342.55,181.24 342.72,172.61 342.90,168.92 343.08,170.39 343.26,177.18 343.44,189.31 343.63,206.55 343.81,228.34 344.00,253.41 344.19,279.39 344.38,301.94 344.47,309.90 344.66,314.80 344.86,302.96 345.05,278.83 345.25,249.48 345.44,220.31 345.64,194.79 345.84,175.04 346.04,162.16 346.24,156.32 346.44,156.84 346.64,162.29 346.84,170.58 347.05,179.28 347.25,186.16 347.46,189.82 347.67,190.08 347.87,188.10 348.08,185.85 348.29,185.42 348.50,188.50 348.71,196.17 348.92,208.79 349.14,226.04 349.35,247.08 349.56,270.72 349.77,295.53 349.99,320.08 350.20,343.13 350.42,363.43 350.63,379.02 350.85,385.86 351.06,379.48 351.28,361.33 351.39,349.29 351.61,321.46 351.82,290.74 352.04,259.32 352.26,229.35 352.47,202.96 352.69,182.19 352.91,168.74 353.12,163.84 353.34,168.21 353.56,181.83 353.78,203.91 353.99,232.86 354.21,266.01 354.43,299.16 354.64,325.60 354.86,336.39 355.08,327.98 355.29,308.12 355.51,286.17 355.72,267.57 355.94,254.73 356.15,248.33 356.36,247.74 356.58,251.30 356.79,256.60 357.00,260.93 357.21,261.91 357.42,258.54 357.63,251.52 357.84,242.73 358.05,234.50 358.26,228.81 358.46,226.96 358.57,227.68 358.77,232.42 358.98,241.00 359.18,252.21 359.38,264.20 359.59,274.66 359.79,281.12 359.99,281.62 360.19,275.55 360.38,263.71 360.58,247.83 360.78,229.82 360.97,211.45 361.16,194.18 361.36,179.35 361.55,168.14 361.74,161.59 361.92,160.53 362.11,165.56 362.30,176.81 362.48,193.94 362.66,215.89 362.84,240.70 363.02,265.19 363.20,284.82 363.38,294.35 363.55,290.87 363.73,276.66 363.90,257.19 364.07,237.57 364.24,221.40 364.40,210.86 364.57,207.01 364.73,209.98 364.81,213.85 364.97,225.59 365.13,241.12 365.29,257.88 365.44,272.68 365.60,282.20 365.75,284.15 365.90,278.48 366.04,267.38 366.19,253.83 366.33,240.39 366.47,228.78 366.61,219.92 366.75,214.03 366.89,210.90 367.02,209.95 367.15,210.46 367.28,211.68 367.41,212.93 367.53,213.64 367.65,213.43 367.77,212.07 367.89,209.43 368.01,205.49 368.12,200.34 368.23,194.16 368.34,187.30 368.45,180.34 368.55,173.99 368.65,169.07 368.75,166.42 368.85,166.77 368.94,170.65 369.04,178.27 369.08,183.45 369.17,196.21 369.26,211.35 369.34,227.38 369.42,242.30 369.50,253.78 369.58,259.77 369.65,259.40 369.72,253.45 369.79,244.04 369.86,233.73 369.92,224.82 369.98,219.00 370.04,217.32 370.10,220.20 370.15,227.46 370.20,238.39 370.25,251.72 370.29,265.64 370.34,277.93 370.38,286.21 370.42,288.64 370.45,284.70 370.48,275.45 370.51,262.79 370.54,248.65 370.56,234.56 370.59,221.52 370.61,210.09 370.62,200.52 370.64,192.84 370.65,186.94 370.66,182.67 370.66,179.84 370.66,178.92 370.67,178.01 370.67,173.12 370.67,173.15 370.67,173.32 370.68,173.65 370.69,174.24 370.70,175.14 370.71,176.42 370.73,178.11 370.75,180.15 370.77,182.40 370.79,184.64 370.82,186.58 370.85,187.88 370.88,188.23 370.92,187.40 370.96,185.31 371.00,182.04 371.04,177.82 371.09,172.99 371.13,167.95 371.18,163.09 371.24,158.82 371.29,155.50 371.35,153.50 371.41,153.21 371.48,155.06 371.54,159.50 371.61,166.97 371.68,177.85 371.76,192.32 371.83,210.26 371.91,231.04 371.95,242.11 372.04,264.29 372.12,283.77 372.21,296.18 372.30,297.37 372.39,286.55 372.48,267.07 372.58,243.75 372.68,220.63 372.78,200.57 372.89,185.38 372.99,176.04 373.10,172.81 373.21,175.29 373.33,182.56 373.44,193.30 373.56,206.01 373.68,219.31 373.80,232.27 373.93,244.68 374.05,257.09 374.18,270.52 374.31,286.02 374.45,304.11 374.58,324.18 374.72,343.42 374.86,355.39 375.00,352.04 375.14,333.24 375.29,306.54 375.44,278.59 375.59,253.55 375.74,233.91 375.89,221.00 375.97,217.18 376.12,214.41 376.28,216.71 376.44,221.35 376.60,224.75 376.77,223.50 376.93,215.88 377.10,202.84 377.27,187.44 377.44,173.54 377.61,164.68 377.78,163.49 377.96,171.38 378.13,188.43 378.31,213.30 378.49,242.94 378.67,271.98 378.85,292.36 379.04,295.87 379.22,281.49 379.41,256.61 379.60,229.35 379.79,204.72 379.98,185.01 380.17,170.61 380.36,160.69 380.56,153.86 380.75,148.72 380.95,144.46 381.15,141.18 381.35,139.81 381.55,141.64 381.75,147.88 381.95,159.17 382.05,166.67 382.25,184.69 382.46,205.14 382.66,225.16 382.87,241.24 383.08,250.28 383.28,250.90 383.49,244.15 383.70,232.72 383.91,219.23 384.12,205.42 384.33,192.06 384.55,179.26 384.76,166.93 384.97,155.26 385.18,144.86 385.40,136.74 385.61,132.13 385.83,132.14 386.04,137.50 386.26,148.24 386.47,163.63 386.69,182.00 386.91,200.90 387.12,217.43 387.34,229.05 387.56,234.66 387.77,235.35 387.99,233.93 388.21,233.65 388.43,237.13 388.64,245.72 388.86,259.17 388.97,267.17 389.19,283.46 389.40,295.78 389.62,298.48 389.84,289.22 390.05,271.17 390.27,250.16 390.48,231.48 390.70,218.87 390.92,214.55 391.13,219.41 391.34,233.07 391.56,253.71 391.77,277.91 391.99,300.18 392.20,313.18 392.41,311.62 392.62,297.79 392.83,279.22 393.04,262.61 393.25,252.04 393.46,249.41 393.67,254.62 393.87,265.59 394.08,277.98 394.28,285.22 394.49,280.72 394.69,262.65 394.90,235.06 395.10,204.08 395.30,174.99 395.50,151.66 395.69,136.69 395.89,131.62 395.99,133.03 396.19,143.78 396.38,164.64 396.57,194.48 396.77,231.56 396.96,273.33 397.15,315.57 397.33,349.06 397.52,355.21 397.71,329.21 397.89,290.23 398.07,250.44 398.25,214.92 398.43,186.38 398.61,166.51 398.79,156.31 398.96,156.19 399.14,165.98 399.31,184.87 399.48,211.30 399.65,242.89 399.81,276.09 399.98,305.41 400.14,322.96 400.30,322.12 400.46,305.50 400.62,281.79 400.77,257.75 400.93,236.88 401.08,220.60 401.23,209.06 401.38,201.54 401.53,196.81 401.67,193.42 401.74,191.80 401.88,188.14 402.02,183.56 402.16,178.21 402.30,172.76 402.43,168.06 402.56,164.88 402.69,163.65 402.82,164.39 402.94,166.69 403.06,169.78 403.18,172.80 403.30,175.02 403.42,176.11 403.53,176.29 403.64,176.27 403.75,177.10 403.86,179.90 403.96,185.61 404.06,194.74 404.16,207.24 404.26,222.32 404.35,238.36 404.45,252.83 404.54,262.50 404.62,264.36 404.71,257.20 404.79,242.35 404.87,222.86 404.95,202.05 405.02,182.76 405.10,167.11 405.17,156.64 405.23,152.30 405.27,152.60 405.33,158.20 405.39,170.28 405.45,188.28 405.51,211.23 405.56,237.76 405.61,266.00 405.66,293.37 405.70,316.24 405.75,329.90 405.79,330.85 405.82,320.34 405.86,303.31 405.89,284.31 405.92,266.11 405.95,250.17 405.97,237.13 406.00,227.15 406.02,220.03 406.03,215.37 406.05,212.68 406.06,211.40 406.07,211.00 406.07,211.04 406.08,211.18 406.08,211.22 406.08,187.72 406.08,188.94 406.08,191.88 406.09,196.73 406.10,203.79 406.11,213.41 406.13,225.94 406.15,241.69 406.16,250.85 406.18,271.74 406.20,295.90 406.23,322.60 406.26,349.91 406.29,372.43 406.33,377.47 406.37,358.61 406.41,327.66 406.45,293.59 406.49,260.45 406.54,230.55 406.59,205.59 406.65,186.88 406.70,175.35 406.76,171.57 406.82,175.63 406.89,187.15 406.95,205.11 407.02,227.77 407.09,252.46 407.17,275.21 407.24,290.85 407.32,294.64 407.40,285.77 407.49,268.30 407.57,247.82 407.66,228.82 407.75,214.28 407.85,205.98 407.94,204.75 408.04,210.61 408.14,222.88 408.24,240.08 408.30,249.84 408.40,269.85 408.51,287.32 408.62,298.08 408.74,299.26 408.85,291.34 408.97,277.85 409.09,262.94 409.21,249.85 409.34,240.72 409.46,236.70 409.59,238.23 409.72,245.11 409.86,256.74 409.99,272.09 410.13,289.83 410.27,308.26 410.41,325.31 410.55,338.45 410.70,345.08 410.85,343.73 411.00,335.23 411.15,321.93 411.30,306.16 411.46,289.68 411.61,273.74 411.77,259.39 411.93,247.52 412.09,238.90 412.26,234.10 412.42,233.44 412.59,236.91 412.76,244.04 412.93,253.88 413.02,259.37 413.19,270.37 413.37,279.69 413.54,285.42 413.72,286.45 413.90,283.04 414.08,276.64 414.26,269.19 414.45,262.42 414.63,257.52 414.82,255.08 415.01,255.06 415.20,256.93 415.39,259.85 415.58,262.85 415.77,265.05 415.97,265.89 416.16,265.27 416.36,263.46 416.56,260.97 416.76,258.30 416.96,255.74 417.16,253.35 417.36,250.87 417.56,247.85 417.77,243.79 417.97,238.33 418.18,231.37 418.38,223.16 418.59,214.22 418.80,205.29 419.01,197.17 419.22,190.66 419.43,186.44 419.53,185.37 419.74,185.57 419.95,189.15 420.17,196.24 420.38,206.89 420.59,220.95 420.81,238.19 421.02,258.23 421.24,280.53 421.45,304.26 421.67,328.11 421.88,349.66 422.10,364.36 422.32,366.13 422.53,354.00 422.75,333.70 422.97,310.63 423.18,287.91 423.40,267.41 423.62,250.39 423.84,237.75 424.05,230.11 424.27,227.78 424.49,230.75 424.70,238.62 424.92,250.57 425.14,265.26 425.35,280.87 425.57,295.09 425.79,305.51 426.00,310.47 426.22,310.09 426.43,306.24 426.65,301.58 426.75,299.70 426.97,297.87 427.18,299.11 427.39,302.93 427.61,307.48 427.82,309.65 428.03,306.04 428.24,294.77 428.45,276.76 428.66,254.81 428.87,232.12 429.08,211.50 429.28,195.08 429.49,184.23 429.69,179.60 429.90,181.14 430.10,188.07 430.30,198.94 430.51,211.71 430.71,223.96 430.91,233.21 431.10,237.66 431.30,236.76 431.50,231.38 431.69,223.43 431.89,215.01 432.08,207.96 432.27,203.55 432.46,202.51 432.65,205.04 432.84,210.92 433.02,219.60 433.21,230.31 433.39,242.15 433.48,248.20 433.66,260.08 433.84,271.05 434.02,280.68 434.20,288.78 434.37,295.39 434.54,300.65 434.72,304.68 434.89,307.54 435.05,309.19 435.22,309.59 435.39,308.83 435.55,307.15 435.71,304.98 435.87,302.73 436.03,300.70 436.18,298.91 436.34,296.93 436.49,293.92 436.64,288.76 436.79,280.40 436.94,268.29 437.08,252.64 437.22,234.37 437.36,214.86 437.50,195.68 437.64,178.35 437.77,164.21 437.90,154.31 438.03,149.38 438.16,149.73 438.29,155.25 438.41,165.43 438.47,171.99 438.59,187.30 438.71,204.34 438.83,221.56 438.94,237.50 439.05,251.14 439.16,262.14 439.27,271.00 439.37,278.86 439.47,286.98 439.57,296.22 439.67,306.52 439.76,316.39 439.85,322.61 439.94,320.91 440.03,308.60 440.12,286.69 440.20,258.59 440.28,227.93 440.36,197.75 440.43,170.46 440.50,147.96 440.58,131.63 440.64,122.41 440.71,120.70 440.77,126.43 440.83,138.96 440.89,157.09 440.94,179.03 440.99,202.33 441.04,223.90 441.09,240.24 441.13,248.31 441.18,246.86 441.20,242.89 441.23,230.26 441.27,214.14 441.30,197.49 441.33,182.39 441.36,170.09 441.38,161.16 441.41,155.63 441.43,153.19 441.44,153.22 441.46,155.00 441.47,157.74 441.48,160.67 441.48,163.15 441.48,164.69 441.49,165.05 441.49,237.36 441.49,237.85 441.49,239.01 441.50,240.83 441.51,243.33 441.52,246.52 441.54,250.40 441.56,254.95 441.58,260.13 441.60,265.89 441.63,272.12 441.65,278.69 441.69,285.43 441.72,292.16 441.76,298.66 441.79,304.72 441.84,310.13 441.88,314.71 441.90,316.63 441.95,319.64 442.00,321.43 442.06,321.89 442.11,320.92 442.17,318.48 442.23,314.59 442.30,309.37 442.36,303.06 442.43,295.99 442.50,288.61 442.58,281.40 442.65,274.88 442.73,269.52 442.81,265.74 442.90,263.83 442.98,263.92 443.07,265.95 443.16,269.60 443.26,274.30 443.35,279.20 443.45,283.25 443.55,285.36 443.65,284.68 443.76,280.90 443.87,274.39 443.98,266.09 444.09,257.27 444.20,249.27 444.32,243.29 444.44,240.37 444.56,241.27 444.68,246.50 444.81,256.25 444.87,262.79 445.00,278.96 445.13,298.50 445.27,319.87 445.40,340.20 445.54,354.23 445.68,355.11 445.82,341.20 445.96,318.03 446.11,291.36 446.26,264.77 446.41,240.38 446.56,219.58 446.71,203.23 446.86,191.82 447.02,185.45 447.18,183.85 447.34,186.35 447.50,191.91 447.67,199.12 447.83,206.36 448.00,211.98 448.17,214.68 448.34,213.91 448.51,210.03 448.69,204.23 448.86,198.18 449.04,193.62 449.22,192.07 449.40,194.65 449.58,201.99 449.76,214.10 449.95,230.35 450.14,249.25 450.23,258.93 450.42,276.59 450.61,288.28 450.80,289.92 450.99,280.29 451.18,262.11 451.38,239.86 451.57,217.69 451.77,198.73 451.97,185.26 452.17,178.80 452.37,180.24 452.57,189.95 452.77,207.72 452.97,232.80 453.17,263.87 453.38,298.79 453.59,333.81 453.79,360.99 454.00,365.58 454.21,344.96 454.42,314.55 454.63,284.27 454.84,258.35 455.05,238.86 455.26,226.90 455.47,222.89 455.68,226.72 455.90,237.76 456.11,254.88 456.32,276.44 456.54,300.07 456.75,322.34 456.97,338.32 457.08,342.16 457.29,339.66 457.51,325.84 457.73,306.20 457.94,285.22 458.16,265.53 458.38,248.61 458.59,235.28 458.81,226.05 459.03,221.26 459.24,221.15 459.46,225.89 459.68,235.58 459.90,250.10 460.11,269.03 460.33,291.40 460.55,315.26 460.76,336.84 460.98,349.52 461.20,346.64 461.41,329.67 461.63,306.24 461.84,282.71 462.06,263.04 462.27,249.71 462.48,244.22 462.70,247.22 462.91,258.48 463.12,276.65 463.33,298.81 463.55,319.45 463.76,329.75 463.96,322.06 464.17,298.73 464.28,283.89 464.49,252.66 464.69,223.69 464.90,200.41 465.10,184.84 465.31,178.01 465.51,180.06 465.71,190.23 465.92,206.90 466.12,227.52 466.32,248.54 466.51,265.55 466.71,274.31 466.91,272.78 467.10,262.67 467.30,248.12 467.49,233.32 467.68,221.37 467.87,214.15 468.06,212.52 468.25,216.55 468.43,225.69 468.62,238.95 468.80,254.95 468.98,272.11 469.16,288.67 469.34,302.82 469.52,312.83 469.69,317.40 469.87,315.95 470.04,308.87 470.21,297.15 470.38,282.06 470.55,264.90 470.63,255.95 470.80,238.16 470.96,221.69 471.12,207.95 471.28,198.31 471.44,194.00 471.59,195.99 471.75,204.96 471.90,221.17 472.05,244.45 472.20,274.06 472.35,308.53 472.49,344.89 472.63,375.13 472.77,377.97 472.91,349.43 473.05,311.48 473.18,273.95 473.31,240.48 473.44,213.00 473.57,192.64 473.70,179.95 473.82,174.91 473.94,176.96 474.06,185.02 474.18,197.55 474.29,212.58 474.40,227.98 474.51,241.71 474.62,252.32 474.73,259.48 474.83,264.09 474.93,267.98 475.03,273.24 475.08,276.97 475.17,287.49 475.26,302.64 475.35,322.34 475.44,345.23 475.53,367.38 475.61,378.60 475.69,367.19 475.77,339.57 475.84,306.58 475.91,273.55 475.98,243.29 476.05,217.61 476.12,197.79 476.18,184.69 476.24,178.76 476.30,180.12 476.35,188.52 476.40,203.38 476.45,223.89 476.50,248.99 476.54,277.43 476.59,307.77 476.63,338.27 476.66,366.31 476.70,386.45 476.73,389.11 476.76,375.04 476.78,355.42 476.80,335.93 476.83,318.41 476.84,303.49 476.86,291.26 476.87,286.13 476.88,277.73 476.89,271.60 476.89,267.53 476.89,265.33 476.90,264.85 476.90,193.57 476.90,194.74 476.90,197.47 476.91,201.76 476.92,207.60 476.93,214.98 476.95,223.84 476.97,234.07 476.99,245.50 477.01,257.85 477.04,270.69 477.06,283.42 477.09,295.25 477.13,305.22 477.17,312.32 477.20,315.80 477.25,315.49 477.29,311.97 477.34,306.40 477.39,300.12 477.44,294.40 477.49,290.28 477.55,288.49 477.61,289.46 477.67,293.32 477.74,299.78 477.81,308.18 477.88,317.29 477.91,321.57 477.99,328.18 478.06,330.25 478.14,326.23 478.22,316.21 478.31,301.77 478.39,284.97 478.48,267.67 478.57,251.34 478.67,237.02 478.76,225.43 478.86,217.02 478.96,211.96 479.06,210.20 479.17,211.52 479.28,215.57 479.39,221.91 479.50,230.06 479.61,239.59 479.73,250.13 479.85,261.42 479.97,273.32 480.09,285.77 480.22,298.72 480.35,312.08 480.48,325.56 480.61,338.57 480.74,350.07 480.88,358.52 481.02,362.22 481.16,360.36 481.30,353.75 481.45,344.31 481.59,333.94 481.67,328.87 481.81,319.62 481.97,312.07 482.12,306.50 482.27,302.84 482.43,300.70 482.59,299.47 482.75,298.40 482.91,296.79 483.08,294.17 483.24,290.45 483.41,285.95 483.58,281.30 483.75,277.29 483.92,274.63 484.10,273.85 484.27,275.13 484.45,278.25 484.63,282.50 484.81,286.70 484.99,289.32 485.17,288.85 485.36,284.32 485.54,275.80 485.73,264.33 485.92,251.56 486.11,239.26 486.30,229.07 486.49,222.30 486.69,219.92 486.88,222.49 487.08,230.12 487.28,242.48 487.48,258.73 487.57,267.86 487.77,286.84 487.98,304.30 488.18,316.50 488.38,319.82 488.58,313.27 488.79,299.43 488.99,282.34 489.20,265.49 489.41,251.31 489.62,241.42 489.83,236.75 490.04,237.68 490.25,244.12 490.46,255.50 490.67,270.75 490.88,288.27 491.09,305.87 491.31,320.79 491.52,330.19 491.73,332.57 491.95,329.03 492.16,322.68 492.38,316.79 492.59,313.71 492.81,314.74 493.03,320.12 493.24,328.97 493.46,339.02 493.68,346.23 493.89,345.65 494.11,334.76 494.33,315.58 494.55,292.17 494.65,280.00 494.87,256.42 495.09,235.47 495.31,218.52 495.52,206.41 495.74,199.55 495.96,197.98 496.17,201.43 496.39,209.38 496.61,221.11 496.82,235.81 497.04,252.54 497.25,270.32 497.47,288.13 497.68,304.93 497.89,319.69 498.11,331.50 498.32,339.77 498.53,344.48 498.74,346.33 498.95,346.49 499.16,346.23 499.37,346.58 499.58,348.23 499.79,351.51 500.00,356.35 500.21,362.32 500.41,368.56 500.62,373.76 500.82,376.36 501.02,375.16 501.22,370.11 501.43,362.26 501.63,352.97 501.73,348.14 501.92,338.59 502.12,329.53 502.32,321.08 502.51,313.04 502.71,305.00 502.90,296.48 503.09,287.02 503.28,276.37 503.47,264.54 503.66,251.83 503.84,238.75 504.03,225.98 504.21,214.23 504.39,204.19 504.57,196.49 504.75,191.60 504.93,189.90 505.10,191.58 505.28,196.70 505.45,205.17 505.62,216.80 505.79,231.27 505.96,248.17 506.12,267.01 506.29,287.23 506.45,308.10 506.61,328.71 506.77,347.73 506.93,363.14 507.08,372.10 507.23,372.49 507.39,365.49 507.53,354.69 507.61,348.88 507.75,337.90 507.90,328.99 508.04,323.19 508.18,321.19 508.32,323.40 508.46,330.03 508.59,340.98 508.72,355.86 508.85,373.65 508.98,391.72 509.11,401.65 509.23,391.38 509.35,368.34 509.47,341.75 509.59,315.06 509.70,290.02 509.81,267.84 509.92,249.44 510.03,235.49 510.14,226.40 510.24,222.29 510.34,222.97 510.44,227.94 510.53,236.34 510.63,246.98 510.72,258.35 510.81,268.70 510.89,276.35 510.98,280.03 511.06,279.40 511.14,275.12 511.21,268.58 511.29,261.31 511.32,257.84 511.39,251.86 511.46,247.68 511.53,245.53 511.59,245.22 511.65,246.24 511.71,247.82 511.76,249.12 511.81,249.36 511.86,248.02 511.91,244.98 511.95,240.53 512.00,235.25 512.03,229.88 512.07,225.16 512.11,221.67 512.14,219.83 512.16,219.84 512.19,221.68 512.21,225.15 512.23,229.89 512.25,235.47 512.27,241.37 512.28,247.09 512.29,252.16 512.30,256.19 512.30,258.90 512.30,260.10 512.30,274.61 512.31,274.70 512.31,275.06 512.31,275.66 512.32,276.40 512.33,277.12 512.34,277.41 512.36,277.71 512.37,277.38 512.40,276.11 512.42,273.59 512.44,269.62 512.47,264.09 512.50,257.11 512.54,248.97 512.57,240.14 512.61,231.23 512.66,222.91 512.70,215.86 512.75,210.72 512.80,208.00 512.85,208.06 512.90,211.02 512.96,216.75 513.02,224.79 513.08,234.37 513.15,244.32 513.22,253.24 513.29,259.64 513.36,262.34 513.43,260.90 513.51,255.85 513.59,248.47 513.67,240.46 513.76,233.43 513.85,228.75 513.94,227.41 514.03,229.99 514.12,236.63 514.17,241.41 514.27,253.54 514.37,268.30 514.47,284.36 514.58,299.95 514.69,312.93 514.80,321.18 514.91,323.47 515.02,320.23 515.14,313.33 515.26,305.03 515.38,297.22 515.50,291.12 515.63,287.42 515.76,286.37 515.89,287.92 516.02,291.83 516.15,297.84 516.29,305.66 516.43,315.12 516.57,326.12 516.71,338.63 516.85,352.49 517.00,367.14 517.15,380.96 517.30,389.87 517.45,387.75 517.61,374.20 517.76,354.63 517.92,333.24 518.08,312.54 518.24,294.27 518.40,279.83 518.57,270.32 518.65,267.68 518.82,267.00 518.99,272.66 519.16,284.50 519.33,301.80 519.51,323.05 519.68,345.24 519.86,362.28 520.04,364.65 520.22,349.30 520.40,324.17 520.58,296.74 520.77,271.12 520.95,249.66 521.14,233.76 521.33,224.19 521.52,221.20 521.71,224.55 521.90,233.55 522.10,247.15 522.29,263.92 522.49,282.20 522.69,300.19 522.88,316.11 523.08,328.49 523.28,336.66 523.49,340.94 523.69,342.43 523.89,342.39 524.10,341.66 524.30,340.49 524.51,338.75 524.71,336.13 524.92,332.47 525.03,330.26 525.24,325.25 525.44,319.74 525.66,314.01 525.87,308.17 526.08,302.13 526.29,295.59 526.50,288.25 526.72,279.92 526.93,270.69 527.14,260.95 527.36,251.34 527.57,242.66 527.79,235.66 528.00,231.00 528.22,229.10 528.44,230.09 528.65,233.79 528.87,239.73 529.09,247.16 529.30,255.16 529.52,262.82 529.74,269.38 529.96,274.46 530.17,278.16 530.39,281.02 530.61,283.79 530.82,287.24 531.04,291.84 531.26,297.65 531.47,304.17 531.69,310.24 531.91,314.22 532.12,314.34 532.23,312.55 532.45,305.12 532.66,293.34 532.88,278.83 533.09,263.46 533.30,248.90 533.52,236.57 533.73,227.50 533.94,222.45 534.15,221.86 534.36,225.89 534.57,234.45 534.78,247.21 534.99,263.60 535.20,282.82 535.41,303.81 535.61,325.10 535.82,344.50 536.03,358.75 536.23,363.83 536.43,358.26 536.63,345.01 536.84,328.20 537.04,310.60 537.23,293.74 537.43,278.47 537.63,265.23 537.82,254.21 538.02,245.45 538.21,238.84 538.40,234.14 538.59,231.01 538.78,229.05 538.97,227.83 539.07,227.37 539.25,226.61 539.44,225.97 539.62,225.60 539.80,225.89 539.98,227.48 540.16,231.13 540.34,237.61 540.51,247.61 540.69,261.57 540.86,279.65 541.03,301.53 541.20,326.24 541.37,351.54 541.53,372.02 541.70,376.85 541.86,361.29 542.02,335.36 542.18,307.36 542.34,281.20 542.49,259.02 542.64,242.18 542.79,231.52 542.94,227.46 543.09,230.02 543.24,238.87 543.38,253.32 543.52,272.36 543.66,294.70 543.80,318.72 543.93,342.42 544.07,363.08 544.20,376.89 544.33,380.36 544.39,378.39 544.52,370.23 544.64,360.42 544.76,351.67 544.88,344.93 545.00,340.21 545.11,337.04 545.22,334.70 545.33,332.47 545.44,329.87 545.55,326.68 545.65,323.00 545.75,319.09 545.85,315.15 545.94,311.26 546.04,307.22 546.13,302.62 546.22,296.94 546.30,289.76 546.39,280.91 546.47,270.61 546.55,259.46 546.62,248.28 546.70,238.04 546.77,229.63 546.84,223.87 546.90,221.32 546.97,222.33 547.03,226.95 547.09,234.91 547.14,245.64 547.20,258.23 547.25,271.44 547.30,283.73 547.32,289.01 547.36,296.80 547.41,299.97 547.44,298.20 547.48,292.21 547.51,283.34 547.55,273.03 547.57,262.45 547.60,252.41 547.62,243.39 547.64,235.61 547.66,229.12 547.68,223.86 547.69,219.72 547.70,216.59 547.71,214.37 547.71,213.00 547.71,212.41 547.71,175.36 547.72,175.48 547.72,176.05 547.72,177.15 547.73,178.91 547.74,181.53 547.76,185.20 547.78,190.16 547.79,196.64 547.82,204.82 547.84,214.84 547.87,226.72 547.90,240.37 547.93,255.50 547.97,271.58 548.00,287.74 548.02,295.45 548.07,309.07 548.11,318.58 548.16,322.06 548.21,318.64 548.26,309.19 548.31,295.73 548.37,280.44 548.43,265.14 548.49,251.19 548.56,239.58 548.63,230.97 548.70,225.77 548.77,224.14 548.84,226.02 548.92,231.18 549.00,239.15 549.08,249.31 549.17,260.89 549.26,272.99 549.35,284.67 549.44,295.04 549.53,303.38 549.63,309.35 549.73,313.02 549.83,314.88 549.93,315.64 550.04,315.97 550.15,316.39 550.26,317.13 550.37,318.13 550.49,319.13 550.61,319.71 550.73,319.47 550.79,318.96 550.91,317.14 551.04,314.40 551.17,311.19 551.30,308.07 551.43,305.68 551.56,304.54 551.70,305.05 551.84,307.38 551.98,311.47 552.12,317.00 552.26,323.40 552.41,329.84 552.56,335.36 552.71,339.02 552.86,340.15 553.02,338.58 553.17,334.62 553.33,328.81 553.49,321.62 553.65,313.18 553.81,303.30 553.98,291.55 554.15,277.49 554.31,260.86 554.48,241.79 554.66,220.82 554.83,198.86 555.00,177.08 555.18,156.79 555.36,139.29 555.54,125.82 555.72,117.41 555.81,115.34 555.99,115.83 556.18,122.58 556.36,135.31 556.55,153.24 556.74,174.95 556.93,198.38 557.12,220.74 557.31,238.70 557.51,249.12 557.70,250.38 557.90,243.47 558.10,231.43 558.29,217.79 558.49,205.49 558.69,196.48 558.90,191.80 559.10,191.69 559.30,195.73 559.51,202.97 559.71,212.06 559.92,221.53 560.12,230.01 560.33,236.58 560.54,241.03 560.75,243.80 560.96,245.80 561.17,247.99 561.38,250.95 561.59,254.68 561.81,258.41 562.02,260.69 562.23,259.74 562.45,254.15 562.55,249.44 562.77,236.62 562.98,220.64 563.20,203.70 563.41,188.14 563.63,176.12 563.85,169.43 564.06,169.39 564.28,176.85 564.50,192.15 564.71,215.05 564.93,244.73 565.15,279.65 565.36,316.96 565.58,350.59 565.80,365.99 566.02,349.97 566.23,316.11 566.45,278.70 566.67,243.62 566.88,213.53 567.10,189.79 567.32,173.00 567.53,163.10 567.75,159.41 567.96,160.74 568.18,165.42 568.39,171.44 568.61,176.77 568.82,179.67 569.03,179.14 569.25,175.09 569.46,168.31 569.67,160.08 569.77,155.86 569.98,147.97 570.19,141.60 570.40,137.32 570.61,135.30 570.82,135.41 571.02,137.29 571.23,140.48 571.43,144.50 571.64,148.98 571.84,153.65 572.04,158.39 572.24,163.19 572.44,168.06 572.64,173.04 572.84,178.08 573.04,183.08 573.23,187.81 573.43,192.04 573.62,195.51 573.81,198.04 574.00,199.58 574.19,200.26 574.38,200.37 574.57,200.29 574.75,200.51 574.94,201.49 575.12,203.59 575.30,207.04 575.48,211.91 575.66,218.04 575.83,225.12 576.01,232.63 576.18,239.98 576.27,243.38 576.44,249.24 576.61,253.41 576.78,255.57 576.94,255.69 577.11,254.03 577.27,251.07 577.43,247.39 577.59,243.61 577.74,240.30 577.90,237.98 578.05,237.07 578.20,237.96 578.35,240.97 578.50,246.37 578.65,254.36 578.79,265.00 578.93,278.19 579.07,293.55 579.21,310.18 579.34,326.34 579.48,338.87 579.61,343.27 579.74,336.13 579.86,318.37 579.99,293.74 580.11,265.79 580.23,237.10 580.35,209.51 580.46,184.45 580.58,163.04 580.69,146.17 580.80,134.50 580.90,128.49 580.96,127.67 581.06,130.46 581.16,138.99 581.26,152.90 581.35,171.61 581.45,194.29 581.54,219.92 581.63,247.21 581.71,274.57 581.80,299.96 581.88,320.70 581.96,333.65 582.03,336.67 582.11,330.62 582.18,318.86 582.25,304.81 582.31,290.67 582.38,277.63 582.44,266.16 582.50,256.33 582.55,247.97 582.61,240.75 582.66,234.36 582.71,228.49 582.75,222.91 582.79,217.51 582.83,212.29 582.87,207.30 582.91,202.64 582.94,198.43 582.97,194.76 583.00,191.67 583.02,189.17 583.04,187.23 583.05,186.44 583.07,185.19 583.09,184.30 583.10,183.67 583.11,183.25 583.12,182.98 583.12,182.82 583.12,182.75 583.12,229.06 583.12,228.33 583.13,225.15 583.13,219.60 583.14,211.97 583.15,202.69 583.17,192.26 583.18,181.26 583.20,170.30 583.23,160.01 583.25,151.02 583.28,143.87 583.31,139.03 583.34,136.85 583.38,137.54 583.41,141.10 583.45,147.35 583.50,155.85 583.54,165.90 583.59,176.58 583.64,186.72 583.69,195.06 583.75,200.46 583.81,202.16 583.87,200.02 583.93,194.65 583.97,191.10 584.03,183.19 584.10,175.52 584.18,169.56 584.25,166.60 584.33,167.63 584.41,173.30 584.49,183.85 584.58,199.13 584.66,218.51 584.75,240.78 584.85,264.01 584.94,285.28 585.04,300.72 585.14,306.45 585.24,301.19 585.34,287.56 585.45,270.07 585.56,252.70 585.67,238.30 585.78,228.70 585.90,224.97 586.02,227.50 586.14,236.08 586.26,249.83 586.38,267.10 586.51,285.24 586.64,300.39 586.77,307.85 586.90,304.31 587.04,290.46 587.18,270.18 587.32,247.69 587.46,226.22 587.53,216.58 587.67,200.39 587.82,189.08 587.97,183.05 588.12,182.21 588.27,186.08 588.43,193.90 588.58,204.65 588.74,217.25 588.90,230.66 589.06,244.01 589.22,256.78 589.39,268.84 589.55,280.41 589.72,291.99 589.89,304.13 590.07,317.28 590.24,331.62 590.41,346.98 590.59,362.67 590.77,377.22 590.95,387.73 591.13,389.96 591.31,382.48 591.49,368.60 591.68,351.56 591.87,332.91 592.05,313.19 592.24,292.55 592.43,271.14 592.63,249.28 592.82,227.50 593.01,206.63 593.21,187.67 593.31,179.26 593.51,165.29 593.70,156.02 593.90,152.38 594.10,155.02 594.31,164.20 594.51,179.68 594.71,200.60 594.92,225.24 595.12,250.80 595.33,272.94 595.53,286.02 595.74,285.48 595.95,271.64 596.16,249.48 596.37,224.69 596.58,201.62 596.79,183.07 597.00,170.72 597.21,165.27 597.43,166.59 597.64,173.79 597.86,185.25 598.07,198.68 598.28,211.37 598.50,220.60 598.72,224.49 598.93,222.70 599.15,216.58 599.36,208.54 599.58,201.11 599.80,196.33 600.01,195.51 600.23,199.18 600.34,202.67 600.56,212.50 600.77,225.12 600.99,238.92 601.21,252.02 601.43,262.65 601.64,269.62 601.86,272.81 602.08,273.21 602.29,272.53 602.51,272.55 602.73,274.70 602.94,279.75 603.16,287.77 603.37,297.99 603.59,308.70 603.80,317.26 604.02,320.52 604.23,316.30 604.44,304.86 604.65,288.53 604.87,270.18 605.08,252.21 605.29,236.31 605.50,223.54 605.71,214.43 605.92,209.10 606.12,207.41 606.33,209.02 606.54,213.61 606.74,220.91 606.95,230.79 607.15,243.23 607.25,250.43 607.45,266.72 607.65,285.27 607.85,305.17 608.05,324.35 608.25,338.72 608.45,342.40 608.64,332.01 608.84,310.53 609.03,283.48 609.22,255.22 609.41,228.70 609.60,205.99 609.79,188.59 609.98,177.53 610.16,173.44 610.35,176.54 610.53,186.68 610.71,203.34 610.89,225.66 611.07,252.50 611.24,282.37 611.42,313.44 611.59,343.14 611.76,367.20 611.93,378.42 612.10,372.78 612.27,357.64 612.43,341.09 612.60,326.88 612.76,316.51 612.92,310.46 613.08,308.61 613.23,310.41 613.31,312.40 613.46,317.78 613.61,323.66 613.76,328.15 613.91,329.33 614.06,325.98 614.20,318.09 614.34,306.74 614.48,293.53 614.62,280.00 614.75,267.44 614.89,256.88 615.02,249.05 615.15,244.48 615.27,243.47 615.40,246.13 615.52,252.36 615.64,261.86 615.76,274.09 615.87,288.25 615.99,303.14 616.10,317.06 616.21,327.69 616.31,332.42 616.42,329.46 616.52,319.06 616.62,303.18 616.72,284.11 616.81,263.74 616.90,243.46 616.99,224.29 617.08,207.05 617.16,192.40 617.25,180.89 617.29,176.47 617.37,170.55 617.44,168.81 617.52,171.52 617.59,178.80 617.66,190.68 617.72,207.02 617.79,227.52 617.85,251.71 617.91,278.91 617.96,308.18 618.02,338.05 618.07,365.68 618.12,384.09 618.16,381.72 618.20,361.71 618.24,335.94 618.28,309.85 618.32,285.46 618.35,263.66 618.38,244.88 618.41,229.23 618.43,216.64 618.45,206.90 618.47,199.67 618.49,194.57 618.50,191.16 618.51,189.03 618.52,187.81 618.53,187.17 618.53,186.89 618.53,129.43 618.53,129.37 618.54,127.75 618.54,126.17 618.54,121.65 618.55,115.73 618.56,109.00 618.58,102.22 618.59,96.21 618.61,91.81 618.64,89.80 618.66,90.85 618.69,95.43 618.72,103.81 618.75,115.95 618.78,131.50 618.82,149.79 618.86,169.75 618.91,189.92 618.95,208.45 619.00,223.19 619.05,232.10 619.10,233.84 619.16,228.38 619.22,217.04 619.28,201.92 619.34,185.23 619.41,168.89 619.48,154.42 619.55,142.90 619.62,135.04 619.70,131.11 619.78,130.95 619.86,133.93 619.94,138.99 620.03,144.64 620.12,149.16 620.16,150.48 620.26,150.50 620.35,146.61 620.45,139.30 620.55,130.00 620.65,120.75 620.75,113.74 620.86,110.98 620.97,113.99 621.08,123.67 621.19,140.15 621.31,162.68 621.43,189.40 621.55,217.11 621.67,241.00 621.79,255.11 621.92,254.91 622.05,240.96 622.18,218.58 622.31,194.11 622.45,172.59 622.59,157.55 622.73,151.20 622.87,154.77 623.01,168.60 623.16,192.30 623.30,224.75 623.45,264.15 623.60,307.65 623.76,349.86 623.91,375.46 624.07,360.85 624.23,323.04 624.39,282.15 624.47,262.74 624.63,227.72 624.80,198.92 624.96,176.94 625.13,161.74 625.30,152.80 625.47,149.22 625.65,149.90 625.82,153.66 626.00,159.34 626.18,165.99 626.36,172.86 626.54,179.47 626.72,185.43 626.90,190.40 627.09,193.97 627.28,195.67 627.46,194.98 627.65,191.62 627.84,185.69 628.04,177.82 628.23,169.12 628.42,161.04 628.62,155.15 628.82,152.95 629.01,155.70 629.21,164.26 629.41,179.00 629.61,199.62 629.82,225.01 630.02,252.82 630.22,278.83 630.43,296.34 630.63,297.97 630.74,291.94 630.94,269.14 631.15,238.45 631.36,206.34 631.57,177.16 631.78,153.67 631.99,137.51 632.20,129.46 632.41,129.54 632.62,137.08 632.84,150.85 633.05,169.22 633.26,190.33 633.48,212.44 633.69,234.24 633.91,255.16 634.12,275.47 634.34,296.06 634.56,317.97 634.77,341.65 634.99,365.72 635.21,383.55 635.42,380.29 635.64,355.48 635.86,322.54 636.08,288.57 636.29,256.97 636.51,229.81 636.73,208.45 636.94,193.63 637.16,185.45 637.38,183.37 637.59,186.32 637.81,192.71 637.92,196.60 638.14,204.56 638.35,211.25 638.57,215.43 638.78,216.69 639.00,215.60 639.21,213.36 639.43,211.37 639.64,210.81 639.85,212.45 640.06,216.55 640.28,222.85 640.49,230.80 640.70,239.63 640.91,248.65 641.12,257.44 641.33,266.06 641.53,275.00 641.74,285.06 641.95,297.18 642.15,312.14 642.36,330.41 642.56,352.06 642.76,376.67 642.96,402.71 643.16,418.21 643.36,396.82 643.56,367.45 643.76,338.14 643.95,310.50 644.15,285.46 644.34,263.61 644.54,245.35 644.73,230.81 644.82,224.92 645.01,215.77 645.20,209.85 645.39,206.69 645.57,205.69 645.76,206.17 645.94,207.39 646.12,208.58 646.30,209.12 646.48,208.59 646.65,206.88 646.83,204.32 647.00,201.57 647.17,199.59 647.34,199.38 647.51,201.91 647.68,207.88 647.84,217.56 648.01,230.65 648.17,246.10 648.33,261.88 648.49,274.82 648.64,281.08 648.80,277.74 648.95,264.67 649.10,244.59 649.25,221.32 649.39,198.30 649.54,178.18 649.68,162.83 649.82,153.50 649.96,150.86 650.09,155.10 650.16,159.73 650.30,173.68 650.43,193.21 650.56,217.32 650.68,244.86 650.81,274.55 650.93,305.06 651.05,334.91 651.17,362.04 651.28,382.41 651.40,388.43 651.51,377.89 651.62,359.44 651.72,339.25 651.83,319.68 651.93,301.74 652.03,285.92 652.13,272.52 652.22,261.61 652.31,253.08 652.40,246.57 652.49,241.48 652.57,237.06 652.66,232.52 652.74,227.23 652.81,220.93 652.89,213.80 652.96,206.50 653.03,199.99 653.10,195.35 653.16,193.61 653.23,195.57 653.29,201.72 653.34,212.09 653.37,218.76 653.43,234.51 653.48,252.37 653.52,270.39 653.57,285.89 653.61,295.82 653.65,297.76 653.69,291.37 653.73,278.61 653.76,262.35 653.79,245.14 653.82,228.77 653.84,214.30 653.86,202.23 653.88,192.71 653.90,185.56 653.91,180.48 653.92,177.07 653.93,174.92 653.94,173.67 653.94,173.07 653.94,172.95 653.94,329.65 653.95,328.46 653.95,325.72 653.96,321.51 653.97,316.00 653.98,309.35 654.00,301.82 654.01,293.66 654.03,285.17 654.06,276.67 654.08,268.48 654.11,260.98 654.13,257.61 654.16,251.88 654.19,247.84 654.23,245.89 654.27,246.35 654.32,249.41 654.36,255.08 654.41,263.07 654.46,272.72 654.51,282.94 654.57,292.20 654.63,298.78 654.69,301.25 654.75,299.19 654.82,293.48 654.89,285.94 654.96,278.61 655.03,273.17 655.11,270.64 655.19,271.23 655.27,274.15 655.35,277.52 655.44,278.56 655.53,274.25 655.62,262.77 655.71,244.48 655.81,221.57 655.91,197.01 656.01,173.67 656.11,153.91 656.22,139.44 656.32,131.23 656.43,129.44 656.55,133.35 656.60,136.99 656.72,146.25 656.84,155.89 656.96,163.13 657.08,165.81 657.20,163.24 657.33,156.59 657.46,148.42 657.59,141.87 657.72,139.86 657.86,144.63 658.00,157.58 658.14,179.11 658.28,208.64 658.42,244.44 658.57,283.21 658.71,318.47 658.86,337.82 659.01,329.08 659.17,299.25 659.32,262.65 659.48,227.36 659.64,197.17 659.80,173.91 659.96,158.25 660.12,150.08 660.29,148.77 660.46,153.28 660.63,162.36 660.80,174.70 660.97,189.10 661.14,204.48 661.32,219.91 661.50,234.51 661.59,241.22 661.77,252.86 661.95,261.46 662.13,266.52 662.31,268.31 662.50,268.07 662.69,267.73 662.87,269.46 663.06,275.26 663.25,286.44 663.45,303.22 663.64,324.10 663.83,344.25 664.03,352.93 664.23,339.70 664.42,309.14 664.62,272.00 664.82,235.60 665.02,204.51 665.23,181.91 665.43,169.89 665.63,169.37 665.84,180.03 666.04,200.17 666.25,226.33 666.46,253.04 666.66,272.90 666.87,279.12 667.08,270.91 667.29,254.63 667.50,238.26 667.72,227.35 667.93,224.38 668.14,228.99 668.25,233.30 668.46,242.68 668.67,247.58 668.89,242.36 669.10,226.01 669.32,202.87 669.53,179.44 669.75,161.54 669.97,153.33 670.18,157.10 670.40,173.29 670.62,200.67 670.83,236.18 671.05,274.49 671.27,306.94 671.48,321.14 671.70,310.92 671.92,285.91 672.14,258.44 672.35,235.44 672.57,219.93 672.79,212.68 673.00,213.21 673.22,220.26 673.44,232.15 673.65,247.20 673.87,263.92 674.08,281.03 674.30,297.21 674.51,310.55 674.73,317.91 674.94,315.61 675.16,301.96 675.37,278.86 675.47,265.00 675.69,235.34 675.90,206.25 676.11,181.11 676.32,162.76 676.53,153.37 676.74,154.53 676.94,167.06 677.15,190.92 677.36,225.17 677.56,267.85 677.77,315.22 677.97,358.41 678.17,370.55 678.37,337.40 678.57,290.78 678.77,246.04 678.97,208.32 679.17,180.06 679.36,162.36 679.56,155.16 679.75,157.35 679.95,166.78 680.14,180.25 680.33,193.72 680.52,203.10 680.70,205.49 680.89,200.45 681.07,190.24 681.26,178.59 681.44,169.25 681.62,165.14 681.80,168.20 681.98,179.39 682.06,188.09 682.24,211.37 682.41,241.59 682.58,277.10 682.75,315.42 682.92,351.98 683.09,375.32 683.25,367.49 683.42,337.52 683.58,302.59 683.74,269.22 683.90,239.95 684.05,216.19 684.21,198.85 684.36,188.58 684.51,185.78 684.66,190.62 684.80,202.94 684.95,222.10 685.09,246.75 685.23,274.36 685.37,300.43 685.50,317.50 685.64,317.35 685.77,299.41 685.90,271.48 686.03,241.54 686.15,214.86 686.28,194.77 686.40,183.26 686.52,181.32 686.63,188.88 686.75,204.72 686.86,226.27 686.92,237.90 687.03,259.09 687.13,271.25 687.24,268.31 687.34,250.38 687.44,223.54 687.53,194.82 687.63,169.65 687.72,151.66 687.81,143.11 687.90,145.05 687.98,157.51 688.07,179.44 688.15,208.69 688.22,241.69 688.30,272.80 688.37,293.73 688.44,296.33 688.51,280.38 688.57,254.10 688.64,225.95 688.70,201.42 688.75,183.59 688.81,174.07 688.86,173.37 688.91,181.22 688.96,196.68 689.00,218.24 689.04,243.87 689.08,271.04 689.12,296.53 689.15,316.39 689.18,326.66 689.20,327.52 689.23,321.72 689.25,309.39 689.27,294.66 689.29,280.23 689.31,267.48 689.32,257.00 689.33,248.88 689.34,242.99 689.35,239.11 689.35,237.03 689.35,241.17 689.35,241.20 689.35,241.86 689.36,243.46 689.37,246.13 689.38,250.06 689.39,255.37 689.40,262.06 689.42,269.88 689.44,278.15 689.47,285.61 689.49,290.41 689.52,290.44 689.55,284.14 689.59,271.36 689.62,253.42 689.66,232.48 689.70,210.83 689.75,190.49 689.79,173.06 689.84,159.63 689.90,150.76 689.95,146.41 689.98,145.76 690.04,146.84 690.10,149.91 690.16,153.31 690.23,155.50 690.30,155.43 690.37,152.92 690.44,148.72 690.52,144.29 690.60,141.39 690.68,141.64 690.76,146.27 690.85,155.91 690.94,170.52 691.03,189.37 691.12,211.09 691.22,233.74 691.32,255.01 691.42,272.58 691.52,284.80 691.63,291.51 691.73,294.17 691.84,295.22 691.96,296.89 692.07,300.66 692.19,306.98 692.31,315.38 692.43,324.60 692.55,332.94 692.68,338.75 692.80,341.27 692.93,341.06 693.07,339.66 693.20,338.57 693.27,338.45 693.41,339.01 693.55,339.70 693.69,338.37 693.83,332.57 693.98,321.01 694.12,304.44 694.27,285.04 694.42,265.41 694.58,247.98 694.73,234.74 694.89,227.18 695.05,226.22 695.21,232.18 695.37,244.73 695.53,262.84 695.70,284.77 695.87,307.95 696.04,328.79 696.21,342.81 696.38,346.72 696.55,341.54 696.73,331.83 696.91,321.51 697.09,312.21 697.27,303.46 697.45,293.31 697.63,279.42 697.82,260.44 698.00,236.86 698.19,210.76 698.38,185.21 698.57,163.53 698.76,148.84 698.86,144.94 699.05,145.35 699.24,157.86 699.44,182.94 699.64,219.91 699.83,266.60 700.03,318.04 700.23,359.61 700.43,354.32 700.63,307.51 700.84,253.79 701.04,205.84 701.25,168.96 701.45,146.13 701.66,138.67 701.87,146.29 702.07,166.94 702.28,196.52 702.49,228.26 702.70,252.36 702.91,258.55 703.13,244.17 703.34,217.03 703.55,187.44 703.76,162.80 703.98,147.33 704.19,142.86 704.41,149.62 704.62,166.56 704.84,191.56 705.05,221.73 705.27,253.42 705.48,282.08 705.70,302.42 705.81,307.97 706.03,308.85 706.24,298.69 706.46,282.76 706.68,265.46 706.89,249.24 707.11,235.23 707.33,223.82 707.55,214.95 707.76,208.37 707.98,203.78 708.20,200.74 708.41,198.75 708.63,197.31 708.85,195.81 709.06,193.78 709.28,191.02 709.49,187.64 709.71,184.21 709.92,181.60 710.14,180.89 710.35,183.12 710.56,189.10 710.78,199.23 710.99,213.43 711.20,231.00 711.41,250.65 711.62,270.65 711.83,288.89 712.04,303.53 712.25,313.74 712.46,320.23 712.66,325.06 712.87,330.48 712.97,333.87 713.17,341.99 713.38,350.01 713.58,353.18 713.78,345.97 713.98,327.35 714.18,301.34 714.38,272.90 714.58,246.02 714.77,223.73 714.97,208.27 715.16,200.93 715.36,202.01 715.55,210.61 715.74,224.30 715.93,238.80 716.11,248.22 716.30,246.78 716.48,232.34 716.67,207.91 716.85,179.13 717.03,151.46 717.21,129.12 717.38,114.98 717.56,110.63 717.73,116.58 717.91,132.26 718.08,156.05 718.25,185.38 718.41,216.75 718.58,245.75 718.74,267.62 718.91,278.84 719.07,279.61 719.15,277.27 719.30,270.49 719.46,264.73 719.61,262.97 719.77,266.31 719.92,274.29 720.07,285.01 720.21,295.16 720.36,300.60 720.50,297.86 720.64,286.23 720.78,267.96 720.91,246.40 721.05,224.46 721.18,204.13 721.31,186.63 721.44,172.54 721.56,161.99 721.69,154.82 721.81,150.68 721.93,149.17 722.04,149.91 722.16,152.58 722.27,156.97 722.38,163.00 722.49,170.72 722.59,180.33 722.70,192.15 722.80,206.61 722.90,224.19 722.99,245.34 723.09,270.36 723.18,299.22 723.27,331.11 723.31,347.44 723.39,376.05 723.48,381.18 723.56,353.06 723.63,311.69 723.71,267.49 723.78,224.53 723.85,185.37 723.92,152.05 723.98,126.27 724.05,109.35 724.11,102.18 724.16,105.20 724.22,118.34 724.27,141.04 724.32,172.20 724.37,210.24 724.41,252.94 724.45,297.04 724.49,336.49 724.53,357.72 724.56,346.14 724.59,313.23 724.62,274.90 724.65,237.63 724.67,203.86 724.69,174.56 724.71,150.01 724.73,130.12 724.74,114.57 724.75,102.95 724.76,94.84 724.76,89.87 724.76,87.79 724.76,87.70 724.76,238.90 724.76,240.42 724.77,243.90 724.78,249.15 724.79,255.87 724.80,263.58 724.81,271.58 724.83,278.94 724.85,284.46 724.88,286.89 724.90,285.16 724.93,278.84 724.96,268.35 725.00,254.80 725.03,239.70 725.07,224.70 725.11,211.36 725.16,201.12 725.20,195.23 725.25,194.71 725.31,200.32 725.36,212.53 725.42,231.44 725.48,256.79 725.54,287.85 725.61,323.28 725.67,360.26 725.74,389.55 725.82,383.97 725.89,349.97 725.97,311.28 726.05,274.79 726.13,243.27 726.17,229.95 726.26,209.01 726.35,196.46 726.44,192.84 726.53,198.20 726.63,212.13 726.73,233.66 726.83,261.17 726.93,292.15 727.04,322.36 727.14,344.14 727.25,347.08 727.37,329.87 727.48,302.61 727.60,273.77 727.72,247.77 727.84,226.85 727.96,212.13 728.09,203.95 728.21,202.07 728.34,205.72 728.48,213.70 728.61,224.45 728.75,236.21 728.88,247.34 729.03,256.59 729.17,263.55 729.31,268.71 729.46,273.35 729.61,279.07 729.76,287.32 729.91,299.13 730.06,314.82 730.14,323.98 730.30,343.90 730.46,362.85 730.62,373.36 730.78,366.98 730.94,346.41 731.11,320.30 731.28,294.19 731.45,271.25 731.62,253.42 731.79,241.94 731.96,237.31 732.14,239.31 732.32,246.88 732.50,257.90 732.68,269.13 732.86,276.48 733.04,276.33 733.23,267.56 733.41,252.32 733.60,234.57 733.79,218.30 733.98,206.68 734.17,201.86 734.36,205.00 734.56,216.33 734.75,235.10 734.95,259.52 735.14,286.55 735.34,311.39 735.54,327.10 735.74,327.60 735.94,314.07 736.15,293.66 736.25,282.99 736.45,263.37 736.66,248.06 736.86,238.22 737.07,234.09 737.28,235.26 737.48,240.96 737.69,250.24 737.90,262.13 738.11,275.73 738.32,290.28 738.53,305.13 738.75,319.61 738.96,332.75 739.17,343.06 739.39,348.47 739.60,347.13 739.82,338.75 740.03,324.95 740.25,308.08 740.46,290.26 740.68,273.20 740.89,258.26 741.11,246.50 741.33,238.71 741.54,235.44 741.76,236.98 741.98,243.33 742.20,254.27 742.41,269.26 742.63,287.52 742.85,307.93 743.06,328.88 743.28,347.97 743.39,355.75 743.61,365.05 743.82,363.62 744.04,353.01 744.26,337.55 744.47,320.58 744.69,303.89 744.90,288.19 745.12,273.67 745.33,260.16 745.55,247.36 745.76,234.95 745.97,222.72 746.19,210.61 746.40,198.80 746.61,187.66 746.82,177.70 747.03,169.49 747.24,163.55 747.45,160.30 747.66,159.92 747.87,162.33 748.07,167.14 748.28,173.64 748.48,180.86 748.69,187.69 748.89,193.17 749.09,196.68 749.29,198.24 749.49,198.55 749.69,198.84 749.89,200.61 750.09,205.33 750.28,214.19 750.38,220.41 750.57,236.69 750.76,257.87 750.96,283.09 751.15,310.43 751.33,336.17 751.52,353.31 751.71,353.26 751.89,336.45 752.08,311.86 752.26,286.53 752.44,264.28 752.62,247.23 752.79,236.59 752.97,232.90 753.14,236.23 753.32,246.21 753.49,262.03 753.66,282.41 753.82,305.46 753.99,328.18 754.15,345.65 754.32,351.29 754.48,342.13 754.64,322.80 754.79,299.68 754.95,277.03 755.10,257.36 755.25,242.28 755.40,232.77 755.55,229.39 755.69,232.26 755.84,241.09 755.98,255.09 756.05,263.62 756.19,282.57 756.32,301.75 756.46,317.48 756.59,325.50 756.72,323.24 756.85,312.23 756.97,296.71 757.10,280.81 757.22,267.43 757.34,258.37 757.45,254.56 757.57,256.24 757.68,263.00 757.79,273.78 757.90,286.85 758.00,299.71 758.11,309.27 758.21,312.58 758.31,308.36 758.40,297.82 758.49,283.67 758.59,268.68 758.67,254.92 758.76,243.74 758.84,235.81 758.93,231.32 759.00,230.03 759.08,231.42 759.15,234.78 759.23,239.35 759.29,244.43 759.36,249.50 759.42,254.30 759.46,256.60 759.52,261.10 759.57,265.73 759.63,270.81 759.68,276.57 759.73,283.05 759.78,290.05 759.82,297.13 759.86,303.59 759.90,308.62 759.94,311.44 759.97,311.53 760.00,308.80 760.03,303.64 760.06,296.70 760.08,288.77 760.10,280.56 760.12,272.64 760.13,265.42 760.15,259.21 760.16,254.18 760.16,250.44 760.17,248.04 760.17,247.00 760.17,246.96 760.17,307.39 760.18,308.45 760.18,310.38 760.19,313.24 760.20,317.07 760.22,321.94 760.23,327.89 760.25,334.90 760.27,342.88 760.29,347.17 760.31,356.03 760.34,364.57 760.37,371.39 760.41,374.39 760.44,371.53 760.48,362.39 760.52,348.20 760.57,330.67 760.61,311.25 760.66,291.01 760.72,270.85 760.77,251.50 760.83,233.63 760.89,217.81 760.95,204.57 761.01,194.35 761.08,187.47 761.15,184.18 761.22,184.62 761.30,188.80 761.38,196.60 761.46,207.83 761.54,222.13 761.63,239.09 761.71,258.21 761.80,278.90 761.89,300.54 761.99,322.51 762.09,344.16 762.19,364.85 762.29,383.96 762.39,400.73 762.50,413.84 762.55,418.03 762.66,418.90 762.77,413.34 762.89,407.15 763.01,401.92 763.13,397.66 763.25,393.95 763.37,390.26 763.50,386.16 763.62,381.43 763.75,376.10 763.89,370.38 764.02,364.60 764.16,359.05 764.29,353.98 764.43,349.55 764.58,345.79 764.72,342.60 764.87,339.79 765.02,337.07 765.17,334.08 765.32,330.45 765.47,325.86 765.63,320.03 765.79,312.81 765.95,304.15 766.11,294.14 766.27,283.00 766.44,271.02 766.60,258.65 766.77,246.40 766.94,234.86 767.11,224.63 767.29,216.30 767.37,213.02 767.55,208.50 767.73,206.90 767.91,208.29 768.09,212.44 768.27,218.82 768.45,226.57 768.63,234.57 768.82,241.63 769.01,246.67 769.20,249.10 769.39,249.00 769.58,247.11 769.77,244.60 769.96,242.66 770.16,242.22 770.36,243.80 770.55,247.30 770.75,252.03 770.95,256.75 771.15,259.90 771.35,259.98 771.56,256.14 771.76,248.52 771.96,238.25 772.17,227.01 772.37,216.55 772.58,208.38 772.79,203.58 773.00,202.75 773.21,205.92 773.42,212.57 773.63,221.59 773.73,226.50 773.94,235.90 774.16,242.98 774.37,245.93 774.58,243.82 774.80,237.02 775.01,227.04 775.22,215.91 775.44,205.62 775.66,197.84 775.87,193.74 776.09,194.02 776.30,198.90 776.52,208.18 776.74,221.24 776.95,237.12 777.17,254.51 777.39,271.79 777.60,287.09 777.82,298.52 778.04,304.60 778.26,304.84 778.47,299.96 778.69,291.45 778.91,280.86 779.12,269.38 779.34,257.86 779.56,246.87 779.77,236.86 779.99,228.24 780.21,221.47 780.42,216.99 780.64,215.24 780.85,216.61 780.96,218.54 781.17,224.96 781.38,234.76 781.60,247.69 781.81,263.27 782.02,280.82 782.23,299.39 782.44,317.69 782.65,333.84 782.86,345.14 783.07,348.49 783.28,342.37 783.48,328.19 783.69,308.93 783.89,287.33 784.10,265.53 784.30,245.27 784.50,228.10 784.70,215.39 784.90,208.30 785.10,207.75 785.30,214.32 785.50,228.18 785.69,248.99 785.89,275.82 786.08,306.80 786.27,338.15 786.46,361.08 786.65,360.55 786.84,335.74 787.02,301.03 787.21,265.28 787.39,232.59 787.58,205.21 787.67,193.99 787.85,177.10 788.03,168.08 788.20,167.12 788.38,173.98 788.55,187.98 788.73,208.05 788.90,232.70 789.07,259.83 789.23,286.58 789.40,308.94 789.56,321.86 789.73,321.75 789.89,310.05 790.05,291.94 790.20,272.19 790.36,253.92 790.51,238.87 790.66,227.94 790.81,221.39 790.96,219.06 791.10,220.42 791.25,224.60 791.39,230.47 791.53,236.74 791.67,242.06 791.80,245.27 791.93,245.61 792.06,242.94 792.19,237.70 792.32,230.78 792.44,223.24 792.57,216.12 792.69,210.29 792.75,208.07 792.86,205.32 792.98,205.07 793.09,207.40 793.20,212.22 793.31,219.26 793.41,228.12 793.52,238.29 793.62,249.15 793.72,260.05 793.81,270.30 793.90,279.27 794.00,286.45 794.08,291.50 794.17,294.29 794.25,294.97 794.34,293.80 794.41,291.14 794.49,287.33 794.56,282.61 794.64,277.15 794.70,271.02 794.77,264.26 794.83,256.88 794.90,248.93 794.95,240.46 795.01,231.62 795.06,222.57 795.11,213.52 795.16,204.68 795.21,196.28 795.25,188.51 795.29,181.53 795.33,175.48 795.35,172.82 795.38,168.25 795.41,164.70 795.44,162.09 795.47,160.35 795.49,159.35 795.51,158.96 795.53,159.02 795.54,159.39 795.56,159.93 795.57,160.50 795.57,161.00 795.58,161.36 795.58,161.53 795.58,254.68 795.58,254.88 795.59,255.74 795.59,257.33 795.60,259.69 795.61,262.90 795.63,267.04 795.64,272.23 795.66,278.56 795.68,286.15 795.71,295.09 795.73,305.44 795.76,317.23 795.80,330.42 795.83,344.93 795.87,360.57 795.91,377.05 795.95,393.82 796.00,409.48 796.05,418.11 796.07,415.90 796.12,403.27 796.18,388.24 796.24,373.82 796.30,360.98 796.36,350.30 796.42,342.17 796.49,336.91 796.56,334.68 796.63,335.54 796.71,339.39 796.79,345.92 796.87,354.53 796.95,364.16 797.03,373.00 797.12,378.15 797.21,376.56 797.30,367.51 797.40,353.07 797.50,335.76 797.60,317.43 797.70,299.27 797.80,282.11 797.91,266.51 798.02,252.82 798.13,241.22 798.24,231.75 798.36,224.28 798.47,218.54 798.60,214.17 798.72,210.75 798.84,207.85 798.97,205.06 799.10,202.11 799.16,200.52 799.30,197.12 799.43,193.52 799.57,189.99 799.70,186.85 799.84,184.48 799.99,183.20 800.13,183.27 800.28,184.79 800.43,187.74 800.58,191.90 800.73,196.88 800.88,202.17 801.04,207.12 801.20,211.08 801.36,213.49 801.52,213.97 801.68,212.43 801.85,209.12 802.01,204.56 802.18,199.48 802.35,194.70 802.52,191.04 802.70,189.26 802.87,190.02 803.05,193.86 803.22,201.19 803.40,212.27 803.59,227.21 803.77,245.98 803.95,268.33 804.14,293.85 804.32,321.76 804.51,350.65 804.61,364.57 804.80,386.71 804.99,388.25 805.18,367.43 805.37,339.02 805.57,310.03 805.77,283.17 805.96,259.98 806.16,241.54 806.36,228.68 806.56,222.03 806.76,221.94 806.96,228.54 807.17,241.67 807.37,260.90 807.58,285.45 807.78,314.13 807.99,345.05 808.20,374.23 808.41,390.13 808.62,377.88 808.83,350.24 809.04,320.31 809.25,292.51 809.46,268.67 809.67,249.71 809.89,235.96 810.10,227.25 810.31,222.94 810.53,221.96 810.74,222.93 810.96,224.39 811.17,225.12 811.39,224.47 811.50,223.66 811.71,221.57 811.93,219.97 812.15,220.47 812.36,224.60 812.58,233.54 812.80,247.87 813.01,267.33 813.23,290.49 813.45,313.98 813.67,331.34 813.88,333.63 814.10,317.59 814.32,289.76 814.53,258.07 814.75,227.82 814.97,202.32 815.18,183.69 815.40,173.22 815.61,171.53 815.83,178.58 816.04,193.76 816.26,215.88 816.47,243.14 816.69,272.90 816.90,301.24 817.11,322.13 817.32,328.33 817.54,317.54 817.75,295.48 817.96,269.30 818.16,243.66 818.37,221.27 818.48,211.81 818.68,197.03 818.89,188.33 819.10,186.08 819.30,190.34 819.51,200.94 819.71,217.45 819.91,239.21 820.11,265.31 820.31,294.48 820.51,324.93 820.71,353.56 820.90,373.84 821.10,375.43 821.29,358.77 821.49,335.15 821.68,311.39 821.87,290.40 822.06,273.53 822.25,261.42 822.43,254.25 822.62,251.79 822.80,253.44 822.99,258.25 823.17,264.92 823.35,271.88 823.52,277.47 823.70,280.30 823.88,279.63 824.05,275.69 824.22,269.51 824.39,262.60 824.56,256.46 824.73,252.39 824.81,251.44 824.97,252.12 825.14,256.49 825.30,264.52 825.45,275.74 825.61,289.20 825.77,303.39 825.92,316.07 826.07,324.47 826.22,326.06 826.37,320.10 826.51,308.19 826.66,293.05 826.80,277.29 826.94,262.89 827.07,251.26 827.21,243.36 827.34,239.79 827.47,240.82 827.60,246.46 827.73,256.43 827.85,270.17 827.98,286.76 828.10,304.88 828.21,322.53 828.33,336.80 828.44,344.04 828.55,341.69 828.66,330.60 828.77,314.09 828.87,295.45 828.98,276.97 829.08,260.10 829.17,245.76 829.22,239.71 829.31,230.08 829.41,223.81 829.49,220.84 829.58,220.90 829.66,223.56 829.74,228.22 829.82,234.14 829.90,240.49 829.97,246.40 830.05,251.02 830.11,253.72 830.18,254.12 830.24,252.21 830.31,248.34 830.36,243.10 830.42,237.19 830.47,231.32 830.52,226.12 830.57,222.08 830.62,219.58 830.66,218.83 830.70,219.94 830.74,222.88 830.77,227.54 830.81,233.70 830.84,241.07 830.86,249.33 830.89,258.11 830.91,267.01 830.93,275.66 830.95,283.70 830.96,290.85 830.97,296.86 830.98,299.39 830.98,303.41 830.99,305.99 830.99,307.10 830.99,307.14 830.99,322.17 830.99,321.23 831.00,319.48 831.01,316.83 831.02,313.23 831.03,308.69 831.05,303.32 831.07,297.34 831.09,291.04 831.12,284.80 831.14,279.02 831.17,274.09 831.21,270.38 831.24,268.21 831.28,267.82 831.32,269.37 831.36,272.90 831.41,278.34 831.46,285.47 831.51,293.93 831.56,303.16 831.62,312.40 831.68,320.67 831.74,326.85 831.80,329.92 831.87,329.28 831.94,325.07 832.01,318.07 832.08,309.45 832.12,304.90 832.20,295.97 832.28,288.04 832.36,281.82 832.44,277.84 832.53,276.45 832.62,277.83 832.71,281.99 832.81,288.74 832.91,297.69 833.01,308.16 833.11,319.14 833.21,329.19 833.32,336.47 833.43,339.08 833.54,335.93 833.65,327.41 833.77,315.04 833.88,300.60 834.00,285.63 834.13,271.26 834.25,258.29 834.38,247.20 834.51,238.25 834.64,231.48 834.77,226.73 834.91,223.67 835.04,221.84 835.18,220.73 835.32,219.80 835.47,218.61 835.61,216.89 835.76,214.56 835.91,211.79 835.99,210.33 836.14,207.56 836.29,205.37 836.45,204.24 836.61,204.55 836.77,206.55 836.93,210.33 837.09,215.79 837.26,222.68 837.42,230.59 837.59,239.06 837.76,247.65 837.93,256.01 838.11,264.00 838.28,271.71 838.46,279.51 838.63,287.92 838.81,297.51 839.00,308.74 839.18,321.74 839.36,336.06 839.55,350.23 839.73,360.97 839.92,363.17 840.11,353.53 840.30,334.23 840.49,309.68 840.69,283.34 840.88,257.62 841.08,234.27 841.27,214.66 841.47,199.84 841.67,190.50 841.87,187.01 841.97,187.47 842.17,192.55 842.37,202.53 842.58,216.18 842.78,231.77 842.99,247.05 843.19,259.56 843.40,267.14 843.61,268.84 843.82,265.44 844.03,259.06 844.24,252.23 844.45,247.12 844.66,245.13 844.87,246.83 845.08,251.93 845.29,259.29 845.51,267.04 845.72,272.76 845.94,274.13 846.15,269.83 846.37,260.19 846.58,246.88 846.80,232.15 847.01,218.10 847.23,206.40 847.45,198.22 847.66,194.29 847.88,194.98 848.10,200.35 848.32,210.23 848.53,224.21 848.75,241.64 848.97,261.57 849.08,272.05 849.29,292.80 849.51,310.96 849.73,322.84 849.94,324.90 850.16,316.43 850.38,300.28 850.59,280.49 850.81,260.38 851.02,242.26 851.24,227.67 851.45,217.58 851.67,212.47 851.88,212.43 852.10,217.08 852.31,225.65 852.52,236.95 852.73,249.36 852.94,260.95 853.16,269.73 853.37,274.16 853.57,273.74 853.78,269.25 853.99,262.39 854.20,255.19 854.40,249.44 854.61,246.53 854.81,247.33 855.02,252.27 855.22,261.29 855.42,273.94 855.62,289.22 855.82,305.60 856.02,320.74 856.12,326.89 856.31,334.23 856.51,333.06 856.70,323.65 856.90,308.77 857.09,291.55 857.28,274.41 857.47,259.00 857.66,246.38 857.84,237.22 858.03,231.90 858.21,230.55 858.40,233.16 858.58,239.54 858.76,249.41 858.93,262.41 859.11,278.09 859.29,295.92 859.46,315.29 859.63,335.42 859.80,355.21 859.97,372.77 860.14,384.67 860.30,386.51 860.46,378.17 860.63,364.52 860.79,349.58 860.94,335.52 861.10,323.49 861.25,314.21 861.41,308.13 861.56,305.53 861.70,306.51 861.85,311.01 861.92,314.53 862.07,323.86 862.21,335.80 862.35,349.58 862.48,364.00 862.62,377.10 862.75,385.71 862.88,386.41 863.01,379.19 863.14,367.67 863.26,355.17 863.39,343.70 863.51,334.43 863.62,328.07 863.74,325.04 863.85,325.50 863.96,329.42 864.07,336.53 864.18,346.28 864.28,357.70 864.39,369.14 864.49,377.76 864.58,379.69 864.68,372.88 864.77,359.27 864.86,342.08 864.95,323.68 865.03,305.50 865.11,288.45 865.19,273.12 865.27,259.89 865.35,248.95 865.42,240.35 865.45,236.89 865.52,231.58 865.59,228.16 865.65,226.29 865.71,225.59 865.77,225.65 865.83,226.08 865.88,226.56 865.93,226.84 865.98,226.79 866.03,226.37 866.07,225.63 866.11,224.69 866.15,223.68 866.18,222.73 866.22,221.95 866.25,221.40 866.27,221.11 866.30,221.06 866.32,221.21 866.34,221.49 866.36,221.84 866.37,222.20 866.38,222.53 866.39,222.80 866.40,222.99 866.40,223.09 866.40,223.12 866.40,250.13 866.40,250.27 866.40,250.60 866.41,251.16 866.41,251.97 866.42,253.07 866.43,253.76 866.44,255.43 866.45,257.56 866.46,260.23 866.48,263.52 866.49,267.51 866.51,272.28 866.53,277.90 866.55,284.42 866.58,291.89 866.60,300.32 866.63,309.70 866.66,319.98 866.68,331.04 866.72,342.70 866.75,354.67 866.78,366.43 866.82,377.15 866.86,385.39 866.89,389.20 866.93,387.23 866.98,380.17 867.02,370.00 867.07,358.45 867.11,346.66 867.16,335.40 867.21,325.21 867.26,316.48 867.31,309.54 867.37,304.60 867.42,301.83 867.48,301.31 867.54,302.99 867.60,306.74 867.63,309.29 867.69,315.49 867.75,322.59 867.82,329.66 867.89,335.48 867.95,338.60 868.02,337.74 868.09,332.33 868.17,322.76 868.24,310.11 868.31,295.65 868.39,280.55 868.47,265.82 868.55,252.26 868.63,240.53 868.71,231.14 868.79,224.47 868.87,220.79 868.96,220.22 869.04,222.79 869.13,228.37 869.22,236.71 869.31,247.39 869.40,259.85 869.49,273.32 869.59,286.81 869.68,299.12 869.78,308.83 869.87,314.61 869.97,315.58 870.07,311.80 870.17,304.18 870.27,294.10 870.37,282.93 870.43,277.29 870.53,266.47 870.63,256.80 870.74,248.75 870.85,242.55 870.95,238.32 871.06,235.99 871.17,235.43 871.28,236.36 871.39,238.49 871.51,241.44 871.62,244.82 871.73,248.26 871.85,251.46 871.96,254.15 872.08,256.22 872.20,257.65 872.31,258.55 872.43,259.11 872.55,259.60 872.67,260.28 872.79,261.46 872.91,263.36 873.04,266.21 873.16,270.14 873.28,275.22 873.41,281.44 873.53,288.75 873.66,296.97 873.78,305.87 873.91,315.10 874.03,324.24 874.16,332.75 874.29,340.06 874.35,343.07 874.48,347.54 874.61,349.74 874.74,349.76 874.87,348.11 875.00,345.51 875.13,342.74 875.26,340.53 875.39,339.48 875.52,340.05 875.65,342.53 875.78,347.12 875.91,353.84 876.04,362.54 876.17,372.81 876.31,383.80 876.44,393.58 876.57,398.36 876.70,394.17 876.84,382.17 876.97,366.14 877.10,348.55 877.23,330.78 877.37,313.68 877.50,297.93 877.63,284.01 877.76,272.36 877.90,263.29 878.03,257.03 878.16,253.71 878.29,253.38 878.42,255.97 878.55,261.31 878.69,269.12 878.75,273.85 878.88,284.63 879.01,296.71 879.14,309.38 879.27,321.73 879.40,332.69 879.53,341.04 879.66,345.67 879.79,346.02 879.92,342.42 880.05,335.91 880.18,327.77 880.30,319.11 880.43,310.77 880.56,303.33 880.68,297.17 880.81,292.50 880.93,289.41 881.06,287.92 881.18,287.95 881.30,289.37 881.42,292.00 881.55,295.62 881.67,300.00 881.79,304.89 881.91,310.05 882.03,315.23 882.14,320.22 882.26,324.85 882.38,328.98 882.49,332.53 882.61,335.50 882.72,337.90 882.84,339.82 882.89,340.63 883.01,342.01 883.12,343.16 883.23,344.17 883.34,345.11 883.45,346.02 883.55,346.91 883.66,347.75 883.77,348.49 883.87,349.08 883.97,349.42 884.08,349.42 884.18,349.01 884.28,348.10 884.38,346.64 884.48,344.60 884.57,341.98 884.67,338.80 884.77,335.11 884.86,330.96 884.95,326.44 885.04,321.62 885.14,316.58 885.22,311.39 885.31,306.13 885.40,300.87 885.49,295.67 885.57,290.58 885.65,285.67 885.73,280.97 885.82,276.54 885.89,272.40 885.97,268.59 886.05,265.14 886.09,263.56 886.16,260.68 886.23,258.21 886.31,256.15 886.38,254.52 886.45,253.31 886.51,252.51 886.58,252.13 886.65,252.15 886.71,252.55 886.77,253.33 886.83,254.45 886.89,255.89 886.95,257.63 887.01,259.64 887.06,261.89 887.11,264.34 887.17,266.97 887.22,269.74 887.26,272.61 887.31,275.56 887.36,278.55 887.40,281.55 887.44,284.53 887.49,287.46 887.53,290.32 887.56,293.08 887.60,295.72 887.63,298.22 887.67,300.58 887.70,302.77 887.73,304.79 887.76,306.63 887.79,308.30 887.80,309.07 887.82,310.48 887.85,311.72 887.87,312.81 887.89,313.74 887.91,314.54 887.92,315.21 887.94,315.77 887.95,316.23 887.96,316.61 887.97,316.91 887.98,317.14 887.99,317.31 887.99,317.44 888.00,317.52 888.00,317.57 888.00,317.58" fill="none" stroke="#000" stroke-width="1.5" opacity="0.9"/>
<text x="500.0" y="502" font-family="Times New Roman" font-size="19" text-anchor="middle">Julian Date</text>
<text transform="translate(18,247.0) rotate(-90)" font-family="Times New Roman" font-size="19" text-anchor="middle">position residual (km)</text>
</svg>
