<svg xmlns="http://www.w3.org/2000/svg" width="920" height="520" viewBox="0 0 920 520">
<rect width="100%" height="100%" fill="white"/>
<text x="460.0" y="24" font-family="Times New Roman" font-size="24" text-anchor="middle">Pluto native velocity residual</text>
<line x1="112" y1="434" x2="888" y2="434" stroke="#333"/>
<line x1="112" y1="60" x2="112" y2="434" stroke="#333"/>
<line x1="112" y1="434.00" x2="888" y2="434.00" stroke="#ddd"/>
<text x="104" y="438.00" font-family="Times New Roman" font-size="17" text-anchor="end">0</text>
<line x1="112" y1="340.50" x2="888" y2="340.50" stroke="#ddd"/>
<text x="104" y="344.50" font-family="Times New Roman" font-size="17" text-anchor="end">0.6285</text>
<line x1="112" y1="247.00" x2="888" y2="247.00" stroke="#ddd"/>
<text x="104" y="251.00" font-family="Times New Roman" font-size="17" text-anchor="end">1.257</text>
<line x1="112" y1="153.50" x2="888" y2="153.50" stroke="#ddd"/>
<text x="104" y="157.50" font-family="Times New Roman" font-size="17" text-anchor="end">1.886</text>
<line x1="112" y1="60.00" x2="888" y2="60.00" stroke="#ddd"/>
<text x="104" y="64.00" font-family="Times New Roman" font-size="17" text-anchor="end">2.514</text>
<line x1="112.00" y1="434" x2="112.00" y2="439" stroke="#333"/>
<text x="112.00" y="456" font-family="Times New Roman" font-size="17" text-anchor="middle">2378495</text>
<line x1="306.00" y1="434" x2="306.00" y2="439" stroke="#333"/>
<text x="306.00" y="456" font-family="Times New Roman" font-size="17" text-anchor="middle">2433282</text>
<line x1="500.00" y1="434" x2="500.00" y2="439" stroke="#333"/>
<text x="500.00" y="456" font-family="Times New Roman" font-size="17" text-anchor="middle">2488070</text>
<line x1="694.00" y1="434" x2="694.00" y2="439" stroke="#333"/>
<text x="694.00" y="456" font-family="Times New Roman" font-size="17" text-anchor="middle">2542858</text>
<line x1="888.00" y1="434" x2="888.00" y2="439" stroke="#333"/>
<text x="888.00" y="456" font-family="Times New Roman" font-size="17" text-anchor="middle">2597645</text>
<polyline points="112.00,384.95 112.00,384.95 112.00,384.96 112.00,384.97 112.01,384.99 112.01,385.01 112.01,385.04 112.02,385.08 112.02,385.12 112.03,385.17 112.04,385.23 112.05,385.30 112.06,385.38 112.07,385.46 112.08,385.56 112.09,385.67 112.10,385.79 112.11,385.86 112.12,386.00 112.13,386.16 112.15,386.33 112.17,386.52 112.18,386.73 112.20,386.96 112.22,387.20 112.24,387.47 112.26,387.75 112.28,388.06 112.30,388.39 112.32,388.74 112.34,389.12 112.37,389.52 112.39,389.94 112.42,390.39 112.44,390.86 112.47,391.35 112.50,391.86 112.53,392.39 112.55,392.95 112.58,393.52 112.61,394.11 112.65,394.71 112.68,395.33 112.71,395.96 112.74,396.60 112.78,397.24 112.81,397.88 112.85,398.53 112.88,399.17 112.92,399.80 112.96,400.43 112.98,400.74 113.01,401.34 113.05,401.92 113.09,402.48 113.13,403.02 113.17,403.54 113.22,404.03 113.26,404.50 113.30,404.94 113.34,405.36 113.39,405.76 113.43,406.14 113.48,406.50 113.52,406.86 113.57,407.20 113.62,407.55 113.66,407.89 113.71,408.24 113.76,408.60 113.81,408.96 113.86,409.34 113.91,409.74 113.96,410.15 114.01,410.57 114.06,411.00 114.12,411.42 114.17,411.83 114.22,412.22 114.28,412.57 114.33,412.87 114.39,413.09 114.44,413.22 114.50,413.24 114.55,413.14 114.58,413.05 114.64,412.75 114.70,412.31 114.75,411.74 114.81,411.05 114.87,410.24 114.93,409.34 114.99,408.38 115.05,407.37 115.11,406.34 115.17,405.32 115.23,404.33 115.29,403.39 115.35,402.54 115.41,401.79 115.47,401.17 115.53,400.69 115.60,400.38 115.66,400.25 115.72,400.31 115.78,400.59 115.85,401.08 115.91,401.80 115.98,402.74 116.04,403.91 116.10,405.31 116.17,406.93 116.23,408.76 116.30,410.78 116.36,412.96 116.43,415.27 116.49,417.65 116.56,420.01 116.62,422.21 116.66,423.18 116.72,424.62 116.79,425.07 116.85,424.34 116.92,422.63 116.99,420.34 117.05,417.75 117.12,415.06 117.18,412.37 117.25,409.78 117.32,407.34 117.38,405.09 117.45,403.09 117.52,401.37 117.58,399.95 117.65,398.86 117.71,398.12 117.78,397.75 117.85,397.74 117.91,398.11 117.98,398.86 118.04,399.95 118.11,401.38 118.18,403.10 118.24,405.08 118.31,407.24 118.37,409.50 118.44,411.74 118.50,413.81 118.57,415.50 118.63,416.57 118.70,416.83 118.76,416.22 118.82,414.81 118.86,413.88 118.92,411.71 118.98,409.31 119.05,406.84 119.11,404.44 119.17,402.24 119.23,400.30 119.30,398.70 119.36,397.49 119.42,396.72 119.48,396.40 119.54,396.56 119.60,397.20 119.66,398.31 119.72,399.85 119.78,401.77 119.84,404.00 119.90,406.42 119.96,408.86 120.02,411.07 120.08,412.75 120.13,413.50 120.19,413.07 120.25,411.41 120.30,408.72 120.36,405.32 120.41,401.50 120.47,397.53 120.52,393.58 120.58,389.80 120.63,386.33 120.68,383.26 120.74,380.68 120.79,378.67 120.81,377.90 120.86,376.85 120.91,376.50 120.96,376.88 121.01,378.01 121.06,379.89 121.11,382.51 121.16,385.86 121.21,389.89 121.25,394.54 121.30,399.74 121.34,405.34 121.39,411.14 121.43,416.70 121.48,420.93 121.52,421.69 121.56,418.14 121.61,412.22 121.65,405.39 121.69,398.29 121.73,391.22 121.77,384.36 121.81,377.85 121.84,371.79 121.88,366.28 121.92,361.38 121.95,357.18 121.99,353.72 122.02,351.03 122.06,349.16 122.09,348.11 122.12,347.89 122.15,348.48 122.19,349.87 122.20,350.85 122.23,353.36 122.26,356.54 122.29,360.34 122.32,364.66 122.34,369.41 122.37,374.48 122.40,379.73 122.42,384.98 122.44,390.01 122.47,394.55 122.49,398.25 122.51,400.71 122.53,401.61 122.55,400.84 122.57,398.56 122.59,395.14 122.61,390.96 122.63,386.33 122.64,381.48 122.66,376.59 122.67,371.76 122.69,367.07 122.70,362.57 122.71,358.29 122.72,354.26 122.73,350.49 122.74,346.98 122.75,343.75 122.76,340.79 122.77,338.11 122.78,335.70 122.78,333.58 122.79,331.75 122.79,330.93 122.79,329.53 122.80,328.42 122.80,327.60 122.80,327.07 122.80,326.85 122.80,296.69 122.80,297.21 122.80,299.42 122.81,302.95 122.82,307.06 122.83,310.75 122.84,312.92 122.86,312.63 122.88,309.43 122.90,303.52 122.93,295.70 122.95,287.05 122.98,278.70 123.02,271.68 123.05,266.80 123.09,264.67 123.13,265.65 123.17,269.92 123.22,277.41 123.27,287.87 123.32,300.83 123.37,315.59 123.43,331.22 123.49,346.43 123.55,359.49 123.61,368.30 123.68,371.19 123.75,368.30 123.78,365.32 123.85,357.89 123.93,350.25 124.01,343.86 124.09,339.56 124.17,337.76 124.25,338.59 124.34,341.95 124.43,347.55 124.52,354.90 124.62,363.38 124.71,372.17 124.81,380.24 124.92,386.41 125.02,389.66 125.13,389.75 125.24,387.46 125.35,384.11 125.46,380.92 125.58,378.71 125.69,377.97 125.81,378.95 125.94,381.68 126.06,386.07 126.19,391.90 126.32,398.85 126.45,406.49 126.58,414.16 126.72,420.57 126.85,422.79 126.99,419.39 127.13,413.85 127.28,408.41 127.35,406.00 127.50,402.06 127.64,399.44 127.79,398.19 127.95,398.26 128.10,399.46 128.26,401.47 128.42,403.84 128.57,405.91 128.74,406.93 128.90,406.32 129.06,404.01 129.23,400.46 129.40,396.31 129.57,392.16 129.74,388.49 129.91,385.64 130.09,383.86 130.27,383.28 130.44,383.95 130.62,385.82 130.80,388.73 130.99,392.39 131.17,396.35 131.36,399.98 131.54,402.46 131.73,403.04 131.92,401.50 132.11,398.27 132.30,394.17 132.50,389.98 132.69,386.27 132.89,383.48 133.08,381.84 133.18,381.50 133.38,381.77 133.58,383.26 133.78,385.78 133.98,388.99 134.18,392.50 134.39,395.80 134.59,398.41 134.80,399.95 135.00,400.41 135.21,400.04 135.42,399.33 135.63,398.69 135.83,398.44 136.04,398.67 136.26,399.26 136.47,399.94 136.68,400.38 136.89,400.30 137.10,399.64 137.32,398.62 137.53,397.64 137.75,397.11 137.96,397.38 138.18,398.61 138.39,400.67 138.61,403.09 138.82,405.09 139.04,405.61 139.26,403.97 139.47,400.40 139.69,395.77 139.91,391.09 140.12,387.14 140.23,385.62 140.45,383.75 140.67,383.62 140.88,385.29 141.10,388.69 141.32,393.62 141.54,399.75 141.75,406.70 141.97,413.90 142.19,420.39 142.40,423.94 142.62,422.07 142.83,417.24 143.05,412.12 143.26,407.68 143.48,404.29 143.69,402.12 143.91,401.20 144.12,401.55 144.33,403.07 144.54,405.60 144.75,408.90 144.96,412.58 145.17,416.03 145.38,418.35 145.59,418.58 145.80,416.61 146.01,413.37 146.21,409.81 146.42,406.61 146.62,404.17 146.83,402.74 147.03,402.46 147.23,403.37 147.33,404.27 147.53,406.86 147.73,410.34 147.93,414.33 148.12,418.12 148.32,420.44 148.51,419.82 148.71,416.42 148.90,411.69 149.09,406.69 149.28,402.04 149.47,398.09 149.65,395.07 149.84,393.09 150.02,392.22 150.21,392.43 150.39,393.62 150.57,395.64 150.74,398.26 150.92,401.15 151.09,403.90 151.27,406.03 151.44,407.02 151.61,406.56 151.78,404.69 151.95,401.73 152.11,398.10 152.27,394.18 152.43,390.28 152.59,386.64 152.75,383.46 152.91,380.88 153.06,379.06 153.21,378.11 153.29,377.99 153.44,378.54 153.59,380.15 153.73,382.82 153.88,386.44 154.02,390.83 154.16,395.59 154.29,400.05 154.43,403.24 154.56,404.05 154.69,401.96 154.82,397.50 154.95,391.78 155.07,385.82 155.20,380.41 155.32,376.12 155.43,373.37 155.55,372.47 155.66,373.61 155.77,376.87 155.88,382.20 155.99,389.50 156.09,398.51 156.20,408.89 156.29,420.08 156.39,429.14 156.49,421.57 156.58,410.03 156.67,398.99 156.76,389.13 156.84,380.89 156.92,374.60 157.00,370.48 157.08,368.63 157.12,368.56 157.19,370.03 157.26,373.42 157.33,378.25 157.40,383.81 157.46,389.04 157.52,392.57 157.58,393.08 157.64,390.18 157.69,384.65 157.74,377.78 157.79,370.65 157.84,363.98 157.88,358.18 157.92,353.35 157.96,349.38 157.99,345.95 158.03,342.62 158.06,338.86 158.08,334.24 158.11,328.50 158.13,321.64 158.15,313.91 158.17,305.75 158.18,297.70 158.19,290.33 158.20,284.15 158.21,279.58 158.21,276.94 158.21,276.33 158.21,336.61 158.21,338.59 158.22,343.12 158.22,349.98 158.23,354.17 158.24,363.75 158.25,374.29 158.27,384.61 158.29,392.73 158.31,395.84 158.34,392.30 158.36,383.71 158.39,372.83 158.43,361.57 158.46,351.09 158.50,342.08 158.54,334.99 158.58,330.13 158.63,327.65 158.68,327.59 158.73,329.90 158.78,334.43 158.84,340.92 158.89,349.05 158.96,358.38 159.02,368.37 159.09,378.33 159.15,387.34 159.23,394.21 159.30,397.69 159.38,397.31 159.46,394.01 159.54,389.34 159.62,384.57 159.71,380.51 159.80,377.59 159.89,375.99 159.98,375.74 160.03,376.11 160.12,377.68 160.22,380.17 160.33,383.23 160.43,386.42 160.54,389.28 160.65,391.36 160.76,392.32 160.87,392.10 160.99,390.88 161.10,389.04 161.22,387.03 161.35,385.22 161.47,383.91 161.60,383.32 161.73,383.53 161.86,384.59 161.99,386.46 162.13,389.05 162.26,392.22 162.40,395.80 162.54,399.54 162.69,403.18 162.83,406.42 162.98,408.94 163.13,410.49 163.28,410.95 163.43,410.45 163.59,409.31 163.75,407.86 163.90,406.40 164.06,405.16 164.23,404.27 164.39,403.83 164.47,403.80 164.64,404.11 164.81,404.90 164.98,406.11 165.15,407.61 165.32,409.25 165.50,410.79 165.68,411.96 165.85,412.51 166.03,412.33 166.21,411.47 166.40,410.17 166.58,408.75 166.77,407.50 166.95,406.68 167.14,406.45 167.33,406.86 167.52,407.88 167.71,409.34 167.91,410.91 168.10,412.14 168.30,412.50 168.49,411.72 168.69,409.88 168.89,407.45 169.09,404.98 169.29,402.96 169.49,401.77 169.69,401.61 169.90,402.60 170.10,404.65 170.31,407.48 170.52,410.57 170.72,413.08 170.83,413.78 171.04,413.55 171.24,411.19 171.45,407.50 171.67,403.43 171.88,399.65 172.09,396.60 172.30,394.50 172.51,393.42 172.73,393.30 172.94,394.02 173.16,395.36 173.37,397.09 173.59,398.99 173.80,400.86 174.02,402.59 174.23,404.13 174.45,405.51 174.67,406.75 174.88,407.87 175.10,408.86 175.32,409.61 175.53,410.00 175.75,409.93 175.97,409.40 176.19,408.45 176.40,407.27 176.62,406.05 176.84,405.01 177.05,404.29 177.27,404.02 177.49,404.26 177.70,405.01 177.81,405.57 178.03,407.00 178.24,408.76 178.46,410.70 178.67,412.69 178.89,414.61 179.10,416.36 179.31,417.90 179.53,419.27 179.74,420.53 179.95,421.78 180.16,423.04 180.37,424.27 180.58,425.27 180.79,425.70 181.00,425.23 181.21,423.87 181.42,421.95 181.62,419.80 181.83,417.70 182.03,415.85 182.24,414.36 182.44,413.25 182.64,412.52 182.84,412.03 183.04,411.59 183.24,410.97 183.43,409.97 183.63,408.47 183.83,406.49 184.02,404.19 184.21,401.83 184.40,399.63 184.59,397.86 184.69,397.18 184.88,396.37 185.06,396.32 185.25,397.03 185.43,398.44 185.61,400.38 185.80,402.57 185.98,404.69 186.15,406.37 186.33,407.32 186.50,407.41 186.68,406.79 186.85,405.81 187.02,404.87 187.19,404.31 187.35,404.41 187.52,405.32 187.68,407.12 187.84,409.79 188.00,413.18 188.16,417.03 188.32,420.78 188.47,423.29 188.62,422.96 188.77,419.86 188.92,415.52 189.07,411.00 189.21,406.86 189.36,403.45 189.50,400.98 189.63,399.62 189.77,399.49 189.91,400.64 190.04,403.10 190.10,404.82 190.23,409.16 190.36,414.61 190.48,421.01 190.60,427.82 190.73,429.40 190.84,421.98 190.96,413.48 191.07,404.90 191.18,396.59 191.29,388.81 191.40,381.82 191.50,375.83 191.60,371.07 191.70,367.67 191.80,365.78 191.90,365.49 191.99,366.83 192.08,369.79 192.17,374.34 192.25,380.36 192.33,387.67 192.41,396.05 192.49,405.07 192.57,413.96 192.64,420.32 192.71,419.03 192.78,411.21 192.84,401.52 192.90,391.71 192.96,382.43 193.02,374.04 193.08,366.81 193.13,360.89 193.15,358.47 193.20,354.75 193.25,352.54 193.29,351.82 193.33,352.50 193.37,354.45 193.40,357.45 193.44,361.28 193.47,365.61 193.49,370.12 193.52,374.44 193.54,378.24 193.56,381.21 193.57,383.22 193.59,384.29 193.60,384.58 193.61,384.40 193.61,384.04 193.62,383.76 193.62,383.68 193.62,306.11 193.62,308.31 193.63,313.22 193.63,320.26 193.64,328.47 193.66,336.45 193.67,342.39 193.69,344.40 193.71,341.39 193.73,333.67 193.76,322.67 193.79,310.21 193.82,297.87 193.85,286.92 193.87,282.28 193.91,275.09 193.95,271.14 193.99,270.76 194.04,274.07 194.09,281.00 194.14,291.32 194.19,304.57 194.25,320.15 194.30,337.19 194.37,354.47 194.43,370.13 194.50,381.29 194.56,384.60 194.64,379.60 194.71,369.76 194.79,358.73 194.86,348.73 194.95,340.99 195.03,336.17 195.12,334.63 195.20,336.46 195.30,341.60 195.39,349.84 195.49,360.83 195.58,374.11 195.68,389.14 195.79,405.24 195.89,421.41 196.00,426.38 196.11,411.81 196.22,397.21 196.34,384.22 196.45,373.40 196.51,368.93 196.63,362.04 196.76,358.02 196.88,356.96 197.01,358.80 197.14,363.37 197.27,370.39 197.40,379.40 197.53,389.79 197.67,400.59 197.81,409.89 197.95,413.62 198.10,409.02 198.24,400.01 198.39,390.29 198.54,381.48 198.69,374.33 198.84,369.28 199.00,366.55 199.15,366.24 199.31,368.32 199.47,372.63 199.64,378.88 199.80,386.66 199.97,395.44 200.13,404.37 200.30,412.05 200.47,415.87 200.65,413.87 200.82,408.30 201.00,402.07 201.17,396.63 201.35,392.61 201.53,390.31 201.62,389.83 201.81,390.19 201.99,392.14 202.18,395.42 202.36,399.65 202.55,404.32 202.74,408.86 202.93,412.64 203.12,415.15 203.32,416.25 203.51,416.41 203.70,416.36 203.90,416.72 204.10,417.82 204.30,419.74 204.50,422.32 204.70,425.08 204.90,426.94 205.10,426.44 205.31,423.94 205.51,420.93 205.72,418.28 205.93,416.42 206.13,415.59 206.34,415.87 206.55,417.19 206.76,419.29 206.97,421.53 207.18,422.64 207.39,421.31 207.60,417.70 207.82,412.98 208.03,408.09 208.24,403.62 208.35,401.70 208.56,398.67 208.78,396.96 208.99,396.74 209.21,398.13 209.43,401.11 209.64,405.59 209.86,411.39 210.08,418.15 210.29,425.01 210.51,427.70 210.73,421.89 210.94,414.15 211.16,406.61 211.38,399.93 211.60,394.47 211.81,390.51 212.03,388.24 212.25,387.76 212.46,389.06 212.68,392.06 212.90,396.58 213.11,402.34 213.33,408.94 213.54,415.82 213.76,421.88 213.98,424.47 214.19,421.69 214.40,416.72 214.62,411.92 214.83,408.07 215.04,405.50 215.26,404.34 215.47,404.53 215.57,405.11 215.78,407.05 215.99,409.77 216.20,412.77 216.41,415.41 216.62,416.94 216.83,416.90 217.03,415.51 217.24,413.49 217.44,411.56 217.64,410.18 217.85,409.65 218.05,410.08 218.25,411.44 218.45,413.56 218.65,416.11 218.84,418.51 219.04,419.95 219.24,419.70 219.43,417.83 219.62,415.10 219.81,412.32 220.00,410.03 220.19,408.61 220.38,408.27 220.57,409.13 220.75,411.17 220.93,414.30 221.11,418.24 221.30,422.40 221.47,425.21 221.65,424.08 221.83,419.59 221.91,416.86 222.09,411.23 222.26,405.89 222.43,401.22 222.60,397.48 222.76,394.83 222.93,393.34 223.09,393.01 223.25,393.76 223.41,395.46 223.57,397.83 223.73,400.53 223.88,403.15 224.03,405.18 224.18,406.17 224.33,405.91 224.48,404.50 224.62,402.33 224.77,399.84 224.91,397.43 225.04,395.35 225.18,393.78 225.31,392.79 225.45,392.37 225.58,392.45 225.70,392.89 225.83,393.54 225.95,394.19 226.07,394.64 226.19,394.74 226.31,394.35 226.43,393.43 226.54,392.01 226.65,390.18 226.70,389.15 226.81,386.94 226.91,384.67 227.01,382.45 227.11,380.43 227.21,378.72 227.31,377.41 227.40,376.60 227.49,376.35 227.57,376.72 227.66,377.74 227.74,379.39 227.82,381.63 227.90,384.34 227.98,387.40 228.05,390.56 228.12,393.58 228.19,396.11 228.25,397.86 228.31,398.58 228.37,398.23 228.43,396.93 228.48,394.95 228.54,392.58 228.59,390.04 228.63,387.45 228.68,384.82 228.72,382.05 228.76,378.99 228.79,375.43 228.83,371.21 228.86,366.21 228.89,360.45 228.91,354.02 228.93,350.61 228.95,343.58 228.97,336.49 228.98,329.63 229.00,323.31 229.01,317.80 229.02,313.35 229.02,310.13 229.03,308.30 229.03,307.88 229.03,297.00 229.03,298.14 229.04,300.63 229.04,304.06 229.05,307.83 229.07,311.25 229.08,313.68 229.10,314.70 229.12,314.23 229.14,312.58 229.17,310.36 229.20,308.32 229.23,307.17 229.26,307.51 229.30,309.71 229.34,313.90 229.38,320.00 229.42,327.64 229.47,336.21 229.52,344.85 229.57,352.51 229.63,358.14 229.68,361.01 229.74,361.13 229.78,360.37 229.84,357.95 229.91,355.36 229.97,353.69 230.05,353.73 230.12,355.95 230.20,360.56 230.27,367.53 230.36,376.63 230.44,387.45 230.53,399.39 230.61,411.50 230.71,421.29 230.80,421.09 230.89,412.47 230.99,403.25 231.09,395.51 231.20,389.93 231.30,386.84 231.41,386.36 231.52,388.44 231.63,392.87 231.75,399.31 231.86,407.24 231.98,415.84 232.10,423.04 232.23,422.92 232.35,415.86 232.48,407.76 232.61,400.51 232.74,394.77 232.88,390.89 233.01,389.03 233.15,389.20 233.22,390.01 233.36,392.88 233.51,397.08 233.65,401.97 233.80,406.59 233.95,409.62 234.10,409.85 234.25,407.28 234.41,403.11 234.56,398.63 234.72,394.75 234.88,391.99 235.05,390.65 235.21,390.83 235.38,392.49 235.54,395.43 235.71,399.31 235.88,403.59 236.06,407.48 236.23,409.96 236.41,410.11 236.58,407.89 236.76,404.14 236.94,399.87 237.12,395.83 237.31,392.49 237.49,390.14 237.68,388.92 237.87,388.91 238.05,390.05 238.24,392.25 238.44,395.33 238.63,399.05 238.82,403.08 238.92,405.08 239.11,408.71 239.31,411.32 239.51,412.31 239.71,411.50 239.91,409.29 240.11,406.40 240.31,403.39 240.51,400.73 240.72,398.68 240.92,397.43 241.13,397.04 241.33,397.52 241.54,398.78 241.75,400.64 241.96,402.80 242.17,404.90 242.38,406.48 242.59,407.16 242.80,406.75 243.01,405.41 243.23,403.52 243.44,401.53 243.65,399.82 243.87,398.67 244.08,398.23 244.30,398.54 244.51,399.53 244.73,401.04 244.94,402.88 245.16,404.82 245.38,406.66 245.59,408.33 245.81,409.81 245.92,410.51 246.14,411.90 246.35,413.30 246.57,414.57 246.79,415.32 247.00,414.93 247.22,412.98 247.44,409.58 247.66,405.22 247.87,400.58 248.09,396.23 248.31,392.65 248.52,390.24 248.74,389.23 248.95,389.72 249.17,391.67 249.38,394.85 249.60,398.86 249.81,403.08 250.03,406.68 250.24,408.79 250.45,408.96 250.67,407.55 250.88,405.51 251.09,403.74 251.30,402.84 251.51,403.17 251.72,404.75 251.92,407.38 252.13,410.50 252.34,413.09 252.54,413.77 252.75,411.71 252.95,407.46 253.05,404.92 253.26,399.67 253.46,394.92 253.66,391.25 253.86,389.07 254.06,388.58 254.25,389.83 254.45,392.71 254.64,396.88 254.84,401.70 255.03,406.10 255.22,408.50 255.41,407.52 255.60,403.37 255.79,397.50 255.97,391.32 256.16,385.78 256.34,381.51 256.52,378.89 256.70,378.13 256.88,379.30 257.06,382.31 257.24,386.94 257.41,392.86 257.58,399.58 257.75,406.35 257.92,412.07 258.09,415.11 258.26,414.35 258.42,410.82 258.58,406.35 258.74,402.11 258.90,398.62 259.06,396.07 259.14,395.13 259.29,393.84 259.44,393.13 259.59,392.71 259.74,392.37 259.89,391.95 260.03,391.47 260.17,391.10 260.32,391.10 260.45,391.77 260.59,393.38 260.72,396.13 260.86,400.10 260.99,405.27 261.11,411.51 261.24,418.49 261.36,425.45 261.48,428.40 261.60,423.02 261.72,416.10 261.83,409.75 261.95,404.55 262.06,400.81 262.16,398.72 262.27,398.26 262.37,399.24 262.47,401.15 262.57,403.11 262.67,403.87 262.76,402.23 262.85,397.91 262.94,391.63 263.03,384.51 263.07,380.96 263.15,374.44 263.23,369.28 263.31,366.06 263.38,365.23 263.46,367.08 263.53,371.76 263.59,379.29 263.66,389.52 263.72,402.05 263.78,415.80 263.84,423.21 263.89,410.67 263.95,392.52 264.00,373.38 264.04,354.31 264.09,335.92 264.13,318.71 264.17,303.05 264.20,289.22 264.24,277.39 264.27,267.62 264.30,259.87 264.32,254.01 264.35,249.84 264.37,247.10 264.39,245.50 264.40,244.75 264.41,244.56 264.42,244.70 264.43,244.97 264.44,245.20 264.44,245.32 264.44,275.49 264.44,275.47 264.44,274.84 264.44,273.32 264.45,270.82 264.46,267.32 264.47,262.96 264.49,258.06 264.51,253.17 264.53,248.98 264.55,246.22 264.58,245.61 264.61,247.73 264.64,252.97 264.67,261.51 264.71,273.24 264.75,287.83 264.79,304.61 264.83,322.66 264.88,340.68 264.93,356.96 264.98,369.35 265.04,375.79 265.09,376.00 265.15,372.20 265.22,367.35 265.28,363.62 265.35,362.19 265.42,363.50 265.49,367.47 265.57,373.62 265.64,381.09 265.72,388.60 265.81,394.42 265.89,396.82 265.94,396.49 266.02,393.36 266.11,388.51 266.21,383.65 266.30,379.84 266.40,377.61 266.50,377.05 266.61,377.99 266.71,380.00 266.82,382.54 266.93,385.03 267.04,387.04 267.16,388.40 267.27,389.28 267.39,390.07 267.51,391.16 267.64,392.79 267.76,394.88 267.89,396.97 268.02,398.26 268.15,397.80 268.29,395.13 268.42,390.58 268.56,385.08 268.70,379.64 268.84,375.13 268.99,372.27 269.13,371.52 269.28,373.14 269.43,377.18 269.59,383.48 269.74,391.61 269.90,400.75 270.05,409.28 270.13,412.35 270.29,413.37 270.46,407.55 270.62,399.00 270.79,390.60 270.95,383.66 271.12,378.86 271.29,376.60 271.47,376.99 271.64,379.94 271.82,385.15 271.99,392.09 272.17,399.84 272.35,406.85 272.53,410.56 272.72,408.79 272.90,402.88 273.09,395.62 273.27,388.77 273.46,383.28 273.65,379.66 273.84,378.12 274.04,378.63 274.23,381.04 274.43,384.93 274.62,389.72 274.82,394.58 275.02,398.48 275.22,400.38 275.42,399.90 275.62,397.57 275.82,394.52 276.03,391.83 276.23,390.29 276.33,390.13 276.54,391.22 276.74,394.31 276.95,399.37 277.16,406.21 277.37,414.43 277.58,423.24 277.79,428.66 278.00,422.18 278.21,413.53 278.42,405.83 278.64,399.88 278.85,396.19 279.06,395.06 279.28,396.65 279.49,400.90 279.71,407.54 279.92,416.10 280.14,425.65 280.35,428.63 280.57,419.18 280.79,409.56 281.00,401.47 281.22,395.66 281.44,392.64 281.65,392.73 281.87,395.98 282.09,402.20 282.31,410.94 282.52,421.43 282.74,429.93 282.96,420.95 283.17,409.51 283.39,399.27 283.50,394.87 283.72,387.89 283.93,383.66 284.15,382.26 284.36,383.42 284.58,386.51 284.79,390.39 285.01,393.49 285.22,394.23 285.44,391.99 285.65,387.65 285.86,382.80 286.07,378.87 286.29,376.89 286.50,377.43 286.71,380.59 286.92,386.10 287.13,393.12 287.33,399.97 287.54,403.92 287.75,402.39 287.95,396.07 288.16,387.90 288.36,380.21 288.57,374.47 288.77,371.54 288.97,371.84 289.17,375.55 289.37,382.52 289.56,392.34 289.76,404.38 289.96,417.68 290.15,428.04 290.34,419.10 290.44,412.66 290.63,400.49 290.82,390.36 291.01,382.97 291.20,378.75 291.38,377.87 291.57,380.31 291.75,385.71 291.93,393.46 292.11,402.55 292.29,411.15 292.47,415.60 292.65,412.72 292.82,405.72 292.99,398.58 293.16,393.18 293.33,390.33 293.50,390.38 293.67,393.33 293.83,398.80 293.99,405.76 294.15,411.97 294.31,413.13 294.47,407.08 294.62,397.33 294.78,387.06 294.93,377.94 295.08,370.93 295.22,366.65 295.37,365.44 295.51,367.35 295.65,372.15 295.79,379.25 295.93,387.63 296.00,391.79 296.13,398.42 296.27,400.18 296.40,395.80 296.52,387.45 296.65,377.90 296.77,368.92 296.89,361.47 297.01,355.97 297.13,352.46 297.24,350.68 297.36,350.07 297.47,349.95 297.57,349.56 297.68,348.32 297.78,346.00 297.88,342.78 297.98,339.20 298.08,335.94 298.17,333.66 298.26,332.89 298.35,333.97 298.44,336.94 298.52,341.60 298.60,347.44 298.68,353.63 298.76,359.07 298.83,362.48 298.90,362.83 298.97,359.85 299.04,354.10 299.10,346.62 299.16,338.51 299.22,330.63 299.25,326.97 299.30,320.48 299.36,315.29 299.41,311.53 299.45,309.18 299.50,308.14 299.54,308.25 299.58,309.32 299.61,311.10 299.65,313.33 299.68,315.76 299.71,318.09 299.73,320.07 299.76,321.49 299.78,322.21 299.80,322.20 299.81,321.54 299.82,320.44 299.83,319.13 299.84,317.91 299.85,317.00 299.85,316.57 299.85,267.39 299.85,267.10 299.85,265.79 299.86,263.37 299.87,259.79 299.88,255.13 299.89,249.59 299.91,243.59 299.93,237.70 299.95,232.57 299.97,228.89 300.00,227.26 300.02,227.36 300.05,229.59 300.08,234.65 300.12,242.47 300.16,252.74 300.20,264.91 300.24,278.26 300.29,291.91 300.34,304.95 300.39,316.55 300.45,326.19 300.50,333.77 300.56,339.71 300.63,344.74 300.69,349.66 300.76,354.99 300.83,360.79 300.90,366.53 300.98,371.04 301.05,372.77 301.13,370.63 301.22,364.80 301.30,356.64 301.39,347.91 301.48,340.19 301.57,334.69 301.67,332.28 301.76,333.51 301.86,338.59 301.96,347.44 302.07,359.64 302.17,374.32 302.28,389.81 302.34,396.81 302.45,404.86 302.57,399.44 302.68,385.46 302.80,369.85 302.92,355.65 303.05,344.31 303.17,336.64 303.30,333.08 303.43,333.69 303.56,338.29 303.70,346.36 303.83,357.02 303.97,368.96 304.11,380.15 304.25,387.76 304.40,389.11 304.54,384.36 304.69,376.56 304.84,368.68 304.99,362.58 305.15,359.25 305.30,359.17 305.46,362.44 305.62,368.77 305.78,377.64 305.95,388.22 306.11,399.28 306.28,408.62 306.45,412.45 306.62,408.97 306.79,402.06 306.96,395.33 307.14,390.43 307.23,388.90 307.40,387.82 307.58,389.45 307.76,393.57 307.94,399.71 308.13,407.10 308.31,414.59 308.50,419.81 308.68,419.36 308.87,414.46 309.06,408.77 309.25,404.02 309.45,400.90 309.64,399.48 309.84,399.59 310.03,400.74 310.23,402.19 310.43,403.05 310.63,402.75 310.83,401.19 311.03,398.90 311.23,396.71 311.43,395.38 311.64,395.44 311.84,397.24 312.05,400.87 312.26,406.18 312.46,412.74 312.67,419.38 312.88,422.54 313.09,418.18 313.30,409.91 313.51,401.05 313.73,392.79 313.83,389.09 314.05,382.91 314.26,378.65 314.47,376.54 314.69,376.68 314.90,379.06 315.12,383.43 315.33,389.24 315.55,395.73 315.76,401.55 315.98,404.82 316.20,404.11 316.41,399.95 316.63,394.22 316.85,388.55 317.06,384.03 317.28,381.27 317.50,380.51 317.72,381.84 317.93,385.19 318.15,390.23 318.37,396.55 318.58,403.62 318.80,410.61 319.02,416.33 319.23,419.00 319.45,417.82 319.67,414.50 319.88,411.00 320.10,408.37 320.31,407.01 320.53,406.96 320.74,408.19 320.95,410.41 321.06,411.73 321.27,414.41 321.48,416.34 321.70,416.59 321.91,414.88 322.12,411.86 322.33,408.47 322.54,405.46 322.74,403.29 322.95,402.32 323.16,402.76 323.36,404.66 323.57,407.99 323.77,412.64 323.97,418.34 324.18,424.47 324.38,428.40 324.58,424.52 324.78,417.65 324.97,410.71 325.17,404.43 325.37,399.25 325.56,395.48 325.75,393.30 325.95,392.88 326.14,394.27 326.33,397.40 326.51,402.14 326.70,408.21 326.89,415.18 327.07,421.98 327.25,425.08 327.43,420.60 327.61,413.11 327.70,409.25 327.88,401.93 328.06,395.61 328.23,390.69 328.40,387.43 328.57,385.96 328.74,386.30 328.91,388.41 329.08,392.09 329.24,396.96 329.40,402.47 329.56,407.75 329.72,411.47 329.88,412.25 330.03,409.98 330.19,405.99 330.34,401.76 330.49,398.28 330.63,396.13 330.78,395.61 330.92,396.80 331.06,399.63 331.20,403.88 331.34,408.99 331.48,414.00 331.61,417.18 331.74,416.62 331.87,412.63 332.00,407.23 332.12,401.96 332.24,397.68 332.36,394.86 332.48,393.74 332.60,394.42 332.65,395.41 332.77,398.51 332.88,402.68 332.98,407.03 333.09,409.96 333.19,409.59 333.29,405.42 333.39,398.79 333.49,391.27 333.58,383.96 333.67,377.60 333.76,372.73 333.85,369.69 333.93,368.69 334.01,369.82 334.09,372.99 334.17,377.94 334.24,384.17 334.31,390.76 334.38,396.14 334.45,398.06 334.51,394.90 334.57,387.25 334.63,376.99 334.69,365.70 334.74,354.44 334.79,343.88 334.84,334.42 334.88,326.27 334.93,319.48 334.97,313.89 335.01,309.23 335.04,305.08 335.07,300.96 335.09,298.75 335.12,293.78 335.14,287.83 335.17,280.83 335.19,272.92 335.21,264.43 335.22,255.87 335.23,247.76 335.24,240.66 335.25,235.04 335.26,231.28 335.26,229.62 335.26,329.95 335.26,330.27 335.26,331.68 335.27,334.05 335.28,337.13 335.29,340.55 335.30,343.92 335.32,346.81 335.34,348.85 335.36,349.81 335.38,349.59 335.41,348.29 335.44,346.12 335.47,343.39 335.51,340.42 335.55,337.53 335.59,335.03 335.63,333.22 335.68,332.37 335.72,332.72 335.77,334.48 335.83,337.78 335.86,340.03 335.91,345.68 335.97,352.71 336.04,360.78 336.10,369.27 336.17,377.22 336.24,383.27 336.31,385.98 336.39,384.67 336.46,380.10 336.54,373.88 336.63,367.53 336.71,362.19 336.80,358.59 336.89,357.15 336.98,358.07 337.07,361.33 337.17,366.73 337.27,373.90 337.37,382.27 337.48,391.08 337.58,399.31 337.69,405.63 337.80,408.63 337.92,408.04 338.03,405.32 338.15,402.30 338.27,400.14 338.39,399.37 338.52,400.17 338.64,402.50 338.77,406.12 338.90,410.69 339.04,415.66 339.11,418.04 339.24,421.79 339.38,422.74 339.52,420.47 339.66,416.57 339.81,412.32 339.95,408.23 340.10,404.47 340.25,401.12 340.40,398.20 340.56,395.67 340.71,393.61 340.87,392.11 341.03,391.24 341.19,391.03 341.36,391.44 341.52,392.44 341.69,393.90 341.86,395.58 342.03,397.27 342.20,398.72 342.37,399.78 342.55,400.38 342.72,400.45 342.90,399.95 343.08,398.83 343.26,397.05 343.44,394.52 343.63,391.28 343.81,387.62 344.00,383.88 344.19,380.54 344.38,378.08 344.47,377.34 344.66,377.07 344.86,378.69 345.05,382.34 345.25,388.00 345.44,395.45 345.64,404.20 345.84,413.24 346.04,420.12 346.24,419.70 346.44,412.93 346.64,405.06 346.84,398.14 347.05,392.89 347.25,389.63 347.46,388.35 347.67,388.77 347.87,390.44 348.08,392.72 348.29,394.86 348.50,396.15 348.71,396.32 348.92,395.52 349.14,394.24 349.35,393.11 349.56,392.66 349.77,393.12 349.99,394.42 350.20,396.25 350.42,398.07 350.63,399.12 350.85,398.87 351.06,397.38 351.28,395.14 351.39,393.97 351.61,392.03 351.82,391.20 352.04,391.89 352.26,394.24 352.47,398.09 352.69,402.95 352.91,407.59 353.12,410.19 353.34,409.06 353.56,404.53 353.78,398.47 353.99,392.58 354.21,387.95 354.43,385.21 354.64,384.72 354.86,386.67 355.08,390.91 355.29,397.17 355.51,405.02 355.72,413.85 355.94,422.62 356.15,427.96 356.36,423.45 356.58,416.79 356.79,411.33 357.00,407.75 357.21,406.38 357.42,407.17 357.63,409.99 357.84,414.59 358.05,420.38 358.26,426.09 358.46,427.04 358.57,424.62 358.77,418.07 358.98,411.46 359.18,405.51 359.38,400.64 359.59,396.98 359.79,394.46 359.99,393.00 360.19,392.44 360.38,392.56 360.58,393.25 360.78,394.45 360.97,396.12 361.16,398.29 361.36,400.82 361.55,403.36 361.74,405.32 361.92,405.78 362.11,403.91 362.30,399.90 362.48,394.49 362.66,388.68 362.84,383.38 363.02,379.36 363.20,377.12 363.38,377.08 363.55,379.46 363.73,384.27 363.90,391.33 364.07,400.25 364.24,410.35 364.40,419.80 364.57,422.10 364.73,414.10 364.81,408.90 364.97,398.50 365.13,389.17 365.29,381.56 365.44,375.96 365.60,372.51 365.75,371.12 365.90,371.54 366.04,373.30 366.19,375.76 366.33,378.19 366.47,379.91 366.61,380.42 366.75,379.55 366.89,377.51 367.02,374.73 367.15,371.72 367.28,368.86 367.41,366.32 367.53,364.12 367.65,362.24 367.77,360.62 367.89,359.25 368.01,358.25 368.12,357.82 368.23,358.27 368.34,359.88 368.45,362.90 368.55,367.45 368.65,373.39 368.75,380.20 368.85,386.70 368.94,390.86 369.04,390.41 369.08,388.13 369.17,380.25 369.26,369.83 369.34,358.97 369.42,349.25 369.50,341.89 369.58,337.78 369.65,337.58 369.72,341.70 369.79,350.28 369.86,363.19 369.92,379.91 369.98,399.11 370.04,414.96 370.10,406.68 370.15,383.09 370.20,357.18 370.25,331.79 370.29,308.32 370.34,287.80 370.38,271.03 370.42,258.58 370.45,250.75 370.48,247.56 370.51,248.78 370.54,253.89 370.56,262.13 370.59,272.55 370.61,284.06 370.62,295.53 370.64,305.94 370.65,314.52 370.66,320.87 370.66,324.98 370.66,326.28 370.67,327.52 370.67,315.68 370.67,314.98 370.67,311.92 370.68,306.61 370.69,299.38 370.70,290.72 370.71,281.20 370.73,271.50 370.75,262.29 370.77,254.20 370.79,247.77 370.82,243.40 370.85,241.32 370.88,241.60 370.92,244.11 370.96,248.58 371.00,254.66 371.04,261.95 371.09,270.07 371.13,278.76 371.18,287.87 371.24,297.40 371.29,307.41 371.35,317.96 371.41,329.00 371.48,340.24 371.54,351.00 371.61,360.16 371.68,366.20 371.76,367.90 371.83,365.24 371.91,359.63 371.95,356.34 372.04,349.99 372.12,345.19 372.21,342.99 372.30,344.01 372.39,348.49 372.48,356.35 372.58,367.19 372.68,380.28 372.78,394.37 372.89,407.03 372.99,412.67 373.10,407.06 373.21,396.66 373.33,386.59 373.44,378.71 373.56,373.72 373.68,371.78 373.80,372.52 373.93,375.17 374.05,378.57 374.18,381.26 374.31,382.03 374.45,380.47 374.58,377.24 374.72,373.74 374.86,371.34 375.00,371.11 375.14,373.66 375.29,379.24 375.44,387.69 375.59,398.37 375.74,409.78 375.89,417.75 375.97,417.64 376.12,409.52 376.28,398.33 376.44,388.24 376.60,380.77 376.77,376.70 376.93,376.45 377.10,380.04 377.27,387.10 377.44,396.71 377.61,407.20 377.78,414.52 377.96,412.20 378.13,402.77 378.31,392.38 378.49,383.74 378.67,378.12 378.85,376.02 379.04,377.52 379.22,382.30 379.41,389.57 379.60,397.89 379.79,405.06 379.98,408.04 380.17,405.56 380.36,400.21 380.56,394.96 380.75,391.37 380.95,390.13 381.15,391.12 381.35,393.70 381.55,396.82 381.75,399.21 381.95,399.77 382.05,399.32 382.25,397.43 382.46,395.15 382.66,393.58 382.87,393.38 383.08,394.65 383.28,397.07 383.49,399.86 383.70,401.84 383.91,402.05 384.12,400.22 384.33,397.06 384.55,393.70 384.76,390.95 384.97,389.33 385.18,388.95 385.40,389.45 385.61,390.22 385.83,390.53 386.04,389.73 386.26,387.71 386.47,384.91 386.69,382.09 386.91,380.07 387.12,379.46 387.34,380.65 387.56,383.70 387.77,388.26 387.99,393.71 388.21,398.79 388.43,401.88 388.64,401.78 388.86,398.77 388.97,396.68 389.19,392.43 389.40,389.21 389.62,387.95 389.84,389.18 390.05,393.00 390.27,399.24 390.48,407.31 390.70,415.87 390.92,421.17 391.13,417.50 391.34,408.99 391.56,400.39 391.77,393.41 391.99,388.94 392.20,387.41 392.41,388.93 392.62,393.34 392.83,400.14 393.04,408.13 393.25,414.85 393.46,415.54 393.67,409.18 393.87,400.37 394.08,392.11 394.28,385.84 394.49,382.27 394.69,381.78 394.90,384.51 395.10,390.31 395.30,398.74 395.50,409.33 395.69,421.40 395.89,432.51 395.99,426.96 396.19,414.25 396.38,402.28 396.57,391.65 396.77,382.72 396.96,375.76 397.15,370.97 397.33,368.45 397.52,368.23 397.71,370.37 397.89,374.84 398.07,381.55 398.25,390.34 398.43,400.98 398.61,413.08 398.79,426.04 398.96,427.54 399.14,414.31 399.31,401.67 399.48,390.44 399.65,381.20 399.81,374.42 399.98,370.40 400.14,369.25 400.30,370.83 400.46,374.76 400.62,380.44 400.77,386.90 400.93,392.88 401.08,396.94 401.23,398.11 401.38,396.71 401.53,394.17 401.67,392.01 401.74,391.44 401.88,391.77 402.02,394.37 402.16,399.25 402.30,406.02 402.43,413.54 402.56,418.71 402.69,416.28 402.82,407.72 402.94,397.57 403.06,387.85 403.18,379.53 403.30,373.12 403.42,368.79 403.53,366.39 403.64,365.48 403.75,365.19 403.86,364.41 403.96,361.97 404.06,357.14 404.16,349.91 404.26,341.00 404.35,331.44 404.45,322.36 404.54,314.77 404.62,309.54 404.71,307.35 404.79,308.67 404.87,313.69 404.95,322.41 405.02,334.45 405.10,349.01 405.17,364.45 405.23,377.39 405.27,381.11 405.33,379.29 405.39,365.61 405.45,345.39 405.51,323.02 405.56,301.01 405.61,280.93 405.66,263.89 405.70,250.70 405.75,241.94 405.79,237.95 405.82,238.87 405.86,244.57 405.89,254.74 405.92,268.79 405.95,285.95 405.97,305.21 406.00,325.34 406.02,344.85 406.03,361.92 406.05,374.48 406.06,380.95 406.07,381.85 406.07,379.87 406.08,377.82 406.08,377.27 406.08,297.60 406.08,295.59 406.08,290.87 406.09,283.45 406.10,273.51 406.11,261.49 406.13,248.10 406.15,234.27 406.16,227.53 406.18,215.08 406.20,204.89 406.23,197.96 406.26,195.12 406.29,196.99 406.33,203.98 406.37,216.20 406.41,233.51 406.45,255.49 406.49,281.45 406.54,310.42 406.59,341.04 406.65,371.17 406.70,395.50 406.76,399.07 406.82,380.71 406.89,357.94 406.95,337.25 407.02,320.65 407.09,309.01 407.17,302.70 407.24,301.73 407.32,305.82 407.40,314.38 407.49,326.57 407.57,341.21 407.66,356.68 407.75,370.77 407.85,380.43 407.94,382.83 408.04,378.26 408.14,370.09 408.24,361.59 408.30,357.89 408.40,352.30 408.51,349.68 408.62,350.22 408.74,353.76 408.85,359.90 408.97,368.00 409.09,377.22 409.21,386.49 409.34,394.47 409.46,399.65 409.59,401.13 409.72,399.54 409.86,396.54 409.99,393.60 410.13,391.54 410.27,390.68 410.41,390.95 410.55,392.05 410.70,393.56 410.85,395.07 411.00,396.26 411.15,397.03 411.30,397.51 411.46,397.92 411.61,398.46 411.77,399.22 411.93,400.05 412.09,400.57 412.26,400.36 412.42,399.09 412.59,396.81 412.76,393.89 412.93,390.87 413.02,389.50 413.19,387.33 413.37,386.26 413.54,386.49 413.72,388.05 413.90,390.79 414.08,394.41 414.26,398.40 414.45,402.12 414.63,404.89 414.82,406.23 415.01,406.14 415.20,405.11 415.39,403.79 415.58,402.75 415.77,402.34 415.97,402.63 416.16,403.53 416.36,404.85 416.56,406.25 416.76,407.36 416.96,407.97 417.16,407.96 417.36,407.46 417.56,406.74 417.77,406.13 417.97,405.86 418.18,406.14 418.38,407.06 418.59,408.62 418.80,410.76 419.01,413.34 419.22,416.16 419.43,418.91 419.53,420.13 419.74,421.89 419.95,422.37 420.17,421.42 420.38,419.48 420.59,417.08 420.81,414.57 421.02,412.17 421.24,410.03 421.45,408.20 421.67,406.73 421.88,405.71 422.10,405.18 422.32,405.20 422.53,405.84 422.75,407.16 422.97,409.15 423.18,411.78 423.40,414.89 423.62,418.11 423.84,420.63 424.05,421.22 424.27,419.14 424.49,415.16 424.70,410.43 424.92,405.74 425.14,401.60 425.35,398.35 425.57,396.27 425.79,395.46 426.00,395.89 426.22,397.39 426.43,399.54 426.65,401.67 426.75,402.46 426.97,402.98 427.18,401.72 427.39,398.83 427.61,395.07 427.82,391.33 428.03,388.32 428.24,386.56 428.45,386.39 428.66,387.84 428.87,390.75 429.08,394.74 429.28,399.12 429.49,402.93 429.69,405.14 429.90,405.11 430.10,403.16 430.30,400.27 430.51,397.47 430.71,395.49 430.91,394.74 431.10,395.38 431.30,397.42 431.50,400.72 431.69,405.01 431.89,409.91 432.08,414.90 432.27,419.19 432.46,421.60 432.65,421.32 432.84,419.17 433.02,416.58 433.21,414.45 433.39,413.22 433.48,413.01 433.66,413.44 433.84,414.97 434.02,417.46 434.20,420.67 434.37,424.28 434.54,427.66 434.72,429.35 434.89,428.03 435.05,425.55 435.22,423.27 435.39,421.54 435.55,420.28 435.71,419.11 435.87,417.46 436.03,414.83 436.18,411.07 436.34,406.43 436.49,401.35 436.64,396.35 436.79,391.96 436.94,388.66 437.08,386.84 437.22,386.80 437.36,388.72 437.50,392.63 437.64,398.36 437.77,405.42 437.90,412.59 438.03,416.85 438.16,414.10 438.29,405.93 438.41,396.08 438.47,391.17 438.59,382.09 438.71,374.59 438.83,369.14 438.94,365.97 439.05,365.05 439.16,365.98 439.27,367.97 439.37,369.76 439.47,369.82 439.57,366.87 439.67,360.62 439.76,351.89 439.85,342.09 439.94,332.74 440.03,325.20 440.12,320.60 440.20,319.86 440.28,323.63 440.36,332.29 440.43,345.96 440.50,364.49 440.58,387.35 440.64,413.20 440.71,419.54 440.77,389.75 440.83,357.32 440.89,325.10 440.94,294.53 440.99,266.88 441.04,243.29 441.09,224.76 441.13,212.04 441.18,205.63 441.20,204.87 441.23,208.19 441.27,217.69 441.30,232.69 441.33,252.09 441.36,274.29 441.38,297.07 441.41,317.37 441.43,331.33 441.44,335.70 441.46,330.61 441.47,319.83 441.48,307.78 441.48,297.70 441.48,291.54 441.49,290.10 441.49,312.66 441.49,312.96 441.49,313.67 441.50,314.75 441.51,316.19 441.52,317.98 441.54,320.11 441.56,322.60 441.58,325.48 441.60,328.79 441.63,332.59 441.65,336.92 441.69,341.77 441.72,347.12 441.76,352.86 441.79,358.82 441.84,364.78 441.88,370.41 441.90,372.99 441.95,377.47 442.00,380.80 442.06,382.82 442.11,383.63 442.17,383.55 442.23,383.00 442.30,382.40 442.36,382.09 442.43,382.24 442.50,382.89 442.58,383.90 442.65,385.00 442.73,385.81 442.81,385.95 442.90,385.12 442.98,383.27 443.07,380.57 443.16,377.39 443.26,374.18 443.35,371.38 443.45,369.39 443.55,368.50 443.65,368.93 443.76,370.80 443.87,374.12 443.98,378.82 444.09,384.72 444.20,391.50 444.32,398.68 444.44,405.47 444.56,410.51 444.68,412.05 444.81,409.52 444.87,407.16 445.00,401.49 445.13,395.66 445.27,390.50 445.40,386.47 445.54,383.85 445.68,382.80 445.82,383.36 445.96,385.47 446.11,388.94 446.26,393.48 446.41,398.65 446.56,403.72 446.71,407.65 446.86,409.12 447.02,407.53 447.18,403.58 447.34,398.54 447.50,393.48 447.67,389.11 447.83,385.87 448.00,384.07 448.17,383.86 448.34,385.29 448.51,388.28 448.69,392.67 448.86,398.13 449.04,404.10 449.22,409.67 449.40,413.29 449.58,413.29 449.76,409.74 449.95,404.39 450.14,398.80 450.23,396.22 450.42,391.90 450.61,389.04 450.80,387.88 450.99,388.59 451.18,391.17 451.38,395.51 451.57,401.39 451.77,408.44 451.97,415.93 452.17,422.02 452.37,422.17 452.57,416.14 452.77,408.48 452.97,401.15 453.17,394.92 453.38,390.23 453.59,387.35 453.79,386.43 454.00,387.53 454.21,390.56 454.42,395.35 454.63,401.63 454.84,409.01 455.05,416.88 455.26,423.93 455.47,425.51 455.68,419.97 455.90,412.97 456.11,406.49 456.32,401.10 456.54,397.06 456.75,394.44 456.97,393.25 457.08,393.16 457.29,393.84 457.51,395.52 457.73,397.92 457.94,400.75 458.16,403.75 458.38,406.66 458.59,409.28 458.81,411.43 459.03,412.87 459.24,413.37 459.46,412.70 459.68,410.85 459.90,408.03 460.11,404.64 460.33,401.14 460.55,398.02 460.76,395.70 460.98,394.60 461.20,395.02 461.41,397.18 461.63,401.17 461.84,406.95 462.06,414.28 462.27,422.61 462.48,428.94 462.70,423.03 462.91,413.65 463.12,404.66 463.33,396.93 463.55,391.03 463.76,387.37 463.96,386.23 464.17,387.71 464.28,389.41 464.49,394.61 464.69,401.89 464.90,410.67 465.10,419.78 465.31,425.02 465.51,419.67 465.71,410.64 465.92,401.98 466.12,394.79 466.32,389.60 466.51,386.70 466.71,386.17 466.91,387.98 467.10,391.93 467.30,397.66 467.49,404.71 467.68,412.51 467.87,420.19 468.06,425.84 468.25,425.26 468.43,420.57 468.62,415.98 468.80,412.62 468.98,410.75 469.16,410.28 469.34,410.94 469.52,412.16 469.69,413.20 469.87,413.36 470.04,412.33 470.21,410.48 470.38,408.55 470.55,407.28 470.63,407.09 470.80,407.88 470.96,410.46 471.12,414.91 471.28,421.05 471.44,427.52 471.59,425.56 471.75,415.97 471.90,405.03 472.05,394.00 472.20,383.60 472.35,374.48 472.49,367.20 472.63,362.22 472.77,359.88 472.91,360.37 473.05,363.71 473.18,369.68 473.31,377.82 473.44,387.26 473.57,396.44 473.70,402.58 473.82,402.37 473.94,395.96 474.06,386.73 474.18,377.48 474.29,369.80 474.40,364.64 474.51,362.54 474.62,363.74 474.73,368.13 474.83,375.23 474.93,383.92 475.03,391.98 475.08,394.63 475.17,394.51 475.26,386.56 475.35,373.84 475.44,359.68 475.53,346.30 475.61,335.16 475.69,327.28 475.77,323.43 475.84,324.09 475.91,329.51 475.98,339.66 476.05,354.24 476.12,372.54 476.18,392.87 476.24,409.00 476.30,402.39 476.35,378.69 476.40,351.34 476.45,323.92 476.50,297.96 476.54,274.49 476.59,254.27 476.63,237.84 476.66,225.54 476.70,217.47 476.73,213.52 476.76,213.40 476.78,216.62 476.80,222.55 476.83,230.44 476.84,239.49 476.86,248.89 476.87,253.48 476.88,261.98 476.89,269.08 476.89,274.29 476.89,277.29 476.90,277.97 476.90,244.33 476.90,244.60 476.90,245.22 476.91,246.15 476.92,247.38 476.93,248.89 476.95,250.72 476.97,252.94 476.99,255.69 477.01,259.16 477.04,263.54 477.06,269.08 477.09,275.97 477.13,284.39 477.17,294.44 477.20,306.16 477.25,319.49 477.29,334.27 477.34,350.27 477.39,367.15 477.44,384.51 477.49,401.79 477.55,417.84 477.61,424.85 477.67,413.68 477.74,400.68 477.81,389.14 477.88,379.70 477.91,375.85 477.99,370.01 478.06,366.68 478.14,365.82 478.22,367.26 478.31,370.74 478.39,375.90 478.48,382.26 478.57,389.21 478.67,396.00 478.76,401.63 478.86,405.02 478.96,405.55 479.06,403.65 479.17,400.48 479.28,397.12 479.39,394.25 479.50,392.21 479.61,391.09 479.73,390.84 479.85,391.26 479.97,392.09 480.09,393.04 480.22,393.90 480.35,394.51 480.48,394.89 480.61,395.17 480.74,395.58 480.88,396.37 481.02,397.76 481.16,399.91 481.30,402.86 481.45,406.59 481.59,410.95 481.67,413.28 481.81,417.98 481.97,422.06 482.12,424.08 482.27,422.93 482.43,419.79 482.59,416.28 482.75,413.20 482.91,410.92 483.08,409.59 483.24,409.20 483.41,409.59 483.58,410.44 483.75,411.29 483.92,411.55 484.10,410.72 484.27,408.69 484.45,405.73 484.63,402.35 484.81,399.04 484.99,396.21 485.17,394.18 485.36,393.17 485.54,393.25 485.73,394.42 485.92,396.53 486.11,399.29 486.30,402.24 486.49,404.75 486.69,406.11 486.88,405.81 487.08,403.86 487.28,400.79 487.48,397.34 487.57,395.66 487.77,392.73 487.98,390.65 488.18,389.72 488.38,390.06 488.58,391.72 488.79,394.67 488.99,398.77 489.20,403.83 489.41,409.56 489.62,415.50 489.83,420.87 490.04,423.94 490.25,422.80 490.46,418.98 490.67,414.75 490.88,411.14 491.09,408.61 491.31,407.38 491.52,407.55 491.73,409.11 491.95,411.89 492.16,415.56 492.38,419.41 492.59,422.04 492.81,421.59 493.03,418.16 493.24,413.53 493.46,408.99 493.68,405.22 493.89,402.59 494.11,401.33 494.33,401.52 494.55,403.09 494.65,404.34 494.87,407.67 495.09,411.85 495.31,416.49 495.52,421.12 495.74,424.95 495.96,426.53 496.17,425.19 496.39,422.54 496.61,419.90 496.82,417.74 497.04,416.21 497.25,415.33 497.47,415.04 497.68,415.28 497.89,415.97 498.11,417.04 498.32,418.42 498.53,420.05 498.74,421.85 498.95,423.67 499.16,425.30 499.37,426.34 499.58,426.41 499.79,425.48 500.00,423.97 500.21,422.32 500.41,420.85 500.62,419.78 500.82,419.22 501.02,419.23 501.22,419.79 501.43,420.75 501.63,421.83 501.73,422.29 501.92,422.66 502.12,421.92 502.32,420.01 502.51,417.30 502.71,414.24 502.90,411.20 503.09,408.46 503.28,406.22 503.47,404.63 503.66,403.76 503.84,403.62 504.03,404.19 504.21,405.35 504.39,406.93 504.57,408.70 504.75,410.38 504.93,411.66 505.10,412.27 505.28,412.10 505.45,411.23 505.62,409.87 505.79,408.26 505.96,406.61 506.12,405.09 506.29,403.80 506.45,402.80 506.61,402.12 506.77,401.82 506.93,401.96 507.08,402.60 507.23,403.82 507.39,405.72 507.53,408.36 507.61,409.97 507.75,413.75 507.90,418.11 508.04,422.50 508.18,425.08 508.32,422.91 508.46,417.21 508.59,410.31 508.72,403.22 508.85,396.50 508.98,390.55 509.11,385.76 509.23,382.43 509.35,380.81 509.47,381.09 509.59,383.32 509.70,387.46 509.81,393.28 509.92,400.26 510.03,407.23 510.14,411.67 510.24,410.12 510.34,402.68 510.44,392.40 510.53,381.39 510.63,370.81 510.72,361.38 510.81,353.58 510.89,347.75 510.98,344.02 511.06,342.36 511.14,342.50 511.21,343.93 511.29,345.86 511.32,346.72 511.39,347.53 511.46,346.33 511.53,342.56 511.59,336.27 511.65,328.08 511.71,318.95 511.76,309.87 511.81,301.73 511.86,295.23 511.91,290.86 511.95,288.88 512.00,289.26 512.03,291.71 512.07,295.60 512.11,299.96 512.14,303.58 512.16,305.10 512.19,303.42 512.21,298.04 512.23,289.28 512.25,278.12 512.27,265.82 512.28,253.67 512.29,242.78 512.30,234.07 512.30,228.21 512.30,225.62 512.30,276.37 512.31,276.42 512.31,276.66 512.31,277.11 512.32,277.80 512.33,278.81 512.34,279.46 512.36,281.17 512.37,283.59 512.40,286.95 512.42,291.51 512.44,297.52 512.47,305.21 512.50,314.70 512.54,326.07 512.57,339.25 512.61,354.03 512.66,370.02 512.70,386.54 512.75,402.10 512.80,412.24 512.85,408.98 512.90,396.61 512.96,382.65 513.02,369.70 513.08,358.79 513.15,350.49 513.22,345.13 513.29,342.85 513.36,343.65 513.43,347.34 513.51,353.59 513.59,361.91 513.67,371.60 513.76,381.75 513.85,391.06 513.94,397.76 514.03,400.10 514.12,397.93 514.17,395.71 514.27,390.44 514.37,385.44 514.47,381.73 514.58,379.82 514.69,379.92 514.80,381.99 514.91,385.83 515.02,391.09 515.14,397.30 515.26,403.83 515.38,409.87 515.50,414.35 515.63,416.18 515.76,415.29 515.89,412.92 516.02,410.33 516.15,408.17 516.29,406.62 516.43,405.56 516.57,404.72 516.71,403.76 516.85,402.44 517.00,400.73 517.15,398.83 517.30,397.06 517.45,395.83 517.61,395.51 517.76,396.37 517.92,398.57 518.08,402.13 518.24,406.89 518.40,412.40 518.57,417.63 518.65,419.47 518.82,419.69 518.99,415.22 519.16,408.67 519.33,401.93 519.51,395.94 519.68,391.25 519.86,388.21 520.04,387.02 520.22,387.75 520.40,390.34 520.58,394.60 520.77,400.20 520.95,406.62 521.14,413.12 521.33,418.38 521.52,420.28 521.71,418.07 521.90,413.93 522.10,409.82 522.29,406.62 522.49,404.69 522.69,404.12 522.88,404.79 523.08,406.43 523.28,408.67 523.49,411.03 523.69,413.00 523.89,414.17 524.10,414.48 524.30,414.16 524.51,413.64 524.71,413.25 524.92,413.15 525.03,413.21 525.24,413.46 525.44,413.68 525.66,413.63 525.87,413.18 526.08,412.39 526.29,411.48 526.50,410.76 526.72,410.52 526.93,410.99 527.14,412.31 527.36,414.50 527.57,417.48 527.79,421.04 528.00,424.78 528.22,427.68 528.44,427.67 528.65,424.92 528.87,421.55 529.09,418.55 529.30,416.32 529.52,415.03 529.74,414.79 529.96,415.56 530.17,417.21 530.39,419.50 530.61,421.94 530.82,423.70 531.04,423.73 531.26,421.82 531.47,418.87 531.69,415.73 531.91,412.95 532.12,410.87 532.23,410.16 532.45,409.47 532.66,409.84 532.88,411.28 533.09,413.72 533.30,417.08 533.52,421.20 533.73,425.87 533.94,430.69 534.15,430.82 534.36,425.86 534.57,420.83 534.78,416.15 534.99,412.00 535.20,408.51 535.41,405.77 535.61,403.82 535.82,402.67 536.03,402.28 536.23,402.62 536.43,403.60 536.63,405.15 536.84,407.18 537.04,409.62 537.23,412.39 537.43,415.43 537.63,418.64 537.82,421.86 538.02,424.81 538.21,426.79 538.40,426.83 538.59,425.04 538.78,422.53 538.97,420.07 539.07,419.01 539.25,417.37 539.44,416.55 539.62,416.63 539.80,417.55 539.98,419.02 540.16,420.34 540.34,420.31 540.51,418.00 540.69,413.66 540.86,408.18 541.03,402.37 541.20,396.88 541.37,392.21 541.53,388.76 541.70,386.87 541.86,386.78 542.02,388.60 542.18,392.35 542.34,397.93 542.49,405.14 542.64,413.67 542.79,423.08 542.94,432.23 543.09,424.76 543.24,415.34 543.38,406.83 543.52,399.66 543.66,394.17 543.80,390.61 543.93,389.11 544.07,389.67 544.20,392.18 544.33,396.36 544.39,398.96 544.52,404.89 544.64,411.21 544.76,416.92 544.88,420.45 545.00,420.39 545.11,417.85 545.22,414.96 545.33,412.95 545.44,412.31 545.55,413.07 545.65,414.83 545.75,416.60 545.85,416.65 545.94,413.65 546.04,408.07 546.13,401.25 546.22,394.34 546.30,388.21 546.39,383.53 546.47,380.81 546.55,380.41 546.62,382.46 546.70,386.85 546.77,392.98 546.84,399.35 546.90,402.78 546.97,399.36 547.03,388.89 547.09,374.29 547.14,357.95 547.20,341.40 547.25,325.68 547.30,311.57 547.32,305.31 547.36,294.66 547.41,286.75 547.44,281.68 547.48,279.30 547.51,279.27 547.55,280.98 547.57,283.65 547.60,286.39 547.62,288.29 547.64,288.69 547.66,287.27 547.68,284.18 547.69,279.96 547.70,275.39 547.71,271.28 547.71,268.30 547.71,266.94 547.71,374.90 547.72,374.73 547.72,373.93 547.72,372.25 547.73,369.40 547.74,365.15 547.76,359.42 547.78,352.36 547.79,344.30 547.82,335.70 547.84,327.06 547.87,318.89 547.90,311.67 547.93,305.81 547.97,301.68 548.00,299.56 548.02,299.31 548.07,300.53 548.11,304.07 548.16,309.92 548.21,317.95 548.26,327.97 548.31,339.72 548.37,352.87 548.43,367.03 548.49,381.79 548.56,396.65 548.63,410.98 548.70,423.10 548.77,423.74 548.84,414.02 548.92,404.18 549.00,395.77 549.08,389.19 549.17,384.55 549.26,381.87 549.35,381.06 549.44,381.94 549.53,384.28 549.63,387.74 549.73,391.93 549.83,396.38 549.93,400.55 550.04,403.91 550.15,406.01 550.26,406.77 550.37,406.47 550.49,405.69 550.61,404.98 550.73,404.76 550.79,404.92 550.91,405.88 551.04,407.69 551.17,410.26 551.30,413.40 551.43,416.77 551.56,419.80 551.70,421.73 551.84,421.84 551.98,420.35 552.12,418.15 552.26,416.03 552.41,414.47 552.56,413.72 552.71,413.86 552.86,414.83 553.02,416.39 553.17,418.05 553.33,419.03 553.49,418.50 553.65,416.22 553.81,412.72 553.98,408.77 554.15,405.01 554.31,401.93 554.48,399.88 554.66,399.14 554.83,399.91 555.00,402.26 555.18,406.18 555.36,411.58 555.54,418.24 555.72,425.81 555.81,429.59 555.99,428.40 556.18,420.00 556.36,411.65 556.55,404.00 556.74,397.45 556.93,392.35 557.12,388.96 557.31,387.45 557.51,387.86 557.70,390.16 557.90,394.18 558.10,399.65 558.29,406.17 558.49,413.24 558.69,419.96 558.90,424.41 559.10,423.60 559.30,419.38 559.51,415.01 559.71,411.67 559.92,409.82 560.12,409.64 560.33,411.15 560.54,414.23 560.75,418.66 560.96,424.03 561.17,429.19 561.38,428.22 561.59,422.29 561.81,416.15 562.02,410.68 562.23,406.32 562.45,403.38 562.55,402.50 562.77,402.04 562.98,403.32 563.20,406.30 563.41,410.78 563.63,416.37 563.85,422.14 564.06,425.07 564.28,421.36 564.50,414.35 564.71,406.89 564.93,399.97 565.15,394.15 565.36,389.77 565.58,387.09 565.80,386.22 566.02,387.19 566.23,389.84 566.45,393.88 566.67,398.80 566.88,403.77 567.10,407.53 567.32,408.59 567.53,406.37 567.75,401.77 567.96,396.19 568.18,390.72 568.39,386.00 568.61,382.40 568.82,380.09 569.03,379.07 569.25,379.21 569.46,380.28 569.67,382.00 569.77,383.00 569.98,385.10 570.19,387.15 570.40,389.02 570.61,390.69 570.82,392.29 571.02,393.99 571.23,395.98 571.43,398.40 571.64,401.30 571.84,404.66 572.04,408.34 572.24,412.07 572.44,415.43 572.64,417.84 572.84,418.70 573.04,417.86 573.23,415.86 573.43,413.43 573.62,411.09 573.81,409.20 574.00,407.95 574.19,407.41 574.38,407.57 574.57,408.37 574.75,409.61 574.94,411.06 575.12,412.36 575.30,413.16 575.48,413.17 575.66,412.32 575.83,410.77 576.01,408.81 576.18,406.76 576.27,405.78 576.44,404.04 576.61,402.69 576.78,401.79 576.94,401.36 577.11,401.40 577.27,401.84 577.43,402.67 577.59,403.84 577.74,405.34 577.90,407.14 578.05,409.20 578.20,411.41 578.35,413.52 578.50,415.07 578.65,415.40 578.79,413.94 578.93,410.66 579.07,406.00 579.21,400.55 579.34,394.82 579.48,389.25 579.61,384.24 579.74,380.12 579.86,377.20 579.99,375.73 580.11,375.89 580.23,377.80 580.35,381.51 580.46,386.94 580.58,393.87 580.69,401.81 580.80,409.65 580.90,414.65 580.96,414.67 581.06,409.11 581.16,399.24 581.26,387.99 581.35,376.77 581.45,366.32 581.54,357.17 581.63,349.71 581.71,344.22 581.80,340.87 581.88,339.71 581.96,340.67 582.03,343.54 582.11,347.92 582.18,353.24 582.25,358.69 582.31,363.26 582.38,365.85 582.44,365.60 582.50,362.28 582.55,356.36 582.61,348.70 582.66,340.21 582.71,331.62 582.75,323.43 582.79,315.94 582.83,309.24 582.87,303.29 582.91,297.93 582.94,292.91 582.97,287.97 583.00,282.89 583.02,277.49 583.04,271.76 583.05,268.79 583.07,262.75 583.09,256.80 583.10,251.23 583.11,246.38 583.12,242.54 583.12,239.98 583.12,238.84 583.12,217.85 583.12,218.86 583.13,223.30 583.13,231.13 583.14,242.05 583.15,255.64 583.17,271.33 583.18,288.37 583.20,305.80 583.23,322.36 583.25,336.40 583.28,345.97 583.31,349.43 583.34,346.58 583.38,338.94 583.41,328.74 583.45,317.91 583.50,307.86 583.54,299.53 583.59,293.53 583.64,290.26 583.69,289.93 583.75,292.63 583.81,298.31 583.87,306.82 583.93,317.86 583.97,324.22 584.03,338.27 584.10,353.54 584.18,369.09 584.25,383.45 584.33,393.98 584.41,397.11 584.49,392.10 584.58,382.69 584.66,372.49 584.75,363.43 584.85,356.53 584.94,352.34 585.04,351.11 585.14,352.90 585.24,357.58 585.34,364.85 585.45,374.22 585.56,384.91 585.67,395.73 585.78,404.43 585.90,407.35 586.02,402.85 586.14,394.19 586.26,384.72 586.38,376.16 586.51,369.36 586.64,364.76 586.77,362.55 586.90,362.73 587.04,365.13 587.18,369.41 587.32,375.07 587.46,381.47 587.53,384.71 587.67,390.71 587.82,395.28 587.97,397.70 588.12,397.87 588.27,396.47 588.43,394.48 588.58,392.76 588.74,391.84 588.90,392.00 589.06,393.26 589.22,395.47 589.39,398.34 589.55,401.45 589.72,404.35 589.89,406.62 590.07,408.02 590.24,408.59 590.41,408.62 590.59,408.54 590.77,408.66 590.95,409.13 591.13,409.91 591.31,410.76 591.49,411.32 591.68,411.22 591.87,410.31 592.05,408.71 592.24,406.81 592.43,405.10 592.63,403.98 592.82,403.73 593.01,404.54 593.21,406.37 593.31,407.59 593.51,410.36 593.70,412.82 593.90,413.67 594.10,411.86 594.31,407.59 594.51,401.91 594.71,395.90 594.92,390.34 595.12,385.79 595.33,382.67 595.53,381.27 595.74,381.72 595.95,384.04 596.16,388.09 596.37,393.56 596.58,399.95 596.79,406.44 597.00,411.63 597.21,413.64 597.43,411.65 597.64,407.18 597.86,402.22 598.07,397.94 598.28,395.01 598.50,393.75 598.72,394.25 598.93,396.44 599.15,400.07 599.36,404.72 599.58,409.77 599.80,414.33 600.01,417.14 600.23,417.28 600.34,416.46 600.56,413.91 600.77,411.28 600.99,409.43 601.21,408.77 601.43,409.49 601.64,411.58 601.86,414.85 602.08,418.95 602.29,423.07 602.51,425.15 602.73,422.87 602.94,417.82 603.16,412.08 603.37,406.55 603.59,401.65 603.80,397.71 604.02,394.89 604.23,393.26 604.44,392.80 604.65,393.37 604.87,394.69 605.08,396.44 605.29,398.22 605.50,399.67 605.71,400.56 605.92,400.91 606.12,400.92 606.33,400.84 606.54,400.90 606.74,401.19 606.95,401.58 607.15,401.75 607.25,401.63 607.45,400.81 607.65,399.04 607.85,396.44 608.05,393.40 608.25,390.42 608.45,387.98 608.64,386.49 608.84,386.25 609.03,387.46 609.22,390.14 609.41,394.17 609.60,399.29 609.79,405.01 609.98,410.45 610.16,414.17 610.35,414.51 610.53,411.36 610.71,406.38 610.89,401.09 611.07,396.39 611.24,392.81 611.42,390.59 611.59,389.85 611.76,390.62 611.93,392.78 612.10,396.15 612.27,400.41 612.43,405.15 612.60,409.77 612.76,413.42 612.92,415.07 613.08,414.20 613.23,411.39 613.31,409.60 613.46,405.82 613.61,402.28 613.76,399.38 613.91,397.32 614.06,396.24 614.20,396.18 614.34,397.15 614.48,399.08 614.62,401.84 614.75,405.22 614.89,408.86 615.02,412.16 615.15,414.19 615.27,413.95 615.40,411.15 615.52,406.49 615.64,400.84 615.76,394.83 615.87,388.88 615.99,383.26 616.10,378.17 616.21,373.70 616.31,369.94 616.42,366.90 616.52,364.61 616.62,363.07 616.72,362.31 616.81,362.35 616.90,363.24 616.99,365.01 617.08,367.69 617.16,371.23 617.25,375.44 617.29,377.67 617.37,381.92 617.44,384.92 617.52,385.20 617.59,381.49 617.66,373.61 617.72,362.35 617.79,348.88 617.85,334.28 617.91,319.46 617.96,305.22 618.02,292.23 618.07,281.10 618.12,272.31 618.16,266.25 618.20,263.17 618.24,263.17 618.28,266.21 618.32,272.09 618.35,280.41 618.38,290.61 618.41,301.97 618.43,313.60 618.45,324.49 618.47,333.62 618.49,340.20 618.50,343.89 618.51,345.02 618.52,344.46 618.53,343.25 618.53,342.27 618.53,233.03 618.53,233.21 618.54,237.55 618.54,241.80 618.54,253.99 618.55,270.12 618.56,288.36 618.58,306.04 618.59,319.48 618.61,324.69 618.64,319.69 618.66,306.27 618.69,288.23 618.72,269.03 618.75,251.06 618.78,235.82 618.82,224.18 618.86,216.56 618.91,213.04 618.95,213.51 619.00,217.65 619.05,225.07 619.10,235.33 619.16,248.00 619.22,262.63 619.28,278.78 619.34,296.01 619.41,313.75 619.48,331.29 619.55,347.59 619.62,361.15 619.70,370.08 619.78,372.94 619.86,370.21 619.94,364.23 620.03,357.61 620.12,352.25 620.16,350.44 620.26,349.03 620.35,350.86 620.45,355.92 620.55,363.77 620.65,373.46 620.75,383.21 620.86,389.95 620.97,390.10 621.08,383.02 621.19,371.78 621.31,359.62 621.43,348.65 621.55,340.18 621.67,335.03 621.79,333.66 621.92,336.23 622.05,342.61 622.18,352.44 622.31,365.05 622.45,379.52 622.59,394.38 622.73,406.63 622.87,409.99 623.01,402.41 623.16,390.93 623.30,379.92 623.45,371.03 623.60,364.95 623.76,361.96 623.91,362.01 624.07,364.88 624.23,370.13 624.39,377.13 624.47,381.04 624.63,389.05 624.80,396.36 624.96,401.66 625.13,403.88 625.30,403.10 625.47,400.58 625.65,397.74 625.82,395.51 626.00,394.30 626.18,394.12 626.36,394.80 626.54,396.00 626.72,397.29 626.90,398.27 627.09,398.81 627.28,398.96 627.46,399.01 627.65,399.35 627.84,400.35 628.04,402.28 628.23,405.22 628.42,409.03 628.62,413.17 628.82,416.42 629.01,416.73 629.21,413.12 629.41,406.95 629.61,399.84 629.82,392.83 630.02,386.64 630.22,381.77 630.43,378.58 630.63,377.30 630.74,377.41 630.94,379.15 631.15,382.73 631.36,387.85 631.57,393.93 631.78,400.07 631.99,404.99 632.20,407.19 632.41,406.12 632.62,402.85 632.84,399.00 633.05,395.86 633.26,394.14 633.48,394.08 633.69,395.62 633.91,398.34 634.12,401.44 634.34,403.83 634.56,404.49 634.77,403.07 634.99,400.18 635.21,396.90 635.42,394.19 635.64,392.63 635.86,392.42 636.08,393.48 636.29,395.40 636.51,397.46 636.73,398.79 636.94,398.68 637.16,396.88 637.38,393.72 637.59,389.97 637.81,386.33 637.92,384.72 638.14,382.15 638.35,380.64 638.57,380.25 638.78,380.85 639.00,382.20 639.21,384.02 639.43,385.88 639.64,387.46 639.85,388.59 640.06,389.28 640.28,389.69 640.49,390.17 640.70,391.04 640.91,392.54 641.12,394.75 641.33,397.60 641.53,400.84 641.74,403.98 641.95,406.38 642.15,407.50 642.36,407.11 642.56,405.48 642.76,403.32 642.96,401.26 643.16,399.79 643.36,399.17 643.56,399.57 643.76,400.96 643.95,403.23 644.15,406.16 644.34,409.51 644.54,412.97 644.73,416.10 644.82,417.40 645.01,419.12 645.20,419.30 645.39,417.97 645.57,415.52 645.76,412.49 645.94,409.32 646.12,406.37 646.30,403.90 646.48,402.13 646.65,401.31 646.83,401.53 647.00,402.75 647.17,404.74 647.34,406.99 647.51,408.54 647.68,408.22 647.84,405.41 648.01,400.50 648.17,394.45 648.33,388.25 648.49,382.73 648.64,378.51 648.80,376.03 648.95,375.62 649.10,377.44 649.25,381.49 649.39,387.53 649.54,395.15 649.68,403.65 649.82,411.62 649.96,416.09 650.09,413.87 650.16,410.77 650.30,403.09 650.43,395.34 650.56,388.60 650.68,383.43 650.81,379.98 650.93,378.23 651.05,377.94 651.17,378.79 651.28,380.39 651.40,382.39 651.51,384.53 651.62,386.71 651.72,389.00 651.83,391.58 651.93,394.50 652.03,397.58 652.13,400.18 652.22,401.19 652.31,399.46 652.40,394.73 652.49,387.84 652.57,380.09 652.66,372.71 652.74,366.74 652.81,362.97 652.89,361.92 652.96,363.77 653.03,368.18 653.10,373.98 653.16,378.60 653.23,378.10 653.29,369.47 653.34,353.39 653.37,343.42 653.43,321.33 653.48,298.18 653.52,275.71 653.57,255.26 653.61,237.92 653.65,224.43 653.69,215.25 653.73,210.50 653.76,209.93 653.79,212.94 653.82,218.59 653.84,225.66 653.86,232.79 653.88,238.72 653.90,242.52 653.91,243.86 653.92,243.09 653.93,241.05 653.94,238.77 653.94,237.16 653.94,236.76 653.94,285.05 653.95,286.31 653.95,289.17 653.96,293.44 653.97,298.86 653.98,305.18 654.00,312.19 654.01,319.77 654.03,327.91 654.06,336.68 654.08,346.11 654.11,356.15 654.13,361.28 654.16,371.29 654.19,379.76 654.23,384.48 654.27,383.42 654.32,376.72 654.36,366.56 654.41,355.40 654.46,345.06 654.51,336.82 654.57,331.56 654.63,329.79 654.69,331.71 654.75,337.13 654.82,345.47 654.89,355.63 654.96,365.80 655.03,373.42 655.11,375.72 655.19,371.81 655.27,363.61 655.35,354.07 655.44,345.53 655.53,339.54 655.62,337.00 655.71,338.27 655.81,343.19 655.91,351.16 656.01,360.99 656.11,370.78 656.22,377.77 656.32,379.24 656.43,374.66 656.55,366.34 656.60,361.74 656.72,353.18 656.84,346.89 656.96,343.94 657.08,344.86 657.20,349.75 657.33,358.28 657.46,369.74 657.59,382.78 657.72,394.97 657.86,401.81 658.00,398.89 658.14,388.90 658.28,377.12 658.42,366.49 658.57,358.41 658.71,353.54 658.86,352.14 659.01,354.10 659.17,359.01 659.32,366.20 659.48,374.78 659.64,383.64 659.80,391.45 659.96,396.88 660.12,399.19 660.29,398.85 660.46,397.25 660.63,395.73 660.80,394.99 660.97,395.21 661.14,396.26 661.32,397.75 661.50,399.28 661.59,399.99 661.77,401.37 661.95,402.89 662.13,404.98 662.31,408.11 662.50,412.46 662.69,417.71 662.87,422.29 663.06,421.62 663.25,414.86 663.45,405.99 663.64,397.12 663.83,389.41 664.03,383.75 664.23,380.66 664.42,380.54 664.62,383.52 664.82,389.35 665.02,397.20 665.23,405.47 665.43,410.54 665.63,408.22 665.84,400.05 666.04,390.45 666.25,382.17 666.46,376.54 666.66,374.33 666.87,375.88 667.08,380.97 667.29,388.70 667.50,397.51 667.72,404.26 667.93,404.82 668.14,398.90 668.25,394.79 668.46,386.70 668.67,380.72 668.89,378.08 669.10,379.39 669.32,384.59 669.53,393.00 669.75,403.32 669.97,412.76 670.18,415.09 670.40,408.27 670.62,398.76 670.83,390.56 671.05,385.22 671.27,383.27 671.48,384.86 671.70,389.67 671.92,396.97 672.14,405.74 672.35,414.37 672.57,419.60 672.79,417.95 673.00,412.38 673.22,406.85 673.44,402.70 673.65,400.19 673.87,399.03 674.08,398.57 674.30,397.93 674.51,396.53 674.73,394.32 674.94,391.75 675.16,389.55 675.37,388.62 675.47,388.82 675.69,390.78 675.90,395.01 676.11,401.44 676.32,409.49 676.53,417.42 676.74,419.97 676.94,413.15 677.15,402.68 677.36,392.10 677.56,382.91 677.77,375.98 677.97,371.83 678.17,370.75 678.37,372.87 678.57,377.99 678.77,385.56 678.97,394.72 679.17,403.84 679.36,409.73 679.56,408.65 679.75,401.77 679.95,393.18 680.14,385.45 680.33,379.79 680.52,376.91 680.70,377.11 680.89,380.35 681.07,386.34 681.26,394.55 681.44,404.02 681.62,412.74 681.80,416.27 681.98,411.29 682.06,406.92 682.24,397.29 682.41,388.21 682.58,380.62 682.75,375.02 682.92,371.56 683.09,370.20 683.25,370.78 683.42,373.05 683.58,376.74 683.74,381.44 683.90,386.78 684.05,392.33 684.21,397.33 684.36,400.59 684.51,400.64 684.66,396.77 684.80,389.64 684.95,380.61 685.09,371.01 685.23,361.95 685.37,354.33 685.50,348.95 685.64,346.47 685.77,347.32 685.90,351.60 686.03,359.05 686.15,368.83 686.28,379.07 686.40,386.16 686.52,385.41 686.63,375.78 686.75,360.99 686.86,344.98 686.92,337.38 687.03,324.23 687.13,314.97 687.24,310.60 687.34,311.68 687.44,318.28 687.53,329.82 687.63,344.83 687.72,360.25 687.81,370.20 687.90,367.41 687.98,351.52 688.07,328.95 688.15,305.26 688.22,283.89 688.30,267.11 688.37,256.46 688.44,252.92 688.51,256.94 688.57,268.41 688.64,286.53 688.70,309.56 688.75,334.04 688.81,352.84 688.86,354.65 688.91,335.71 688.96,305.04 689.00,270.99 689.04,238.08 689.08,208.85 689.12,184.80 689.15,166.75 689.18,154.98 689.20,151.40 689.23,148.52 689.25,150.59 689.27,156.47 689.29,164.84 689.31,174.31 689.32,183.64 689.33,191.84 689.34,198.30 689.35,202.75 689.35,205.18 689.35,199.47 689.35,199.46 689.35,199.11 689.36,198.11 689.37,196.09 689.38,192.72 689.39,187.89 689.40,181.88 689.42,175.41 689.44,169.51 689.47,165.35 689.49,164.07 689.52,166.57 689.55,173.41 689.59,184.68 689.62,200.00 689.66,218.42 689.70,238.47 689.75,258.12 689.79,274.94 689.84,286.65 689.90,291.97 689.95,291.48 689.98,289.70 690.04,284.87 690.10,280.51 690.16,278.66 690.23,280.55 690.30,286.65 690.37,296.79 690.44,310.22 690.52,325.69 690.60,341.40 690.68,355.01 690.76,363.98 690.85,366.80 690.94,364.47 691.03,359.83 691.12,355.63 691.22,353.68 691.32,354.88 691.42,359.50 691.52,367.29 691.63,377.70 691.73,389.85 691.84,402.52 691.96,413.78 692.07,419.39 692.19,416.02 692.31,409.51 692.43,404.10 692.55,401.04 692.68,400.56 692.80,402.33 692.93,405.52 693.07,408.74 693.20,410.06 693.27,409.50 693.41,406.03 693.55,400.73 693.69,395.35 693.83,391.09 693.98,388.69 694.12,388.53 694.27,390.74 694.42,395.14 694.58,401.21 694.73,407.94 694.89,413.44 695.05,414.81 695.21,411.09 695.37,404.92 695.53,398.81 695.70,394.11 695.87,391.54 696.04,391.51 696.21,394.06 696.38,399.00 696.55,405.91 696.73,413.85 696.91,420.53 697.09,420.67 697.27,414.14 697.45,406.24 697.63,399.45 697.82,394.90 698.00,393.16 698.19,394.53 698.38,399.12 698.57,406.56 698.76,415.79 698.86,420.11 699.05,421.43 699.24,411.00 699.44,397.85 699.64,385.22 699.83,374.52 700.03,366.82 700.23,362.87 700.43,363.04 700.63,367.48 700.84,375.91 701.04,387.47 701.25,400.47 701.45,410.65 701.66,409.41 701.87,397.91 702.07,384.33 702.28,372.42 702.49,363.74 702.70,359.00 702.91,358.45 703.13,361.95 703.34,368.82 703.55,378.07 703.76,388.34 703.98,397.74 704.19,403.86 704.41,404.93 704.62,402.10 704.84,398.15 705.05,395.03 705.27,393.74 705.48,394.50 705.70,397.14 705.81,399.06 706.03,403.77 706.24,408.98 706.46,413.71 706.68,416.61 706.89,416.50 707.11,413.81 707.33,409.89 707.55,405.71 707.76,401.78 707.98,398.25 708.20,395.15 708.41,392.51 708.63,390.31 708.85,388.64 709.06,387.59 709.28,387.23 709.49,387.66 709.71,388.75 709.92,390.35 710.14,392.13 710.35,393.65 710.56,394.46 710.78,394.35 710.99,393.39 711.20,392.03 711.41,390.84 711.62,390.35 711.83,390.98 712.04,392.88 712.25,395.89 712.46,399.60 712.66,403.00 712.87,404.87 712.97,404.91 713.17,403.05 713.38,399.38 713.58,395.31 713.78,392.03 713.98,390.45 714.18,391.14 714.38,394.32 714.58,399.88 714.77,407.33 714.97,415.09 715.16,418.71 715.36,413.40 715.55,403.33 715.74,392.74 715.93,383.40 716.11,376.32 716.30,372.22 716.48,371.52 716.67,374.31 716.85,380.45 717.03,389.51 717.21,400.56 717.38,411.58 717.56,416.97 717.73,410.76 717.91,399.40 718.08,388.12 718.25,378.79 718.41,372.30 718.58,369.16 718.74,369.50 718.91,373.08 719.07,379.39 719.15,383.31 719.30,391.80 719.46,399.46 719.61,403.35 719.77,401.46 719.92,395.23 720.07,387.60 720.21,380.59 720.36,375.27 720.50,372.08 720.64,371.07 720.78,372.03 720.91,374.47 721.05,377.70 721.18,380.96 721.31,383.51 721.44,384.84 721.56,384.83 721.69,383.73 721.81,381.98 721.93,380.04 722.04,378.20 722.16,376.62 722.27,375.33 722.38,374.29 722.49,373.41 722.59,372.49 722.70,371.21 722.80,369.08 722.90,365.49 722.99,359.89 723.09,352.00 723.18,342.02 723.27,330.58 723.31,324.60 723.39,312.81 723.48,302.26 723.56,294.16 723.63,289.66 723.71,289.77 723.78,295.27 723.85,306.61 723.92,323.79 723.98,346.06 724.05,370.90 724.11,389.07 724.16,380.08 724.22,347.68 724.27,307.46 724.32,265.49 724.37,224.65 724.41,186.96 724.45,153.98 724.49,126.96 724.53,106.74 724.56,93.75 724.59,87.99 724.62,89.03 724.65,96.02 724.67,107.76 724.69,122.80 724.71,139.51 724.73,156.30 724.74,171.71 724.75,184.64 724.76,194.38 724.76,200.61 724.76,203.27 724.76,203.39 724.76,211.34 724.76,211.44 724.77,211.66 724.78,212.04 724.79,212.66 724.80,213.66 724.81,215.31 724.83,217.94 724.85,221.96 724.88,227.83 724.90,235.99 724.93,246.80 724.96,260.50 725.00,277.17 725.03,296.64 725.07,318.49 725.11,341.90 725.16,365.33 725.20,385.26 725.25,393.56 725.31,384.29 725.36,365.79 725.42,345.82 725.48,327.65 725.54,312.83 725.61,302.25 725.67,296.44 725.74,295.61 725.82,299.75 725.89,308.58 725.97,321.60 726.05,338.09 726.13,357.05 726.17,367.06 726.26,386.89 726.35,402.97 726.44,406.21 726.53,394.79 726.63,379.19 726.73,364.47 726.83,352.38 726.93,343.68 727.04,338.68 727.14,337.40 727.25,339.64 727.37,344.98 727.48,352.79 727.60,362.25 727.72,372.27 727.84,381.48 727.96,388.22 728.09,391.10 728.21,390.04 728.34,386.46 728.48,382.23 728.61,378.72 728.75,376.74 728.88,376.64 729.03,378.43 729.17,381.90 729.31,386.53 729.46,391.51 729.61,395.74 729.76,398.03 729.91,397.63 730.06,394.88 730.14,392.95 730.30,388.77 730.46,385.03 730.62,382.50 730.78,381.65 730.94,382.71 731.11,385.62 731.28,390.07 731.45,395.49 731.62,400.79 731.79,404.34 731.96,404.48 732.14,401.02 732.32,395.46 732.50,389.54 732.68,384.54 732.86,381.25 733.04,380.17 733.23,381.59 733.41,385.48 733.60,391.58 733.79,399.45 733.98,408.26 734.17,416.35 734.36,419.94 734.56,416.17 734.75,409.24 734.95,402.66 735.14,397.71 735.34,394.95 735.54,394.58 735.74,396.49 735.94,400.37 736.15,405.74 736.25,408.77 736.45,414.89 736.66,419.81 736.86,421.40 737.07,419.13 737.28,415.30 737.48,411.58 737.69,408.68 737.90,406.73 738.11,405.61 738.32,405.07 738.53,404.81 738.75,404.54 738.96,404.09 739.17,403.44 739.39,402.77 739.60,402.26 739.82,402.18 740.03,402.73 740.25,404.08 740.46,406.27 740.68,409.32 740.89,413.14 741.11,417.57 741.33,422.28 741.54,426.49 741.76,427.78 741.98,424.73 742.20,420.23 742.41,415.78 742.63,411.82 742.85,408.59 743.06,406.23 743.28,404.76 743.39,404.34 743.61,404.13 743.82,404.60 744.04,405.55 744.26,406.76 744.47,407.96 744.69,408.84 744.90,409.27 745.12,409.19 745.33,408.71 745.55,408.09 745.76,407.59 745.97,407.44 746.19,407.83 746.40,408.86 746.61,410.52 746.82,412.69 747.03,415.00 747.24,416.86 747.45,417.44 747.66,416.15 747.87,413.21 748.07,409.34 748.28,405.30 748.48,401.66 748.69,398.84 748.89,397.14 749.09,396.77 749.29,397.78 749.49,400.08 749.69,403.39 749.89,407.12 750.09,410.23 750.28,411.39 750.38,410.90 750.57,407.89 750.76,403.13 750.96,397.90 751.15,393.19 751.33,389.64 751.52,387.68 751.71,387.55 751.89,389.37 752.08,393.06 752.26,398.42 752.44,405.11 752.62,412.53 752.79,419.48 752.97,422.77 753.14,419.18 753.32,412.22 753.49,404.88 753.66,398.20 753.82,392.63 753.99,388.45 754.15,385.84 754.32,384.87 754.48,385.62 754.64,388.08 754.79,392.22 754.95,397.93 755.10,405.02 755.25,413.17 755.40,421.56 755.55,426.19 755.69,420.35 755.84,411.00 755.98,401.60 756.05,397.20 756.19,389.39 756.32,383.32 756.46,379.40 756.59,377.93 756.72,379.10 756.85,382.98 756.97,389.48 757.10,398.37 757.22,409.23 757.34,421.24 757.45,427.92 757.57,416.62 757.68,403.09 757.79,390.16 757.90,378.63 758.00,369.04 758.11,361.79 758.21,357.13 758.31,355.10 758.40,355.54 758.49,358.01 758.59,361.83 758.67,366.02 758.76,369.39 758.84,370.77 758.93,369.54 759.00,365.87 759.08,360.63 759.15,354.94 759.23,349.77 759.29,345.81 759.36,343.41 759.42,342.63 759.46,342.76 759.52,343.76 759.57,345.08 759.63,345.77 759.68,344.87 759.73,341.69 759.78,336.06 759.82,328.36 759.86,319.32 759.90,309.77 759.94,300.47 759.97,292.02 760.00,284.85 760.03,279.19 760.06,275.14 760.08,272.62 760.10,271.47 760.12,271.42 760.13,272.18 760.15,273.40 760.16,274.78 760.16,276.03 760.17,276.94 760.17,277.35 760.17,277.37 760.17,359.82 760.18,358.98 760.18,357.46 760.19,355.23 760.20,352.30 760.22,348.71 760.23,344.59 760.25,340.10 760.27,335.49 760.29,333.22 760.31,328.92 760.34,325.17 760.37,322.25 760.41,320.40 760.44,319.82 760.48,320.67 760.52,323.07 760.57,327.06 760.61,332.63 760.66,339.74 760.72,348.26 760.77,358.03 760.83,368.83 760.89,380.42 760.95,392.51 761.01,404.80 761.08,416.89 761.15,427.76 761.22,426.11 761.30,416.38 761.38,407.26 761.46,399.36 761.54,392.89 761.63,387.96 761.71,384.64 761.80,382.92 761.89,382.75 761.99,384.01 762.09,386.57 762.19,390.24 762.29,394.81 762.39,400.02 762.50,405.60 762.55,408.43 762.66,413.96 762.77,418.96 762.89,422.78 763.01,424.53 763.13,423.98 763.25,422.20 763.37,420.30 763.50,418.79 763.62,417.85 763.75,417.49 763.89,417.65 764.02,418.20 764.16,418.96 764.29,419.73 764.43,420.32 764.58,420.60 764.72,420.51 764.87,420.08 765.02,419.36 765.17,418.44 765.32,417.36 765.47,416.13 765.63,414.75 765.79,413.25 765.95,411.69 766.11,410.15 766.27,408.73 766.44,407.52 766.60,406.61 766.77,406.01 766.94,405.65 767.11,405.37 767.29,404.92 767.37,404.55 767.55,403.38 767.73,401.52 767.91,399.00 768.09,396.03 768.27,392.93 768.45,390.04 768.63,387.66 768.82,386.04 769.01,385.30 769.20,385.47 769.39,386.40 769.58,387.88 769.77,389.53 769.96,390.91 770.16,391.62 770.36,391.44 770.55,390.41 770.75,388.81 770.95,387.06 771.15,385.58 771.35,384.74 771.56,384.71 771.76,385.60 771.96,387.32 772.17,389.62 772.37,392.12 772.58,394.33 772.79,395.72 773.00,395.93 773.21,394.89 773.42,392.91 773.63,390.48 773.73,389.26 773.94,387.11 774.16,385.65 774.37,385.14 774.58,385.68 774.80,387.31 775.01,389.89 775.22,393.22 775.44,396.99 775.66,400.77 775.87,404.07 776.09,406.42 776.30,407.53 776.52,407.43 776.74,406.52 776.95,405.32 777.17,404.27 777.39,403.66 777.60,403.60 777.82,404.07 778.04,404.93 778.26,405.93 778.47,406.81 778.69,407.31 778.91,407.29 779.12,406.80 779.34,406.01 779.56,405.15 779.77,404.44 779.99,404.05 780.21,403.98 780.42,404.20 780.64,404.58 780.85,404.96 780.96,405.10 781.17,405.22 781.38,405.13 781.60,404.91 781.81,404.66 782.02,404.49 782.23,404.47 782.44,404.55 782.65,404.59 782.86,404.45 783.07,404.01 783.28,403.31 783.48,402.52 783.69,401.93 783.89,401.88 784.10,402.60 784.30,404.21 784.50,406.60 784.70,409.30 784.90,411.37 785.10,411.55 785.30,408.99 785.50,404.13 785.69,398.06 785.89,391.79 786.08,386.12 786.27,381.59 786.46,378.61 786.65,377.47 786.84,378.31 787.02,381.13 787.21,385.85 787.39,392.24 787.58,399.97 787.67,404.17 787.85,412.72 788.03,419.88 788.20,421.20 788.38,415.40 788.55,407.30 788.73,399.29 788.90,392.23 789.07,386.54 789.23,382.47 789.40,380.13 789.56,379.57 789.73,380.72 789.89,383.44 790.05,387.46 790.20,392.45 790.36,397.93 790.51,403.18 790.66,407.23 790.81,408.99 790.96,407.91 791.10,404.59 791.25,400.17 791.39,395.60 791.53,391.51 791.67,388.26 791.80,386.08 791.93,385.07 792.06,385.23 792.19,386.48 792.32,388.67 792.44,391.58 792.57,394.87 792.69,398.12 792.75,399.57 792.86,401.79 792.98,402.71 793.09,402.13 793.20,400.24 793.31,397.46 793.41,394.31 793.52,391.22 793.62,388.54 793.72,386.46 793.81,385.12 793.90,384.56 794.00,384.72 794.08,385.50 794.17,386.69 794.25,388.00 794.34,389.09 794.41,389.57 794.49,389.14 794.56,387.61 794.64,385.01 794.70,381.54 794.77,377.49 794.83,373.21 794.90,369.00 794.95,365.14 795.01,361.83 795.06,359.24 795.11,357.44 795.16,356.48 795.21,356.34 795.25,356.91 795.29,358.06 795.33,359.57 795.35,360.38 795.38,361.96 795.41,363.23 795.44,363.95 795.47,363.92 795.49,363.09 795.51,361.52 795.53,359.37 795.54,356.89 795.56,354.35 795.57,352.02 795.57,350.12 795.58,348.82 795.58,348.25 795.58,351.66 795.58,351.73 795.59,352.00 795.59,352.41 795.60,352.81 795.61,353.02 795.63,352.89 795.64,352.27 795.66,351.13 795.68,349.51 795.71,347.55 795.73,345.47 795.76,343.54 795.80,342.02 795.83,341.20 795.87,341.29 795.91,342.48 795.95,344.90 796.00,348.63 796.05,353.68 796.07,356.68 796.12,363.59 796.18,371.57 796.24,380.45 796.30,389.95 796.36,399.73 796.42,409.20 796.49,417.08 796.56,420.28 796.63,416.66 796.71,409.85 796.79,402.66 796.87,396.09 796.95,390.58 797.03,386.34 797.12,383.48 797.21,382.03 797.30,381.97 797.40,383.24 797.50,385.68 797.60,389.13 797.70,393.34 797.80,398.03 797.91,402.84 798.02,407.32 798.13,410.94 798.24,413.15 798.36,413.68 798.47,412.82 798.60,411.23 798.72,409.58 798.84,408.31 798.97,407.72 799.10,407.93 799.16,408.36 799.30,409.82 799.43,411.97 799.57,414.57 799.70,417.16 799.84,419.03 799.99,419.25 800.13,417.44 800.28,414.06 800.43,409.88 800.58,405.48 800.73,401.26 800.88,397.47 801.04,394.29 801.20,391.84 801.36,390.18 801.52,389.34 801.68,389.32 801.85,390.06 802.01,391.48 802.18,393.48 802.35,395.92 802.52,398.60 802.70,401.29 802.87,403.74 803.05,405.62 803.22,406.66 803.40,406.66 803.59,405.67 803.77,403.88 803.95,401.61 804.14,399.22 804.32,396.98 804.51,395.17 804.61,394.49 804.80,393.68 804.99,393.70 805.18,394.67 805.37,396.61 805.57,399.50 805.77,403.25 805.96,407.70 806.16,412.50 806.36,416.99 806.56,419.92 806.76,419.67 806.96,416.29 807.17,411.39 807.37,406.21 807.58,401.44 807.78,397.47 807.99,394.57 808.20,392.91 808.41,392.57 808.62,393.52 808.83,395.67 809.04,398.75 809.25,402.38 809.46,405.94 809.67,408.63 809.89,409.61 810.10,408.55 810.31,405.92 810.53,402.63 810.74,399.48 810.96,397.08 811.17,395.78 811.39,395.73 811.50,396.18 811.71,397.87 811.93,400.27 812.15,402.68 812.36,404.14 812.58,403.75 812.80,401.23 813.01,397.15 813.23,392.44 813.45,388.01 813.67,384.56 813.88,382.57 814.10,382.32 814.32,383.91 814.53,387.22 814.75,391.93 814.97,397.48 815.18,402.95 815.40,407.02 815.61,408.24 815.83,406.17 816.04,401.89 816.26,396.87 816.47,392.15 816.69,388.32 816.90,385.69 817.11,384.41 817.32,384.46 817.54,385.77 817.75,388.19 817.96,391.54 818.16,395.57 818.37,400.01 818.48,402.28 818.68,406.60 818.89,410.12 819.10,412.12 819.30,412.05 819.51,410.02 819.71,406.75 819.91,403.00 820.11,399.37 820.31,396.26 820.51,393.96 820.71,392.64 820.90,392.43 821.10,393.33 821.29,395.29 821.49,398.17 821.68,401.69 821.87,405.44 822.06,408.81 822.25,410.98 822.43,411.22 822.62,409.41 822.80,406.17 822.99,402.35 823.17,398.61 823.35,395.42 823.52,393.10 823.70,391.82 823.88,391.66 824.05,392.57 824.22,394.43 824.39,396.96 824.56,399.77 824.73,402.29 824.81,403.23 824.97,404.09 825.14,403.29 825.30,400.93 825.45,397.53 825.61,393.71 825.77,390.07 825.92,387.05 826.07,384.98 826.22,384.08 826.37,384.49 826.51,386.27 826.66,389.38 826.80,393.70 826.94,398.96 827.07,404.77 827.21,410.33 827.34,414.23 827.47,414.54 827.60,410.84 827.73,404.74 827.85,397.81 827.98,390.98 828.10,384.78 828.21,379.58 828.33,375.60 828.44,373.00 828.55,371.85 828.66,372.17 828.77,373.87 828.87,376.81 828.98,380.70 829.08,385.14 829.17,389.52 829.22,391.45 829.31,394.15 829.41,394.58 829.49,392.30 829.58,387.59 829.66,381.23 829.74,374.02 829.82,366.64 829.90,359.60 829.97,353.26 830.05,347.92 830.11,343.80 830.18,341.05 830.24,339.76 830.31,339.99 830.36,341.71 830.42,344.83 830.47,349.18 830.52,354.49 830.57,360.33 830.62,366.11 830.66,370.97 830.70,373.87 830.74,373.82 830.77,370.31 830.81,363.61 830.84,354.48 830.86,343.82 830.89,332.40 830.91,320.86 830.93,309.72 830.95,299.38 830.96,290.17 830.97,282.38 830.98,279.08 830.98,273.79 830.99,270.36 830.99,268.87 830.99,268.81 830.99,277.36 830.99,280.09 831.00,284.94 831.01,291.79 831.02,300.49 831.03,310.85 831.05,322.61 831.07,335.50 831.09,349.20 831.12,363.31 831.14,377.37 831.17,390.68 831.21,401.97 831.24,408.73 831.28,408.17 831.32,401.76 831.36,393.18 831.41,384.52 831.46,376.67 831.51,370.07 831.56,364.91 831.62,361.32 831.68,359.33 831.74,358.93 831.80,360.04 831.87,362.57 831.94,366.38 832.01,371.29 832.08,377.07 832.12,380.20 832.20,386.74 832.28,393.29 832.36,399.31 832.44,404.04 832.53,406.63 832.62,406.56 832.71,404.19 832.81,400.46 832.91,396.28 833.01,392.31 833.11,388.95 833.21,386.47 833.32,385.01 833.43,384.64 833.54,385.37 833.65,387.14 833.77,389.83 833.88,393.28 834.00,397.22 834.13,401.32 834.25,405.14 834.38,408.14 834.51,409.80 834.64,409.83 834.77,408.45 834.91,406.23 835.04,403.75 835.18,401.48 835.32,399.73 835.47,398.67 835.61,398.38 835.76,398.84 835.91,399.94 835.99,400.69 836.14,402.41 836.29,404.21 836.45,405.76 836.61,406.78 836.77,407.08 836.93,406.70 837.09,405.84 837.26,404.81 837.42,403.96 837.59,403.55 837.76,403.79 837.93,404.79 838.11,406.55 838.28,409.00 838.46,411.91 838.63,414.85 838.81,417.16 839.00,418.01 839.18,416.91 839.36,414.27 839.55,410.92 839.73,407.57 839.92,404.75 840.11,402.78 840.30,401.89 840.49,402.18 840.69,403.68 840.88,406.26 841.08,409.62 841.27,413.20 841.47,415.96 841.67,416.45 841.87,413.97 841.97,411.84 842.17,406.67 842.37,401.14 842.58,395.98 842.78,391.68 842.99,388.57 843.19,386.80 843.40,386.44 843.61,387.40 843.82,389.42 844.03,392.09 844.24,394.83 844.45,396.96 844.66,397.87 844.87,397.25 845.08,395.35 845.29,392.73 845.51,390.04 845.72,387.82 845.94,386.44 846.15,386.05 846.37,386.67 846.58,388.19 846.80,390.37 847.01,392.91 847.23,395.49 847.45,397.79 847.66,399.57 847.88,400.65 848.10,401.00 848.32,400.68 848.53,399.80 848.75,398.53 848.97,397.08 849.08,396.34 849.29,394.99 849.51,393.99 849.73,393.54 849.94,393.83 850.16,395.02 850.38,397.19 850.59,400.37 850.81,404.53 851.02,409.56 851.24,415.28 851.45,421.43 851.67,427.49 851.88,430.31 852.10,425.76 852.31,420.30 852.52,415.42 852.73,411.48 852.94,408.66 853.16,407.12 853.37,406.89 853.57,407.97 853.78,410.32 853.99,413.79 854.20,418.22 854.40,423.36 854.61,428.75 854.81,430.77 855.02,425.74 855.22,420.02 855.42,414.63 855.62,409.86 855.82,405.90 856.02,402.90 856.12,401.79 856.31,400.39 856.51,400.06 856.70,400.78 856.90,402.48 857.09,405.02 857.28,408.24 857.47,411.94 857.66,415.85 857.84,419.61 858.03,422.64 858.21,424.09 858.40,423.41 858.58,421.20 858.76,418.39 858.93,415.53 859.11,412.88 859.29,410.58 859.46,408.67 859.63,407.20 859.80,406.20 859.97,405.70 860.14,405.73 860.30,406.34 860.46,407.56 860.63,409.42 860.79,411.91 860.94,415.00 861.10,418.59 861.25,422.47 861.41,426.02 861.56,427.37 861.70,424.92 861.85,420.52 861.92,418.11 862.07,413.29 862.21,408.78 862.35,404.83 862.48,401.67 862.62,399.44 862.75,398.28 862.88,398.27 863.01,399.47 863.14,401.85 863.26,405.35 863.39,409.85 863.51,415.08 863.62,420.52 863.74,424.57 863.85,423.76 863.96,418.43 864.07,411.65 864.18,404.69 864.28,398.09 864.39,392.19 864.49,387.24 864.58,383.42 864.68,380.89 864.77,379.72 864.86,379.97 864.95,381.58 865.03,384.48 865.11,388.44 865.19,393.18 865.27,398.19 865.35,402.74 865.42,405.78 865.45,406.38 865.52,405.38 865.59,401.79 865.65,396.63 865.71,390.91 865.77,385.40 865.83,380.61 865.88,376.90 865.93,374.53 865.98,373.65 866.03,374.34 866.07,376.62 866.11,380.39 866.15,385.52 866.18,391.73 866.22,398.63 866.25,405.52 866.27,411.17 866.30,413.55 866.32,411.31 866.34,405.73 866.36,398.86 866.37,391.96 866.38,385.76 866.39,380.68 866.40,377.00 866.40,374.90 866.40,374.42 866.40,365.24 866.40,365.57 866.40,366.31 866.41,367.39 866.41,368.69 866.42,370.06 866.43,370.71 866.44,371.85 866.45,372.60 866.46,372.78 866.48,372.27 866.49,371.03 866.51,369.07 866.53,366.51 866.55,363.48 866.58,360.18 866.60,356.79 866.63,353.48 866.66,350.44 866.68,347.82 866.72,345.74 866.75,344.34 866.78,343.71 866.82,343.94 866.86,345.09 866.89,347.21 866.93,350.33 866.98,354.44 867.02,359.52 867.07,365.51 867.11,372.33 867.16,379.84 867.21,387.82 867.26,395.95 867.31,403.64 867.37,409.83 867.42,412.67 867.48,410.82 867.54,405.40 867.60,398.38 867.63,394.69 867.69,387.45 867.75,380.76 867.82,374.97 867.89,370.28 867.95,366.85 868.02,364.80 868.09,364.17 868.17,364.97 868.24,367.17 868.31,370.69 868.39,375.39 868.47,381.09 868.55,387.53 868.63,394.35 868.71,401.02 868.79,406.68 868.87,410.08 868.96,410.07 869.04,406.82 869.13,401.67 869.22,395.85 869.31,390.13 869.40,384.97 869.49,380.66 869.59,377.35 869.68,375.14 869.78,374.06 869.87,374.11 869.97,375.23 870.07,377.32 870.17,380.26 870.27,383.88 870.37,387.99 870.43,390.16 870.53,394.55 870.63,398.80 870.74,402.61 870.85,405.67 870.95,407.74 871.06,408.72 871.17,408.76 871.28,408.14 871.39,407.24 871.51,406.36 871.62,405.74 871.73,405.53 871.85,405.81 871.96,406.61 872.08,407.92 872.20,409.70 872.31,411.88 872.43,414.35 872.55,416.96 872.67,419.50 872.79,421.67 872.91,423.01 873.04,423.12 873.16,421.96 873.28,419.93 873.41,417.48 873.53,414.92 873.66,412.45 873.78,410.23 873.91,408.34 874.03,406.86 874.16,405.84 874.29,405.33 874.35,405.27 874.48,405.55 874.61,406.38 874.74,407.71 874.87,409.51 875.00,411.67 875.13,414.07 875.26,416.47 875.39,418.51 875.52,419.70 875.65,419.61 875.78,418.16 875.91,415.71 876.04,412.74 876.17,409.65 876.31,406.71 876.44,404.14 876.57,402.08 876.70,400.65 876.84,399.94 876.97,400.01 877.10,400.87 877.23,402.53 877.37,404.95 877.50,408.09 877.63,411.86 877.76,416.17 877.90,420.88 878.03,425.82 878.16,430.48 878.29,430.33 878.42,425.69 878.55,420.86 878.69,416.31 878.75,414.20 878.88,410.34 879.01,407.09 879.14,404.50 879.27,402.62 879.40,401.47 879.53,401.06 879.66,401.36 879.79,402.35 879.92,403.95 880.05,406.08 880.18,408.64 880.30,411.53 880.43,414.57 880.56,417.58 880.68,420.28 880.81,422.28 880.93,423.15 881.06,422.69 881.18,421.19 881.30,419.15 881.42,416.96 881.55,414.84 881.67,412.93 881.79,411.29 881.91,409.97 882.03,408.98 882.14,408.31 882.26,407.93 882.38,407.83 882.49,407.94 882.61,408.25 882.72,408.68 882.84,409.19 882.89,409.45 883.01,409.97 883.12,410.45 883.23,410.83 883.34,411.09 883.45,411.22 883.55,411.20 883.66,411.05 883.77,410.78 883.87,410.43 883.97,409.99 884.08,409.51 884.18,409.01 884.28,408.50 884.38,408.02 884.48,407.56 884.57,407.14 884.67,406.76 884.77,406.44 884.86,406.19 884.95,405.99 885.04,405.87 885.14,405.81 885.22,405.82 885.31,405.90 885.40,406.05 885.49,406.26 885.57,406.55 885.65,406.89 885.73,407.30 885.82,407.75 885.89,408.24 885.97,408.76 886.05,409.31 886.09,409.59 886.16,410.14 886.23,410.67 886.31,411.16 886.38,411.59 886.45,411.95 886.51,412.22 886.58,412.39 886.65,412.44 886.71,412.36 886.77,412.15 886.83,411.82 886.89,411.37 886.95,410.80 887.01,410.14 887.06,409.39 887.11,408.58 887.17,407.71 887.22,406.81 887.26,405.89 887.31,404.95 887.36,404.01 887.40,403.07 887.44,402.15 887.49,401.25 887.53,400.38 887.56,399.54 887.60,398.74 887.63,397.97 887.67,397.25 887.70,396.56 887.73,395.92 887.76,395.32 887.79,394.76 887.80,394.50 887.82,394.00 887.85,393.55 887.87,393.13 887.89,392.76 887.91,392.42 887.92,392.11 887.94,391.84 887.95,391.60 887.96,391.40 887.97,391.22 887.98,391.08 887.99,390.96 887.99,390.87 888.00,390.81 888.00,390.78 888.00,390.77" fill="none" stroke="#000" stroke-width="1.5" opacity="0.9"/>
<text x="500.0" y="502" font-family="Times New Roman" font-size="19" text-anchor="middle">Julian Date</text>
<text transform="translate(18,247.0) rotate(-90)" font-family="Times New Roman" font-size="19" text-anchor="middle">velocity residual (mm/s)</text>
</svg>
