<svg xmlns="http://www.w3.org/2000/svg" width="920" height="520" viewBox="0 0 920 520">
<rect width="100%" height="100%" fill="white"/>
<text x="460.0" y="24" font-family="Times New Roman" font-size="24" text-anchor="middle">Saturn native velocity residual</text>
<line x1="112" y1="434" x2="888" y2="434" stroke="#333"/>
<line x1="112" y1="60" x2="112" y2="434" stroke="#333"/>
<line x1="112" y1="434.00" x2="888" y2="434.00" stroke="#ddd"/>
<text x="104" y="438.00" font-family="Times New Roman" font-size="17" text-anchor="end">0</text>
<line x1="112" y1="340.50" x2="888" y2="340.50" stroke="#ddd"/>
<text x="104" y="344.50" font-family="Times New Roman" font-size="17" text-anchor="end">0.5488</text>
<line x1="112" y1="247.00" x2="888" y2="247.00" stroke="#ddd"/>
<text x="104" y="251.00" font-family="Times New Roman" font-size="17" text-anchor="end">1.098</text>
<line x1="112" y1="153.50" x2="888" y2="153.50" stroke="#ddd"/>
<text x="104" y="157.50" font-family="Times New Roman" font-size="17" text-anchor="end">1.646</text>
<line x1="112" y1="60.00" x2="888" y2="60.00" stroke="#ddd"/>
<text x="104" y="64.00" font-family="Times New Roman" font-size="17" text-anchor="end">2.195</text>
<line x1="112.00" y1="434" x2="112.00" y2="439" stroke="#333"/>
<text x="112.00" y="456" font-family="Times New Roman" font-size="17" text-anchor="middle">2378495</text>
<line x1="306.00" y1="434" x2="306.00" y2="439" stroke="#333"/>
<text x="306.00" y="456" font-family="Times New Roman" font-size="17" text-anchor="middle">2433282</text>
<line x1="500.00" y1="434" x2="500.00" y2="439" stroke="#333"/>
<text x="500.00" y="456" font-family="Times New Roman" font-size="17" text-anchor="middle">2488070</text>
<line x1="694.00" y1="434" x2="694.00" y2="439" stroke="#333"/>
<text x="694.00" y="456" font-family="Times New Roman" font-size="17" text-anchor="middle">2542858</text>
<line x1="888.00" y1="434" x2="888.00" y2="439" stroke="#333"/>
<text x="888.00" y="456" font-family="Times New Roman" font-size="17" text-anchor="middle">2597645</text>
<polyline points="112.00,386.44 112.00,386.66 112.01,387.59 112.02,388.78 112.05,390.27 112.07,390.98 112.10,390.43 112.14,387.20 112.18,382.27 112.24,374.87 112.29,369.12 112.34,365.54 112.42,366.11 112.48,371.79 112.57,385.19 112.65,400.46 112.73,411.39 112.83,398.72 112.92,383.61 113.03,376.62 113.13,381.54 113.24,393.67 113.37,409.44 113.48,410.98 113.62,404.84 113.74,403.67 113.86,406.00 114.01,414.83 114.14,416.16 114.30,406.85 114.44,403.04 114.58,403.14 114.75,401.88 114.90,396.89 115.08,395.20 115.23,402.56 115.38,417.84 115.57,412.78 115.72,391.90 115.91,377.98 116.07,383.47 116.23,397.34 116.43,411.95 116.59,409.14 116.79,399.02 116.95,397.90 117.12,407.59 117.32,419.52 117.48,424.22 117.65,424.00 117.85,419.90 118.01,412.38 118.21,405.52 118.37,406.37 118.53,406.11 118.73,398.15 118.89,393.37 119.08,388.11 119.23,387.97 119.39,395.99 119.57,405.70 119.72,407.03 119.90,404.69 120.05,401.72 120.19,393.54 120.36,388.16 120.50,387.71 120.66,392.56 120.79,401.58 120.91,407.68 121.06,390.66 121.18,368.11 121.32,357.93 121.43,369.76 121.54,392.75 121.67,391.89 121.77,362.60 121.88,341.07 121.97,345.48 122.06,367.00 122.15,386.28 122.23,365.29 122.32,334.92 122.38,329.90 122.44,347.47 122.51,379.13 122.56,366.03 122.62,314.69 122.66,278.77 122.69,259.54 122.73,259.57 122.75,274.23 122.78,299.64 122.79,319.42 122.80,332.75 122.80,337.84 122.80,322.51 122.81,325.80 122.82,330.94 122.84,338.35 122.88,350.26 122.91,362.56 122.95,379.52 123.00,394.43 123.05,408.16 123.12,416.83 123.18,412.60 123.26,402.52 123.34,395.04 123.42,390.50 123.52,390.85 123.61,396.06 123.73,406.78 123.83,417.74 123.94,424.22 124.08,417.36 124.19,412.84 124.34,409.66 124.47,407.98 124.60,409.37 124.77,413.89 124.91,416.71 125.08,417.05 125.23,417.25 125.38,415.69 125.57,414.55 125.73,417.89 125.93,420.81 126.09,417.66 126.26,413.51 126.47,405.55 126.64,403.35 126.86,409.46 127.03,419.12 127.22,426.30 127.44,424.10 127.62,414.75 127.81,408.86 128.03,407.30 128.22,406.04 128.45,411.54 128.64,422.00 128.83,428.17 129.05,422.32 129.24,413.62 129.47,411.53 129.66,416.78 129.85,421.38 130.07,427.79 130.26,427.50 130.48,419.71 130.67,418.01 130.85,416.69 131.07,418.71 131.24,425.35 131.46,427.47 131.63,421.70 131.80,414.95 132.00,410.23 132.17,411.12 132.36,419.49 132.52,427.57 132.67,429.31 132.85,421.05 133.00,415.62 133.17,413.52 133.31,417.81 133.44,423.54 133.60,423.69 133.73,422.85 133.87,418.03 133.99,414.74 134.10,414.75 134.22,419.62 134.32,427.44 134.43,425.40 134.52,415.29 134.61,407.59 134.70,402.91 134.77,402.62 134.85,406.30 134.91,412.12 134.96,418.61 135.02,420.48 135.06,414.29 135.11,404.49 135.13,397.14 135.16,391.31 135.18,386.49 135.19,384.14 135.19,383.09 135.19,145.73 135.20,155.52 135.21,188.89 135.23,242.11 135.26,322.38 135.29,326.58 135.33,258.97 135.38,200.90 135.43,207.39 135.50,274.25 135.56,329.33 135.63,316.30 135.72,284.83 135.80,302.40 135.90,364.89 135.99,376.02 136.08,336.53 136.21,325.87 136.31,356.47 136.45,400.92 136.56,382.61 136.69,364.63 136.84,375.97 136.97,393.41 137.13,387.77 137.27,387.27 137.41,406.86 137.59,400.51 137.74,377.01 137.93,375.79 138.09,392.60 138.25,397.87 138.45,372.81 138.62,359.34 138.79,368.38 139.00,391.20 139.18,391.16 139.39,374.89 139.57,368.78 139.76,372.74 139.98,383.17 140.16,375.49 140.39,355.88 140.57,360.19 140.76,369.90 140.99,355.08 141.18,342.52 141.41,363.24 141.60,406.84 141.79,390.16 142.02,359.16 142.21,364.04 142.43,408.33 142.62,403.21 142.80,363.89 143.02,356.40 143.21,372.99 143.42,408.83 143.60,416.97 143.78,398.37 143.99,392.03 144.16,392.35 144.36,392.60 144.53,389.20 144.69,387.40 144.88,396.65 145.04,420.25 145.22,394.46 145.36,354.75 145.51,336.09 145.68,359.74 145.81,411.70 145.97,377.75 146.09,333.80 146.22,322.59 146.36,358.90 146.47,407.29 146.59,368.27 146.70,334.83 146.79,332.34 146.90,360.93 146.98,379.94 147.08,363.00 147.15,344.01 147.22,331.29 147.29,323.27 147.35,327.98 147.41,343.12 147.45,329.26 147.49,281.10 147.52,221.95 147.55,195.00 147.57,193.07 147.58,205.07 147.59,215.26 147.59,405.63 147.59,406.68 147.60,407.71 147.62,405.64 147.65,400.11 147.68,391.45 147.72,385.09 147.77,380.60 147.82,380.20 147.87,382.99 147.94,390.63 148.01,400.58 148.10,415.70 148.17,425.42 148.26,418.61 148.36,407.93 148.46,403.25 148.58,402.62 148.68,406.07 148.79,410.51 148.93,413.84 149.05,416.62 149.20,419.20 149.33,417.78 149.47,416.52 149.64,418.39 149.78,421.75 149.93,422.62 150.11,422.13 150.26,421.95 150.45,420.71 150.61,421.04 150.78,422.87 150.98,420.85 151.15,418.77 151.36,418.83 151.54,419.89 151.71,421.54 151.93,421.82 152.11,419.86 152.33,424.90 152.52,427.84 152.71,429.09 152.93,426.70 153.12,421.21 153.35,420.30 153.54,419.92 153.73,419.38 153.95,418.88 154.14,420.85 154.37,425.78 154.56,422.79 154.75,416.96 154.97,409.47 155.16,408.59 155.38,410.58 155.56,412.05 155.75,416.98 155.96,423.09 156.14,421.54 156.35,417.40 156.52,411.92 156.69,410.57 156.89,414.89 157.05,423.31 157.24,428.74 157.40,428.59 157.55,421.55 157.73,413.37 157.87,411.02 158.04,414.11 158.18,419.64 158.31,424.67 158.46,428.68 158.59,421.11 158.73,408.89 158.84,400.04 158.95,393.75 159.07,391.49 159.17,395.10 159.27,405.66 159.36,418.38 159.44,425.80 159.53,405.87 159.60,386.31 159.67,366.23 159.73,355.61 159.78,352.61 159.83,359.97 159.87,374.30 159.91,397.12 159.94,411.35 159.96,404.82 159.97,386.68 159.98,376.77 159.98,238.23 159.98,232.30 159.99,221.52 160.01,218.56 160.03,238.02 160.07,291.95 160.10,345.67 160.14,361.08 160.20,326.74 160.25,312.36 160.32,327.96 160.39,355.52 160.46,374.42 160.55,372.57 160.63,368.66 160.74,371.29 160.83,374.36 160.93,379.33 161.06,392.32 161.17,403.30 161.28,403.81 161.42,390.64 161.55,385.93 161.70,393.36 161.84,398.15 161.97,399.97 162.14,403.85 162.29,406.34 162.47,408.07 162.62,411.75 162.78,400.15 162.97,386.91 163.14,388.79 163.34,405.68 163.51,417.62 163.68,395.16 163.89,377.09 164.07,380.47 164.29,398.89 164.47,409.37 164.65,406.47 164.87,407.48 165.06,409.96 165.29,405.36 165.47,407.02 165.66,410.91 165.89,404.58 166.08,394.60 166.31,398.73 166.50,410.74 166.69,404.15 166.92,389.02 167.10,390.24 167.33,406.89 167.52,410.71 167.70,410.70 167.92,418.42 168.10,413.64 168.32,400.01 168.50,396.41 168.67,404.67 168.88,417.61 169.05,411.55 169.25,407.85 169.41,414.75 169.57,423.81 169.76,422.65 169.91,419.47 170.09,407.64 170.24,397.48 170.38,395.55 170.54,404.61 170.68,403.26 170.83,385.46 170.95,378.10 171.07,384.32 171.21,394.54 171.32,382.87 171.44,365.86 171.54,368.11 171.63,387.40 171.74,418.58 171.82,410.10 171.91,383.02 171.98,359.71 172.04,339.07 172.11,334.29 172.16,358.96 172.22,411.00 172.26,357.22 172.29,280.58 172.32,205.27 172.35,166.11 172.36,145.13 172.37,140.59 172.37,140.02 172.38,355.78 172.38,358.06 172.40,362.22 172.42,366.26 172.45,370.55 172.49,376.22 172.53,381.69 172.58,389.06 172.63,395.03 172.69,399.46 172.77,401.88 172.84,402.98 172.91,405.37 173.01,410.67 173.10,415.92 173.21,420.23 173.30,418.52 173.41,413.33 173.54,406.72 173.65,400.26 173.79,394.76 173.92,398.01 174.04,404.91 174.20,410.60 174.34,414.22 174.51,418.14 174.65,420.16 174.80,414.90 174.99,415.01 175.14,414.23 175.34,409.67 175.50,409.54 175.67,414.83 175.87,419.81 176.04,425.21 176.25,422.02 176.43,413.99 176.61,412.29 176.83,413.27 177.01,412.11 177.23,418.19 177.42,418.17 177.60,414.76 177.83,415.28 178.02,407.35 178.25,408.59 178.44,414.28 178.63,420.17 178.85,426.74 179.04,418.75 179.27,412.71 179.46,411.62 179.65,410.33 179.87,411.86 180.06,422.42 180.28,427.96 180.46,426.80 180.64,417.17 180.85,408.29 181.03,411.46 181.24,414.50 181.41,418.30 181.57,424.68 181.77,421.00 181.93,415.74 182.12,417.39 182.28,413.12 182.43,412.40 182.60,415.61 182.75,416.30 182.91,409.17 183.04,408.57 183.17,410.55 183.32,407.36 183.44,408.64 183.58,415.98 183.69,419.89 183.80,414.89 183.91,403.57 184.01,397.96 184.11,398.02 184.20,401.35 184.27,405.21 184.36,409.57 184.42,413.02 184.49,417.27 184.55,421.95 184.59,428.02 184.64,422.65 184.68,408.56 184.71,388.83 184.73,372.47 184.75,358.33 184.76,346.81 184.77,343.21 184.77,172.06 184.78,184.40 184.79,210.87 184.81,263.10 184.84,310.72 184.87,324.60 184.91,286.56 184.96,260.43 185.02,266.64 185.07,296.45 185.14,325.12 185.22,336.31 185.29,343.65 185.39,364.20 185.47,364.66 185.56,343.87 185.68,334.10 185.78,349.72 185.91,362.20 186.02,340.27 186.14,321.50 186.28,333.79 186.41,360.57 186.57,360.68 186.70,343.85 186.84,345.57 187.02,370.61 187.17,379.03 187.35,362.63 187.50,363.39 187.66,386.36 187.86,421.18 188.03,403.04 188.23,389.33 188.40,388.60 188.57,390.42 188.79,377.12 188.97,380.28 189.18,411.93 189.37,409.25 189.55,388.62 189.77,378.83 189.96,391.90 190.19,411.98 190.37,398.60 190.56,393.86 190.79,397.71 190.98,400.96 191.21,400.93 191.40,401.80 191.59,413.14 191.82,408.46 192.00,390.67 192.23,384.59 192.41,388.31 192.60,398.89 192.82,406.39 193.00,399.65 193.21,401.08 193.39,411.42 193.56,420.84 193.77,411.39 193.93,401.88 194.13,406.34 194.29,420.99 194.45,427.92 194.64,422.81 194.79,410.06 194.97,388.84 195.11,375.02 195.25,373.62 195.41,391.03 195.54,406.29 195.69,372.16 195.81,345.12 195.93,343.73 196.06,378.48 196.17,408.87 196.29,365.56 196.38,341.15 196.47,347.87 196.57,377.14 196.65,355.91 196.74,295.46 196.80,266.40 196.86,274.94 196.93,335.07 196.98,393.03 197.03,320.27 197.07,242.78 197.10,187.98 197.12,158.10 197.14,156.52 197.15,164.65 197.16,172.54 197.16,355.01 197.17,357.65 197.18,361.31 197.20,364.23 197.22,364.63 197.25,362.60 197.30,360.23 197.34,360.86 197.39,365.38 197.46,376.46 197.52,389.72 197.60,407.45 197.67,415.85 197.75,409.36 197.85,397.63 197.94,393.02 198.05,395.18 198.15,402.74 198.26,414.16 198.39,426.42 198.51,423.38 198.65,411.21 198.78,401.86 198.91,398.96 199.07,405.00 199.21,415.12 199.38,427.03 199.53,426.22 199.68,416.54 199.87,404.98 200.03,403.79 200.22,409.89 200.39,417.12 200.55,422.12 200.76,427.70 200.93,419.66 201.14,415.83 201.32,415.67 201.50,415.30 201.72,420.36 201.91,427.46 202.13,424.45 202.32,421.48 202.50,418.34 202.73,418.84 202.92,425.55 203.15,421.44 203.34,417.62 203.53,412.81 203.76,407.28 203.95,410.47 204.17,414.36 204.36,419.44 204.55,428.12 204.77,419.52 204.95,412.62 205.17,405.25 205.35,402.51 205.53,404.71 205.75,414.56 205.92,419.01 206.13,425.01 206.29,421.71 206.46,415.18 206.66,410.64 206.82,411.44 207.00,409.80 207.15,410.34 207.30,413.80 207.48,416.87 207.62,416.16 207.78,414.41 207.91,416.18 208.04,417.21 208.18,417.00 208.30,418.76 208.43,419.26 208.54,413.95 208.64,405.35 208.76,395.59 208.85,391.14 208.95,391.51 209.03,395.78 209.10,402.26 209.18,410.49 209.25,415.21 209.30,416.45 209.36,415.47 209.41,414.71 209.45,412.62 209.48,407.31 209.51,398.64 209.53,386.79 209.54,378.41 209.55,372.72 209.55,174.87 209.56,175.18 209.57,180.88 209.59,196.55 209.61,228.61 209.64,253.49 209.68,263.09 209.73,267.38 209.77,290.45 209.84,350.98 209.90,388.26 209.96,349.90 210.05,316.83 210.12,332.67 210.22,392.94 210.31,402.45 210.41,359.43 210.52,345.25 210.63,361.71 210.76,374.16 210.88,363.26 211.00,363.71 211.15,387.47 211.28,387.47 211.44,355.67 211.57,347.76 211.72,367.00 211.89,407.06 212.04,397.53 212.23,379.95 212.39,393.62 212.55,423.50 212.75,402.14 212.91,385.36 213.12,382.58 213.29,382.18 213.47,373.40 213.68,365.50 213.86,373.32 214.08,383.77 214.26,380.31 214.45,378.15 214.67,381.70 214.86,380.23 215.09,378.87 215.28,388.70 215.46,395.89 215.69,379.10 215.88,370.47 216.11,394.96 216.30,430.38 216.49,398.85 216.72,386.51 216.90,406.78 217.13,402.74 217.31,370.88 217.49,375.27 217.71,412.86 217.89,393.77 218.10,363.41 218.28,365.26 218.45,382.41 218.65,367.73 218.82,352.11 219.02,363.90 219.18,383.02 219.33,382.38 219.52,371.21 219.67,380.61 219.84,394.26 219.98,386.20 220.12,385.84 220.28,408.84 220.40,389.18 220.55,349.32 220.67,339.43 220.78,352.37 220.91,365.90 221.02,347.47 221.11,326.14 221.22,321.75 221.31,328.94 221.41,328.36 221.48,322.17 221.55,322.23 221.63,324.51 221.69,313.91 221.75,293.61 221.79,287.20 221.83,295.13 221.87,312.43 221.90,318.66 221.92,310.75 221.94,299.64 221.94,291.45 221.95,357.47 221.95,357.92 221.96,359.76 221.97,362.20 222.00,365.48 222.03,371.16 222.06,378.12 222.11,389.80 222.16,401.98 222.21,414.49 222.28,418.43 222.34,406.98 222.43,390.95 222.50,380.95 222.58,376.67 222.69,379.73 222.78,387.35 222.90,399.20 223.00,406.73 223.11,408.14 223.25,406.41 223.37,400.75 223.51,391.29 223.64,390.74 223.78,395.70 223.94,402.33 224.08,406.59 224.26,410.87 224.41,414.13 224.56,407.94 224.75,407.45 224.91,409.54 225.11,409.52 225.27,410.67 225.44,417.87 225.65,420.78 225.82,420.78 226.04,416.14 226.22,411.59 226.40,412.76 226.62,420.04 226.80,424.21 227.03,429.46 227.22,421.91 227.40,417.02 227.63,414.78 227.82,410.42 228.05,412.78 228.24,416.93 228.43,418.09 228.66,418.97 228.85,416.19 229.07,417.79 229.26,423.14 229.45,428.37 229.67,432.00 229.85,423.15 230.07,418.37 230.25,417.25 230.43,415.75 230.64,417.91 230.81,421.11 231.01,414.65 231.18,408.71 231.35,403.81 231.54,398.65 231.70,400.70 231.88,412.95 232.03,423.27 232.18,424.39 232.35,412.51 232.48,401.68 232.62,394.11 232.77,395.71 232.90,404.08 233.04,417.28 233.15,429.93 233.26,418.98 233.39,400.42 233.49,387.49 233.60,378.67 233.69,379.40 233.77,387.75 233.86,404.76 233.93,419.91 234.01,417.91 234.07,403.12 234.12,389.75 234.18,378.49 234.22,373.61 234.26,372.15 234.29,372.83 234.31,373.49 234.33,373.14 234.34,372.26 234.34,371.76 234.34,302.51 234.35,300.93 234.36,301.03 234.38,305.94 234.42,316.51 234.45,321.55 234.49,316.07 234.54,301.75 234.59,295.93 234.66,304.98 234.72,322.12 234.79,337.36 234.88,342.66 234.96,340.77 235.06,341.07 235.15,345.40 235.25,353.04 235.37,367.32 235.48,382.20 235.62,390.04 235.73,380.38 235.86,370.22 236.01,373.05 236.14,389.22 236.31,408.90 236.45,403.09 236.59,394.48 236.77,397.50 236.92,407.31 237.11,410.79 237.27,399.07 237.43,394.95 237.63,407.76 237.80,425.24 238.01,418.71 238.18,406.92 238.36,405.58 238.57,410.92 238.76,404.29 238.98,399.20 239.16,402.83 239.35,410.81 239.57,416.22 239.76,406.09 239.99,406.46 240.18,419.49 240.37,423.33 240.59,405.04 240.78,393.85 241.01,395.10 241.20,402.58 241.39,401.67 241.61,394.72 241.80,395.60 242.02,406.03 242.21,404.14 242.39,393.86 242.61,389.91 242.78,399.61 243.00,419.66 243.17,415.55 243.34,403.59 243.54,404.46 243.71,416.24 243.87,429.39 244.06,418.08 244.21,408.70 244.39,403.14 244.54,402.20 244.68,400.60 244.85,396.12 244.99,390.05 245.14,381.61 245.27,378.82 245.39,384.85 245.53,398.77 245.64,395.41 245.76,372.58 245.86,358.58 245.96,358.46 246.06,377.39 246.15,398.52 246.24,396.43 246.31,379.18 246.38,370.48 246.45,378.09 246.50,392.36 246.56,384.48 246.60,355.91 246.64,329.14 246.67,311.68 246.70,310.97 246.72,321.13 246.73,331.33 246.73,337.06 246.73,340.89 246.74,347.43 246.75,362.04 246.77,376.57 246.80,388.26 246.83,391.41 246.87,386.14 246.92,379.30 246.97,377.61 247.03,380.88 247.10,391.00 247.17,403.37 247.26,419.49 247.34,423.22 247.42,414.74 247.53,407.98 247.62,408.11 247.75,413.86 247.85,420.71 247.96,422.54 248.10,416.00 248.23,409.70 248.38,403.15 248.51,403.32 248.64,410.09 248.81,423.18 248.95,426.36 249.13,415.16 249.28,408.03 249.44,401.14 249.63,400.96 249.79,407.94 249.99,419.71 250.16,420.88 250.33,419.75 250.54,408.88 250.72,404.15 250.93,406.05 251.11,411.00 251.30,414.38 251.52,427.33 251.70,425.79 251.93,417.54 252.11,413.46 252.30,408.59 252.53,412.35 252.72,419.97 252.95,424.05 253.14,426.80 253.33,424.25 253.56,423.61 253.75,426.45 253.97,424.69 254.16,426.10 254.34,429.65 254.56,425.63 254.75,427.89 254.93,428.09 255.14,427.56 255.32,424.91 255.53,417.16 255.70,417.20 255.87,416.40 256.07,416.99 256.23,418.28 256.42,417.54 256.58,416.10 256.73,417.02 256.91,414.15 257.05,412.59 257.22,414.49 257.35,419.97 257.48,425.08 257.63,424.43 257.76,422.17 257.90,418.57 258.01,416.93 258.11,417.93 258.24,421.39 258.33,422.50 258.44,417.73 258.52,413.73 258.60,412.42 258.69,412.92 258.76,412.20 258.83,407.42 258.89,400.73 258.94,393.10 258.99,384.40 259.03,378.45 259.06,373.23 259.09,370.28 259.11,368.27 259.12,366.76 259.13,366.16 259.13,253.03 259.13,253.63 259.14,255.39 259.16,261.91 259.19,275.25 259.22,304.23 259.26,335.35 259.30,358.54 259.36,353.03 259.41,335.35 259.48,327.11 259.55,337.44 259.62,358.76 259.71,381.49 259.80,383.33 259.90,374.01 260.00,368.54 260.10,368.57 260.22,375.65 260.33,386.91 260.47,403.98 260.59,410.29 260.72,406.91 260.87,400.98 261.01,402.20 261.18,417.59 261.32,427.90 261.47,404.58 261.65,384.84 261.80,381.83 261.99,388.97 262.15,402.45 262.32,415.33 262.52,408.07 262.69,401.40 262.90,403.03 263.08,409.73 263.25,416.14 263.47,411.95 263.65,404.46 263.87,399.06 264.06,400.31 264.25,399.84 264.47,395.77 264.66,393.06 264.89,394.85 265.08,401.97 265.27,404.85 265.49,397.68 265.68,392.79 265.87,396.31 266.10,409.79 266.29,416.09 266.51,403.28 266.70,395.86 266.88,397.31 267.10,405.84 267.29,405.83 267.50,397.34 267.68,395.98 267.85,398.26 268.06,401.01 268.23,397.50 268.43,392.55 268.59,392.20 268.75,388.07 268.94,376.40 269.09,375.38 269.27,376.02 269.41,377.32 269.55,379.24 269.72,384.87 269.85,387.90 270.00,386.40 270.13,375.60 270.24,367.51 270.38,377.74 270.49,396.36 270.61,390.76 270.71,369.43 270.80,362.77 270.90,381.85 270.98,393.89 271.07,356.16 271.14,324.55 271.20,316.89 271.27,346.04 271.32,378.81 271.37,332.73 271.41,265.42 271.44,211.69 271.48,178.78 271.50,175.78 271.51,187.81 271.52,197.88 271.52,279.41 271.52,285.77 271.53,301.86 271.55,331.36 271.57,360.85 271.60,389.95 271.64,408.83 271.68,398.07 271.74,381.48 271.79,374.76 271.85,376.12 271.93,387.70 272.00,403.59 272.09,424.97 272.17,423.64 272.26,411.50 272.37,402.91 272.47,401.19 272.60,404.73 272.71,410.27 272.82,417.07 272.96,423.98 273.09,417.89 273.24,412.95 273.38,415.95 273.51,420.52 273.68,421.01 273.83,416.65 274.01,411.78 274.16,404.24 274.32,403.56 274.51,411.43 274.68,419.66 274.88,426.41 275.05,426.92 275.22,416.60 275.43,411.26 275.61,411.04 275.83,412.49 276.01,416.13 276.19,424.26 276.41,426.00 276.60,421.10 276.79,415.61 277.01,411.98 277.20,417.25 277.43,423.76 277.62,426.64 277.81,424.20 278.04,417.76 278.23,418.60 278.46,417.81 278.64,420.17 278.83,424.52 279.06,424.83 279.24,423.37 279.46,417.12 279.64,415.00 279.82,417.54 280.04,423.27 280.21,427.27 280.42,424.79 280.59,419.77 280.75,417.70 280.95,418.22 281.11,419.81 281.30,420.62 281.45,422.05 281.60,423.51 281.78,425.44 281.92,427.23 282.08,428.42 282.22,427.12 282.35,425.36 282.49,422.25 282.61,421.05 282.75,420.63 282.86,419.61 282.96,417.73 283.08,415.36 283.17,415.14 283.28,417.97 283.36,421.42 283.43,421.39 283.52,413.32 283.58,403.22 283.65,390.83 283.70,382.32 283.75,376.55 283.80,373.42 283.83,373.05 283.86,373.30 283.89,372.76 283.90,371.32 283.91,369.50 283.91,368.97 283.92,187.84 283.92,188.33 283.94,195.14 283.96,220.50 283.99,259.53 284.03,320.77 284.07,361.35 284.11,358.39 284.17,329.57 284.23,318.46 284.31,321.45 284.38,326.64 284.45,330.78 284.55,343.67 284.64,366.01 284.75,395.75 284.84,396.44 284.95,381.41 285.08,376.57 285.19,388.01 285.33,409.21 285.46,414.17 285.58,405.06 285.74,407.80 285.88,423.17 286.05,413.68 286.19,399.35 286.34,398.77 286.53,411.50 286.68,421.36 286.88,402.53 287.04,389.33 287.21,388.32 287.41,399.91 287.58,403.40 287.76,409.12 287.97,414.62 288.15,421.98 288.37,420.50 288.55,406.79 288.73,406.69 288.96,417.13 289.14,417.75 289.37,406.91 289.56,402.12 289.75,412.29 289.98,427.60 290.17,414.45 290.40,400.43 290.58,395.79 290.77,402.60 291.00,408.45 291.19,408.84 291.41,409.73 291.60,406.96 291.78,401.51 292.00,391.83 292.18,391.68 292.39,403.94 292.57,416.17 292.74,418.07 292.95,407.56 293.11,410.17 293.31,415.46 293.47,411.36 293.63,406.81 293.82,402.98 293.97,401.13 294.14,397.21 294.29,394.22 294.42,394.32 294.58,395.61 294.71,396.11 294.86,401.05 294.98,410.13 295.10,422.74 295.23,423.61 295.34,410.73 295.45,396.96 295.55,390.74 295.64,392.62 295.74,403.06 295.81,408.91 295.90,399.35 295.96,386.80 296.02,378.94 296.09,376.46 296.13,373.75 296.18,364.81 296.22,359.00 296.25,361.21 296.27,372.99 296.29,380.04 296.30,376.29 296.31,372.48 296.31,381.63 296.32,384.87 296.33,388.51 296.35,390.09 296.38,387.00 296.41,381.05 296.45,374.21 296.50,371.81 296.56,375.06 296.61,382.88 296.68,393.72 296.76,406.94 296.83,414.65 296.93,415.76 297.01,409.23 297.10,400.38 297.22,394.05 297.32,394.58 297.45,400.35 297.56,408.40 297.68,415.44 297.82,416.41 297.95,416.70 298.11,418.06 298.24,417.39 298.38,419.22 298.56,424.98 298.71,425.85 298.86,422.71 299.04,419.36 299.20,414.97 299.40,412.91 299.57,414.37 299.73,416.89 299.94,421.01 300.11,419.57 300.33,416.93 300.51,418.05 300.69,421.69 300.91,426.99 301.09,425.03 301.31,420.53 301.50,418.45 301.69,418.96 301.91,417.71 302.10,417.78 302.33,427.41 302.52,431.45 302.71,431.70 302.94,431.16 303.13,429.05 303.36,430.11 303.54,426.15 303.73,423.65 303.95,427.05 304.14,426.62 304.36,427.83 304.54,425.22 304.72,419.96 304.93,416.92 305.10,410.21 305.31,406.57 305.47,410.29 305.64,416.32 305.83,425.26 305.99,427.86 306.18,417.13 306.33,409.62 306.48,408.15 306.65,410.10 306.79,414.44 306.95,420.96 307.08,426.77 307.21,424.59 307.35,416.68 307.47,414.35 307.60,415.17 307.71,417.33 307.81,420.07 307.92,421.80 308.01,421.31 308.11,419.31 308.19,417.05 308.26,414.43 308.34,410.68 308.40,407.22 308.47,403.70 308.52,402.37 308.56,403.16 308.61,406.79 308.64,410.88 308.66,414.22 308.68,413.85 308.69,411.67 308.70,409.76 308.70,356.00 308.71,356.84 308.72,356.46 308.74,353.83 308.76,350.63 308.79,352.75 308.84,365.76 308.88,385.94 308.93,412.08 309.00,420.20 309.06,396.21 309.14,377.21 309.21,372.45 309.29,377.83 309.39,395.31 309.48,413.97 309.59,416.85 309.69,404.72 309.80,398.60 309.93,402.95 310.05,414.51 310.17,422.41 310.32,413.80 310.45,405.47 310.61,400.48 310.75,404.88 310.89,414.98 311.07,420.59 311.22,408.23 311.41,401.23 311.57,399.17 311.73,400.80 311.93,409.43 312.09,410.57 312.30,398.23 312.47,394.85 312.65,395.65 312.86,403.25 313.04,414.62 313.26,411.07 313.45,401.56 313.63,397.49 313.86,396.70 314.04,402.52 314.27,413.15 314.46,413.79 314.65,417.10 314.88,413.36 315.07,413.05 315.30,418.44 315.49,416.35 315.67,416.20 315.90,410.87 316.09,409.96 316.31,417.11 316.49,418.25 316.68,416.43 316.89,409.18 317.07,405.90 317.29,412.50 317.46,422.73 317.63,428.59 317.83,423.07 318.00,412.97 318.20,406.77 318.36,408.77 318.51,410.70 318.69,413.16 318.84,419.67 319.02,426.19 319.16,425.12 319.29,421.58 319.45,416.99 319.58,414.28 319.72,416.57 319.84,422.03 319.95,424.75 320.08,419.94 320.18,414.35 320.30,408.19 320.39,402.34 320.47,395.23 320.57,386.43 320.64,380.27 320.72,374.41 320.79,369.23 320.84,361.68 320.90,348.08 320.95,333.66 320.99,314.65 321.02,298.73 321.05,283.58 321.07,267.58 321.08,257.36 321.09,250.65 321.09,323.99 321.10,327.80 321.11,338.66 321.13,348.55 321.15,354.61 321.18,353.06 321.22,349.05 321.27,347.60 321.31,352.51 321.38,366.04 321.44,381.11 321.50,394.76 321.59,400.76 321.66,397.07 321.75,392.47 321.85,390.86 321.95,393.28 322.06,398.66 322.17,402.62 322.28,404.40 322.42,404.34 322.54,405.24 322.69,407.37 322.82,407.99 322.95,407.30 323.11,404.71 323.26,403.41 323.43,403.36 323.58,407.64 323.74,415.02 323.93,420.26 324.09,419.77 324.29,416.29 324.45,413.75 324.62,416.89 324.83,424.18 325.01,424.88 325.22,426.76 325.40,423.78 325.58,420.15 325.80,419.92 325.99,419.38 326.21,420.08 326.40,421.36 326.59,420.88 326.82,422.24 327.00,422.81 327.23,420.02 327.42,419.20 327.61,421.40 327.84,420.63 328.03,419.49 328.26,422.10 328.44,423.17 328.63,423.43 328.85,427.09 329.03,424.70 329.25,423.17 329.43,420.75 329.61,416.51 329.82,413.05 329.99,419.23 330.19,421.41 330.36,421.59 330.52,422.73 330.72,418.29 330.87,413.11 331.06,414.77 331.21,416.50 331.35,417.47 331.52,419.97 331.66,419.52 331.82,413.29 331.94,410.39 332.07,410.05 332.21,408.39 332.32,406.09 332.45,401.61 332.56,395.31 332.65,387.88 332.76,380.95 332.85,380.26 332.95,387.00 333.02,395.67 333.09,400.63 333.17,394.71 333.23,382.68 333.29,366.63 333.33,355.08 333.37,346.49 333.41,340.21 333.44,337.61 333.46,336.26 333.48,335.74 333.48,335.45 333.49,330.23 333.49,333.32 333.50,346.07 333.51,361.64 333.54,377.45 333.57,388.70 333.60,387.83 333.64,382.35 333.70,377.96 333.75,379.20 333.82,386.81 333.88,396.18 333.95,403.93 334.04,404.24 334.12,399.60 334.23,396.39 334.32,397.55 334.42,401.02 334.54,406.66 334.65,412.23 334.79,418.28 334.91,421.36 335.03,420.28 335.18,413.77 335.32,408.09 335.48,402.73 335.62,400.91 335.77,401.96 335.95,405.31 336.10,411.99 336.29,424.83 336.45,424.77 336.61,417.47 336.81,410.38 336.98,402.81 337.19,399.49 337.36,407.25 337.54,414.39 337.76,423.96 337.94,425.48 338.16,412.11 338.34,409.92 338.53,409.44 338.76,409.04 338.94,413.17 339.17,425.20 339.36,426.94 339.55,426.67 339.78,418.77 339.97,413.57 340.20,416.90 340.39,420.33 340.57,420.91 340.80,414.85 340.99,407.50 341.21,406.55 341.39,408.58 341.57,411.10 341.79,418.55 341.97,419.28 342.18,412.30 342.35,406.42 342.52,399.10 342.72,398.26 342.89,404.51 343.08,417.76 343.24,424.42 343.39,417.87 343.57,404.57 343.72,396.56 343.89,396.24 344.02,403.45 344.16,414.26 344.31,416.77 344.44,407.53 344.58,393.86 344.69,385.36 344.80,382.62 344.93,387.07 345.03,394.72 345.14,400.95 345.23,397.27 345.31,388.99 345.40,380.84 345.47,378.39 345.55,381.98 345.61,390.75 345.66,404.33 345.72,422.42 345.76,413.84 345.80,387.38 345.83,365.05 345.85,345.00 345.87,326.19 345.88,316.30 345.88,312.49 345.88,305.83 345.89,309.53 345.90,317.91 345.92,328.06 345.95,340.84 345.99,358.87 346.03,374.79 346.08,391.92 346.13,401.31 346.19,404.57 346.26,404.42 346.33,405.68 346.42,410.83 346.50,416.08 346.59,418.32 346.69,416.97 346.79,416.12 346.91,414.04 347.02,409.24 347.13,403.94 347.27,402.29 347.40,407.80 347.55,418.50 347.68,421.64 347.82,414.00 347.99,401.33 348.13,394.88 348.31,396.39 348.46,407.25 348.62,418.70 348.81,419.39 348.97,409.96 349.17,400.94 349.34,401.75 349.51,411.26 349.72,419.41 349.90,418.12 350.11,410.03 350.30,406.47 350.48,411.10 350.70,414.10 350.89,419.88 351.11,426.12 351.30,422.45 351.49,421.52 351.72,416.90 351.91,415.48 352.13,417.25 352.32,414.63 352.51,412.79 352.74,415.59 352.93,416.67 353.15,424.31 353.34,429.11 353.53,423.51 353.75,422.18 353.93,419.86 354.15,418.52 354.32,420.43 354.50,423.27 354.71,421.73 354.88,423.62 355.08,425.22 355.25,425.47 355.41,426.47 355.60,425.82 355.75,419.69 355.93,416.43 356.08,414.12 356.22,412.52 356.39,415.34 356.53,422.31 356.68,429.31 356.81,419.29 356.93,411.75 357.07,407.03 357.18,406.35 357.30,409.55 357.40,412.74 357.50,412.49 357.60,409.17 357.69,409.12 357.78,414.18 357.85,414.54 357.92,402.53 357.99,382.04 358.04,367.48 358.09,358.99 358.14,358.57 358.18,364.45 358.21,370.39 358.24,365.84 358.26,352.88 358.27,336.54 358.27,329.47 358.27,320.59 358.28,326.13 358.29,336.45 358.31,353.01 358.34,367.58 358.37,381.37 358.41,386.34 358.45,385.34 358.51,380.91 358.57,378.08 358.64,377.47 358.71,379.06 358.78,381.84 358.88,385.94 358.96,389.64 359.07,393.99 359.16,398.01 359.27,403.12 359.39,410.09 359.50,415.09 359.64,416.10 359.77,412.30 359.89,410.24 360.05,410.55 360.18,409.93 360.35,411.41 360.49,414.28 360.64,417.50 360.82,416.98 360.98,416.85 361.17,417.41 361.33,417.66 361.50,420.09 361.70,423.00 361.87,419.24 362.08,417.59 362.26,416.52 362.44,414.84 362.65,414.03 362.84,410.56 363.06,408.86 363.24,411.33 363.43,411.05 363.65,411.84 363.84,417.29 364.07,418.42 364.26,417.75 364.45,415.66 364.68,413.42 364.87,416.93 365.10,421.51 365.29,424.05 365.47,426.74 365.70,420.52 365.88,417.56 366.10,416.26 366.29,415.46 366.47,417.47 366.68,418.33 366.86,417.51 367.07,411.90 367.24,404.91 367.41,404.84 367.61,408.72 367.77,412.58 367.96,414.46 368.12,409.85 368.27,404.82 368.45,405.48 368.59,408.04 368.76,413.06 368.89,417.64 369.02,420.82 369.17,419.72 369.30,416.39 369.44,416.36 369.55,416.36 369.65,414.79 369.78,411.70 369.87,408.55 369.96,407.03 370.06,408.73 370.14,410.07 370.23,404.71 370.30,394.78 370.36,383.28 370.43,370.76 370.48,363.59 370.53,360.77 370.57,363.50 370.60,369.85 370.63,379.39 370.65,386.10 370.66,390.45 370.67,391.52 370.67,352.25 370.67,350.20 370.68,346.30 370.70,340.82 370.73,337.50 370.75,336.54 370.80,338.44 370.84,341.36 370.90,345.23 370.95,349.17 371.01,354.71 371.09,363.16 371.16,369.45 371.25,373.84 371.34,377.23 371.43,383.66 371.54,395.66 371.64,406.03 371.76,411.89 371.87,410.77 371.99,410.42 372.13,413.32 372.26,418.34 372.41,426.34 372.55,422.62 372.69,418.56 372.86,419.90 373.01,426.44 373.19,423.91 373.34,417.31 373.50,417.45 373.69,415.40 373.86,415.42 374.06,416.22 374.23,415.76 374.40,416.50 374.62,421.51 374.79,422.36 375.01,422.94 375.19,420.83 375.38,419.40 375.60,425.58 375.79,425.62 376.01,421.11 376.20,415.08 376.39,412.24 376.62,417.97 376.81,419.61 377.03,420.94 377.22,418.60 377.41,413.26 377.64,411.18 377.83,409.97 378.05,414.39 378.24,421.71 378.42,420.48 378.64,416.95 378.83,412.97 379.04,408.47 379.22,407.41 379.39,407.61 379.60,407.93 379.77,407.63 379.97,406.25 380.13,403.38 380.29,400.84 380.48,402.28 380.63,404.50 380.81,401.66 380.95,396.62 381.09,390.96 381.26,385.73 381.39,385.11 381.54,389.57 381.67,391.09 381.78,389.10 381.92,386.94 382.03,388.67 382.13,393.92 382.25,396.72 382.34,388.70 382.44,372.62 382.52,362.67 382.60,361.89 382.68,375.76 382.74,393.06 382.81,390.33 382.86,365.76 382.91,341.51 382.95,324.13 382.98,321.80 383.02,330.70 383.04,342.40 383.05,352.43 383.06,358.53 383.06,337.25 383.06,337.69 383.07,338.79 383.09,340.49 383.11,343.27 383.14,346.38 383.18,351.63 383.22,357.87 383.27,366.35 383.33,379.79 383.39,393.12 383.47,408.95 383.54,418.24 383.61,419.50 383.71,411.87 383.80,402.76 383.91,393.71 384.01,391.73 384.11,395.60 384.25,405.34 384.36,416.35 384.50,427.56 384.63,426.85 384.76,420.16 384.92,410.99 385.05,409.03 385.22,413.86 385.37,421.12 385.52,426.29 385.70,427.37 385.86,424.39 386.05,421.12 386.22,422.22 386.39,424.09 386.59,421.57 386.76,422.65 386.97,424.77 387.15,423.60 387.33,424.74 387.55,427.75 387.73,426.67 387.95,427.09 388.14,421.94 388.33,418.51 388.55,416.87 388.74,415.54 388.97,416.35 389.16,422.03 389.35,426.50 389.58,428.78 389.77,426.76 390.00,422.08 390.18,421.51 390.37,420.58 390.60,419.51 390.78,422.55 391.00,429.28 391.18,427.30 391.36,424.13 391.58,418.88 391.75,414.83 391.96,419.70 392.13,424.82 392.29,426.50 392.49,425.88 392.65,421.01 392.84,414.79 392.99,413.77 393.14,414.23 393.32,414.80 393.46,416.07 393.60,415.93 393.76,413.08 393.89,412.10 394.03,414.39 394.15,416.41 394.27,416.60 394.40,411.90 394.50,404.77 394.62,396.26 394.71,391.02 394.80,387.78 394.90,384.45 394.97,379.87 395.06,372.74 395.12,368.27 395.18,367.71 395.24,373.51 395.29,381.23 395.34,381.23 395.37,363.61 395.40,334.97 395.43,297.57 395.44,270.79 395.45,250.07 395.45,245.15 395.45,252.20 395.46,250.00 395.48,252.33 395.50,269.19 395.53,298.15 395.56,333.54 395.61,351.12 395.65,331.56 395.71,310.82 395.77,318.15 395.84,348.93 395.92,386.85 395.99,366.95 396.09,332.55 396.18,328.91 396.27,348.86 396.38,381.26 396.49,381.59 396.62,362.27 396.73,359.55 396.85,371.67 397.00,389.36 397.12,390.12 397.28,382.49 397.42,386.57 397.56,400.75 397.73,416.53 397.88,412.92 398.07,403.75 398.22,398.09 398.38,399.93 398.58,410.06 398.75,418.37 398.95,420.50 399.12,418.02 399.30,419.80 399.51,420.89 399.69,412.56 399.91,404.44 400.09,403.25 400.27,412.38 400.50,424.10 400.68,410.77 400.91,398.38 401.10,394.98 401.29,401.73 401.52,420.16 401.71,424.80 401.94,421.16 402.12,416.31 402.31,413.87 402.54,409.95 402.73,404.70 402.95,407.65 403.14,414.24 403.32,416.65 403.54,415.56 403.72,417.14 403.93,422.67 404.11,418.65 404.28,412.94 404.49,406.47 404.65,405.11 404.82,408.15 405.01,409.54 405.17,407.65 405.36,417.06 405.51,424.64 405.65,415.64 405.83,398.72 405.96,391.29 406.12,396.41 406.25,409.36 406.38,402.99 406.52,376.53 406.64,363.63 406.77,365.30 406.88,380.58 406.97,399.83 407.09,392.52 407.18,369.41 407.28,349.95 407.35,346.09 407.42,351.29 407.50,359.53 407.56,359.87 407.63,353.36 407.67,348.51 407.72,347.56 407.76,351.40 407.79,356.45 407.81,360.75 407.83,360.88 407.84,358.82 407.85,357.05 407.85,351.39 407.86,354.84 407.87,360.21 407.89,367.23 407.92,376.71 407.95,384.51 407.99,392.62 408.04,397.82 408.09,401.73 408.15,405.82 408.22,409.77 408.30,415.46 408.37,418.74 408.45,417.52 408.55,413.24 408.64,411.76 408.76,413.29 408.86,415.61 408.97,417.52 409.10,418.49 409.22,418.21 409.36,415.21 409.49,413.09 409.62,415.61 409.78,420.97 409.92,423.37 410.10,421.18 410.25,417.07 410.40,409.26 410.58,405.81 410.74,410.83 410.94,415.06 411.11,420.39 411.27,426.76 411.48,420.14 411.65,414.20 411.87,411.65 412.05,408.23 412.23,408.67 412.45,417.37 412.63,420.45 412.85,419.03 413.04,422.41 413.23,420.23 413.45,415.89 413.64,420.29 413.87,419.12 414.06,422.22 414.25,427.42 414.48,423.49 414.67,422.29 414.90,423.14 415.08,420.14 415.27,421.38 415.49,422.13 415.68,423.67 415.86,422.96 416.08,417.15 416.26,416.95 416.47,420.30 416.64,422.45 416.81,419.95 417.01,411.27 417.18,403.44 417.37,398.46 417.53,398.48 417.69,397.45 417.87,401.83 418.02,414.54 418.19,430.75 418.33,423.14 418.47,413.74 418.62,406.77 418.75,401.08 418.89,401.68 419.01,411.27 419.12,421.32 419.25,417.57 419.35,408.24 419.46,400.61 419.55,400.28 419.64,404.45 419.73,408.92 419.80,405.99 419.88,395.86 419.94,386.22 420.00,378.60 420.06,375.67 420.10,379.92 420.15,391.29 420.18,399.69 420.20,397.29 420.22,382.05 420.23,369.26 420.24,361.22 420.24,314.73 420.24,313.58 420.26,311.35 420.28,312.77 420.30,325.57 420.33,346.44 420.37,369.16 420.42,381.73 420.47,382.71 420.54,393.43 420.60,405.10 420.66,389.12 420.75,357.95 420.83,346.47 420.93,357.73 421.02,376.02 421.11,376.64 421.23,359.84 421.34,357.90 421.47,377.85 421.59,400.41 421.71,401.31 421.86,389.65 421.99,390.02 422.15,403.32 422.29,413.03 422.43,406.84 422.61,402.99 422.76,411.40 422.95,411.05 423.11,395.74 423.27,393.43 423.47,405.51 423.63,417.89 423.84,412.34 424.01,402.05 424.19,400.28 424.40,407.54 424.58,405.18 424.80,400.83 424.99,400.99 425.17,407.45 425.40,415.81 425.58,413.16 425.81,416.51 426.00,422.13 426.19,418.91 426.42,403.86 426.61,393.60 426.80,390.36 427.03,397.11 427.21,407.73 427.44,414.05 427.63,407.55 427.81,399.73 428.03,401.47 428.22,408.37 428.43,417.80 428.61,414.56 428.79,408.51 429.00,409.73 429.17,409.52 429.37,399.67 429.54,393.08 429.70,389.30 429.90,392.15 430.05,397.47 430.23,395.72 430.38,393.12 430.53,390.09 430.70,382.56 430.83,377.28 430.99,379.31 431.12,387.23 431.24,394.26 431.38,386.10 431.49,368.25 431.62,357.08 431.72,364.14 431.82,382.72 431.93,392.75 432.01,372.00 432.11,347.72 432.18,344.79 432.25,361.37 432.33,403.21 432.38,416.00 432.44,359.15 432.49,318.60 432.53,291.18 432.56,279.21 432.59,285.03 432.61,303.26 432.62,319.55 432.63,330.25 432.63,384.17 432.64,386.34 432.65,393.20 432.67,401.40 432.69,410.18 432.72,417.74 432.76,418.20 432.81,414.66 432.85,412.62 432.91,413.03 432.98,417.01 433.04,422.25 433.13,425.14 433.20,420.85 433.29,416.20 433.39,413.16 433.49,411.93 433.60,411.58 433.71,413.35 433.82,416.82 433.96,421.57 434.08,424.94 434.23,425.61 434.36,425.86 434.49,426.30 434.65,426.90 434.80,428.66 434.97,431.23 435.12,429.93 435.28,428.27 435.47,430.42 435.63,429.48 435.83,425.22 435.99,419.09 436.16,411.36 436.37,408.64 436.55,409.49 436.76,409.06 436.94,412.23 437.12,417.80 437.34,424.13 437.53,422.73 437.71,417.26 437.94,411.80 438.13,409.97 438.36,409.97 438.54,408.45 438.73,412.62 438.96,417.32 439.15,419.49 439.38,418.11 439.57,414.61 439.76,416.07 439.98,417.68 440.17,418.18 440.39,417.72 440.57,416.13 440.76,415.18 440.97,411.61 441.15,409.38 441.36,408.95 441.53,413.54 441.70,419.96 441.90,420.70 442.06,413.51 442.26,402.98 442.41,396.82 442.57,397.27 442.75,403.86 442.89,410.54 443.06,418.42 443.20,414.01 443.33,402.25 443.48,390.63 443.61,387.66 443.75,391.35 443.86,399.02 443.97,410.26 444.10,420.98 444.19,412.92 444.30,397.66 444.39,388.99 444.47,386.78 444.56,393.19 444.63,403.95 444.71,416.87 444.77,417.12 444.82,408.65 444.87,398.98 444.91,393.75 444.95,390.12 444.98,387.66 445.00,384.51 445.02,380.09 445.02,377.22 445.03,200.31 445.03,200.19 445.04,202.66 445.05,220.35 445.08,256.25 445.11,321.63 445.14,364.08 445.18,348.86 445.24,318.64 445.29,322.69 445.36,351.90 445.42,361.55 445.49,352.11 445.58,357.58 445.66,380.75 445.77,380.71 445.86,358.09 445.96,354.63 446.08,386.77 446.19,425.02 446.33,385.36 446.45,372.04 446.57,386.42 446.72,421.04 446.86,403.67 447.02,382.98 447.16,392.74 447.31,416.06 447.49,402.39 447.64,389.34 447.83,398.30 447.99,399.93 448.15,392.46 448.35,395.77 448.52,410.05 448.69,408.27 448.90,388.90 449.08,391.45 449.30,399.67 449.48,392.09 449.66,385.20 449.88,391.53 450.07,411.87 450.30,406.65 450.48,398.10 450.67,400.44 450.90,405.76 451.09,418.04 451.32,421.04 451.51,422.36 451.70,410.05 451.93,403.58 452.11,405.09 452.34,402.33 452.53,397.80 452.71,396.92 452.93,413.22 453.11,409.18 453.33,387.36 453.51,383.14 453.68,391.60 453.89,414.12 454.06,411.04 454.26,396.38 454.43,404.96 454.59,417.28 454.78,396.53 454.93,385.84 455.11,384.55 455.26,394.38 455.40,400.44 455.56,387.55 455.70,380.44 455.85,389.47 455.98,402.90 456.10,403.84 456.23,392.13 456.34,383.32 456.47,382.41 456.57,391.72 456.66,404.73 456.77,398.88 456.85,378.06 456.94,361.49 457.01,364.29 457.08,383.52 457.15,416.00 457.20,396.54 457.26,354.45 457.30,327.05 457.33,309.75 457.37,301.36 457.39,301.46 457.41,304.65 457.42,306.75 457.42,307.49 457.42,392.83 457.43,396.97 457.44,405.41 457.46,413.55 457.49,419.35 457.53,417.70 457.57,412.35 457.62,407.15 457.67,405.24 457.73,405.36 457.80,407.01 457.87,408.76 457.96,411.14 458.04,412.67 458.13,411.10 458.23,405.99 458.33,404.52 458.45,408.19 458.56,413.59 458.67,417.97 458.81,416.82 458.94,414.71 459.09,416.04 459.22,414.98 459.36,415.68 459.53,423.20 459.67,427.89 459.82,422.00 460.00,414.98 460.16,413.26 460.35,409.00 460.51,409.72 460.68,414.03 460.88,420.38 461.05,423.57 461.26,418.15 461.44,413.27 461.62,412.26 461.84,412.80 462.02,414.14 462.24,416.53 462.43,420.84 462.61,423.33 462.84,419.96 463.03,414.80 463.26,411.55 463.45,414.77 463.64,418.49 463.86,423.88 464.05,426.54 464.28,420.72 464.47,415.87 464.66,410.88 464.88,407.28 465.07,408.63 465.29,419.78 465.47,427.39 465.65,427.28 465.86,417.00 466.04,409.04 466.25,406.96 466.42,409.07 466.59,410.15 466.79,415.16 466.95,415.76 467.14,408.88 467.29,404.54 467.44,400.78 467.62,398.97 467.76,403.20 467.93,408.66 468.07,407.67 468.20,403.01 468.35,397.48 468.47,393.40 468.61,392.45 468.72,397.20 468.82,404.11 468.94,408.74 469.04,407.19 469.14,403.37 469.23,402.68 469.30,404.91 469.39,408.90 469.46,410.36 469.53,408.00 469.58,403.60 469.63,398.72 469.68,393.45 469.72,389.11 469.75,382.38 469.78,375.05 469.80,367.16 469.81,359.45 469.81,356.35 469.81,254.90 469.82,263.71 469.83,283.20 469.85,321.89 469.88,360.04 469.91,379.18 469.95,363.01 469.99,352.69 470.05,359.07 470.11,358.89 470.18,337.62 470.25,328.92 470.32,345.73 470.42,383.83 470.50,368.67 470.61,331.39 470.70,334.61 470.81,374.12 470.93,421.17 471.04,369.55 471.16,348.23 471.31,373.17 471.43,415.71 471.59,379.86 471.72,354.50 471.86,363.16 472.03,412.95 472.18,398.84 472.36,358.31 472.52,362.69 472.68,390.93 472.87,396.48 473.04,377.12 473.24,381.31 473.41,408.01 473.59,410.67 473.80,388.17 473.98,400.96 474.19,425.64 474.38,396.89 474.56,382.96 474.78,397.40 474.97,421.39 475.19,389.11 475.38,379.34 475.57,392.14 475.80,421.18 475.99,413.77 476.22,392.87 476.41,391.50 476.60,402.16 476.83,419.47 477.01,425.64 477.24,402.31 477.42,387.35 477.61,384.41 477.83,397.80 478.01,412.87 478.22,416.21 478.40,406.24 478.57,398.21 478.78,394.22 478.95,395.60 479.15,410.05 479.31,424.68 479.47,408.11 479.66,389.68 479.81,385.61 479.99,400.07 480.13,415.48 480.27,396.53 480.43,375.26 480.56,375.20 480.71,394.96 480.84,418.42 480.95,422.87 481.09,394.82 481.19,378.40 481.32,372.31 481.41,379.16 481.50,394.51 481.60,400.21 481.68,372.57 481.77,333.62 481.84,313.76 481.90,314.87 481.97,348.77 482.02,393.68 482.07,363.07 482.11,298.16 482.14,244.97 482.17,209.08 482.19,201.41 482.20,207.15 482.21,212.95 482.21,352.04 482.21,354.10 482.22,358.33 482.24,365.77 482.27,373.22 482.29,381.06 482.34,390.00 482.38,396.48 482.44,402.66 482.49,406.51 482.55,409.84 482.63,414.52 482.70,418.86 482.78,421.28 482.88,421.12 482.97,422.43 483.08,428.48 483.18,430.82 483.28,425.15 483.41,420.40 483.53,417.64 483.67,416.05 483.80,413.46 483.93,411.45 484.09,415.29 484.23,421.44 484.40,425.26 484.55,428.02 484.70,431.86 484.88,425.97 485.04,419.82 485.23,418.83 485.40,417.86 485.57,415.63 485.77,413.28 485.94,419.25 486.16,427.68 486.33,429.72 486.51,430.02 486.73,422.04 486.92,417.88 487.14,421.07 487.33,417.69 487.51,418.88 487.74,424.65 487.93,428.26 488.16,426.05 488.35,416.98 488.54,412.81 488.76,414.38 488.95,419.44 489.18,422.79 489.37,421.81 489.56,418.76 489.78,415.37 489.96,414.16 490.18,410.08 490.37,410.42 490.54,413.95 490.76,416.79 490.93,415.66 491.14,407.64 491.31,404.75 491.47,405.84 491.67,408.64 491.83,412.10 492.02,412.99 492.17,411.17 492.32,411.82 492.49,412.25 492.63,412.11 492.80,412.28 492.93,413.18 493.06,413.90 493.21,418.20 493.32,424.58 493.46,419.60 493.57,411.52 493.67,405.05 493.79,400.66 493.88,401.38 493.98,408.01 494.06,416.31 494.14,418.41 494.22,402.28 494.28,384.41 494.35,365.72 494.40,355.55 494.45,351.48 494.49,353.72 494.52,358.80 494.56,363.57 494.58,363.43 494.59,360.11 494.60,356.03 494.60,316.80 494.60,326.62 494.61,351.37 494.63,385.76 494.65,394.44 494.68,354.26 494.72,316.73 494.76,294.92 494.81,301.47 494.87,333.15 494.93,364.77 494.99,382.95 495.08,386.38 495.16,394.00 495.25,412.14 495.34,415.06 495.43,407.60 495.55,401.07 495.65,389.09 495.79,376.52 495.90,380.50 496.02,401.76 496.17,410.91 496.30,383.68 496.46,373.00 496.59,382.23 496.73,397.40 496.91,384.35 497.06,366.45 497.24,370.46 497.40,402.99 497.56,419.66 497.76,385.73 497.93,377.63 498.13,395.93 498.30,426.25 498.48,402.87 498.69,380.93 498.87,386.80 499.09,411.55 499.27,430.86 499.46,409.13 499.68,396.11 499.87,397.02 500.09,404.16 500.28,416.01 500.47,421.87 500.70,401.41 500.89,390.96 501.12,388.82 501.31,392.95 501.50,397.56 501.72,401.31 501.91,394.44 502.14,389.32 502.32,397.40 502.50,414.57 502.72,404.68 502.90,383.30 503.12,383.72 503.29,406.21 503.46,421.48 503.67,382.20 503.83,362.88 504.03,372.12 504.19,398.86 504.35,417.83 504.53,394.67 504.68,378.29 504.86,372.63 505.00,379.42 505.14,395.59 505.30,424.95 505.43,413.37 505.57,390.16 505.69,389.21 505.81,400.72 505.94,406.03 506.04,394.16 506.16,386.73 506.25,394.27 506.34,404.66 506.44,397.83 506.51,389.05 506.60,390.58 506.66,394.40 506.72,384.02 506.78,356.99 506.83,333.27 506.88,307.19 506.91,287.98 506.94,272.77 506.97,261.85 506.98,258.17 506.99,257.19 506.99,257.08 506.99,325.33 507.00,330.01 507.02,337.11 507.04,346.92 507.07,361.79 507.10,376.10 507.15,393.87 507.19,406.11 507.24,409.80 507.31,401.03 507.38,390.99 507.46,381.92 507.53,378.55 507.61,379.04 507.72,383.94 507.81,391.49 507.92,403.74 508.03,411.16 508.13,408.94 508.27,399.30 508.39,393.27 508.54,392.40 508.66,395.01 508.79,399.44 508.96,409.79 509.10,418.45 509.27,418.17 509.42,413.40 509.58,411.25 509.76,408.91 509.92,410.74 510.12,420.00 510.29,425.59 510.46,423.97 510.66,418.82 510.84,412.87 511.05,414.49 511.23,421.44 511.41,428.86 511.63,426.20 511.81,415.70 512.04,407.65 512.22,407.43 512.41,409.61 512.64,414.41 512.83,421.35 513.06,424.34 513.25,418.44 513.44,411.12 513.66,404.37 513.85,405.26 514.08,411.93 514.27,416.12 514.45,419.82 514.68,420.27 514.86,421.64 515.08,421.37 515.26,421.86 515.44,427.39 515.65,431.26 515.82,426.85 516.03,425.21 516.19,421.96 516.36,424.30 516.55,430.71 516.71,421.47 516.90,409.97 517.05,404.66 517.19,399.97 517.37,398.90 517.50,404.53 517.66,417.10 517.79,427.97 517.92,421.19 518.06,409.96 518.18,401.41 518.31,394.58 518.42,394.06 518.51,397.30 518.63,403.46 518.72,408.67 518.82,413.18 518.89,415.38 518.96,417.22 519.04,419.81 519.10,422.41 519.16,425.17 519.21,425.25 519.26,420.10 519.30,411.16 519.33,403.36 519.35,396.15 519.37,389.14 519.38,385.22 519.39,383.31 519.39,110.63 519.39,114.27 519.41,136.09 519.43,182.01 519.46,273.23 519.49,346.71 519.53,325.56 519.58,259.33 519.63,248.66 519.69,296.96 519.76,354.97 519.82,354.81 519.91,314.32 519.99,312.79 520.09,345.19 520.18,362.64 520.28,354.39 520.40,352.97 520.51,371.70 520.64,404.32 520.76,405.45 520.88,379.66 521.03,356.39 521.16,355.37 521.32,380.87 521.46,421.33 521.61,399.62 521.79,362.84 521.94,362.52 522.12,392.13 522.28,392.20 522.45,378.95 522.65,386.19 522.81,407.42 523.02,388.95 523.19,365.52 523.37,374.43 523.59,419.32 523.77,387.15 523.99,353.05 524.17,358.09 524.36,378.41 524.58,371.46 524.77,355.40 524.99,362.26 525.18,378.22 525.37,369.16 525.60,355.32 525.79,366.62 526.02,378.46 526.21,360.24 526.40,353.97 526.62,376.94 526.81,384.32 527.03,356.69 527.22,351.11 527.40,380.69 527.62,392.56 527.80,360.81 528.01,353.90 528.18,374.94 528.35,384.65 528.55,352.90 528.72,344.34 528.91,358.68 529.07,367.35 529.23,367.85 529.41,377.73 529.56,390.07 529.73,376.85 529.87,361.25 530.01,368.13 530.16,398.19 530.29,394.02 530.43,374.91 530.55,378.88 530.66,382.09 530.79,364.21 530.89,353.49 530.98,357.90 531.09,354.00 531.18,325.45 531.27,299.08 531.34,301.14 531.41,311.41 531.48,297.01 531.54,272.16 531.60,268.63 531.64,295.63 531.68,324.48 531.72,303.06 531.74,257.22 531.76,214.70 531.77,196.79 531.78,190.18 531.78,383.42 531.78,386.40 531.80,392.87 531.82,396.69 531.84,395.09 531.87,386.82 531.91,379.19 531.96,373.85 532.01,374.34 532.06,379.44 532.14,389.78 532.20,398.47 532.29,401.95 532.37,397.62 532.45,392.30 532.56,390.50 532.65,393.75 532.77,401.53 532.88,409.85 532.99,418.11 533.13,418.83 533.25,411.37 533.40,403.45 533.53,403.63 533.66,410.03 533.83,418.35 533.97,425.80 534.15,426.38 534.30,415.72 534.46,407.33 534.65,407.67 534.81,411.52 535.01,416.78 535.17,423.46 535.34,421.95 535.55,409.73 535.73,407.90 535.94,408.81 536.12,410.69 536.31,415.72 536.53,421.17 536.71,416.93 536.94,418.21 537.12,413.70 537.31,411.49 537.54,416.96 537.73,419.83 537.96,424.32 538.15,421.02 538.34,414.67 538.57,415.09 538.75,418.99 538.98,421.19 539.17,427.24 539.35,424.37 539.57,420.57 539.76,419.65 539.97,414.37 540.15,415.79 540.33,419.65 540.54,423.80 540.71,423.91 540.91,422.50 541.08,422.21 541.24,423.12 541.44,424.32 541.59,424.97 541.77,425.98 541.92,427.92 542.07,430.72 542.24,426.00 542.37,420.26 542.50,415.29 542.66,412.57 542.78,411.76 542.92,410.69 543.03,410.83 543.14,409.51 543.26,402.91 543.36,395.62 543.47,388.38 543.55,386.09 543.63,388.46 543.72,396.91 543.79,406.71 543.87,413.77 543.92,405.06 543.97,387.93 544.03,364.74 544.07,345.98 544.10,325.87 544.13,311.86 544.15,300.72 544.16,291.47 544.17,287.38 544.17,250.97 544.18,260.30 544.19,281.69 544.21,306.60 544.23,304.97 544.26,275.29 544.30,252.96 544.34,252.21 544.39,288.88 544.45,343.70 544.52,392.22 544.58,359.28 544.65,328.91 544.74,328.26 544.83,354.49 544.93,399.01 545.03,408.98 545.12,387.54 545.25,377.17 545.36,385.75 545.50,407.27 545.62,404.52 545.74,379.03 545.90,360.22 546.03,365.31 546.19,386.75 546.34,397.17 546.48,386.87 546.66,380.70 546.82,393.30 547.01,415.88 547.17,392.74 547.33,376.75 547.53,387.91 547.70,415.11 547.91,416.75 548.09,399.66 548.26,399.18 548.48,409.93 548.66,395.40 548.88,387.34 549.07,402.05 549.25,415.51 549.48,384.53 549.67,366.26 549.90,375.94 550.08,391.77 550.28,383.11 550.50,371.73 550.69,382.84 550.92,391.92 551.11,376.46 551.30,375.76 551.52,397.85 551.71,401.56 551.93,372.10 552.11,370.58 552.30,400.49 552.51,417.21 552.69,389.34 552.90,383.46 553.07,402.63 553.24,419.77 553.44,388.51 553.60,381.25 553.77,390.37 553.95,404.97 554.11,408.52 554.29,400.68 554.43,395.25 554.57,395.08 554.74,398.13 554.87,407.93 555.02,419.90 555.15,408.67 555.27,397.13 555.40,400.11 555.51,413.88 555.64,427.36 555.73,408.41 555.83,389.65 555.93,375.11 556.01,373.92 556.10,386.05 556.17,393.31 556.24,380.55 556.31,361.95 556.36,361.65 556.41,374.12 556.45,362.84 556.48,323.81 556.52,272.70 556.54,240.71 556.56,218.44 556.56,210.33 556.57,208.32 556.57,355.75 556.58,361.73 556.59,372.25 556.62,380.88 556.64,386.40 556.68,387.60 556.72,386.54 556.78,387.41 556.83,392.17 556.89,401.13 556.96,416.26 557.03,427.18 557.12,416.12 557.20,405.15 557.29,397.51 557.40,392.02 557.50,391.09 557.62,396.54 557.73,406.28 557.84,417.21 557.99,419.25 558.11,411.64 558.26,407.48 558.40,406.89 558.53,406.85 558.70,412.39 558.85,420.23 559.03,424.74 559.18,423.68 559.34,424.65 559.53,422.14 559.69,423.83 559.89,430.74 560.06,428.57 560.23,426.35 560.44,425.96 560.62,419.96 560.84,422.85 561.02,428.11 561.20,426.95 561.42,422.42 561.61,413.08 561.84,410.75 562.02,415.93 562.21,421.29 562.44,422.77 562.63,420.33 562.86,416.91 563.05,415.44 563.24,412.94 563.47,409.83 563.65,418.95 563.88,426.58 564.07,425.30 564.25,418.50 564.47,408.93 564.65,413.19 564.83,418.45 565.05,422.55 565.22,426.99 565.43,420.36 565.60,415.96 565.77,415.39 565.97,410.05 566.13,409.58 566.32,416.37 566.47,426.05 566.62,431.65 566.80,426.77 566.94,420.07 567.10,413.99 567.24,411.78 567.37,412.48 567.52,416.93 567.64,420.51 567.77,419.45 567.88,418.55 567.99,417.92 568.11,414.52 568.20,410.96 568.31,407.15 568.39,404.67 568.47,403.76 568.55,405.31 568.62,406.56 568.69,404.30 568.74,400.59 568.79,398.44 568.84,400.15 568.87,405.25 568.91,414.31 568.93,422.06 568.94,426.11 568.96,423.81 568.96,422.25 568.96,258.82 568.97,255.90 568.98,255.30 569.00,266.16 569.03,289.78 569.07,334.31 569.11,375.75 569.15,401.06 569.21,393.29 569.27,392.63 569.34,413.69 569.41,418.13 569.48,389.07 569.58,368.26 569.67,370.72 569.77,393.26 569.87,414.15 569.97,404.97 570.10,381.20 570.21,373.31 570.35,382.59 570.48,399.91 570.60,414.23 570.76,406.52 570.90,401.30 571.07,401.92 571.21,403.23 571.36,402.70 571.54,397.29 571.70,393.10 571.89,396.44 572.05,401.76 572.22,403.43 572.42,400.11 572.59,396.95 572.80,400.85 572.98,406.86 573.16,407.63 573.38,402.20 573.56,398.05 573.78,402.33 573.97,410.27 574.15,416.98 574.38,414.56 574.57,405.89 574.80,399.27 574.99,397.98 575.18,406.06 575.40,417.72 575.59,416.07 575.78,409.19 576.01,401.93 576.20,408.23 576.42,428.77 576.61,415.56 576.79,399.13 577.01,385.25 577.19,382.80 577.40,391.74 577.58,399.03 577.75,397.68 577.96,384.53 578.13,376.34 578.33,382.16 578.49,403.74 578.65,417.55 578.83,383.99 578.98,367.97 579.16,374.67 579.30,389.57 579.44,386.88 579.61,364.50 579.74,361.18 579.89,385.58 580.01,400.72 580.12,369.90 580.26,341.73 580.36,346.70 580.48,381.13 580.58,393.13 580.67,360.35 580.77,329.80 580.84,328.29 580.93,345.42 581.00,355.06 581.06,352.26 581.12,351.95 581.17,364.97 581.22,382.36 581.26,372.95 581.29,350.95 581.32,332.55 581.34,327.76 581.35,328.81 581.35,330.12 581.35,331.35 581.36,333.74 581.37,338.20 581.39,346.51 581.42,355.86 581.45,367.17 581.49,382.63 581.53,395.85 581.59,408.29 581.65,409.92 581.71,403.38 581.79,393.60 581.86,387.77 581.96,384.74 582.04,385.68 582.13,390.45 582.24,401.58 582.35,411.96 582.47,414.34 582.58,407.74 582.70,400.76 582.85,397.03 582.97,397.63 583.13,401.19 583.26,409.63 583.40,421.78 583.58,425.63 583.72,419.45 583.90,414.06 584.06,411.11 584.22,410.60 584.41,418.43 584.58,425.56 584.78,425.08 584.95,419.17 585.13,411.92 585.34,410.44 585.52,415.15 585.73,420.68 585.92,422.36 586.10,416.23 586.32,410.46 586.51,410.39 586.70,409.30 586.92,412.58 587.11,420.49 587.34,429.85 587.53,426.43 587.72,418.25 587.95,413.35 588.14,415.41 588.37,422.81 588.55,427.37 588.74,427.00 588.96,419.46 589.15,417.01 589.37,417.39 589.55,418.25 589.73,425.64 589.94,428.68 590.11,419.96 590.32,413.37 590.49,407.77 590.65,407.48 590.85,415.34 591.01,425.18 591.20,428.42 591.35,421.61 591.50,412.67 591.67,404.96 591.81,405.24 591.97,410.52 592.10,416.97 592.23,422.67 592.38,422.00 592.49,416.81 592.63,412.78 592.73,413.47 592.84,417.22 592.95,422.87 593.04,424.60 593.14,420.82 593.22,416.43 593.30,412.26 593.38,407.08 593.44,402.34 593.51,396.24 593.56,391.00 593.60,385.80 593.65,379.98 593.68,375.79 593.71,371.84 593.73,369.48 593.74,367.92 593.75,367.01 593.75,90.69 593.75,88.16 593.76,89.87 593.78,108.50 593.81,169.26 593.83,254.76 593.88,382.59 593.92,379.37 593.97,303.61 594.03,269.89 594.09,290.60 594.17,347.91 594.24,371.21 594.32,345.24 594.42,318.93 594.51,316.06 594.62,321.71 594.72,325.59 594.82,332.96 594.95,344.53 595.07,342.51 595.21,328.82 595.34,329.20 595.47,350.80 595.63,384.99 595.77,386.99 595.94,368.58 596.09,368.65 596.24,388.86 596.42,407.35 596.58,379.82 596.77,359.81 596.94,368.32 597.11,385.79 597.31,382.48 597.48,364.87 597.66,359.73 597.87,379.74 598.05,401.82 598.27,392.67 598.46,380.99 598.64,381.35 598.87,396.77 599.05,410.60 599.28,406.28 599.47,401.27 599.66,399.56 599.89,400.19 600.08,409.84 600.30,409.54 600.49,394.43 600.68,390.11 600.91,396.78 601.10,397.38 601.32,386.72 601.50,384.62 601.69,397.06 601.91,406.14 602.08,398.46 602.30,402.25 602.47,414.50 602.64,419.48 602.85,417.07 603.01,426.53 603.21,394.74 603.37,371.32 603.53,372.23 603.71,407.61 603.86,404.08 604.03,361.60 604.17,352.51 604.31,378.38 604.47,420.37 604.60,367.86 604.75,331.88 604.86,345.14 604.98,393.57 605.11,400.10 605.21,355.36 605.33,342.12 605.42,363.31 605.50,392.22 605.60,385.36 605.68,368.74 605.76,355.66 605.82,340.77 605.88,330.79 605.94,347.23 605.99,377.68 606.03,338.89 606.06,264.94 606.09,199.97 606.12,151.47 606.13,134.63 606.14,130.19 606.14,343.68 606.14,345.11 606.15,351.17 606.17,359.05 606.19,370.38 606.22,380.04 606.26,388.82 606.30,397.45 606.35,403.07 606.41,408.46 606.47,411.94 606.54,414.10 606.62,414.33 606.70,412.88 606.79,410.56 606.88,410.05 606.97,413.15 607.09,421.00 607.19,423.62 607.33,418.17 607.44,413.70 607.56,410.68 607.71,408.45 607.84,405.85 608.00,406.59 608.13,414.01 608.27,422.55 608.45,428.27 608.60,424.91 608.75,417.36 608.94,404.68 609.10,401.71 609.30,404.66 609.47,406.46 609.64,410.23 609.84,415.30 610.02,419.06 610.23,422.88 610.41,418.79 610.59,412.73 610.81,407.88 611.00,408.85 611.22,412.84 611.41,415.28 611.60,421.32 611.82,427.52 612.01,423.86 612.24,418.62 612.43,413.25 612.62,412.94 612.85,420.34 613.04,427.90 613.26,430.42 613.45,424.33 613.64,417.37 613.86,413.11 614.04,412.43 614.26,407.69 614.44,411.02 614.62,415.49 614.83,416.83 615.00,416.14 615.21,412.18 615.37,410.96 615.54,413.87 615.73,416.64 615.89,418.85 616.07,421.57 616.22,423.37 616.37,423.15 616.54,419.35 616.68,414.29 616.84,409.37 616.97,407.42 617.09,407.24 617.23,408.76 617.35,409.09 617.48,403.05 617.58,393.85 617.68,385.00 617.79,378.85 617.88,379.56 617.98,388.10 618.05,400.52 618.13,415.13 618.20,419.11 618.26,403.98 618.32,385.38 618.37,373.76 618.41,366.48 618.45,362.18 618.48,360.06 618.51,356.73 618.52,353.01 618.53,349.69 618.53,348.18 618.53,355.42 618.54,361.82 618.56,375.08 618.58,393.60 618.61,387.27 618.64,353.60 618.69,321.26 618.73,316.47 618.78,331.21 618.85,346.94 618.92,334.54 619.00,316.76 619.07,323.20 619.15,346.14 619.26,362.44 619.35,353.38 619.46,351.81 619.57,372.16 619.67,394.65 619.81,379.41 619.93,368.75 620.05,382.78 620.20,418.27 620.33,390.27 620.50,362.87 620.64,366.04 620.78,388.44 620.96,411.61 621.12,395.84 621.30,388.30 621.46,401.87 621.63,408.76 621.83,396.73 622.00,399.54 622.20,423.59 622.38,413.51 622.55,386.81 622.77,385.93 622.95,409.58 623.17,415.94 623.35,386.93 623.54,371.40 623.76,388.60 623.95,416.49 624.18,402.65 624.37,389.16 624.56,389.74 624.79,415.73 624.98,413.72 625.20,398.96 625.39,404.36 625.58,416.16 625.81,404.04 625.99,382.48 626.22,379.92 626.40,391.58 626.58,396.19 626.80,383.31 626.98,372.63 627.19,384.00 627.36,406.10 627.53,407.03 627.73,394.13 627.90,389.41 628.09,399.68 628.25,403.18 628.41,396.16 628.59,395.91 628.73,397.09 628.91,386.82 629.04,373.34 629.18,368.56 629.33,379.07 629.46,390.29 629.60,380.33 629.72,364.33 629.83,358.68 629.96,367.54 630.05,380.53 630.17,373.45 630.26,348.85 630.34,332.69 630.43,340.95 630.50,360.05 630.58,341.86 630.64,298.33 630.70,266.29 630.75,261.22 630.80,277.74 630.84,290.20 630.87,275.47 630.89,248.74 630.91,221.57 630.92,208.47 630.93,202.91 630.93,346.87 630.93,353.85 630.95,370.25 630.97,388.63 631.00,411.58 631.03,418.11 631.07,405.09 631.12,388.91 631.17,380.55 631.23,378.13 631.30,382.35 631.36,391.20 631.45,404.92 631.53,414.73 631.63,417.68 631.72,412.92 631.82,406.49 631.94,401.48 632.05,402.54 632.16,407.32 632.30,413.54 632.42,416.36 632.57,417.28 632.70,417.71 632.84,415.71 633.00,415.38 633.15,420.89 633.33,426.51 633.48,425.73 633.63,424.35 633.82,420.37 633.99,415.59 634.19,419.13 634.35,425.40 634.53,429.89 634.73,428.40 634.91,421.22 635.13,413.47 635.31,412.73 635.49,414.73 635.71,417.80 635.90,419.46 636.12,424.16 636.31,425.13 636.50,422.32 636.72,416.76 636.91,412.85 637.14,416.14 637.33,418.25 637.52,419.13 637.75,418.34 637.94,420.83 638.16,423.89 638.35,423.25 638.54,424.77 638.76,428.79 638.94,429.62 639.16,427.55 639.34,425.72 639.51,422.00 639.72,421.74 639.89,428.40 640.09,424.64 640.26,422.40 640.42,415.02 640.61,404.13 640.77,398.25 640.95,404.39 641.10,414.40 641.24,421.18 641.41,427.67 641.55,414.62 641.70,401.02 641.83,394.98 641.95,398.24 642.09,411.38 642.20,421.88 642.33,424.63 642.43,413.87 642.52,400.82 642.63,390.74 642.72,389.36 642.81,395.95 642.88,406.55 642.95,414.18 643.02,403.45 643.08,388.01 643.14,372.96 643.18,365.83 643.22,363.68 643.26,365.72 643.28,368.75 643.30,371.13 643.31,371.46 643.32,371.15 643.32,368.80 643.33,369.17 643.34,370.03 643.36,370.82 643.38,371.52 643.41,372.39 643.45,373.77 643.50,377.44 643.55,383.13 643.60,391.76 643.68,405.82 643.74,419.11 643.81,424.50 643.91,410.54 643.99,399.50 644.10,393.20 644.19,394.65 644.29,399.12 644.42,405.03 644.53,410.73 644.67,415.39 644.79,414.90 644.91,410.92 645.07,408.48 645.20,413.28 645.37,415.08 645.51,414.99 645.66,418.31 645.84,424.12 646.00,428.30 646.19,429.26 646.35,417.75 646.51,409.69 646.71,408.27 646.88,410.49 647.09,414.89 647.27,416.23 647.45,410.81 647.66,407.39 647.85,405.81 648.07,405.75 648.25,409.73 648.44,415.47 648.66,414.82 648.85,409.75 649.08,402.23 649.27,403.79 649.46,413.94 649.69,421.96 649.88,420.86 650.11,410.77 650.29,408.35 650.48,414.48 650.71,419.51 650.89,421.59 651.11,415.70 651.30,412.57 651.48,416.24 651.69,420.49 651.87,423.65 652.08,415.49 652.25,406.49 652.42,404.58 652.62,404.96 652.78,408.26 652.98,416.58 653.13,417.37 653.28,413.01 653.46,414.56 653.61,414.14 653.78,404.66 653.91,397.05 654.04,392.14 654.20,393.54 654.32,398.75 654.46,404.65 654.57,399.29 654.68,385.95 654.80,374.54 654.90,373.68 655.01,381.51 655.09,390.63 655.17,394.40 655.26,387.21 655.33,377.28 655.41,367.42 655.46,363.28 655.51,364.50 655.57,374.93 655.61,390.67 655.64,404.10 655.67,386.46 655.69,356.32 655.71,323.67 655.71,307.23 655.71,348.37 655.72,348.59 655.73,348.52 655.75,346.71 655.77,344.11 655.80,342.68 655.84,346.32 655.88,356.06 655.93,376.08 655.99,397.39 656.04,416.07 656.12,407.69 656.19,391.30 656.28,379.61 656.37,379.65 656.45,388.01 656.57,403.79 656.66,416.58 656.79,419.77 656.90,408.58 657.01,397.99 657.16,393.27 657.28,396.76 657.44,408.91 657.57,419.90 657.71,424.46 657.88,419.16 658.02,414.23 658.20,414.14 658.36,419.43 658.51,426.40 658.71,426.88 658.87,421.84 659.07,416.55 659.24,415.89 659.42,419.02 659.63,420.85 659.80,424.38 660.02,429.53 660.20,424.47 660.39,422.68 660.61,422.40 660.79,421.05 661.02,424.41 661.21,420.38 661.40,418.22 661.63,419.17 661.82,417.19 662.04,421.77 662.23,424.75 662.42,425.78 662.65,429.16 662.84,422.42 663.06,419.98 663.25,418.30 663.43,416.86 663.65,419.23 663.84,426.30 664.05,427.14 664.23,426.22 664.40,423.01 664.61,418.76 664.78,417.58 664.98,414.69 665.14,414.65 665.31,417.43 665.49,420.74 665.65,423.34 665.83,422.99 665.97,421.75 666.11,421.85 666.28,419.04 666.41,415.06 666.56,411.80 666.69,411.09 666.81,410.27 666.94,409.59 667.05,412.27 667.18,416.85 667.27,416.73 667.37,412.38 667.47,404.96 667.55,399.29 667.64,394.43 667.71,391.43 667.78,388.64 667.85,385.67 667.90,383.47 667.95,379.36 667.99,372.91 668.03,363.31 668.06,349.30 668.08,337.68 668.09,327.91 668.10,320.46 668.11,318.70 668.11,270.44 668.12,277.45 668.13,289.19 668.16,309.47 668.18,331.76 668.22,364.53 668.26,394.18 668.31,414.03 668.37,395.29 668.43,375.96 668.50,363.52 668.57,362.70 668.65,368.17 668.74,377.55 668.83,383.99 668.94,391.77 669.04,401.85 669.14,414.29 669.27,422.64 669.38,416.00 669.53,406.65 669.65,403.81 669.78,405.57 669.94,413.62 670.07,421.90 670.24,418.36 670.39,411.00 670.54,404.93 670.72,401.91 670.88,403.17 671.07,409.43 671.23,421.52 671.40,425.07 671.60,411.23 671.77,404.77 671.98,401.73 672.16,407.30 672.34,423.18 672.56,420.23 672.74,409.72 672.96,403.71 673.15,401.11 673.34,411.45 673.56,413.93 673.75,409.14 673.98,406.41 674.17,402.89 674.36,412.55 674.59,420.11 674.78,414.39 675.01,408.69 675.19,403.05 675.38,409.93 675.61,425.16 675.79,418.50 676.01,409.19 676.19,402.52 676.37,405.78 676.59,419.73 676.76,421.24 676.97,414.89 677.14,414.78 677.31,417.66 677.51,432.06 677.67,418.69 677.86,406.28 678.01,403.47 678.16,404.38 678.34,408.88 678.48,416.19 678.64,411.61 678.78,404.21 678.91,396.94 679.06,391.96 679.18,393.07 679.31,405.27 679.42,413.50 679.53,398.38 679.65,378.86 679.74,373.74 679.85,383.81 679.93,403.57 680.01,423.66 680.09,405.80 680.16,391.08 680.22,386.28 680.28,390.92 680.33,394.49 680.38,385.72 680.41,370.75 680.44,355.09 680.47,338.09 680.48,325.87 680.50,315.16 680.50,311.60 680.50,300.23 680.51,308.78 680.52,321.54 680.54,340.15 680.57,355.09 680.60,366.88 680.65,375.62 680.69,379.74 680.75,383.69 680.81,387.28 680.87,390.58 680.95,392.42 681.02,392.22 681.12,391.69 681.21,391.46 681.30,392.28 681.41,397.95 681.51,408.19 681.64,421.93 681.75,421.05 681.87,412.69 682.02,405.28 682.14,404.04 682.30,405.37 682.44,409.27 682.58,418.99 682.75,430.48 682.90,423.23 683.08,415.32 683.24,411.97 683.40,408.93 683.59,409.36 683.76,416.25 683.96,422.67 684.13,423.11 684.31,420.12 684.52,416.70 684.70,417.11 684.92,419.63 685.10,420.98 685.28,420.64 685.51,422.03 685.69,425.32 685.92,425.01 686.11,421.55 686.30,416.37 686.53,416.13 686.72,418.71 686.94,419.30 687.13,422.78 687.32,427.37 687.55,431.81 687.74,430.75 687.96,430.42 688.15,429.80 688.33,430.16 688.55,431.31 688.73,430.98 688.94,430.84 689.12,427.09 689.29,421.42 689.50,416.51 689.67,414.53 689.87,408.86 690.03,406.02 690.19,406.85 690.37,411.83 690.52,417.33 690.70,420.07 690.84,417.34 690.98,411.37 691.15,406.89 691.28,406.33 691.43,409.40 691.55,411.64 691.66,410.94 691.80,409.49 691.90,405.47 692.00,399.82 692.12,396.82 692.21,398.91 692.31,405.06 692.38,409.98 692.46,408.84 692.54,398.87 692.60,389.50 692.66,381.88 692.71,379.56 692.76,380.08 692.80,381.60 692.83,380.71 692.86,375.41 692.88,368.91 692.89,362.96 692.89,359.18 692.89,377.56 692.90,382.23 692.91,388.30 692.93,391.40 692.96,386.72 692.99,378.97 693.03,372.27 693.07,372.38 693.12,378.73 693.19,393.44 693.25,408.88 693.33,421.83 693.40,415.12 693.48,405.92 693.58,401.58 693.67,404.99 693.78,414.71 693.89,421.04 693.99,420.83 694.12,415.41 694.24,410.99 694.39,409.73 694.51,413.03 694.64,420.83 694.80,431.08 694.94,422.12 695.12,415.31 695.26,412.09 695.41,412.60 695.60,417.85 695.76,427.69 695.95,427.01 696.12,421.88 696.29,417.33 696.49,415.52 696.67,417.69 696.88,423.55 697.06,424.61 697.24,425.30 697.46,420.51 697.64,418.26 697.86,422.23 698.05,423.93 698.24,423.33 698.46,417.53 698.65,412.53 698.88,414.07 699.07,415.61 699.26,420.45 699.49,428.44 699.68,424.15 699.91,420.63 700.09,414.90 700.28,412.02 700.50,415.32 700.69,418.94 700.91,421.74 701.09,422.12 701.27,413.75 701.48,412.12 701.65,414.09 701.86,416.21 702.03,417.56 702.19,417.55 702.39,415.08 702.55,415.44 702.74,416.23 702.89,415.33 703.04,412.34 703.21,409.74 703.35,411.26 703.49,416.00 703.64,424.51 703.77,429.94 703.92,421.86 704.03,411.96 704.15,402.41 704.27,397.21 704.38,399.72 704.49,406.25 704.58,410.30 704.67,410.33 704.76,406.17 704.84,402.62 704.92,398.95 704.98,393.93 705.04,385.78 705.10,373.77 705.14,364.50 705.19,356.52 705.22,353.09 705.24,352.23 705.27,353.36 705.28,354.88 705.29,356.12 705.29,348.71 705.29,351.73 705.30,358.03 705.32,359.33 705.35,354.53 705.37,351.48 705.41,355.25 705.46,370.71 705.51,386.93 705.57,389.72 705.63,374.65 705.70,359.91 705.78,354.58 705.86,362.78 705.96,385.18 706.05,409.45 706.14,419.83 706.26,399.33 706.36,389.76 706.49,390.24 706.61,395.50 706.73,402.49 706.88,410.65 707.01,414.32 707.17,409.30 707.31,403.83 707.45,403.68 707.63,405.95 707.78,409.43 707.96,413.48 708.12,414.87 708.28,413.83 708.48,412.57 708.65,413.17 708.85,415.96 709.02,415.05 709.20,412.52 709.41,411.44 709.59,410.18 709.81,413.85 710.00,418.15 710.18,417.22 710.41,410.84 710.59,402.90 710.82,397.76 711.01,399.19 711.20,405.62 711.43,412.68 711.62,412.99 711.84,414.04 712.03,415.89 712.22,419.46 712.45,418.44 712.64,415.13 712.86,412.30 713.04,411.20 713.23,413.50 713.45,415.53 713.62,414.40 713.84,416.24 714.01,416.29 714.18,415.81 714.39,412.93 714.55,412.10 714.72,413.33 714.91,415.58 715.07,414.19 715.25,407.65 715.40,400.92 715.55,400.48 715.71,403.99 715.85,404.91 716.01,404.55 716.14,400.82 716.26,393.96 716.40,387.25 716.52,387.74 716.65,392.85 716.75,394.83 716.85,391.97 716.96,383.17 717.04,375.00 717.14,368.54 717.22,367.13 717.29,368.33 717.36,369.69 717.42,368.17 717.48,364.02 717.53,362.06 717.56,363.90 717.60,370.45 717.63,375.41 717.66,374.34 717.67,368.02 717.68,361.78 717.68,359.60 717.68,366.13 717.69,377.61 717.71,392.05 717.73,407.00 717.76,412.56 717.80,402.64 717.84,389.73 717.89,383.54 717.94,382.62 718.01,388.02 718.08,396.72 718.16,409.89 718.24,420.29 718.32,425.81 718.42,423.94 718.51,420.35 718.63,417.28 718.74,419.76 718.84,427.40 718.98,426.62 719.10,419.77 719.25,413.81 719.38,412.28 719.51,409.72 719.67,403.94 719.81,406.61 719.99,413.52 720.14,414.73 720.29,415.61 720.48,418.04 720.64,413.55 720.84,407.86 721.01,411.28 721.18,414.43 721.38,415.99 721.56,420.74 721.77,419.26 721.95,415.65 722.13,416.80 722.35,417.18 722.54,416.06 722.76,425.59 722.95,425.66 723.14,426.87 723.36,420.66 723.55,412.42 723.78,412.67 723.97,413.32 724.16,415.00 724.39,422.49 724.58,420.56 724.80,413.90 724.99,414.60 725.18,410.58 725.40,411.50 725.58,416.82 725.77,417.74 725.98,421.19 726.16,417.94 726.37,409.47 726.54,407.48 726.71,411.73 726.91,414.23 727.08,419.92 727.27,424.82 727.43,421.26 727.58,419.30 727.76,422.83 727.91,424.94 728.08,426.88 728.22,424.60 728.35,419.78 728.51,417.58 728.63,420.54 728.77,428.70 728.89,425.54 729.00,415.34 729.12,399.54 729.22,387.06 729.33,378.83 729.42,380.01 729.50,388.23 729.59,404.74 729.67,415.73 729.74,404.14 729.80,387.97 729.85,376.01 729.91,371.00 729.95,375.29 729.99,388.84 730.02,403.41 730.04,413.05 730.06,406.89 730.07,398.06 730.07,394.04 730.07,339.25 730.08,334.61 730.10,327.90 730.12,326.53 730.15,335.88 730.18,353.76 730.22,375.99 730.27,390.31 730.32,382.20 730.39,369.90 730.46,368.02 730.52,372.82 730.61,380.84 730.69,386.45 730.80,394.62 730.89,405.34 730.98,417.21 731.11,414.42 731.21,404.51 731.35,401.73 731.47,404.09 731.59,400.61 731.74,390.71 731.88,389.22 732.04,400.14 732.18,413.98 732.32,414.35 732.50,395.60 732.66,387.56 732.84,393.88 733.00,408.05 733.17,414.61 733.37,409.27 733.54,397.33 733.74,390.67 733.92,393.90 734.09,400.77 734.31,416.05 734.49,425.38 734.71,409.25 734.89,401.49 735.08,399.49 735.30,408.27 735.49,422.74 735.72,419.67 735.91,410.31 736.10,404.03 736.33,408.61 736.52,419.53 736.71,421.10 736.93,412.50 737.12,407.36 737.35,416.18 737.53,425.52 737.72,418.87 737.94,409.60 738.12,406.62 738.34,416.16 738.52,420.57 738.69,411.06 738.90,403.10 739.07,401.95 739.27,407.69 739.44,417.11 739.60,416.32 739.79,408.19 739.95,405.48 740.13,407.12 740.27,410.17 740.42,404.86 740.58,392.06 740.72,385.61 740.87,387.74 741.00,397.38 741.12,407.73 741.26,400.68 741.37,380.40 741.50,365.12 741.59,366.03 741.69,373.56 741.80,374.87 741.88,360.85 741.97,338.66 742.04,328.82 742.11,331.57 742.18,345.35 742.24,348.93 742.29,326.97 742.34,298.11 742.37,273.46 742.41,257.48 742.43,255.26 742.45,260.06 742.46,264.89 742.47,267.43 742.47,324.54 742.47,329.31 742.49,339.96 742.51,350.69 742.53,360.41 742.57,367.56 742.61,369.20 742.66,368.62 742.71,368.79 742.76,371.20 742.84,377.69 742.90,385.67 742.99,396.88 743.07,406.00 743.15,413.51 743.26,417.21 743.36,413.50 743.48,407.86 743.59,406.22 743.70,405.38 743.84,403.81 743.96,403.94 744.11,408.05 744.24,415.63 744.38,420.96 744.54,418.15 744.69,415.32 744.87,408.98 745.02,406.24 745.17,407.55 745.36,417.85 745.53,424.28 745.73,427.81 745.89,422.29 746.07,414.67 746.27,409.97 746.45,412.15 746.67,411.72 746.85,415.81 747.03,422.09 747.25,422.29 747.44,420.60 747.62,416.24 747.85,416.12 748.04,421.56 748.26,424.12 748.45,421.55 748.64,416.48 748.87,414.24 749.06,416.59 749.29,420.23 749.48,419.68 749.67,417.49 749.89,412.21 750.08,408.46 750.30,406.66 750.48,406.98 750.66,416.40 750.88,428.31 751.05,424.43 751.26,413.03 751.43,403.68 751.60,400.27 751.80,407.75 751.96,412.76 752.15,422.60 752.31,425.93 752.46,412.73 752.64,402.05 752.78,401.94 752.95,404.01 753.09,408.46 753.22,417.25 753.37,425.60 753.49,417.68 753.63,408.09 753.74,406.11 753.85,407.24 753.97,409.13 754.06,411.18 754.17,414.10 754.26,415.77 754.34,416.70 754.42,417.36 754.49,417.01 754.57,413.47 754.62,407.42 754.67,399.96 754.72,391.56 754.76,386.37 754.80,382.76 754.82,381.50 754.84,381.14 754.85,381.15 754.86,381.19 754.86,161.68 754.87,157.45 754.88,153.08 754.90,160.94 754.92,188.33 754.95,248.19 754.99,308.14 755.03,348.09 755.09,339.55 755.14,326.26 755.22,335.70 755.28,357.83 755.35,373.47 755.45,372.23 755.53,371.52 755.64,378.21 755.73,374.60 755.83,364.63 755.96,371.27 756.07,396.68 756.21,414.63 756.33,390.29 756.45,372.79 756.61,372.22 756.74,383.70 756.91,406.67 757.05,421.99 757.20,416.58 757.38,408.81 757.54,405.88 757.73,408.80 757.89,407.15 758.05,398.95 758.25,398.37 758.42,408.39 758.60,425.27 758.81,411.63 758.99,388.69 759.20,384.99 759.39,396.36 759.57,415.22 759.79,424.76 759.98,404.21 760.20,397.37 760.39,398.09 760.58,402.78 760.81,417.27 761.00,419.12 761.23,408.11 761.42,394.66 761.61,389.23 761.83,398.71 762.02,406.57 762.25,402.43 762.43,390.84 762.62,388.18 762.84,404.09 763.02,410.60 763.23,396.35 763.41,380.86 763.59,378.56 763.79,395.74 763.96,405.49 764.16,388.57 764.32,380.21 764.48,382.07 764.67,406.62 764.82,422.48 765.00,386.08 765.15,369.58 765.29,373.37 765.45,396.72 765.58,417.92 765.74,391.60 765.86,368.56 765.98,360.04 766.11,371.15 766.22,386.83 766.34,382.61 766.44,371.83 766.53,374.72 766.63,396.94 766.71,397.53 766.80,360.52 766.87,339.18 766.93,341.79 767.00,375.13 767.05,381.17 767.11,314.92 767.15,257.54 767.18,219.80 767.21,208.02 767.23,221.18 767.25,248.07 767.25,265.12 767.25,269.03 767.26,338.55 767.27,344.82 767.29,355.66 767.31,365.49 767.34,374.15 767.38,381.52 767.42,385.57 767.47,390.13 767.53,395.34 767.58,402.57 767.66,413.80 767.73,424.11 767.82,428.51 767.91,420.99 767.99,414.36 768.11,409.17 768.20,408.38 768.33,412.04 768.44,415.65 768.55,416.60 768.70,415.95 768.82,415.42 768.98,415.41 769.11,414.83 769.25,416.80 769.42,420.70 769.56,416.33 769.71,413.40 769.90,413.16 770.06,414.56 770.25,415.53 770.41,421.15 770.58,422.09 770.78,415.82 770.96,412.24 771.17,408.91 771.34,407.14 771.52,411.82 771.74,418.86 771.93,422.48 772.15,420.78 772.33,415.78 772.52,414.78 772.75,413.61 772.94,412.88 773.17,411.60 773.36,411.54 773.55,415.32 773.77,416.27 773.96,418.75 774.19,421.93 774.38,421.29 774.57,418.82 774.79,411.19 774.97,408.21 775.19,411.88 775.38,418.58 775.56,423.24 775.77,420.34 775.94,410.52 776.15,403.33 776.32,403.47 776.49,404.03 776.68,411.32 776.85,422.51 777.03,422.17 777.19,413.32 777.34,407.01 777.51,400.02 777.65,398.74 777.82,408.38 777.95,419.85 778.08,426.55 778.23,415.73 778.35,406.83 778.48,399.52 778.59,396.69 778.70,398.90 778.81,405.99 778.91,409.01 779.01,403.62 779.09,395.77 779.17,389.22 779.25,385.96 779.32,387.18 779.39,390.70 779.44,391.31 779.48,386.15 779.53,372.28 779.57,357.22 779.60,338.63 779.62,324.84 779.63,313.96 779.64,305.99 779.65,304.15 779.65,302.16 779.66,285.72 779.67,267.11 779.70,257.48 779.72,269.10 779.76,305.04 779.80,338.47 779.85,353.98 779.91,351.16 779.97,355.52 780.04,373.85 780.11,377.53 780.19,362.10 780.28,349.71 780.37,356.18 780.48,372.17 780.58,372.60 780.68,363.55 780.81,364.20 780.92,380.45 781.04,393.03 781.19,375.77 781.32,362.47 781.48,371.85 781.61,394.77 781.75,400.33 781.93,379.08 782.08,367.30 782.26,372.20 782.42,386.64 782.58,399.97 782.77,401.03 782.94,394.48 783.14,393.79 783.31,404.33 783.49,420.59 783.70,411.77 783.88,394.70 784.10,395.83 784.28,409.79 784.47,420.02 784.69,412.80 784.88,405.64 785.10,414.45 785.29,427.14 785.48,426.16 785.71,426.15 785.90,421.09 786.13,417.05 786.32,410.39 786.51,408.56 786.73,415.21 786.92,413.10 787.15,405.16 787.33,401.24 787.51,404.59 787.73,419.11 787.91,428.70 788.13,413.10 788.30,403.36 788.48,395.94 788.68,393.06 788.85,399.09 789.05,412.87 789.21,417.89 789.36,411.44 789.55,406.45 789.70,410.85 789.88,419.18 790.02,409.85 790.16,402.47 790.32,409.38 790.45,421.61 790.60,399.41 790.72,378.89 790.83,373.30 790.96,390.62 791.07,415.58 791.19,385.99 791.28,353.26 791.37,339.73 791.47,352.33 791.55,365.53 791.63,340.34 791.70,307.41 791.76,292.67 791.82,310.22 791.87,340.89 791.92,337.27 791.95,290.52 791.98,242.64 792.01,204.92 792.02,190.79 792.04,186.31 792.04,186.08 792.04,413.92 792.05,420.49 792.06,422.68 792.08,407.28 792.11,390.44 792.14,374.99 792.19,362.01 792.23,358.01 792.29,362.64 792.35,373.94 792.41,390.38 792.49,413.50 792.56,428.17 792.64,415.31 792.75,400.80 792.84,395.73 792.95,398.13 793.05,403.67 793.16,410.97 793.29,423.46 793.41,427.35 793.56,413.45 793.68,405.28 793.81,403.47 793.98,410.16 794.12,414.94 794.29,419.70 794.44,427.33 794.59,431.00 794.78,425.84 794.94,427.66 795.13,427.68 795.30,425.60 795.47,427.35 795.67,425.08 795.85,423.09 796.06,427.20 796.24,425.58 796.42,428.50 796.64,426.13 796.82,418.63 797.05,416.68 797.23,413.25 797.42,410.51 797.65,416.79 797.84,421.24 798.07,422.86 798.26,425.11 798.45,423.72 798.67,423.99 798.86,423.86 799.09,421.36 799.28,425.46 799.46,425.57 799.69,423.03 799.87,420.52 800.09,416.15 800.27,418.65 800.45,419.60 800.66,419.37 800.83,423.14 801.04,425.06 801.21,421.85 801.37,424.23 801.57,421.68 801.73,421.41 801.91,426.53 802.06,425.01 802.21,419.46 802.38,415.86 802.52,409.88 802.69,404.63 802.82,405.74 802.94,410.44 803.09,415.18 803.20,413.36 803.34,407.69 803.44,399.33 803.54,389.62 803.66,384.70 803.75,389.15 803.85,403.51 803.92,419.33 804.00,417.65 804.08,394.51 804.14,378.12 804.20,368.02 804.25,369.39 804.30,379.11 804.34,396.55 804.37,402.08 804.40,383.33 804.42,361.56 804.43,343.80 804.43,333.20 804.43,343.64 804.44,334.45 804.45,320.75 804.47,307.46 804.50,299.90 804.53,303.98 804.56,316.94 804.61,340.73 804.66,364.89 804.73,397.11 804.79,420.26 804.86,407.25 804.94,381.44 805.02,368.21 805.12,366.05 805.21,375.57 805.31,392.92 805.43,412.67 805.53,399.89 805.66,376.31 805.78,372.68 805.90,387.90 806.05,421.51 806.18,410.44 806.34,387.39 806.48,388.51 806.63,404.60 806.80,429.84 806.95,410.90 807.14,399.79 807.30,405.96 807.46,412.68 807.66,398.24 807.83,392.47 808.03,400.91 808.21,407.34 808.38,399.98 808.60,395.37 808.78,408.27 809.00,429.70 809.18,413.61 809.37,407.68 809.59,407.74 809.78,405.58 810.00,391.22 810.19,391.87 810.38,403.97 810.61,406.72 810.80,400.53 811.03,400.67 811.22,412.75 811.41,408.06 811.63,392.45 811.82,395.68 812.04,415.84 812.23,421.48 812.41,395.03 812.63,383.25 812.81,394.67 813.02,415.00 813.19,411.41 813.37,395.70 813.57,390.83 813.73,404.36 813.93,414.88 814.09,412.26 814.24,410.29 814.43,412.99 814.58,412.42 814.75,405.59 814.89,403.83 815.03,405.21 815.18,404.84 815.31,403.37 815.46,398.02 815.57,388.65 815.69,379.81 815.81,383.58 815.92,401.75 816.03,416.07 816.12,391.81 816.21,369.58 816.30,356.39 816.38,352.23 816.46,342.50 816.52,329.24 816.58,318.39 816.64,311.11 816.68,302.48 816.73,281.25 816.76,259.45 816.78,241.36 816.81,227.98 816.82,222.06 816.83,219.01 816.83,309.16 816.83,314.27 816.84,330.84 816.86,351.66 816.88,376.38 816.91,405.27 816.95,412.28 817.00,392.98 817.05,377.06 817.10,366.92 817.17,363.75 817.24,368.05 817.32,379.62 817.40,392.87 817.48,407.29 817.59,420.99 817.68,423.45 817.80,420.14 817.90,416.74 818.01,413.46 818.15,412.88 818.27,415.31 818.42,419.49 818.55,424.07 818.68,429.91 818.85,431.57 818.99,430.22 819.17,423.05 819.32,416.70 819.47,412.47 819.66,411.09 819.82,412.54 820.02,410.56 820.19,413.00 820.36,419.65 820.56,425.97 820.74,427.74 820.95,423.41 821.13,418.67 821.32,418.61 821.54,419.94 821.72,420.46 821.95,421.68 822.13,428.20 822.32,431.83 822.55,429.25 822.74,426.47 822.97,419.69 823.16,419.21 823.35,423.94 823.57,427.40 823.76,425.89 823.99,416.65 824.18,411.17 824.36,411.56 824.58,409.91 824.77,409.75 824.99,414.08 825.16,418.83 825.34,417.72 825.55,412.76 825.72,407.78 825.93,406.50 826.09,411.41 826.26,413.12 826.45,412.03 826.61,410.34 826.79,406.72 826.94,406.97 827.09,412.19 827.25,415.51 827.39,417.46 827.55,421.91 827.68,422.35 827.80,418.87 827.94,413.27 828.06,409.97 828.19,405.96 828.29,401.89 828.39,398.41 828.50,398.46 828.58,403.93 828.68,415.55 828.76,420.47 828.83,409.28 828.90,389.69 828.96,375.16 829.01,365.22 829.07,361.47 829.10,365.30 829.14,375.99 829.17,386.27 829.19,393.20 829.21,393.83 829.22,391.25 829.22,297.71 829.22,297.26 829.23,296.58 829.25,299.28 829.27,308.55 829.30,330.98 829.34,357.18 829.37,383.88 829.43,399.98 829.48,394.27 829.55,385.97 829.62,384.24 829.68,384.52 829.78,384.59 829.86,388.37 829.96,401.51 830.05,400.69 830.15,375.38 830.28,349.08 830.38,350.70 830.52,385.16 830.64,412.13 830.76,379.53 830.92,353.39 831.05,364.59 831.21,402.85 831.35,404.86 831.50,375.58 831.68,368.89 831.83,390.68 832.02,390.83 832.18,366.08 832.35,373.00 832.55,419.64 832.72,398.38 832.92,357.87 833.10,357.75 833.28,385.59 833.49,386.69 833.67,361.82 833.89,367.05 834.08,394.42 834.26,404.17 834.49,380.14 834.68,386.01 834.90,412.58 835.09,395.05 835.28,380.04 835.51,386.63 835.70,395.70 835.93,389.59 836.12,381.49 836.31,382.25 836.53,385.10 836.72,374.34 836.94,366.65 837.12,368.50 837.31,370.23 837.52,369.21 837.70,365.79 837.91,363.13 838.08,361.47 838.25,363.65 838.45,377.59 838.62,390.79 838.81,390.46 838.97,382.97 839.12,381.39 839.30,388.21 839.45,394.83 839.62,400.28 839.76,405.76 839.89,406.37 840.05,389.15 840.17,373.94 840.31,365.16 840.43,362.92 840.54,362.11 840.66,367.05 840.76,380.47 840.85,399.76 840.96,411.57 841.04,409.07 841.13,416.19 841.21,406.65 841.27,381.05 841.34,366.44 841.39,382.48 841.45,411.47 841.49,352.39 841.53,284.46 841.56,222.68 841.58,197.04 841.60,192.95 841.61,199.63 841.61,203.95 841.61,381.68 841.62,381.31 841.64,378.90 841.66,374.71 841.68,369.77 841.72,366.01 841.76,367.17 841.81,375.41 841.86,387.78 841.92,403.73 842.00,423.70 842.06,423.26 842.15,408.11 842.23,399.60 842.32,396.39 842.43,399.21 842.52,404.87 842.65,413.52 842.75,422.17 842.87,425.70 843.01,420.72 843.13,419.25 843.28,421.69 843.42,425.19 843.55,426.03 843.72,426.96 843.86,420.92 844.04,413.95 844.20,411.21 844.35,410.52 844.54,409.52 844.71,413.79 844.91,425.53 845.08,428.23 845.25,426.31 845.46,420.96 845.63,414.81 845.85,417.53 846.03,419.89 846.21,421.49 846.43,425.31 846.62,421.23 846.84,417.20 847.03,412.27 847.22,409.59 847.45,415.10 847.64,423.61 847.87,429.38 848.06,425.70 848.25,417.09 848.47,412.61 848.66,411.42 848.89,410.46 849.07,419.18 849.26,425.97 849.48,422.97 849.66,418.58 849.88,409.09 850.06,409.82 850.23,413.05 850.44,414.98 850.61,416.78 850.81,415.07 850.98,407.28 851.14,406.16 851.33,406.51 851.49,408.37 851.67,415.32 851.81,423.14 851.96,417.70 852.12,409.98 852.26,407.43 852.39,406.03 852.54,408.57 852.66,414.50 852.80,421.47 852.91,415.22 853.01,406.21 853.13,401.76 853.23,403.10 853.34,409.85 853.42,419.92 853.50,433.22 853.58,417.13 853.65,403.58 853.72,391.70 853.78,387.41 853.83,389.18 853.88,398.54 853.91,407.55 853.95,403.54 853.97,387.37 853.99,369.76 854.00,353.69 854.01,347.53 854.01,293.83 854.01,305.95 854.03,326.92 854.05,339.85 854.07,310.72 854.11,252.39 854.15,221.35 854.19,228.26 854.25,294.21 854.30,382.47 854.38,367.68 854.44,305.19 854.52,289.58 854.61,332.88 854.69,389.46 854.80,367.85 854.90,338.99 855.00,346.39 855.13,392.86 855.24,400.67 855.38,366.90 855.50,371.15 855.62,403.38 855.78,412.04 855.92,383.19 856.08,379.52 856.23,384.26 856.38,380.50 856.56,376.24 856.71,385.76 856.90,396.69 857.07,379.46 857.23,363.98 857.43,382.71 857.61,417.10 857.81,407.61 857.99,396.29 858.17,400.05 858.39,403.04 858.57,392.54 858.79,394.68 858.98,395.57 859.16,380.08 859.39,369.15 859.58,381.19 859.80,399.67 859.99,385.66 860.18,381.89 860.41,399.02 860.60,406.39 860.83,395.29 861.02,396.33 861.21,394.87 861.43,374.00 861.62,369.43 861.84,389.68 862.02,408.74 862.20,388.83 862.42,370.86 862.59,384.56 862.80,411.35 862.97,394.57 863.14,381.91 863.34,395.14 863.50,420.55 863.66,390.10 863.85,361.42 864.00,368.24 864.18,402.73 864.32,384.39 864.46,350.67 864.63,335.59 864.76,345.08 864.91,360.82 865.03,351.69 865.15,333.65 865.28,325.38 865.39,334.02 865.51,349.35 865.60,352.90 865.70,348.08 865.80,342.96 865.88,347.66 865.96,363.28 866.03,364.23 866.09,340.48 866.16,309.11 866.21,302.03 866.26,323.42 866.30,356.62 866.33,377.91 866.36,356.56 866.38,328.91 866.39,306.14 866.40,297.54 866.40,369.74 866.41,370.10 866.42,370.41 866.44,369.64 866.46,367.57 866.49,364.68 866.53,361.86 866.57,361.75 866.63,365.99 866.68,373.67 866.74,384.52 866.82,399.45 866.89,410.24 866.99,415.13 867.07,412.10 867.16,409.16 867.27,409.55 867.37,411.48 867.50,413.19 867.61,415.15 867.72,418.28 867.87,420.30 867.99,420.87 868.15,422.73 868.28,425.44 868.42,425.73 868.59,422.24 868.74,416.45 868.92,412.85 869.08,414.13 869.23,418.95 869.43,425.93 869.59,428.75 869.79,426.26 869.96,416.13 870.14,412.55 870.35,415.85 870.53,417.40 870.74,423.83 870.93,429.58 871.11,421.88 871.33,419.59 871.52,416.00 871.74,412.84 871.93,419.81 872.12,422.95 872.35,422.38 872.54,422.72 872.77,410.88 872.96,411.97 873.15,415.35 873.37,421.19 873.56,429.19 873.79,420.65 873.97,414.61 874.16,412.03 874.38,410.12 874.56,411.99 874.74,421.28 874.95,430.84 875.13,426.21 875.33,413.27 875.50,404.70 875.67,404.29 875.86,410.57 876.02,415.26 876.21,424.30 876.36,423.22 876.51,412.67 876.69,404.24 876.83,405.97 876.99,408.79 877.12,412.10 877.25,417.34 877.40,419.40 877.52,414.96 877.65,406.32 877.76,403.81 877.86,406.49 877.98,409.12 878.07,407.48 878.17,404.36 878.25,401.62 878.33,398.59 878.41,396.11 878.47,396.24 878.54,399.10 878.59,402.31 878.64,402.77 878.69,394.26 878.72,380.15 878.75,359.67 878.77,343.14 878.78,329.66 878.79,320.07 878.79,247.28 878.80,241.08 878.80,227.79 878.81,215.01 878.83,213.40 878.85,230.81 878.88,271.60 878.91,307.06 878.95,322.84 879.00,317.05 879.04,318.63 879.10,346.88 879.15,384.60 879.21,388.36 879.28,343.48 879.34,319.21 879.43,321.53 879.50,346.06 879.58,376.90 879.67,386.32 879.76,372.00 879.87,366.86 879.96,380.14 880.05,402.96 880.17,407.77 880.27,389.23 880.40,376.57 880.51,378.15 880.62,387.20 880.76,399.59 880.87,409.39 881.02,416.06 881.14,411.73 881.26,406.53 881.42,402.78 881.54,402.08 881.70,405.42 881.83,411.03 881.97,418.61 882.13,424.63 882.26,417.43 882.43,407.61 882.57,403.26 882.71,404.48 882.88,409.62 883.02,412.60 883.18,409.51 883.33,404.14 883.47,402.85 883.64,407.40 883.78,413.51 883.92,418.86 884.09,428.52 884.23,429.03 884.39,420.11 884.53,410.93 884.67,400.92 884.83,392.65 884.96,393.30 885.12,400.60 885.25,406.04 885.38,406.08 885.53,398.44 885.65,392.30 885.80,389.18 885.92,391.86 886.04,396.49 886.17,396.50 886.28,393.10 886.41,390.52 886.52,390.51 886.62,392.76 886.74,396.26 886.84,397.04 886.95,394.99 887.03,391.50 887.12,386.82 887.22,381.84 887.29,380.67 887.38,384.09 887.45,390.22 887.51,398.14 887.59,408.38 887.64,416.04 887.71,420.69 887.75,418.43 887.80,413.32 887.84,406.89 887.88,402.28 887.91,397.89 887.94,395.12 887.96,393.04 887.98,391.29 887.99,390.35 888.00,389.72 888.00,389.59" fill="none" stroke="#000" stroke-width="1.5" opacity="0.9"/>
<text x="500.0" y="502" font-family="Times New Roman" font-size="19" text-anchor="middle">Julian Date</text>
<text transform="translate(18,247.0) rotate(-90)" font-family="Times New Roman" font-size="19" text-anchor="middle">velocity residual (mm/s)</text>
</svg>
