<svg xmlns="http://www.w3.org/2000/svg" width="920" height="520" viewBox="0 0 920 520">
<rect width="100%" height="100%" fill="white"/>
<text x="460.0" y="24" font-family="Times New Roman" font-size="24" text-anchor="middle">Saturn native position residual</text>
<line x1="112" y1="434" x2="888" y2="434" stroke="#333"/>
<line x1="112" y1="60" x2="112" y2="434" stroke="#333"/>
<line x1="112" y1="434.00" x2="888" y2="434.00" stroke="#ddd"/>
<text x="104" y="438.00" font-family="Times New Roman" font-size="17" text-anchor="end">0</text>
<line x1="112" y1="340.50" x2="888" y2="340.50" stroke="#ddd"/>
<text x="104" y="344.50" font-family="Times New Roman" font-size="17" text-anchor="end">1.086</text>
<line x1="112" y1="247.00" x2="888" y2="247.00" stroke="#ddd"/>
<text x="104" y="251.00" font-family="Times New Roman" font-size="17" text-anchor="end">2.172</text>
<line x1="112" y1="153.50" x2="888" y2="153.50" stroke="#ddd"/>
<text x="104" y="157.50" font-family="Times New Roman" font-size="17" text-anchor="end">3.257</text>
<line x1="112" y1="60.00" x2="888" y2="60.00" stroke="#ddd"/>
<text x="104" y="64.00" font-family="Times New Roman" font-size="17" text-anchor="end">4.343</text>
<line x1="112.00" y1="434" x2="112.00" y2="439" stroke="#333"/>
<text x="112.00" y="456" font-family="Times New Roman" font-size="17" text-anchor="middle">2378495</text>
<line x1="306.00" y1="434" x2="306.00" y2="439" stroke="#333"/>
<text x="306.00" y="456" font-family="Times New Roman" font-size="17" text-anchor="middle">2433282</text>
<line x1="500.00" y1="434" x2="500.00" y2="439" stroke="#333"/>
<text x="500.00" y="456" font-family="Times New Roman" font-size="17" text-anchor="middle">2488070</text>
<line x1="694.00" y1="434" x2="694.00" y2="439" stroke="#333"/>
<text x="694.00" y="456" font-family="Times New Roman" font-size="17" text-anchor="middle">2542858</text>
<line x1="888.00" y1="434" x2="888.00" y2="439" stroke="#333"/>
<text x="888.00" y="456" font-family="Times New Roman" font-size="17" text-anchor="middle">2597645</text>
<polyline points="112.00,219.15 112.00,218.99 112.01,218.31 112.02,217.57 112.05,217.00 112.07,217.42 112.10,219.43 112.14,225.04 112.18,233.01 112.24,246.06 112.29,257.43 112.34,264.79 112.42,261.23 112.48,246.44 112.57,221.98 112.65,206.25 112.73,204.55 112.83,230.95 112.92,278.21 113.03,355.32 113.13,419.88 113.24,382.53 113.37,333.85 113.48,313.09 113.62,299.83 113.74,288.66 113.86,276.06 114.01,261.48 114.14,259.15 114.30,276.95 114.44,304.29 114.58,338.37 114.75,389.85 114.90,402.92 115.08,327.17 115.23,263.57 115.38,222.20 115.57,222.04 115.72,261.91 115.91,308.07 116.07,278.85 116.23,225.74 116.43,191.63 116.59,201.77 116.79,249.58 116.95,296.64 117.12,316.16 117.32,305.27 117.48,292.19 117.65,283.35 117.85,280.88 118.01,283.86 118.21,275.10 118.37,259.68 118.53,255.12 118.73,275.27 118.89,299.71 119.08,304.00 119.23,271.78 119.39,229.72 119.57,199.92 119.72,200.37 119.90,223.89 120.05,255.94 120.19,303.16 120.36,362.71 120.50,363.74 120.66,306.01 120.79,261.85 120.91,240.49 121.06,256.59 121.18,294.73 121.32,293.55 121.43,236.90 121.54,188.07 121.67,177.84 121.77,207.30 121.88,244.64 121.97,237.85 122.06,210.52 122.15,198.47 122.23,218.87 122.32,258.11 122.38,268.69 122.44,253.05 122.51,238.81 122.56,252.83 122.62,300.34 122.66,346.58 122.69,357.91 122.73,314.61 122.75,274.84 122.78,241.06 122.79,224.88 122.80,216.78 122.80,214.15 122.80,242.20 122.81,249.51 122.82,259.34 122.84,270.31 122.88,281.01 122.91,285.00 122.95,283.20 123.00,278.88 123.05,275.97 123.12,279.09 123.18,289.61 123.26,312.15 123.34,336.35 123.42,356.68 123.52,352.97 123.61,326.07 123.73,289.18 123.83,267.14 123.94,259.38 124.08,270.19 124.19,289.67 124.34,315.29 124.47,331.91 124.60,335.16 124.77,320.83 124.91,304.33 125.08,289.16 125.23,281.51 125.38,273.94 125.57,261.95 125.73,255.83 125.93,263.77 126.09,288.38 126.26,324.08 126.47,375.56 126.64,377.98 126.86,315.83 127.03,273.69 127.22,251.02 127.44,246.07 127.62,266.72 127.81,301.84 128.03,336.23 128.22,328.51 128.45,285.86 128.64,261.26 128.83,255.70 129.05,274.46 129.24,310.20 129.47,366.80 129.66,388.74 129.85,381.47 130.07,367.77 130.26,368.17 130.48,390.25 130.67,404.93 130.85,383.64 131.07,342.75 131.24,318.41 131.46,316.33 131.63,332.10 131.80,357.90 132.00,382.34 132.17,366.16 132.36,332.63 132.52,317.61 132.67,314.92 132.85,326.76 133.00,344.97 133.17,361.34 133.31,361.03 133.44,351.63 133.60,335.02 133.73,322.15 133.87,311.72 133.99,302.67 134.10,290.94 134.22,275.80 134.32,266.47 134.43,265.03 134.52,273.04 134.61,286.15 134.70,301.20 134.77,308.48 134.85,310.51 134.91,309.95 134.96,310.73 135.02,315.68 135.06,323.30 135.11,334.96 135.13,345.13 135.16,354.15 135.18,362.24 135.19,366.30 135.19,368.15 135.19,247.20 135.20,229.44 135.21,188.07 135.23,145.56 135.26,106.81 135.29,107.40 135.33,154.00 135.38,267.36 135.43,350.33 135.50,273.16 135.56,208.52 135.63,195.40 135.72,203.16 135.80,170.12 135.90,119.82 135.99,133.44 136.08,213.85 136.21,344.23 136.31,331.83 136.45,270.30 136.56,272.07 136.69,284.56 136.84,253.03 136.97,230.69 137.13,253.74 137.27,289.65 137.41,303.94 137.59,307.65 137.74,280.29 137.93,184.23 138.09,110.07 138.25,88.58 138.45,137.68 138.62,187.12 138.79,164.85 139.00,103.97 139.18,107.08 139.39,192.62 139.57,290.45 139.76,294.10 139.98,189.22 140.16,137.31 140.39,127.93 140.57,127.55 140.76,146.67 140.99,234.50 141.18,285.15 141.41,160.05 141.60,92.18 141.79,138.60 142.02,273.94 142.21,258.79 142.43,144.09 142.62,142.27 142.80,239.54 143.02,319.58 143.21,212.68 143.42,115.01 143.60,108.95 143.78,164.11 143.99,265.21 144.16,342.83 144.36,379.33 144.53,325.61 144.69,250.51 144.88,163.56 145.04,119.54 145.22,144.18 145.36,231.63 145.51,286.93 145.68,179.96 145.81,110.52 145.97,144.56 146.09,252.39 146.22,324.52 146.36,227.05 146.47,177.84 146.59,217.35 146.70,290.57 146.79,289.80 146.90,194.93 146.98,134.85 147.08,112.10 147.15,128.10 147.22,167.05 147.29,232.73 147.35,291.88 147.41,357.10 147.45,399.75 147.49,371.63 147.52,289.88 147.55,222.61 147.57,159.94 147.58,127.73 147.59,112.66 147.59,274.44 147.59,275.00 147.60,277.29 147.62,281.77 147.65,290.03 147.68,306.69 147.72,327.01 147.77,358.58 147.82,388.37 147.87,410.18 147.94,388.79 148.01,360.28 148.10,334.70 148.17,326.30 148.26,332.18 148.36,356.45 148.46,385.13 148.58,405.16 148.68,382.17 148.79,351.73 148.93,317.95 149.05,293.65 149.20,275.44 149.33,271.53 149.47,272.61 149.64,273.12 149.78,269.98 149.93,266.20 150.11,263.26 150.26,259.95 150.45,255.87 150.61,254.39 150.78,257.29 150.98,264.29 151.15,268.97 151.36,285.66 151.54,305.37 151.71,323.94 151.93,340.56 152.11,356.86 152.33,378.56 152.52,389.76 152.71,398.20 152.93,405.97 153.12,395.28 153.35,364.02 153.54,338.65 153.73,310.71 153.95,276.33 154.14,257.56 154.37,255.54 154.56,266.25 154.75,288.32 154.97,329.29 155.16,365.22 155.38,364.65 155.56,332.48 155.75,301.72 155.96,285.79 156.14,297.86 156.35,328.20 156.52,359.69 156.69,386.14 156.89,374.63 157.05,353.73 157.24,342.04 157.40,340.84 157.55,350.00 157.73,363.42 157.87,352.97 158.04,318.52 158.18,291.41 158.31,272.66 158.46,261.96 158.59,267.13 158.73,293.17 158.84,328.78 158.95,371.11 159.07,401.24 159.17,372.42 159.27,332.76 159.36,312.21 159.44,307.07 159.53,322.05 159.60,348.96 159.67,380.87 159.73,370.93 159.78,332.94 159.83,286.21 159.87,256.57 159.91,235.71 159.94,229.52 159.96,230.44 159.97,235.56 159.98,239.14 159.98,220.01 159.98,226.34 159.99,242.86 160.01,270.86 160.03,285.68 160.07,271.81 160.10,245.12 160.14,226.57 160.20,222.93 160.25,221.87 160.32,205.98 160.39,191.31 160.46,194.49 160.55,233.46 160.63,290.80 160.74,371.93 160.83,391.74 160.93,329.00 161.06,261.22 161.17,232.15 161.28,236.37 161.42,286.55 161.55,352.24 161.70,385.91 161.84,335.07 161.97,280.93 162.14,229.12 162.29,204.31 162.47,199.19 162.62,212.64 162.78,243.45 162.97,274.84 163.14,255.66 163.34,208.38 163.51,197.08 163.68,239.02 163.89,332.25 164.07,326.41 164.29,245.67 164.47,210.22 164.65,216.40 164.87,264.32 165.06,317.60 165.29,358.18 165.47,319.98 165.66,267.52 165.89,229.88 166.08,222.56 166.31,217.05 166.50,228.44 166.69,275.94 166.92,380.49 167.10,372.45 167.33,275.17 167.52,236.27 167.70,218.95 167.92,218.34 168.10,246.89 168.32,314.47 168.50,360.59 168.67,345.71 168.88,325.98 169.05,339.41 169.25,357.13 169.41,344.25 169.57,328.79 169.76,331.46 169.91,351.09 170.09,387.88 170.24,373.52 170.38,312.28 170.54,249.72 170.68,231.53 170.83,246.24 170.95,261.10 171.07,260.33 171.21,261.84 171.32,283.12 171.44,304.79 171.54,280.12 171.63,236.70 171.74,205.91 171.82,210.40 171.91,248.88 171.98,301.26 172.04,355.42 172.11,351.12 172.16,306.06 172.22,278.69 172.26,291.75 172.29,329.98 172.32,369.06 172.35,347.37 172.36,300.46 172.37,274.65 172.37,266.95 172.38,336.36 172.38,339.68 172.40,345.40 172.42,349.92 172.45,351.90 172.49,348.15 172.53,339.05 172.58,322.64 172.63,306.91 172.69,291.30 172.77,274.01 172.84,260.89 172.91,249.03 173.01,237.74 173.10,232.69 173.21,234.80 173.30,245.67 173.41,265.93 173.54,302.18 173.65,341.96 173.79,389.09 173.92,374.59 174.04,332.95 174.20,289.77 174.34,262.62 174.51,242.52 174.65,239.28 174.80,253.66 174.99,282.53 175.14,310.50 175.34,353.67 175.50,380.02 175.67,370.96 175.87,343.55 176.04,325.66 176.25,325.17 176.43,338.35 176.61,343.60 176.83,336.76 177.01,322.65 177.23,298.25 177.42,294.08 177.60,303.27 177.83,317.55 178.02,334.66 178.25,322.30 178.44,294.98 178.63,275.34 178.85,267.85 179.04,285.92 179.27,339.23 179.46,388.28 179.65,420.20 179.87,358.66 180.06,320.33 180.28,303.81 180.46,304.01 180.64,320.97 180.85,353.60 181.03,356.43 181.24,326.37 181.41,296.30 181.57,276.05 181.77,274.08 181.93,284.67 182.12,299.88 182.28,322.22 182.43,345.92 182.60,366.79 182.75,382.99 182.91,405.58 183.04,389.61 183.17,359.19 183.32,323.91 183.44,293.18 183.58,265.60 183.69,256.81 183.80,262.51 183.91,285.13 184.01,307.07 184.11,320.77 184.20,317.56 184.27,306.25 184.36,288.70 184.42,273.88 184.49,258.38 184.55,249.04 184.59,243.85 184.64,243.71 184.68,248.08 184.71,256.86 184.73,264.79 184.75,271.47 184.76,276.46 184.77,277.92 184.77,234.16 184.78,221.72 184.79,198.72 184.81,162.62 184.84,137.07 184.87,129.48 184.91,155.76 184.96,201.98 185.02,254.35 185.07,268.89 185.14,268.02 185.22,275.55 185.29,283.61 185.39,282.44 185.47,284.94 185.56,285.56 185.68,237.84 185.78,175.92 185.91,144.77 186.02,176.93 186.14,226.43 186.28,206.23 186.41,156.25 186.57,151.81 186.70,186.43 186.84,196.74 187.02,163.67 187.17,163.15 187.35,219.76 187.50,247.03 187.66,203.97 187.86,152.00 188.03,146.53 188.23,164.98 188.40,185.90 188.57,212.33 188.79,258.22 188.97,247.20 189.18,199.94 189.37,220.63 189.55,299.05 189.77,362.55 189.96,268.44 190.19,191.72 190.37,185.08 190.56,196.57 190.79,213.46 190.98,235.48 191.21,269.18 191.40,273.97 191.59,233.88 191.82,198.33 192.00,194.81 192.23,188.55 192.41,169.58 192.60,162.28 192.82,201.79 193.00,267.10 193.21,317.51 193.39,295.36 193.56,264.84 193.77,254.16 193.93,264.68 194.13,270.19 194.29,265.87 194.45,261.47 194.64,259.66 194.79,274.29 194.97,310.71 195.11,313.46 195.25,257.00 195.41,179.04 195.54,154.59 195.69,202.45 195.81,283.88 195.93,305.59 196.06,225.03 196.17,182.56 196.29,186.34 196.38,198.26 196.47,189.27 196.57,184.18 196.65,223.22 196.74,326.65 196.80,362.21 196.86,259.21 196.93,155.89 196.98,122.22 197.03,145.94 197.07,201.96 197.10,266.51 197.12,319.08 197.14,325.02 197.15,313.76 197.16,304.15 197.16,231.36 197.17,231.24 197.18,231.69 197.20,234.00 197.22,241.26 197.25,252.25 197.30,270.88 197.34,288.02 197.39,301.71 197.46,307.49 197.52,304.07 197.60,299.25 197.67,302.77 197.75,316.77 197.85,342.93 197.94,356.72 198.05,340.21 198.15,310.22 198.26,283.76 198.39,269.40 198.51,274.67 198.65,302.29 198.78,342.19 198.91,383.54 199.07,375.48 199.21,343.27 199.38,323.19 199.53,326.20 199.68,347.49 199.87,400.95 200.03,403.13 200.22,338.28 200.39,297.23 200.55,268.80 200.76,254.37 200.93,266.88 201.14,294.49 201.32,315.13 201.50,326.11 201.72,322.48 201.91,314.91 202.13,310.79 202.32,308.91 202.50,305.65 202.73,293.69 202.92,286.38 203.15,296.37 203.34,313.98 203.53,336.58 203.76,349.25 203.95,321.39 204.17,280.88 204.36,253.93 204.55,241.16 204.77,260.07 204.95,300.28 205.17,367.27 205.35,427.07 205.53,363.94 205.75,299.88 205.92,266.17 206.13,243.70 206.29,244.91 206.46,259.30 206.66,279.31 206.82,288.03 207.00,293.54 207.15,286.50 207.30,270.77 207.48,254.92 207.62,248.15 207.78,243.26 207.91,237.39 208.04,233.51 208.18,233.95 208.30,237.57 208.43,248.29 208.54,265.58 208.64,291.03 208.76,327.90 208.85,352.24 208.95,352.11 209.03,331.56 209.10,308.05 209.18,285.68 209.25,273.98 209.30,268.28 209.36,267.86 209.41,271.52 209.45,279.13 209.48,286.90 209.51,294.75 209.53,302.56 209.54,306.91 209.55,309.38 209.55,236.20 209.56,243.66 209.57,267.46 209.59,294.52 209.61,321.82 209.64,328.69 209.68,317.33 209.73,276.13 209.77,222.59 209.84,164.39 209.90,149.10 209.96,174.29 210.05,224.41 210.12,225.23 210.22,191.52 210.31,198.72 210.41,257.53 210.52,356.21 210.63,354.73 210.76,296.83 210.88,258.70 211.00,209.20 211.15,155.21 211.28,153.34 211.44,204.79 211.57,224.86 211.72,180.70 211.89,139.57 212.04,171.27 212.23,253.01 212.39,271.54 212.55,251.47 212.75,262.06 212.91,290.68 213.12,287.30 213.29,268.85 213.47,260.86 213.68,227.94 213.86,175.40 214.08,140.73 214.26,157.58 214.45,210.53 214.67,296.82 214.86,363.72 215.09,312.95 215.28,225.72 215.46,181.20 215.69,214.17 215.88,266.49 216.11,256.33 216.30,242.08 216.49,262.51 216.72,247.48 216.90,193.49 217.13,205.14 217.31,306.86 217.49,339.72 217.71,246.73 217.89,244.57 218.10,278.06 218.28,226.95 218.45,173.96 218.65,207.47 218.82,276.93 219.02,268.71 219.18,231.87 219.33,235.21 219.52,268.72 219.67,270.01 219.84,253.84 219.98,244.63 220.12,222.89 220.28,200.45 220.40,230.64 220.55,331.84 220.67,352.75 220.78,258.60 220.91,184.51 221.02,174.55 221.11,189.37 221.22,201.69 221.31,207.14 221.41,230.44 221.48,263.70 221.55,295.86 221.63,324.39 221.69,339.75 221.75,328.98 221.79,293.89 221.83,256.85 221.87,228.57 221.90,221.30 221.92,225.66 221.94,233.11 221.94,238.96 221.95,282.97 221.95,282.63 221.96,280.94 221.97,278.11 222.00,273.41 222.03,264.82 222.06,255.20 222.11,242.15 222.16,232.59 222.21,227.40 222.28,231.48 222.34,246.49 222.43,279.65 222.50,316.19 222.58,347.57 222.69,343.76 222.78,309.69 222.90,267.11 223.00,243.40 223.11,233.82 223.25,238.62 223.37,255.17 223.51,283.39 223.64,292.76 223.78,280.69 223.94,255.67 224.08,238.64 224.26,227.87 224.41,230.65 224.56,252.49 224.75,288.16 224.91,316.22 225.11,350.21 225.27,367.20 225.44,361.80 225.65,359.87 225.82,365.24 226.04,372.94 226.22,365.98 226.40,335.28 226.62,294.12 226.80,268.44 227.03,253.28 227.22,257.64 227.40,272.42 227.63,291.45 227.82,300.82 228.05,293.29 228.24,282.74 228.43,279.22 228.66,279.40 228.85,291.51 229.07,304.57 229.26,304.39 229.45,300.58 229.67,299.75 229.85,297.89 230.07,290.33 230.25,278.96 230.43,263.08 230.64,239.61 230.81,231.49 231.01,246.61 231.18,272.67 231.35,302.97 231.54,325.03 231.70,305.44 231.88,264.70 232.03,246.78 232.18,247.11 232.35,268.02 232.48,291.43 232.62,304.17 232.77,287.46 232.90,256.66 233.04,224.06 233.15,212.83 233.26,221.29 233.39,256.24 233.49,300.93 233.60,356.52 233.69,369.89 233.77,342.48 233.86,307.54 233.93,292.50 234.01,293.20 234.07,306.53 234.12,327.44 234.18,356.08 234.22,377.40 234.26,393.25 234.29,395.94 234.31,392.87 234.33,387.84 234.34,384.96 234.34,383.78 234.34,291.33 234.35,286.89 234.36,276.68 234.38,264.80 234.42,250.08 234.45,242.84 234.49,244.80 234.54,257.65 234.59,264.58 234.66,249.68 234.72,224.24 234.79,205.31 234.88,206.27 234.96,225.98 235.06,257.43 235.15,273.68 235.25,270.38 235.37,248.01 235.48,232.53 235.62,240.52 235.73,276.34 235.86,321.03 236.01,313.03 236.14,264.81 236.31,234.47 236.45,250.61 236.59,292.09 236.77,335.15 236.92,344.59 237.11,353.28 237.27,372.93 237.43,346.51 237.63,277.57 237.80,244.24 238.01,247.91 238.18,279.85 238.36,319.69 238.57,361.56 238.76,405.11 238.98,360.72 239.16,290.08 239.35,233.05 239.57,202.89 239.76,210.48 239.99,220.95 240.18,219.32 240.37,232.55 240.59,277.23 240.78,313.65 241.01,300.75 241.20,274.78 241.39,267.17 241.61,273.47 241.80,266.39 242.02,260.56 242.21,292.28 242.39,345.82 242.61,335.54 242.78,266.37 243.00,216.02 243.17,226.97 243.34,278.05 243.54,344.20 243.71,357.92 243.87,347.36 244.06,345.53 244.21,351.24 244.39,354.44 244.54,350.23 244.68,344.23 244.85,337.53 244.99,328.33 245.14,300.08 245.27,257.57 245.39,211.53 245.53,180.74 245.64,191.23 245.76,247.98 245.86,315.99 245.96,363.48 246.06,337.71 246.15,311.40 246.24,312.73 246.31,334.27 246.38,353.25 246.45,346.86 246.50,330.40 246.56,318.72 246.60,314.39 246.64,306.30 246.67,287.12 246.70,268.62 246.72,251.31 246.73,243.07 246.73,239.74 246.73,251.01 246.74,247.59 246.75,240.09 246.77,232.99 246.80,227.65 246.83,226.83 246.87,232.25 246.92,245.02 246.97,257.52 247.03,267.50 247.10,272.42 247.17,271.83 247.26,271.84 247.34,277.46 247.42,289.58 247.53,308.68 247.62,322.08 247.75,330.64 247.85,335.40 247.96,344.93 248.10,366.31 248.23,385.09 248.38,372.50 248.51,330.98 248.64,287.80 248.81,252.55 248.95,244.05 249.13,255.69 249.28,276.41 249.44,300.23 249.63,298.79 249.79,270.39 249.99,242.83 250.16,242.81 250.33,259.84 250.54,307.54 250.72,366.94 250.93,412.40 251.11,364.95 251.30,319.99 251.52,283.75 251.70,283.53 251.93,308.88 252.11,340.74 252.30,368.21 252.53,345.30 252.72,313.32 252.95,288.51 253.14,275.27 253.33,270.67 253.56,273.63 253.75,270.66 253.97,264.66 254.16,260.15 254.34,256.33 254.56,249.67 254.75,246.20 254.93,246.93 255.14,252.45 255.32,261.02 255.53,285.87 255.70,312.98 255.87,336.61 256.07,355.51 256.23,362.69 256.42,374.06 256.58,391.03 256.73,396.45 256.91,375.71 257.05,346.42 257.22,310.35 257.35,288.67 257.48,282.22 257.63,291.43 257.76,305.72 257.90,328.15 258.01,350.15 258.11,371.58 258.24,389.65 258.33,391.56 258.44,376.87 258.52,357.95 258.60,339.07 258.69,321.44 258.76,312.94 258.83,310.28 258.89,313.15 258.94,318.82 258.99,326.44 259.03,331.44 259.06,334.59 259.09,335.14 259.11,334.59 259.12,333.56 259.13,333.03 259.13,268.19 259.13,273.20 259.14,284.09 259.16,301.96 259.19,313.93 259.22,313.63 259.26,303.62 259.30,297.98 259.36,311.18 259.41,335.55 259.48,337.47 259.55,294.54 259.62,244.69 259.71,208.81 259.80,207.94 259.90,235.12 260.00,264.80 260.10,278.00 260.22,256.70 260.33,225.54 260.47,202.19 260.59,204.73 260.72,220.08 260.87,234.32 261.01,228.12 261.18,204.45 261.32,195.72 261.47,212.68 261.65,256.30 261.80,278.25 261.99,256.77 262.15,222.17 262.32,208.67 262.52,241.08 262.69,302.09 262.90,370.20 263.08,360.28 263.25,320.87 263.47,285.33 263.65,261.27 263.87,243.92 264.06,237.59 264.25,234.41 264.47,230.72 264.66,217.89 264.89,205.54 265.08,197.96 265.27,205.05 265.49,247.56 265.68,292.58 265.87,310.51 266.10,291.06 266.29,273.59 266.51,272.54 266.70,268.36 266.88,251.41 267.10,228.86 267.29,233.62 267.50,277.12 267.68,327.63 267.85,372.13 268.06,375.56 268.23,341.67 268.43,287.52 268.59,244.07 268.75,218.97 268.94,210.43 269.09,201.11 269.27,192.63 269.41,193.81 269.55,205.03 269.72,228.74 269.85,258.78 270.00,300.77 270.13,319.67 270.24,290.60 270.38,220.71 270.49,181.48 270.61,185.23 270.71,225.79 270.80,276.42 270.90,318.87 270.98,347.34 271.07,391.89 271.14,350.80 271.20,265.83 271.27,179.36 271.32,142.76 271.37,146.95 271.41,177.05 271.44,208.35 271.48,221.31 271.50,211.96 271.51,195.55 271.52,187.09 271.52,335.16 271.52,338.66 271.53,345.95 271.55,353.21 271.57,354.04 271.60,352.25 271.64,355.03 271.68,366.57 271.74,389.75 271.79,396.02 271.85,368.42 271.93,322.62 272.00,290.48 272.09,269.85 272.17,271.19 272.26,288.41 272.37,324.02 272.47,357.37 272.60,379.18 272.71,366.32 272.82,342.79 272.96,321.43 273.09,311.74 273.24,298.74 273.38,285.26 273.51,277.50 273.68,283.87 273.83,304.84 274.01,343.84 274.16,391.70 274.32,410.70 274.51,349.97 274.68,313.64 274.88,292.29 275.05,291.61 275.22,313.64 275.43,357.58 275.61,378.32 275.83,356.30 276.01,319.85 276.19,289.52 276.41,279.05 276.60,284.75 276.79,294.18 277.01,298.09 277.20,296.20 277.43,293.17 277.62,293.53 277.81,305.46 278.04,338.58 278.23,364.48 278.46,374.12 278.64,358.98 278.83,337.96 279.06,324.47 279.24,325.13 279.46,324.64 279.64,316.47 279.82,305.71 280.04,298.11 280.21,297.30 280.42,304.66 280.59,326.45 280.75,357.15 280.95,390.95 281.11,399.72 281.30,382.80 281.45,361.15 281.60,342.94 281.78,329.19 281.92,323.74 282.08,322.81 282.22,323.95 282.35,328.13 282.49,340.53 282.61,352.70 282.75,360.77 282.86,359.88 282.96,352.55 283.08,337.96 283.17,324.35 283.28,310.89 283.36,304.92 283.43,305.20 283.52,314.19 283.58,327.81 283.65,346.98 283.70,358.61 283.75,359.69 283.80,347.35 283.83,332.37 283.86,315.27 283.89,303.90 283.90,295.68 283.91,290.02 283.91,288.76 283.92,291.97 283.92,313.85 283.94,345.53 283.96,360.42 283.99,320.73 284.03,255.01 284.07,213.11 284.11,193.29 284.17,196.89 284.23,211.72 284.31,229.49 284.38,240.52 284.45,244.36 284.55,229.94 284.64,207.91 284.75,197.63 284.84,219.35 284.95,267.77 285.08,329.43 285.19,336.64 285.33,311.24 285.46,308.04 285.58,326.83 285.74,344.63 285.88,336.90 286.05,323.94 286.19,302.29 286.34,259.59 286.53,205.64 286.68,185.78 286.88,216.02 287.04,276.79 287.21,331.89 287.41,326.49 287.58,295.50 287.76,265.81 287.97,247.98 288.15,247.07 288.37,267.92 288.55,308.97 288.73,355.43 288.96,373.76 289.14,378.05 289.37,374.77 289.56,329.64 289.75,275.92 289.98,251.63 290.17,275.04 290.40,343.92 290.58,390.22 290.77,339.65 291.00,285.65 291.19,261.03 291.41,251.77 291.60,264.45 291.78,306.99 292.00,390.44 292.18,358.75 292.39,267.78 292.57,221.23 292.74,209.28 292.95,240.10 293.11,277.74 293.31,311.36 293.47,321.16 293.63,309.63 293.82,276.97 293.97,248.83 294.14,234.74 294.29,240.30 294.42,255.22 294.58,278.24 294.71,291.52 294.86,285.95 294.98,270.57 295.10,259.65 295.23,262.30 295.34,277.72 295.45,302.59 295.55,312.60 295.64,302.79 295.74,280.25 295.81,268.74 295.90,271.01 295.96,283.69 296.02,300.37 296.09,319.36 296.13,332.93 296.18,345.27 296.22,349.39 296.25,347.99 296.27,344.76 296.29,344.18 296.30,345.40 296.31,346.10 296.31,316.44 296.32,313.68 296.33,310.15 296.35,306.62 296.38,306.08 296.41,308.31 296.45,312.82 296.50,313.76 296.56,305.32 296.61,290.09 296.68,272.17 296.76,254.71 296.83,247.80 296.93,251.62 297.01,266.62 297.10,292.69 297.22,331.25 297.32,353.06 297.45,346.14 297.56,324.49 297.68,307.18 297.82,299.26 297.95,296.93 298.11,294.21 298.24,294.56 298.38,295.05 298.56,293.97 298.71,293.76 298.86,295.81 299.04,300.22 299.20,297.46 299.40,280.13 299.57,261.84 299.73,252.27 299.94,254.35 300.11,259.68 300.33,274.70 300.51,293.38 300.69,315.37 300.91,336.99 301.09,351.54 301.31,380.80 301.50,394.05 301.69,375.11 301.91,339.48 302.10,301.73 302.33,270.28 302.52,261.87 302.71,260.02 302.94,261.11 303.13,270.95 303.36,278.33 303.54,275.98 303.73,272.62 303.95,269.95 304.14,262.46 304.36,255.92 304.54,262.83 304.72,279.99 304.93,306.18 305.10,333.17 305.31,345.67 305.47,319.72 305.64,286.95 305.83,258.72 305.99,247.05 306.18,249.74 306.33,266.85 306.48,282.29 306.65,283.49 306.79,272.54 306.95,256.74 307.08,249.46 307.21,251.56 307.35,262.27 307.47,271.38 307.60,278.99 307.71,283.24 307.81,287.08 307.92,293.13 308.01,299.94 308.11,310.60 308.19,322.17 308.26,336.34 308.34,355.71 308.40,371.57 308.47,385.06 308.52,387.26 308.56,382.08 308.61,372.85 308.64,366.49 308.66,361.91 308.68,360.26 308.69,359.81 308.70,359.76 308.70,310.96 308.71,316.17 308.72,325.02 308.74,335.85 308.76,344.75 308.79,340.22 308.84,317.75 308.88,293.92 308.93,276.06 309.00,273.30 309.06,290.60 309.14,330.46 309.21,363.02 309.29,360.84 309.39,321.19 309.48,293.93 309.59,284.98 309.69,294.98 309.80,308.58 309.93,311.76 310.05,306.24 310.17,307.70 310.32,324.14 310.45,339.69 310.61,331.71 310.75,298.56 310.89,265.57 311.07,250.33 311.22,262.68 311.41,283.32 311.57,292.21 311.73,288.31 311.93,275.79 312.09,283.02 312.30,323.00 312.47,340.71 312.65,311.79 312.86,252.59 313.04,218.02 313.26,222.69 313.45,258.27 313.63,297.54 313.86,312.88 314.04,282.10 314.27,242.48 314.46,230.74 314.65,231.75 314.88,253.47 315.07,279.12 315.30,308.65 315.49,340.74 315.67,375.13 315.90,391.50 316.09,352.03 316.31,301.21 316.49,280.04 316.68,271.07 316.89,272.31 317.07,268.72 317.29,245.92 317.46,228.87 317.63,224.75 317.83,234.62 318.00,254.14 318.20,276.02 318.36,280.06 318.51,269.96 318.69,245.59 318.84,228.34 319.02,222.34 319.16,229.41 319.29,244.06 319.45,263.49 319.58,279.29 319.72,296.70 319.84,306.15 319.95,309.82 320.08,308.14 320.18,301.55 320.30,288.68 320.39,276.88 320.47,265.89 320.57,253.94 320.64,245.44 320.72,239.42 320.79,240.53 320.84,248.74 320.90,267.37 320.95,287.36 320.99,310.16 321.02,322.05 321.05,324.10 321.07,316.42 321.08,307.64 321.09,300.79 321.09,281.78 321.10,281.51 321.11,281.19 321.13,282.26 321.15,288.08 321.18,298.73 321.22,314.40 321.27,332.70 321.31,335.93 321.38,318.52 321.44,296.62 321.50,279.65 321.59,274.33 321.66,284.11 321.75,303.74 321.85,331.26 321.95,347.52 322.06,350.86 322.17,344.23 322.28,335.41 322.42,324.56 322.54,316.49 322.69,313.67 322.82,318.95 322.95,327.36 323.11,334.15 323.26,328.57 323.43,303.35 323.58,276.36 323.74,258.28 323.93,250.05 324.09,251.25 324.29,265.76 324.45,285.42 324.62,305.08 324.83,318.57 325.01,324.30 325.22,332.36 325.40,340.58 325.58,343.25 325.80,332.31 325.99,321.63 326.21,303.73 326.40,287.89 326.59,277.36 326.82,269.92 327.00,265.97 327.23,267.17 327.42,270.06 327.61,273.52 327.84,280.24 328.03,281.47 328.26,281.96 328.44,283.16 328.63,281.40 328.85,273.76 329.03,278.99 329.25,291.78 329.43,305.47 329.61,323.39 329.82,336.62 329.99,328.63 330.19,323.99 330.36,324.50 330.52,327.72 330.72,343.01 330.87,363.58 331.06,368.02 331.21,355.59 331.35,338.15 331.52,315.12 331.66,298.20 331.82,284.67 331.94,278.97 332.07,275.87 332.21,273.30 332.32,273.63 332.45,281.62 332.56,294.62 332.65,308.48 332.76,314.07 332.85,302.96 332.95,279.89 333.02,264.44 333.09,258.43 333.17,264.83 333.23,278.98 333.29,299.96 333.33,313.79 333.37,318.81 333.41,312.65 333.44,302.03 333.46,288.99 333.48,280.64 333.48,275.61 333.49,274.50 333.49,272.19 333.50,262.92 333.51,252.16 333.54,241.95 333.57,235.08 333.60,236.73 333.64,245.95 333.70,265.14 333.75,284.18 333.82,305.01 333.88,318.62 333.95,331.37 334.04,352.30 334.12,376.66 334.23,398.63 334.32,379.51 334.42,343.87 334.54,301.06 334.65,270.82 334.79,244.96 334.91,234.10 335.03,236.20 335.18,260.23 335.32,297.20 335.48,354.39 335.62,397.41 335.77,377.63 335.95,315.53 336.10,267.13 336.29,233.76 336.45,232.61 336.61,250.66 336.81,289.37 336.98,325.77 337.19,336.70 337.36,304.28 337.54,268.34 337.76,239.51 337.94,236.33 338.16,271.63 338.34,322.83 338.53,365.03 338.76,368.48 338.94,328.60 339.17,289.39 339.36,276.15 339.55,271.46 339.78,282.24 339.97,297.82 340.20,301.95 340.39,300.94 340.57,301.79 340.80,306.70 340.99,310.74 341.21,306.01 341.39,284.71 341.57,252.88 341.79,230.35 341.97,236.81 342.18,278.35 342.35,330.13 342.52,395.36 342.72,381.18 342.89,314.96 343.08,262.10 343.24,247.46 343.39,254.91 343.57,287.86 343.72,326.54 343.89,344.51 344.02,323.07 344.16,301.45 344.31,299.34 344.44,316.76 344.58,350.16 344.69,363.41 344.80,335.81 344.93,282.48 345.03,246.19 345.14,224.33 345.23,225.16 345.31,238.22 345.40,258.67 345.47,270.77 345.55,274.08 345.61,270.04 345.66,264.95 345.72,262.53 345.76,264.66 345.80,269.89 345.83,273.38 345.85,274.01 345.87,271.22 345.88,268.15 345.88,266.64 345.88,288.25 345.89,292.35 345.90,298.84 345.92,301.75 345.95,299.25 345.99,288.79 346.03,277.21 346.08,266.03 346.13,262.93 346.19,267.25 346.26,281.65 346.33,298.76 346.42,320.72 346.50,337.24 346.59,350.90 346.69,361.71 346.79,363.33 346.91,355.77 347.02,342.72 347.13,322.48 347.27,289.44 347.40,261.35 347.55,239.55 347.68,238.14 347.82,257.35 347.99,310.69 348.13,370.45 348.31,374.43 348.46,318.15 348.62,278.99 348.81,259.04 348.97,262.33 349.17,277.52 349.34,281.40 349.51,274.04 349.72,267.92 349.90,278.52 350.11,316.46 350.30,353.75 350.48,360.71 350.70,331.74 350.89,303.07 351.11,287.35 351.30,292.46 351.49,305.90 351.72,333.07 351.91,361.59 352.13,383.28 352.32,388.77 352.51,364.60 352.74,320.05 352.93,286.64 353.15,253.72 353.34,244.02 353.53,251.94 353.75,270.50 353.93,291.26 354.15,318.26 354.32,333.56 354.50,343.98 354.71,360.55 354.88,366.99 355.08,370.43 355.25,374.81 355.41,378.03 355.60,378.21 355.75,376.57 355.93,362.25 356.08,336.86 356.22,304.70 356.39,266.54 356.53,243.39 356.68,235.91 356.81,248.24 356.93,271.75 357.07,305.69 357.18,330.29 357.30,340.47 357.40,329.42 357.50,308.26 357.60,277.99 357.69,253.64 357.78,231.72 357.85,223.23 357.92,224.19 357.99,233.71 358.04,242.50 358.09,247.30 358.14,247.34 358.18,246.57 358.21,249.95 358.24,257.45 358.26,267.33 358.27,277.91 358.27,282.31 358.27,319.26 358.28,313.92 358.29,303.74 358.31,287.20 358.34,272.64 358.37,258.46 358.41,252.23 358.45,252.58 358.51,261.65 358.57,274.75 358.64,293.23 358.71,307.02 358.78,315.67 358.88,315.52 358.96,306.10 359.07,286.94 359.16,268.26 359.27,250.63 359.39,235.36 359.50,231.02 359.64,239.59 359.77,257.26 359.89,277.48 360.05,300.07 360.18,318.65 360.35,331.28 360.49,328.41 360.64,317.49 360.82,304.75 360.98,293.34 361.17,273.72 361.33,257.60 361.50,244.28 361.70,235.18 361.87,233.40 362.08,236.82 362.26,249.84 362.44,268.00 362.65,290.23 362.84,312.76 363.06,341.16 363.24,341.72 363.43,322.82 363.65,287.96 363.84,263.22 364.07,252.39 364.26,247.39 364.45,252.81 364.68,269.34 364.87,278.62 365.10,281.01 365.29,287.51 365.47,296.29 365.70,312.73 365.88,328.55 366.10,338.48 366.29,325.80 366.47,310.28 366.68,305.10 366.86,311.20 367.07,323.14 367.24,326.35 367.41,314.08 367.61,289.74 367.77,272.84 367.96,261.71 368.12,262.96 368.27,276.37 368.45,295.86 368.59,304.84 368.76,305.19 368.89,300.99 369.02,297.49 369.17,304.40 369.30,320.19 369.44,338.79 369.55,347.44 369.65,349.37 369.78,343.05 369.87,331.55 369.96,316.75 370.06,300.65 370.14,293.98 370.23,297.54 370.30,309.00 370.36,323.90 370.43,336.77 370.48,335.44 370.53,319.88 370.57,302.86 370.60,287.98 370.63,276.07 370.65,271.05 370.66,268.95 370.67,268.66 370.67,310.52 370.67,311.71 370.68,314.56 370.70,320.54 370.73,326.81 370.75,331.70 370.80,330.56 370.84,320.75 370.90,299.10 370.95,275.88 371.01,251.61 371.09,227.21 371.16,216.33 371.25,219.16 371.34,233.92 371.43,255.72 371.54,285.46 371.64,311.27 371.76,342.22 371.87,360.81 371.99,359.51 372.13,336.28 372.26,313.99 372.41,298.59 372.55,303.85 372.69,323.15 372.86,350.84 373.01,366.83 373.19,370.14 373.34,360.42 373.50,341.06 373.69,310.09 373.86,282.17 374.06,257.06 374.23,252.89 374.40,267.79 374.62,286.74 374.79,301.78 375.01,320.46 375.19,325.42 375.38,308.56 375.60,281.75 375.79,266.42 376.01,251.08 376.20,243.05 376.39,240.65 376.62,235.43 376.81,231.54 377.03,238.42 377.22,261.59 377.41,303.65 377.64,361.04 377.83,399.48 378.05,371.09 378.24,339.57 378.42,329.66 378.64,333.67 378.83,338.78 379.04,330.28 379.22,305.40 379.39,276.06 379.60,254.91 379.77,247.37 379.97,242.40 380.13,240.77 380.29,236.75 380.48,228.03 380.63,229.92 380.81,250.73 380.95,276.45 381.09,301.45 381.26,309.30 381.39,289.08 381.54,257.39 381.67,243.62 381.78,241.47 381.92,244.21 382.03,246.37 382.13,249.63 382.25,261.36 382.34,279.50 382.44,299.42 382.52,294.94 382.60,267.27 382.68,228.43 382.74,210.84 382.81,218.09 382.86,246.47 382.91,288.44 382.95,344.30 382.98,384.11 383.02,402.71 383.04,391.76 383.05,379.95 383.06,372.27 383.06,249.91 383.06,252.27 383.07,258.40 383.09,267.99 383.11,282.98 383.14,296.55 383.18,309.78 383.22,313.55 383.27,307.73 383.33,290.42 383.39,273.36 383.47,257.72 383.54,252.77 383.61,256.49 383.71,272.06 383.80,292.56 383.91,317.72 384.01,323.72 384.11,307.69 384.25,274.98 384.36,252.26 384.50,241.43 384.63,246.03 384.76,261.53 384.92,296.65 385.05,334.78 385.22,372.06 385.37,381.72 385.52,375.48 385.70,362.44 385.86,351.59 386.05,336.17 386.22,319.22 386.39,301.88 386.59,282.06 386.76,263.68 386.97,248.63 387.15,240.72 387.33,234.36 387.55,231.94 387.73,238.62 387.95,248.85 388.14,262.91 388.33,284.87 388.55,312.21 388.74,323.50 388.97,321.78 389.16,316.79 389.35,308.98 389.58,301.19 389.77,303.40 390.00,314.08 390.18,316.84 390.37,315.26 390.60,303.91 390.78,284.39 391.00,270.16 391.18,271.67 391.36,279.75 391.58,297.65 391.75,313.72 391.96,318.38 392.13,316.39 392.29,317.86 392.49,326.23 392.65,341.01 392.84,366.43 392.99,384.14 393.14,381.97 393.32,356.17 393.46,332.83 393.60,314.57 393.76,299.45 393.89,289.97 394.03,281.31 394.15,278.06 394.27,280.21 394.40,292.00 394.50,308.92 394.62,331.07 394.71,341.30 394.80,337.43 394.90,319.70 394.97,301.51 395.06,278.49 395.12,258.23 395.18,238.27 395.24,219.02 395.29,210.98 395.34,214.15 395.37,227.10 395.40,246.27 395.43,270.56 395.44,286.19 395.45,296.20 395.45,298.20 395.45,324.94 395.46,314.84 395.48,295.51 395.50,257.44 395.53,218.95 395.56,185.07 395.61,166.14 395.65,175.21 395.71,206.21 395.77,226.24 395.84,227.93 395.92,229.94 395.99,256.67 396.09,301.99 396.18,282.00 396.27,214.58 396.38,154.50 396.49,150.86 396.62,196.43 396.73,245.31 396.85,271.82 397.00,280.83 397.12,298.10 397.28,327.11 397.42,318.38 397.56,286.00 397.73,266.85 397.88,281.72 398.07,326.22 398.22,364.34 398.38,356.28 398.58,308.24 398.75,279.27 398.95,265.60 399.12,265.63 399.30,275.17 399.51,293.64 399.69,302.38 399.91,280.20 400.09,233.94 400.27,183.01 400.50,160.03 400.68,185.49 400.91,250.21 401.10,290.95 401.29,282.85 401.52,247.48 401.71,225.11 401.94,216.47 402.12,229.15 402.31,256.93 402.54,301.56 402.73,352.52 402.95,377.23 403.14,346.67 403.32,312.73 403.54,271.07 403.72,241.99 403.93,220.39 404.11,215.43 404.28,215.55 404.49,222.13 404.65,225.74 404.82,221.34 405.01,214.02 405.17,210.14 405.36,208.67 405.51,217.40 405.65,238.41 405.83,270.39 405.96,277.34 406.12,247.45 406.25,221.78 406.38,225.07 406.52,269.97 406.64,307.13 406.77,287.53 406.88,243.26 406.97,218.04 407.09,233.67 407.18,282.18 407.28,362.45 407.35,389.67 407.42,335.61 407.50,274.47 407.56,239.38 407.63,212.56 407.67,198.21 407.72,188.48 407.76,181.96 407.79,180.69 407.81,183.27 407.83,187.23 407.84,190.96 407.85,193.06 407.85,310.08 407.86,313.37 407.87,318.22 407.89,324.05 407.92,331.23 407.95,336.88 407.99,343.50 408.04,349.39 408.09,355.90 408.15,364.14 408.22,370.51 408.30,377.35 408.37,384.18 408.45,394.71 408.55,411.64 408.64,411.78 408.76,386.98 408.86,363.78 408.97,342.21 409.10,319.30 409.22,301.90 409.36,279.19 409.49,257.47 409.62,238.87 409.78,228.14 409.92,228.74 410.10,240.46 410.25,258.57 410.40,281.95 410.58,309.14 410.74,318.59 410.94,308.75 411.11,292.74 411.27,284.20 411.48,301.16 411.65,334.94 411.87,367.15 412.05,368.30 412.23,332.37 412.45,281.28 412.63,256.81 412.85,236.57 413.04,226.44 413.23,229.84 413.45,240.54 413.64,241.03 413.87,250.79 414.06,253.57 414.25,252.96 414.48,265.02 414.67,288.53 414.90,310.98 415.08,333.89 415.27,347.90 415.49,339.76 415.68,322.33 415.86,306.17 416.08,275.55 416.26,247.72 416.47,225.28 416.64,218.93 416.81,217.25 417.01,232.44 417.18,265.99 417.37,313.34 417.53,331.30 417.69,310.69 417.87,258.60 418.02,224.00 418.19,209.41 418.33,217.60 418.47,238.78 418.62,270.58 418.75,299.16 418.89,321.07 419.01,320.92 419.12,320.41 419.25,335.42 419.35,361.36 419.46,399.50 419.55,404.97 419.64,377.68 419.73,347.19 419.80,328.68 419.88,312.35 419.94,300.41 420.00,287.54 420.06,270.63 420.10,257.93 420.15,248.69 420.18,247.85 420.20,252.69 420.22,262.67 420.23,270.77 420.24,276.05 420.24,272.85 420.24,279.08 420.26,297.90 420.28,323.69 420.30,363.69 420.33,394.08 420.37,394.34 420.42,362.52 420.47,333.63 420.54,304.18 420.60,293.23 420.66,304.14 420.75,343.26 420.83,352.99 420.93,293.80 421.02,245.74 421.11,226.63 421.23,233.14 421.34,231.55 421.47,206.55 421.59,196.70 421.71,220.23 421.86,287.38 421.99,349.80 422.15,364.13 422.29,329.80 422.43,294.94 422.61,250.86 422.76,219.75 422.95,218.95 423.11,252.92 423.27,280.64 423.47,268.13 423.63,246.41 423.84,239.02 424.01,242.39 424.19,249.86 424.40,269.35 424.58,305.94 424.80,361.50 424.99,357.00 425.17,308.63 425.40,261.42 425.58,232.90 425.81,200.14 426.00,186.56 426.19,198.70 426.42,249.83 426.61,318.27 426.80,372.52 427.03,322.38 427.21,266.51 427.44,236.44 427.63,248.66 427.81,282.68 428.03,313.36 428.22,301.38 428.43,267.47 428.61,248.01 428.79,233.41 429.00,218.61 429.17,226.56 429.37,277.71 429.54,342.68 429.70,400.37 429.90,335.82 430.05,274.48 430.23,230.52 430.38,215.38 430.53,216.91 430.70,236.06 430.83,253.35 430.99,255.85 431.12,250.24 431.24,257.26 431.38,299.86 431.49,363.70 431.62,366.04 431.72,285.44 431.82,221.93 431.93,190.72 432.01,199.85 432.11,224.42 432.18,225.91 432.25,205.54 432.33,180.56 432.38,177.45 432.44,197.26 432.49,222.49 432.53,240.88 432.56,242.63 432.59,232.21 432.61,218.57 432.62,211.37 432.63,208.10 432.63,403.51 432.64,401.72 432.65,396.06 432.67,389.49 432.69,382.80 432.72,376.73 432.76,374.51 432.81,375.34 432.85,377.67 432.91,379.68 432.98,380.35 433.04,380.74 433.13,384.80 433.20,393.05 433.29,403.76 433.39,406.45 433.49,391.51 433.60,363.27 433.71,337.26 433.82,313.24 433.96,290.65 434.08,279.33 434.23,275.73 434.36,276.40 434.49,275.42 434.65,274.06 434.80,274.38 434.97,273.92 435.12,269.88 435.28,261.95 435.47,256.56 435.63,258.37 435.83,265.60 435.99,279.70 436.16,304.52 436.37,339.27 436.55,345.78 436.76,317.67 436.94,283.60 437.12,256.10 437.34,244.01 437.53,244.21 437.71,258.69 437.94,300.58 438.13,345.47 438.36,387.64 438.54,374.48 438.73,336.61 438.96,302.83 439.15,284.35 439.38,269.70 439.57,265.47 439.76,269.13 439.98,278.41 440.17,286.81 440.39,300.38 440.57,326.27 440.76,362.58 440.97,408.15 441.15,392.14 441.36,331.97 441.53,289.77 441.70,266.12 441.90,258.45 442.06,269.34 442.26,297.46 442.41,316.74 442.57,313.16 442.75,281.47 442.89,251.57 443.06,234.37 443.20,245.11 443.33,279.55 443.48,345.12 443.61,399.43 443.75,365.59 443.86,315.14 443.97,278.35 444.10,259.57 444.19,265.75 444.30,293.12 444.39,322.41 444.47,343.49 444.56,342.69 444.63,327.67 444.71,309.63 444.77,299.48 444.82,293.61 444.87,290.41 444.91,289.96 444.95,291.80 444.98,295.19 445.00,299.73 445.02,305.24 445.02,308.47 445.03,297.03 445.03,298.17 445.04,300.05 445.05,293.65 445.08,274.50 445.11,245.40 445.14,235.50 445.18,252.96 445.24,310.32 445.29,364.25 445.36,355.22 445.42,309.69 445.49,264.17 445.58,210.89 445.66,183.72 445.77,202.31 445.86,265.67 445.96,346.33 446.08,362.62 446.19,337.94 446.33,341.67 446.45,305.34 446.57,234.50 446.72,181.90 446.86,189.49 447.02,236.89 447.16,251.92 447.31,233.71 447.49,214.32 447.64,202.07 447.83,192.67 447.99,216.75 448.15,276.11 448.35,365.87 448.52,417.44 448.69,406.86 448.90,334.93 449.08,254.68 449.30,197.50 449.48,196.98 449.66,208.84 449.88,198.20 450.07,189.88 450.30,216.70 450.48,253.19 450.67,274.22 450.90,277.07 451.09,271.75 451.32,290.51 451.51,314.24 451.70,329.84 451.93,304.30 452.11,264.76 452.34,221.58 452.53,199.11 452.71,184.19 452.93,175.42 453.11,202.58 453.33,280.01 453.51,308.95 453.68,258.03 453.89,194.93 454.06,191.31 454.26,227.32 454.43,248.37 454.59,264.00 454.78,300.26 454.93,311.14 455.11,257.06 455.26,202.23 455.40,179.26 455.56,202.11 455.70,242.71 455.85,285.38 455.98,310.49 456.10,335.76 456.23,356.35 456.34,334.72 456.47,276.32 456.57,232.92 456.66,211.29 456.77,223.29 456.85,263.31 456.94,331.40 457.01,377.38 457.08,375.13 457.15,352.02 457.20,347.36 457.26,350.40 457.30,341.79 457.33,318.48 457.37,284.84 457.39,261.34 457.41,242.67 457.42,234.54 457.42,231.76 457.42,326.08 457.43,324.38 457.44,320.55 457.46,316.30 457.49,311.90 457.53,307.74 457.57,305.99 457.62,306.16 457.67,307.89 457.73,310.84 457.80,316.16 457.87,322.40 457.96,332.13 458.04,342.19 458.13,354.59 458.23,369.58 458.33,370.82 458.45,352.36 458.56,332.43 458.67,317.42 458.81,309.10 458.94,305.43 459.09,300.23 459.22,300.15 459.36,300.29 459.53,295.01 459.67,293.59 459.82,300.43 460.00,319.84 460.16,333.55 460.35,325.28 460.51,300.82 460.68,274.83 460.88,253.16 461.05,246.83 461.26,251.68 461.44,270.12 461.62,297.47 461.84,326.70 462.02,337.09 462.24,336.03 462.43,340.06 462.61,350.92 462.84,372.39 463.03,386.99 463.26,363.25 463.45,326.02 463.64,291.58 463.86,260.99 464.05,250.98 464.28,269.45 464.47,304.34 464.66,346.83 464.88,382.59 465.07,349.84 465.29,298.65 465.47,278.47 465.65,272.40 465.86,289.17 466.04,322.06 466.25,362.34 466.42,364.64 466.59,339.76 466.79,309.98 466.95,303.31 467.14,318.78 467.29,336.53 467.44,337.12 467.62,307.33 467.76,275.47 467.93,251.78 468.07,250.53 468.20,263.66 468.35,284.37 468.47,293.78 468.61,287.63 468.72,272.98 468.82,260.10 468.94,255.59 469.04,262.19 469.14,278.32 469.23,292.85 469.30,303.94 469.39,310.94 469.46,312.65 469.53,311.74 469.58,309.42 469.63,306.10 469.68,301.53 469.72,298.04 469.75,294.95 469.78,293.28 469.80,292.14 469.81,291.19 469.81,290.80 469.81,342.48 469.82,350.86 469.83,362.38 469.85,364.56 469.88,350.53 469.91,327.54 469.95,308.94 469.99,288.08 470.05,261.23 470.11,246.70 470.18,241.70 470.25,231.08 470.32,204.79 470.42,185.31 470.50,213.53 470.61,297.17 470.70,317.63 470.81,256.03 470.93,224.61 471.04,266.91 471.16,315.90 471.31,260.04 471.43,217.57 471.59,252.37 471.72,305.64 471.86,259.86 472.03,178.09 472.18,185.35 472.36,266.63 472.52,271.38 472.68,218.83 472.87,219.77 473.04,281.57 473.24,313.93 473.41,270.80 473.59,260.06 473.80,277.75 473.98,252.45 474.19,237.33 474.38,279.37 474.56,318.88 474.78,261.39 474.97,231.86 475.19,282.72 475.38,305.87 475.57,240.68 475.80,182.11 475.99,196.01 476.22,275.00 476.41,315.60 476.60,271.65 476.83,214.34 477.01,204.52 477.24,252.90 477.42,328.65 477.61,351.82 477.83,271.37 478.01,224.42 478.22,220.08 478.40,256.26 478.57,312.87 478.78,352.09 478.95,314.30 479.15,252.71 479.31,226.21 479.47,230.65 479.66,249.64 479.81,240.39 479.99,199.51 480.13,187.55 480.27,220.46 480.43,297.06 480.56,326.14 480.71,280.71 480.84,247.51 480.95,240.93 481.09,262.76 481.19,285.09 481.32,278.32 481.41,246.28 481.50,217.25 481.60,213.31 481.68,244.84 481.77,314.87 481.84,353.91 481.90,309.86 481.97,234.76 482.02,198.70 482.07,196.85 482.11,219.26 482.14,243.60 482.17,251.86 482.19,241.38 482.20,225.15 482.21,217.44 482.21,246.27 482.21,248.81 482.22,254.00 482.24,263.13 482.27,272.49 482.29,282.95 482.34,296.75 482.38,309.38 482.44,326.21 482.49,341.76 482.55,358.42 482.63,378.41 482.70,393.12 482.78,403.84 482.88,406.88 482.97,400.45 483.08,391.27 483.18,388.55 483.28,390.66 483.41,394.84 483.53,393.35 483.67,380.22 483.80,362.05 483.93,334.96 484.09,296.06 484.23,271.10 484.40,253.45 484.55,245.30 484.70,242.21 484.88,250.18 485.04,272.07 485.23,305.07 485.40,332.00 485.57,356.59 485.77,362.00 485.94,336.11 486.16,313.08 486.33,303.15 486.51,299.73 486.73,310.47 486.92,334.36 487.14,363.62 487.33,374.98 487.51,369.64 487.74,356.90 487.93,360.41 488.16,376.95 488.35,405.80 488.54,413.03 488.76,355.01 488.95,316.15 489.18,283.30 489.37,265.93 489.56,265.12 489.78,281.23 489.96,295.38 490.18,296.05 490.37,288.63 490.54,281.10 490.76,277.53 490.93,281.56 491.14,287.48 491.31,288.94 491.47,285.42 491.67,271.62 491.83,258.49 492.02,247.77 492.17,246.52 492.32,258.52 492.49,288.45 492.63,317.04 492.80,351.13 492.93,376.76 493.06,396.23 493.21,403.76 493.32,403.99 493.46,416.39 493.57,420.55 493.67,391.08 493.79,347.16 493.88,310.87 493.98,275.52 494.06,257.71 494.14,253.41 494.22,267.66 494.28,294.24 494.35,337.56 494.40,374.15 494.45,393.21 494.49,375.01 494.52,352.40 494.56,331.73 494.58,320.68 494.59,314.04 494.60,310.23 494.60,266.53 494.60,262.59 494.61,253.92 494.63,245.19 494.65,244.46 494.68,259.92 494.72,292.41 494.76,336.50 494.81,331.71 494.87,274.15 494.93,229.23 494.99,204.52 495.08,200.54 495.16,209.20 495.25,225.02 495.34,241.92 495.43,261.80 495.55,290.68 495.65,322.04 495.79,336.54 495.90,291.62 496.02,235.77 496.17,209.22 496.30,226.56 496.46,245.90 496.59,232.77 496.73,222.06 496.91,263.33 497.06,328.78 497.24,289.23 497.40,212.87 497.56,195.19 497.76,244.90 497.93,277.66 498.13,237.09 498.30,208.90 498.48,236.42 498.69,317.88 498.87,310.68 499.09,239.94 499.27,216.79 499.46,242.37 499.68,310.32 499.87,331.42 500.09,288.24 500.28,247.45 500.47,238.55 500.70,291.06 500.89,361.54 501.12,347.31 501.31,268.96 501.50,210.32 501.72,192.89 501.91,221.69 502.14,271.19 502.32,283.12 502.50,278.74 502.72,310.12 502.90,346.90 503.12,266.96 503.29,192.48 503.46,176.63 503.67,254.65 503.83,378.25 504.03,300.22 504.19,203.17 504.35,170.75 504.53,213.42 504.68,293.07 504.86,381.03 505.00,326.29 505.14,254.65 505.30,209.88 505.43,213.61 505.57,246.93 505.69,268.39 505.81,278.29 505.94,301.19 506.04,340.81 506.16,394.05 506.25,382.77 506.34,348.88 506.44,318.20 506.51,292.79 506.60,257.88 506.66,232.76 506.72,218.13 506.78,216.39 506.83,225.74 506.88,244.95 506.91,262.88 506.94,278.14 506.97,289.62 506.98,294.11 506.99,295.97 506.99,296.52 506.99,307.05 507.00,305.38 507.02,301.17 507.04,292.95 507.07,277.75 507.10,262.62 507.15,245.94 507.19,237.11 507.24,235.91 507.31,246.97 507.38,266.58 507.46,298.03 507.53,321.37 507.61,327.64 507.72,304.16 507.81,271.40 507.92,236.25 508.03,221.22 508.13,223.79 508.27,248.84 508.39,280.77 508.54,312.63 508.66,314.43 508.79,292.50 508.96,260.94 509.10,249.70 509.27,260.98 509.42,287.91 509.58,321.85 509.76,357.48 509.92,364.29 510.12,340.34 510.29,320.80 510.46,308.51 510.66,297.69 510.84,284.09 511.05,257.50 511.23,237.80 511.41,228.66 511.63,237.19 511.81,262.82 512.04,308.53 512.22,330.66 512.41,321.00 512.64,285.78 512.83,259.58 513.06,256.04 513.25,274.23 513.44,302.75 513.66,329.53 513.85,325.48 514.08,295.20 514.27,267.14 514.45,251.78 514.68,254.20 514.86,270.33 515.08,289.28 515.26,299.95 515.44,308.28 515.65,313.02 515.82,308.72 516.03,297.29 516.19,290.53 516.36,281.22 516.55,276.47 516.71,289.94 516.90,331.84 517.05,379.00 517.19,406.90 517.37,347.18 517.50,293.74 517.66,249.36 517.79,236.38 517.92,245.25 518.06,276.37 518.18,313.72 518.31,365.74 518.42,397.69 518.51,383.94 518.63,347.60 518.72,323.47 518.82,304.44 518.89,294.84 518.96,288.09 519.04,280.79 519.10,274.63 519.16,269.02 519.21,264.35 519.26,262.78 519.30,263.57 519.33,265.83 519.35,268.75 519.37,272.14 519.38,274.19 519.39,275.22 519.39,220.14 519.39,237.26 519.41,273.66 519.43,300.50 519.46,303.52 519.49,297.61 519.53,313.43 519.58,343.93 519.63,289.34 519.69,175.92 519.76,112.60 519.82,104.76 519.91,157.93 519.99,209.83 520.09,228.81 520.18,230.11 520.28,238.08 520.40,223.59 520.51,182.99 520.64,147.29 520.76,159.21 520.88,219.19 521.03,335.01 521.16,338.92 521.32,217.02 521.46,159.28 521.61,178.05 521.79,293.51 521.94,387.57 522.12,302.46 522.28,272.29 522.45,263.39 522.65,220.82 522.81,195.96 523.02,241.95 523.19,312.75 523.37,255.95 523.59,165.27 523.77,189.31 523.99,289.74 524.17,252.95 524.36,163.28 524.58,150.13 524.77,203.35 524.99,228.88 525.18,225.58 525.37,264.96 525.60,284.45 525.79,207.83 526.02,164.69 526.21,211.28 526.40,247.85 526.62,192.91 526.81,185.34 527.03,263.67 527.22,268.10 527.40,190.13 527.62,196.48 527.80,311.99 528.01,341.90 528.18,203.23 528.35,136.21 528.55,156.42 528.72,183.13 528.91,165.93 529.07,161.91 529.23,186.18 529.41,222.29 529.56,258.84 529.73,347.47 529.87,399.26 530.01,282.65 530.16,189.67 530.29,174.50 530.43,201.66 530.55,223.63 530.66,240.85 530.79,262.43 530.89,261.36 530.98,239.61 531.09,225.84 531.18,232.05 531.27,217.06 531.34,174.92 531.41,139.06 531.48,132.71 531.54,150.30 531.60,171.17 531.64,182.52 531.68,200.11 531.72,239.23 531.74,280.79 531.76,324.22 531.77,344.99 531.78,352.53 531.78,300.06 531.78,301.19 531.80,304.52 531.82,309.28 531.84,316.46 531.87,328.63 531.91,340.21 531.96,348.91 532.01,344.12 532.06,327.53 532.14,301.63 532.20,283.70 532.29,273.99 532.37,277.78 532.45,289.95 532.56,305.92 532.65,310.22 532.77,300.09 532.88,286.51 532.99,278.64 533.13,285.52 533.25,306.59 533.40,345.84 533.53,374.29 533.66,374.95 533.83,352.49 533.97,336.58 534.15,337.06 534.30,359.48 534.46,397.46 534.65,384.79 534.81,341.45 535.01,297.97 535.17,276.06 535.34,274.99 535.55,297.73 535.73,308.10 535.94,302.16 536.12,286.39 536.31,266.21 536.53,255.59 536.71,268.48 536.94,291.27 537.12,320.94 537.31,351.24 537.54,359.92 537.73,354.54 537.96,346.14 538.15,350.59 538.34,360.05 538.57,344.95 538.75,323.00 538.98,298.55 539.17,285.50 539.35,290.69 539.57,314.24 539.76,334.72 539.97,357.95 540.15,363.01 540.33,353.59 540.54,341.43 540.71,333.72 540.91,332.76 541.08,341.23 541.24,348.74 541.44,350.82 541.59,346.39 541.77,339.89 541.92,335.64 542.07,331.00 542.24,328.89 542.37,330.95 542.50,332.96 542.66,330.01 542.78,321.80 542.92,305.58 543.03,291.55 543.14,283.83 543.26,286.23 543.36,294.01 543.47,299.94 543.55,295.18 543.63,282.25 543.72,264.83 543.79,256.01 543.87,257.74 543.92,270.83 543.97,293.58 544.03,329.38 544.07,359.41 544.10,377.33 544.13,365.44 544.15,343.01 544.16,319.36 544.17,307.94 544.17,265.60 544.18,263.52 544.19,258.91 544.21,255.12 544.23,260.63 544.26,283.23 544.30,302.65 544.34,287.51 544.39,219.67 544.45,164.25 544.52,142.20 544.58,174.71 544.65,245.90 544.74,334.22 544.83,326.32 544.93,268.82 545.03,243.71 545.12,234.05 545.25,208.73 545.36,170.24 545.50,136.43 545.62,146.06 545.74,201.40 545.90,304.62 546.03,331.98 546.19,263.99 546.34,225.73 546.48,217.43 546.66,205.39 546.82,175.17 547.01,153.08 547.17,174.93 547.33,205.12 547.53,183.86 547.70,151.21 547.91,160.90 548.09,210.99 548.26,274.67 548.48,339.52 548.66,363.49 548.88,268.01 549.07,179.33 549.25,140.74 549.48,193.12 549.67,286.17 549.90,278.55 550.08,216.01 550.28,190.62 550.50,171.91 550.69,147.27 550.92,164.40 551.11,240.22 551.30,300.14 551.52,274.46 551.71,281.14 551.93,364.12 552.11,301.31 552.30,202.55 552.51,185.95 552.69,255.18 552.90,369.53 553.07,355.20 553.24,322.77 553.44,323.60 553.60,277.28 553.77,206.94 553.95,154.87 554.11,150.66 554.29,191.44 554.43,251.65 554.57,310.60 554.74,338.82 554.87,319.42 555.02,300.73 555.15,309.07 555.27,327.97 555.40,327.10 555.51,309.62 555.64,302.72 555.73,321.08 555.83,361.29 555.93,424.83 556.01,377.16 556.10,316.98 556.17,285.64 556.24,270.41 556.31,261.35 556.36,254.92 556.41,255.45 556.45,271.14 556.48,301.18 556.52,344.19 556.54,367.39 556.56,364.58 556.56,353.83 556.57,349.84 556.57,341.32 556.58,345.35 556.59,351.99 556.62,357.01 556.64,359.84 556.68,358.03 556.72,350.18 556.78,332.23 556.83,312.24 556.89,291.74 556.96,273.12 557.03,267.77 557.12,277.79 557.20,299.93 557.29,331.29 557.40,369.96 557.50,376.11 557.62,338.65 557.73,303.42 557.84,280.69 557.99,277.71 558.11,295.13 558.26,326.88 558.40,347.02 558.53,349.53 558.70,327.45 558.85,306.75 559.03,295.08 559.18,297.51 559.34,302.38 559.53,304.36 559.69,306.60 559.89,310.51 560.06,314.04 560.23,314.42 560.44,311.64 560.62,305.92 560.84,284.10 561.02,268.37 561.20,262.78 561.42,264.57 561.61,267.02 561.84,267.11 562.02,261.22 562.21,255.40 562.44,252.62 562.63,266.18 562.86,304.71 563.05,340.94 563.24,371.95 563.47,367.66 563.65,337.76 563.88,321.74 564.07,323.56 564.25,339.84 564.47,370.54 564.65,376.30 564.83,359.14 565.05,332.68 565.22,322.18 565.43,334.64 565.60,366.05 565.77,400.01 565.97,401.10 566.13,357.21 566.32,309.53 566.47,288.10 566.62,284.39 566.80,292.39 566.94,309.37 567.10,341.28 567.24,367.03 567.37,375.78 567.52,359.91 567.64,344.83 567.77,331.61 567.88,320.70 567.99,310.18 568.11,299.50 568.20,290.94 568.31,280.02 568.39,270.47 568.47,261.11 568.55,252.38 568.62,249.76 568.69,253.58 568.74,261.11 568.79,269.97 568.84,279.35 568.87,284.97 568.91,289.09 568.93,290.87 568.94,291.65 568.96,291.86 568.96,291.86 568.96,196.76 568.97,211.27 568.98,237.89 569.00,283.17 569.03,324.69 569.07,359.83 569.11,363.87 569.15,356.67 569.21,347.33 569.27,334.90 569.34,316.91 569.41,311.63 569.48,318.21 569.58,314.20 569.67,279.36 569.77,229.33 569.87,209.97 569.97,223.81 570.10,284.50 570.21,356.15 570.35,376.79 570.48,324.50 570.60,290.74 570.76,285.24 570.90,293.43 571.07,293.90 571.21,286.40 571.36,281.40 571.54,283.80 571.70,284.10 571.89,265.34 572.05,242.84 572.22,226.62 572.42,217.95 572.59,213.17 572.80,210.62 572.98,210.79 573.16,212.79 573.38,228.45 573.56,241.07 573.78,232.22 573.97,207.24 574.15,191.19 574.38,205.81 574.57,247.33 574.80,314.91 574.99,341.19 575.18,306.03 575.40,263.54 575.59,251.93 575.78,256.98 576.01,261.43 576.20,233.83 576.42,200.77 576.61,206.67 576.79,242.02 577.01,286.84 577.19,285.34 577.40,243.39 577.58,223.64 577.75,239.96 577.96,300.30 578.13,329.70 578.33,259.29 578.49,193.27 578.65,174.58 578.83,226.69 578.98,294.04 579.16,296.24 579.30,258.46 579.44,251.56 579.61,274.89 579.74,258.19 579.89,202.09 580.01,189.65 580.12,228.92 580.26,291.41 580.36,268.39 580.48,201.75 580.58,182.26 580.67,201.97 580.77,236.84 580.84,234.97 580.93,206.81 581.00,192.41 581.06,193.85 581.12,207.08 581.17,220.22 581.22,237.26 581.26,252.47 581.29,265.51 581.32,274.33 581.34,276.69 581.35,277.19 581.35,277.25 581.35,250.60 581.36,253.56 581.37,258.16 581.39,263.97 581.42,266.95 581.45,266.97 581.49,263.63 581.53,260.50 581.59,260.93 581.65,268.31 581.71,284.24 581.79,314.70 581.86,345.90 581.96,373.30 582.04,361.30 582.13,325.31 582.24,280.88 582.35,256.42 582.47,249.67 582.58,261.76 582.70,284.90 582.85,313.13 582.97,319.35 583.13,297.32 583.26,270.49 583.40,255.00 583.58,258.56 583.72,275.58 583.90,304.25 584.06,325.76 584.22,332.70 584.41,311.27 584.58,291.19 584.78,279.10 584.95,276.11 585.13,271.75 585.34,259.93 585.52,250.29 585.73,243.16 585.92,248.17 586.10,271.00 586.32,325.85 586.51,377.25 586.70,411.07 586.92,361.42 587.11,322.64 587.34,308.08 587.53,315.53 587.72,339.41 587.95,383.50 588.14,400.36 588.37,376.02 588.55,357.44 588.74,352.19 588.96,364.71 589.15,373.30 589.37,358.90 589.55,332.06 589.73,310.50 589.94,309.28 590.11,329.30 590.32,364.73 590.49,386.11 590.65,360.58 590.85,311.42 591.01,285.71 591.20,281.45 591.35,296.43 591.50,326.02 591.67,377.08 591.81,400.14 591.97,364.78 592.10,333.33 592.23,311.85 592.38,296.82 592.49,288.82 592.63,282.56 592.73,279.71 592.84,278.68 592.95,280.59 593.04,286.33 593.14,299.11 593.22,313.95 593.30,331.69 593.38,355.87 593.44,377.13 593.51,398.66 593.56,400.91 593.60,385.37 593.65,359.60 593.68,338.47 593.71,316.41 593.73,301.96 593.74,291.73 593.75,285.48 593.75,341.09 593.75,348.06 593.76,347.40 593.78,311.66 593.81,228.77 593.83,155.48 593.88,99.91 593.92,103.02 593.97,156.38 594.03,259.51 594.09,308.08 594.17,260.58 594.24,221.39 594.32,213.60 594.42,220.43 594.51,209.47 594.62,177.29 594.72,151.98 594.82,136.32 594.95,143.48 595.07,184.57 595.21,261.29 595.34,267.91 595.47,198.54 595.63,138.41 595.77,148.80 595.94,221.08 596.09,272.92 596.24,262.63 596.42,249.65 596.58,291.32 596.77,323.54 596.94,238.80 597.11,161.24 597.31,143.75 597.48,177.40 597.66,196.26 597.87,171.31 598.05,166.46 598.27,225.92 598.46,300.37 598.64,300.03 598.87,214.57 599.05,176.40 599.28,190.71 599.47,219.61 599.66,222.77 599.89,193.23 600.08,161.07 600.30,161.44 600.49,204.02 600.68,250.02 600.91,271.62 601.10,274.72 601.32,255.91 601.50,208.26 601.69,156.30 601.91,156.35 602.08,211.14 602.30,284.82 602.47,311.18 602.64,297.70 602.85,260.59 603.01,239.73 603.21,274.79 603.37,342.13 603.53,319.22 603.71,243.74 603.86,253.78 604.03,363.25 604.17,360.84 604.31,243.03 604.47,194.17 604.60,249.60 604.75,352.78 604.86,270.97 604.98,183.58 605.11,177.30 605.21,247.29 605.33,358.93 605.42,362.79 605.50,316.85 605.60,295.76 605.68,295.93 605.76,301.18 605.82,305.03 605.88,299.28 605.94,280.72 605.99,276.42 606.03,304.91 606.06,352.04 606.09,381.94 606.12,333.99 606.13,287.67 606.14,255.01 606.14,324.96 606.14,324.68 606.15,322.93 606.17,319.33 606.19,311.61 606.22,302.72 606.26,292.63 606.30,280.49 606.35,271.28 606.41,262.00 606.47,256.02 606.54,251.81 606.62,249.11 606.70,248.57 606.79,249.02 606.88,249.02 606.97,248.17 607.09,249.14 607.19,255.74 607.33,272.41 607.44,291.29 607.56,310.77 607.71,327.01 607.84,325.45 608.00,297.54 608.13,266.89 608.27,245.93 608.45,237.13 608.60,243.44 608.75,261.60 608.94,301.93 609.10,343.84 609.30,364.08 609.47,337.77 609.64,299.14 609.84,260.53 610.02,247.76 610.23,254.10 610.41,268.30 610.59,291.68 610.81,319.33 611.00,322.50 611.22,297.45 611.41,266.18 611.60,240.85 611.82,232.62 612.01,245.03 612.24,270.07 612.43,294.23 612.62,306.31 612.85,296.18 613.04,286.64 613.26,281.41 613.45,284.81 613.64,298.87 613.86,315.84 614.04,317.49 614.26,296.52 614.44,270.16 614.62,253.57 614.83,248.66 615.00,253.49 615.21,266.11 615.37,282.68 615.54,291.96 615.73,287.41 615.89,276.40 616.07,261.01 616.22,249.24 616.37,240.63 616.54,237.88 616.68,240.79 616.84,244.70 616.97,244.88 617.09,242.28 617.23,241.51 617.35,250.43 617.48,279.49 617.58,319.08 617.68,368.13 617.79,403.46 617.88,358.98 617.98,301.40 618.05,265.88 618.13,245.34 618.20,241.02 618.26,252.15 618.32,277.36 618.37,301.75 618.41,322.38 618.45,334.20 618.48,331.70 618.51,320.09 618.52,309.32 618.53,301.34 618.53,298.06 618.53,283.47 618.54,286.29 618.56,290.35 618.58,296.50 618.61,310.17 618.64,329.62 618.69,349.69 618.73,332.32 618.78,289.21 618.85,244.67 618.92,226.86 619.00,212.15 619.07,186.99 619.15,160.38 619.26,162.02 619.35,204.00 619.46,280.03 619.57,326.27 619.67,351.05 619.81,386.39 619.93,342.09 620.05,262.64 620.20,216.36 620.33,251.51 620.50,363.79 620.64,354.19 620.78,257.72 620.96,204.13 621.12,219.43 621.30,270.74 621.46,305.53 621.63,340.13 621.83,381.75 622.00,337.70 622.20,282.73 622.38,291.60 622.55,354.12 622.77,330.60 622.95,256.18 623.17,249.00 623.35,321.86 623.54,379.89 623.76,241.58 623.95,173.49 624.18,186.18 624.37,245.94 624.56,298.16 624.79,302.79 624.98,325.07 625.20,364.04 625.39,316.33 625.58,262.35 625.81,252.17 625.99,273.57 626.22,239.97 626.40,189.65 626.58,172.25 626.80,206.02 626.98,248.59 627.19,227.81 627.36,190.18 627.53,186.17 627.73,211.31 627.90,225.83 628.09,211.93 628.25,197.33 628.41,191.53 628.59,188.95 628.73,191.52 628.91,205.98 629.04,220.73 629.18,215.43 629.33,186.13 629.46,175.56 629.60,205.37 629.72,254.11 629.83,283.69 629.96,261.13 630.05,232.65 630.17,227.42 630.26,241.40 630.34,241.92 630.43,210.94 630.50,192.54 630.58,216.72 630.64,275.45 630.70,338.69 630.75,326.09 630.80,271.50 630.84,224.92 630.87,206.28 630.89,198.81 630.91,195.73 630.92,194.68 630.93,194.23 630.93,275.66 630.93,270.53 630.95,259.13 630.97,247.81 631.00,236.47 631.03,232.42 631.07,235.54 631.12,249.31 631.17,266.98 631.23,289.26 631.30,302.33 631.36,307.28 631.45,307.05 631.53,308.96 631.63,320.25 631.72,339.25 631.82,367.44 631.94,408.23 632.05,402.01 632.16,365.38 632.30,327.95 632.42,306.35 632.57,291.63 632.70,284.78 632.84,277.81 633.00,268.56 633.15,265.76 633.33,272.38 633.48,285.05 633.63,300.31 633.82,319.94 633.99,338.50 634.19,340.11 634.35,329.31 634.53,323.69 634.73,328.72 634.91,339.52 635.13,359.77 635.31,367.49 635.49,353.98 635.71,323.56 635.90,299.33 636.12,291.04 636.31,300.21 636.50,318.90 636.72,349.24 636.91,379.59 637.14,398.20 637.33,376.06 637.52,348.68 637.75,321.06 637.94,309.34 638.16,311.24 638.35,309.46 638.54,307.47 638.76,309.49 638.94,311.80 639.16,303.97 639.34,299.92 639.51,296.31 639.72,282.20 639.89,270.22 640.09,277.24 640.26,294.15 640.42,320.37 640.61,365.07 640.77,374.49 640.95,320.72 641.10,281.38 641.24,256.16 641.41,247.56 641.55,265.98 641.70,313.20 641.83,359.29 641.95,376.87 642.09,351.52 642.20,336.06 642.33,336.06 642.43,352.29 642.52,383.27 642.63,421.68 642.72,383.56 642.81,335.34 642.88,306.59 642.95,291.70 643.02,291.66 643.08,302.20 643.14,318.77 643.18,328.94 643.22,332.72 643.26,331.06 643.28,328.19 643.30,325.73 643.31,324.82 643.32,324.54 643.32,281.95 643.33,283.32 643.34,287.05 643.36,291.55 643.38,296.69 643.41,302.18 643.45,304.15 643.50,300.31 643.55,290.75 643.60,276.77 643.68,259.12 643.74,248.74 643.81,246.27 643.91,255.98 643.99,272.34 644.10,291.56 644.19,297.20 644.29,291.82 644.42,278.55 644.53,268.84 644.67,266.88 644.79,276.86 644.91,298.18 645.07,331.92 645.20,353.61 645.37,374.45 645.51,388.19 645.66,385.92 645.84,372.92 646.00,367.19 646.19,367.82 646.35,376.59 646.51,380.76 646.71,345.45 646.88,301.94 647.09,255.91 647.27,231.80 647.45,234.14 647.66,259.80 647.85,279.03 648.07,283.73 648.25,275.95 648.44,278.71 648.66,298.41 648.85,320.17 649.08,330.99 649.27,303.19 649.46,268.28 649.69,245.92 649.88,250.47 650.11,287.40 650.29,336.40 650.48,377.81 650.71,391.55 650.89,380.52 651.11,362.38 651.30,336.98 651.48,307.78 651.69,277.44 651.87,263.98 652.08,274.77 652.25,302.18 652.42,327.12 652.62,323.84 652.78,294.43 652.98,261.56 653.13,250.08 653.28,249.53 653.46,249.79 653.61,257.21 653.78,284.77 653.91,313.60 654.04,327.18 654.20,302.78 654.32,267.52 654.46,233.62 654.57,223.53 654.68,229.92 654.80,242.33 654.90,241.95 655.01,230.90 655.09,225.68 655.17,232.63 655.26,258.31 655.33,288.01 655.41,316.94 655.46,319.50 655.51,301.59 655.57,272.21 655.61,253.83 655.64,245.86 655.67,250.73 655.69,262.46 655.71,278.31 655.71,287.18 655.71,293.54 655.72,296.52 655.73,304.78 655.75,322.63 655.77,345.03 655.80,374.13 655.84,409.96 655.88,396.83 655.93,353.92 655.99,324.70 656.04,308.80 656.12,312.06 656.19,332.32 656.28,362.55 656.37,360.64 656.45,328.63 656.57,288.34 656.66,268.38 656.79,267.77 656.90,289.45 657.01,329.77 657.16,384.93 657.28,379.36 657.44,327.17 657.57,295.79 657.71,279.63 657.88,273.24 658.02,273.43 658.20,273.10 658.36,272.27 658.51,275.81 658.71,285.47 658.87,300.52 659.07,329.37 659.24,350.55 659.42,357.59 659.63,351.99 659.80,341.33 660.02,334.76 660.20,340.10 660.39,347.83 660.61,353.86 660.79,352.40 661.02,347.44 661.21,348.67 661.40,343.21 661.63,325.99 661.82,310.15 662.04,286.09 662.23,273.88 662.42,269.18 662.65,268.15 662.84,277.62 663.06,297.57 663.25,306.83 663.43,304.17 663.65,289.19 663.84,279.94 664.05,273.08 664.23,272.99 664.40,283.37 664.61,308.03 664.78,329.05 664.98,342.48 665.14,343.45 665.31,332.42 665.49,312.55 665.65,298.36 665.83,289.39 665.97,289.18 666.11,295.24 666.28,311.33 666.41,330.37 666.56,354.03 666.69,368.70 666.81,376.28 666.94,371.73 667.05,358.08 667.18,344.22 667.27,341.25 667.37,346.36 667.47,359.73 667.55,371.04 667.64,374.39 667.71,365.67 667.78,350.83 667.85,330.94 667.90,315.81 667.95,301.82 667.99,294.11 668.03,289.23 668.06,285.24 668.08,282.25 668.09,279.33 668.10,276.67 668.11,275.98 668.11,322.43 668.12,319.95 668.13,312.25 668.16,292.85 668.18,269.49 668.22,239.48 668.26,219.75 668.31,210.58 668.37,217.71 668.43,237.60 668.50,268.71 668.57,287.78 668.65,290.90 668.74,277.61 668.83,263.27 668.94,249.72 669.04,243.08 669.14,242.65 669.27,253.19 669.38,270.63 669.53,292.05 669.65,295.05 669.78,278.58 669.94,246.85 670.07,229.25 670.24,237.13 670.39,268.26 670.54,315.95 670.72,384.62 670.88,406.97 671.07,345.61 671.23,309.20 671.40,304.58 671.60,339.57 671.77,385.25 671.98,370.84 672.16,312.07 672.34,271.97 672.56,266.83 672.74,287.19 672.96,312.11 673.15,307.36 673.34,280.72 673.56,275.23 673.75,290.88 673.98,312.39 674.17,320.65 674.36,303.87 674.59,299.06 674.78,322.73 675.01,368.86 675.19,390.60 675.38,345.56 675.61,310.87 675.79,319.24 676.01,354.41 676.19,372.90 676.37,335.39 676.59,284.93 676.76,268.23 676.97,266.58 677.14,264.07 677.31,259.14 677.51,254.71 677.67,260.03 677.86,271.31 678.01,272.49 678.16,265.14 678.34,250.28 678.48,246.20 678.64,269.90 678.78,309.89 678.91,359.25 679.06,383.58 679.18,337.69 679.31,281.71 679.42,260.81 679.53,267.79 679.65,293.56 679.74,299.67 679.85,275.05 679.93,250.50 680.01,238.90 680.09,243.77 680.16,254.44 680.22,261.47 680.28,260.88 680.33,256.65 680.38,252.96 680.41,252.79 680.44,255.15 680.47,260.30 680.48,265.25 680.50,269.99 680.50,271.59 680.50,320.04 680.51,315.27 680.52,306.85 680.54,292.16 680.57,278.41 680.60,266.02 680.65,255.81 680.69,252.45 680.75,254.96 680.81,262.48 680.87,275.17 680.95,297.86 681.02,322.35 681.12,352.83 681.21,366.83 681.30,356.20 681.41,321.54 681.51,292.91 681.64,273.64 681.75,274.29 681.87,289.19 682.02,318.54 682.14,339.83 682.30,346.59 682.44,330.14 682.58,304.18 682.75,289.96 682.90,297.35 683.08,320.33 683.24,339.05 683.40,343.62 683.59,332.30 683.76,317.22 683.96,306.17 684.13,307.90 684.31,318.98 684.52,346.87 684.70,380.66 684.92,414.11 685.10,408.07 685.28,384.54 685.51,357.09 685.69,344.41 685.92,339.39 686.11,338.85 686.30,336.73 686.53,330.81 686.72,323.14 686.94,301.09 687.13,284.38 687.32,276.26 687.55,276.30 687.74,273.03 687.96,275.56 688.15,279.01 688.33,277.53 688.55,272.60 688.73,274.29 688.94,274.18 689.12,275.15 689.29,285.29 689.50,311.02 689.67,336.65 689.87,361.03 690.03,355.85 690.19,326.12 690.37,287.04 690.52,265.66 690.70,254.70 690.84,257.74 690.98,273.87 691.15,303.43 691.28,327.11 691.43,345.47 691.55,350.96 691.66,348.75 691.80,339.94 691.90,331.38 692.00,318.66 692.12,293.83 692.21,270.35 692.31,248.39 692.38,240.21 692.46,243.39 692.54,261.44 692.60,285.14 692.66,317.90 692.71,343.92 692.76,364.98 692.80,379.96 692.83,382.78 692.86,377.83 692.88,371.02 692.89,364.88 692.89,361.01 692.89,323.58 692.90,321.02 692.91,317.53 692.93,314.99 692.96,316.18 692.99,321.86 693.03,331.93 693.07,337.37 693.12,334.65 693.19,322.02 693.25,311.53 693.33,308.65 693.40,317.98 693.48,336.82 693.58,362.65 693.67,372.98 693.78,367.88 693.89,363.89 693.99,367.33 694.12,379.46 694.24,386.63 694.39,371.25 694.51,345.01 694.64,321.26 694.80,311.14 694.94,322.61 695.12,351.65 695.26,377.06 695.41,382.25 695.60,357.66 695.76,340.75 695.95,343.06 696.12,355.67 696.29,367.78 696.49,360.98 696.67,335.28 696.88,303.57 697.06,285.39 697.24,273.14 697.46,267.53 697.64,266.40 697.86,266.88 698.05,273.77 698.24,287.25 698.46,317.81 698.65,353.39 698.88,374.59 699.07,351.56 699.26,318.20 699.49,293.93 699.68,290.67 699.91,295.91 700.09,306.70 700.28,311.98 700.50,298.31 700.69,284.06 700.91,275.10 701.09,277.43 701.27,293.97 701.48,314.28 701.65,322.83 701.86,327.79 702.03,328.70 702.19,331.19 702.39,343.14 702.55,351.88 702.74,355.54 702.89,353.49 703.04,344.39 703.21,321.08 703.35,296.79 703.49,274.39 703.64,255.71 703.77,250.49 703.92,256.99 704.03,272.47 704.15,292.99 704.27,308.28 704.38,304.65 704.49,292.48 704.58,286.66 704.67,288.56 704.76,300.78 704.84,317.06 704.92,341.26 704.98,364.11 705.04,386.88 705.10,397.12 705.14,377.53 705.19,342.61 705.22,314.37 705.24,290.24 705.27,268.38 705.28,256.43 705.29,249.40 705.29,341.67 705.29,339.70 705.30,332.98 705.32,323.98 705.35,309.32 705.37,293.38 705.41,274.08 705.46,250.64 705.51,238.07 705.57,241.73 705.63,265.04 705.70,303.50 705.78,343.00 705.86,329.00 705.96,276.06 706.05,239.67 706.14,223.73 706.26,229.85 706.36,242.62 706.49,249.54 706.61,246.78 706.73,241.77 706.88,240.93 707.01,248.16 707.17,268.97 707.31,293.27 707.45,307.63 707.63,296.69 707.78,275.12 707.96,254.44 708.12,253.14 708.28,270.68 708.48,304.40 708.65,331.00 708.85,357.02 709.02,372.06 709.20,367.28 709.41,328.47 709.59,285.10 709.81,232.82 710.00,205.11 710.18,202.77 710.41,235.55 710.59,276.03 710.82,320.18 711.01,323.55 711.20,295.44 711.43,256.16 711.62,231.79 711.84,219.49 712.03,222.16 712.22,233.51 712.45,256.38 712.64,289.14 712.86,343.76 713.04,391.19 713.23,397.80 713.45,354.87 713.62,313.78 713.84,275.52 714.01,256.74 714.18,245.76 714.39,230.02 714.55,216.39 714.72,213.50 714.91,215.62 715.07,220.87 715.25,232.91 715.40,244.90 715.55,253.22 715.71,255.49 715.85,251.36 716.01,246.09 716.14,248.05 716.26,256.22 716.40,266.27 716.52,266.82 716.65,260.37 716.75,257.65 716.85,262.62 716.96,278.73 717.04,294.26 717.14,302.00 717.22,294.21 717.29,278.91 717.36,261.38 717.42,252.11 717.48,247.59 717.53,247.61 717.56,250.04 717.60,256.25 717.63,264.34 717.66,276.26 717.67,285.72 717.68,292.32 717.68,294.38 717.68,288.66 717.69,285.44 717.71,281.97 717.73,279.67 717.76,281.61 717.80,289.24 717.84,305.82 717.89,322.78 717.94,336.23 718.01,337.51 718.08,325.14 718.16,304.20 718.24,289.30 718.32,279.73 718.42,273.81 718.51,269.95 718.63,263.47 718.74,257.92 718.84,256.39 718.98,262.64 719.10,272.60 719.25,286.87 719.38,296.85 719.51,305.61 719.67,310.00 719.81,295.69 719.99,274.57 720.14,265.27 720.29,261.13 720.48,262.68 720.64,277.76 720.84,310.33 721.01,324.64 721.18,327.86 721.38,327.03 721.56,323.09 721.77,333.43 721.95,353.54 722.13,361.74 722.35,355.86 722.54,340.88 722.76,316.75 722.95,310.00 723.14,310.95 723.36,327.41 723.55,350.39 723.78,350.41 723.97,325.65 724.16,291.53 724.39,260.22 724.58,253.27 724.80,254.54 724.99,255.04 725.18,262.70 725.40,260.74 725.58,251.60 725.77,252.23 725.98,262.41 726.16,279.58 726.37,316.36 726.54,341.79 726.71,342.84 726.91,324.11 727.08,305.07 727.27,299.79 727.43,311.02 727.58,327.99 727.76,341.34 727.91,345.97 728.08,344.99 728.22,333.66 728.35,315.56 728.51,290.15 728.63,271.03 728.77,259.65 728.89,263.68 729.00,280.73 729.12,320.25 729.22,366.14 729.33,392.96 729.42,348.01 729.50,298.91 729.59,256.32 729.67,239.08 729.74,239.34 729.80,251.81 729.85,268.37 729.91,284.93 729.95,292.52 729.99,296.07 730.02,297.71 730.04,299.77 730.06,302.62 730.07,304.43 730.07,305.17 730.07,262.94 730.08,265.94 730.10,272.40 730.12,278.36 730.15,281.86 730.18,279.95 730.22,277.19 730.27,282.49 730.32,299.96 730.39,334.36 730.46,360.80 730.52,362.88 730.61,334.01 730.69,303.69 730.80,269.31 730.89,245.00 730.98,227.44 731.11,218.03 731.21,218.86 731.35,225.98 731.47,237.73 731.59,259.62 731.74,295.19 731.88,308.12 732.04,285.40 732.18,265.27 732.32,272.37 732.50,328.91 732.66,392.79 732.84,342.00 733.00,281.86 733.17,250.51 733.37,251.96 733.54,281.41 733.74,306.24 733.92,281.08 734.09,238.38 734.31,196.32 734.49,185.67 734.71,209.02 734.89,237.69 735.08,244.73 735.30,218.03 735.49,203.84 735.72,223.36 735.91,267.04 736.10,322.55 736.33,362.03 736.52,344.98 736.71,327.63 736.93,310.10 737.12,279.85 737.35,238.18 737.53,228.89 737.72,244.94 737.94,290.48 738.12,336.84 738.34,371.17 738.52,386.57 738.69,416.81 738.90,370.36 739.07,306.00 739.27,235.00 739.44,198.00 739.60,190.08 739.79,206.71 739.95,226.18 740.13,242.90 740.27,258.11 740.42,289.49 740.58,346.73 740.72,369.22 740.87,312.29 741.00,256.63 741.12,220.34 741.26,213.13 741.37,234.15 741.50,262.94 741.59,266.25 741.69,258.06 741.80,259.50 741.88,277.15 741.97,297.92 742.04,285.44 742.11,248.25 742.18,205.64 742.24,188.71 742.29,192.69 742.34,207.25 742.37,220.28 742.41,224.10 742.43,218.79 742.45,209.98 742.46,204.71 742.47,202.38 742.47,251.78 742.47,252.04 742.49,252.66 742.51,253.80 742.53,256.50 742.57,263.73 742.61,274.17 742.66,291.05 742.71,304.97 742.76,312.51 742.84,305.82 742.90,288.18 742.99,261.47 743.07,241.35 743.15,227.35 743.26,222.57 743.36,231.00 743.48,254.92 743.59,281.43 743.70,309.38 743.84,338.40 743.96,347.69 744.11,332.79 744.24,312.44 744.38,298.75 744.54,292.77 744.69,293.97 744.87,299.54 745.02,294.23 745.17,272.67 745.36,239.92 745.53,226.65 745.73,221.27 745.89,225.55 746.07,241.24 746.27,264.81 746.45,272.77 746.67,261.40 746.85,248.60 747.03,241.69 747.25,244.71 747.44,253.07 747.62,263.80 747.85,270.34 748.04,269.84 748.26,274.66 748.45,281.31 748.64,284.82 748.87,288.99 749.06,286.93 749.29,280.37 749.48,278.79 749.67,295.35 749.89,344.77 750.08,397.58 750.30,395.85 750.48,335.41 750.66,286.09 750.88,264.12 751.05,266.30 751.26,291.80 751.43,327.70 751.60,354.81 751.80,334.48 751.96,300.16 752.15,269.36 752.31,267.46 752.46,290.99 752.64,337.29 752.78,353.90 752.95,329.12 753.09,294.13 753.22,264.28 753.37,247.87 753.49,254.21 753.63,282.36 753.74,313.47 753.85,343.65 753.97,374.23 754.06,393.58 754.17,407.00 754.26,409.00 754.34,405.39 754.42,399.21 754.49,395.24 754.57,393.01 754.62,392.05 754.67,389.08 754.72,379.97 754.76,368.70 754.80,354.26 754.82,343.66 754.84,335.41 754.85,329.00 754.86,326.51 754.86,174.35 754.87,189.45 754.88,223.83 754.90,288.96 754.92,353.92 754.95,380.91 754.99,334.88 755.03,300.35 755.09,288.67 755.14,287.86 755.22,270.64 755.28,249.50 755.35,242.15 755.45,262.06 755.53,295.20 755.64,339.17 755.73,371.82 755.83,358.19 755.96,276.49 756.07,218.37 756.21,204.09 756.33,246.65 756.45,328.59 756.61,397.66 756.74,312.00 756.91,231.40 757.05,204.46 757.20,214.00 757.38,258.51 757.54,309.24 757.73,366.02 757.89,392.50 758.05,353.40 758.25,267.55 758.42,204.54 758.60,172.54 758.81,193.13 758.99,266.61 759.20,369.42 759.39,332.70 759.57,272.60 759.79,253.53 759.98,289.60 760.20,355.60 760.39,358.40 760.58,308.58 760.81,256.96 761.00,254.23 761.23,294.31 761.42,331.96 761.61,306.01 761.83,224.53 762.02,182.82 762.25,170.40 762.43,183.67 762.62,192.29 762.84,185.36 763.02,197.86 763.23,250.73 763.41,310.70 763.59,301.38 763.79,221.03 763.96,192.56 764.16,214.71 764.32,236.36 764.48,227.48 764.67,189.40 764.82,186.15 765.00,241.67 765.15,305.18 765.29,300.80 765.45,232.31 765.58,201.51 765.74,220.07 765.86,259.95 765.98,274.17 766.11,235.34 766.22,204.86 766.34,205.91 766.44,227.07 766.53,242.96 766.63,244.77 766.71,243.81 766.80,239.50 766.87,217.07 766.93,179.43 767.00,145.52 767.05,148.84 767.11,197.80 767.15,266.15 767.18,342.70 767.21,407.24 767.23,375.53 767.25,338.81 767.25,324.27 767.25,321.47 767.26,353.81 767.27,355.21 767.29,355.49 767.31,353.07 767.34,348.12 767.38,339.77 767.42,331.22 767.47,318.74 767.53,306.46 767.58,293.42 767.66,279.55 767.73,272.26 767.82,271.34 767.91,277.40 767.99,288.22 768.11,303.83 768.20,315.57 768.33,326.42 768.44,335.11 768.55,345.33 768.70,358.73 768.82,368.58 768.98,373.43 769.11,369.01 769.25,356.32 769.42,341.60 769.56,334.84 769.71,324.48 769.90,303.58 770.06,283.39 770.25,259.62 770.41,241.89 770.58,239.37 770.78,258.61 770.96,283.51 771.17,311.05 771.34,319.69 771.52,305.89 771.74,282.38 771.93,269.93 772.15,265.99 772.33,272.75 772.52,289.06 772.75,308.60 772.94,318.09 773.17,321.72 773.36,321.58 773.55,313.30 773.77,295.44 773.96,282.04 774.19,277.19 774.38,287.61 774.57,305.14 774.79,327.68 774.97,332.01 775.19,308.53 775.38,286.82 775.56,273.54 775.77,281.89 775.94,318.19 776.15,384.53 776.32,404.66 776.49,350.18 776.68,286.42 776.85,255.70 777.03,251.05 777.19,268.18 777.34,293.72 777.51,321.26 777.65,322.35 777.82,293.28 777.95,272.31 778.08,267.01 778.23,283.31 778.35,311.02 778.48,349.83 778.59,370.62 778.70,362.58 778.81,336.41 778.91,320.84 779.01,313.08 779.09,310.42 779.17,305.04 779.25,291.68 779.32,277.65 779.39,263.70 779.44,257.94 779.48,258.42 779.53,265.56 779.57,274.01 779.60,282.68 779.62,286.39 779.63,286.89 779.64,285.64 779.65,285.14 779.65,231.73 779.66,245.73 779.67,272.93 779.70,325.14 779.72,380.67 779.76,401.35 779.80,350.37 779.85,306.22 779.91,262.22 779.97,227.83 780.04,195.07 780.11,187.12 780.19,202.10 780.28,237.16 780.37,260.13 780.48,274.94 780.58,290.91 780.68,305.11 780.81,283.51 780.92,248.13 781.04,239.08 781.19,286.94 781.32,347.13 781.48,308.79 781.61,250.46 781.75,238.62 781.93,286.77 782.08,334.31 782.26,286.73 782.42,220.87 782.58,189.45 782.77,213.34 782.94,261.34 783.14,281.25 783.31,243.10 783.49,204.83 783.70,199.12 783.88,228.45 784.10,261.51 784.28,267.09 784.47,278.05 784.69,314.71 784.88,351.95 785.10,348.73 785.29,330.67 785.48,325.52 785.71,320.89 785.90,319.14 786.13,311.90 786.32,294.73 786.51,267.12 786.73,241.19 786.92,247.92 787.15,277.27 787.33,300.27 787.51,295.41 787.73,264.26 787.91,253.31 788.13,276.47 788.30,312.10 788.48,335.58 788.68,301.25 788.85,249.71 789.05,214.31 789.21,214.24 789.36,236.51 789.55,275.56 789.70,296.54 789.88,295.66 790.02,282.21 790.16,263.48 790.32,241.48 790.45,239.72 790.60,275.56 790.72,320.72 790.83,319.11 790.96,257.25 791.07,220.58 791.19,223.87 791.28,253.28 791.37,269.48 791.47,249.89 791.55,237.49 791.63,258.02 791.70,287.45 791.76,285.98 791.82,243.08 791.87,216.52 791.92,222.48 791.95,256.21 791.98,302.26 792.01,348.64 792.02,361.45 792.04,354.55 792.04,350.06 792.04,251.21 792.05,250.57 792.06,250.84 792.08,255.09 792.11,264.45 792.14,280.54 792.19,307.35 792.23,329.74 792.29,339.66 792.35,325.81 792.41,302.40 792.49,279.69 792.56,273.80 792.64,282.44 792.75,308.67 792.84,333.85 792.95,347.35 793.05,338.22 793.16,320.13 793.29,301.87 793.41,300.63 793.56,323.19 793.68,358.83 793.81,395.49 793.98,385.45 794.12,354.31 794.29,319.98 794.44,302.13 794.59,299.15 794.78,311.92 794.94,325.79 795.13,333.95 795.30,343.44 795.47,347.74 795.67,334.33 795.85,312.47 796.06,289.14 796.24,273.59 796.42,257.07 796.64,260.49 796.82,285.27 797.05,327.21 797.23,362.27 797.42,385.47 797.65,358.88 797.84,332.93 798.07,307.24 798.26,289.36 798.45,286.99 798.67,295.01 798.86,301.95 799.09,308.82 799.28,320.29 799.46,336.72 799.69,352.14 799.87,361.07 800.09,360.30 800.27,339.95 800.45,319.56 800.66,295.09 800.83,274.90 801.04,260.54 801.21,258.61 801.37,259.32 801.57,262.79 801.73,267.60 801.91,275.69 802.06,288.21 802.21,306.02 802.38,327.61 802.52,338.35 802.69,325.35 802.82,296.70 802.94,267.63 803.09,246.11 803.20,242.35 803.34,252.60 803.44,272.76 803.54,299.71 803.66,321.86 803.75,318.33 803.85,301.64 803.92,294.63 804.00,301.37 804.08,327.00 804.14,354.54 804.20,369.76 804.25,354.05 804.30,329.62 804.34,306.54 804.37,296.18 804.40,292.38 804.42,292.94 804.43,294.18 804.43,294.96 804.43,226.94 804.44,231.24 804.45,240.58 804.47,256.54 804.50,282.68 804.53,303.10 804.56,310.92 804.61,295.71 804.66,270.69 804.73,241.51 804.79,226.65 804.86,224.83 804.94,239.50 805.02,258.55 805.12,272.05 805.21,267.01 805.31,256.27 805.43,259.62 805.53,290.16 805.66,347.28 805.78,332.73 805.90,265.83 806.05,215.21 806.18,226.08 806.34,298.56 806.48,376.39 806.63,400.28 806.80,373.69 806.95,387.56 807.14,378.82 807.30,328.28 807.46,298.81 807.66,308.59 807.83,314.89 808.03,283.87 808.21,265.06 808.38,267.74 808.60,267.56 808.78,249.64 809.00,230.52 809.18,228.48 809.37,228.93 809.59,239.90 809.78,267.40 810.00,336.53 810.19,352.77 810.38,302.28 810.61,270.26 810.80,261.94 811.03,241.83 811.22,228.47 811.41,247.31 811.63,291.82 811.82,279.89 812.04,237.38 812.23,236.36 812.41,279.85 812.63,313.71 812.81,264.07 813.02,209.25 813.19,208.76 813.37,245.44 813.57,290.19 813.73,287.88 813.93,282.40 814.09,293.57 814.24,309.18 814.43,318.88 814.58,316.78 814.75,296.21 814.89,265.19 815.03,233.36 815.18,202.64 815.31,188.37 815.46,191.71 815.57,212.64 815.69,241.62 815.81,260.72 815.92,256.95 816.03,251.97 816.12,255.22 816.21,254.76 816.30,236.71 816.38,214.85 816.46,196.25 816.52,189.62 816.58,187.70 816.64,190.05 816.68,198.17 816.73,215.54 816.76,231.79 816.78,244.66 816.81,253.53 816.82,257.02 816.83,258.58 816.83,282.68 816.83,278.65 816.84,265.93 816.86,251.16 816.88,236.29 816.91,224.40 816.95,224.30 817.00,240.41 817.05,268.62 817.10,309.11 817.17,369.27 817.24,420.51 817.32,378.54 817.40,333.64 817.48,299.71 817.59,276.23 817.68,269.31 817.80,271.16 817.90,278.41 818.01,288.18 818.15,293.33 818.27,285.51 818.42,266.42 818.55,249.57 818.68,238.53 818.85,236.89 818.99,241.11 819.17,255.88 819.32,282.23 819.47,317.95 819.66,360.34 819.82,374.02 820.02,350.04 820.19,308.52 820.36,271.75 820.56,246.81 820.74,240.76 820.95,245.53 821.13,264.18 821.32,291.67 821.54,323.47 821.72,343.49 821.95,358.04 822.13,360.84 822.32,358.34 822.55,353.71 822.74,349.31 822.97,336.30 823.16,312.02 823.35,291.50 823.57,279.02 823.76,281.30 823.99,305.09 824.18,348.52 824.36,394.25 824.58,392.80 824.77,346.46 824.99,294.81 825.16,269.92 825.34,254.76 825.55,243.47 825.72,243.65 825.93,252.98 826.09,262.08 826.26,270.23 826.45,285.14 826.61,306.03 826.79,335.14 826.94,347.00 827.09,337.25 827.25,314.49 827.39,295.59 827.55,281.91 827.68,282.09 827.80,291.93 827.94,313.29 828.06,332.68 828.19,346.38 828.29,341.84 828.39,321.36 828.50,285.32 828.58,256.38 828.68,233.25 828.76,227.47 828.83,234.17 828.90,254.95 828.96,276.56 829.01,294.31 829.07,302.68 829.10,299.69 829.14,292.35 829.17,288.29 829.19,287.46 829.21,289.35 829.22,291.24 829.22,248.23 829.22,252.16 829.23,265.81 829.25,294.98 829.27,328.49 829.30,374.46 829.34,409.52 829.37,414.53 829.43,392.17 829.48,377.90 829.55,359.69 829.62,339.29 829.68,315.10 829.78,283.68 829.86,258.03 829.96,238.70 830.05,248.30 830.15,294.93 830.28,389.92 830.38,337.69 830.52,229.11 830.64,193.14 830.76,218.84 830.92,274.09 831.05,245.86 831.21,185.54 831.35,187.26 831.50,241.10 831.68,296.73 831.83,278.27 832.02,288.54 832.18,327.06 832.35,262.54 832.55,183.24 832.72,209.22 832.92,351.63 833.10,331.21 833.28,203.23 833.49,171.22 833.67,226.54 833.89,229.85 834.08,178.64 834.26,168.45 834.49,210.36 834.68,204.39 834.90,173.51 835.09,214.11 835.28,313.58 835.51,385.11 835.70,317.19 835.93,265.91 836.12,239.88 836.31,221.42 836.53,232.68 836.72,270.22 836.94,279.57 837.12,231.11 837.31,181.71 837.52,161.18 837.70,168.37 837.91,173.15 838.08,169.72 838.25,156.04 838.45,140.80 838.62,159.58 838.81,231.83 838.97,320.59 839.12,381.71 839.30,302.03 839.45,233.25 839.62,180.15 839.76,157.25 839.89,149.66 840.05,158.03 840.17,170.81 840.31,182.28 840.43,190.72 840.54,199.87 840.66,205.93 840.76,205.89 840.85,209.39 840.96,227.45 841.04,249.96 841.13,271.76 841.21,279.10 841.27,273.12 841.34,247.08 841.39,222.82 841.45,216.13 841.49,239.14 841.53,282.17 841.56,330.70 841.58,335.22 841.60,308.01 841.61,288.10 841.61,280.15 841.61,331.80 841.62,334.99 841.64,342.46 841.66,351.50 841.68,361.39 841.72,366.97 841.76,357.77 841.81,330.63 841.86,303.28 841.92,279.15 842.00,261.50 842.06,259.55 842.15,272.83 842.23,293.46 842.32,315.84 842.43,332.64 842.52,333.33 842.65,323.57 842.75,312.50 842.87,303.81 843.01,299.12 843.13,297.43 843.28,293.36 843.42,287.99 843.55,281.49 843.72,277.81 843.86,287.76 844.04,312.99 844.20,334.39 844.35,346.92 844.54,341.73 844.71,318.62 844.91,293.63 845.08,289.35 845.25,295.87 845.46,313.54 845.63,330.67 845.85,339.47 846.03,332.52 846.21,317.87 846.43,307.23 846.62,316.19 846.84,344.87 847.03,361.36 847.22,349.41 847.45,308.27 847.64,280.48 847.87,263.33 848.06,267.00 848.25,295.08 848.47,345.94 848.66,382.96 848.89,371.60 849.07,334.33 849.26,311.49 849.48,303.49 849.66,307.43 849.88,318.26 850.06,310.57 850.23,294.04 850.44,277.60 850.61,270.39 850.81,276.88 850.98,298.29 851.14,314.93 851.33,316.74 851.49,305.06 851.67,286.05 851.81,280.05 851.96,293.38 852.12,327.95 852.26,357.02 852.39,370.97 852.54,353.12 852.66,328.26 852.80,308.19 852.91,304.05 853.01,305.24 853.13,300.50 853.23,288.71 853.34,271.54 853.42,260.59 853.50,256.36 853.58,260.96 853.65,270.11 853.72,281.13 853.78,286.09 853.83,286.77 853.88,286.15 853.91,288.46 853.95,296.91 853.97,307.63 853.99,319.11 854.00,329.98 854.01,334.22 854.01,165.63 854.01,163.03 854.03,160.72 854.05,167.47 854.07,192.35 854.11,259.16 854.15,346.14 854.19,383.97 854.25,268.85 854.30,205.88 854.38,215.54 854.44,297.21 854.52,398.33 854.61,285.94 854.69,213.44 854.80,207.08 854.90,233.69 855.00,225.87 855.13,184.44 855.24,185.17 855.38,232.71 855.50,250.68 855.62,231.84 855.78,234.18 855.92,268.59 856.08,278.87 856.23,246.70 856.38,209.02 856.56,163.96 856.71,130.77 856.90,134.06 857.07,199.36 857.23,311.62 857.43,341.25 857.61,288.72 857.81,309.72 857.99,381.18 858.17,405.37 858.39,334.36 858.57,290.64 858.79,240.15 858.98,234.95 859.16,279.94 859.39,296.09 859.58,221.29 859.80,176.25 859.99,211.41 860.18,254.35 860.41,224.11 860.60,183.65 860.83,161.40 861.02,162.72 861.21,202.51 861.43,331.78 861.62,381.54 861.84,229.82 862.02,171.10 862.20,187.86 862.42,255.99 862.59,272.06 862.80,272.32 862.97,322.31 863.14,370.41 863.34,294.16 863.50,251.47 863.66,274.25 863.85,302.33 864.00,223.03 864.18,142.76 864.32,160.78 864.46,247.99 864.63,329.54 864.76,255.54 864.91,168.37 865.03,146.84 865.15,156.02 865.28,166.46 865.39,163.16 865.51,169.20 865.60,197.50 865.70,242.58 865.80,292.94 865.88,305.33 865.96,295.56 866.03,299.99 866.09,325.82 866.16,353.48 866.21,328.17 866.26,275.85 866.30,247.22 866.33,238.75 866.36,248.87 866.38,264.86 866.39,282.44 866.40,290.50 866.40,243.81 866.41,243.96 866.42,244.70 866.44,247.58 866.46,252.77 866.49,261.12 866.53,274.66 866.57,286.48 866.63,296.05 866.68,296.72 866.74,291.45 866.82,283.72 866.89,282.23 866.99,291.75 867.07,310.25 867.16,335.86 867.27,367.90 867.37,386.42 867.50,384.54 867.61,364.62 867.72,340.76 867.87,318.21 867.99,306.33 868.15,300.59 868.28,304.44 868.42,314.78 868.59,331.98 868.74,354.21 868.92,380.76 869.08,377.15 869.23,355.04 869.43,333.96 869.59,322.13 869.79,322.22 869.96,346.98 870.14,379.24 870.35,382.81 870.53,357.42 870.74,322.85 870.93,313.05 871.11,322.55 871.33,338.77 871.52,344.82 871.74,331.55 871.93,307.43 872.12,289.78 872.35,278.05 872.54,277.63 872.77,300.93 872.96,304.89 873.15,292.84 873.37,276.51 873.56,269.41 873.79,282.60 873.97,317.63 874.16,353.76 874.38,361.28 874.56,329.00 874.74,298.70 874.95,283.73 875.13,287.20 875.33,317.30 875.50,357.25 875.67,371.05 875.86,334.29 876.02,301.23 876.21,276.68 876.36,276.66 876.51,295.24 876.69,322.92 876.83,326.93 876.99,318.24 877.12,307.55 877.25,299.22 877.40,301.52 877.52,315.75 877.65,345.85 877.76,371.26 877.86,382.43 877.98,378.41 878.07,369.26 878.17,352.41 878.25,334.59 878.33,314.63 878.41,288.99 878.47,268.14 878.54,247.15 878.59,235.36 878.64,230.05 878.69,232.41 878.72,240.41 878.75,254.09 878.77,265.77 878.78,275.21 878.79,281.68 878.79,238.08 878.80,243.68 878.80,259.28 878.81,286.14 878.83,331.93 878.85,371.92 878.88,378.36 878.91,346.86 878.95,316.21 879.00,284.98 879.04,256.06 879.10,219.18 879.15,201.48 879.21,211.19 879.28,267.60 879.34,340.50 879.43,359.23 879.50,287.91 879.58,230.92 879.67,204.86 879.76,211.58 879.87,226.53 879.96,229.07 880.05,230.19 880.17,250.93 880.27,287.78 880.40,326.11 880.51,312.50 880.62,271.06 880.76,227.29 880.87,206.38 881.02,204.13 881.14,222.71 881.26,255.90 881.42,305.77 881.54,345.54 881.70,365.42 881.83,350.90 881.97,327.60 882.13,306.44 882.26,301.19 882.43,302.93 882.57,297.56 882.71,281.16 882.88,257.00 883.02,243.07 883.18,245.72 883.33,263.75 883.47,280.81 883.64,280.64 883.78,263.84 883.92,242.20 884.09,223.32 884.23,220.85 884.39,235.66 884.53,263.80 884.67,305.50 884.83,358.27 884.96,363.93 885.12,325.66 885.25,297.39 885.38,282.01 885.53,278.04 885.65,276.61 885.80,264.28 885.92,246.39 886.04,232.39 886.17,229.07 886.28,233.14 886.41,237.31 886.52,237.71 886.62,235.94 886.74,235.73 886.84,241.18 886.95,255.50 887.03,272.20 887.12,289.86 887.22,303.00 887.29,298.60 887.38,276.16 887.45,252.27 887.51,230.43 887.59,211.12 887.64,201.81 887.71,198.33 887.75,200.79 887.80,206.90 887.84,217.38 887.88,227.43 887.91,239.69 887.94,249.23 887.96,257.63 887.98,265.74 887.99,270.61 888.00,274.02 888.00,274.79" fill="none" stroke="#000" stroke-width="1.5" opacity="0.9"/>
<text x="500.0" y="502" font-family="Times New Roman" font-size="19" text-anchor="middle">Julian Date</text>
<text transform="translate(18,247.0) rotate(-90)" font-family="Times New Roman" font-size="19" text-anchor="middle">position residual (km)</text>
</svg>
