<svg xmlns="http://www.w3.org/2000/svg" width="920" height="520" viewBox="0 0 920 520">
<rect width="100%" height="100%" fill="white"/>
<text x="460.0" y="24" font-family="Times New Roman" font-size="24" text-anchor="middle">Sun native velocity residual</text>
<line x1="112" y1="434" x2="888" y2="434" stroke="#333"/>
<line x1="112" y1="60" x2="112" y2="434" stroke="#333"/>
<line x1="112" y1="434.00" x2="888" y2="434.00" stroke="#ddd"/>
<text x="104" y="438.00" font-family="Times New Roman" font-size="17" text-anchor="end">0</text>
<line x1="112" y1="340.50" x2="888" y2="340.50" stroke="#ddd"/>
<text x="104" y="344.50" font-family="Times New Roman" font-size="17" text-anchor="end">0.6095</text>
<line x1="112" y1="247.00" x2="888" y2="247.00" stroke="#ddd"/>
<text x="104" y="251.00" font-family="Times New Roman" font-size="17" text-anchor="end">1.219</text>
<line x1="112" y1="153.50" x2="888" y2="153.50" stroke="#ddd"/>
<text x="104" y="157.50" font-family="Times New Roman" font-size="17" text-anchor="end">1.828</text>
<line x1="112" y1="60.00" x2="888" y2="60.00" stroke="#ddd"/>
<text x="104" y="64.00" font-family="Times New Roman" font-size="17" text-anchor="end">2.438</text>
<line x1="112.00" y1="434" x2="112.00" y2="439" stroke="#333"/>
<text x="112.00" y="456" font-family="Times New Roman" font-size="17" text-anchor="middle">2378495</text>
<line x1="306.00" y1="434" x2="306.00" y2="439" stroke="#333"/>
<text x="306.00" y="456" font-family="Times New Roman" font-size="17" text-anchor="middle">2433282</text>
<line x1="500.00" y1="434" x2="500.00" y2="439" stroke="#333"/>
<text x="500.00" y="456" font-family="Times New Roman" font-size="17" text-anchor="middle">2488070</text>
<line x1="694.00" y1="434" x2="694.00" y2="439" stroke="#333"/>
<text x="694.00" y="456" font-family="Times New Roman" font-size="17" text-anchor="middle">2542858</text>
<line x1="888.00" y1="434" x2="888.00" y2="439" stroke="#333"/>
<text x="888.00" y="456" font-family="Times New Roman" font-size="17" text-anchor="middle">2597645</text>
<polyline points="112.00,428.55 112.05,426.09 112.19,427.17 112.36,427.34 112.49,416.64 112.53,295.02 112.60,426.92 112.77,430.71 112.97,419.23 113.12,426.55 113.17,329.77 113.25,425.85 113.42,423.60 113.62,426.78 113.77,428.01 113.81,413.64 113.90,426.92 114.08,427.10 114.27,431.10 114.41,409.91 114.45,372.26 114.55,423.53 114.73,427.90 114.92,429.11 115.06,416.65 115.09,408.52 115.19,427.26 115.38,420.15 115.58,427.67 115.70,424.04 115.73,415.32 115.84,419.56 116.03,419.81 116.23,420.78 116.34,410.12 116.37,414.94 116.49,423.49 116.69,421.33 116.88,422.46 116.98,414.24 117.02,418.32 117.15,421.71 117.34,430.62 117.52,428.19 117.62,396.03 117.66,424.88 117.80,424.35 117.99,429.28 118.17,425.36 118.26,411.58 118.30,426.74 118.45,427.65 118.65,427.45 118.82,421.74 118.90,412.20 118.95,424.79 119.10,423.40 119.30,429.35 119.47,416.82 119.54,351.80 119.59,423.56 119.75,421.86 119.95,429.60 120.12,421.90 120.18,201.97 120.24,429.60 120.40,424.83 120.60,430.70 120.76,430.81 120.82,358.11 120.89,422.86 121.05,423.71 121.25,430.49 121.41,424.49 121.46,363.05 121.53,424.28 121.70,431.32 121.90,424.69 122.05,417.81 122.09,368.17 122.18,419.43 122.36,425.77 122.55,429.88 122.70,421.00 122.73,411.04 122.83,421.68 123.01,429.00 123.21,432.09 123.34,416.88 123.37,405.28 123.48,428.54 123.66,429.26 123.86,428.36 123.98,412.81 124.02,416.64 124.13,426.60 124.31,426.13 124.51,419.88 124.63,409.78 124.66,407.11 124.78,429.49 124.97,430.28 125.16,425.13 125.27,407.75 125.30,420.76 125.43,431.31 125.62,421.55 125.80,423.13 125.91,402.35 125.94,413.92 126.08,428.67 126.27,428.34 126.45,427.89 126.55,409.04 126.59,424.77 126.73,422.92 126.93,418.23 127.10,425.96 127.19,400.24 127.23,422.53 127.38,424.27 127.58,423.43 127.75,422.32 127.83,377.66 127.88,413.56 128.03,421.71 128.23,422.24 128.40,422.76 128.47,325.05 128.52,422.16 128.68,424.31 128.88,427.17 129.04,423.36 129.10,286.43 129.17,423.90 129.33,424.92 129.53,428.35 129.69,428.76 129.74,308.18 129.81,424.14 129.98,425.90 130.19,424.85 130.33,421.25 130.38,407.86 130.46,424.97 130.64,419.51 130.84,429.06 130.98,423.06 131.02,415.62 131.11,428.14 131.29,425.11 131.49,428.06 131.62,422.64 131.66,372.76 131.76,420.19 131.94,422.40 132.14,429.22 132.27,417.00 132.30,407.87 132.41,426.28 132.59,427.97 132.79,424.37 132.91,428.18 132.94,409.42 133.06,424.68 133.25,423.00 133.44,423.30 133.55,412.58 133.58,426.60 133.71,424.10 133.90,428.77 134.09,427.81 134.19,414.96 134.23,419.29 134.36,421.58 134.55,424.51 134.74,426.32 134.83,402.54 134.87,411.78 135.01,427.28 135.21,424.07 135.38,423.43 135.47,410.73 135.51,418.59 135.66,426.33 135.86,428.64 136.03,428.67 136.11,374.17 136.16,420.56 136.31,428.84 136.51,427.55 136.68,421.57 136.75,353.14 136.80,424.49 136.96,431.09 137.16,427.50 137.33,422.72 137.39,232.31 137.45,426.13 137.61,421.13 137.81,427.87 137.97,428.04 138.03,294.04 138.10,418.18 138.26,425.41 138.47,424.09 138.62,422.08 138.66,360.28 138.74,427.55 138.92,429.46 139.12,424.13 139.26,420.79 139.30,408.98 139.39,422.59 139.57,430.82 139.77,425.05 139.91,421.34 139.94,418.33 140.04,429.39 140.22,428.86 140.42,429.07 140.55,416.63 140.58,408.48 140.69,429.91 140.87,428.39 141.07,429.48 141.19,424.66 141.23,422.64 141.34,428.57 141.53,423.57 141.72,419.97 141.84,408.94 141.87,427.17 141.99,431.63 142.18,418.88 142.37,426.50 142.48,410.97 142.51,421.27 142.64,428.93 142.83,423.12 143.02,428.24 143.12,387.21 143.15,419.70 143.29,431.71 143.49,425.30 143.67,424.24 143.76,413.66 143.80,424.45 143.94,427.70 144.14,422.61 144.31,429.95 144.40,383.40 144.44,419.13 144.59,423.11 144.79,424.41 144.96,427.26 145.04,207.80 145.09,432.26 145.24,424.68 145.44,428.23 145.61,424.36 145.67,308.33 145.73,426.93 145.89,424.31 146.09,428.05 146.25,420.98 146.31,236.53 146.38,429.36 146.54,426.37 146.75,429.46 146.90,422.04 146.95,337.95 147.03,431.13 147.20,426.00 147.40,426.73 147.55,426.18 147.59,375.77 147.67,425.25 147.85,425.01 148.05,424.51 148.19,417.80 148.23,402.35 148.32,426.26 148.50,430.23 148.70,427.79 148.83,423.05 148.87,423.68 148.97,432.36 149.15,428.36 149.35,422.70 149.48,414.40 149.51,411.58 149.62,421.98 149.81,423.36 150.00,425.05 150.12,415.55 150.15,416.40 150.27,422.56 150.46,430.25 150.65,423.02 150.76,413.16 150.79,423.95 150.92,426.98 151.11,424.25 151.30,426.95 151.40,409.95 151.44,421.25 151.57,433.58 151.77,430.21 151.95,428.32 152.04,400.62 152.08,410.01 152.22,426.23 152.42,424.35 152.60,423.62 152.68,373.12 152.72,423.56 152.87,430.69 153.07,426.57 153.24,422.01 153.32,306.68 153.37,416.93 153.52,430.45 153.72,420.72 153.89,414.81 153.96,214.31 154.01,417.93 154.17,429.25 154.37,419.11 154.54,421.56 154.60,190.07 154.66,421.59 154.82,420.10 155.03,429.01 155.18,417.25 155.24,238.41 155.31,424.11 155.48,427.04 155.68,424.73 155.83,423.42 155.87,408.21 155.95,425.44 156.13,423.70 156.33,428.34 156.47,424.12 156.51,391.09 156.60,425.62 156.78,422.78 156.98,429.58 157.12,415.92 157.15,381.53 157.25,424.74 157.43,422.57 157.63,426.97 157.76,426.92 157.79,409.13 157.90,422.90 158.09,419.76 158.28,424.94 158.40,424.42 158.43,427.91 158.55,423.15 158.74,428.08 158.93,424.90 159.05,410.14 159.08,413.15 159.20,430.81 159.39,431.23 159.58,428.06 159.69,421.44 159.72,428.15 159.85,426.43 160.05,425.76 160.23,427.85 160.33,397.51 160.36,420.29 160.50,422.34 160.70,424.57 160.88,423.96 160.97,421.79 161.01,422.61 161.15,420.12 161.35,427.80 161.53,422.71 161.61,348.26 161.65,413.41 161.80,419.62 162.00,425.63 162.17,424.15 162.25,299.35 162.30,422.35 162.45,423.51 162.65,421.54 162.82,424.16 162.88,351.02 162.94,425.20 163.11,428.59 163.31,427.11 163.47,426.78 163.52,287.25 163.59,423.85 163.76,430.95 163.96,430.48 164.11,421.71 164.16,312.55 164.24,419.58 164.41,429.87 164.61,426.27 164.76,424.70 164.80,409.77 164.88,422.06 165.06,427.63 165.26,428.91 165.40,417.27 165.44,396.16 165.53,429.08 165.71,427.85 165.91,421.49 166.04,420.25 166.08,404.67 166.18,424.57 166.37,431.10 166.56,425.22 166.69,425.59 166.72,404.06 166.83,425.19 167.02,422.78 167.21,425.27 167.33,413.27 167.36,402.73 167.48,428.25 167.67,430.84 167.86,420.58 167.97,403.96 168.00,415.55 168.13,427.21 168.33,425.05 168.51,425.45 168.61,399.15 168.65,420.04 168.78,426.61 168.98,427.01 169.16,425.72 169.25,400.85 169.29,420.43 169.43,428.34 169.63,420.55 169.81,423.39 169.89,388.56 169.93,417.34 170.08,421.06 170.28,422.73 170.45,422.15 170.53,323.65 170.58,420.88 170.73,430.18 170.93,424.94 171.10,427.84 171.17,265.59 171.23,424.17 171.39,424.52 171.59,425.74 171.75,424.14 171.81,289.69 171.87,426.77 172.04,421.23 172.24,424.77 172.39,423.71 172.44,328.26 172.52,425.19 172.69,430.47 172.89,422.24 173.04,427.11 173.08,376.67 173.17,424.78 173.34,422.53 173.54,430.34 173.68,416.18 173.72,404.92 173.81,425.85 173.99,428.13 174.19,425.05 174.33,417.71 174.36,421.35 174.46,426.51 174.65,424.48 174.84,429.37 174.97,419.16 175.00,403.69 175.11,426.55 175.30,425.97 175.49,429.98 175.61,427.57 175.64,422.46 175.76,430.69 175.95,426.07 176.14,426.86 176.26,416.41 176.29,407.19 176.41,428.47 176.61,428.63 176.79,426.53 176.90,412.57 176.93,418.51 177.06,419.81 177.26,424.42 177.44,421.58 177.54,407.96 177.57,422.04 177.71,430.87 177.91,431.47 178.09,422.59 178.18,405.02 178.22,426.52 178.36,425.97 178.56,427.97 178.74,424.58 178.82,379.84 178.86,431.03 179.01,426.35 179.21,427.46 179.38,417.85 179.45,330.94 179.51,425.52 179.67,427.53 179.87,428.41 180.03,430.25 180.09,206.08 180.15,425.95 180.32,428.24 180.52,424.80 180.68,418.44 180.73,309.42 180.80,427.53 180.97,427.82 181.17,426.38 181.32,426.95 181.37,367.96 181.45,425.05 181.62,426.86 181.82,425.33 181.97,421.78 182.01,407.99 182.10,428.79 182.27,423.45 182.47,424.53 182.61,430.11 182.65,420.62 182.74,432.10 182.93,424.04 183.12,425.01 183.25,416.77 183.29,416.60 183.39,425.52 183.58,420.72 183.77,423.67 183.90,421.94 183.93,419.39 184.04,426.28 184.23,425.33 184.42,418.30 184.54,411.06 184.57,426.38 184.69,426.91 184.89,425.29 185.07,430.33 185.18,421.74 185.21,410.51 185.34,425.68 185.54,421.80 185.72,431.60 185.82,401.70 185.86,414.26 185.99,431.90 186.19,429.46 186.37,427.87 186.46,406.23 186.50,414.21 186.64,424.66 186.84,422.46 187.02,426.75 187.10,417.82 187.15,423.05 187.29,423.30 187.49,427.73 187.67,425.78 187.74,333.91 187.79,420.70 187.95,425.00 188.15,431.65 188.31,425.13 188.38,311.21 188.44,427.67 188.60,424.25 188.80,430.71 188.96,423.85 189.02,318.95 189.08,431.92 189.25,420.84 189.45,430.93 189.61,420.40 189.65,294.02 189.73,428.77 189.90,427.33 190.10,431.23 190.25,421.51 190.29,379.99 190.38,426.82 190.55,429.82 190.75,429.61 190.89,421.63 190.93,399.74 191.03,415.59 191.21,429.32 191.40,431.36 191.54,426.83 191.57,400.08 191.68,423.74 191.86,427.25 192.05,421.97 192.18,413.91 192.21,411.29 192.32,425.09 192.51,427.69 192.70,423.41 192.82,411.06 192.86,410.73 192.97,429.12 193.17,427.27 193.35,421.80 193.47,422.66 193.50,411.54 193.62,422.41 193.82,428.72 194.00,423.60 194.11,422.83 194.14,421.42 194.27,426.30 194.47,422.76 194.65,424.55 194.75,378.43 194.78,421.02 194.92,424.18 195.12,422.80 195.30,430.73 195.39,370.06 195.43,421.23 195.57,430.43 195.78,420.94 195.95,430.14 196.03,342.12 196.07,414.14 196.23,425.41 196.43,426.68 196.59,416.99 196.66,350.30 196.72,422.55 196.88,425.71 197.08,421.97 197.24,425.61 197.30,191.17 197.36,426.67 197.53,427.45 197.73,426.23 197.89,430.81 197.94,318.83 198.01,425.25 198.18,424.25 198.38,428.54 198.53,426.96 198.58,364.74 198.66,424.99 198.83,422.34 199.03,422.71 199.18,419.24 199.22,410.69 199.31,425.97 199.49,423.73 199.69,428.36 199.82,420.27 199.86,415.70 199.96,425.78 200.14,424.66 200.33,427.69 200.47,418.83 200.50,422.32 200.60,427.16 200.79,422.59 200.98,427.73 201.11,404.22 201.14,420.03 201.25,424.51 201.45,423.03 201.64,423.66 201.75,415.28 201.78,413.85 201.90,427.37 202.10,426.09 202.28,426.69 202.39,412.38 202.42,420.79 202.55,421.58 202.75,428.71 202.93,421.86 203.03,417.43 203.07,419.81 203.21,422.98 203.40,424.39 203.58,421.68 203.67,409.35 203.71,414.42 203.86,426.03 204.06,425.11 204.23,424.40 204.31,354.36 204.36,430.69 204.51,423.72 204.71,431.18 204.88,423.01 204.95,219.18 205.00,423.30 205.16,427.44 205.36,428.57 205.52,421.64 205.59,319.46 205.65,419.80 205.81,428.36 206.01,429.25 206.17,426.34 206.22,419.02 206.29,423.09 206.46,427.34 206.66,428.10 206.82,421.55 206.86,371.39 206.94,427.75 207.11,427.01 207.31,426.56 207.46,425.37 207.50,394.30 207.59,426.63 207.77,426.40 207.97,425.37 208.11,415.62 208.14,386.43 208.24,423.11 208.42,425.71 208.62,426.91 208.75,418.79 208.78,410.27 208.89,418.96 209.07,430.33 209.27,424.05 209.39,427.14 209.42,431.07 209.54,422.51 209.73,429.42 209.92,423.34 210.03,407.39 210.07,415.15 210.18,427.80 210.38,421.37 210.57,421.89 210.68,412.26 210.71,408.20 210.84,423.52 211.03,431.08 211.22,420.97 211.32,404.37 211.35,423.00 211.49,422.88 211.68,424.85 211.86,430.16 211.96,379.87 211.99,423.34 212.14,426.09 212.34,422.34 212.51,431.92 212.60,410.91 212.64,418.88 212.79,422.12 212.99,430.80 213.16,426.86 213.24,355.49 213.28,423.07 213.44,426.15 213.64,426.40 213.81,424.23 213.87,266.32 213.93,424.67 214.09,425.43 214.29,429.24 214.45,421.31 214.51,271.53 214.58,423.91 214.74,422.81 214.94,424.55 215.10,424.36 215.15,325.33 215.22,428.31 215.39,429.12 215.59,423.98 215.74,420.02 215.79,376.25 215.87,424.41 216.05,424.91 216.25,428.92 216.39,419.76 216.43,390.16 216.52,423.59 216.70,428.75 216.90,428.98 217.03,413.20 217.07,405.95 217.17,421.32 217.35,430.32 217.55,427.20 217.68,424.83 217.71,420.13 217.82,429.79 218.01,429.13 218.20,427.78 218.32,427.69 218.35,407.16 218.47,425.53 218.66,430.34 218.85,423.88 218.96,410.11 218.99,410.06 219.12,425.05 219.31,429.18 219.50,424.99 219.60,410.95 219.63,426.61 219.77,421.21 219.96,430.47 220.14,431.57 220.24,416.90 220.28,416.59 220.42,425.95 220.62,429.23 220.79,429.76 220.88,414.28 220.92,424.40 221.07,427.01 221.27,431.59 221.44,430.44 221.52,322.35 221.57,421.54 221.72,427.40 221.92,421.09 222.09,418.10 222.16,326.98 222.21,426.61 222.37,430.36 222.57,429.36 222.73,424.23 222.80,228.24 222.86,424.10 223.02,427.48 223.22,423.02 223.38,424.02 223.43,198.68 223.51,421.72 223.67,429.11 223.88,423.77 224.03,428.80 224.07,348.89 224.15,424.95 224.33,428.77 224.53,424.43 224.67,421.41 224.71,412.90 224.80,425.54 224.98,423.35 225.18,432.71 225.32,416.89 225.35,373.40 225.45,421.72 225.63,421.48 225.83,427.81 225.96,414.02 225.99,401.19 226.10,419.59 226.29,424.93 226.48,426.99 226.60,415.38 226.63,423.23 226.75,426.17 226.94,421.24 227.13,426.77 227.24,429.57 227.28,402.71 227.40,419.39 227.59,424.23 227.78,426.23 227.89,413.62 227.92,425.88 228.05,422.19 228.24,425.49 228.43,426.64 228.53,381.19 228.56,418.59 228.70,424.53 228.90,424.61 229.07,425.67 229.17,416.55 229.21,420.34 229.35,430.36 229.55,426.09 229.72,422.77 229.81,368.20 229.85,429.64 230.00,431.86 230.20,428.20 230.37,426.22 230.44,292.52 230.49,429.65 230.65,428.91 230.85,428.54 231.02,419.58 231.08,276.02 231.14,426.72 231.30,428.39 231.50,428.57 231.66,429.04 231.72,391.74 231.79,417.99 231.95,429.60 232.16,430.59 232.31,420.72 232.36,380.26 232.44,429.61 232.61,424.32 232.81,424.52 232.95,424.30 233.00,387.59 233.08,422.36 233.26,431.68 233.46,427.84 233.60,420.80 233.64,420.91 233.73,430.77 233.91,428.29 234.11,423.21 234.24,409.72 234.28,390.36 234.38,427.62 234.57,429.66 234.76,421.71 234.89,424.58 234.92,410.96 235.03,431.47 235.22,423.82 235.41,425.22 235.53,408.64 235.56,401.96 235.68,430.69 235.87,424.84 236.06,429.97 236.17,420.69 236.20,418.78 236.33,430.81 236.52,423.14 236.71,426.76 236.81,385.93 236.84,423.30 236.98,428.06 237.18,427.31 237.36,423.46 237.45,399.32 237.49,412.81 237.63,428.75 237.83,426.60 238.00,427.52 238.09,372.52 238.13,419.14 238.28,428.21 238.48,425.01 238.65,420.29 238.73,291.86 238.78,414.05 238.93,425.74 239.13,427.36 239.30,423.10 239.37,201.40 239.42,426.68 239.58,422.60 239.78,426.12 239.95,429.88 240.01,238.89 240.07,425.19 240.23,422.88 240.44,427.55 240.59,413.87 240.64,378.18 240.72,422.94 240.89,427.10 241.09,428.57 241.24,430.86 241.28,374.48 241.36,423.81 241.54,424.93 241.74,427.30 241.88,422.49 241.92,414.88 242.01,427.84 242.19,421.97 242.39,425.99 242.53,408.00 242.56,409.90 242.66,427.42 242.85,424.80 243.04,427.13 243.17,429.11 243.20,418.95 243.31,425.77 243.50,425.78 243.69,431.27 243.81,403.40 243.84,407.71 243.96,431.68 244.15,430.25 244.34,421.94 244.45,416.43 244.49,428.20 244.61,425.69 244.80,430.45 244.99,428.27 245.10,411.20 245.13,429.94 245.26,426.69 245.46,428.79 245.64,430.35 245.74,391.29 245.77,420.89 245.91,425.34 246.11,428.41 246.29,423.40 246.38,390.92 246.42,419.32 246.56,426.44 246.76,430.36 246.93,425.10 247.02,376.02 247.06,415.15 247.21,428.38 247.41,429.69 247.58,423.71 247.65,316.13 247.71,421.04 247.86,429.24 248.06,427.28 248.23,430.26 248.29,230.27 248.35,419.74 248.51,421.82 248.72,426.77 248.87,422.89 248.93,266.39 249.00,429.93 249.17,424.66 249.37,424.62 249.52,422.83 249.57,279.63 249.65,429.75 249.82,428.72 250.02,424.83 250.17,429.07 250.21,401.58 250.29,427.73 250.47,429.98 250.67,427.94 250.81,424.77 250.85,408.22 250.94,427.90 251.13,427.40 251.32,425.57 251.45,422.66 251.49,404.71 251.59,423.82 251.78,429.44 251.97,429.97 252.10,422.10 252.13,407.81 252.24,415.44 252.43,422.48 252.62,428.71 252.74,421.36 252.77,412.54 252.89,428.33 253.08,427.36 253.27,424.54 253.38,418.32 253.41,407.19 253.54,425.72 253.74,418.24 253.92,423.57 254.02,370.38 254.06,429.09 254.19,425.58 254.39,422.54 254.57,427.86 254.66,395.33 254.70,426.58 254.84,430.87 255.04,432.25 255.22,428.42 255.30,374.16 255.34,424.03 255.49,427.92 255.69,425.89 255.86,426.42 255.94,388.94 255.99,421.44 256.14,428.53 256.34,428.76 256.51,424.77 256.58,273.93 256.63,429.68 256.79,425.44 257.00,424.32 257.16,422.34 257.21,350.41 257.28,423.11 257.45,424.76 257.65,427.78 257.80,414.26 257.85,392.45 257.93,431.13 258.10,420.72 258.30,429.74 258.45,421.35 258.49,396.08 258.58,422.76 258.75,425.50 258.95,428.45 259.09,417.89 259.13,382.98 259.22,424.72 259.41,424.52 259.60,428.44 259.74,418.94 259.77,397.07 259.87,424.43 260.06,428.61 260.25,430.19 260.38,418.29 260.41,409.76 260.52,425.57 260.71,430.16 260.90,426.35 261.02,422.88 261.05,414.61 261.17,428.11 261.36,427.04 261.55,428.02 261.66,407.92 261.70,417.33 261.82,422.18 262.02,423.17 262.20,427.02 262.31,408.55 262.34,416.74 262.47,429.82 262.67,424.41 262.85,419.99 262.95,373.35 262.98,417.16 263.12,429.34 263.32,429.95 263.50,423.58 263.59,385.35 263.63,426.41 263.77,430.73 263.97,425.89 264.15,430.51 264.22,336.85 264.27,426.52 264.43,425.20 264.62,420.00 264.79,424.95 264.86,238.91 264.92,429.26 265.08,432.91 265.28,426.37 265.44,416.91 265.50,196.88 265.56,426.43 265.73,427.86 265.93,425.88 266.09,419.75 266.14,315.64 266.21,431.07 266.38,426.79 266.58,423.34 266.73,429.82 266.78,349.94 266.86,430.60 267.03,424.74 267.23,429.25 267.38,420.51 267.42,407.48 267.51,422.49 267.69,424.39 267.88,425.78 268.02,414.04 268.06,408.33 268.15,421.25 268.34,422.16 268.53,424.81 268.66,429.37 268.70,390.79 268.80,430.96 268.99,425.06 269.18,425.69 269.31,427.50 269.34,398.13 269.45,417.86 269.64,425.13 269.83,425.15 269.95,412.14 269.98,421.04 270.10,426.50 270.30,424.35 270.48,427.32 270.59,398.44 270.62,420.35 270.75,425.96 270.95,429.67 271.13,421.40 271.23,384.87 271.27,413.58 271.40,426.37 271.60,427.14 271.78,423.26 271.87,420.74 271.91,426.50 272.05,426.68 272.25,426.95 272.43,425.61 272.51,389.11 272.55,427.75 272.71,425.48 272.90,428.16 273.07,427.86 273.15,226.32 273.20,424.22 273.36,427.27 273.56,428.03 273.72,418.54 273.79,306.25 273.85,416.20 274.01,424.51 274.21,423.51 274.37,429.20 274.42,356.80 274.49,422.33 274.66,428.16 274.86,431.05 275.01,414.40 275.06,380.60 275.14,425.54 275.31,430.99 275.51,427.84 275.66,427.40 275.70,404.95 275.79,425.78 275.96,429.86 276.16,423.56 276.30,428.95 276.34,402.04 276.44,432.05 276.62,424.94 276.81,423.03 276.95,420.85 276.98,395.90 277.08,424.36 277.27,429.47 277.46,423.39 277.59,417.00 277.62,422.01 277.73,425.75 277.92,426.58 278.11,424.69 278.23,408.61 278.26,408.67 278.38,425.07 278.58,426.00 278.76,426.71 278.87,408.16 278.91,422.38 279.03,427.85 279.23,424.86 279.41,427.07 279.51,396.43 279.55,416.23 279.68,423.90 279.88,423.95 280.06,419.16 280.16,400.40 280.19,416.68 280.33,426.12 280.53,420.43 280.71,426.40 280.79,405.17 280.84,427.01 280.99,422.35 281.18,422.21 281.36,431.04 281.43,242.64 281.48,419.46 281.64,433.12 281.84,425.78 282.00,419.91 282.07,256.04 282.13,419.66 282.29,422.67 282.49,428.29 282.65,426.69 282.71,362.75 282.78,423.68 282.94,422.36 283.14,430.71 283.30,418.31 283.35,380.02 283.42,423.98 283.59,422.51 283.79,427.59 283.94,422.36 283.99,388.07 284.07,429.60 284.24,423.62 284.44,429.19 284.59,421.75 284.63,404.60 284.72,428.94 284.90,428.28 285.09,427.42 285.23,423.14 285.27,403.33 285.37,426.78 285.55,421.91 285.74,427.66 285.87,424.33 285.91,405.17 286.02,428.83 286.20,428.57 286.39,425.37 286.52,413.59 286.55,395.92 286.66,421.60 286.86,426.93 287.04,425.34 287.16,406.58 287.19,419.64 287.31,428.92 287.51,429.04 287.69,425.95 287.80,417.07 287.83,421.29 287.96,425.88 288.16,429.82 288.34,427.26 288.44,399.24 288.48,412.49 288.62,421.90 288.81,431.89 288.99,423.18 289.08,405.78 289.12,430.56 289.26,426.82 289.46,426.58 289.64,427.21 289.72,385.02 289.77,428.62 289.92,430.54 290.12,429.91 290.29,426.45 290.36,315.71 290.41,423.59 290.57,429.01 290.77,422.90 290.93,424.76 291.00,266.84 291.06,427.57 291.22,423.43 291.42,427.60 291.58,424.59 291.63,256.28 291.70,418.58 291.87,428.00 292.07,426.06 292.22,413.32 292.27,382.50 292.35,428.27 292.52,426.11 292.72,426.95 292.87,420.66 292.91,392.70 293.00,425.30 293.18,429.86 293.38,428.35 293.51,428.50 293.55,424.96 293.65,427.62 293.83,425.70 294.02,419.45 294.16,422.81 294.19,416.76 294.30,428.75 294.48,420.47 294.68,427.13 294.80,399.88 294.83,427.55 294.94,426.98 295.14,422.26 295.33,427.01 295.44,424.03 295.47,415.62 295.59,426.23 295.79,422.99 295.98,422.11 296.08,423.38 296.12,422.32 296.24,423.17 296.44,426.12 296.62,427.61 296.72,417.80 296.76,418.36 296.90,420.22 297.09,427.27 297.27,424.42 297.37,397.60 297.40,415.67 297.55,426.91 297.74,426.68 297.92,424.24 298.00,342.44 298.05,419.72 298.20,423.70 298.40,429.14 298.57,425.03 298.64,275.77 298.69,426.37 298.85,422.03 299.05,430.55 299.22,420.67 299.28,254.79 299.34,418.31 299.50,423.02 299.70,426.90 299.86,425.75 299.92,289.04 299.99,421.11 300.15,428.01 300.35,427.53 300.51,417.26 300.56,328.17 300.63,427.96 300.80,426.05 301.00,426.61 301.15,420.50 301.20,371.34 301.28,424.69 301.46,430.56 301.66,429.33 301.80,409.51 301.83,402.73 301.93,429.98 302.11,426.61 302.31,421.74 302.44,419.68 302.48,411.06 302.58,422.20 302.76,428.91 302.96,423.64 303.08,423.64 303.12,418.93 303.23,426.50 303.42,427.84 303.61,430.67 303.73,423.58 303.76,418.36 303.88,425.54 304.07,427.99 304.26,421.24 304.37,417.17 304.40,422.62 304.53,424.77 304.72,425.77 304.91,425.38 305.01,410.41 305.04,413.15 305.18,427.51 305.37,424.97 305.55,418.76 305.65,387.97 305.69,422.67 305.83,431.19 306.03,425.16 306.20,430.02 306.29,386.06 306.33,429.80 306.48,430.88 306.68,422.79 306.85,422.68 306.93,308.11 306.98,419.32 307.13,420.98 307.33,421.62 307.50,425.87 307.57,296.43 307.62,424.70 307.78,428.01 307.98,420.92 308.14,431.31 308.20,133.98 308.27,427.64 308.43,426.26 308.63,426.12 308.79,431.20 308.84,288.26 308.91,421.53 309.08,428.52 309.28,426.95 309.44,423.18 309.48,385.47 309.56,425.39 309.74,421.80 309.94,427.13 310.08,411.88 310.12,396.22 310.21,424.86 310.39,424.70 310.59,426.95 310.72,423.12 310.76,416.61 310.86,422.23 311.04,427.70 311.24,425.79 311.37,418.45 311.40,408.31 311.51,422.55 311.70,432.11 311.89,430.30 312.01,409.00 312.04,416.77 312.16,421.82 312.35,424.71 312.54,427.91 312.65,406.85 312.68,418.06 312.81,426.30 313.00,424.34 313.19,419.30 313.29,412.35 313.33,419.10 313.46,422.60 313.65,428.62 313.84,418.66 313.93,409.36 313.97,431.79 314.11,421.86 314.31,428.88 314.48,422.76 314.57,414.19 314.61,423.90 314.76,428.69 314.96,429.08 315.13,419.23 315.21,344.93 315.26,418.14 315.41,424.46 315.61,426.08 315.78,426.64 315.85,348.74 315.90,422.91 316.06,429.27 316.26,427.89 316.43,418.88 316.49,175.61 316.55,413.74 316.71,424.54 316.91,424.76 317.07,422.18 317.13,231.25 317.20,425.82 317.36,432.96 317.57,422.58 317.72,424.49 317.77,341.04 317.84,429.13 318.02,428.65 318.22,424.98 318.36,431.51 318.40,389.13 318.49,424.73 318.67,427.62 318.87,423.90 319.01,415.46 319.04,397.94 319.14,425.86 319.32,428.02 319.52,424.62 319.65,414.98 319.68,416.07 319.79,424.48 319.98,426.41 320.17,423.05 320.29,417.84 320.33,412.48 320.44,423.08 320.63,425.42 320.82,427.44 320.94,414.04 320.97,400.48 321.09,426.33 321.28,422.35 321.47,426.09 321.58,412.21 321.61,412.47 321.74,426.84 321.93,421.89 322.12,423.18 322.22,416.81 322.25,425.11 322.39,422.41 322.59,427.92 322.77,426.82 322.86,392.20 322.90,421.57 323.04,428.76 323.24,425.50 323.41,427.61 323.50,387.99 323.54,423.56 323.69,425.41 323.89,429.93 324.06,419.74 324.14,282.63 324.19,420.92 324.34,425.64 324.54,432.54 324.71,423.46 324.78,287.87 324.83,422.65 324.99,423.84 325.19,427.04 325.35,421.72 325.41,233.62 325.48,426.14 325.64,420.96 325.85,428.45 326.00,420.28 326.05,326.68 326.13,424.66 326.30,425.48 326.50,430.39 326.65,420.99 326.69,380.38 326.77,423.02 326.95,427.57 327.15,422.15 327.29,423.88 327.33,388.73 327.42,423.96 327.60,427.42 327.80,427.12 327.94,427.53 327.97,383.11 328.07,428.17 328.26,426.93 328.45,424.50 328.58,418.45 328.61,416.78 328.72,425.58 328.91,430.40 329.10,426.76 329.22,416.75 329.25,426.33 329.37,426.24 329.56,430.65 329.75,423.90 329.86,417.55 329.89,417.68 330.02,426.20 330.21,430.41 330.40,429.34 330.50,417.40 330.54,426.91 330.67,430.51 330.87,424.20 331.05,428.85 331.14,403.50 331.18,418.33 331.32,428.80 331.52,426.82 331.70,422.79 331.78,391.83 331.83,417.90 331.97,430.19 332.17,427.33 332.34,423.60 332.42,402.70 332.47,423.93 332.62,427.67 332.82,422.17 332.99,423.74 333.06,351.41 333.11,426.46 333.27,427.77 333.47,419.60 333.64,420.30 333.70,321.46 333.76,421.25 333.92,428.25 334.13,425.55 334.28,418.27 334.34,286.47 334.41,423.41 334.58,429.42 334.78,418.95 334.93,426.29 334.98,298.85 335.06,427.57 335.23,422.43 335.43,424.06 335.57,414.41 335.61,411.84 335.70,422.44 335.88,419.12 336.08,431.40 336.22,408.61 336.25,397.79 336.35,425.31 336.54,425.23 336.73,425.27 336.86,426.89 336.89,399.66 337.00,428.49 337.19,420.11 337.38,429.37 337.50,423.58 337.54,401.55 337.65,422.98 337.84,427.95 338.03,430.05 338.15,412.62 338.18,414.38 338.30,424.50 338.49,421.13 338.68,424.41 338.79,420.70 338.82,418.43 338.95,424.19 339.15,429.22 339.33,423.85 339.43,414.77 339.46,417.83 339.60,422.20 339.80,431.00 339.98,427.08 340.07,404.56 340.11,424.28 340.25,424.61 340.45,428.29 340.63,429.25 340.71,384.50 340.75,415.64 340.90,423.07 341.10,427.56 341.27,426.51 341.35,358.30 341.40,417.23 341.55,428.95 341.75,427.95 341.92,423.85 341.98,240.55 342.04,425.67 342.20,428.51 342.41,426.00 342.57,422.18 342.62,175.62 342.69,428.02 342.86,423.96 343.06,424.11 343.21,414.53 343.26,339.73 343.34,427.51 343.51,428.13 343.71,422.44 343.86,416.89 343.90,387.22 343.98,421.68 344.16,425.17 344.36,427.33 344.50,418.63 344.54,396.78 344.63,422.39 344.82,427.26 345.01,431.43 345.14,417.87 345.18,415.55 345.28,426.02 345.47,426.48 345.66,422.06 345.79,423.02 345.82,412.68 345.93,426.01 346.12,425.91 346.31,428.58 346.43,405.15 346.46,426.71 346.58,425.50 346.77,427.81 346.96,428.27 347.07,424.07 347.10,421.51 347.23,430.57 347.43,423.44 347.61,431.15 347.71,420.18 347.75,424.06 347.88,424.25 348.08,423.80 348.26,423.55 348.35,382.30 348.39,418.82 348.53,429.59 348.73,428.85 348.91,426.60 348.99,392.92 349.04,423.47 349.18,419.40 349.38,426.04 349.56,419.53 349.63,372.67 349.68,424.07 349.83,426.35 350.03,426.09 350.20,426.59 350.27,314.95 350.33,419.03 350.48,421.69 350.69,424.61 350.85,429.51 350.91,338.77 350.97,422.93 351.14,423.54 351.34,428.29 351.49,432.33 351.55,297.85 351.62,425.06 351.79,425.79 351.99,424.23 352.14,420.35 352.18,419.56 352.27,426.68 352.44,423.78 352.64,428.38 352.78,427.39 352.82,406.91 352.91,421.90 353.10,428.12 353.29,425.21 353.43,425.83 353.46,403.42 353.56,429.06 353.75,427.01 353.94,430.63 354.07,415.50 354.10,407.73 354.21,422.16 354.40,426.53 354.59,428.53 354.71,395.70 354.75,399.20 354.86,423.15 355.05,426.48 355.24,425.72 355.36,416.04 355.39,409.02 355.51,431.11 355.71,425.39 355.89,428.03 356.00,396.26 356.03,423.39 356.16,419.94 356.36,433.06 356.54,425.86 356.64,401.54 356.67,426.03 356.81,424.96 357.01,429.40 357.19,427.20 357.28,395.54 357.32,428.84 357.46,425.90 357.66,431.14 357.84,420.93 357.92,357.07 357.96,421.23 358.12,426.19 358.31,428.21 358.48,411.84 358.56,335.97 358.61,423.33 358.77,428.31 358.97,427.38 359.13,427.75 359.19,220.50 359.25,421.19 359.42,431.28 359.62,424.43 359.78,428.20 359.83,233.94 359.90,420.55 360.07,424.14 360.27,419.76 360.42,426.73 360.47,332.82 360.55,422.46 360.72,427.13 360.92,430.34 361.07,423.08 361.11,402.63 361.20,422.77 361.38,422.70 361.57,425.49 361.71,416.52 361.75,412.93 361.84,424.12 362.03,428.16 362.22,428.64 362.36,416.03 362.39,402.62 362.49,427.49 362.68,428.28 362.87,426.48 363.00,423.94 363.03,404.37 363.14,429.44 363.33,419.14 363.52,425.76 363.64,416.35 363.67,408.00 363.79,425.35 363.99,421.73 364.17,421.79 364.28,403.77 364.31,419.81 364.44,430.21 364.64,427.83 364.82,423.58 364.92,414.46 364.96,418.22 365.09,429.32 365.29,418.69 365.47,425.44 365.56,397.39 365.60,414.31 365.74,422.38 365.94,428.35 366.12,425.86 366.20,391.12 366.25,426.32 366.40,426.22 366.59,429.14 366.77,422.07 366.84,366.63 366.89,429.17 367.05,427.39 367.25,427.24 367.41,425.01 367.48,284.30 367.54,426.84 367.70,427.34 367.90,430.09 368.06,427.14 368.12,220.46 368.18,425.16 368.35,428.47 368.55,428.55 368.71,425.00 368.76,250.62 368.83,423.05 369.00,429.25 369.20,428.95 369.35,419.89 369.39,364.88 369.48,427.32 369.66,429.58 369.85,424.43 369.99,419.64 370.03,393.51 370.13,427.81 370.31,426.68 370.50,424.74 370.64,426.22 370.67,398.93 370.77,421.85 370.96,428.96 371.16,424.84 371.28,417.94 371.31,415.63 371.42,419.34 371.61,426.07 371.80,425.54 371.93,423.18 371.96,401.68 372.07,425.87 372.26,426.82 372.45,428.69 372.57,420.19 372.60,420.93 372.72,424.75 372.92,428.22 373.10,426.70 373.21,396.61 373.24,419.60 373.37,430.98 373.57,423.49 373.75,419.98 373.85,416.78 373.88,411.61 374.02,426.59 374.22,422.69 374.40,420.04 374.49,425.34 374.53,430.86 374.68,426.22 374.87,425.53 375.05,420.55 375.13,275.60 375.17,417.23 375.33,430.21 375.53,420.78 375.70,425.87 375.77,177.79 375.82,427.78 375.98,425.63 376.18,422.23 376.34,423.20 376.40,261.06 376.47,417.70 376.63,424.66 376.83,423.46 376.99,422.21 377.04,259.67 377.11,419.97 377.28,427.96 377.48,424.74 377.63,427.29 377.68,369.04 377.76,427.39 377.94,428.51 378.13,426.32 378.28,417.23 378.32,397.07 378.41,429.76 378.59,418.46 378.78,427.53 378.92,412.93 378.96,400.15 379.06,430.42 379.24,426.43 379.44,425.56 379.57,420.05 379.60,421.67 379.71,429.25 379.89,423.03 380.08,432.17 380.21,407.11 380.24,408.44 380.35,425.49 380.54,425.72 380.73,426.36 380.85,417.06 380.88,413.30 381.00,430.94 381.20,427.71 381.38,421.17 381.49,422.12 381.53,414.42 381.65,429.62 381.85,427.56 382.03,420.42 382.13,399.78 382.17,414.97 382.31,424.44 382.50,428.88 382.68,429.31 382.77,400.48 382.81,421.41 382.96,426.66 383.15,430.43 383.33,430.83 383.41,420.07 383.46,424.72 383.61,427.40 383.81,432.40 383.98,424.63 384.05,352.49 384.10,416.51 384.26,428.04 384.46,427.41 384.62,422.95 384.69,362.98 384.75,428.13 384.91,428.25 385.11,429.25 385.27,426.96 385.33,373.99 385.39,424.39 385.56,426.01 385.76,426.75 385.92,420.47 385.96,333.31 386.04,426.51 386.22,428.20 386.41,425.85 386.56,423.31 386.60,376.39 386.69,420.45 386.87,424.99 387.07,424.52 387.21,421.37 387.24,400.95 387.34,427.47 387.52,422.66 387.72,421.74 387.85,417.28 387.88,401.83 387.99,426.24 388.17,431.22 388.37,421.89 388.49,410.11 388.52,418.20 388.63,426.08 388.82,421.90 389.02,425.51 389.13,413.21 389.17,406.81 389.28,426.38 389.48,424.32 389.67,422.38 389.78,412.10 389.81,425.70 389.94,428.19 390.13,428.44 390.32,423.15 390.42,377.63 390.45,422.64 390.59,423.50 390.78,424.08 390.96,428.57 391.06,422.28 391.10,422.07 391.24,429.71 391.43,424.03 391.61,421.61 391.70,406.81 391.74,421.01 391.89,426.03 392.09,429.31 392.26,425.48 392.34,366.80 392.39,427.04 392.54,426.99 392.74,421.13 392.91,427.47 392.97,291.97 393.03,422.15 393.19,426.15 393.39,426.80 393.55,421.08 393.61,244.63 393.68,422.13 393.84,425.29 394.04,427.77 394.20,416.82 394.25,308.16 394.32,427.54 394.50,421.51 394.69,429.92 394.84,419.86 394.89,400.90 394.97,430.66 395.15,425.41 395.35,425.71 395.49,423.89 395.53,386.87 395.62,427.42 395.80,425.37 396.00,426.34 396.13,422.70 396.17,407.65 396.27,422.80 396.45,429.60 396.65,429.63 396.78,409.80 396.81,414.82 396.92,429.18 397.10,426.32 397.30,425.05 397.42,412.79 397.45,425.90 397.57,425.62 397.76,426.02 397.95,429.28 398.06,417.80 398.09,421.17 398.22,427.20 398.41,426.94 398.60,430.06 398.70,414.92 398.73,415.73 398.87,425.35 399.06,430.08 399.24,423.97 399.34,405.87 399.38,422.96 399.52,426.20 399.71,431.01 399.89,429.74 399.98,414.04 400.02,430.96 400.17,426.31 400.37,424.38 400.54,424.45 400.62,395.61 400.67,428.29 400.82,427.14 401.02,421.53 401.19,423.05 401.26,219.79 401.31,421.36 401.47,424.33 401.67,424.97 401.84,425.55 401.90,213.53 401.96,420.60 402.12,425.80 402.32,423.78 402.48,421.12 402.54,313.09 402.61,426.57 402.78,427.17 402.97,421.42 403.13,426.69 403.17,383.42 403.25,427.49 403.43,423.71 403.63,429.52 403.77,410.61 403.81,393.85 403.90,423.79 404.08,425.56 404.28,426.90 404.42,411.93 404.45,402.27 404.55,424.68 404.73,425.84 404.93,424.60 405.06,413.45 405.09,409.30 405.20,420.93 405.38,421.84 405.58,428.83 405.70,406.58 405.73,415.94 405.85,427.96 406.04,424.49 406.23,423.31 406.34,418.95 406.38,413.74 406.50,424.30 406.69,423.94 406.88,422.18 406.99,412.53 407.02,418.48 407.15,426.18 407.34,422.74 407.53,426.54 407.63,413.40 407.66,414.63 407.80,425.36 407.99,430.59 408.17,424.27 408.27,415.09 408.31,421.91 408.45,428.31 408.65,424.63 408.82,428.34 408.91,383.84 408.95,424.83 409.10,421.26 409.30,427.77 409.47,422.62 409.55,381.44 409.60,429.99 409.75,421.90 409.95,425.32 410.12,419.27 410.18,371.32 410.24,423.04 410.40,427.11 410.60,429.68 410.76,425.26 410.82,187.51 410.89,424.52 411.06,429.76 411.26,427.26 411.41,421.56 411.46,354.97 411.54,429.68 411.71,430.28 411.91,427.20 412.05,427.19 412.10,360.92 412.18,421.32 412.36,427.70 412.56,427.90 412.70,423.55 412.74,388.74 412.83,423.98 413.01,423.15 413.21,424.14 413.34,423.44 413.38,394.70 413.48,423.10 413.66,427.19 413.86,427.62 413.99,427.43 414.02,406.97 414.13,424.38 414.32,425.01 414.51,430.56 414.63,403.76 414.66,429.27 414.78,426.04 414.97,428.55 415.16,419.40 415.27,409.36 415.30,419.14 415.43,431.23 415.62,424.41 415.81,428.17 415.91,411.79 415.95,416.36 416.08,430.61 416.27,426.62 416.46,421.50 416.55,390.00 416.59,418.58 416.73,423.40 416.93,424.82 417.10,427.32 417.19,395.27 417.23,425.12 417.38,428.15 417.58,426.97 417.75,430.29 417.83,329.81 417.88,415.69 418.03,430.00 418.23,424.38 418.40,422.25 418.47,239.01 418.52,425.68 418.68,429.09 418.88,422.30 419.05,420.47 419.11,259.09 419.17,422.90 419.34,428.41 419.54,424.70 419.69,428.27 419.74,222.36 419.82,428.85 419.99,424.72 420.19,426.67 420.34,422.08 420.38,377.90 420.46,430.05 420.64,422.26 420.84,428.35 420.98,417.62 421.02,400.19 421.11,423.74 421.29,424.28 421.49,421.18 421.63,417.74 421.66,413.02 421.76,425.10 421.94,424.69 422.14,432.03 422.27,424.30 422.30,422.14 422.41,430.26 422.60,426.71 422.79,427.97 422.91,416.20 422.94,422.76 423.06,419.19 423.25,425.41 423.44,430.12 423.56,419.90 423.59,422.97 423.71,424.73 423.90,431.94 424.09,424.43 424.20,415.28 424.23,415.92 424.36,418.02 424.55,427.24 424.74,423.49 424.84,397.93 424.87,412.39 425.01,422.10 425.21,426.81 425.39,426.09 425.48,392.69 425.52,429.37 425.66,432.58 425.86,428.35 426.03,424.30 426.12,348.61 426.16,422.76 426.31,433.16 426.51,429.72 426.68,418.58 426.75,386.17 426.81,417.27 426.96,427.07 427.16,430.46 427.33,421.21 427.39,323.78 427.45,419.25 427.62,432.19 427.82,429.04 427.97,427.54 428.03,315.70 428.10,424.40 428.27,428.44 428.47,426.29 428.62,420.66 428.67,321.79 428.75,420.56 428.92,429.36 429.12,423.56 429.27,423.46 429.31,407.72 429.39,428.96 429.57,424.08 429.77,427.22 429.91,432.47 429.95,401.52 430.04,420.94 430.22,428.09 430.42,425.05 430.55,421.91 430.59,425.62 430.69,426.86 430.88,432.30 431.07,426.27 431.20,415.07 431.23,421.44 431.34,428.63 431.53,424.34 431.72,426.12 431.84,409.10 431.87,410.36 431.99,425.22 432.18,422.06 432.37,421.94 432.48,406.36 432.51,425.05 432.64,429.36 432.83,420.55 433.02,426.60 433.12,382.77 433.16,419.73 433.29,426.72 433.49,424.44 433.67,422.17 433.76,401.74 433.80,424.87 433.94,426.26 434.14,424.83 434.32,418.99 434.40,390.31 434.44,424.31 434.59,427.71 434.79,425.73 434.96,427.89 435.04,345.15 435.09,417.38 435.24,423.83 435.44,426.87 435.61,423.78 435.68,230.12 435.74,429.63 435.90,419.72 436.10,427.13 436.26,420.40 436.32,280.48 436.38,425.78 436.55,419.23 436.75,428.72 436.90,429.41 436.95,283.70 437.03,417.75 437.20,423.44 437.40,424.33 437.55,425.72 437.59,397.16 437.68,428.63 437.85,432.46 438.05,425.85 438.19,417.90 438.23,428.16 438.32,420.43 438.50,427.15 438.70,425.58 438.84,418.11 438.87,403.83 438.97,428.39 439.16,426.52 439.35,428.45 439.48,424.75 439.51,408.20 439.62,426.42 439.81,428.47 440.00,427.56 440.12,429.50 440.15,422.87 440.27,425.06 440.46,428.13 440.65,418.66 440.77,417.67 440.80,420.10 440.92,427.85 441.11,426.89 441.30,426.97 441.41,402.10 441.44,423.54 441.57,427.04 441.77,429.72 441.95,426.17 442.05,387.32 442.08,416.16 442.22,427.10 442.42,429.43 442.60,426.92 442.69,396.70 442.73,412.76 442.87,428.75 443.07,422.76 443.25,427.46 443.33,395.98 443.37,415.82 443.52,422.89 443.72,425.32 443.89,419.37 443.96,204.17 444.02,418.76 444.17,432.97 444.38,423.18 444.54,428.73 444.60,338.39 444.66,432.24 444.83,424.47 445.03,428.89 445.19,429.22 445.24,306.44 445.31,424.45 445.48,429.87 445.68,427.42 445.83,424.27 445.88,357.82 445.96,428.59 446.13,424.48 446.33,425.32 446.48,426.72 446.52,398.87 446.61,429.37 446.78,419.87 446.98,427.58 447.12,418.05 447.16,391.93 447.25,423.63 447.44,422.27 447.63,425.78 447.76,422.75 447.80,417.65 447.90,425.90 448.09,418.55 448.28,429.84 448.41,403.05 448.44,405.90 448.55,426.49 448.74,425.70 448.93,424.58 449.05,428.79 449.08,425.67 449.20,425.25 449.39,427.22 449.58,430.15 449.69,421.35 449.72,424.85 449.85,425.08 450.05,427.22 450.23,427.59 450.33,386.56 450.37,416.48 450.50,422.60 450.70,428.67 450.88,426.10 450.97,393.41 451.01,419.92 451.15,423.85 451.35,427.18 451.53,424.96 451.61,402.74 451.65,411.85 451.81,422.28 452.00,430.72 452.17,428.40 452.25,323.23 452.30,415.25 452.46,422.39 452.66,431.65 452.82,424.69 452.89,221.79 452.95,426.12 453.11,423.23 453.31,428.63 453.47,423.95 453.53,345.25 453.59,420.42 453.76,429.98 453.96,426.78 454.11,422.46 454.16,408.37 454.24,428.73 454.41,431.20 454.61,420.82 454.76,426.95 454.80,407.54 454.89,430.38 455.06,425.21 455.26,424.55 455.40,421.47 455.44,415.81 455.54,419.55 455.72,427.18 455.91,419.40 456.05,412.88 456.08,410.75 456.18,428.81 456.37,428.50 456.56,423.33 456.69,413.34 456.72,420.82 456.83,430.62 457.02,423.90 457.21,427.35 457.33,423.30 457.36,406.02 457.48,425.58 457.67,421.19 457.86,424.96 457.98,403.89 458.01,416.44 458.13,422.57 458.33,422.11 458.51,422.60 458.62,393.84 458.65,412.86 458.78,428.13 458.98,422.96 459.16,420.01 459.26,398.61 459.29,427.79 459.43,427.22 459.63,422.00 459.81,432.74 459.90,372.94 459.94,414.95 460.09,427.30 460.28,429.25 460.46,422.35 460.54,318.07 460.58,423.04 460.74,430.59 460.94,426.01 461.10,421.80 461.17,304.56 461.23,421.52 461.39,420.84 461.59,426.77 461.75,429.70 461.81,347.19 461.88,421.64 462.04,425.61 462.24,426.43 462.40,417.52 462.45,207.94 462.52,425.77 462.69,427.38 462.89,427.68 463.04,419.19 463.09,382.55 463.17,422.79 463.34,422.51 463.54,428.05 463.69,413.34 463.73,394.38 463.82,424.92 464.00,425.70 464.19,425.73 464.33,423.98 464.37,394.46 464.47,430.60 464.65,432.30 464.85,432.84 464.97,420.36 465.01,417.84 465.11,431.55 465.30,425.11 465.49,429.10 465.62,408.34 465.65,422.56 465.76,429.31 465.95,430.52 466.14,426.93 466.26,423.15 466.29,425.14 466.41,428.75 466.61,429.30 466.79,429.29 466.90,418.66 466.93,422.69 467.06,423.65 467.26,430.07 467.44,427.04 467.54,387.30 467.58,420.12 467.71,428.32 467.91,431.14 468.09,416.85 468.18,418.53 468.22,424.60 468.37,427.67 468.56,426.59 468.74,431.12 468.82,351.86 468.87,428.22 469.02,428.92 469.22,428.61 469.39,421.11 469.46,330.30 469.51,427.84 469.67,426.46 469.87,427.77 470.03,427.59 470.10,319.30 470.16,425.24 470.32,425.04 470.52,424.28 470.68,424.95 470.73,355.64 470.80,422.67 470.97,428.38 471.17,423.69 471.33,420.70 471.37,272.60 471.45,429.98 471.63,427.46 471.82,422.51 471.97,428.99 472.01,419.05 472.10,422.15 472.28,423.68 472.48,425.94 472.61,421.25 472.65,403.28 472.75,425.39 472.93,424.81 473.13,422.81 473.26,417.23 473.29,407.03 473.40,428.44 473.58,424.23 473.78,426.74 473.90,410.95 473.93,418.57 474.04,427.25 474.23,422.10 474.43,429.33 474.54,412.39 474.57,418.55 474.69,424.01 474.89,425.04 475.08,425.41 475.18,413.16 475.22,426.75 475.34,426.47 475.54,422.01 475.72,432.19 475.83,412.78 475.86,413.13 476.00,422.95 476.19,423.02 476.37,428.77 476.47,393.18 476.50,429.24 476.65,424.36 476.84,423.49 477.02,428.73 477.11,367.03 477.15,421.55 477.30,426.67 477.50,430.32 477.67,426.33 477.74,355.70 477.79,421.23 477.95,427.24 478.15,427.82 478.32,425.24 478.38,264.24 478.44,424.72 478.60,427.68 478.80,426.20 478.96,422.83 479.02,178.78 479.09,419.10 479.25,421.68 479.45,425.13 479.61,421.90 479.66,304.64 479.73,425.47 479.91,422.62 480.10,425.43 480.25,427.18 480.30,412.23 480.38,428.54 480.56,429.46 480.76,427.99 480.90,421.40 480.94,420.99 481.03,420.50 481.21,431.09 481.41,426.69 481.54,426.93 481.58,421.78 481.68,431.32 481.86,426.56 482.06,425.48 482.19,419.81 482.22,416.53 482.33,422.69 482.51,426.25 482.71,427.89 482.83,407.48 482.86,420.90 482.98,425.84 483.17,431.33 483.36,428.53 483.47,398.35 483.50,405.29 483.63,428.66 483.82,424.82 484.01,429.55 484.11,405.32 484.14,409.78 484.28,424.93 484.47,426.17 484.66,426.92 484.75,415.52 484.79,414.08 484.93,426.80 485.12,425.00 485.30,423.47 485.39,418.97 485.43,419.20 485.58,424.43 485.78,421.68 485.95,431.67 486.03,314.87 486.08,426.04 486.23,422.06 486.43,426.25 486.60,423.26 486.67,339.15 486.72,419.12 486.88,429.78 487.08,426.17 487.24,425.97 487.31,321.58 487.37,423.81 487.53,424.74 487.73,423.11 487.89,419.69 487.94,209.64 488.01,422.55 488.19,426.13 488.38,429.07 488.54,415.97 488.58,343.03 488.66,420.11 488.84,421.98 489.04,428.66 489.18,430.29 489.22,406.84 489.31,428.84 489.49,418.82 489.69,422.72 489.82,419.62 489.86,388.07 489.96,418.03 490.14,426.43 490.34,418.82 490.47,419.97 490.50,402.69 490.61,425.75 490.79,423.66 490.99,430.97 491.11,413.82 491.14,410.11 491.26,416.62 491.45,427.30 491.64,429.41 491.75,406.79 491.78,416.59 491.91,432.30 492.10,426.58 492.29,425.06 492.39,416.76 492.43,417.46 492.56,422.42 492.75,429.46 492.94,426.61 493.04,396.56 493.07,418.46 493.21,423.33 493.40,430.15 493.58,418.46 493.68,414.60 493.71,416.67 493.86,420.95 494.06,427.78 494.23,423.59 494.32,369.94 494.36,414.91 494.51,422.86 494.71,430.69 494.88,419.08 494.95,258.78 495.01,418.17 495.16,427.38 495.36,429.20 495.53,420.79 495.59,253.46 495.65,422.75 495.81,429.51 496.01,426.47 496.17,429.42 496.23,330.50 496.30,424.98 496.47,427.26 496.66,428.33 496.82,424.98 496.87,379.14 496.94,421.86 497.12,425.33 497.32,423.95 497.46,413.26 497.51,396.53 497.59,422.73 497.77,426.64 497.97,424.18 498.11,420.66 498.15,397.92 498.24,425.52 498.42,426.90 498.62,421.62 498.75,415.63 498.79,400.09 498.89,423.36 499.07,423.90 499.27,425.08 499.40,409.36 499.43,404.36 499.54,425.98 499.73,427.29 499.92,428.56 500.04,414.96 500.07,402.90 500.19,424.49 500.38,426.82 500.57,420.60 500.68,409.78 500.71,416.75 500.84,420.53 501.03,416.99 501.22,421.18 501.32,407.35 501.35,419.75 501.49,423.75 501.68,423.56 501.87,429.61 501.96,386.30 502.00,426.62 502.14,430.48 502.34,422.52 502.51,422.79 502.60,382.05 502.64,419.53 502.79,417.65 502.99,428.31 503.16,423.92 503.24,348.13 503.29,426.71 503.44,423.68 503.64,429.85 503.81,428.09 503.88,328.71 503.93,427.79 504.09,423.24 504.29,421.96 504.46,424.14 504.51,352.21 504.58,419.88 504.75,420.16 504.95,428.01 505.10,426.95 505.15,358.79 505.23,424.60 505.40,422.81 505.60,423.70 505.75,427.53 505.79,375.86 505.87,429.49 506.05,427.38 506.25,427.75 506.39,420.56 506.43,416.57 506.52,423.49 506.70,429.18 506.90,429.59 507.04,412.29 507.07,400.51 507.17,421.77 507.35,426.86 507.55,430.06 507.68,415.70 507.71,411.81 507.82,425.03 508.01,429.93 508.20,429.09 508.32,413.74 508.35,414.75 508.47,426.06 508.66,425.49 508.85,425.90 508.96,409.77 508.99,414.93 509.12,431.16 509.31,430.60 509.50,428.81 509.60,422.35 509.64,406.58 509.77,425.73 509.96,425.37 510.15,421.12 510.25,391.39 510.28,421.75 510.42,423.94 510.62,427.49 510.80,424.25 510.89,412.62 510.93,424.44 511.07,425.04 511.27,426.13 511.44,422.67 511.52,353.63 511.57,419.68 511.72,427.66 511.92,425.50 512.09,424.53 512.16,334.80 512.22,420.27 512.37,430.23 512.57,427.56 512.74,429.17 512.80,265.49 512.86,425.94 513.03,429.51 513.23,423.87 513.38,431.93 513.44,259.03 513.51,425.03 513.68,421.55 513.88,428.23 514.03,422.50 514.08,344.12 514.16,430.83 514.33,430.68 514.53,429.74 514.67,422.82 514.72,398.47 514.80,417.08 514.98,422.94 515.18,423.68 515.32,419.51 515.36,404.51 515.45,421.13 515.63,425.44 515.83,423.17 515.96,415.13 516.00,413.10 516.10,426.61 516.29,426.13 516.48,425.94 516.61,413.24 516.64,414.31 516.75,428.07 516.94,425.59 517.13,425.63 517.25,418.05 517.28,417.48 517.40,424.50 517.59,424.96 517.78,422.55 517.89,420.06 517.92,398.92 518.05,426.83 518.24,422.80 518.43,432.03 518.53,406.26 518.56,422.49 518.70,426.02 518.90,429.80 519.08,418.63 519.17,413.75 519.21,410.67 519.35,422.68 519.55,426.33 519.73,427.86 519.81,416.24 519.85,421.64 520.00,428.70 520.20,426.49 520.37,423.54 520.45,253.12 520.50,418.12 520.65,424.48 520.85,425.45 521.02,421.85 521.09,197.41 521.14,426.79 521.31,424.53 521.51,429.11 521.67,426.69 521.72,143.61 521.79,423.29 521.96,428.57 522.16,428.89 522.31,420.46 522.36,358.76 522.44,423.14 522.61,427.53 522.81,427.25 522.96,424.64 523.00,386.68 523.09,417.74 523.26,425.92 523.46,424.26 523.60,429.30 523.64,379.89 523.73,417.40 523.91,426.96 524.11,423.99 524.25,412.94 524.28,403.88 524.38,427.29 524.57,429.89 524.76,422.55 524.89,413.74 524.92,417.29 525.03,425.81 525.22,428.07 525.41,427.17 525.53,424.36 525.56,405.92 525.68,427.63 525.87,425.53 526.06,425.39 526.17,417.33 526.20,414.29 526.33,426.43 526.52,429.58 526.71,422.05 526.81,385.11 526.85,420.05 526.98,426.99 527.18,423.17 527.36,427.86 527.45,404.39 527.49,422.23 527.63,425.80 527.83,422.39 528.01,420.46 528.09,416.68 528.14,427.08 528.28,431.84 528.48,425.88 528.66,424.07 528.73,351.36 528.78,412.60 528.93,421.35 529.13,425.73 529.30,426.95 529.37,187.79 529.43,431.11 529.59,427.82 529.79,427.05 529.95,424.15 530.01,250.17 530.07,426.55 530.24,422.23 530.44,423.98 530.59,418.61 530.65,303.13 530.72,428.92 530.89,423.23 531.09,428.75 531.24,413.33 531.29,369.67 531.37,427.12 531.54,422.50 531.74,431.08 531.89,429.76 531.93,385.20 532.01,419.32 532.19,421.67 532.39,425.50 532.53,422.91 532.57,397.11 532.66,422.36 532.85,425.33 533.04,427.34 533.17,419.80 533.21,407.90 533.31,422.71 533.50,424.42 533.69,428.48 533.82,419.32 533.85,414.69 533.96,421.13 534.15,427.61 534.34,426.23 534.46,407.28 534.49,414.77 534.61,423.32 534.80,427.13 534.99,421.86 535.10,403.59 535.13,421.21 535.26,431.41 535.46,428.46 535.64,431.13 535.74,406.29 535.78,417.15 535.91,422.64 536.11,429.91 536.29,421.89 536.38,420.02 536.42,423.92 536.56,429.56 536.76,431.60 536.94,425.51 537.02,387.88 537.06,425.71 537.21,432.85 537.41,424.59 537.58,426.48 537.66,249.91 537.71,420.67 537.87,429.32 538.07,423.00 538.23,425.15 538.30,196.67 538.36,431.20 538.52,427.22 538.72,426.16 538.88,422.96 538.93,329.14 539.00,424.27 539.17,433.70 539.37,423.87 539.52,416.66 539.57,325.87 539.65,428.89 539.82,424.74 540.02,425.69 540.17,419.63 540.21,397.17 540.30,428.65 540.47,422.96 540.67,430.89 540.81,420.49 540.85,369.79 540.94,421.97 541.13,423.10 541.32,429.52 541.46,422.72 541.49,399.24 541.59,431.77 541.78,421.33 541.97,422.51 542.10,418.15 542.13,418.49 542.24,421.04 542.43,423.06 542.62,427.41 542.74,399.60 542.77,416.68 542.89,421.29 543.08,422.87 543.27,423.50 543.38,419.86 543.42,411.46 543.54,429.91 543.74,423.99 543.92,418.33 544.02,406.17 544.06,416.60 544.19,428.15 544.39,420.72 544.57,417.15 544.66,411.00 544.70,428.58 544.84,429.25 545.04,424.96 545.22,432.91 545.30,384.44 545.35,428.85 545.50,424.15 545.69,427.15 545.87,417.25 545.94,344.49 545.99,414.97 546.15,422.91 546.35,425.77 546.51,424.24 546.58,314.44 546.64,426.87 546.80,424.77 547.00,423.95 547.16,419.20 547.22,215.75 547.28,423.94 547.45,427.78 547.65,427.90 547.81,424.36 547.86,401.23 547.93,422.26 548.10,425.10 548.30,431.39 548.45,423.77 548.50,393.34 548.58,423.65 548.75,426.34 548.95,428.02 549.10,419.48 549.13,403.83 549.23,420.19 549.41,426.40 549.60,428.35 549.74,426.35 549.77,396.18 549.87,425.07 550.06,429.16 550.25,427.77 550.38,424.67 550.42,402.05 550.52,428.80 550.71,426.41 550.90,431.51 551.03,410.27 551.06,414.70 551.17,425.36 551.36,429.63 551.55,417.62 551.67,421.56 551.70,415.10 551.82,427.93 552.02,426.71 552.20,424.72 552.31,410.65 552.34,410.86 552.47,427.31 552.67,424.73 552.85,426.75 552.95,405.49 552.99,418.42 553.12,430.36 553.32,430.00 553.50,420.80 553.59,394.18 553.63,424.75 553.78,428.36 553.97,419.47 554.15,426.68 554.23,280.83 554.27,427.56 554.43,427.96 554.63,427.98 554.80,426.74 554.87,246.40 554.92,419.92 555.08,426.22 555.28,423.95 555.44,423.94 555.50,198.57 555.57,425.86 555.73,432.21 555.93,423.52 556.09,423.01 556.14,253.25 556.21,424.13 556.38,423.67 556.58,419.68 556.73,424.33 556.78,324.80 556.86,419.76 557.03,423.66 557.23,428.69 557.38,422.26 557.42,378.40 557.51,428.08 557.69,423.92 557.88,426.59 558.02,408.32 558.06,401.67 558.16,427.57 558.34,422.55 558.54,428.35 558.67,418.39 558.70,397.32 558.81,427.54 558.99,425.56 559.18,424.71 559.31,422.90 559.34,404.22 559.46,419.63 559.64,425.38 559.83,423.24 559.95,391.71 559.98,411.87 560.10,426.17 560.30,426.63 560.48,425.38 560.59,411.29 560.63,421.78 560.75,429.57 560.95,432.60 561.13,429.09 561.23,394.93 561.27,421.06 561.40,422.99 561.60,426.50 561.78,432.46 561.87,424.24 561.91,423.76 562.06,425.85 562.25,429.96 562.43,424.95 562.51,367.70 562.56,423.85 562.71,428.57 562.91,431.67 563.08,428.82 563.15,306.84 563.20,419.64 563.36,430.15 563.56,427.13 563.72,424.92 563.79,386.04 563.85,429.55 564.01,429.16 564.21,426.02 564.37,422.20 564.43,259.75 564.50,418.04 564.66,429.85 564.86,428.04 565.02,428.11 565.07,341.75 565.14,418.70 565.31,428.71 565.51,423.78 565.66,431.57 565.70,408.37 565.79,427.91 565.97,429.18 566.17,425.25 566.31,425.37 566.34,401.58 566.44,425.73 566.62,431.91 566.82,423.57 566.95,410.42 566.98,420.33 567.09,426.20 567.27,426.01 567.47,424.68 567.59,409.08 567.63,423.92 567.74,424.87 567.92,426.42 568.12,426.61 568.24,409.49 568.27,397.40 568.38,431.32 568.58,425.85 568.77,423.51 568.88,420.33 568.91,423.85 569.03,425.75 569.23,421.70 569.42,425.88 569.52,411.74 569.55,417.18 569.69,421.05 569.88,422.38 570.06,423.81 570.16,401.43 570.20,420.55 570.34,428.44 570.53,421.97 570.71,430.68 570.80,420.39 570.84,425.80 570.99,420.37 571.19,427.56 571.36,427.10 571.44,314.37 571.49,413.15 571.64,428.06 571.84,423.11 572.01,426.21 572.08,289.45 572.13,417.86 572.29,427.71 572.49,428.63 572.65,429.50 572.71,270.78 572.78,425.57 572.94,421.00 573.14,426.50 573.30,429.22 573.35,233.11 573.42,417.71 573.59,424.82 573.79,427.62 573.94,423.57 573.99,379.47 574.07,426.30 574.25,424.15 574.45,428.69 574.59,414.25 574.63,385.89 574.72,425.62 574.90,426.39 575.10,425.77 575.23,419.88 575.27,407.85 575.37,417.44 575.55,425.01 575.75,427.08 575.88,413.68 575.91,415.99 576.02,420.94 576.20,423.82 576.40,424.15 576.52,416.29 576.55,397.83 576.67,431.07 576.86,423.59 577.05,431.28 577.16,398.23 577.19,412.97 577.32,427.91 577.51,426.09 577.70,425.97 577.80,405.85 577.84,431.38 577.97,427.71 578.16,429.58 578.35,424.00 578.44,408.20 578.48,427.24 578.62,429.12 578.81,423.39 578.99,425.03 579.08,398.86 579.12,421.24 579.27,424.53 579.47,422.89 579.64,425.41 579.72,341.85 579.77,423.08 579.92,426.93 580.12,432.21 580.29,415.92 580.36,307.11 580.41,423.40 580.57,428.62 580.77,425.03 580.94,422.83 581.00,218.83 581.06,426.57 581.22,431.63 581.42,426.08 581.58,427.08 581.64,258.49 581.71,428.27 581.88,429.72 582.07,426.42 582.23,413.35 582.28,368.03 582.35,425.43 582.53,422.83 582.73,426.78 582.87,425.91 582.91,392.97 583.00,425.34 583.18,427.22 583.38,424.09 583.52,430.57 583.55,428.61 583.65,422.87 583.83,428.63 584.03,430.05 584.16,415.91 584.19,425.15 584.30,428.57 584.48,421.47 584.68,429.60 584.80,407.90 584.84,408.11 584.95,431.33 585.14,425.60 585.33,423.33 585.45,415.56 585.48,412.33 585.60,424.04 585.79,419.42 585.98,419.55 586.09,426.60 586.12,414.33 586.25,427.27 586.44,423.39 586.63,423.33 586.73,382.58 586.76,426.20 586.90,428.91 587.09,423.15 587.27,421.19 587.37,399.90 587.41,416.96 587.55,427.61 587.75,421.49 587.92,424.17 588.01,407.96 588.05,422.71 588.20,427.18 588.40,430.29 588.57,426.47 588.65,392.65 588.70,410.31 588.85,425.54 589.05,425.96 589.22,431.00 589.29,145.38 589.34,414.63 589.50,424.61 589.70,428.48 589.86,421.98 589.92,276.40 589.99,416.96 590.16,431.91 590.35,429.19 590.51,410.09 590.56,364.68 590.64,424.05 590.81,425.80 591.01,425.90 591.16,416.57 591.20,384.95 591.28,430.97 591.46,426.01 591.66,428.08 591.80,414.14 591.84,405.21 591.93,423.33 592.11,424.57 592.31,420.95 592.44,415.73 592.48,381.23 592.58,432.17 592.76,427.10 592.96,425.35 593.09,412.48 593.12,418.75 593.23,425.84 593.42,431.28 593.61,427.85 593.73,427.88 593.76,413.91 593.88,428.40 594.07,429.02 594.26,419.85 594.37,415.55 594.40,404.12 594.53,428.02 594.72,426.33 594.91,423.70 595.01,421.01 595.05,424.44 595.18,424.42 595.37,422.03 595.56,424.94 595.65,377.92 595.69,423.69 595.83,429.04 596.03,425.21 596.20,424.87 596.29,395.80 596.33,418.23 596.48,428.51 596.68,427.03 596.85,424.91 596.93,351.52 596.98,421.58 597.13,424.20 597.33,420.80 597.50,418.58 597.57,279.10 597.63,424.75 597.78,428.70 597.98,425.23 598.15,422.25 598.21,287.49 598.27,424.31 598.44,425.64 598.64,427.30 598.79,415.01 598.85,249.37 598.92,423.29 599.09,425.88 599.29,423.21 599.44,426.88 599.48,380.98 599.56,424.31 599.74,422.41 599.94,426.65 600.08,418.90 600.12,403.82 600.21,419.76 600.39,419.38 600.59,427.99 600.73,422.82 600.76,412.24 600.86,420.61 601.04,427.77 601.24,425.34 601.37,412.41 601.40,406.68 601.51,429.03 601.70,424.90 601.89,431.03 602.01,426.00 602.05,417.88 602.16,421.00 602.35,429.83 602.54,427.83 602.66,404.61 602.69,409.76 602.81,430.86 603.00,427.56 603.19,423.02 603.30,400.91 603.33,424.30 603.46,427.37 603.65,425.44 603.84,428.77 603.94,386.52 603.97,417.18 604.11,429.58 604.31,430.85 604.49,430.71 604.58,409.94 604.62,411.73 604.76,429.35 604.96,427.25 605.13,429.13 605.22,381.87 605.26,416.47 605.41,426.37 605.61,429.97 605.78,429.47 605.86,281.08 605.91,429.25 606.06,423.85 606.26,431.10 606.43,419.55 606.49,131.14 606.55,427.52 606.72,426.67 606.92,425.76 607.08,420.52 607.13,208.78 607.20,429.97 607.37,432.83 607.57,425.09 607.72,418.48 607.77,301.50 607.85,428.06 608.02,431.98 608.22,421.01 608.37,420.03 608.41,376.00 608.49,421.50 608.67,423.30 608.87,420.22 609.01,431.13 609.05,382.21 609.14,425.36 609.32,427.99 609.52,426.44 609.65,405.79 609.69,400.88 609.79,423.62 609.98,425.87 610.17,430.11 610.30,428.87 610.33,424.04 610.44,427.08 610.63,420.69 610.82,430.06 610.94,417.45 610.97,412.35 611.09,423.96 611.28,425.94 611.47,420.77 611.58,411.41 611.61,414.61 611.74,426.32 611.93,419.37 612.12,426.44 612.22,381.65 612.26,416.88 612.39,423.39 612.59,427.84 612.77,423.79 612.86,401.32 612.90,416.16 613.04,432.10 613.24,423.81 613.42,421.40 613.50,405.93 613.55,419.16 613.69,427.12 613.89,432.63 614.06,415.16 614.14,375.23 614.19,423.87 614.34,424.46 614.54,426.84 614.71,423.88 614.78,229.52 614.84,410.21 615.00,423.77 615.20,429.91 615.36,428.01 615.42,243.56 615.48,418.35 615.65,427.14 615.85,427.95 616.00,418.89 616.06,348.08 616.13,428.21 616.30,425.78 616.50,425.50 616.65,423.27 616.69,365.47 616.78,423.83 616.95,429.66 617.15,427.85 617.29,424.44 617.33,400.15 617.42,426.08 617.60,428.09 617.80,426.23 617.94,420.57 617.97,389.49 618.07,423.64 618.26,426.93 618.45,426.34 618.58,407.36 618.61,402.08 618.72,424.27 618.91,430.93 619.10,429.69 619.22,417.40 619.26,416.58 619.37,424.73 619.56,430.62 619.75,423.69 619.87,422.47 619.90,412.94 620.02,425.96 620.21,430.32 620.40,422.54 620.51,426.67 620.54,413.78 620.67,427.11 620.87,424.64 621.05,427.94 621.15,407.16 621.18,422.63 621.32,425.02 621.52,424.87 621.70,422.43 621.79,380.40 621.83,419.78 621.97,424.56 622.17,424.14 622.35,426.68 622.43,383.24 622.47,424.67 622.62,428.48 622.82,422.45 622.99,427.37 623.07,348.35 623.12,419.50 623.28,426.87 623.48,424.82 623.64,425.41 623.70,175.38 623.76,424.25 623.93,426.89 624.13,425.81 624.29,419.28 624.34,195.71 624.41,428.48 624.58,426.51 624.78,426.25 624.93,419.79 624.98,358.94 625.06,428.05 625.23,423.45 625.43,421.70 625.58,414.05 625.62,381.11 625.71,430.67 625.88,427.44 626.08,427.82 626.22,413.07 626.26,401.00 626.35,426.96 626.54,424.33 626.73,419.32 626.86,424.26 626.90,398.10 627.00,423.25 627.19,422.91 627.38,425.44 627.51,414.37 627.54,406.02 627.65,423.52 627.84,424.08 628.03,422.83 628.15,406.99 628.18,426.93 628.30,426.46 628.49,422.08 628.68,422.29 628.79,405.25 628.82,415.24 628.95,422.53 629.15,427.50 629.33,425.85 629.43,406.46 629.47,416.63 629.60,426.14 629.80,428.57 629.98,428.74 630.07,393.60 630.11,413.03 630.25,423.76 630.45,427.43 630.63,427.79 630.71,381.03 630.76,426.59 630.90,423.94 631.10,428.33 631.28,426.71 631.35,302.97 631.40,419.76 631.56,429.11 631.76,429.80 631.92,425.46 631.99,320.79 632.05,426.66 632.21,425.06 632.41,424.66 632.57,419.07 632.63,334.30 632.69,420.34 632.86,424.67 633.06,430.52 633.21,410.37 633.26,331.00 633.34,417.49 633.51,426.55 633.71,423.90 633.86,417.91 633.90,390.41 633.99,425.66 634.16,432.20 634.36,427.01 634.50,425.84 634.54,397.86 634.64,428.49 634.82,428.18 635.01,424.06 635.15,419.31 635.18,420.60 635.28,425.24 635.47,429.03 635.66,421.40 635.79,418.23 635.82,421.49 635.93,427.41 636.12,423.84 636.31,426.22 636.43,423.09 636.47,415.81 636.58,427.79 636.77,430.57 636.96,421.58 637.08,422.51 637.11,417.72 637.23,426.28 637.43,423.59 637.61,426.25 637.72,398.90 637.75,423.51 637.88,424.26 638.08,427.42 638.26,421.54 638.36,395.54 638.39,420.97 638.53,427.11 638.73,421.69 638.91,426.36 639.00,399.25 639.04,423.57 639.19,428.29 639.38,423.11 639.56,423.89 639.64,331.74 639.68,418.05 639.84,425.25 640.04,430.85 640.20,428.45 640.27,296.46 640.33,423.55 640.49,430.12 640.69,426.16 640.85,422.33 640.91,260.27 640.98,426.49 641.14,425.92 641.34,430.18 641.50,429.75 641.55,331.85 641.62,418.69 641.79,423.55 641.99,429.51 642.14,427.36 642.19,360.03 642.27,432.42 642.44,425.92 642.64,432.24 642.79,423.74 642.83,391.63 642.92,420.77 643.10,428.64 643.29,424.25 643.43,418.15 643.47,396.41 643.57,422.04 643.75,426.27 643.95,432.21 644.08,431.64 644.11,401.92 644.21,425.41 644.40,425.72 644.60,424.41 644.72,414.79 644.75,409.07 644.86,426.99 645.05,424.52 645.24,425.76 645.36,424.51 645.39,423.84 645.51,427.45 645.71,428.09 645.89,423.19 646.00,413.93 646.03,416.33 646.16,423.38 646.36,433.60 646.54,423.87 646.64,417.35 646.68,428.67 646.81,426.57 647.01,426.03 647.19,421.69 647.28,405.85 647.32,418.13 647.47,426.67 647.66,428.86 647.84,429.08 647.92,326.51 647.97,413.11 648.12,430.51 648.32,424.69 648.49,421.50 648.56,261.44 648.61,422.26 648.77,426.74 648.97,422.41 649.13,417.59 649.20,324.03 649.26,427.71 649.42,425.89 649.62,422.09 649.78,425.22 649.84,371.63 649.90,422.53 650.07,427.57 650.27,424.15 650.43,420.41 650.47,325.66 650.55,422.08 650.72,429.61 650.92,425.60 651.07,417.75 651.11,382.46 651.20,426.59 651.38,426.05 651.57,423.40 651.71,414.34 651.75,404.04 651.85,428.14 652.03,426.08 652.23,423.22 652.36,423.23 652.39,392.61 652.50,427.25 652.68,427.39 652.88,426.10 653.00,428.20 653.03,415.60 653.15,428.15 653.33,420.48 653.53,423.79 653.64,409.95 653.68,418.18 653.79,430.48 653.99,423.06 654.18,425.68 654.29,417.44 654.32,422.56 654.44,425.60 654.64,423.72 654.82,425.13 654.93,406.88 654.96,429.34 655.10,425.60 655.29,425.56 655.47,419.68 655.57,385.59 655.60,428.07 655.75,429.73 655.94,421.87 656.12,429.26 656.21,425.88 656.25,423.67 656.40,425.87 656.60,427.87 656.77,422.70 656.85,348.20 656.89,418.31 657.05,423.08 657.25,428.59 657.42,425.80 657.48,284.44 657.54,431.54 657.70,422.21 657.90,429.68 658.06,427.29 658.12,399.84 658.19,427.10 658.35,424.05 658.55,430.17 658.71,421.19 658.76,306.69 658.83,422.42 659.00,429.23 659.20,431.94 659.35,425.08 659.40,373.79 659.48,427.63 659.66,425.98 659.86,427.01 660.00,422.90 660.04,392.33 660.13,425.24 660.31,431.69 660.51,424.25 660.64,418.87 660.68,408.70 660.78,431.96 660.96,428.32 661.16,420.92 661.29,422.71 661.32,407.86 661.43,422.14 661.61,428.68 661.81,422.40 661.93,421.09 661.96,414.55 662.08,425.52 662.27,426.45 662.46,429.98 662.57,421.63 662.60,413.38 662.73,430.32 662.92,426.47 663.11,429.56 663.21,417.88 663.24,416.44 663.38,429.20 663.57,427.56 663.76,423.85 663.85,387.98 663.89,417.08 664.03,431.70 664.22,423.37 664.40,423.17 664.49,379.16 664.53,429.81 664.68,428.48 664.88,423.52 665.05,431.41 665.13,345.85 665.18,425.25 665.33,429.29 665.53,420.71 665.70,424.45 665.77,272.16 665.82,421.95 665.98,430.40 666.18,425.67 666.34,418.88 666.41,274.69 666.47,427.96 666.63,420.15 666.83,426.48 666.99,427.35 667.04,239.89 667.11,417.25 667.28,429.12 667.48,422.94 667.64,422.60 667.68,386.05 667.76,431.78 667.94,423.67 668.14,425.51 668.28,417.50 668.32,382.23 668.41,422.92 668.59,423.95 668.79,431.28 668.93,424.11 668.96,408.42 669.06,423.50 669.24,421.38 669.44,430.16 669.57,428.90 669.60,406.29 669.71,426.56 669.89,422.60 670.09,426.87 670.21,425.25 670.24,421.03 670.36,418.32 670.55,431.94 670.74,430.10 670.85,404.01 670.89,408.78 671.01,427.01 671.20,426.95 671.39,427.13 671.50,407.57 671.53,418.65 671.66,426.64 671.85,428.06 672.04,425.53 672.14,418.39 672.17,418.04 672.31,426.00 672.50,426.03 672.69,429.19 672.78,386.40 672.82,420.34 672.96,425.12 673.16,426.50 673.33,428.60 673.42,389.04 673.46,415.12 673.61,422.93 673.81,427.63 673.98,426.29 674.05,355.46 674.11,426.98 674.26,423.77 674.46,424.16 674.63,420.35 674.69,199.57 674.75,430.69 674.91,431.63 675.11,425.41 675.27,423.29 675.33,246.68 675.40,425.78 675.56,427.35 675.76,429.05 675.92,417.49 675.97,303.05 676.04,423.39 676.22,430.85 676.42,424.65 676.56,425.61 676.61,378.00 676.69,427.36 676.87,427.03 677.07,426.95 677.21,418.39 677.25,391.72 677.34,424.31 677.52,431.22 677.72,428.31 677.85,423.96 677.89,401.47 677.99,425.31 678.17,430.46 678.37,429.21 678.50,415.22 678.53,420.37 678.64,426.36 678.83,425.87 679.02,423.38 679.14,423.89 679.17,409.43 679.29,428.04 679.48,427.51 679.67,425.54 679.78,411.60 679.81,407.90 679.94,426.49 680.13,426.28 680.32,429.25 680.42,426.20 680.45,419.32 680.59,425.08 680.78,425.23 680.97,422.85 681.06,408.58 681.10,421.38 681.24,424.47 681.44,421.32 681.61,418.10 681.70,407.06 681.74,416.27 681.89,426.39 682.09,424.47 682.26,426.08 682.34,371.02 682.39,424.80 682.54,428.76 682.74,423.84 682.91,425.90 682.98,222.87 683.03,427.57 683.19,418.24 683.39,422.94 683.56,426.04 683.62,352.24 683.68,421.16 683.85,427.42 684.04,429.03 684.20,425.94 684.25,287.24 684.33,427.19 684.50,423.28 684.70,425.51 684.85,421.27 684.89,384.30 684.97,427.46 685.15,424.82 685.35,431.49 685.49,417.02 685.53,411.68 685.62,424.24 685.80,424.76 686.00,427.17 686.14,428.44 686.17,383.15 686.27,426.96 686.45,430.93 686.65,426.29 686.78,418.30 686.81,400.73 686.92,429.25 687.11,426.35 687.30,425.10 687.42,418.03 687.45,424.37 687.57,429.52 687.76,424.93 687.95,424.32 688.06,419.75 688.10,427.96 688.22,422.68 688.41,430.72 688.60,425.03 688.71,415.32 688.74,431.10 688.87,423.16 689.06,424.93 689.25,423.53 689.35,398.83 689.38,413.14 689.52,425.74 689.72,428.57 689.90,425.98 689.99,399.84 690.03,419.18 690.17,431.45 690.37,430.32 690.54,423.61 690.63,349.57 690.67,425.24 690.82,432.14 691.02,425.77 691.19,425.67 691.26,369.39 691.32,427.12 691.47,429.51 691.67,427.35 691.84,426.86 691.90,222.21 691.96,422.35 692.13,426.05 692.33,426.97 692.48,417.88 692.54,299.96 692.61,426.14 692.78,427.71 692.98,424.58 693.13,423.03 693.18,414.80 693.26,429.49 693.43,425.87 693.63,424.88 693.78,427.64 693.82,398.17 693.90,418.44 694.08,425.81 694.28,426.74 694.42,421.61 694.46,409.37 694.55,425.32 694.73,422.56 694.93,426.03 695.06,422.60 695.10,406.54 695.20,428.82 695.39,420.99 695.58,430.20 695.71,425.03 695.74,402.92 695.85,425.61 696.04,427.69 696.23,422.74 696.35,408.30 696.38,415.89 696.50,428.44 696.69,422.58 696.88,427.10 696.99,400.86 697.02,423.55 697.15,425.91 697.34,429.05 697.53,425.38 697.63,405.76 697.67,430.76 697.80,423.87 698.00,430.57 698.18,429.68 698.27,386.39 698.31,422.24 698.45,428.75 698.65,425.88 698.83,424.01 698.91,403.31 698.95,421.24 699.10,425.95 699.30,427.60 699.47,421.67 699.55,330.62 699.60,425.76 699.75,426.94 699.95,420.52 700.12,413.71 700.19,182.92 700.24,420.13 700.41,421.48 700.61,429.68 700.77,423.23 700.83,148.39 700.89,417.54 701.06,430.11 701.26,426.79 701.41,421.19 701.46,255.09 701.54,427.99 701.71,427.10 701.91,424.20 702.06,422.52 702.10,373.53 702.19,426.83 702.36,429.59 702.56,428.97 702.70,425.20 702.74,404.86 702.83,423.72 703.01,428.53 703.21,423.82 703.35,426.07 703.38,398.41 703.48,422.97 703.67,431.05 703.86,423.52 703.99,421.94 704.02,422.97 704.13,426.56 704.32,426.26 704.51,419.81 704.63,409.43 704.66,402.69 704.78,426.20 704.97,431.28 705.16,427.41 705.27,423.39 705.31,419.02 705.43,432.19 705.62,425.86 705.81,426.79 705.92,418.84 705.95,422.05 706.08,430.18 706.28,428.40 706.46,430.08 706.56,392.18 706.59,419.24 706.73,424.91 706.93,422.35 707.11,417.14 707.20,415.21 707.24,415.32 707.38,433.01 707.58,425.71 707.76,420.73 707.84,391.74 707.88,426.54 708.03,425.28 708.23,426.08 708.40,423.05 708.47,303.11 708.53,412.42 708.69,425.20 708.89,420.78 709.05,420.97 709.11,326.19 709.17,426.54 709.34,423.92 709.54,427.23 709.70,424.32 709.75,298.16 709.82,420.98 709.99,421.68 710.19,429.63 710.34,422.89 710.39,364.48 710.47,424.82 710.64,424.80 710.84,428.18 710.99,422.86 711.03,422.42 711.12,427.82 711.29,428.48 711.49,426.52 711.63,414.54 711.67,385.65 711.76,426.48 711.95,421.31 712.14,426.29 712.27,418.99 712.31,419.12 712.41,428.22 712.60,425.27 712.79,427.94 712.92,418.89 712.95,412.53 713.06,424.40 713.25,427.22 713.44,425.62 713.56,393.68 713.59,419.26 713.71,429.92 713.90,428.70 714.09,424.58 714.20,426.57 714.23,421.14 714.36,422.94 714.56,426.01 714.74,424.98 714.84,385.05 714.88,418.87 715.01,424.52 715.21,426.70 715.39,426.27 715.48,408.08 715.52,422.46 715.66,424.21 715.86,429.16 716.04,425.00 716.12,394.64 716.16,416.51 716.31,428.86 716.51,427.43 716.69,428.26 716.76,298.95 716.81,426.21 716.97,426.08 717.17,425.25 717.33,423.30 717.40,354.81 717.46,425.63 717.62,426.16 717.82,425.15 717.98,428.20 718.03,286.44 718.10,420.78 718.27,428.51 718.47,424.90 718.62,420.05 718.67,299.42 718.75,422.23 718.92,431.72 719.12,429.56 719.27,421.70 719.31,395.18 719.40,430.11 719.57,424.00 719.77,427.54 719.91,419.06 719.95,404.86 720.04,426.38 720.23,423.79 720.42,425.50 720.56,425.87 720.59,404.40 720.69,424.17 720.88,425.93 721.07,423.12 721.20,425.68 721.23,408.43 721.34,427.38 721.53,425.69 721.72,428.93 721.84,416.88 721.87,409.04 721.99,423.46 722.18,425.39 722.37,416.53 722.48,407.87 722.52,429.06 722.64,430.98 722.84,424.07 723.02,428.36 723.13,408.38 723.16,422.96 723.29,426.60 723.49,426.83 723.67,419.44 723.77,381.32 723.80,423.51 723.94,429.07 724.14,422.81 724.32,420.17 724.41,361.45 724.45,413.92 724.59,422.53 724.79,424.76 724.97,425.31 725.04,323.34 725.09,426.98 725.25,425.61 725.45,424.61 725.61,425.15 725.68,195.67 725.74,423.69 725.90,427.39 726.10,425.15 726.26,425.58 726.32,327.36 726.38,429.07 726.55,422.81 726.75,429.47 726.91,418.31 726.96,310.21 727.03,422.06 727.20,424.33 727.40,423.70 727.55,419.26 727.60,356.53 727.68,431.48 727.85,427.63 728.05,430.14 728.20,420.83 728.24,414.14 728.33,424.19 728.51,425.20 728.70,430.84 728.84,414.83 728.88,412.43 728.97,423.92 729.16,431.33 729.35,421.60 729.48,418.97 729.52,423.16 729.62,427.43 729.81,428.78 730.01,428.14 730.13,422.23 730.16,413.20 730.27,418.66 730.46,429.49 730.65,430.55 730.77,406.02 730.80,417.59 730.92,426.74 731.12,425.00 731.30,423.39 731.41,412.99 731.44,422.99 731.57,428.98 731.77,428.44 731.95,423.85 732.05,391.92 732.09,421.85 732.22,428.73 732.42,429.40 732.60,425.57 732.69,390.12 732.73,427.66 732.88,430.52 733.07,424.60 733.25,427.78 733.33,388.40 733.37,427.02 733.53,431.03 733.73,426.75 733.90,422.63 733.97,257.99 734.02,427.98 734.18,429.42 734.38,424.72 734.54,427.21 734.61,228.63 734.67,430.27 734.83,423.63 735.03,423.56 735.19,426.09 735.24,278.14 735.31,420.75 735.48,428.03 735.68,424.28 735.83,422.51 735.88,345.01 735.96,425.35 736.13,424.18 736.33,429.23 736.48,432.16 736.52,397.17 736.61,426.05 736.79,425.01 736.98,428.11 737.12,425.88 737.16,384.86 737.26,429.13 737.44,424.33 737.64,427.44 737.77,410.53 737.80,415.04 737.91,426.23 738.09,422.86 738.29,426.60 738.41,423.50 738.44,415.76 738.56,423.10 738.74,422.14 738.93,425.57 739.05,419.39 739.08,413.61 739.21,427.03 739.40,421.79 739.58,426.05 739.69,414.00 739.73,427.50 739.85,422.52 740.05,427.27 740.23,429.57 740.34,385.92 740.37,420.13 740.50,422.57 740.70,427.21 740.88,420.13 740.98,402.48 741.01,429.80 741.16,425.01 741.35,428.36 741.53,427.35 741.61,402.89 741.66,425.88 741.81,422.75 742.01,427.73 742.18,422.16 742.25,318.73 742.30,422.51 742.46,427.33 742.66,429.27 742.82,418.34 742.89,117.74 742.95,428.52 743.11,428.22 743.31,430.09 743.47,428.62 743.53,257.31 743.60,419.22 743.76,431.59 743.96,427.34 744.12,419.28 744.17,397.71 744.24,425.29 744.41,432.31 744.61,420.83 744.76,426.40 744.81,406.63 744.89,429.02 745.07,422.08 745.26,424.91 745.41,425.65 745.45,410.86 745.54,428.38 745.72,427.44 745.92,421.20 746.05,416.16 746.09,406.48 746.19,428.39 746.37,425.21 746.57,422.94 746.69,419.26 746.73,423.51 746.84,430.01 747.02,429.59 747.22,428.88 747.34,419.63 747.37,419.06 747.49,427.21 747.68,426.33 747.87,426.21 747.98,428.66 748.01,409.83 748.13,422.14 748.33,422.47 748.52,427.55 748.62,395.48 748.65,413.30 748.79,425.43 748.98,423.21 749.16,422.37 749.26,409.24 749.30,420.11 749.44,432.63 749.63,418.01 749.81,421.88 749.90,405.12 749.94,426.66 750.09,428.83 750.29,423.01 750.46,422.67 750.54,307.45 750.59,420.38 750.74,431.24 750.94,425.80 751.11,422.26 751.18,256.03 751.23,422.86 751.39,426.86 751.59,423.93 751.75,412.58 751.81,316.52 751.88,419.01 752.04,428.23 752.24,428.80 752.40,417.83 752.45,288.02 752.53,430.66 752.69,425.27 752.89,420.71 753.05,428.35 753.09,407.45 753.17,420.31 753.35,424.10 753.55,424.31 753.69,414.94 753.73,398.69 753.82,427.49 754.00,423.69 754.20,432.53 754.33,413.19 754.37,398.24 754.47,427.95 754.65,424.79 754.85,425.17 754.98,422.60 755.01,409.34 755.12,428.74 755.30,425.48 755.50,426.94 755.62,407.94 755.65,413.51 755.77,423.48 755.96,429.90 756.15,432.20 756.26,409.59 756.29,418.36 756.42,425.78 756.61,429.26 756.80,427.34 756.90,405.18 756.94,419.31 757.07,424.65 757.26,428.20 757.45,422.37 757.54,413.97 757.58,416.70 757.72,426.65 757.91,425.28 758.09,418.84 758.19,393.44 758.22,413.96 758.37,424.33 758.57,426.68 758.74,423.64 758.82,398.77 758.87,430.36 759.02,428.06 759.22,427.81 759.39,425.64 759.46,304.10 759.51,424.37 759.67,430.62 759.87,419.74 760.04,423.56 760.10,370.88 760.16,427.51 760.32,425.30 760.52,420.87 760.68,421.04 760.74,351.69 760.81,421.10 760.97,430.87 761.17,418.93 761.33,409.54 761.38,398.38 761.45,420.79 761.63,426.56 761.83,423.29 761.97,419.97 762.02,395.14 762.10,431.56 762.28,421.77 762.48,423.64 762.62,420.53 762.66,402.23 762.75,421.98 762.93,426.55 763.13,425.96 763.26,419.28 763.30,401.81 763.40,425.48 763.58,423.60 763.78,428.98 763.90,409.19 763.94,403.93 764.05,423.91 764.24,420.29 764.43,428.93 764.55,421.31 764.58,415.66 764.70,424.18 764.89,428.33 765.08,424.35 765.19,405.04 765.22,415.79 765.35,420.70 765.54,418.22 765.73,426.11 765.83,417.41 765.86,417.06 766.00,421.96 766.19,429.20 766.38,423.30 766.47,412.68 766.51,417.42 766.65,425.72 766.85,428.12 767.02,424.32 767.11,400.07 767.15,420.95 767.30,428.21 767.50,425.81 767.67,423.99 767.75,393.25 767.80,427.62 767.95,425.16 768.15,426.38 768.32,429.95 768.39,329.29 768.44,420.96 768.60,425.86 768.80,427.39 768.97,422.57 769.02,210.46 769.09,427.27 769.25,426.95 769.45,429.97 769.61,428.02 769.66,339.02 769.74,425.69 769.91,426.66 770.11,425.67 770.26,422.11 770.30,364.43 770.38,426.36 770.56,422.00 770.76,428.06 770.90,420.08 770.94,408.03 771.03,423.34 771.21,428.59 771.41,427.23 771.54,420.75 771.58,400.76 771.68,425.66 771.86,425.19 772.06,426.28 772.19,418.57 772.22,422.84 772.33,420.51 772.52,426.49 772.71,426.41 772.83,425.16 772.86,420.25 772.98,424.72 773.17,431.49 773.36,422.99 773.47,421.23 773.50,409.91 773.63,431.54 773.82,425.07 774.01,424.79 774.11,413.14 774.15,413.31 774.28,424.25 774.47,426.16 774.66,424.48 774.75,379.12 774.79,410.80 774.93,427.36 775.13,427.98 775.31,415.91 775.39,396.81 775.43,420.98 775.58,422.46 775.78,421.64 775.95,422.11 776.03,364.52 776.08,419.80 776.23,424.75 776.43,426.96 776.60,428.90 776.67,272.04 776.73,417.39 776.88,427.65 777.08,418.45 777.25,429.80 777.31,305.27 777.37,424.51 777.54,426.38 777.73,425.21 777.89,422.19 777.95,234.66 778.02,425.20 778.19,425.20 778.39,424.45 778.54,420.85 778.59,301.40 778.67,424.94 778.84,425.57 779.04,423.26 779.18,428.60 779.22,416.20 779.31,422.35 779.49,421.26 779.69,422.18 779.83,425.06 779.86,422.59 779.96,427.83 780.14,423.98 780.34,424.36 780.47,414.53 780.51,404.81 780.61,425.24 780.80,423.08 780.99,428.57 781.12,411.59 781.15,397.52 781.26,420.87 781.45,426.71 781.64,430.98 781.76,406.63 781.79,414.48 781.91,424.66 782.10,423.98 782.29,421.91 782.40,409.41 782.43,417.28 782.56,420.06 782.75,426.33 782.94,427.63 783.04,387.02 783.07,426.43 783.21,424.35 783.41,426.26 783.59,427.98 783.68,403.09 783.72,426.81 783.86,422.14 784.06,427.88 784.24,420.87 784.32,363.40 784.36,425.90 784.51,426.85 784.71,426.68 784.88,423.27 784.96,380.75 785.01,427.68 785.16,430.78 785.36,422.23 785.53,418.22 785.60,343.26 785.65,418.29 785.82,427.40 786.02,428.82 786.18,429.83 786.23,331.81 786.30,425.46 786.47,425.58 786.67,423.22 786.82,416.90 786.87,277.68 786.95,429.04 787.12,428.63 787.32,427.76 787.47,420.03 787.51,405.29 787.59,424.72 787.77,430.01 787.97,425.98 788.11,419.70 788.15,390.27 788.24,427.00 788.42,428.36 788.62,421.15 788.76,421.25 788.79,423.23 788.89,431.11 789.08,424.98 789.27,427.55 789.40,418.63 789.43,419.42 789.54,422.88 789.73,425.01 789.92,429.65 790.04,412.63 790.07,419.35 790.19,424.89 790.38,426.50 790.57,424.49 790.68,407.73 790.71,423.12 790.84,422.77 791.03,419.56 791.22,431.14 791.32,404.41 791.36,418.98 791.49,426.93 791.69,425.70 791.87,426.49 791.96,398.37 792.00,422.33 792.14,426.73 792.34,419.23 792.52,423.60 792.60,411.03 792.65,413.25 792.79,425.01 792.99,425.89 793.16,429.75 793.24,382.49 793.29,413.62 793.44,425.39 793.64,426.92 793.81,422.59 793.88,304.01 793.94,420.55 794.10,425.61 794.30,431.68 794.46,427.58 794.52,314.87 794.58,422.28 794.75,423.10 794.95,429.04 795.10,420.97 795.16,249.43 795.23,421.00 795.40,424.58 795.60,430.25 795.75,425.21 795.80,383.48 795.88,428.93 796.05,427.52 796.25,426.23 796.39,419.02 796.43,396.74 796.52,419.77 796.70,429.51 796.90,428.16 797.04,416.02 797.07,419.69 797.17,428.08 797.36,426.59 797.55,425.71 797.68,419.90 797.71,427.59 797.82,426.45 798.01,429.17 798.20,429.01 798.32,425.41 798.36,399.11 798.47,422.72 798.66,426.84 798.85,430.72 798.97,414.02 799.00,413.93 799.12,425.00 799.31,426.50 799.50,427.77 799.61,405.26 799.64,409.22 799.77,422.48 799.97,426.46 800.15,420.42 800.25,395.39 800.28,427.45 800.42,431.21 800.62,427.25 800.80,422.61 800.89,399.32 800.93,418.71 801.07,423.95 801.27,422.36 801.45,421.95 801.53,379.66 801.57,417.84 801.72,428.39 801.92,422.80 802.09,418.96 802.17,183.90 802.22,420.40 802.38,424.13 802.58,421.67 802.74,429.93 802.80,250.71 802.86,426.88 803.03,427.05 803.23,425.39 803.39,425.69 803.44,296.29 803.51,428.52 803.68,422.34 803.88,430.20 804.03,423.68 804.08,330.11 804.16,426.93 804.33,425.50 804.53,423.86 804.68,422.76 804.72,390.30 804.81,426.58 804.98,423.91 805.18,430.76 805.32,426.15 805.36,396.42 805.45,418.49 805.64,423.76 805.83,427.91 805.97,425.54 806.00,406.50 806.10,427.80 806.29,420.24 806.48,422.89 806.61,413.23 806.64,423.13 806.75,427.30 806.94,421.30 807.13,429.30 807.25,420.68 807.28,424.20 807.40,427.69 807.59,424.55 807.78,430.19 807.89,410.02 807.92,412.82 808.05,424.62 808.25,425.63 808.43,427.09 808.53,404.42 808.57,417.83 808.70,422.99 808.90,423.28 809.08,428.32 809.17,403.94 809.21,422.52 809.35,426.29 809.55,425.95 809.73,426.53 809.81,397.67 809.86,419.86 810.00,420.92 810.20,430.00 810.38,423.36 810.45,318.32 810.50,422.96 810.66,428.01 810.86,425.56 811.02,424.73 811.09,194.51 811.15,418.26 811.31,427.51 811.51,427.66 811.67,424.14 811.73,269.37 811.79,428.48 811.96,429.30 812.16,432.51 812.32,423.46 812.37,356.10 812.44,421.02 812.61,430.96 812.81,424.22 812.96,430.87 813.00,413.85 813.09,420.24 813.26,429.18 813.46,429.67 813.61,422.23 813.64,400.22 813.74,417.71 813.92,427.40 814.11,424.20 814.25,415.83 814.28,390.41 814.38,427.43 814.57,428.41 814.76,422.64 814.89,425.81 814.92,426.68 815.03,424.28 815.22,426.81 815.41,423.87 815.54,416.30 815.57,405.63 815.68,425.30 815.87,424.62 816.06,427.53 816.18,417.22 816.21,402.39 816.33,430.87 816.53,426.46 816.71,421.46 816.82,396.07 816.85,420.95 816.98,429.02 817.18,427.16 817.36,422.72 817.46,386.02 817.50,422.12 817.63,425.39 817.83,424.80 818.01,425.27 818.10,398.37 818.14,419.65 818.28,423.65 818.48,426.80 818.66,424.46 818.74,297.97 818.78,426.32 818.94,428.58 819.14,426.59 819.31,424.13 819.38,276.37 819.43,429.92 819.59,427.90 819.79,423.41 819.95,427.96 820.01,356.71 820.08,425.33 820.24,423.04 820.44,424.62 820.60,414.82 820.65,265.08 820.72,431.47 820.89,424.34 821.09,425.31 821.24,422.06 821.29,332.88 821.37,421.53 821.54,421.34 821.74,427.24 821.89,427.21 821.93,412.97 822.02,426.27 822.20,426.15 822.39,428.01 822.53,416.80 822.57,381.42 822.67,421.73 822.85,431.84 823.04,429.48 823.18,431.29 823.21,403.23 823.31,424.24 823.50,427.33 823.70,428.11 823.82,424.92 823.85,413.57 823.96,416.09 824.15,430.31 824.35,426.50 824.46,416.24 824.49,418.80 824.61,429.02 824.81,423.91 824.99,428.39 825.10,415.71 825.14,419.45 825.26,427.24 825.46,432.81 825.64,430.22 825.74,422.21 825.78,415.57 825.91,420.86 826.11,430.84 826.29,424.18 826.38,377.71 826.42,419.26 826.57,424.92 826.76,431.43 826.94,424.82 827.02,379.36 827.07,422.80 827.22,421.66 827.42,426.29 827.59,425.61 827.66,306.58 827.71,428.16 827.87,430.42 828.07,431.53 828.23,423.77 828.30,330.87 828.36,427.91 828.52,429.31 828.72,429.09 828.88,430.19 828.94,222.34 829.00,419.27 829.17,428.47 829.37,423.60 829.53,415.59 829.58,284.32 829.65,423.39 829.82,429.44 830.02,432.49 830.17,426.56 830.21,412.70 830.30,426.50 830.48,426.38 830.67,427.61 830.82,416.01 830.85,385.44 830.95,427.70 831.13,428.86 831.33,421.61 831.46,419.40 831.49,408.76 831.60,424.36 831.78,425.36 831.98,429.06 832.10,422.18 832.13,404.07 832.25,421.42 832.43,417.31 832.63,430.08 832.75,423.47 832.78,399.48 832.90,426.76 833.09,422.89 833.28,424.08 833.39,412.51 833.42,425.13 833.54,429.93 833.74,421.34 833.92,420.68 834.03,398.78 834.06,420.41 834.19,431.60 834.39,428.42 834.57,427.63 834.67,406.68 834.71,416.18 834.85,431.72 835.04,426.40 835.22,422.88 835.31,392.20 835.35,419.60 835.50,422.71 835.70,423.36 835.87,426.44 835.95,323.43 835.99,420.20 836.15,425.54 836.35,427.87 836.52,428.12 836.59,261.76 836.64,420.45 836.80,424.20 837.00,426.22 837.16,419.32 837.22,219.34 837.29,424.56 837.45,424.82 837.65,425.80 837.81,424.72 837.86,367.71 837.93,424.49 838.10,425.81 838.30,430.37 838.45,423.70 838.50,401.34 838.58,421.90 838.76,425.43 838.96,428.62 839.10,423.63 839.14,405.73 839.23,425.27 839.41,426.62 839.61,428.56 839.74,415.12 839.78,396.42 839.88,420.38 840.06,429.76 840.26,425.02 840.39,414.07 840.42,410.37 840.53,426.33 840.71,429.38 840.91,430.38 841.03,415.95 841.06,412.03 841.18,422.65 841.37,424.16 841.56,428.49 841.67,415.48 841.70,414.83 841.83,430.55 842.02,424.94 842.21,425.31 842.31,420.53 842.35,420.25 842.48,430.64 842.67,426.31 842.86,428.44 842.95,420.79 842.99,416.58 843.13,429.78 843.32,426.66 843.50,429.23 843.59,413.05 843.63,419.80 843.78,428.82 843.98,426.59 844.15,427.56 844.23,366.79 844.28,426.31 844.43,429.65 844.63,425.62 844.80,429.92 844.87,293.55 844.92,420.53 845.08,422.31 845.28,427.63 845.45,423.58 845.51,226.13 845.57,421.13 845.73,429.52 845.93,426.59 846.09,418.04 846.15,191.48 846.22,424.15 846.38,428.38 846.58,423.90 846.74,413.51 846.78,345.13 846.86,422.28 847.04,422.65 847.24,425.36 847.38,432.52 847.42,395.82 847.51,423.35 847.69,421.90 847.89,426.12 848.03,414.90 848.06,408.33 848.16,427.74 848.34,426.41 848.54,420.53 848.67,416.88 848.70,416.57 848.81,422.67 848.99,421.73 849.19,428.78 849.31,416.17 849.34,423.25 849.46,422.08 849.65,421.23 849.84,422.83 849.96,420.52 849.99,415.57 850.11,423.32 850.30,428.42 850.49,422.30 850.60,423.72 850.63,422.88 850.76,424.21 850.95,422.73 851.14,426.83 851.24,397.97 851.27,417.48 851.41,426.96 851.60,428.54 851.79,421.40 851.88,401.35 851.92,417.90 852.06,430.86 852.26,429.18 852.43,423.09 852.52,403.58 852.56,420.52 852.71,423.48 852.91,431.79 853.08,421.66 853.16,253.23 853.21,424.26 853.36,431.83 853.56,425.69 853.73,424.54 853.79,331.62 853.85,420.08 854.01,426.69 854.21,424.32 854.37,424.75 854.43,344.34 854.50,417.15 854.66,427.31 854.86,427.08 855.02,424.27 855.07,329.07 855.14,420.14 855.32,429.20 855.52,425.87 855.66,425.06 855.71,400.87 855.79,422.69 855.97,423.54 856.17,427.60 856.31,414.20 856.35,397.26 856.44,428.52 856.62,423.84 856.82,423.69 856.95,426.70 856.99,396.40 857.09,424.63 857.27,428.61 857.47,426.05 857.60,422.54 857.63,407.79 857.74,430.24 857.93,428.86 858.12,422.59 858.24,423.56 858.27,420.33 858.39,427.52 858.58,426.48 858.77,427.65 858.88,400.76 858.91,422.32 859.04,426.37 859.23,424.30 859.42,427.94 859.52,419.71 859.56,425.98 859.69,424.91 859.88,418.85 860.07,425.01 860.16,393.93 860.20,422.31 860.34,428.28 860.54,426.87 860.71,429.61 860.80,401.42 860.84,420.28 860.99,425.94 861.19,427.79 861.36,424.48 861.44,350.19 861.49,423.80 861.64,425.52 861.84,424.56 862.01,431.21 862.08,244.50 862.13,421.23 862.29,429.10 862.49,428.23 862.66,428.29 862.72,206.85 862.78,423.25 862.94,424.32 863.14,429.04 863.30,425.79 863.36,258.18 863.43,424.58 863.60,422.95 863.80,431.36 863.95,423.74 863.99,349.45 864.07,426.93 864.25,423.71 864.45,429.22 864.59,431.28 864.63,407.80 864.72,421.47 864.90,422.86 865.10,428.74 865.24,418.01 865.27,410.03 865.37,428.12 865.55,428.41 865.75,421.34 865.88,429.23 865.91,420.41 866.02,423.63 866.21,426.07 866.40,429.74 866.52,423.81 866.55,411.45 866.67,426.15 866.86,426.89 867.05,421.55 867.17,413.02 867.20,416.78 867.32,426.72 867.51,431.21 867.70,429.71 867.81,410.31 867.84,420.12 867.97,427.86 868.16,429.41 868.35,427.38 868.45,404.00 868.48,415.12 868.62,427.53 868.82,429.43 869.00,421.91 869.09,415.54 869.13,416.13 869.27,427.23 869.47,425.05 869.64,422.14 869.73,388.78 869.77,429.82 869.92,425.78 870.12,426.31 870.29,426.12 870.37,286.83 870.42,428.73 870.57,426.98 870.77,423.66 870.94,421.17 871.00,282.09 871.06,428.80 871.22,426.05 871.42,426.54 871.59,430.08 871.64,318.77 871.71,426.53 871.88,426.81 872.08,424.48 872.23,429.14 872.28,345.41 872.36,419.95 872.53,428.73 872.73,426.98 872.88,419.15 872.92,414.83 873.00,425.96 873.18,420.13 873.38,427.20 873.52,415.68 873.56,394.06 873.65,425.93 873.83,426.63 874.03,423.70 874.16,425.70 874.20,400.69 874.30,427.28 874.49,424.59 874.68,429.53 874.81,413.16 874.84,412.51 874.95,420.40 875.14,428.67 875.33,426.46 875.45,412.44 875.48,416.85 875.60,427.57 875.79,422.87 875.98,421.43 876.09,415.74 876.12,416.06 876.25,426.86 876.44,423.55 876.63,424.75 876.73,405.91 876.77,421.47 876.90,423.66 877.10,427.88 877.28,418.23 877.37,390.10 877.41,423.80 877.55,428.89 877.75,427.84 877.93,420.47 878.01,390.17 878.05,429.97 878.20,429.58 878.40,427.83 878.57,423.50 878.65,342.33 878.70,416.91 878.85,428.12 879.05,425.13 879.22,424.16 879.29,218.46 879.35,419.97 879.51,424.53 879.71,424.90 879.87,427.66 879.93,299.62 879.99,420.47 880.16,432.65 880.36,428.49 880.51,423.82 880.56,313.19 880.64,418.71 880.81,427.99 881.01,428.54 881.16,417.68 881.20,340.19 881.29,430.94 881.46,428.79 881.66,424.12 881.80,419.46 881.84,367.73 881.93,423.79 882.11,429.17 882.31,430.17 882.45,408.12 882.48,390.20 882.58,424.84 882.77,431.30 882.96,426.80 883.09,420.54 883.12,413.30 883.23,429.59 883.42,431.41 883.61,424.98 883.73,425.35 883.76,414.33 883.88,423.15 884.07,428.65 884.26,422.79 884.38,417.40 884.41,421.39 884.53,424.80 884.72,429.62 884.91,428.30 885.02,399.32 885.05,424.22 885.18,427.37 885.38,423.40 885.56,417.65 885.66,390.36 885.69,415.04 885.83,430.51 886.03,427.54 886.21,421.10 886.30,395.78 886.34,429.03 886.48,424.94 886.68,420.18 886.86,428.95 886.94,311.32 886.98,414.03 887.13,430.77 887.33,423.20 887.50,422.16 887.57,324.13 887.61,419.74 887.72,423.73 887.85,430.15 887.96,425.10 888.00,425.85" fill="none" stroke="#000" stroke-width="1.5" opacity="0.9"/>
<text x="500.0" y="502" font-family="Times New Roman" font-size="19" text-anchor="middle">Julian Date</text>
<text transform="translate(18,247.0) rotate(-90)" font-family="Times New Roman" font-size="19" text-anchor="middle">velocity residual (mm/s)</text>
</svg>
