<svg xmlns="http://www.w3.org/2000/svg" width="920" height="520" viewBox="0 0 920 520">
<rect width="100%" height="100%" fill="white"/>
<text x="460.0" y="24" font-family="Times New Roman" font-size="24" text-anchor="middle">Sun native position residual</text>
<line x1="112" y1="434" x2="888" y2="434" stroke="#333"/>
<line x1="112" y1="60" x2="112" y2="434" stroke="#333"/>
<line x1="112" y1="434.00" x2="888" y2="434.00" stroke="#ddd"/>
<text x="104" y="438.00" font-family="Times New Roman" font-size="17" text-anchor="end">0</text>
<line x1="112" y1="340.50" x2="888" y2="340.50" stroke="#ddd"/>
<text x="104" y="344.50" font-family="Times New Roman" font-size="17" text-anchor="end">0.01365</text>
<line x1="112" y1="247.00" x2="888" y2="247.00" stroke="#ddd"/>
<text x="104" y="251.00" font-family="Times New Roman" font-size="17" text-anchor="end">0.02731</text>
<line x1="112" y1="153.50" x2="888" y2="153.50" stroke="#ddd"/>
<text x="104" y="157.50" font-family="Times New Roman" font-size="17" text-anchor="end">0.04096</text>
<line x1="112" y1="60.00" x2="888" y2="60.00" stroke="#ddd"/>
<text x="104" y="64.00" font-family="Times New Roman" font-size="17" text-anchor="end">0.05462</text>
<line x1="112.00" y1="434" x2="112.00" y2="439" stroke="#333"/>
<text x="112.00" y="456" font-family="Times New Roman" font-size="17" text-anchor="middle">2378495</text>
<line x1="306.00" y1="434" x2="306.00" y2="439" stroke="#333"/>
<text x="306.00" y="456" font-family="Times New Roman" font-size="17" text-anchor="middle">2433282</text>
<line x1="500.00" y1="434" x2="500.00" y2="439" stroke="#333"/>
<text x="500.00" y="456" font-family="Times New Roman" font-size="17" text-anchor="middle">2488070</text>
<line x1="694.00" y1="434" x2="694.00" y2="439" stroke="#333"/>
<text x="694.00" y="456" font-family="Times New Roman" font-size="17" text-anchor="middle">2542858</text>
<line x1="888.00" y1="434" x2="888.00" y2="439" stroke="#333"/>
<text x="888.00" y="456" font-family="Times New Roman" font-size="17" text-anchor="middle">2597645</text>
<polyline points="112.00,310.39 112.05,272.35 112.19,286.40 112.36,255.97 112.49,328.19 112.53,364.62 112.60,399.16 112.77,351.59 112.97,288.31 113.12,301.77 113.17,310.41 113.25,231.80 113.42,296.83 113.62,268.67 113.77,211.36 113.81,247.27 113.90,247.17 114.08,270.51 114.27,262.84 114.41,281.91 114.45,298.43 114.55,337.73 114.73,300.05 114.92,329.49 115.06,325.18 115.09,299.45 115.19,202.72 115.38,252.85 115.58,361.62 115.70,254.91 115.73,204.96 115.84,295.52 116.03,277.03 116.23,351.41 116.34,308.28 116.37,342.76 116.49,286.98 116.69,222.06 116.88,324.51 116.98,229.39 117.02,328.54 117.15,338.96 117.34,311.26 117.52,298.51 117.62,320.76 117.66,323.18 117.80,268.36 117.99,310.12 118.17,345.54 118.26,254.73 118.30,287.86 118.45,271.40 118.65,276.46 118.82,345.40 118.90,274.59 118.95,321.14 119.10,325.52 119.30,347.65 119.47,354.89 119.54,270.98 119.59,307.53 119.75,304.65 119.95,362.58 120.12,296.67 120.18,193.11 120.24,274.87 120.40,301.54 120.60,271.53 120.76,275.25 120.82,262.94 120.89,278.94 121.05,265.76 121.25,273.30 121.41,274.00 121.46,281.63 121.53,263.89 121.70,320.73 121.90,264.12 122.05,322.05 122.09,330.87 122.18,329.89 122.36,331.95 122.55,278.83 122.70,304.42 122.73,296.06 122.83,251.03 123.01,323.95 123.21,337.06 123.34,307.11 123.37,335.23 123.48,256.88 123.66,269.78 123.86,238.72 123.98,263.99 124.02,254.21 124.13,242.39 124.31,329.87 124.51,304.87 124.63,383.07 124.66,386.18 124.78,316.16 124.97,236.91 125.16,279.43 125.27,267.85 125.30,301.17 125.43,390.88 125.62,328.54 125.80,387.46 125.91,351.75 125.94,246.06 126.08,279.00 126.27,225.05 126.45,252.80 126.55,223.51 126.59,290.07 126.73,334.84 126.93,289.85 127.10,327.57 127.19,262.50 127.23,296.01 127.38,372.98 127.58,324.15 127.75,320.41 127.83,307.86 127.88,331.13 128.03,307.72 128.23,290.77 128.40,253.82 128.47,348.05 128.52,368.19 128.68,268.61 128.88,155.06 129.04,257.75 129.10,335.61 129.17,286.03 129.33,298.96 129.53,229.31 129.69,252.69 129.74,353.25 129.81,272.67 129.98,276.24 130.19,251.25 130.33,341.11 130.38,259.95 130.46,372.97 130.64,270.65 130.84,268.58 130.98,345.73 131.02,321.35 131.11,332.20 131.29,276.23 131.49,362.73 131.62,296.93 131.66,387.90 131.76,260.43 131.94,289.61 132.14,244.41 132.27,306.06 132.30,321.11 132.41,235.43 132.59,243.16 132.79,290.75 132.91,326.40 132.94,269.61 133.06,282.59 133.25,339.63 133.44,274.70 133.55,319.21 133.58,259.06 133.71,343.21 133.90,252.92 134.09,279.40 134.19,259.07 134.23,376.14 134.36,301.82 134.55,346.17 134.74,243.19 134.83,217.43 134.87,384.66 135.01,334.28 135.21,274.27 135.38,353.66 135.47,267.00 135.51,305.34 135.66,276.09 135.86,229.66 136.03,258.46 136.11,343.27 136.16,267.77 136.31,272.33 136.51,368.05 136.68,297.18 136.75,282.87 136.80,334.65 136.96,238.47 137.16,300.30 137.33,388.58 137.39,183.12 137.45,372.33 137.61,411.76 137.81,319.48 137.97,284.73 138.03,352.20 138.10,353.92 138.26,323.54 138.47,239.19 138.62,271.77 138.66,391.18 138.74,380.49 138.92,272.77 139.12,269.33 139.26,371.23 139.30,269.63 139.39,301.46 139.57,319.60 139.77,318.22 139.91,280.85 139.94,274.94 140.04,256.53 140.22,258.59 140.42,253.27 140.55,336.85 140.58,325.23 140.69,274.38 140.87,240.49 141.07,311.82 141.19,376.70 141.23,330.05 141.34,279.09 141.53,278.44 141.72,285.33 141.84,397.18 141.87,249.20 141.99,269.45 142.18,244.30 142.37,291.39 142.48,318.40 142.51,257.07 142.64,249.53 142.83,262.23 143.02,301.48 143.12,305.99 143.15,381.54 143.29,344.87 143.49,228.74 143.67,282.82 143.76,255.89 143.80,326.01 143.94,271.28 144.14,306.92 144.31,280.59 144.40,285.53 144.44,281.22 144.59,310.61 144.79,251.58 144.96,165.72 145.04,280.23 145.09,246.90 145.24,343.82 145.44,305.72 145.61,263.00 145.67,336.62 145.73,247.27 145.89,335.67 146.09,247.01 146.25,362.80 146.31,248.85 146.38,240.96 146.54,303.74 146.75,244.75 146.90,316.77 146.95,318.07 147.03,250.95 147.20,327.49 147.40,332.02 147.55,241.36 147.59,306.89 147.67,307.72 147.85,280.19 148.05,318.42 148.19,357.17 148.23,293.61 148.32,358.45 148.50,299.96 148.70,359.14 148.83,267.51 148.87,324.71 148.97,318.49 149.15,234.77 149.35,373.16 149.48,332.87 149.51,252.89 149.62,237.78 149.81,347.54 150.00,332.12 150.12,325.91 150.15,292.54 150.27,221.73 150.46,253.31 150.65,304.62 150.76,270.78 150.79,355.72 150.92,278.82 151.11,232.79 151.30,204.85 151.40,366.71 151.44,256.57 151.57,348.99 151.77,267.54 151.95,302.69 152.04,302.27 152.08,247.99 152.22,319.35 152.42,296.18 152.60,324.02 152.68,359.06 152.72,215.61 152.87,347.15 153.07,279.00 153.24,305.48 153.32,317.44 153.37,266.96 153.52,337.31 153.72,284.55 153.89,342.67 153.96,310.20 154.01,300.22 154.17,379.23 154.37,338.53 154.54,312.68 154.60,187.09 154.66,248.16 154.82,299.81 155.03,254.70 155.18,313.73 155.24,315.94 155.31,272.21 155.48,299.27 155.68,313.64 155.83,257.15 155.87,242.52 155.95,336.17 156.13,320.84 156.33,285.23 156.47,347.14 156.51,305.68 156.60,221.41 156.78,361.34 156.98,323.80 157.12,219.26 157.15,376.29 157.25,279.54 157.43,309.54 157.63,285.52 157.76,221.72 157.79,321.13 157.90,236.86 158.09,221.19 158.28,301.58 158.40,339.93 158.43,266.03 158.55,276.95 158.74,236.10 158.93,265.42 159.05,287.66 159.08,338.39 159.20,289.07 159.39,258.43 159.58,339.80 159.69,355.59 159.72,265.77 159.85,351.29 160.05,391.22 160.23,257.56 160.33,339.10 160.36,267.42 160.50,279.51 160.70,297.84 160.88,287.63 160.97,332.80 161.01,363.29 161.15,270.18 161.35,319.81 161.53,284.37 161.61,384.01 161.65,307.93 161.80,404.29 162.00,298.80 162.17,259.62 162.25,360.94 162.30,223.84 162.45,283.35 162.65,301.90 162.82,350.49 162.88,233.37 162.94,260.91 163.11,367.89 163.31,273.44 163.47,260.73 163.52,333.95 163.59,244.97 163.76,321.67 163.96,312.46 164.11,249.43 164.16,297.48 164.24,333.20 164.41,371.97 164.61,332.96 164.76,284.25 164.80,246.09 164.88,252.15 165.06,301.23 165.26,395.25 165.40,296.55 165.44,315.65 165.53,321.43 165.71,286.40 165.91,259.42 166.04,233.20 166.08,291.91 166.18,271.39 166.37,281.25 166.56,303.74 166.69,243.30 166.72,293.58 166.83,370.22 167.02,377.32 167.21,383.79 167.33,291.14 167.36,327.15 167.48,269.11 167.67,354.81 167.86,305.29 167.97,284.30 168.00,315.48 168.13,247.78 168.33,280.50 168.51,220.14 168.61,374.32 168.65,351.17 168.78,368.63 168.98,262.42 169.16,356.43 169.25,278.04 169.29,287.70 169.43,241.87 169.63,320.90 169.81,200.05 169.89,282.27 169.93,246.66 170.08,308.03 170.28,341.12 170.45,252.22 170.53,302.46 170.58,329.37 170.73,214.33 170.93,263.81 171.10,209.19 171.17,220.07 171.23,226.70 171.39,264.48 171.59,315.80 171.75,333.38 171.81,268.58 171.87,271.10 172.04,352.47 172.24,258.73 172.39,359.75 172.44,279.09 172.52,328.99 172.69,254.35 172.89,393.99 173.04,396.38 173.08,234.06 173.17,337.86 173.34,283.78 173.54,356.19 173.68,224.97 173.72,271.48 173.81,313.02 173.99,287.69 174.19,224.29 174.33,240.72 174.36,240.77 174.46,282.76 174.65,363.40 174.84,255.86 174.97,341.97 175.00,348.77 175.11,243.08 175.30,303.45 175.49,313.06 175.61,238.86 175.64,268.57 175.76,298.84 175.95,332.03 176.14,285.94 176.26,247.37 176.29,317.48 176.41,352.86 176.61,251.10 176.79,237.45 176.90,268.66 176.93,232.34 177.06,375.54 177.26,222.08 177.44,358.83 177.54,336.80 177.57,289.22 177.71,283.29 177.91,254.37 178.09,278.64 178.18,311.73 178.22,266.66 178.36,236.79 178.56,357.13 178.74,266.08 178.82,278.24 178.86,289.47 179.01,360.79 179.21,251.62 179.38,358.35 179.45,244.53 179.51,276.82 179.67,239.65 179.87,292.90 180.03,349.72 180.09,345.20 180.15,340.83 180.32,272.45 180.52,240.52 180.68,367.36 180.73,268.12 180.80,304.60 180.97,294.98 181.17,228.20 181.32,289.19 181.37,288.10 181.45,292.94 181.62,281.95 181.82,276.99 181.97,368.86 182.01,275.32 182.10,284.17 182.27,235.71 182.47,353.36 182.61,288.05 182.65,355.84 182.74,298.24 182.93,344.46 183.12,236.57 183.25,295.29 183.29,258.68 183.39,346.29 183.58,244.31 183.77,318.43 183.90,290.63 183.93,368.76 184.04,351.13 184.23,250.22 184.42,271.44 184.54,274.82 184.57,270.87 184.69,313.15 184.89,271.85 185.07,197.86 185.18,387.23 185.21,273.17 185.34,361.98 185.54,303.47 185.72,221.90 185.82,332.48 185.86,314.83 185.99,218.98 186.19,226.84 186.37,349.26 186.46,318.21 186.50,240.56 186.64,227.57 186.84,324.15 187.02,280.35 187.10,242.38 187.15,343.04 187.29,353.66 187.49,324.67 187.67,278.25 187.74,349.22 187.79,338.11 187.95,279.72 188.15,213.63 188.31,283.47 188.38,340.68 188.44,333.60 188.60,216.33 188.80,248.01 188.96,268.82 189.02,291.68 189.08,231.21 189.25,322.14 189.45,349.28 189.61,214.43 189.65,314.03 189.73,268.22 189.90,391.02 190.10,313.12 190.25,297.36 190.29,378.76 190.38,335.58 190.55,227.21 190.75,282.07 190.89,266.43 190.93,283.84 191.03,309.18 191.21,285.25 191.40,305.00 191.54,273.23 191.57,284.62 191.68,225.72 191.86,260.94 192.05,280.51 192.18,282.16 192.21,217.68 192.32,341.11 192.51,341.15 192.70,348.37 192.82,261.04 192.86,302.89 192.97,387.46 193.17,330.64 193.35,291.29 193.47,300.60 193.50,375.21 193.62,323.63 193.82,270.14 194.00,332.07 194.11,271.13 194.14,223.18 194.27,327.20 194.47,371.07 194.65,310.10 194.75,341.23 194.78,251.26 194.92,315.10 195.12,280.27 195.30,251.09 195.39,295.68 195.43,302.35 195.57,307.93 195.78,280.25 195.95,261.85 196.03,313.33 196.07,341.91 196.23,352.18 196.43,259.21 196.59,290.32 196.66,331.70 196.72,278.16 196.88,384.82 197.08,265.43 197.24,253.09 197.30,212.47 197.36,262.51 197.53,355.20 197.73,287.77 197.89,347.32 197.94,291.72 198.01,269.21 198.18,271.38 198.38,304.84 198.53,384.65 198.58,311.24 198.66,379.98 198.83,334.55 199.03,297.97 199.18,212.06 199.22,269.57 199.31,334.03 199.49,335.45 199.69,341.69 199.82,274.42 199.86,339.38 199.96,250.88 200.14,336.80 200.33,347.00 200.47,304.67 200.50,298.51 200.60,337.79 200.79,297.49 200.98,172.88 201.11,273.74 201.14,253.78 201.25,248.83 201.45,403.25 201.64,303.03 201.75,303.85 201.78,382.04 201.90,284.31 202.10,283.57 202.28,346.03 202.39,362.14 202.42,332.06 202.55,308.29 202.75,283.32 202.93,349.71 203.03,337.25 203.07,295.97 203.21,300.14 203.40,287.18 203.58,281.69 203.67,294.15 203.71,364.77 203.86,279.36 204.06,308.66 204.23,247.61 204.31,338.69 204.36,256.32 204.51,329.66 204.71,342.00 204.88,364.27 204.95,253.29 205.00,287.72 205.16,281.07 205.36,397.31 205.52,268.45 205.59,249.37 205.65,349.93 205.81,245.80 206.01,368.02 206.17,277.67 206.22,289.41 206.29,253.05 206.46,309.22 206.66,298.34 206.82,316.34 206.86,367.96 206.94,255.25 207.11,320.34 207.31,288.64 207.46,356.08 207.50,387.74 207.59,327.29 207.77,294.33 207.97,383.91 208.11,349.57 208.14,298.91 208.24,299.72 208.42,317.28 208.62,283.90 208.75,297.57 208.78,261.21 208.89,304.05 209.07,292.93 209.27,300.71 209.39,222.62 209.42,299.47 209.54,334.30 209.73,227.32 209.92,363.24 210.03,296.36 210.07,294.68 210.18,249.07 210.38,296.23 210.57,358.15 210.68,266.34 210.71,264.94 210.84,282.41 211.03,341.80 211.22,278.02 211.32,243.07 211.35,167.28 211.49,266.88 211.68,349.79 211.86,255.08 211.96,314.65 211.99,319.16 212.14,323.66 212.34,279.84 212.51,231.47 212.60,351.89 212.64,255.18 212.79,415.19 212.99,389.00 213.16,234.06 213.24,352.72 213.28,267.85 213.44,336.56 213.64,321.74 213.81,360.36 213.87,327.33 213.93,288.86 214.09,247.88 214.29,323.55 214.45,351.78 214.51,316.04 214.58,249.83 214.74,300.87 214.94,248.94 215.10,349.52 215.15,313.95 215.22,362.87 215.39,240.89 215.59,255.18 215.74,361.04 215.79,223.59 215.87,267.95 216.05,353.52 216.25,276.74 216.39,285.04 216.43,297.65 216.52,320.03 216.70,287.33 216.90,288.96 217.03,329.73 217.07,281.22 217.17,328.32 217.35,311.21 217.55,367.04 217.68,212.07 217.71,258.20 217.82,288.71 218.01,248.59 218.20,232.42 218.32,266.14 218.35,266.85 218.47,272.11 218.66,235.98 218.85,282.27 218.96,280.37 218.99,259.88 219.12,369.46 219.31,229.94 219.50,266.69 219.60,334.29 219.63,349.60 219.77,343.18 219.96,281.88 220.14,240.70 220.24,287.27 220.28,310.00 220.42,274.02 220.62,303.52 220.79,268.54 220.88,347.09 220.92,286.74 221.07,281.01 221.27,332.74 221.44,312.07 221.52,306.68 221.57,324.05 221.72,222.42 221.92,220.60 222.09,285.52 222.16,232.77 222.21,297.59 222.37,251.10 222.57,286.14 222.73,354.37 222.80,188.37 222.86,321.56 223.02,345.80 223.22,245.11 223.38,349.55 223.43,306.31 223.51,297.79 223.67,313.64 223.88,297.63 224.03,345.01 224.07,411.13 224.15,267.90 224.33,267.39 224.53,276.83 224.67,243.46 224.71,276.00 224.80,278.37 224.98,335.62 225.18,186.19 225.32,256.02 225.35,266.71 225.45,321.31 225.63,274.37 225.83,270.79 225.96,303.34 225.99,296.51 226.10,319.99 226.29,231.10 226.48,327.20 226.60,325.71 226.63,189.48 226.75,318.82 226.94,275.54 227.13,314.48 227.24,355.38 227.28,336.86 227.40,353.91 227.59,352.75 227.78,231.69 227.89,283.44 227.92,256.55 228.05,325.04 228.24,229.67 228.43,369.81 228.53,313.72 228.56,245.32 228.70,300.28 228.90,371.20 229.07,296.31 229.17,327.31 229.21,239.97 229.35,305.79 229.55,271.98 229.72,284.55 229.81,272.99 229.85,254.94 230.00,361.68 230.20,291.39 230.37,249.08 230.44,301.04 230.49,217.67 230.65,319.97 230.85,318.75 231.02,319.58 231.08,199.07 231.14,385.37 231.30,305.89 231.50,337.80 231.66,352.31 231.72,297.88 231.79,349.04 231.95,375.04 232.16,216.72 232.31,316.62 232.36,272.92 232.44,220.84 232.61,301.80 232.81,267.36 232.95,223.69 233.00,313.88 233.08,317.29 233.26,338.36 233.46,299.66 233.60,334.60 233.64,404.64 233.73,399.01 233.91,220.38 234.11,253.82 234.24,360.75 234.28,365.89 234.38,225.00 234.57,248.57 234.76,258.21 234.89,371.49 234.92,244.58 235.03,334.14 235.22,392.28 235.41,212.87 235.53,358.65 235.56,327.93 235.68,250.25 235.87,246.85 236.06,328.67 236.17,316.67 236.20,289.66 236.33,292.48 236.52,227.40 236.71,166.18 236.81,340.82 236.84,283.88 236.98,302.06 237.18,315.25 237.36,319.81 237.45,234.55 237.49,299.55 237.63,221.43 237.83,282.32 238.00,310.72 238.09,283.36 238.13,268.93 238.28,294.91 238.48,237.73 238.65,300.24 238.73,301.82 238.78,272.46 238.93,314.35 239.13,247.04 239.30,298.14 239.37,221.81 239.42,397.25 239.58,212.62 239.78,228.32 239.95,332.18 240.01,224.91 240.07,314.86 240.23,321.18 240.44,352.05 240.59,263.52 240.64,370.58 240.72,340.05 240.89,316.88 241.09,245.53 241.24,240.20 241.28,345.04 241.36,309.29 241.54,308.77 241.74,311.06 241.88,227.86 241.92,369.98 242.01,237.84 242.19,213.98 242.39,258.63 242.53,328.18 242.56,341.22 242.66,296.02 242.85,259.20 243.04,290.24 243.17,269.02 243.20,348.08 243.31,335.10 243.50,261.85 243.69,240.81 243.81,316.62 243.84,384.39 243.96,212.93 244.15,263.88 244.34,265.57 244.45,289.58 244.49,238.49 244.61,236.40 244.80,272.90 244.99,293.98 245.10,241.60 245.13,269.31 245.26,363.89 245.46,308.45 245.64,403.82 245.74,316.94 245.77,339.35 245.91,390.86 246.11,374.81 246.29,299.18 246.38,369.16 246.42,298.33 246.56,282.43 246.76,288.52 246.93,348.59 247.02,268.11 247.06,229.33 247.21,296.47 247.41,277.21 247.58,299.48 247.65,260.70 247.71,322.55 247.86,315.91 248.06,297.72 248.23,255.75 248.29,267.98 248.35,367.62 248.51,403.89 248.72,277.34 248.87,333.44 248.93,326.95 249.00,297.84 249.17,269.80 249.37,341.44 249.52,352.54 249.57,388.75 249.65,285.91 249.82,235.48 250.02,288.13 250.17,315.08 250.21,246.12 250.29,235.05 250.47,336.47 250.67,149.94 250.81,397.66 250.85,303.04 250.94,282.90 251.13,248.99 251.32,362.61 251.45,274.91 251.49,277.92 251.59,241.32 251.78,321.49 251.97,196.37 252.10,294.26 252.13,258.36 252.24,293.83 252.43,349.25 252.62,273.08 252.74,353.80 252.77,319.75 252.89,255.38 253.08,331.30 253.27,292.48 253.38,272.69 253.41,248.35 253.54,258.74 253.74,257.48 253.92,289.91 254.02,325.27 254.06,381.79 254.19,237.80 254.39,312.32 254.57,265.94 254.66,325.28 254.70,266.23 254.84,263.54 255.04,249.88 255.22,251.03 255.30,247.40 255.34,218.81 255.49,234.76 255.69,347.61 255.86,285.76 255.94,292.71 255.99,251.71 256.14,351.32 256.34,374.52 256.51,352.28 256.58,319.70 256.63,304.99 256.79,251.69 257.00,258.63 257.16,309.53 257.21,236.39 257.28,271.49 257.45,324.20 257.65,379.22 257.80,354.18 257.85,299.80 257.93,343.28 258.10,321.01 258.30,381.85 258.45,332.07 258.49,316.16 258.58,275.83 258.75,286.97 258.95,247.31 259.09,265.80 259.13,330.79 259.22,312.29 259.41,325.54 259.60,229.82 259.74,285.42 259.77,390.99 259.87,291.45 260.06,282.28 260.25,308.90 260.38,231.79 260.41,314.71 260.52,347.87 260.71,248.50 260.90,193.72 261.02,359.75 261.05,371.87 261.17,277.15 261.36,296.68 261.55,280.94 261.66,379.05 261.70,305.89 261.82,367.06 262.02,366.96 262.20,284.45 262.31,330.33 262.34,320.26 262.47,264.93 262.67,300.51 262.85,279.12 262.95,344.55 262.98,257.84 263.12,300.43 263.32,342.44 263.50,295.84 263.59,332.63 263.63,320.52 263.77,359.56 263.97,261.42 264.15,269.86 264.22,377.17 264.27,281.94 264.43,304.57 264.62,248.31 264.79,398.94 264.86,238.77 264.92,302.91 265.08,380.19 265.28,266.98 265.44,268.53 265.50,140.59 265.56,241.00 265.73,267.38 265.93,254.45 266.09,269.91 266.14,303.38 266.21,280.72 266.38,271.50 266.58,328.39 266.73,360.16 266.78,324.26 266.86,240.59 267.03,206.00 267.23,303.91 267.38,217.95 267.42,313.32 267.51,303.83 267.69,268.43 267.88,240.60 268.02,322.51 268.06,239.72 268.15,262.98 268.34,361.87 268.53,274.97 268.66,296.34 268.70,261.66 268.80,358.95 268.99,244.28 269.18,200.01 269.31,247.33 269.34,355.49 269.45,252.74 269.64,318.47 269.83,232.96 269.95,293.62 269.98,347.01 270.10,368.23 270.30,394.45 270.48,237.02 270.59,320.95 270.62,351.09 270.75,269.14 270.95,316.71 271.13,355.83 271.23,359.69 271.27,273.75 271.40,318.54 271.60,324.02 271.78,306.05 271.87,370.99 271.91,213.33 272.05,293.84 272.25,305.03 272.43,310.70 272.51,239.00 272.55,346.40 272.71,341.27 272.90,262.47 273.07,347.65 273.15,279.97 273.20,272.24 273.36,266.01 273.56,324.88 273.72,341.56 273.79,313.90 273.85,261.33 274.01,298.75 274.21,269.68 274.37,283.83 274.42,375.15 274.49,275.12 274.66,269.18 274.86,272.60 275.01,285.22 275.06,270.83 275.14,256.48 275.31,221.99 275.51,368.13 275.66,239.28 275.70,325.96 275.79,290.28 275.96,314.58 276.16,237.17 276.30,244.17 276.34,254.92 276.44,233.22 276.62,255.64 276.81,242.84 276.95,308.05 276.98,334.21 277.08,236.01 277.27,269.10 277.46,299.64 277.59,407.03 277.62,327.65 277.73,334.88 277.92,284.04 278.11,241.45 278.23,260.67 278.26,340.17 278.38,241.79 278.58,296.02 278.76,266.48 278.87,268.14 278.91,287.88 279.03,345.73 279.23,251.67 279.41,287.77 279.51,317.36 279.55,301.69 279.68,261.00 279.88,239.87 280.06,285.09 280.16,273.69 280.19,335.36 280.33,335.32 280.53,254.81 280.71,265.28 280.79,291.18 280.84,278.59 280.99,345.29 281.18,236.22 281.36,306.33 281.43,357.46 281.48,260.61 281.64,300.06 281.84,229.24 282.00,327.36 282.07,372.36 282.13,404.62 282.29,244.61 282.49,280.42 282.65,336.48 282.71,278.69 282.78,282.84 282.94,312.82 283.14,363.56 283.30,357.10 283.35,268.21 283.42,312.76 283.59,304.93 283.79,186.43 283.94,272.31 283.99,377.69 284.07,334.73 284.24,353.23 284.44,230.82 284.59,360.04 284.63,262.17 284.72,322.79 284.90,294.20 285.09,299.11 285.23,370.00 285.27,405.41 285.37,258.82 285.55,339.99 285.74,384.22 285.87,293.11 285.91,337.39 286.02,227.12 286.20,298.08 286.39,317.28 286.52,287.71 286.55,333.58 286.66,341.78 286.86,271.12 287.04,281.09 287.16,289.98 287.19,274.02 287.31,243.21 287.51,250.88 287.69,258.38 287.80,271.76 287.83,266.96 287.96,296.76 288.16,315.85 288.34,316.44 288.44,313.77 288.48,242.30 288.62,344.37 288.81,281.40 288.99,347.03 289.08,302.63 289.12,236.50 289.26,313.02 289.46,313.43 289.64,332.09 289.72,279.19 289.77,240.38 289.92,223.35 290.12,257.90 290.29,251.36 290.36,251.52 290.41,290.37 290.57,329.09 290.77,265.88 290.93,253.16 291.00,279.15 291.06,243.50 291.22,283.35 291.42,338.26 291.58,279.97 291.63,324.56 291.70,294.89 291.87,278.54 292.07,371.86 292.22,290.22 292.27,364.18 292.35,362.24 292.52,331.45 292.72,263.19 292.87,378.08 292.91,237.46 293.00,326.66 293.18,250.47 293.38,315.94 293.51,309.01 293.55,302.78 293.65,259.31 293.83,268.50 294.02,239.02 294.16,274.10 294.19,280.01 294.30,292.00 294.48,213.30 294.68,381.21 294.80,268.88 294.83,250.97 294.94,306.06 295.14,255.92 295.33,370.38 295.44,239.64 295.47,258.53 295.59,307.25 295.79,301.24 295.98,264.62 296.08,326.05 296.12,376.74 296.24,245.13 296.44,296.34 296.62,378.01 296.72,275.05 296.76,213.16 296.90,242.74 297.09,312.39 297.27,260.27 297.37,255.81 297.40,332.89 297.55,265.92 297.74,270.44 297.92,346.76 298.00,320.81 298.05,325.22 298.20,284.46 298.40,330.60 298.57,269.03 298.64,284.63 298.69,269.62 298.85,266.55 299.05,289.20 299.22,301.72 299.28,250.10 299.34,319.75 299.50,391.52 299.70,284.91 299.86,267.89 299.92,258.61 299.99,308.76 300.15,359.36 300.35,306.34 300.51,309.49 300.56,328.63 300.63,327.79 300.80,326.44 301.00,301.84 301.15,212.45 301.20,305.18 301.28,276.24 301.46,257.96 301.66,316.48 301.80,328.40 301.83,369.57 301.93,371.11 302.11,388.54 302.31,286.70 302.44,264.09 302.48,303.79 302.58,298.31 302.76,302.93 302.96,290.45 303.08,213.05 303.12,275.35 303.23,276.20 303.42,252.21 303.61,274.08 303.73,279.61 303.76,239.07 303.88,192.17 304.07,310.93 304.26,298.94 304.37,247.76 304.40,322.67 304.53,199.36 304.72,328.45 304.91,274.66 305.01,261.84 305.04,286.87 305.18,295.85 305.37,287.81 305.55,306.39 305.65,298.25 305.69,339.98 305.83,227.01 306.03,251.89 306.20,231.43 306.29,259.91 306.33,261.44 306.48,370.76 306.68,334.72 306.85,222.58 306.93,409.53 306.98,379.31 307.13,352.73 307.33,326.00 307.50,268.83 307.57,337.59 307.62,267.37 307.78,325.55 307.98,374.39 308.14,305.81 308.20,208.36 308.27,227.16 308.43,306.07 308.63,325.67 308.79,181.51 308.84,243.60 308.91,297.67 309.08,284.80 309.28,309.99 309.44,269.00 309.48,280.42 309.56,289.10 309.74,320.04 309.94,262.88 310.08,327.16 310.12,251.42 310.21,338.61 310.39,240.18 310.59,270.66 310.72,285.43 310.76,332.33 310.86,243.93 311.04,258.48 311.24,251.13 311.37,340.40 311.40,298.00 311.51,350.44 311.70,212.41 311.89,295.02 312.01,255.92 312.04,300.55 312.16,240.73 312.35,269.40 312.54,242.41 312.65,293.55 312.68,336.04 312.81,252.70 313.00,371.33 313.19,404.63 313.29,252.53 313.33,230.55 313.46,328.38 313.65,332.78 313.84,302.76 313.93,251.33 313.97,302.61 314.11,323.04 314.31,318.73 314.48,311.41 314.57,314.88 314.61,281.74 314.76,362.21 314.96,344.92 315.13,243.50 315.21,295.70 315.26,343.71 315.41,343.57 315.61,345.23 315.78,301.18 315.85,360.49 315.90,296.41 316.06,251.34 316.26,326.04 316.43,278.21 316.49,169.97 316.55,283.66 316.71,307.04 316.91,206.86 317.07,340.89 317.13,245.56 317.20,381.07 317.36,352.91 317.57,385.81 317.72,291.10 317.77,290.41 317.84,253.56 318.02,291.18 318.22,270.02 318.36,370.88 318.40,244.04 318.49,267.68 318.67,338.15 318.87,308.37 319.01,351.89 319.04,306.69 319.14,380.32 319.32,317.05 319.52,340.80 319.65,381.56 319.68,257.91 319.79,299.20 319.98,226.73 320.17,246.28 320.29,282.53 320.33,384.35 320.44,283.25 320.63,331.74 320.82,244.86 320.94,230.42 320.97,310.35 321.09,271.78 321.28,282.23 321.47,212.62 321.58,260.27 321.61,368.47 321.74,328.79 321.93,254.03 322.12,255.85 322.22,238.88 322.25,245.14 322.39,250.20 322.59,300.74 322.77,320.63 322.86,250.48 322.90,233.03 323.04,351.11 323.24,257.71 323.41,289.32 323.50,316.66 323.54,342.98 323.69,387.95 323.89,295.00 324.06,318.85 324.14,313.66 324.19,337.40 324.34,269.12 324.54,371.84 324.71,295.30 324.78,244.81 324.83,283.71 324.99,202.80 325.19,302.21 325.35,268.83 325.41,289.23 325.48,259.73 325.64,376.65 325.85,299.68 326.00,357.57 326.05,324.58 326.13,233.45 326.30,242.70 326.50,274.01 326.65,368.87 326.69,325.49 326.77,362.22 326.95,285.05 327.15,374.14 327.29,305.09 327.33,315.14 327.42,367.46 327.60,314.80 327.80,257.20 327.94,245.82 327.97,291.15 328.07,258.44 328.26,337.18 328.45,352.16 328.58,258.48 328.61,350.26 328.72,296.71 328.91,336.41 329.10,320.43 329.22,340.59 329.25,270.73 329.37,318.11 329.56,329.36 329.75,352.23 329.86,292.28 329.89,265.42 330.02,291.73 330.21,313.42 330.40,296.69 330.50,324.39 330.54,296.20 330.67,321.97 330.87,323.15 331.05,276.08 331.14,279.71 331.18,321.02 331.32,269.66 331.52,260.05 331.70,337.12 331.78,291.45 331.83,312.41 331.97,235.79 332.17,354.82 332.34,282.96 332.42,327.56 332.47,257.23 332.62,298.14 332.82,273.97 332.99,275.25 333.06,368.31 333.11,394.28 333.27,313.17 333.47,300.80 333.64,222.08 333.70,393.31 333.76,370.73 333.92,334.28 334.13,272.30 334.28,378.19 334.34,228.26 334.41,240.52 334.58,257.81 334.78,325.67 334.93,272.92 334.98,258.97 335.06,309.85 335.23,348.62 335.43,235.30 335.57,241.68 335.61,263.36 335.70,342.85 335.88,318.34 336.08,240.15 336.22,263.67 336.25,320.93 336.35,237.29 336.54,267.30 336.73,247.62 336.86,356.83 336.89,248.08 337.00,385.30 337.19,227.66 337.38,231.71 337.50,267.24 337.54,322.00 337.65,367.79 337.84,343.73 338.03,333.24 338.15,237.80 338.18,261.04 338.30,336.27 338.49,286.67 338.68,225.53 338.79,251.84 338.82,290.55 338.95,218.50 339.15,277.45 339.33,299.92 339.43,255.81 339.46,274.65 339.60,347.06 339.80,264.83 339.98,283.52 340.07,263.93 340.11,242.57 340.25,262.94 340.45,268.72 340.63,277.50 340.71,236.53 340.75,322.74 340.90,242.62 341.10,255.85 341.27,355.76 341.35,323.24 341.40,343.67 341.55,256.82 341.75,280.01 341.92,386.53 341.98,287.75 342.04,420.07 342.20,196.00 342.41,265.14 342.57,259.58 342.62,232.02 342.69,258.68 342.86,341.72 343.06,326.91 343.21,390.89 343.26,292.61 343.34,298.72 343.51,279.01 343.71,348.68 343.86,376.11 343.90,261.79 343.98,348.37 344.16,236.37 344.36,252.44 344.50,360.73 344.54,293.29 344.63,293.69 344.82,318.59 345.01,291.31 345.14,263.03 345.18,316.75 345.28,326.43 345.47,366.99 345.66,237.99 345.79,216.95 345.82,300.38 345.93,377.81 346.12,211.94 346.31,373.07 346.43,256.03 346.46,295.21 346.58,280.78 346.77,220.06 346.96,225.41 347.07,300.92 347.10,251.55 347.23,286.23 347.43,273.10 347.61,240.72 347.71,280.18 347.75,186.18 347.88,333.17 348.08,257.77 348.26,305.76 348.35,322.75 348.39,222.89 348.53,255.10 348.73,338.54 348.91,252.34 348.99,267.07 349.04,377.61 349.18,299.19 349.38,271.06 349.56,258.68 349.63,321.36 349.68,353.91 349.83,271.73 350.03,312.51 350.20,343.91 350.27,372.06 350.33,265.61 350.48,263.91 350.69,248.91 350.85,332.83 350.91,301.01 350.97,287.08 351.14,323.27 351.34,332.30 351.49,256.45 351.55,271.24 351.62,284.48 351.79,383.35 351.99,333.41 352.14,325.02 352.18,342.84 352.27,219.37 352.44,302.07 352.64,225.08 352.78,259.91 352.82,309.40 352.91,296.44 353.10,277.03 353.29,286.35 353.43,241.15 353.46,385.64 353.56,235.14 353.75,305.41 353.94,298.48 354.07,254.96 354.10,336.61 354.21,376.62 354.40,320.64 354.59,214.92 354.71,271.17 354.75,354.88 354.86,287.22 355.05,347.57 355.24,283.94 355.36,236.94 355.39,354.14 355.51,270.69 355.71,304.49 355.89,269.28 356.00,302.21 356.03,276.55 356.16,261.68 356.36,348.05 356.54,336.88 356.64,306.05 356.67,279.98 356.81,339.91 357.01,330.99 357.19,385.03 357.28,361.63 357.32,286.31 357.46,350.94 357.66,294.68 357.84,322.57 357.92,392.72 357.96,372.20 358.12,257.86 358.31,230.28 358.48,389.69 358.56,321.13 358.61,266.17 358.77,302.96 358.97,380.15 359.13,259.19 359.19,214.53 359.25,312.20 359.42,273.01 359.62,278.19 359.78,319.82 359.83,313.11 359.90,369.01 360.07,364.36 360.27,338.98 360.42,317.96 360.47,342.78 360.55,272.74 360.72,294.22 360.92,258.26 361.07,277.46 361.11,375.41 361.20,335.44 361.38,376.79 361.57,287.76 361.71,237.94 361.75,238.19 361.84,247.82 362.03,176.39 362.22,276.43 362.36,276.82 362.39,288.47 362.49,168.93 362.68,331.66 362.87,365.72 363.00,285.81 363.03,291.68 363.14,352.34 363.33,242.10 363.52,287.53 363.64,387.73 363.67,299.53 363.79,293.66 363.99,252.87 364.17,386.38 364.28,266.78 364.31,306.86 364.44,362.77 364.64,273.66 364.82,289.96 364.92,332.49 364.96,304.03 365.09,407.53 365.29,262.00 365.47,364.45 365.56,304.87 365.60,288.71 365.74,247.80 365.94,326.77 366.12,243.27 366.20,257.79 366.25,308.14 366.40,238.89 366.59,236.00 366.77,276.34 366.84,282.97 366.89,269.43 367.05,323.58 367.25,276.03 367.41,261.85 367.48,275.34 367.54,280.07 367.70,248.41 367.90,317.26 368.06,258.47 368.12,183.21 368.18,221.45 368.35,297.13 368.55,370.21 368.71,306.23 368.76,333.98 368.83,347.53 369.00,256.83 369.20,231.64 369.35,212.49 369.39,257.31 369.48,233.45 369.66,236.35 369.85,368.89 369.99,322.13 370.03,266.34 370.13,359.74 370.31,381.98 370.50,320.13 370.64,316.70 370.67,308.96 370.77,354.43 370.96,330.87 371.16,342.06 371.28,323.64 371.31,299.18 371.42,321.22 371.61,244.64 371.80,352.66 371.93,325.82 371.96,338.41 372.07,285.54 372.26,393.14 372.45,248.53 372.57,242.70 372.60,258.55 372.72,297.49 372.92,197.38 373.10,339.31 373.21,256.21 373.24,294.61 373.37,269.23 373.57,316.40 373.75,273.95 373.85,267.40 373.88,255.65 374.02,319.15 374.22,240.30 374.40,364.56 374.49,256.48 374.53,335.26 374.68,242.65 374.87,260.75 375.05,284.89 375.13,343.01 375.17,386.73 375.33,187.18 375.53,257.92 375.70,265.88 375.77,190.41 375.82,370.16 375.98,360.99 376.18,366.41 376.34,262.68 376.40,252.75 376.47,243.08 376.63,260.95 376.83,281.83 376.99,263.72 377.04,267.80 377.11,270.39 377.28,358.85 377.48,347.66 377.63,230.33 377.68,321.59 377.76,248.02 377.94,224.08 378.13,280.64 378.28,324.37 378.32,257.47 378.41,255.76 378.59,268.48 378.78,362.86 378.92,305.29 378.96,353.27 379.06,262.83 379.24,179.14 379.44,253.06 379.57,320.88 379.60,390.77 379.71,207.73 379.89,283.38 380.08,205.59 380.21,224.11 380.24,267.00 380.35,321.20 380.54,257.26 380.73,312.08 380.85,344.40 380.88,329.71 381.00,214.81 381.20,308.21 381.38,340.30 381.49,381.13 381.53,294.26 381.65,294.64 381.85,284.23 382.03,271.07 382.13,286.77 382.17,314.60 382.31,388.71 382.50,294.60 382.68,302.35 382.77,296.99 382.81,342.61 382.96,216.08 383.15,343.10 383.33,256.68 383.41,326.31 383.46,241.74 383.61,288.93 383.81,299.77 383.98,307.50 384.05,300.52 384.10,276.70 384.26,412.02 384.46,271.31 384.62,283.55 384.69,235.55 384.75,385.59 384.91,321.97 385.11,257.35 385.27,217.25 385.33,311.73 385.39,255.82 385.56,324.60 385.76,246.87 385.92,254.08 385.96,351.09 386.04,250.46 386.22,290.73 386.41,323.67 386.56,281.92 386.60,273.02 386.69,280.54 386.87,313.13 387.07,289.54 387.21,377.14 387.24,316.61 387.34,274.08 387.52,316.81 387.72,348.81 387.85,331.87 387.88,251.41 387.99,315.69 388.17,220.38 388.37,293.78 388.49,348.25 388.52,287.06 388.63,327.93 388.82,272.41 389.02,375.01 389.13,285.83 389.17,289.68 389.28,321.86 389.48,335.74 389.67,411.79 389.78,290.57 389.81,290.53 389.94,260.81 390.13,274.00 390.32,289.12 390.42,347.63 390.45,296.57 390.59,312.34 390.78,149.48 390.96,320.08 391.06,290.59 391.10,237.62 391.24,211.93 391.43,330.32 391.61,290.36 391.70,262.12 391.74,357.59 391.89,308.55 392.09,208.12 392.26,285.15 392.34,331.40 392.39,372.88 392.54,371.50 392.74,324.84 392.91,307.59 392.97,236.25 393.03,243.74 393.19,339.66 393.39,228.63 393.55,232.55 393.61,384.79 393.68,279.82 393.84,269.11 394.04,301.43 394.20,319.82 394.25,362.32 394.32,316.01 394.50,240.97 394.69,253.33 394.84,327.91 394.89,341.55 394.97,255.73 395.15,247.10 395.35,311.18 395.49,228.67 395.53,220.80 395.62,304.36 395.80,303.36 396.00,210.38 396.13,242.98 396.17,300.65 396.27,270.30 396.45,280.18 396.65,282.47 396.78,271.17 396.81,295.12 396.92,357.21 397.10,233.19 397.30,344.76 397.42,305.54 397.45,231.25 397.57,409.75 397.76,347.52 397.95,246.24 398.06,257.38 398.09,314.90 398.22,228.44 398.41,316.17 398.60,257.29 398.70,362.58 398.73,292.31 398.87,392.72 399.06,307.46 399.24,270.91 399.34,326.31 399.38,280.49 399.52,361.32 399.71,268.78 399.89,315.82 399.98,314.06 400.02,274.56 400.17,282.48 400.37,398.04 400.54,344.96 400.62,373.81 400.67,334.89 400.82,349.01 401.02,247.52 401.19,297.70 401.26,265.59 401.31,407.36 401.47,321.84 401.67,204.24 401.84,298.53 401.90,180.37 401.96,220.59 402.12,197.04 402.32,342.40 402.48,292.61 402.54,260.49 402.61,232.24 402.78,266.12 402.97,402.21 403.13,238.46 403.17,248.55 403.25,327.11 403.43,266.12 403.63,330.99 403.77,355.75 403.81,269.94 403.90,274.16 404.08,260.93 404.28,271.01 404.42,264.24 404.45,250.87 404.55,251.37 404.73,220.93 404.93,390.80 405.06,236.53 405.09,364.17 405.20,246.40 405.38,299.14 405.58,373.66 405.70,408.50 405.73,298.44 405.85,371.81 406.04,317.99 406.23,282.68 406.34,306.53 406.38,224.52 406.50,336.21 406.69,317.63 406.88,293.79 406.99,286.11 407.02,322.43 407.15,315.80 407.34,258.49 407.53,282.59 407.63,358.10 407.66,258.46 407.80,311.67 407.99,334.96 408.17,344.55 408.27,353.44 408.31,356.32 408.45,366.33 408.65,294.23 408.82,260.23 408.91,269.83 408.95,373.81 409.10,269.43 409.30,248.30 409.47,339.86 409.55,365.54 409.60,256.67 409.75,322.69 409.95,300.21 410.12,406.60 410.18,270.03 410.24,259.16 410.40,276.10 410.60,353.88 410.76,299.10 410.82,203.24 410.89,217.80 411.06,380.20 411.26,280.37 411.41,284.78 411.46,259.89 411.54,305.34 411.71,255.32 411.91,290.03 412.05,307.39 412.10,288.34 412.18,302.52 412.36,298.87 412.56,213.36 412.70,243.15 412.74,384.42 412.83,288.29 413.01,328.79 413.21,290.64 413.34,307.34 413.38,332.33 413.48,288.84 413.66,243.92 413.86,298.59 413.99,321.06 414.02,272.06 414.13,336.24 414.32,309.69 414.51,357.54 414.63,284.65 414.66,316.28 414.78,342.26 414.97,359.24 415.16,305.64 415.27,273.42 415.30,320.58 415.43,205.22 415.62,332.47 415.81,211.37 415.91,284.24 415.95,275.03 416.08,344.47 416.27,253.47 416.46,274.21 416.55,304.05 416.59,279.10 416.73,331.05 416.93,272.18 417.10,247.21 417.19,365.26 417.23,227.38 417.38,311.86 417.58,147.66 417.75,298.26 417.83,315.03 417.88,389.77 418.03,371.60 418.23,268.81 418.40,260.20 418.47,272.86 418.52,257.25 418.68,353.01 418.88,299.05 419.05,260.41 419.11,208.17 419.17,272.98 419.34,402.22 419.54,270.73 419.69,331.19 419.74,242.99 419.82,292.44 419.99,303.83 420.19,304.88 420.34,251.11 420.38,311.96 420.46,337.11 420.64,238.11 420.84,278.12 420.98,294.12 421.02,262.67 421.11,343.99 421.29,269.92 421.49,290.61 421.63,332.67 421.66,211.81 421.76,321.07 421.94,274.63 422.14,248.21 422.27,235.37 422.30,284.22 422.41,286.83 422.60,298.74 422.79,269.80 422.91,327.54 422.94,260.66 423.06,297.64 423.25,290.77 423.44,299.84 423.56,314.97 423.59,292.14 423.71,335.54 423.90,249.06 424.09,302.53 424.20,255.15 424.23,367.65 424.36,360.77 424.55,349.61 424.74,367.72 424.84,382.50 424.87,277.92 425.01,317.17 425.21,317.45 425.39,228.79 425.48,368.12 425.52,208.37 425.66,303.25 425.86,310.47 426.03,266.90 426.12,392.78 426.16,299.58 426.31,211.42 426.51,396.30 426.68,305.38 426.75,373.54 426.81,369.17 426.96,262.29 427.16,230.22 427.33,270.81 427.39,240.84 427.45,273.56 427.62,335.23 427.82,316.77 427.97,242.69 428.03,373.42 428.10,317.42 428.27,283.60 428.47,315.22 428.62,296.94 428.67,262.20 428.75,249.91 428.92,304.53 429.12,321.68 429.27,259.75 429.31,248.46 429.39,245.52 429.57,211.42 429.77,319.17 429.91,264.22 429.95,279.84 430.04,276.91 430.22,240.69 430.42,235.06 430.55,350.50 430.59,241.17 430.69,243.31 430.88,228.32 431.07,253.61 431.20,269.61 431.23,229.31 431.34,351.83 431.53,275.36 431.72,321.13 431.84,340.41 431.87,306.04 431.99,272.99 432.18,306.00 432.37,240.80 432.48,232.61 432.51,311.67 432.64,326.95 432.83,337.50 433.02,320.05 433.12,358.19 433.16,365.68 433.29,221.32 433.49,242.30 433.67,295.05 433.76,349.13 433.80,358.47 433.94,279.40 434.14,252.34 434.32,294.78 434.40,237.11 434.44,261.55 434.59,335.65 434.79,216.43 434.96,329.71 435.04,291.03 435.09,258.78 435.24,220.77 435.44,339.78 435.61,250.18 435.68,248.23 435.74,322.15 435.90,221.65 436.10,243.16 436.26,308.82 436.32,274.29 436.38,355.14 436.55,260.40 436.75,296.68 436.90,198.12 436.95,251.49 437.03,296.15 437.20,309.97 437.40,372.45 437.55,333.19 437.59,288.02 437.68,220.90 437.85,320.39 438.05,272.63 438.19,343.27 438.23,358.49 438.32,324.78 438.50,355.05 438.70,319.58 438.84,291.01 438.87,302.10 438.97,261.83 439.16,293.11 439.35,276.75 439.48,369.98 439.51,282.31 439.62,221.80 439.81,291.20 440.00,332.21 440.12,257.31 440.15,333.34 440.27,293.42 440.46,291.78 440.65,250.84 440.77,272.73 440.80,372.85 440.92,175.00 441.11,311.34 441.30,326.25 441.41,252.55 441.44,344.79 441.57,364.75 441.77,270.55 441.95,257.09 442.05,353.58 442.08,254.71 442.22,298.93 442.42,283.87 442.60,375.07 442.69,353.10 442.73,353.59 442.87,241.82 443.07,351.74 443.25,285.09 443.33,235.89 443.37,264.81 443.52,340.26 443.72,264.69 443.89,238.17 443.96,303.59 444.02,299.70 444.17,242.22 444.38,300.48 444.54,269.67 444.60,235.28 444.66,367.46 444.83,352.12 445.03,284.06 445.19,347.46 445.24,250.89 445.31,291.08 445.48,284.04 445.68,265.01 445.83,249.27 445.88,275.98 445.96,256.98 446.13,274.41 446.33,245.84 446.48,208.09 446.52,238.11 446.61,282.51 446.78,246.66 446.98,304.18 447.12,324.62 447.16,302.55 447.25,372.06 447.44,228.19 447.63,335.99 447.76,363.41 447.80,306.91 447.90,268.00 448.09,221.15 448.28,338.35 448.41,288.60 448.44,344.79 448.55,334.63 448.74,203.85 448.93,275.34 449.05,281.20 449.08,353.89 449.20,256.17 449.39,266.47 449.58,317.11 449.69,253.74 449.72,226.57 449.85,247.25 450.05,329.21 450.23,364.22 450.33,289.32 450.37,332.14 450.50,273.31 450.70,337.57 450.88,322.57 450.97,256.47 451.01,218.07 451.15,346.41 451.35,293.63 451.53,289.87 451.61,297.79 451.65,278.15 451.81,319.48 452.00,272.72 452.17,322.52 452.25,293.97 452.30,253.99 452.46,282.99 452.66,308.60 452.82,338.51 452.89,206.17 452.95,242.72 453.11,354.60 453.31,300.19 453.47,314.01 453.53,240.25 453.59,412.30 453.76,315.34 453.96,364.76 454.11,214.79 454.16,278.66 454.24,248.79 454.41,287.47 454.61,311.14 454.76,289.67 454.80,294.22 454.89,302.10 455.06,252.07 455.26,305.14 455.40,286.45 455.44,327.63 455.54,336.49 455.72,299.09 455.91,344.78 456.05,351.42 456.08,309.06 456.18,339.60 456.37,179.52 456.56,323.34 456.69,355.51 456.72,295.54 456.83,274.05 457.02,340.13 457.21,228.70 457.33,300.20 457.36,389.17 457.48,293.68 457.67,205.77 457.86,333.15 457.98,247.30 458.01,285.84 458.13,263.46 458.33,304.32 458.51,350.90 458.62,285.17 458.65,271.25 458.78,355.19 458.98,268.43 459.16,320.75 459.26,271.36 459.29,292.94 459.43,334.73 459.63,316.95 459.81,338.44 459.90,233.58 459.94,362.06 460.09,277.74 460.28,243.31 460.46,294.68 460.54,315.54 460.58,286.85 460.74,238.62 460.94,272.18 461.10,389.11 461.17,334.62 461.23,413.19 461.39,307.77 461.59,245.57 461.75,293.56 461.81,349.09 461.88,241.59 462.04,397.78 462.24,269.78 462.40,278.11 462.45,276.39 462.52,374.63 462.69,255.61 462.89,203.21 463.04,229.92 463.09,310.97 463.17,262.49 463.34,304.44 463.54,335.62 463.69,293.40 463.73,335.69 463.82,274.45 464.00,304.35 464.19,301.81 464.33,305.84 464.37,353.62 464.47,274.99 464.65,299.34 464.85,245.11 464.97,294.31 465.01,341.87 465.11,232.00 465.30,300.16 465.49,299.99 465.62,398.66 465.65,271.85 465.76,304.02 465.95,249.09 466.14,282.87 466.26,257.88 466.29,333.43 466.41,200.47 466.61,260.61 466.79,294.18 466.90,342.15 466.93,256.69 467.06,298.06 467.26,364.92 467.44,351.67 467.54,305.73 467.58,335.32 467.71,324.19 467.91,323.60 468.09,308.94 468.18,282.18 468.22,246.38 468.37,332.55 468.56,263.74 468.74,247.93 468.82,374.91 468.87,309.94 469.02,241.33 469.22,281.72 469.39,313.48 469.46,239.04 469.51,371.21 469.67,239.00 469.87,276.06 470.03,267.24 470.10,292.40 470.16,247.80 470.32,280.40 470.52,304.72 470.68,329.09 470.73,247.94 470.80,360.67 470.97,244.02 471.17,316.31 471.33,289.61 471.37,376.83 471.45,380.12 471.63,379.23 471.82,337.09 471.97,273.81 472.01,262.42 472.10,307.59 472.28,203.72 472.48,245.73 472.61,280.77 472.65,308.66 472.75,281.68 472.93,296.99 473.13,297.35 473.26,288.62 473.29,354.34 473.40,301.46 473.58,230.36 473.78,265.62 473.90,258.52 473.93,303.87 474.04,341.80 474.23,376.50 474.43,289.53 474.54,288.81 474.57,347.02 474.69,316.85 474.89,192.20 475.08,335.07 475.18,299.94 475.22,250.77 475.34,267.44 475.54,291.96 475.72,352.54 475.83,315.42 475.86,341.29 476.00,335.67 476.19,258.17 476.37,387.92 476.47,330.98 476.50,277.78 476.65,294.27 476.84,322.78 477.02,390.41 477.11,380.41 477.15,252.39 477.30,233.71 477.50,387.93 477.67,285.57 477.74,258.62 477.79,261.33 477.95,214.85 478.15,413.00 478.32,368.87 478.38,298.82 478.44,257.41 478.60,261.85 478.80,316.33 478.96,285.58 479.02,209.11 479.09,367.60 479.25,293.58 479.45,255.43 479.61,212.88 479.66,348.98 479.73,333.78 479.91,325.69 480.10,265.74 480.25,288.82 480.30,330.53 480.38,314.46 480.56,344.43 480.76,332.61 480.90,288.40 480.94,241.43 481.03,398.26 481.21,291.43 481.41,297.79 481.54,323.81 481.58,278.50 481.68,238.61 481.86,328.83 482.06,309.78 482.19,205.39 482.22,312.11 482.33,267.47 482.51,332.58 482.71,267.81 482.83,339.25 482.86,261.48 482.98,316.74 483.17,268.22 483.36,332.12 483.47,369.55 483.50,236.03 483.63,299.95 483.82,277.49 484.01,248.60 484.11,290.38 484.14,306.11 484.28,334.52 484.47,284.13 484.66,275.87 484.75,352.96 484.79,332.37 484.93,316.30 485.12,231.43 485.30,262.34 485.39,346.63 485.43,359.22 485.58,263.72 485.78,212.93 485.95,291.89 486.03,340.56 486.08,258.12 486.23,360.47 486.43,288.81 486.60,303.66 486.67,291.63 486.72,325.12 486.88,275.69 487.08,339.06 487.24,400.84 487.31,315.16 487.37,275.87 487.53,280.93 487.73,240.17 487.89,354.42 487.94,267.01 488.01,362.97 488.19,274.02 488.38,335.73 488.54,284.09 488.58,395.65 488.66,289.70 488.84,355.46 489.04,345.09 489.18,343.33 489.22,208.76 489.31,319.02 489.49,234.07 489.69,328.64 489.82,311.47 489.86,372.22 489.96,262.47 490.14,283.07 490.34,301.52 490.47,298.17 490.50,287.67 490.61,282.79 490.79,234.58 490.99,290.36 491.11,268.79 491.14,382.14 491.26,381.87 491.45,263.12 491.64,265.94 491.75,257.16 491.78,378.59 491.91,230.11 492.10,275.03 492.29,353.53 492.39,266.98 492.43,321.44 492.56,338.93 492.75,288.94 492.94,335.90 493.04,236.02 493.07,273.58 493.21,258.23 493.40,234.81 493.58,375.53 493.68,266.14 493.71,270.24 493.86,273.86 494.06,340.22 494.23,242.45 494.32,284.79 494.36,289.18 494.51,353.12 494.71,349.87 494.88,318.31 494.95,262.83 495.01,321.60 495.16,385.42 495.36,329.07 495.53,347.77 495.59,202.58 495.65,282.55 495.81,357.27 496.01,346.68 496.17,297.16 496.23,295.49 496.30,355.09 496.47,271.24 496.66,282.64 496.82,253.33 496.87,290.22 496.94,332.00 497.12,314.61 497.32,349.22 497.46,372.94 497.51,374.43 497.59,342.14 497.77,223.21 497.97,237.08 498.11,279.00 498.15,359.34 498.24,321.91 498.42,338.15 498.62,396.05 498.75,304.93 498.79,271.14 498.89,268.20 499.07,337.80 499.27,311.07 499.40,282.39 499.43,285.60 499.54,338.40 499.73,307.05 499.92,289.36 500.04,300.40 500.07,288.51 500.19,361.84 500.38,309.17 500.57,297.16 500.68,186.26 500.71,245.14 500.84,334.24 501.03,321.79 501.22,317.57 501.32,293.92 501.35,372.20 501.49,325.81 501.68,262.84 501.87,303.33 501.96,327.05 502.00,298.59 502.14,263.56 502.34,302.30 502.51,354.97 502.60,308.04 502.64,401.83 502.79,312.03 502.99,331.66 503.16,320.34 503.24,265.93 503.29,218.41 503.44,319.97 503.64,238.21 503.81,321.50 503.88,233.22 503.93,345.92 504.09,341.92 504.29,279.57 504.46,307.54 504.51,325.33 504.58,217.33 504.75,407.58 504.95,263.36 505.10,298.39 505.15,324.15 505.23,267.89 505.40,233.84 505.60,392.05 505.75,272.74 505.79,303.36 505.87,285.40 506.05,352.30 506.25,276.59 506.39,336.14 506.43,325.79 506.52,302.87 506.70,272.25 506.90,352.63 507.04,282.56 507.07,303.84 507.17,324.89 507.35,266.41 507.55,273.77 507.68,283.48 507.71,296.57 507.82,328.85 508.01,236.12 508.20,250.92 508.32,228.48 508.35,323.67 508.47,379.21 508.66,269.53 508.85,222.60 508.96,336.65 508.99,281.98 509.12,301.05 509.31,321.15 509.50,292.18 509.60,268.32 509.64,352.55 509.77,245.53 509.96,355.57 510.15,260.70 510.25,279.99 510.28,346.42 510.42,313.69 510.62,292.75 510.80,306.45 510.89,377.21 510.93,322.01 511.07,229.88 511.27,237.22 511.44,301.54 511.52,362.45 511.57,255.33 511.72,335.34 511.92,240.61 512.09,262.24 512.16,285.75 512.22,306.00 512.37,283.63 512.57,226.24 512.74,274.99 512.80,377.61 512.86,313.10 513.03,334.33 513.23,291.91 513.38,318.67 513.44,227.19 513.51,226.71 513.68,301.37 513.88,290.41 514.03,331.00 514.08,342.41 514.16,253.95 514.33,388.07 514.53,299.93 514.67,372.26 514.72,299.88 514.80,367.92 514.98,230.06 515.18,219.48 515.32,345.14 515.36,315.82 515.45,292.94 515.63,264.44 515.83,195.87 515.96,314.53 516.00,264.63 516.10,339.89 516.29,285.09 516.48,222.53 516.61,293.05 516.64,365.37 516.75,362.15 516.94,148.61 517.13,254.23 517.25,225.94 517.28,265.42 517.40,285.11 517.59,273.15 517.78,267.60 517.89,264.45 517.92,345.39 518.05,222.24 518.24,303.44 518.43,317.67 518.53,265.46 518.56,219.62 518.70,282.20 518.90,404.55 519.08,304.03 519.17,358.31 519.21,326.30 519.35,233.80 519.55,396.19 519.73,343.71 519.81,239.25 519.85,275.67 520.00,246.33 520.20,326.91 520.37,236.19 520.45,299.79 520.50,310.90 520.65,275.42 520.85,359.53 521.02,321.76 521.09,234.72 521.14,409.28 521.31,252.85 521.51,323.69 521.67,342.52 521.72,188.58 521.79,263.26 521.96,321.58 522.16,392.10 522.31,271.70 522.36,339.61 522.44,274.74 522.61,342.15 522.81,295.70 522.96,292.25 523.00,306.37 523.09,356.63 523.26,293.84 523.46,298.25 523.60,293.06 523.64,304.69 523.73,318.67 523.91,245.82 524.11,272.64 524.25,336.34 524.28,295.41 524.38,308.43 524.57,330.02 524.76,284.64 524.89,292.90 524.92,272.69 525.03,390.24 525.22,324.41 525.41,259.78 525.53,259.64 525.56,359.39 525.68,339.57 525.87,295.73 526.06,278.26 526.17,239.38 526.20,313.42 526.33,235.92 526.52,335.95 526.71,343.54 526.81,324.55 526.85,307.68 526.98,300.35 527.18,348.16 527.36,254.38 527.45,320.91 527.49,294.82 527.63,197.46 527.83,265.97 528.01,307.22 528.09,305.15 528.14,230.78 528.28,254.48 528.48,232.17 528.66,347.77 528.73,366.11 528.78,320.19 528.93,351.34 529.13,387.72 529.30,354.51 529.37,292.68 529.43,326.79 529.59,339.16 529.79,376.99 529.95,314.12 530.01,254.29 530.07,243.26 530.24,266.53 530.44,291.19 530.59,305.07 530.65,303.52 530.72,339.03 530.89,315.16 531.09,348.29 531.24,358.88 531.29,356.74 531.37,275.29 531.54,290.98 531.74,241.64 531.89,344.77 531.93,274.78 532.01,274.01 532.19,227.69 532.39,277.54 532.53,312.16 532.57,311.79 532.66,324.61 532.85,282.39 533.04,310.64 533.17,280.48 533.21,296.34 533.31,263.67 533.50,279.61 533.69,295.50 533.82,303.46 533.85,259.30 533.96,336.07 534.15,345.42 534.34,252.39 534.46,268.13 534.49,236.91 534.61,363.81 534.80,329.93 534.99,304.03 535.10,344.28 535.13,273.63 535.26,352.63 535.46,241.42 535.64,251.66 535.74,303.92 535.78,282.18 535.91,281.49 536.11,341.11 536.29,326.25 536.38,254.92 536.42,361.63 536.56,283.40 536.76,231.64 536.94,256.21 537.02,394.90 537.06,259.42 537.21,328.52 537.41,325.93 537.58,343.13 537.66,294.37 537.71,342.34 537.87,318.02 538.07,320.02 538.23,296.32 538.30,193.21 538.36,340.80 538.52,382.90 538.72,253.77 538.88,202.43 538.93,349.92 539.00,390.71 539.17,296.68 539.37,283.52 539.52,310.41 539.57,343.19 539.65,382.79 539.82,336.89 540.02,291.57 540.17,304.77 540.21,364.42 540.30,231.31 540.47,255.50 540.67,283.18 540.81,252.08 540.85,349.39 540.94,341.49 541.13,246.15 541.32,278.07 541.46,266.23 541.49,377.57 541.59,289.73 541.78,235.75 541.97,322.38 542.10,222.99 542.13,217.31 542.24,312.12 542.43,277.17 542.62,214.53 542.74,342.74 542.77,283.13 542.89,376.80 543.08,266.64 543.27,208.93 543.38,228.50 543.42,202.30 543.54,311.09 543.74,233.97 543.92,321.06 544.02,330.55 544.06,381.62 544.19,375.83 544.39,246.75 544.57,334.66 544.66,348.55 544.70,271.13 544.84,211.93 545.04,269.24 545.22,261.92 545.30,270.79 545.35,287.64 545.50,392.24 545.69,218.26 545.87,271.83 545.94,382.31 545.99,293.49 546.15,370.83 546.35,216.01 546.51,308.73 546.58,319.23 546.64,231.16 546.80,311.42 547.00,360.62 547.16,350.98 547.22,238.89 547.28,262.28 547.45,286.57 547.65,267.79 547.81,317.27 547.86,267.63 547.93,259.92 548.10,376.12 548.30,292.43 548.45,312.13 548.50,289.59 548.58,259.99 548.75,307.66 548.95,338.59 549.10,363.03 549.13,367.53 549.23,245.50 549.41,272.01 549.60,234.62 549.74,320.70 549.77,341.67 549.87,242.38 550.06,334.89 550.25,335.04 550.38,294.42 550.42,361.80 550.52,321.25 550.71,383.50 550.90,183.67 551.03,252.81 551.06,234.89 551.17,381.19 551.36,281.54 551.55,342.16 551.67,270.05 551.70,301.82 551.82,323.39 552.02,379.71 552.20,317.69 552.31,297.06 552.34,308.71 552.47,249.03 552.67,361.16 552.85,253.79 552.95,306.35 552.99,255.21 553.12,296.22 553.32,264.59 553.50,330.79 553.59,285.22 553.63,335.82 553.78,228.07 553.97,336.29 554.15,252.29 554.23,334.93 554.27,227.89 554.43,346.32 554.63,230.15 554.80,239.10 554.87,232.22 554.92,357.97 555.08,278.54 555.28,234.68 555.44,301.87 555.50,181.79 555.57,290.31 555.73,263.32 555.93,257.62 556.09,285.53 556.14,238.00 556.21,217.57 556.38,220.64 556.58,364.92 556.73,288.02 556.78,360.29 556.86,266.35 557.03,190.71 557.23,241.25 557.38,216.76 557.42,249.60 557.51,254.93 557.69,317.16 557.88,383.41 558.02,308.52 558.06,257.87 558.16,250.72 558.34,281.56 558.54,364.69 558.67,247.25 558.70,241.63 558.81,191.55 558.99,336.34 559.18,288.13 559.31,307.59 559.34,391.31 559.46,286.13 559.64,287.86 559.83,376.40 559.95,359.64 559.98,248.08 560.10,353.99 560.30,299.49 560.48,210.38 560.59,330.64 560.63,215.29 560.75,214.97 560.95,217.18 561.13,239.41 561.23,260.36 561.27,335.96 561.40,275.11 561.60,277.21 561.78,234.08 561.87,233.16 561.91,303.03 562.06,310.56 562.25,304.02 562.43,317.12 562.51,243.05 562.56,281.81 562.71,277.14 562.91,256.90 563.08,316.49 563.15,257.94 563.20,341.86 563.36,233.14 563.56,305.94 563.72,251.86 563.79,252.37 563.85,265.04 564.01,249.05 564.21,292.00 564.37,323.75 564.43,264.30 564.50,314.24 564.66,251.12 564.86,287.82 565.02,287.38 565.07,281.14 565.14,306.15 565.31,311.16 565.51,206.20 565.66,228.83 565.70,282.95 565.79,376.01 565.97,331.63 566.17,207.97 566.31,312.69 566.34,272.19 566.44,284.42 566.62,329.78 566.82,272.01 566.95,310.55 566.98,231.07 567.09,310.31 567.27,260.59 567.47,276.44 567.59,330.77 567.63,350.05 567.74,191.18 567.92,246.83 568.12,325.51 568.24,360.02 568.27,316.59 568.38,210.16 568.58,247.51 568.77,229.23 568.88,308.97 568.91,254.23 569.03,293.07 569.23,326.33 569.42,338.83 569.52,309.87 569.55,358.96 569.69,243.11 569.88,299.28 570.06,386.87 570.16,398.94 570.20,316.68 570.34,310.42 570.53,303.17 570.71,287.14 570.80,387.45 570.84,376.88 570.99,288.24 571.19,286.69 571.36,280.84 571.44,362.73 571.49,311.46 571.64,246.61 571.84,291.85 572.01,382.02 572.08,377.99 572.13,348.09 572.29,232.24 572.49,274.36 572.65,250.17 572.71,207.82 572.78,257.12 572.94,315.23 573.14,250.49 573.30,235.92 573.35,276.51 573.42,334.35 573.59,338.23 573.79,329.06 573.94,361.47 573.99,321.00 574.07,232.26 574.25,334.22 574.45,262.30 574.59,339.09 574.63,293.55 574.72,368.03 574.90,247.39 575.10,367.20 575.23,288.52 575.27,269.76 575.37,256.57 575.55,323.81 575.75,253.72 575.88,253.34 575.91,321.65 576.02,336.94 576.20,278.61 576.40,327.67 576.52,286.96 576.55,369.09 576.67,356.72 576.86,338.96 577.05,306.86 577.16,313.20 577.19,299.68 577.32,224.84 577.51,362.69 577.70,354.62 577.80,236.65 577.84,317.32 577.97,304.21 578.16,335.78 578.35,258.78 578.44,381.23 578.48,313.38 578.62,307.47 578.81,322.26 578.99,235.34 579.08,250.11 579.12,253.18 579.27,289.89 579.47,322.71 579.64,289.22 579.72,293.82 579.77,362.39 579.92,334.04 580.12,274.96 580.29,337.90 580.36,256.33 580.41,271.31 580.57,361.45 580.77,317.52 580.94,271.93 581.00,222.91 581.06,350.09 581.22,291.24 581.42,254.71 581.58,297.88 581.64,249.67 581.71,255.48 581.88,341.66 582.07,233.27 582.23,387.70 582.28,263.87 582.35,271.44 582.53,326.81 582.73,301.67 582.87,194.43 582.91,369.05 583.00,269.37 583.18,333.89 583.38,217.61 583.52,298.63 583.55,292.11 583.65,335.30 583.83,223.14 584.03,219.53 584.16,215.92 584.19,230.73 584.30,350.89 584.48,310.49 584.68,190.59 584.80,276.19 584.84,331.32 584.95,314.14 585.14,248.59 585.33,284.94 585.45,296.41 585.48,313.60 585.60,254.16 585.79,313.82 585.98,307.72 586.09,236.38 586.12,232.02 586.25,266.27 586.44,294.88 586.63,230.47 586.73,357.91 586.76,381.39 586.90,238.54 587.09,336.41 587.27,330.53 587.37,271.14 587.41,247.80 587.55,289.63 587.75,358.70 587.92,221.42 588.01,346.56 588.05,282.42 588.20,291.78 588.40,256.58 588.57,379.32 588.65,317.93 588.70,325.25 588.85,335.98 589.05,274.59 589.22,368.50 589.29,208.94 589.34,300.62 589.50,370.08 589.70,324.32 589.86,362.36 589.92,280.12 589.99,293.86 590.16,236.56 590.35,366.66 590.51,343.93 590.56,311.16 590.64,300.15 590.81,317.77 591.01,305.57 591.16,316.21 591.20,285.32 591.28,292.63 591.46,328.12 591.66,258.40 591.80,278.97 591.84,287.93 591.93,329.36 592.11,324.85 592.31,384.33 592.44,226.48 592.48,387.34 592.58,345.77 592.76,221.96 592.96,288.00 593.09,384.05 593.12,280.66 593.23,286.70 593.42,290.07 593.61,243.80 593.73,268.63 593.76,291.57 593.88,313.33 594.07,296.82 594.26,398.28 594.37,276.70 594.40,279.71 594.53,263.06 594.72,316.67 594.91,321.41 595.01,227.02 595.05,241.73 595.18,344.28 595.37,380.97 595.56,294.53 595.65,359.51 595.69,311.75 595.83,256.38 596.03,276.41 596.20,336.31 596.29,262.17 596.33,333.46 596.48,365.09 596.68,349.42 596.85,265.01 596.93,363.62 596.98,278.33 597.13,325.53 597.33,283.51 597.50,327.20 597.57,311.46 597.63,203.26 597.78,385.62 597.98,308.54 598.15,316.37 598.21,254.51 598.27,358.84 598.44,255.30 598.64,280.24 598.79,366.61 598.85,250.74 598.92,345.27 599.09,314.71 599.29,319.82 599.44,344.31 599.48,249.45 599.56,334.74 599.74,341.20 599.94,304.10 600.08,377.92 600.12,235.55 600.21,262.64 600.39,210.35 600.59,158.80 600.73,283.38 600.76,382.17 600.86,235.57 601.04,291.64 601.24,326.24 601.37,327.28 601.40,244.79 601.51,228.03 601.70,271.41 601.89,204.84 602.01,316.49 602.05,293.42 602.16,335.27 602.35,292.84 602.54,364.65 602.66,323.92 602.69,359.86 602.81,263.24 603.00,397.94 603.19,271.82 603.30,275.82 603.33,219.06 603.46,402.70 603.65,324.28 603.84,247.30 603.94,303.12 603.97,356.89 604.11,320.70 604.31,412.92 604.49,254.47 604.58,281.91 604.62,329.09 604.76,290.70 604.96,341.59 605.13,241.04 605.22,271.55 605.26,274.60 605.41,228.70 605.61,338.04 605.78,281.85 605.86,304.45 605.91,236.55 606.06,255.51 606.26,275.57 606.43,345.02 606.49,138.20 606.55,275.84 606.72,305.95 606.92,236.73 607.08,325.14 607.13,228.90 607.20,274.25 607.37,316.99 607.57,375.41 607.72,312.91 607.77,357.40 607.85,259.46 608.02,318.16 608.22,319.75 608.37,329.86 608.41,254.21 608.49,298.11 608.67,344.88 608.87,282.85 609.01,237.77 609.05,300.61 609.14,267.30 609.32,191.13 609.52,251.29 609.65,364.88 609.69,285.46 609.79,290.32 609.98,232.17 610.17,302.01 610.30,227.52 610.33,276.69 610.44,360.38 610.63,315.14 610.82,244.79 610.94,213.36 610.97,234.85 611.09,254.30 611.28,360.86 611.47,380.85 611.58,320.22 611.61,277.41 611.74,312.02 611.93,313.17 612.12,267.08 612.22,357.98 612.26,341.00 612.39,363.18 612.59,212.67 612.77,347.70 612.86,286.37 612.90,378.29 613.04,231.79 613.24,320.71 613.42,324.46 613.50,286.50 613.55,262.15 613.69,274.80 613.89,291.98 614.06,328.92 614.14,317.90 614.19,341.05 614.34,345.15 614.54,317.90 614.71,282.17 614.78,197.44 614.84,298.96 615.00,376.20 615.20,249.00 615.36,241.43 615.42,212.29 615.48,281.66 615.65,227.97 615.85,359.61 616.00,351.89 616.06,418.25 616.13,263.28 616.30,385.90 616.50,302.51 616.65,318.80 616.69,341.70 616.78,257.08 616.95,211.98 617.15,230.42 617.29,294.94 617.33,255.54 617.42,236.48 617.60,280.65 617.80,362.04 617.94,290.43 617.97,299.02 618.07,310.51 618.26,338.42 618.45,375.89 618.58,372.56 618.61,341.23 618.72,366.58 618.91,280.74 619.10,320.92 619.22,232.59 619.26,358.90 619.37,280.24 619.56,270.53 619.75,263.07 619.87,316.50 619.90,274.67 620.02,276.77 620.21,292.79 620.40,260.49 620.51,286.31 620.54,344.05 620.67,290.73 620.87,278.51 621.05,269.29 621.15,372.14 621.18,272.80 621.32,316.04 621.52,256.37 621.70,345.23 621.79,354.84 621.83,344.29 621.97,286.05 622.17,371.99 622.35,233.34 622.43,319.18 622.47,276.49 622.62,277.83 622.82,254.14 622.99,353.01 623.07,301.97 623.12,363.76 623.28,309.55 623.48,291.28 623.64,282.51 623.70,145.33 623.76,277.75 623.93,314.48 624.13,319.28 624.29,346.57 624.34,193.07 624.41,218.86 624.58,321.39 624.78,271.20 624.93,253.45 624.98,302.51 625.06,224.19 625.23,220.30 625.43,217.61 625.58,236.91 625.62,322.80 625.71,236.67 625.88,299.25 626.08,371.10 626.22,232.87 626.26,308.71 626.35,332.79 626.54,339.40 626.73,326.09 626.86,306.72 626.90,346.56 627.00,283.25 627.19,238.69 627.38,280.75 627.51,270.20 627.54,288.17 627.65,295.16 627.84,194.09 628.03,290.73 628.15,274.92 628.18,287.81 628.30,216.79 628.49,391.53 628.68,250.79 628.79,347.77 628.82,270.64 628.95,293.88 629.15,338.35 629.33,265.37 629.43,262.01 629.47,303.98 629.60,294.71 629.80,294.44 629.98,274.07 630.07,333.05 630.11,296.21 630.25,278.96 630.45,209.71 630.63,248.98 630.71,289.23 630.76,325.41 630.90,333.33 631.10,235.92 631.28,250.61 631.35,369.01 631.40,275.96 631.56,320.27 631.76,357.63 631.92,284.81 631.99,249.01 632.05,318.31 632.21,309.51 632.41,322.22 632.57,288.45 632.63,313.60 632.69,382.10 632.86,325.60 633.06,352.05 633.21,288.21 633.26,262.18 633.34,269.66 633.51,343.74 633.71,326.54 633.86,328.53 633.90,272.62 633.99,248.96 634.16,271.87 634.36,239.16 634.50,219.43 634.54,230.68 634.64,277.55 634.82,260.45 635.01,292.41 635.15,336.92 635.18,239.97 635.28,367.63 635.47,213.57 635.66,347.84 635.79,256.99 635.82,279.97 635.93,255.70 636.12,304.14 636.31,385.52 636.43,299.73 636.47,302.04 636.58,293.04 636.77,230.16 636.96,262.63 637.08,300.29 637.11,303.40 637.23,257.93 637.43,359.29 637.61,301.05 637.72,344.22 637.75,144.58 637.88,280.34 638.08,283.32 638.26,279.50 638.36,360.28 638.39,298.15 638.53,293.54 638.73,231.07 638.91,271.74 639.00,277.58 639.04,241.80 639.19,248.80 639.38,278.35 639.56,299.42 639.64,300.47 639.68,271.85 639.84,288.61 640.04,335.86 640.20,335.34 640.27,242.69 640.33,242.64 640.49,243.93 640.69,264.18 640.85,326.39 640.91,213.48 640.98,244.90 641.14,322.65 641.34,362.95 641.50,232.74 641.55,286.80 641.62,273.06 641.79,212.57 641.99,336.01 642.14,323.87 642.19,341.39 642.27,248.93 642.44,197.70 642.64,295.99 642.79,360.54 642.83,352.48 642.92,331.79 643.10,234.34 643.29,300.24 643.43,294.41 643.47,335.18 643.57,309.99 643.75,264.99 643.95,285.11 644.08,209.00 644.11,270.24 644.21,293.49 644.40,256.42 644.60,342.61 644.72,269.95 644.75,317.17 644.86,268.47 645.05,375.97 645.24,363.47 645.36,242.06 645.39,289.55 645.51,242.61 645.71,368.18 645.89,299.65 646.00,252.51 646.03,301.34 646.16,297.77 646.36,373.59 646.54,271.13 646.64,322.05 646.68,295.51 646.81,201.76 647.01,255.14 647.19,297.51 647.28,310.09 647.32,262.11 647.47,281.13 647.66,254.45 647.84,249.01 647.92,300.09 647.97,236.01 648.12,321.43 648.32,236.68 648.49,347.02 648.56,289.78 648.61,322.58 648.77,318.30 648.97,392.18 649.13,297.20 649.20,320.63 649.26,234.82 649.42,410.29 649.62,277.27 649.78,326.00 649.84,382.68 649.90,358.62 650.07,254.28 650.27,377.46 650.43,272.06 650.47,306.84 650.55,277.35 650.72,414.81 650.92,373.59 651.07,267.91 651.11,306.44 651.20,330.84 651.38,304.52 651.57,365.97 651.71,324.95 651.75,324.67 651.85,274.27 652.03,314.38 652.23,261.70 652.36,298.20 652.39,363.72 652.50,201.78 652.68,260.94 652.88,203.82 653.00,248.66 653.03,379.39 653.15,343.34 653.33,395.98 653.53,382.12 653.64,266.28 653.68,260.17 653.79,327.63 653.99,201.25 654.18,300.75 654.29,358.99 654.32,218.99 654.44,268.66 654.64,307.09 654.82,261.50 654.93,320.65 654.96,324.43 655.10,235.26 655.29,343.62 655.47,278.70 655.57,274.86 655.60,351.73 655.75,326.13 655.94,283.79 656.12,370.86 656.21,274.10 656.25,268.61 656.40,268.89 656.60,326.47 656.77,379.60 656.85,254.39 656.89,318.45 657.05,277.14 657.25,294.47 657.42,270.76 657.48,323.62 657.54,281.22 657.70,318.58 657.90,335.74 658.06,272.78 658.12,351.31 658.19,349.59 658.35,297.01 658.55,302.49 658.71,368.85 658.76,303.24 658.83,306.22 659.00,279.52 659.20,303.02 659.35,258.29 659.40,349.14 659.48,352.18 659.66,306.89 659.86,275.33 660.00,357.96 660.04,265.67 660.13,368.42 660.31,330.34 660.51,318.96 660.64,244.16 660.68,285.77 660.78,307.60 660.96,324.86 661.16,297.71 661.29,370.24 661.32,254.28 661.43,401.58 661.61,392.85 661.81,278.77 661.93,297.15 661.96,318.84 662.08,282.78 662.27,334.52 662.46,238.21 662.57,304.80 662.60,280.85 662.73,317.72 662.92,209.47 663.11,223.33 663.21,279.10 663.24,289.48 663.38,247.79 663.57,211.48 663.76,272.35 663.85,375.87 663.89,335.17 664.03,346.78 664.22,326.48 664.40,353.56 664.49,380.19 664.53,326.98 664.68,275.56 664.88,310.98 665.05,263.27 665.13,322.33 665.18,241.87 665.33,338.46 665.53,257.44 665.70,270.49 665.77,391.67 665.82,265.85 665.98,236.01 666.18,362.48 666.34,346.84 666.41,260.46 666.47,355.45 666.63,369.94 666.83,240.74 666.99,336.53 667.04,226.64 667.11,358.85 667.28,325.51 667.48,342.21 667.64,322.08 667.68,336.62 667.76,329.88 667.94,258.12 668.14,291.02 668.28,244.36 668.32,303.47 668.41,343.30 668.59,283.95 668.79,368.62 668.93,279.59 668.96,271.78 669.06,341.23 669.24,139.57 669.44,259.18 669.57,288.75 669.60,241.62 669.71,327.50 669.89,258.22 670.09,292.82 670.21,334.05 670.24,332.75 670.36,375.91 670.55,249.33 670.74,269.15 670.85,344.77 670.89,334.80 671.01,290.24 671.20,362.66 671.39,332.48 671.50,308.96 671.53,358.91 671.66,244.75 671.85,279.94 672.04,330.98 672.14,234.42 672.17,279.77 672.31,224.65 672.50,281.84 672.69,376.12 672.78,389.75 672.82,373.16 672.96,276.06 673.16,377.35 673.33,248.94 673.42,328.75 673.46,312.28 673.61,340.22 673.81,321.28 673.98,357.06 674.05,268.62 674.11,240.24 674.26,308.11 674.46,261.70 674.63,323.41 674.69,259.76 674.75,251.72 674.91,369.91 675.11,316.29 675.27,325.26 675.33,197.42 675.40,383.50 675.56,264.84 675.76,293.81 675.92,279.72 675.97,269.82 676.04,283.99 676.22,296.94 676.42,324.01 676.56,356.37 676.61,246.97 676.69,422.85 676.87,284.12 677.07,203.93 677.21,274.40 677.25,313.84 677.34,350.03 677.52,248.24 677.72,291.80 677.85,271.98 677.89,272.99 677.99,345.08 678.17,317.13 678.37,290.80 678.50,256.41 678.53,310.17 678.64,275.32 678.83,336.60 679.02,301.55 679.14,384.14 679.17,352.82 679.29,225.95 679.48,299.78 679.67,362.69 679.78,309.46 679.81,270.07 679.94,368.20 680.13,265.10 680.32,294.70 680.42,333.20 680.45,300.03 680.59,271.18 680.78,265.75 680.97,258.83 681.06,246.77 681.10,255.69 681.24,309.19 681.44,303.55 681.61,330.70 681.70,315.31 681.74,269.89 681.89,246.30 682.09,285.01 682.26,282.07 682.34,365.26 682.39,383.44 682.54,243.97 682.74,314.35 682.91,361.90 682.98,219.51 683.03,181.52 683.19,275.49 683.39,326.98 683.56,263.08 683.62,263.25 683.68,314.77 683.85,347.24 684.04,250.29 684.20,393.13 684.25,250.44 684.33,299.28 684.50,289.45 684.70,361.40 684.85,335.34 684.89,350.92 684.97,290.28 685.15,358.76 685.35,342.58 685.49,319.19 685.53,313.26 685.62,308.45 685.80,261.17 686.00,260.39 686.14,251.52 686.17,370.09 686.27,288.50 686.45,229.31 686.65,296.16 686.78,399.27 686.81,355.40 686.92,275.89 687.11,292.91 687.30,308.93 687.42,283.94 687.45,259.33 687.57,289.71 687.76,304.15 687.95,282.70 688.06,303.82 688.10,383.27 688.22,355.22 688.41,266.25 688.60,274.12 688.71,311.41 688.74,182.28 688.87,258.21 689.06,279.67 689.25,347.28 689.35,267.56 689.38,349.88 689.52,289.62 689.72,280.81 689.90,360.36 689.99,299.76 690.03,253.60 690.17,306.69 690.37,243.37 690.54,249.10 690.63,344.21 690.67,327.09 690.82,269.16 691.02,341.32 691.19,284.49 691.26,261.88 691.32,344.41 691.47,241.25 691.67,328.56 691.84,234.53 691.90,191.50 691.96,340.38 692.13,252.14 692.33,297.47 692.48,321.74 692.54,257.59 692.61,321.38 692.78,362.78 692.98,258.55 693.13,315.59 693.18,256.48 693.26,364.51 693.43,244.48 693.63,301.18 693.78,341.23 693.82,281.31 693.90,331.46 694.08,238.03 694.28,252.38 694.42,284.77 694.46,268.50 694.55,302.30 694.73,250.87 694.93,284.56 695.06,373.99 695.10,311.92 695.20,272.45 695.39,326.05 695.58,369.59 695.71,349.20 695.74,290.63 695.85,270.95 696.04,231.96 696.23,288.49 696.35,298.94 696.38,258.72 696.50,264.55 696.69,272.21 696.88,273.25 696.99,293.35 697.02,280.71 697.15,281.17 697.34,321.02 697.53,285.73 697.63,295.85 697.67,265.98 697.80,253.10 698.00,201.87 698.18,258.47 698.27,246.66 698.31,219.20 698.45,258.81 698.65,287.34 698.83,243.03 698.91,262.16 698.95,394.00 699.10,321.34 699.30,294.46 699.47,256.19 699.55,334.84 699.60,309.39 699.75,199.04 699.95,373.51 700.12,274.15 700.19,196.72 700.24,297.76 700.41,337.43 700.61,245.39 700.77,341.37 700.83,195.62 700.89,288.92 701.06,294.60 701.26,351.64 701.41,376.87 701.46,306.20 701.54,375.56 701.71,329.74 701.91,277.34 702.06,220.09 702.10,347.83 702.19,307.59 702.36,288.99 702.56,267.49 702.70,324.36 702.74,275.24 702.83,292.04 703.01,316.83 703.21,264.51 703.35,365.07 703.38,306.67 703.48,336.51 703.67,188.48 703.86,336.27 703.99,275.13 704.02,309.29 704.13,302.78 704.32,316.00 704.51,321.03 704.63,287.20 704.66,394.22 704.78,324.86 704.97,253.00 705.16,277.59 705.27,354.83 705.31,343.12 705.43,331.20 705.62,258.14 705.81,342.15 705.92,343.63 705.95,354.52 706.08,343.20 706.28,215.15 706.46,300.15 706.56,320.06 706.59,266.24 706.73,299.95 706.93,272.75 707.11,365.13 707.20,257.10 707.24,279.51 707.38,320.47 707.58,264.19 707.76,224.49 707.84,268.13 707.88,242.98 708.03,298.54 708.23,251.32 708.40,284.85 708.47,400.16 708.53,382.58 708.69,241.41 708.89,347.61 709.05,247.53 709.11,239.68 709.17,237.58 709.34,345.17 709.54,349.82 709.70,303.36 709.75,304.10 709.82,296.80 709.99,283.73 710.19,254.10 710.34,275.00 710.39,316.11 710.47,235.00 710.64,257.80 710.84,293.42 710.99,352.10 711.03,241.72 711.12,346.40 711.29,268.12 711.49,278.73 711.63,263.99 711.67,317.58 711.76,249.66 711.95,352.28 712.14,330.56 712.27,264.52 712.31,341.98 712.41,273.32 712.60,252.06 712.79,315.63 712.92,321.01 712.95,288.99 713.06,280.16 713.25,319.90 713.44,260.46 713.56,319.64 713.59,424.67 713.71,355.52 713.90,261.49 714.09,287.50 714.20,270.58 714.23,246.68 714.36,222.14 714.56,209.12 714.74,281.23 714.84,300.89 714.88,282.51 715.01,347.73 715.21,303.18 715.39,250.36 715.48,317.01 715.52,229.91 715.66,171.10 715.86,263.88 716.04,248.35 716.12,271.17 716.16,345.18 716.31,290.21 716.51,281.68 716.69,241.91 716.76,260.45 716.81,183.04 716.97,392.06 717.17,301.72 717.33,259.61 717.40,367.33 717.46,406.99 717.62,314.43 717.82,297.05 717.98,339.36 718.03,231.10 718.10,310.08 718.27,283.61 718.47,374.88 718.62,345.21 718.67,323.06 718.75,358.78 718.92,344.09 719.12,293.42 719.27,354.75 719.31,307.08 719.40,296.97 719.57,352.64 719.77,279.58 719.91,192.22 719.95,352.20 720.04,255.27 720.23,257.79 720.42,389.82 720.56,303.13 720.59,237.67 720.69,334.80 720.88,341.32 721.07,272.91 721.20,237.88 721.23,396.60 721.34,276.18 721.53,299.67 721.72,303.99 721.84,302.38 721.87,225.80 721.99,249.83 722.18,285.39 722.37,398.27 722.48,341.62 722.52,336.84 722.64,259.43 722.84,332.32 723.02,236.52 723.13,326.19 723.16,263.46 723.29,261.45 723.49,299.50 723.67,371.37 723.77,329.18 723.80,272.78 723.94,307.88 724.14,218.25 724.32,315.11 724.41,325.98 724.45,275.52 724.59,347.75 724.79,322.26 724.97,280.57 725.04,377.43 725.09,281.47 725.25,411.36 725.45,262.51 725.61,330.20 725.68,283.01 725.74,261.27 725.90,254.54 726.10,293.57 726.26,299.52 726.32,325.58 726.38,230.24 726.55,253.53 726.75,374.90 726.91,291.89 726.96,258.51 727.03,333.77 727.20,272.86 727.40,317.48 727.55,364.80 727.60,283.45 727.68,247.75 727.85,320.98 728.05,400.68 728.20,274.00 728.24,296.20 728.33,319.63 728.51,227.75 728.70,185.53 728.84,259.00 728.88,278.05 728.97,336.96 729.16,236.16 729.35,368.07 729.48,354.49 729.52,350.93 729.62,275.00 729.81,260.35 730.01,295.61 730.13,253.05 730.16,268.99 730.27,259.45 730.46,316.41 730.65,330.71 730.77,348.01 730.80,269.39 730.92,344.30 731.12,255.50 731.30,248.94 731.41,320.03 731.44,342.02 731.57,366.85 731.77,370.09 731.95,238.71 732.05,340.83 732.09,265.89 732.22,314.94 732.42,350.22 732.60,309.91 732.69,400.95 732.73,238.83 732.88,344.24 733.07,236.41 733.25,297.41 733.33,368.00 733.37,268.79 733.53,238.70 733.73,239.40 733.90,302.32 733.97,227.13 734.02,211.77 734.18,278.85 734.38,168.65 734.54,271.79 734.61,198.17 734.67,370.88 734.83,358.89 735.03,235.78 735.19,364.38 735.24,252.70 735.31,319.32 735.48,198.50 735.68,353.38 735.83,364.22 735.88,291.90 735.96,276.89 736.13,239.64 736.33,286.39 736.48,300.05 736.52,309.18 736.61,259.34 736.79,291.13 736.98,324.44 737.12,228.85 737.16,281.52 737.26,390.71 737.44,240.58 737.64,274.12 737.77,374.79 737.80,394.80 737.91,301.97 738.09,216.40 738.29,309.08 738.41,361.18 738.44,291.87 738.56,375.80 738.74,278.18 738.93,350.51 739.05,319.59 739.08,351.46 739.21,215.55 739.40,266.27 739.58,389.38 739.69,372.90 739.73,254.49 739.85,223.39 740.05,287.06 740.23,300.70 740.34,349.74 740.37,300.00 740.50,328.21 740.70,305.46 740.88,363.39 740.98,330.40 741.01,244.32 741.16,220.20 741.35,241.22 741.53,305.92 741.61,264.82 741.66,294.51 741.81,334.96 742.01,217.82 742.18,356.66 742.25,299.13 742.30,249.05 742.46,224.36 742.66,272.32 742.82,294.94 742.89,156.29 742.95,273.30 743.11,313.55 743.31,306.29 743.47,258.91 743.53,202.20 743.60,362.25 743.76,326.33 743.96,305.92 744.12,383.65 744.17,233.09 744.24,185.12 744.41,345.93 744.61,383.74 744.76,224.44 744.81,277.59 744.89,250.56 745.07,379.77 745.26,229.98 745.41,298.32 745.45,265.74 745.54,268.69 745.72,400.97 745.92,274.78 746.05,317.36 746.09,253.80 746.19,238.54 746.37,377.61 746.57,328.13 746.69,373.93 746.73,272.70 746.84,355.78 747.02,242.96 747.22,243.41 747.34,301.49 747.37,312.64 747.49,292.18 747.68,380.62 747.87,311.04 747.98,271.46 748.01,218.54 748.13,344.22 748.33,274.15 748.52,304.59 748.62,334.41 748.65,346.62 748.79,301.69 748.98,285.31 749.16,338.20 749.26,288.25 749.30,285.58 749.44,277.60 749.63,276.70 749.81,269.01 749.90,280.45 749.94,286.78 750.09,217.35 750.29,303.45 750.46,314.16 750.54,322.92 750.59,249.47 750.74,354.73 750.94,257.52 751.11,284.82 751.18,318.27 751.23,291.06 751.39,378.08 751.59,361.46 751.75,295.65 751.81,359.48 751.88,267.99 752.04,322.09 752.24,268.86 752.40,294.04 752.45,230.43 752.53,311.03 752.69,218.59 752.89,248.85 753.05,257.80 753.09,267.39 753.17,238.69 753.35,350.33 753.55,280.14 753.69,366.72 753.73,357.36 753.82,202.22 754.00,290.38 754.20,342.13 754.33,251.18 754.37,261.62 754.47,278.30 754.65,378.28 754.85,292.78 754.98,369.92 755.01,269.34 755.12,331.33 755.30,345.53 755.50,355.35 755.62,304.41 755.65,278.26 755.77,270.49 755.96,379.10 756.15,283.61 756.26,318.42 756.29,326.54 756.42,273.19 756.61,265.50 756.80,287.59 756.90,347.98 756.94,264.20 757.07,218.80 757.26,320.54 757.45,246.44 757.54,256.03 757.58,306.93 757.72,252.28 757.91,258.85 758.09,377.63 758.19,296.02 758.22,312.21 758.37,296.04 758.57,394.62 758.74,294.88 758.82,321.64 758.87,321.79 759.02,389.89 759.22,278.02 759.39,332.92 759.46,264.95 759.51,386.10 759.67,280.79 759.87,374.21 760.04,272.13 760.10,289.48 760.16,322.51 760.32,330.92 760.52,299.18 760.68,231.32 760.74,298.81 760.81,279.74 760.97,280.85 761.17,290.92 761.33,348.64 761.38,237.61 761.45,327.42 761.63,326.86 761.83,325.91 761.97,333.93 762.02,367.40 762.10,310.82 762.28,218.98 762.48,352.92 762.62,364.12 762.66,282.52 762.75,387.55 762.93,299.49 763.13,325.11 763.26,297.07 763.30,298.39 763.40,308.62 763.58,270.64 763.78,297.66 763.90,358.78 763.94,272.50 764.05,204.51 764.24,310.17 764.43,305.07 764.55,223.22 764.58,307.99 764.70,200.11 764.89,298.08 765.08,215.03 765.19,211.56 765.22,366.81 765.35,304.30 765.54,284.40 765.73,284.99 765.83,277.48 765.86,270.01 766.00,307.08 766.19,209.07 766.38,345.42 766.47,264.71 766.51,312.53 766.65,262.47 766.85,349.86 767.02,308.90 767.11,336.34 767.15,310.89 767.30,273.68 767.50,359.43 767.67,320.16 767.75,259.26 767.80,239.61 767.95,289.50 768.15,277.99 768.32,281.44 768.39,249.51 768.44,303.35 768.60,398.12 768.80,229.85 768.97,254.55 769.02,198.27 769.09,260.69 769.25,390.36 769.45,271.75 769.61,281.34 769.66,335.82 769.74,227.56 769.91,209.46 770.11,306.94 770.26,283.18 770.30,261.30 770.38,212.87 770.56,350.38 770.76,284.94 770.90,265.47 770.94,332.23 771.03,352.41 771.21,360.10 771.41,256.78 771.54,346.07 771.58,312.45 771.68,286.10 771.86,307.72 772.06,222.23 772.19,300.14 772.22,245.20 772.33,283.47 772.52,267.27 772.71,268.36 772.83,294.69 772.86,337.24 772.98,288.07 773.17,359.36 773.36,318.07 773.47,259.83 773.50,323.26 773.63,260.43 773.82,267.37 774.01,366.24 774.11,281.74 774.15,303.80 774.28,339.94 774.47,391.01 774.66,317.66 774.75,367.65 774.79,303.46 774.93,292.37 775.13,232.74 775.31,345.82 775.39,281.52 775.43,252.62 775.58,345.13 775.78,293.73 775.95,228.88 776.03,325.74 776.08,291.92 776.23,277.10 776.43,365.33 776.60,290.30 776.67,248.97 776.73,404.25 776.88,236.68 777.08,308.31 777.25,361.87 777.31,337.88 777.37,246.70 777.54,280.33 777.73,273.78 777.89,338.69 777.95,216.42 778.02,293.17 778.19,252.77 778.39,332.32 778.54,274.99 778.59,300.45 778.67,354.63 778.84,278.08 779.04,399.54 779.18,306.68 779.22,266.47 779.31,294.73 779.49,371.50 779.69,333.92 779.83,362.54 779.86,284.49 779.96,371.57 780.14,357.29 780.34,328.62 780.47,273.44 780.51,309.49 780.61,339.70 780.80,301.71 780.99,287.03 781.12,247.18 781.15,311.47 781.26,317.66 781.45,295.62 781.64,304.32 781.76,389.43 781.79,225.01 781.91,304.31 782.10,303.34 782.29,259.73 782.40,329.57 782.43,318.19 782.56,359.81 782.75,342.45 782.94,270.59 783.04,366.95 783.07,277.60 783.21,228.67 783.41,336.78 783.59,191.73 783.68,242.56 783.72,261.02 783.86,339.20 784.06,395.23 784.24,356.52 784.32,375.55 784.36,379.18 784.51,269.49 784.71,253.14 784.88,328.31 784.96,264.99 785.01,224.36 785.16,225.61 785.36,312.53 785.53,240.04 785.60,277.67 785.65,212.35 785.82,276.26 786.02,245.63 786.18,318.61 786.23,275.94 786.30,288.09 786.47,308.15 786.67,299.47 786.82,278.82 786.87,301.45 786.95,304.80 787.12,275.17 787.32,261.97 787.47,238.68 787.51,292.38 787.59,238.29 787.77,292.75 787.97,296.15 788.11,230.12 788.15,300.64 788.24,359.00 788.42,344.93 788.62,289.06 788.76,327.71 788.79,348.94 788.89,285.05 789.08,302.27 789.27,290.44 789.40,276.47 789.43,317.72 789.54,233.17 789.73,223.08 789.92,283.46 790.04,287.15 790.07,331.27 790.19,299.69 790.38,319.15 790.57,219.97 790.68,247.64 790.71,318.18 790.84,314.21 791.03,232.30 791.22,260.81 791.32,269.42 791.36,336.50 791.49,330.28 791.69,225.00 791.87,245.01 791.96,272.25 792.00,274.65 792.14,310.93 792.34,265.80 792.52,314.70 792.60,277.71 792.65,386.36 792.79,284.39 792.99,290.30 793.16,332.13 793.24,373.77 793.29,380.03 793.44,259.95 793.64,389.41 793.81,298.58 793.88,336.70 793.94,321.79 794.10,254.79 794.30,171.34 794.46,297.44 794.52,196.45 794.58,241.89 794.75,267.64 794.95,318.60 795.10,362.85 795.16,252.31 795.23,366.54 795.40,261.10 795.60,361.76 795.75,279.46 795.80,245.98 795.88,284.71 796.05,250.98 796.25,363.04 796.39,261.83 796.43,397.05 796.52,330.46 796.70,322.31 796.90,326.70 797.04,326.06 797.07,257.68 797.17,254.51 797.36,296.86 797.55,242.85 797.68,347.43 797.71,266.71 797.82,200.66 798.01,279.31 798.20,287.86 798.32,247.59 798.36,326.16 798.47,310.06 798.66,296.69 798.85,246.30 798.97,256.55 799.00,339.40 799.12,381.34 799.31,264.38 799.50,401.93 799.61,275.07 799.64,354.53 799.77,261.67 799.97,249.53 800.15,282.18 800.25,350.65 800.28,246.07 800.42,296.44 800.62,308.74 800.80,311.87 800.89,303.29 800.93,363.79 801.07,265.10 801.27,382.36 801.45,253.53 801.53,304.59 801.57,233.31 801.72,290.24 801.92,311.68 802.09,328.88 802.17,253.09 802.22,249.52 802.38,270.75 802.58,393.76 802.74,339.77 802.80,200.61 802.86,273.32 803.03,344.18 803.23,239.21 803.39,223.90 803.44,317.96 803.51,277.19 803.68,316.32 803.88,258.69 804.03,256.80 804.08,252.16 804.16,336.47 804.33,378.21 804.53,262.13 804.68,275.94 804.72,229.39 804.81,269.64 804.98,294.82 805.18,196.85 805.32,310.83 805.36,264.79 805.45,386.33 805.64,249.64 805.83,375.99 805.97,296.05 806.00,260.73 806.10,260.03 806.29,275.78 806.48,296.70 806.61,284.12 806.64,253.71 806.75,297.47 806.94,238.58 807.13,227.55 807.25,302.28 807.28,381.17 807.40,255.34 807.59,322.21 807.78,350.69 807.89,267.20 807.92,355.75 808.05,259.55 808.25,282.71 808.43,369.66 808.53,358.92 808.57,301.40 808.70,329.43 808.90,285.75 809.08,285.89 809.17,355.92 809.21,378.67 809.35,337.66 809.55,349.41 809.73,239.68 809.81,282.63 809.86,305.90 810.00,319.33 810.20,316.01 810.38,374.48 810.45,332.70 810.50,240.03 810.66,363.64 810.86,302.55 811.02,273.56 811.09,168.62 811.15,328.98 811.31,217.17 811.51,288.24 811.67,220.95 811.73,234.11 811.79,406.33 811.96,355.86 812.16,279.78 812.32,282.76 812.37,266.05 812.44,341.98 812.61,337.78 812.81,268.66 812.96,286.08 813.00,277.58 813.09,265.92 813.26,296.19 813.46,319.17 813.61,345.53 813.64,259.49 813.74,351.33 813.92,235.96 814.11,416.05 814.25,275.60 814.28,326.05 814.38,363.02 814.57,280.33 814.76,280.70 814.89,381.59 814.92,250.35 815.03,288.28 815.22,376.28 815.41,246.19 815.54,380.78 815.57,278.97 815.68,354.66 815.87,231.07 816.06,294.80 816.18,274.00 816.21,291.27 816.33,294.48 816.53,327.01 816.71,344.15 816.82,347.61 816.85,310.64 816.98,268.64 817.18,183.56 817.36,355.86 817.46,317.48 817.50,355.06 817.63,382.56 817.83,328.78 818.01,248.77 818.10,358.80 818.14,265.37 818.28,234.11 818.48,195.20 818.66,254.06 818.74,308.55 818.78,322.33 818.94,254.01 819.14,223.13 819.31,253.08 819.38,269.48 819.43,273.27 819.59,235.32 819.79,361.26 819.95,382.19 820.01,263.87 820.08,210.41 820.24,261.47 820.44,232.49 820.60,329.31 820.65,229.50 820.72,232.32 820.89,293.09 821.09,347.15 821.24,289.23 821.29,370.74 821.37,287.68 821.54,317.69 821.74,331.39 821.89,389.10 821.93,240.37 822.02,293.73 822.20,238.60 822.39,279.99 822.53,317.05 822.57,358.34 822.67,325.20 822.85,294.01 823.04,368.63 823.18,277.76 823.21,344.63 823.31,248.72 823.50,223.65 823.70,293.50 823.82,248.60 823.85,323.98 823.96,253.21 824.15,302.39 824.35,285.13 824.46,320.90 824.49,301.94 824.61,327.09 824.81,337.16 824.99,297.87 825.10,324.46 825.14,259.41 825.26,288.35 825.46,251.34 825.64,250.41 825.74,273.41 825.78,335.92 825.91,298.91 826.11,274.65 826.29,280.13 826.38,283.47 826.42,379.26 826.57,275.47 826.76,225.67 826.94,265.28 827.02,312.31 827.07,319.33 827.22,341.46 827.42,293.05 827.59,352.88 827.66,278.19 827.71,260.03 827.87,263.84 828.07,381.02 828.23,352.49 828.30,233.16 828.36,239.97 828.52,281.71 828.72,297.73 828.88,364.69 828.94,192.64 829.00,325.37 829.17,332.23 829.37,337.29 829.53,253.71 829.58,319.79 829.65,352.66 829.82,374.94 830.02,250.63 830.17,291.94 830.21,300.37 830.30,343.87 830.48,322.53 830.67,233.14 830.82,255.83 830.85,294.63 830.95,290.13 831.13,243.07 831.33,294.49 831.46,257.94 831.49,279.93 831.60,351.47 831.78,289.68 831.98,301.33 832.10,295.85 832.13,299.23 832.25,370.76 832.43,230.06 832.63,212.72 832.75,316.84 832.78,317.12 832.90,406.03 833.09,200.11 833.28,325.34 833.39,331.52 833.42,313.90 833.54,181.71 833.74,288.80 833.92,296.77 834.03,372.81 834.06,291.50 834.19,311.51 834.39,281.17 834.57,381.59 834.67,249.59 834.71,280.32 834.85,277.32 835.04,284.89 835.22,376.07 835.31,258.39 835.35,253.49 835.50,253.36 835.70,296.70 835.87,349.25 835.95,361.24 835.99,318.86 836.15,372.88 836.35,361.67 836.52,232.68 836.59,362.08 836.64,303.25 836.80,241.23 837.00,342.56 837.16,351.14 837.22,196.78 837.29,292.59 837.45,261.24 837.65,250.07 837.81,265.42 837.86,279.74 837.93,352.76 838.10,225.64 838.30,333.37 838.45,288.90 838.50,260.61 838.58,285.46 838.76,292.37 838.96,379.62 839.10,351.86 839.14,305.98 839.23,316.46 839.41,329.80 839.61,302.95 839.74,271.21 839.78,243.80 839.88,270.78 840.06,319.28 840.26,332.32 840.39,294.57 840.42,381.80 840.53,365.64 840.71,244.71 840.91,264.94 841.03,242.21 841.06,276.86 841.18,270.72 841.37,289.75 841.56,351.96 841.67,288.93 841.70,332.55 841.83,363.08 842.02,328.82 842.21,350.02 842.31,295.29 842.35,303.14 842.48,358.79 842.67,270.99 842.86,257.93 842.95,242.12 842.99,264.86 843.13,264.41 843.32,303.53 843.50,273.10 843.59,309.10 843.63,292.22 843.78,253.96 843.98,225.33 844.15,338.40 844.23,324.41 844.28,241.24 844.43,338.86 844.63,237.12 844.80,238.06 844.87,248.90 844.92,287.45 845.08,304.91 845.28,235.22 845.45,375.90 845.51,186.85 845.57,345.13 845.73,267.82 845.93,413.43 846.09,389.39 846.15,201.51 846.22,278.08 846.38,235.03 846.58,333.42 846.74,346.28 846.78,391.90 846.86,318.06 847.04,367.82 847.24,378.63 847.38,241.53 847.42,252.27 847.51,308.46 847.69,289.24 847.89,354.69 848.03,370.85 848.06,285.95 848.16,241.51 848.34,243.20 848.54,209.86 848.67,242.41 848.70,285.62 848.81,367.22 848.99,316.04 849.19,335.71 849.31,340.31 849.34,290.93 849.46,343.12 849.65,238.82 849.84,355.14 849.96,394.62 849.99,402.47 850.11,302.55 850.30,262.32 850.49,376.90 850.60,266.85 850.63,330.26 850.76,259.58 850.95,304.13 851.14,333.74 851.24,237.34 851.27,321.42 851.41,196.02 851.60,266.71 851.79,358.48 851.88,308.01 851.92,404.08 852.06,243.52 852.26,239.49 852.43,267.17 852.52,230.53 852.56,337.08 852.71,272.54 852.91,259.92 853.08,259.93 853.16,343.84 853.21,277.12 853.36,270.56 853.56,314.48 853.73,273.07 853.79,227.37 853.85,406.70 854.01,287.58 854.21,304.05 854.37,264.10 854.43,374.12 854.50,292.68 854.66,288.25 854.86,324.08 855.02,359.61 855.07,280.16 855.14,325.02 855.32,309.89 855.52,220.48 855.66,255.44 855.71,354.53 855.79,333.12 855.97,321.87 856.17,280.43 856.31,325.44 856.35,330.77 856.44,250.66 856.62,355.35 856.82,277.15 856.95,252.88 856.99,311.18 857.09,274.03 857.27,285.34 857.47,291.83 857.60,387.07 857.63,267.24 857.74,258.20 857.93,324.80 858.12,287.77 858.24,221.50 858.27,267.61 858.39,307.18 858.58,223.61 858.77,246.66 858.88,311.52 858.91,281.71 859.04,239.63 859.23,370.02 859.42,250.47 859.52,274.53 859.56,287.87 859.69,312.14 859.88,331.02 860.07,225.85 860.16,255.76 860.20,265.21 860.34,342.13 860.54,246.15 860.71,263.06 860.80,256.98 860.84,299.53 860.99,322.86 861.19,339.98 861.36,284.62 861.44,352.13 861.49,337.31 861.64,305.77 861.84,268.05 862.01,280.02 862.08,311.73 862.13,282.76 862.29,274.06 862.49,232.39 862.66,297.86 862.72,273.36 862.78,315.70 862.94,376.96 863.14,273.72 863.30,306.49 863.36,294.96 863.43,261.19 863.60,295.82 863.80,299.00 863.95,243.53 863.99,276.12 864.07,340.55 864.25,205.70 864.45,352.37 864.59,349.70 864.63,292.37 864.72,311.23 864.90,252.91 865.10,281.98 865.24,282.47 865.27,301.61 865.37,308.80 865.55,156.98 865.75,284.07 865.88,322.67 865.91,262.41 866.02,319.50 866.21,283.14 866.40,345.74 866.52,282.68 866.55,280.04 866.67,271.32 866.86,319.09 867.05,241.99 867.17,238.56 867.20,315.50 867.32,198.37 867.51,322.51 867.70,281.78 867.81,281.80 867.84,324.60 867.97,254.35 868.16,318.57 868.35,407.83 868.45,343.61 868.48,276.71 868.62,263.59 868.82,360.44 869.00,373.06 869.09,305.14 869.13,351.55 869.27,252.67 869.47,379.97 869.64,297.94 869.73,253.19 869.77,299.83 869.92,276.90 870.12,318.49 870.29,379.77 870.37,346.14 870.42,300.70 870.57,346.87 870.77,255.95 870.94,302.12 871.00,342.35 871.06,303.49 871.22,314.79 871.42,307.21 871.59,294.54 871.64,236.03 871.71,256.27 871.88,276.12 872.08,298.34 872.23,316.63 872.28,350.07 872.36,340.51 872.53,197.35 872.73,352.36 872.88,219.00 872.92,255.96 873.00,324.72 873.18,346.64 873.38,225.34 873.52,366.77 873.56,354.80 873.65,231.49 873.83,345.94 874.03,213.13 874.16,405.49 874.20,281.71 874.30,327.21 874.49,284.86 874.68,294.98 874.81,289.53 874.84,309.72 874.95,333.55 875.14,250.05 875.33,286.52 875.45,341.69 875.48,243.29 875.60,278.46 875.79,316.75 875.98,347.48 876.09,411.45 876.12,329.64 876.25,318.77 876.44,332.12 876.63,222.18 876.73,315.73 876.77,300.17 876.90,326.27 877.10,276.82 877.28,332.16 877.37,287.79 877.41,299.57 877.55,252.64 877.75,267.22 877.93,356.01 878.01,237.71 878.05,302.17 878.20,249.28 878.40,246.50 878.57,316.37 878.65,299.81 878.70,280.38 878.85,358.92 879.05,264.26 879.22,281.75 879.29,241.42 879.35,293.13 879.51,268.26 879.71,261.53 879.87,332.67 879.93,247.21 879.99,326.08 880.16,245.15 880.36,387.87 880.51,313.27 880.56,291.84 880.64,336.08 880.81,339.66 881.01,282.48 881.16,325.16 881.20,375.27 881.29,253.85 881.46,244.86 881.66,265.50 881.80,242.93 881.84,324.37 881.93,265.15 882.11,286.67 882.31,266.29 882.45,290.69 882.48,354.31 882.58,244.92 882.77,304.61 882.96,213.36 883.09,220.79 883.12,283.41 883.23,280.30 883.42,381.60 883.61,265.32 883.73,382.95 883.76,310.27 883.88,369.51 884.07,272.11 884.26,282.25 884.38,361.26 884.41,395.43 884.53,326.43 884.72,235.07 884.91,260.07 885.02,249.62 885.05,308.44 885.18,325.33 885.38,256.03 885.56,317.19 885.66,377.11 885.69,315.96 885.83,270.71 886.03,240.33 886.21,323.37 886.30,255.21 886.34,286.13 886.48,348.47 886.68,406.80 886.86,258.42 886.94,339.60 886.98,283.17 887.13,304.28 887.33,238.22 887.50,381.08 887.57,238.19 887.61,366.71 887.72,292.44 887.85,253.50 887.96,275.18 888.00,318.52" fill="none" stroke="#000" stroke-width="1.5" opacity="0.9"/>
<text x="500.0" y="502" font-family="Times New Roman" font-size="19" text-anchor="middle">Julian Date</text>
<text transform="translate(18,247.0) rotate(-90)" font-family="Times New Roman" font-size="19" text-anchor="middle">position residual (km)</text>
</svg>
