<svg xmlns="http://www.w3.org/2000/svg" width="920" height="520" viewBox="0 0 920 520">
<rect width="100%" height="100%" fill="white"/>
<text x="460.0" y="24" font-family="Times New Roman" font-size="24" text-anchor="middle">Uranus native position residual</text>
<line x1="112" y1="434" x2="888" y2="434" stroke="#333"/>
<line x1="112" y1="60" x2="112" y2="434" stroke="#333"/>
<line x1="112" y1="434.00" x2="888" y2="434.00" stroke="#ddd"/>
<text x="104" y="438.00" font-family="Times New Roman" font-size="17" text-anchor="end">0</text>
<line x1="112" y1="340.50" x2="888" y2="340.50" stroke="#ddd"/>
<text x="104" y="344.50" font-family="Times New Roman" font-size="17" text-anchor="end">1.885</text>
<line x1="112" y1="247.00" x2="888" y2="247.00" stroke="#ddd"/>
<text x="104" y="251.00" font-family="Times New Roman" font-size="17" text-anchor="end">3.77</text>
<line x1="112" y1="153.50" x2="888" y2="153.50" stroke="#ddd"/>
<text x="104" y="157.50" font-family="Times New Roman" font-size="17" text-anchor="end">5.655</text>
<line x1="112" y1="60.00" x2="888" y2="60.00" stroke="#ddd"/>
<text x="104" y="64.00" font-family="Times New Roman" font-size="17" text-anchor="end">7.54</text>
<line x1="112.00" y1="434" x2="112.00" y2="439" stroke="#333"/>
<text x="112.00" y="456" font-family="Times New Roman" font-size="17" text-anchor="middle">2378495</text>
<line x1="306.00" y1="434" x2="306.00" y2="439" stroke="#333"/>
<text x="306.00" y="456" font-family="Times New Roman" font-size="17" text-anchor="middle">2433282</text>
<line x1="500.00" y1="434" x2="500.00" y2="439" stroke="#333"/>
<text x="500.00" y="456" font-family="Times New Roman" font-size="17" text-anchor="middle">2488070</text>
<line x1="694.00" y1="434" x2="694.00" y2="439" stroke="#333"/>
<text x="694.00" y="456" font-family="Times New Roman" font-size="17" text-anchor="middle">2542858</text>
<line x1="888.00" y1="434" x2="888.00" y2="439" stroke="#333"/>
<text x="888.00" y="456" font-family="Times New Roman" font-size="17" text-anchor="middle">2597645</text>
<polyline points="112.00,338.88 112.00,338.89 112.00,338.88 112.00,338.87 112.00,338.85 112.00,338.83 112.01,338.80 112.01,338.80 112.01,338.75 112.02,338.73 112.02,338.70 112.02,338.69 112.03,338.67 112.03,338.66 112.04,338.65 112.05,338.65 112.05,338.68 112.06,338.69 112.07,338.75 112.08,338.80 112.09,338.90 112.09,338.98 112.10,339.12 112.11,339.25 112.12,339.46 112.13,339.63 112.14,339.91 112.15,340.13 112.17,340.49 112.18,340.75 112.19,341.18 112.20,341.50 112.22,342.02 112.23,342.37 112.24,342.77 112.26,343.37 112.27,343.78 112.29,344.43 112.30,344.88 112.32,345.55 112.33,346.00 112.35,346.68 112.36,347.12 112.38,347.77 112.40,348.18 112.42,348.77 112.43,349.13 112.46,349.63 112.47,349.92 112.49,350.31 112.51,350.52 112.53,350.79 112.55,350.92 112.57,351.06 112.59,351.13 112.61,351.18 112.63,351.20 112.66,351.20 112.68,351.20 112.70,351.22 112.72,351.26 112.75,351.37 112.77,351.51 112.79,351.82 112.81,352.13 112.83,352.50 112.86,353.25 112.88,353.87 112.91,355.03 112.93,355.95 112.96,357.60 112.98,358.87 113.01,361.04 113.03,362.65 113.06,365.35 113.08,367.33 113.11,370.54 113.13,372.80 113.16,376.42 113.18,378.94 113.22,382.83 113.24,385.47 113.27,389.41 113.29,392.00 113.32,395.68 113.35,397.95 113.38,400.94 113.40,402.56 113.44,404.36 113.46,405.07 113.49,405.40 113.51,405.17 113.55,404.29 113.57,403.44 113.60,401.94 113.63,400.90 113.66,399.39 113.68,398.46 113.71,397.68 113.74,396.76 113.76,396.35 113.80,396.06 113.82,396.08 113.85,396.36 113.88,396.70 113.91,397.36 113.93,397.82 113.97,398.34 113.99,398.51 114.02,398.25 114.05,397.65 114.08,395.99 114.10,394.33 114.14,391.08 114.16,388.45 114.19,383.94 114.22,380.66 114.25,375.49 114.27,371.95 114.31,366.69 114.33,363.27 114.36,358.42 114.38,355.42 114.41,351.37 114.44,349.03 114.47,346.12 114.49,344.59 114.52,343.00 114.54,342.38 114.58,342.17 114.60,342.47 114.62,343.12 114.65,344.68 114.67,346.06 114.70,348.56 114.72,350.42 114.75,353.39 114.77,355.38 114.80,358.22 114.82,359.91 114.85,361.99 114.87,363.00 114.90,363.86 114.92,363.98 114.94,363.52 114.96,362.85 114.99,361.43 115.01,360.32 115.03,358.56 115.05,357.45 115.08,356.03 115.09,355.33 115.12,354.81 115.14,354.86 115.16,355.62 115.18,356.59 115.20,358.83 115.22,360.85 115.24,364.60 115.26,367.59 115.28,372.72 115.29,376.55 115.31,382.74 115.33,387.10 115.34,391.54 115.36,398.13 115.38,402.23 115.40,407.33 115.41,409.53 115.43,410.22 115.44,408.83 115.46,404.56 115.47,400.76 115.48,394.41 115.50,390.00 115.51,383.41 115.52,379.17 115.54,373.11 115.55,369.38 115.56,364.24 115.57,361.16 115.58,357.08 115.59,354.71 115.60,351.71 115.61,350.06 115.62,348.10 115.63,347.12 115.64,346.08 115.65,345.64 115.66,345.36 115.66,345.38 115.67,345.69 115.67,346.02 115.68,346.71 115.69,347.27 115.69,347.86 115.70,348.79 115.70,349.44 115.70,350.38 115.71,350.98 115.71,351.81 115.71,352.29 115.71,352.93 115.72,353.27 115.72,353.67 115.72,353.84 115.72,353.95 115.72,262.85 115.72,263.90 115.72,265.92 115.73,269.04 115.74,269.46 115.76,264.70 115.77,257.19 115.80,240.84 115.82,228.73 115.85,213.09 115.88,206.46 115.92,203.90 115.95,206.54 116.00,213.37 116.03,216.79 116.09,216.61 116.13,213.53 116.20,210.30 116.24,213.62 116.32,233.03 116.37,257.06 116.42,289.01 116.50,343.08 116.56,367.45 116.65,349.21 116.71,320.35 116.81,288.53 116.88,282.62 116.99,300.74 117.06,329.22 117.17,380.74 117.25,380.13 117.37,315.75 117.45,271.01 117.58,222.29 117.67,207.59 117.80,216.03 117.89,241.21 118.03,302.08 118.13,350.39 118.28,383.91 118.38,345.92 118.53,279.88 118.64,245.34 118.80,213.82 118.91,206.57 119.07,213.85 119.19,228.19 119.36,257.84 119.48,279.27 119.65,306.84 119.77,318.01 119.96,320.69 120.08,315.78 120.21,309.84 120.40,307.11 120.53,313.00 120.73,334.62 120.86,354.31 121.07,371.78 121.20,358.74 121.41,316.05 121.55,286.84 121.76,253.74 121.90,241.73 122.12,239.78 122.27,247.12 122.49,263.17 122.64,271.61 122.86,273.08 123.01,266.31 123.24,252.08 123.40,244.71 123.63,242.47 123.79,248.70 124.02,269.96 124.18,290.90 124.42,328.61 124.58,351.89 124.82,362.92 124.99,348.61 125.23,316.99 125.40,299.95 125.65,288.77 125.81,292.77 125.98,304.70 126.23,326.95 126.40,332.27 126.65,308.93 126.82,279.63 127.08,234.92 127.25,211.04 127.50,189.52 127.67,185.01 127.93,189.77 128.10,197.95 128.36,212.22 128.54,220.35 128.80,227.43 128.97,227.04 129.23,217.65 129.40,206.22 129.66,187.13 129.84,177.82 130.10,175.18 130.27,183.25 130.53,209.81 130.71,233.77 130.97,271.00 131.14,291.42 131.40,312.75 131.57,324.60 131.83,344.19 132.00,354.52 132.26,343.99 132.43,318.80 132.69,276.86 132.86,258.14 133.03,253.36 133.28,277.55 133.45,313.84 133.70,382.92 133.87,379.80 134.12,297.93 134.28,247.40 134.53,198.92 134.69,189.90 134.94,210.27 135.10,241.36 135.34,297.49 135.50,325.99 135.74,334.64 135.90,326.92 136.13,321.80 136.29,327.10 136.52,335.90 136.67,329.33 136.90,297.85 137.05,272.34 137.27,242.95 137.42,234.12 137.64,238.65 137.79,251.88 138.00,281.83 138.14,304.02 138.35,331.69 138.49,341.16 138.70,338.33 138.83,328.50 139.03,310.56 139.17,300.08 139.30,292.46 139.49,287.44 139.62,288.08 139.80,292.75 139.93,296.78 140.11,301.96 140.23,303.30 140.41,298.48 140.52,288.59 140.69,263.26 140.80,241.96 140.97,211.28 141.07,196.96 141.23,192.28 141.34,203.20 141.49,241.75 141.59,280.39 141.73,349.11 141.82,386.63 141.96,359.41 142.05,319.46 142.18,271.96 142.27,253.11 142.39,243.64 142.47,246.13 142.59,252.37 142.67,251.86 142.78,240.78 142.85,230.27 142.95,219.87 143.02,220.87 143.11,236.50 143.17,254.28 143.23,273.74 143.32,293.33 143.37,292.31 143.45,271.21 143.50,252.02 143.57,227.53 143.61,217.80 143.67,215.04 143.71,220.48 143.76,236.63 143.80,250.50 143.84,272.08 143.87,285.07 143.91,300.32 143.93,307.24 143.96,313.18 143.98,314.87 144.00,315.22 144.02,314.62 144.03,313.26 144.04,312.36 144.04,311.40 144.05,311.14 144.05,202.36 144.05,202.88 144.05,205.16 144.06,207.92 144.08,214.56 144.09,221.08 144.11,234.67 144.13,246.48 144.15,260.35 144.18,283.53 144.21,298.19 144.25,311.13 144.28,308.12 144.33,283.38 144.36,257.38 144.42,213.45 144.46,185.50 144.52,151.75 144.57,137.55 144.64,132.19 144.69,140.44 144.77,171.02 144.83,202.93 144.92,265.35 144.98,314.04 145.07,386.95 145.14,391.58 145.24,319.91 145.31,269.83 145.42,203.96 145.50,168.86 145.62,132.37 145.70,119.64 145.82,117.77 145.91,126.74 146.04,151.32 146.13,171.58 146.27,200.51 146.36,214.89 146.51,225.91 146.60,227.48 146.70,226.86 146.86,225.85 146.96,226.06 147.12,226.22 147.23,224.90 147.40,220.54 147.51,217.96 147.69,220.06 147.80,228.26 147.98,252.33 148.10,273.92 148.29,302.48 148.41,308.35 148.60,292.21 148.73,274.71 148.93,257.08 149.06,256.93 149.26,275.40 149.39,293.86 149.60,303.31 149.74,282.74 149.95,225.28 150.09,185.38 150.30,141.26 150.45,127.37 150.67,131.33 150.82,147.96 151.04,185.32 151.19,212.65 151.42,251.33 151.57,276.03 151.80,315.90 151.96,344.86 152.11,368.48 152.35,356.79 152.51,324.33 152.75,277.45 152.91,257.34 153.15,249.66 153.32,256.72 153.56,270.12 153.73,268.17 153.97,240.45 154.14,213.66 154.39,179.13 154.56,166.46 154.81,166.11 154.98,176.15 155.23,198.86 155.40,214.58 155.66,235.08 155.83,246.91 156.09,264.06 156.26,274.72 156.52,282.06 156.69,276.07 156.95,251.37 157.12,230.30 157.38,203.17 157.56,192.22 157.82,188.62 157.99,193.70 158.25,207.96 158.43,218.96 158.60,229.78 158.86,244.90 159.03,253.92 159.29,262.41 159.47,260.30 159.73,239.69 159.90,216.68 160.16,180.20 160.33,162.10 160.59,154.73 160.76,166.53 161.02,208.83 161.19,248.54 161.44,302.22 161.61,307.72 161.86,260.73 162.03,219.22 162.28,172.70 162.45,160.01 162.69,172.39 162.86,199.61 163.10,255.57 163.27,286.05 163.51,282.53 163.67,248.86 163.91,190.28 164.07,160.68 164.30,141.02 164.46,145.72 164.69,176.22 164.85,206.67 165.08,253.58 165.23,275.33 165.38,282.57 165.60,269.48 165.75,254.79 165.97,236.56 166.11,229.97 166.33,228.63 166.47,231.83 166.68,238.69 166.82,242.67 167.03,245.17 167.16,243.59 167.36,236.55 167.49,230.10 167.69,221.51 167.82,218.41 168.01,219.97 168.13,225.42 168.32,238.02 168.44,246.81 168.62,256.07 168.73,259.02 168.91,261.57 169.02,264.94 169.19,276.24 169.29,287.78 169.46,304.98 169.56,310.12 169.71,301.92 169.81,289.48 169.96,273.41 170.06,271.02 170.20,286.29 170.29,309.47 170.38,339.97 170.51,371.56 170.60,349.03 170.72,279.50 170.80,231.99 170.92,174.20 170.99,149.45 171.10,137.20 171.18,145.85 171.28,180.58 171.34,214.08 171.44,268.67 171.50,298.39 171.59,314.54 171.64,305.26 171.72,280.37 171.78,265.80 171.85,252.76 171.89,249.60 171.96,249.33 172.00,249.23 172.06,245.61 172.09,240.43 172.14,230.40 172.17,223.96 172.21,217.11 172.24,215.18 172.27,216.27 172.29,219.19 172.32,225.60 172.33,230.44 172.35,237.40 172.36,241.36 172.37,244.51 172.37,247.50 172.37,248.25 172.37,293.52 172.37,296.41 172.38,307.76 172.39,319.69 172.40,342.99 172.41,360.88 172.44,386.48 172.45,395.57 172.49,384.12 172.51,366.81 172.55,338.58 172.57,320.47 172.62,295.21 172.65,279.63 172.71,258.49 172.75,246.57 172.81,233.97 172.85,230.29 172.92,232.64 172.97,238.50 173.05,248.68 173.10,251.91 173.19,245.38 173.25,233.84 173.34,213.16 173.40,202.47 173.50,197.68 173.57,203.25 173.64,214.73 173.75,236.48 173.83,248.00 173.94,252.97 174.03,249.11 174.15,243.11 174.23,245.80 174.37,267.08 174.46,293.60 174.59,345.92 174.69,374.75 174.83,350.94 174.93,308.02 175.08,244.94 175.19,210.79 175.34,175.62 175.45,163.01 175.62,157.96 175.73,161.66 175.90,174.20 176.01,185.74 176.19,207.25 176.31,225.05 176.49,258.10 176.61,284.50 176.80,329.04 176.93,359.03 177.12,385.30 177.25,371.68 177.45,327.60 177.59,296.25 177.79,253.12 177.93,228.34 178.06,207.38 178.28,183.65 178.42,173.31 178.63,167.46 178.78,171.30 179.00,191.02 179.14,213.95 179.37,259.87 179.52,291.63 179.75,313.57 179.90,295.93 180.13,241.50 180.29,204.68 180.52,166.08 180.68,156.37 180.92,166.85 181.08,186.67 181.32,222.88 181.48,240.94 181.72,246.32 181.89,238.68 182.14,226.15 182.30,223.34 182.55,227.60 182.72,230.37 182.97,222.79 183.14,208.67 183.39,184.30 183.56,173.90 183.82,175.80 183.99,189.73 184.24,224.52 184.42,250.38 184.59,271.84 184.85,287.23 185.02,286.82 185.28,279.18 185.45,273.52 185.71,267.95 185.89,267.76 186.15,275.62 186.32,286.10 186.58,301.81 186.75,301.61 187.01,273.64 187.19,243.91 187.45,202.91 187.62,186.47 187.88,183.42 188.06,193.93 188.31,218.79 188.49,233.62 188.74,243.19 188.92,241.51 189.17,235.76 189.34,234.71 189.60,239.22 189.77,244.58 190.02,251.20 190.19,252.30 190.44,248.42 190.61,243.74 190.86,237.15 191.02,234.50 191.19,233.84 191.43,237.38 191.59,243.39 191.84,257.37 192.00,268.71 192.24,282.92 192.40,284.91 192.63,269.90 192.79,250.74 193.02,219.99 193.18,204.77 193.40,197.46 193.56,205.11 193.78,234.88 193.93,263.86 194.15,311.65 194.30,338.28 194.51,355.05 194.66,351.77 194.87,344.59 195.01,344.98 195.22,352.46 195.35,355.64 195.56,343.96 195.69,325.54 195.89,293.07 196.02,272.89 196.21,248.25 196.34,235.62 196.52,220.23 196.64,210.79 196.83,197.42 196.94,190.13 197.06,185.37 197.23,185.07 197.35,190.18 197.51,205.52 197.62,219.57 197.78,242.25 197.89,255.73 198.04,270.01 198.14,275.12 198.29,279.01 198.39,282.04 198.53,291.60 198.62,302.12 198.75,319.17 198.84,323.22 198.97,304.09 199.05,276.66 199.17,229.13 199.25,201.52 199.36,176.55 199.43,174.75 199.54,197.02 199.61,227.49 199.70,288.95 199.77,329.13 199.86,341.55 199.92,308.82 200.00,248.49 200.05,216.39 200.13,190.33 200.18,189.45 200.24,211.48 200.29,238.85 200.33,272.79 200.38,326.12 200.42,352.99 200.47,357.20 200.50,340.43 200.54,312.75 200.57,299.54 200.60,290.41 200.62,290.91 200.64,299.00 200.66,307.44 200.68,321.49 200.69,330.19 200.70,340.31 200.70,344.43 200.70,346.30 200.70,340.42 200.70,340.69 200.71,340.98 200.72,341.13 200.73,340.61 200.75,338.06 200.76,334.65 200.79,326.43 200.81,318.79 200.85,304.54 200.87,293.64 200.92,276.24 200.95,264.61 201.00,248.25 201.04,238.70 201.09,227.43 201.14,222.49 201.18,220.00 201.25,221.46 201.30,226.13 201.38,238.73 201.43,250.62 201.51,272.86 201.57,289.84 201.67,316.95 201.73,335.19 201.83,361.58 201.90,377.99 202.01,397.82 202.08,400.27 202.19,377.91 202.27,353.08 202.39,309.68 202.48,279.57 202.61,237.36 202.69,213.99 202.83,190.66 202.92,185.24 203.06,194.75 203.16,213.07 203.31,256.50 203.41,293.30 203.57,350.63 203.67,375.72 203.83,357.12 203.94,327.65 204.11,290.48 204.23,275.39 204.34,268.63 204.52,270.74 204.64,275.40 204.82,276.03 204.94,267.37 205.13,243.05 205.26,225.24 205.45,206.15 205.58,202.23 205.78,211.51 205.91,226.05 206.12,251.63 206.25,263.53 206.46,262.68 206.60,250.19 206.82,225.33 206.96,211.89 207.18,202.45 207.32,203.60 207.55,212.99 207.70,220.43 207.92,226.17 208.07,224.55 208.30,217.49 208.46,213.64 208.69,215.52 208.85,223.95 209.09,247.83 209.24,269.38 209.48,302.91 209.65,319.39 209.89,322.35 210.05,309.14 210.22,289.42 210.46,257.06 210.63,237.54 210.88,214.93 211.05,204.96 211.30,198.47 211.47,200.33 211.72,211.64 211.89,224.05 212.14,247.55 212.31,263.59 212.57,283.31 212.74,290.48 213.00,289.92 213.17,284.58 213.43,274.80 213.61,270.19 213.87,269.40 214.04,272.88 214.30,282.63 214.47,291.02 214.73,302.75 214.91,308.36 215.17,311.64 215.34,309.73 215.60,302.33 215.78,295.38 216.04,283.51 216.21,276.21 216.47,268.44 216.64,266.52 216.90,270.69 217.07,278.84 217.24,290.78 217.50,313.42 217.67,328.30 217.93,339.20 218.10,333.11 218.35,306.77 218.52,283.42 218.77,248.01 218.93,226.93 219.18,201.73 219.35,190.21 219.60,181.93 219.76,182.77 220.00,194.06 220.16,208.33 220.41,238.94 220.56,264.00 220.80,303.33 220.96,324.70 221.19,334.74 221.35,324.41 221.58,297.15 221.73,279.47 221.96,261.79 222.11,257.43 222.33,260.68 222.48,267.38 222.70,279.45 222.84,285.54 223.06,289.19 223.20,289.06 223.34,288.90 223.54,292.14 223.68,298.50 223.88,314.75 224.02,328.37 224.21,347.28 224.34,354.52 224.54,353.44 224.66,347.41 224.85,338.74 224.97,336.37 225.15,338.27 225.27,340.09 225.45,333.82 225.56,319.45 225.73,285.35 225.84,259.20 226.00,223.02 226.11,204.43 226.27,188.36 226.37,185.91 226.52,192.16 226.62,199.62 226.76,208.32 226.85,208.97 226.99,201.60 227.08,194.17 227.21,187.08 227.29,189.10 227.42,206.23 227.50,227.19 227.61,268.37 227.69,295.75 227.76,313.84 227.87,306.77 227.93,283.03 228.03,241.07 228.10,217.77 228.19,197.58 228.24,195.81 228.33,210.55 228.38,230.22 228.46,268.40 228.50,293.69 228.57,315.97 228.61,312.48 228.67,285.01 228.71,261.24 228.76,228.38 228.80,211.39 228.84,195.22 228.87,190.62 228.91,191.75 228.93,196.75 228.96,208.43 228.97,217.75 228.99,232.04 229.00,240.86 229.02,251.82 229.02,257.12 229.03,261.59 229.03,262.15 229.03,276.21 229.03,273.21 229.04,264.13 229.05,255.07 229.06,243.83 229.08,223.80 229.09,209.34 229.12,188.13 229.14,175.69 229.18,161.76 229.20,156.59 229.24,155.87 229.28,160.04 229.33,172.48 229.36,184.09 229.42,204.83 229.46,219.59 229.53,239.68 229.58,248.33 229.65,246.68 229.70,233.34 229.78,198.74 229.84,171.77 229.93,136.79 229.99,122.85 230.09,122.93 230.16,138.55 230.26,182.38 230.33,218.77 230.44,261.35 230.52,264.58 230.64,231.05 230.72,201.34 230.85,172.02 230.93,170.54 231.07,198.76 231.16,234.24 231.25,274.86 231.39,310.71 231.49,294.38 231.64,237.16 231.74,202.04 231.89,172.97 232.00,171.91 232.16,191.18 232.27,208.39 232.44,219.67 232.55,211.49 232.73,187.25 232.84,175.22 233.02,178.30 233.15,196.47 233.33,237.73 233.46,259.09 233.65,249.91 233.78,217.35 233.97,160.03 234.11,130.97 234.31,112.79 234.44,118.52 234.65,148.14 234.79,175.69 235.00,216.27 235.14,237.79 235.36,262.48 235.50,278.10 235.73,304.55 235.87,320.51 236.02,327.57 236.25,314.59 236.40,298.37 236.63,282.39 236.79,283.79 237.02,302.36 237.18,315.44 237.41,305.82 237.57,276.71 237.81,226.89 237.97,204.14 238.22,200.15 238.38,221.05 238.63,283.67 238.79,336.40 239.04,367.54 239.21,323.84 239.46,254.80 239.62,226.49 239.88,219.18 240.05,235.78 240.30,273.87 240.47,286.47 240.73,259.09 240.90,223.13 241.16,176.48 241.33,160.05 241.59,160.96 241.76,174.67 242.02,198.65 242.19,205.52 242.45,194.22 242.63,177.63 242.80,162.04 243.06,153.60 243.24,162.31 243.50,198.33 243.67,235.78 243.93,303.34 244.10,346.46 244.36,370.16 244.54,347.85 244.80,309.68 244.97,294.82 245.23,293.82 245.40,306.52 245.66,336.32 245.83,350.57 246.08,334.45 246.25,303.09 246.51,251.16 246.68,221.78 246.93,193.07 247.10,186.52 247.35,196.71 247.51,215.54 247.76,258.55 247.92,294.23 248.17,350.39 248.33,378.06 248.57,361.84 248.73,326.02 248.97,268.91 249.13,233.94 249.37,190.16 249.52,168.65 249.68,154.23 249.91,146.27 250.06,149.73 250.29,166.14 250.44,182.86 250.66,212.89 250.81,234.21 251.03,265.10 251.17,283.05 251.38,301.23 251.52,304.28 251.73,292.67 251.87,276.21 252.08,245.42 252.21,224.64 252.41,197.87 252.54,184.45 252.74,172.10 252.86,169.67 253.05,175.87 253.18,187.33 253.36,216.11 253.48,242.18 253.66,285.15 253.77,305.65 253.95,296.11 254.06,262.86 254.22,199.58 254.33,160.81 254.49,120.54 254.59,110.13 254.70,114.88 254.85,150.30 254.94,190.22 255.09,264.37 255.18,310.75 255.32,329.01 255.41,297.71 255.54,237.36 255.62,205.45 255.74,180.30 255.82,179.73 255.94,198.96 256.01,219.21 256.12,244.33 256.19,247.02 256.29,225.17 256.36,200.88 256.45,166.29 256.51,151.07 256.60,145.67 256.65,154.37 256.73,183.31 256.78,209.93 256.85,252.27 256.90,275.65 256.96,292.73 257.00,290.73 257.06,276.74 257.09,266.86 257.14,258.50 257.17,258.93 257.21,268.68 257.23,280.30 257.25,294.88 257.28,319.76 257.30,336.66 257.32,359.82 257.33,372.48 257.34,385.82 257.35,390.86 257.36,394.09 257.36,268.95 257.36,269.29 257.36,270.77 257.37,275.11 257.38,279.27 257.39,286.89 257.40,292.33 257.43,299.69 257.45,302.92 257.48,303.35 257.50,300.05 257.54,290.16 257.57,281.45 257.62,268.18 257.65,261.07 257.71,255.94 257.75,257.62 257.81,269.44 257.86,283.82 257.93,314.16 257.98,338.24 258.06,370.40 258.11,375.26 258.20,347.52 258.26,319.85 258.32,292.58 258.42,258.39 258.48,242.03 258.59,227.94 258.66,224.80 258.77,226.47 258.85,229.50 258.97,233.33 259.05,234.38 259.17,234.58 259.26,235.45 259.39,240.80 259.48,247.89 259.62,262.76 259.72,273.39 259.87,284.88 259.96,286.56 260.12,279.31 260.22,270.58 260.38,257.93 260.49,252.85 260.65,252.86 260.77,258.04 260.94,271.72 261.05,282.60 261.23,296.25 261.35,300.72 261.54,299.16 261.66,294.77 261.85,289.42 261.98,290.02 262.17,300.45 262.30,313.40 262.43,328.21 262.64,339.46 262.77,328.64 262.98,288.21 263.12,255.69 263.33,212.55 263.47,192.80 263.69,182.01 263.83,188.63 264.05,216.89 264.20,243.76 264.43,284.31 264.58,302.47 264.80,307.70 264.96,302.68 265.19,300.62 265.35,309.85 265.58,342.51 265.74,371.17 265.98,374.96 266.14,336.63 266.38,269.67 266.54,231.81 266.79,195.84 266.95,189.00 267.20,206.36 267.37,234.07 267.62,289.35 267.78,322.40 268.04,325.76 268.21,295.08 268.37,257.49 268.63,209.07 268.80,187.99 269.06,176.17 269.23,180.40 269.48,200.92 269.66,220.65 269.92,251.74 270.09,268.22 270.35,278.15 270.52,273.01 270.78,253.98 270.96,240.19 271.22,227.35 271.39,228.17 271.65,245.96 271.82,267.09 272.08,301.35 272.26,311.98 272.52,290.33 272.69,259.56 272.95,213.56 273.12,192.04 273.38,179.59 273.56,184.59 273.81,206.73 273.98,225.03 274.24,244.99 274.41,248.79 274.67,242.37 274.83,235.19 275.09,227.00 275.26,224.50 275.42,223.80 275.67,225.19 275.84,228.62 276.09,241.54 276.25,257.91 276.50,296.96 276.66,331.68 276.90,387.09 277.06,397.51 277.30,350.00 277.46,317.37 277.69,283.45 277.85,272.22 278.08,268.09 278.24,267.98 278.46,259.89 278.61,246.22 278.84,220.04 278.99,205.61 279.21,197.48 279.35,202.88 279.57,224.10 279.71,241.61 279.92,259.33 280.06,259.40 280.27,244.96 280.40,232.90 280.61,221.48 280.74,221.43 280.93,233.36 281.06,247.91 281.25,275.98 281.38,297.01 281.50,318.79 281.69,349.99 281.81,365.51 281.99,367.90 282.10,354.58 282.27,326.16 282.39,307.65 282.55,284.14 282.66,270.52 282.82,248.75 282.92,231.29 283.08,201.46 283.17,182.51 283.32,163.59 283.42,161.73 283.56,180.23 283.65,207.67 283.78,268.15 283.87,314.98 283.99,360.92 284.07,341.44 284.19,279.83 284.27,243.99 284.38,212.86 284.45,210.11 284.56,232.31 284.62,260.86 284.72,308.73 284.78,325.31 284.87,299.94 284.93,263.80 284.98,227.26 285.06,185.22 285.11,169.82 285.18,167.45 285.23,178.55 285.29,209.48 285.33,235.57 285.39,274.12 285.42,293.62 285.47,305.53 285.50,301.80 285.54,286.29 285.56,274.01 285.59,257.08 285.61,247.68 285.64,236.50 285.65,230.76 285.66,224.17 285.67,220.95 285.68,217.75 285.68,216.69 285.68,220.01 285.68,219.37 285.69,214.14 285.70,207.35 285.71,191.80 285.72,178.28 285.74,155.69 285.76,141.49 285.79,126.73 285.81,124.48 285.84,137.25 285.87,158.29 285.90,189.58 285.95,252.25 285.98,297.72 286.04,336.21 286.08,314.54 286.14,245.86 286.19,200.69 286.26,150.78 286.31,133.38 286.39,132.20 286.44,145.87 286.53,180.52 286.59,207.25 286.68,243.24 286.75,261.10 286.85,278.57 286.92,285.52 287.03,288.07 287.10,281.90 287.22,259.58 287.30,239.98 287.42,214.82 287.50,207.09 287.63,216.28 287.72,238.05 287.86,293.27 287.95,342.49 288.10,416.28 288.19,371.57 288.34,281.86 288.45,227.29 288.60,161.23 288.71,131.31 288.82,115.09 288.98,119.54 289.09,142.58 289.27,205.40 289.38,262.39 289.56,355.29 289.68,383.86 289.86,318.33 289.99,273.84 290.18,239.11 290.30,242.57 290.50,287.60 290.63,337.03 290.83,372.23 290.96,316.36 291.17,219.80 291.31,170.67 291.52,135.96 291.66,142.40 291.87,194.41 292.01,251.52 292.23,353.01 292.38,402.43 292.60,336.49 292.75,289.23 292.98,239.60 293.13,216.56 293.36,185.53 293.52,164.25 293.75,137.57 293.91,130.78 294.15,147.34 294.31,175.96 294.47,211.80 294.71,248.50 294.87,240.09 295.12,190.87 295.28,158.28 295.53,136.77 295.69,146.73 295.94,195.12 296.11,241.74 296.36,307.96 296.53,324.11 296.79,292.14 296.96,258.65 297.21,214.87 297.38,193.15 297.64,171.85 297.81,166.12 298.07,174.42 298.24,193.30 298.50,243.88 298.68,290.23 298.94,359.76 299.11,364.29 299.37,296.45 299.54,248.05 299.80,194.40 299.98,175.25 300.24,171.94 300.41,183.05 300.67,209.29 300.85,225.38 301.02,234.34 301.28,232.25 301.45,223.72 301.71,208.79 301.88,201.02 302.14,193.70 302.31,190.66 302.57,186.91 302.74,184.16 302.99,180.83 303.16,181.51 303.42,191.94 303.58,207.70 303.83,247.41 304.00,284.05 304.25,343.21 304.41,362.03 304.66,317.09 304.82,269.35 305.07,205.52 305.23,175.06 305.47,152.75 305.63,153.05 305.86,169.24 306.02,183.43 306.25,196.61 306.41,196.07 306.64,187.18 306.79,183.16 307.02,189.85 307.17,204.54 307.39,236.03 307.54,254.34 307.68,261.45 307.90,244.92 308.04,223.35 308.25,193.87 308.39,183.03 308.60,184.88 308.73,197.34 308.93,226.45 309.07,247.48 309.26,273.30 309.39,284.07 309.58,291.60 309.71,293.66 309.89,294.23 310.02,291.39 310.20,278.77 310.31,265.01 310.49,240.45 310.60,224.69 310.77,206.84 310.88,200.37 311.04,199.31 311.15,203.60 311.30,215.07 311.40,224.37 311.55,237.38 311.65,243.05 311.79,243.28 311.88,236.91 312.02,219.30 312.11,204.91 312.24,185.06 312.32,176.14 312.40,172.69 312.52,180.15 312.60,193.97 312.71,226.64 312.78,254.27 312.88,297.70 312.95,320.85 313.05,329.98 313.11,316.41 313.20,282.43 313.26,259.36 313.34,231.50 313.39,219.07 313.46,209.80 313.51,208.99 313.58,213.28 313.62,218.30 313.68,227.00 313.71,232.99 313.76,242.32 313.80,249.22 313.84,261.40 313.86,270.95 313.90,287.12 313.92,298.64 313.95,315.80 313.96,326.35 313.98,339.74 313.99,346.64 314.00,353.79 314.01,356.62 314.01,358.11 314.01,271.50 314.01,270.96 314.02,266.76 314.02,261.89 314.04,252.41 314.05,245.54 314.07,236.52 314.08,232.88 314.11,233.72 314.13,239.96 314.17,259.72 314.20,280.24 314.24,320.86 314.28,351.61 314.33,383.08 314.37,368.78 314.43,316.27 314.47,278.76 314.54,229.05 314.58,203.18 314.66,178.38 314.71,172.25 314.80,179.65 314.85,195.76 314.94,236.03 315.01,272.61 315.11,338.17 315.17,383.01 315.28,384.34 315.35,341.84 315.47,284.81 315.54,259.37 315.62,247.51 315.75,258.43 315.83,284.81 315.96,347.25 316.05,390.33 316.19,352.78 316.28,297.25 316.42,225.68 316.52,194.13 316.67,179.36 316.77,193.08 316.93,246.51 317.04,299.27 317.20,383.48 317.31,376.59 317.48,290.22 317.59,237.98 317.77,183.40 317.89,165.82 318.07,167.29 318.19,184.23 318.38,226.07 318.50,259.39 318.70,306.28 318.83,328.77 319.02,343.65 319.16,344.71 319.36,345.61 319.50,350.69 319.70,365.25 319.84,371.27 320.06,350.34 320.20,317.70 320.34,279.03 320.56,222.75 320.71,193.75 320.93,172.64 321.08,176.94 321.31,212.56 321.46,252.96 321.69,320.91 321.85,341.31 322.08,294.38 322.24,246.73 322.48,190.93 322.63,172.40 322.88,176.08 323.04,197.38 323.28,245.15 323.44,275.02 323.69,292.75 323.86,284.34 324.11,263.67 324.27,255.49 324.52,255.18 324.69,257.95 324.94,251.57 325.11,236.47 325.37,205.91 325.54,188.73 325.80,179.96 325.97,188.73 326.23,222.35 326.40,255.05 326.66,308.81 326.83,337.94 327.00,351.61 327.26,340.45 327.44,324.86 327.70,303.37 327.87,290.73 328.13,270.90 328.31,254.76 328.57,226.39 328.74,207.28 329.00,183.99 329.17,175.20 329.43,175.50 329.61,184.75 329.87,209.56 330.04,230.67 330.30,264.81 330.47,288.98 330.73,328.86 330.90,355.22 331.15,360.86 331.32,326.37 331.57,254.82 331.74,209.89 331.99,163.37 332.16,152.82 332.41,171.99 332.58,207.05 332.82,282.08 332.99,330.40 333.23,335.78 333.39,296.63 333.56,257.64 333.80,225.08 333.95,226.19 334.19,261.08 334.35,301.96 334.58,371.43 334.74,385.79 334.97,332.27 335.12,297.57 335.34,270.01 335.49,270.81 335.72,297.89 335.86,327.42 336.08,365.51 336.22,360.88 336.44,317.04 336.58,286.18 336.79,252.03 336.92,239.36 337.13,234.15 337.26,237.12 337.46,245.46 337.59,251.01 337.78,257.04 337.91,259.64 338.10,263.35 338.22,267.13 338.40,276.13 338.52,284.24 338.70,298.13 338.81,307.02 338.98,316.72 339.10,319.78 339.21,320.71 339.37,321.50 339.47,323.41 339.63,328.26 339.73,330.45 339.88,326.19 339.98,317.00 340.12,298.41 340.21,287.73 340.35,281.78 340.43,287.04 340.56,308.63 340.65,329.21 340.77,357.03 340.85,362.13 340.96,346.45 341.03,332.69 341.14,322.90 341.21,327.13 341.31,347.26 341.37,360.82 341.47,349.44 341.53,318.40 341.61,261.75 341.66,226.84 341.74,187.57 341.79,172.57 341.86,167.24 341.90,173.24 341.97,190.19 342.00,201.86 342.06,211.84 342.09,210.99 342.12,204.66 342.17,189.44 342.19,178.79 342.23,165.97 342.25,160.53 342.28,157.04 342.29,157.22 342.31,159.79 342.32,162.20 342.33,165.68 342.34,167.41 342.34,168.65 342.34,168.68 342.34,355.37 342.34,355.97 342.35,356.64 342.36,356.16 342.38,352.62 342.40,347.80 342.42,336.75 342.44,327.31 342.47,311.33 342.50,300.30 342.54,284.51 342.57,275.09 342.62,263.23 342.66,256.92 342.71,249.35 342.75,244.96 342.82,237.88 342.86,231.96 342.91,224.65 342.99,211.23 343.04,201.47 343.12,188.16 343.18,182.06 343.27,180.27 343.34,185.57 343.43,204.88 343.50,225.23 343.61,264.22 343.68,291.80 343.79,321.65 343.87,323.23 343.99,298.23 344.07,274.81 344.20,245.51 344.29,234.80 344.42,235.10 344.51,245.18 344.65,267.06 344.75,277.21 344.90,269.56 345.00,248.50 345.15,207.83 345.26,184.23 345.42,165.64 345.53,168.35 345.69,196.67 345.81,229.32 345.98,287.42 346.10,317.36 346.27,312.97 346.40,282.59 346.52,249.13 346.70,212.98 346.83,203.47 347.02,210.68 347.15,224.69 347.35,242.47 347.48,241.22 347.69,217.03 347.82,195.46 348.03,173.53 348.17,172.92 348.38,196.53 348.53,224.65 348.74,265.71 348.89,274.27 349.11,246.11 349.26,215.24 349.48,179.50 349.64,171.58 349.86,188.70 350.02,217.37 350.25,273.58 350.41,305.19 350.64,309.04 350.80,282.63 351.04,234.65 351.20,208.87 351.45,185.16 351.61,178.77 351.85,179.75 352.02,184.96 352.27,197.29 352.43,208.04 352.60,220.38 352.85,239.43 353.02,250.23 353.27,259.86 353.44,261.96 353.70,264.97 353.87,271.85 354.12,295.64 354.30,321.97 354.55,371.69 354.73,390.81 354.98,345.05 355.16,300.10 355.42,239.77 355.59,209.78 355.85,184.74 356.02,181.76 356.29,193.00 356.46,205.75 356.72,221.42 356.89,224.33 357.15,217.29 357.33,210.16 357.59,206.50 357.76,212.81 358.02,236.98 358.19,261.26 358.45,302.45 358.62,326.41 358.88,345.34 359.05,346.26 359.31,343.82 359.48,346.19 359.65,352.67 359.90,361.60 360.07,355.83 360.32,325.29 360.49,298.76 360.74,262.90 360.90,246.71 361.15,237.67 361.32,241.50 361.56,257.06 361.72,267.97 361.96,273.63 362.12,267.89 362.36,251.25 362.52,242.01 362.75,241.08 362.91,252.09 363.14,287.24 363.29,321.48 363.52,377.52 363.67,388.64 363.90,335.34 364.04,292.26 364.26,236.66 364.41,209.01 364.62,184.07 364.76,178.62 364.98,185.53 365.11,198.04 365.32,224.15 365.45,243.51 365.59,261.66 365.79,281.41 365.92,286.87 366.11,282.73 366.24,273.77 366.43,255.96 366.55,243.81 366.73,228.56 366.85,221.62 367.03,216.76 367.14,216.74 367.31,219.57 367.42,221.34 367.59,219.40 367.70,213.40 367.85,198.22 367.96,186.73 368.11,173.85 368.21,171.78 368.35,183.46 368.45,202.81 368.58,249.18 368.67,289.63 368.81,354.53 368.89,377.79 369.01,333.47 369.10,287.72 369.21,226.29 369.29,195.54 369.40,169.09 369.47,165.20 369.57,178.01 369.64,196.01 369.70,217.85 369.79,248.04 369.85,259.40 369.94,257.12 369.99,245.89 370.07,226.06 370.12,216.69 370.19,214.33 370.23,221.97 370.29,247.12 370.33,271.80 370.39,316.89 370.42,348.72 370.47,383.54 370.49,378.28 370.53,339.16 370.55,309.58 370.59,268.85 370.60,245.58 370.63,217.21 370.64,202.56 370.65,186.43 370.66,179.15 370.67,172.73 370.67,171.17 370.67,367.37 370.67,366.80 370.67,364.36 370.68,361.51 370.70,355.23 370.71,349.76 370.73,340.01 370.75,332.72 370.77,324.89 370.80,311.93 370.83,302.16 370.87,285.17 370.90,272.21 370.95,251.04 370.98,236.77 371.04,217.43 371.08,207.27 371.15,197.98 371.19,196.32 371.26,200.71 371.31,207.85 371.40,224.03 371.45,238.00 371.54,262.62 371.60,279.78 371.70,299.42 371.76,301.58 371.86,282.04 371.94,258.60 372.05,222.72 372.12,206.16 372.24,202.06 372.32,216.46 372.44,264.67 372.53,311.36 372.66,377.12 372.75,358.54 372.89,274.67 372.98,222.96 373.08,184.11 373.23,158.07 373.33,164.03 373.48,203.74 373.58,242.81 373.75,290.77 373.85,291.03 374.02,247.26 374.13,213.95 374.31,183.88 374.42,181.90 374.60,202.94 374.72,224.94 374.91,247.39 375.03,245.06 375.22,223.36 375.35,210.44 375.55,210.98 375.68,228.86 375.88,276.59 376.01,308.01 376.22,305.71 376.36,267.06 376.57,198.51 376.71,163.09 376.93,138.96 377.07,144.37 377.29,180.78 377.44,216.99 377.66,265.32 377.81,273.83 378.04,243.42 378.19,212.32 378.35,186.32 378.58,170.92 378.74,180.19 378.97,222.37 379.13,264.47 379.37,325.27 379.53,331.88 379.77,277.69 379.94,231.99 380.18,179.19 380.35,160.93 380.59,160.89 380.76,176.46 381.01,214.26 381.18,242.01 381.43,276.96 381.60,292.65 381.85,301.04 382.02,292.93 382.28,257.24 382.45,223.29 382.71,174.25 382.88,153.13 383.14,151.25 383.31,171.78 383.57,226.10 383.75,262.62 384.01,276.57 384.18,255.18 384.44,218.98 384.61,209.97 384.87,223.94 385.05,242.17 385.22,253.86 385.48,241.86 385.66,223.01 385.92,209.13 386.09,220.12 386.35,269.47 386.52,315.70 386.78,358.61 386.95,336.86 387.21,289.39 387.38,275.59 387.64,293.31 387.81,326.87 388.06,366.06 388.23,331.80 388.48,246.00 388.65,197.38 388.90,157.74 389.07,158.65 389.31,200.07 389.48,249.34 389.72,339.18 389.89,384.84 390.13,343.80 390.29,301.64 390.53,261.39 390.69,251.39 390.93,252.81 391.08,255.85 391.31,251.74 391.47,243.36 391.70,233.40 391.85,235.02 392.00,245.11 392.22,270.51 392.37,284.44 392.59,279.02 392.74,256.43 392.95,213.20 393.09,188.53 393.30,167.42 393.44,165.52 393.65,178.83 393.78,195.87 393.98,229.51 394.11,256.05 394.31,300.55 394.44,331.49 394.63,366.41 394.75,363.01 394.94,321.69 395.06,289.48 395.24,249.76 395.35,232.32 395.53,220.42 395.64,220.11 395.81,225.59 395.92,230.39 396.08,238.10 396.18,245.34 396.34,262.81 396.44,277.95 396.58,294.41 396.68,289.81 396.77,268.69 396.91,218.90 397.00,185.21 397.13,148.94 397.22,139.65 397.34,151.74 397.42,176.14 397.54,230.02 397.62,269.34 397.73,309.07 397.80,307.36 397.90,272.97 397.97,246.48 398.06,217.63 398.12,208.60 398.21,209.83 398.27,218.36 398.35,237.77 398.40,252.18 398.47,271.67 398.52,281.21 398.58,287.63 398.62,285.60 398.68,273.16 398.71,259.91 398.76,236.22 398.79,220.05 398.83,198.29 398.86,186.62 398.89,174.29 398.91,169.51 398.94,166.76 398.95,167.18 398.96,168.77 398.98,172.17 398.99,174.41 398.99,176.84 398.99,177.51 398.99,283.17 399.00,283.03 399.00,282.22 399.01,280.94 399.02,277.05 399.04,272.66 399.06,262.87 399.08,254.20 399.11,238.59 399.13,227.04 399.17,209.21 399.20,197.67 399.24,181.84 399.27,172.71 399.33,161.90 399.37,157.07 399.43,154.45 399.47,156.53 399.54,166.62 399.59,178.47 399.67,203.75 399.72,224.51 399.81,257.11 399.87,275.48 399.96,288.76 400.02,285.13 400.12,265.65 400.19,248.96 400.26,232.93 400.37,213.11 400.45,202.84 400.57,189.83 400.65,181.39 400.77,168.27 400.86,160.19 400.99,152.70 401.08,153.11 401.22,164.25 401.31,178.47 401.45,205.64 401.55,222.62 401.70,236.48 401.81,235.31 401.97,223.89 402.07,216.97 402.24,218.51 402.35,231.06 402.52,266.89 402.63,296.92 402.81,326.82 402.93,316.86 403.11,267.06 403.24,230.37 403.42,190.10 403.55,178.81 403.74,188.99 403.87,213.33 404.07,270.54 404.21,315.87 404.34,355.51 404.55,354.65 404.69,319.11 404.90,265.18 405.04,237.65 405.25,211.33 405.40,201.92 405.62,194.53 405.76,191.77 405.99,189.88 406.14,191.32 406.37,200.31 406.52,211.40 406.75,231.65 406.91,241.84 407.14,241.61 407.30,229.98 407.54,205.64 407.70,192.78 407.94,188.10 408.10,197.06 408.35,225.56 408.51,247.70 408.76,266.31 408.92,260.07 409.17,229.74 409.34,207.65 409.59,187.38 409.76,186.56 410.01,203.58 410.18,221.90 410.44,244.69 410.61,248.24 410.78,241.64 411.04,225.41 411.21,220.48 411.47,233.94 411.64,259.80 411.90,321.76 412.07,374.20 412.33,406.08 412.51,352.77 412.77,288.56 412.94,262.43 413.20,254.59 413.38,271.10 413.64,323.25 413.81,366.96 414.07,374.35 414.24,327.77 414.50,261.48 414.68,232.15 414.94,219.10 415.11,231.22 415.37,270.95 415.54,296.88 415.79,291.82 415.96,255.99 416.22,192.99 416.39,161.24 416.64,143.40 416.81,154.32 417.06,201.27 417.23,247.58 417.48,323.83 417.64,362.09 417.81,367.84 418.05,337.77 418.22,321.99 418.46,314.41 418.62,314.09 418.86,304.77 419.02,289.77 419.25,265.93 419.41,258.27 419.64,269.25 419.80,293.49 420.03,352.84 420.18,402.58 420.40,385.63 420.55,337.08 420.77,280.61 420.92,258.50 421.14,251.41 421.28,262.03 421.49,291.40 421.63,308.73 421.84,305.87 421.97,282.41 422.18,236.04 422.31,207.74 422.51,177.82 422.64,167.92 422.83,166.68 422.96,171.90 423.14,182.14 423.27,187.35 423.45,190.53 423.56,190.98 423.68,192.56 423.85,201.86 423.97,214.49 424.13,241.78 424.24,262.18 424.40,286.14 424.51,291.48 424.66,282.28 424.76,270.75 424.91,257.33 425.01,255.09 425.15,262.90 425.24,273.15 425.37,287.46 425.46,290.36 425.59,280.84 425.67,268.87 425.79,252.62 425.87,247.45 425.98,251.30 426.05,260.60 426.16,278.29 426.23,286.71 426.33,285.52 426.39,275.48 426.48,255.14 426.54,243.83 426.62,236.79 426.67,240.22 426.75,256.46 426.80,271.97 426.84,287.61 426.91,302.30 426.95,301.57 427.01,285.82 427.04,270.54 427.09,248.52 427.12,237.25 427.16,227.38 427.19,225.42 427.22,228.06 427.24,232.37 427.27,240.55 427.28,246.08 427.30,253.23 427.31,256.87 427.32,260.52 427.32,261.85 427.32,262.43 427.32,244.89 427.33,247.43 427.33,251.21 427.34,259.74 427.35,266.98 427.37,278.81 427.39,285.92 427.41,291.70 427.43,289.84 427.47,276.06 427.49,260.23 427.54,230.64 427.57,210.07 427.62,183.05 427.66,170.07 427.70,162.59 427.76,162.82 427.80,170.03 427.87,187.27 427.92,198.66 428.00,206.50 428.05,202.23 428.14,184.21 428.19,169.98 428.29,155.81 428.35,155.71 428.45,173.38 428.52,196.67 428.63,243.63 428.70,277.05 428.81,315.41 428.89,325.31 429.01,322.34 429.10,320.61 429.23,332.53 429.31,351.39 429.45,379.02 429.54,366.38 429.68,305.73 429.78,260.11 429.93,200.98 430.03,173.22 430.19,153.93 430.29,156.10 430.45,178.42 430.56,202.43 430.73,244.48 430.85,272.56 430.96,299.00 431.14,336.73 431.26,362.73 431.44,398.96 431.56,395.67 431.75,348.40 431.88,313.92 432.07,272.12 432.20,255.72 432.40,252.36 432.53,264.29 432.74,298.19 432.87,322.83 433.08,334.14 433.22,314.98 433.44,268.62 433.58,238.54 433.80,204.19 433.94,189.43 434.17,176.63 434.32,171.61 434.54,165.81 434.69,162.47 434.92,159.67 435.08,160.38 435.31,165.54 435.47,170.74 435.71,178.05 435.87,181.48 436.11,185.60 436.27,189.30 436.43,194.71 436.67,206.23 436.84,214.17 437.08,220.56 437.25,219.38 437.50,213.11 437.67,210.81 437.92,215.97 438.09,224.86 438.34,237.94 438.51,238.73 438.77,222.08 438.94,204.82 439.19,185.89 439.36,185.18 439.62,205.07 439.80,228.83 440.05,264.47 440.23,274.84 440.49,261.63 440.66,243.65 440.92,223.68 441.09,220.58 441.36,230.02 441.53,240.28 441.79,247.27 441.96,240.75 442.22,218.70 442.40,202.55 442.66,185.61 442.83,181.43 443.09,184.13 443.26,189.19 443.43,194.18 443.69,197.75 443.86,197.33 444.12,194.61 444.29,193.13 444.55,193.85 444.72,196.74 444.97,204.15 445.14,212.02 445.39,230.13 445.56,247.33 445.80,280.32 445.97,303.24 446.22,319.14 446.38,304.56 446.62,253.96 446.79,215.47 447.03,168.35 447.19,150.28 447.42,149.85 447.58,168.76 447.82,223.05 447.97,271.04 448.20,340.25 448.35,353.63 448.58,308.07 448.73,272.32 448.95,239.08 449.10,234.33 449.32,250.78 449.46,269.87 449.68,285.94 449.82,274.85 449.96,248.64 450.17,202.99 450.30,179.88 450.50,165.54 450.64,169.78 450.84,189.83 450.97,204.66 451.16,214.46 451.28,209.78 451.47,194.58 451.59,186.67 451.77,186.38 451.89,194.55 452.07,213.20 452.18,223.24 452.35,226.16 452.46,221.05 452.62,213.05 452.73,213.54 452.89,227.19 452.99,242.20 453.14,258.49 453.24,254.22 453.38,222.44 453.48,193.90 453.61,158.37 453.70,146.64 453.83,152.45 453.92,171.59 454.04,216.57 454.12,249.45 454.23,282.13 454.31,281.89 454.38,265.97 454.49,232.38 454.55,213.49 454.65,197.79 454.72,196.26 454.81,204.78 454.86,215.34 454.95,234.84 455.00,249.09 455.08,272.21 455.12,289.24 455.19,317.17 455.24,335.68 455.30,354.85 455.33,354.55 455.39,333.09 455.42,311.58 455.46,278.00 455.49,257.52 455.53,231.76 455.55,218.19 455.58,202.92 455.59,195.65 455.61,188.15 455.63,184.87 455.64,181.77 455.64,180.57 455.65,179.68 455.65,179.58 455.65,155.92 455.65,156.84 455.66,158.68 455.67,163.70 455.68,169.04 455.70,180.88 455.71,191.64 455.74,211.92 455.76,227.48 455.80,251.04 455.82,264.22 455.87,275.04 455.90,274.61 455.95,264.67 455.98,255.29 456.04,242.74 456.08,237.10 456.15,232.10 456.20,228.89 456.27,219.87 456.32,210.12 456.41,193.43 456.46,185.30 456.55,185.68 456.61,197.75 456.71,234.70 456.78,268.02 456.88,308.61 456.95,305.39 457.07,251.93 457.14,206.77 457.26,151.71 457.34,131.78 457.47,134.08 457.55,157.71 457.64,197.19 457.78,277.86 457.87,335.56 458.01,365.71 458.11,322.05 458.26,247.66 458.36,208.12 458.52,170.06 458.62,158.91 458.78,160.94 458.89,172.61 459.06,201.52 459.17,225.65 459.35,261.49 459.47,277.79 459.65,278.99 459.77,265.98 459.95,242.92 460.08,235.10 460.27,244.99 460.40,267.23 460.59,313.43 460.73,331.32 460.93,295.82 461.07,248.82 461.27,184.85 461.41,159.05 461.62,156.08 461.76,179.07 461.98,243.57 462.13,293.67 462.35,321.81 462.49,285.77 462.64,235.98 462.87,176.62 463.02,158.03 463.25,165.89 463.41,190.76 463.64,238.83 463.80,259.60 464.03,248.22 464.19,221.17 464.43,183.15 464.59,170.46 464.84,176.17 465.00,193.95 465.25,230.60 465.41,253.71 465.66,276.43 465.83,283.61 466.08,290.24 466.25,294.48 466.50,295.98 466.67,288.05 466.92,261.41 467.09,239.96 467.35,214.94 467.52,208.14 467.78,216.16 467.95,233.16 468.21,271.39 468.38,300.57 468.64,338.27 468.81,348.81 468.99,340.23 469.25,300.99 469.42,267.05 469.68,215.22 469.86,184.91 470.12,151.89 470.29,140.74 470.55,142.26 470.73,154.18 470.99,184.06 471.16,209.04 471.42,248.64 471.59,273.65 471.85,303.47 472.02,311.65 472.28,297.40 472.45,273.16 472.70,228.83 472.87,201.04 473.13,168.46 473.30,154.11 473.55,141.95 473.72,137.60 473.97,134.34 474.13,134.05 474.38,137.95 474.54,145.13 474.79,165.17 474.95,184.71 475.19,221.63 475.35,247.69 475.59,274.66 475.75,273.95 475.91,256.46 476.14,214.58 476.30,188.80 476.53,168.05 476.68,170.10 476.91,196.03 477.06,222.45 477.28,253.52 477.43,253.43 477.65,221.79 477.79,194.80 478.00,169.08 478.15,168.77 478.36,196.02 478.49,229.70 478.70,291.85 478.83,329.45 479.03,352.23 479.16,343.75 479.36,328.65 479.49,327.26 479.67,334.80 479.80,335.20 479.98,310.49 480.10,280.72 480.28,233.67 480.40,208.20 480.57,185.36 480.68,181.07 480.84,188.13 480.95,198.92 481.11,220.04 481.22,236.30 481.32,254.63 481.47,288.19 481.57,315.86 481.71,365.17 481.80,400.24 481.94,399.28 482.03,364.87 482.16,318.44 482.24,294.47 482.37,270.63 482.45,262.19 482.56,257.65 482.64,257.68 482.74,258.69 482.81,258.79 482.92,257.73 482.98,256.67 483.07,255.73 483.13,256.21 483.22,259.75 483.28,264.67 483.35,276.74 483.40,287.86 483.48,307.18 483.52,319.13 483.58,328.79 483.62,326.62 483.68,312.32 483.71,299.68 483.76,282.87 483.79,275.55 483.83,272.28 483.85,275.24 483.88,281.74 483.90,296.36 483.92,307.95 483.94,325.66 483.95,336.45 483.97,349.51 483.97,355.62 483.98,360.59 483.98,361.20 483.98,227.02 483.98,230.25 483.99,239.91 484.00,249.48 484.01,268.10 484.03,282.79 484.05,306.19 484.07,320.45 484.10,333.41 484.12,332.24 484.16,314.19 484.19,294.41 484.24,259.65 484.28,236.01 484.33,203.65 484.37,185.96 484.43,167.95 484.48,162.94 484.55,167.47 484.60,178.87 484.68,207.85 484.73,233.87 484.79,263.65 484.88,311.12 484.94,341.15 485.04,376.61 485.11,390.12 485.21,398.06 485.28,402.18 485.39,406.17 485.47,394.38 485.59,354.12 485.67,319.75 485.80,265.24 485.88,230.80 486.01,187.70 486.11,167.30 486.24,152.21 486.34,153.16 486.49,170.10 486.59,190.00 486.74,227.78 486.84,253.95 487.00,284.73 487.11,293.45 487.28,286.05 487.39,272.54 487.56,250.51 487.68,238.83 487.85,228.39 487.97,225.54 488.16,223.86 488.28,221.74 488.47,214.34 488.60,207.31 488.73,200.68 488.92,196.58 489.06,200.69 489.26,219.30 489.39,239.18 489.60,275.03 489.74,297.30 489.95,316.08 490.09,315.58 490.31,304.01 490.45,296.17 490.67,290.32 490.82,290.11 491.05,290.34 491.20,287.35 491.43,275.46 491.58,263.45 491.81,241.55 491.97,224.93 492.20,197.93 492.36,180.67 492.60,161.86 492.76,158.45 493.00,173.31 493.17,197.51 493.41,248.68 493.57,282.13 493.82,298.54 493.99,278.72 494.24,233.49 494.41,210.05 494.66,198.01 494.83,205.34 495.00,220.50 495.25,241.71 495.42,243.44 495.68,224.19 495.85,206.58 496.11,192.02 496.28,197.04 496.54,228.82 496.71,262.43 496.97,314.28 497.14,329.87 497.40,306.26 497.58,278.60 497.84,249.10 498.01,244.39 498.27,262.29 498.45,289.35 498.71,346.38 498.88,389.09 499.14,403.42 499.31,366.25 499.57,319.52 499.75,297.88 500.00,279.85 500.18,276.20 500.43,278.58 500.61,281.78 500.86,283.49 501.03,280.05 501.29,266.83 501.46,253.62 501.62,238.48 501.88,215.56 502.04,202.11 502.29,187.89 502.46,183.91 502.71,187.12 502.87,195.65 503.12,218.43 503.28,240.07 503.52,281.26 503.68,313.72 503.92,363.06 504.08,379.80 504.31,346.84 504.47,309.00 504.70,255.12 504.86,227.30 505.08,203.41 505.24,201.34 505.46,219.61 505.61,244.41 505.83,294.17 505.97,330.57 506.19,376.20 506.33,386.95 506.54,374.34 506.68,365.03 506.89,357.34 507.03,350.95 507.23,327.35 507.36,301.93 507.56,259.10 507.68,233.70 507.81,214.84 508.00,203.24 508.13,207.08 508.31,225.50 508.43,240.26 508.61,252.25 508.72,247.57 508.89,223.87 509.01,203.68 509.17,177.54 509.28,166.15 509.44,159.31 509.54,160.71 509.70,169.67 509.80,179.58 509.94,200.54 510.04,218.62 510.18,249.46 510.27,268.01 510.40,279.05 510.49,269.02 510.61,234.38 510.69,208.03 510.81,178.26 510.89,170.50 511.00,181.85 511.07,204.96 511.18,258.70 511.24,301.19 511.34,348.61 511.40,341.17 511.49,287.55 511.55,249.77 511.60,219.13 511.68,192.36 511.73,188.43 511.80,201.74 511.85,220.74 511.91,257.44 511.95,282.02 512.01,308.50 512.04,314.55 512.09,307.80 512.12,298.29 512.16,284.66 512.18,278.25 512.21,273.46 512.23,272.95 512.26,274.63 512.27,276.47 512.29,279.18 512.29,280.59 512.30,281.92 512.30,282.33 512.30,320.44 512.31,319.64 512.31,313.15 512.32,305.19 512.33,287.89 512.34,273.12 512.36,247.14 512.38,228.20 512.41,199.27 512.43,180.86 512.45,164.14 512.49,143.81 512.52,134.23 512.57,126.56 512.60,125.97 512.66,131.36 512.70,138.73 512.76,154.84 512.81,168.92 512.88,195.53 512.93,217.36 513.01,256.25 513.06,284.95 513.15,323.63 513.21,334.42 513.30,310.57 513.37,277.09 513.47,222.37 513.54,190.49 513.65,157.56 513.72,148.36 513.84,155.65 513.92,173.91 514.04,216.92 514.12,251.20 514.25,297.53 514.34,313.58 514.48,304.80 514.57,285.92 514.72,257.30 514.81,243.51 514.96,232.78 515.07,231.12 515.17,232.35 515.33,236.93 515.44,240.37 515.60,244.69 515.72,246.74 515.89,248.83 516.00,250.50 516.18,256.51 516.30,265.30 516.48,290.18 516.61,316.42 516.80,369.81 516.92,404.01 517.12,360.05 517.25,308.73 517.45,236.92 517.58,198.89 517.79,164.06 517.93,157.78 518.14,172.16 518.28,193.93 518.49,233.58 518.64,255.71 518.85,270.88 519.00,270.19 519.22,266.07 519.37,268.20 519.60,281.82 519.75,295.13 519.98,312.84 520.14,319.25 520.37,323.10 520.53,327.21 520.69,334.55 520.93,344.14 521.09,337.90 521.33,300.42 521.49,266.19 521.74,219.22 521.90,197.79 522.15,186.99 522.32,194.02 522.57,217.57 522.73,233.31 522.98,240.63 523.15,232.20 523.41,213.31 523.58,206.23 523.83,213.42 524.00,230.28 524.26,263.50 524.43,279.47 524.69,278.76 524.86,266.77 525.12,254.85 525.30,261.14 525.56,298.71 525.73,338.98 525.99,379.76 526.16,345.33 526.43,271.07 526.60,233.16 526.86,207.69 527.03,212.74 527.29,243.89 527.47,265.86 527.64,272.25 527.90,244.56 528.07,216.54 528.33,188.99 528.50,189.66 528.76,223.11 528.93,264.46 529.19,339.50 529.36,365.71 529.61,309.18 529.78,256.33 530.04,194.55 530.20,172.62 530.46,173.36 530.62,195.42 530.87,254.79 531.04,304.28 531.28,364.09 531.44,357.54 531.69,303.46 531.85,270.54 532.09,239.12 532.25,230.14 532.49,230.26 532.64,236.58 532.88,252.11 533.03,266.25 533.26,293.30 533.41,313.22 533.64,334.46 533.79,333.35 533.94,320.11 534.16,294.58 534.30,283.55 534.52,283.82 534.66,294.46 534.87,314.90 535.01,320.78 535.22,308.45 535.35,293.94 535.55,281.49 535.69,285.02 535.88,305.35 536.01,317.83 536.20,304.45 536.33,273.53 536.51,222.70 536.64,199.77 536.82,195.80 536.93,216.87 537.11,281.61 537.22,339.63 537.39,382.75 537.50,327.78 537.66,240.67 537.77,198.08 537.92,166.94 538.02,168.11 538.17,193.70 538.27,216.27 538.41,236.42 538.50,234.20 538.64,219.13 538.73,213.38 538.81,217.76 538.94,245.75 539.02,273.49 539.14,303.77 539.22,298.30 539.33,258.83 539.40,230.77 539.50,206.81 539.57,207.52 539.67,232.09 539.73,258.10 539.82,291.49 539.88,295.64 539.96,272.44 540.01,250.96 540.08,229.40 540.13,227.25 540.20,243.01 540.24,262.91 540.30,295.50 540.33,309.54 540.39,306.87 540.42,292.43 540.46,266.28 540.49,251.58 540.52,237.16 540.54,232.37 540.57,230.01 540.58,229.94 540.60,229.78 540.61,229.04 540.62,227.12 540.63,225.83 540.63,224.97 540.63,296.72 540.63,296.33 540.64,293.21 540.64,289.33 540.66,280.73 540.67,273.17 540.69,259.33 540.70,248.77 540.73,231.79 540.76,220.35 540.79,204.30 540.82,195.10 540.86,184.79 540.90,180.83 540.95,180.01 540.99,183.11 541.05,193.31 541.09,203.73 541.16,224.42 541.21,241.25 541.28,269.91 541.33,289.97 541.42,316.53 541.48,326.61 541.57,320.81 541.63,303.39 541.73,266.95 541.80,241.64 541.90,209.49 541.97,194.91 542.05,187.43 542.16,191.09 542.24,203.58 542.37,235.66 542.45,263.60 542.58,308.15 542.67,332.30 542.81,342.63 542.90,330.35 543.04,301.07 543.14,282.54 543.29,261.41 543.39,251.92 543.55,242.32 543.66,237.39 543.82,230.61 543.93,226.82 544.10,224.90 544.21,228.30 544.39,243.19 544.51,259.98 544.69,293.20 544.81,317.06 545.00,343.10 545.12,344.21 545.32,320.81 545.45,297.98 545.64,264.26 545.78,244.76 545.98,221.48 546.12,210.16 546.32,199.29 546.46,196.60 546.61,198.30 546.82,210.34 546.96,224.86 547.18,255.84 547.33,281.79 547.55,324.83 547.70,352.82 547.93,382.37 548.08,382.42 548.31,357.10 548.47,335.07 548.70,301.05 548.86,278.45 549.10,245.57 549.26,225.75 549.50,201.80 549.66,191.27 549.90,186.44 550.07,191.53 550.31,210.95 550.48,231.00 550.73,268.46 550.89,294.96 551.14,329.19 551.31,341.94 551.57,336.37 551.74,319.81 551.99,287.82 552.16,266.35 552.42,238.17 552.59,223.61 552.85,210.56 553.02,208.64 553.19,212.23 553.45,227.57 553.62,242.76 553.88,267.16 554.06,280.10 554.32,287.91 554.49,284.52 554.75,273.06 554.93,266.72 555.19,266.11 555.36,273.42 555.62,296.13 555.79,316.50 556.05,343.01 556.23,346.18 556.49,321.12 556.66,294.46 556.92,255.50 557.09,235.04 557.35,217.03 557.52,214.29 557.77,222.91 557.94,235.94 558.20,262.61 558.36,282.05 558.62,308.50 558.78,321.19 559.03,329.84 559.20,329.61 559.44,323.62 559.61,317.74 559.85,308.35 560.02,301.66 560.18,294.41 560.42,282.51 560.58,273.78 560.81,258.89 560.97,248.27 561.20,232.52 561.36,222.82 561.59,210.65 561.74,205.14 561.97,201.63 562.12,202.56 562.34,208.68 562.48,215.71 562.70,229.82 562.84,240.56 563.06,256.88 563.20,266.60 563.41,276.79 563.54,278.95 563.75,273.79 563.88,265.07 564.08,246.07 564.21,231.50 564.40,211.24 564.53,201.70 564.72,197.99 564.84,204.88 565.02,232.21 565.14,262.46 565.32,324.69 565.44,375.14 565.55,424.73 565.72,350.12 565.83,295.41 565.99,224.72 566.09,189.35 566.25,159.02 566.35,155.45 566.50,174.66 566.60,201.86 566.74,258.22 566.83,300.69 566.97,354.40 567.06,363.57 567.18,334.26 567.27,309.98 567.39,284.66 567.47,277.37 567.58,278.82 567.66,284.73 567.76,293.24 567.83,294.59 567.93,288.57 568.00,281.96 568.09,275.16 568.15,275.96 568.23,288.09 568.29,303.57 568.36,335.60 568.41,359.70 568.48,386.89 568.52,384.16 568.59,354.81 568.63,332.24 568.66,311.71 568.71,287.12 568.74,275.13 568.79,262.77 568.81,257.27 568.85,251.11 568.87,247.40 568.90,241.38 568.91,236.92 568.93,229.93 568.94,225.49 568.95,219.93 568.96,217.34 568.96,215.54 568.96,231.97 568.96,231.20 568.97,229.32 568.98,223.71 568.98,217.75 569.00,205.76 569.02,196.69 569.04,184.44 569.06,179.31 569.09,179.57 569.12,186.17 569.16,204.66 569.19,219.45 569.24,234.14 569.28,231.27 569.33,204.12 569.37,176.64 569.44,136.42 569.48,117.82 569.53,109.98 569.61,122.12 569.66,146.19 569.74,201.82 569.80,246.91 569.89,312.82 569.96,341.70 570.05,335.79 570.12,309.10 570.23,261.04 570.30,227.43 570.41,175.79 570.49,142.71 570.61,103.05 570.69,89.27 570.82,97.21 570.91,125.06 571.04,200.98 571.13,270.67 571.28,384.65 571.37,370.11 571.52,257.28 571.62,194.80 571.77,137.42 571.88,127.27 572.04,150.93 572.15,183.61 572.31,226.06 572.43,225.80 572.60,179.82 572.72,142.00 572.84,115.27 573.02,112.74 573.14,140.26 573.33,222.83 573.45,299.48 573.64,430.63 573.77,348.35 573.97,232.96 574.10,175.39 574.31,126.41 574.44,119.60 574.65,141.98 574.79,170.91 575.00,218.21 575.15,242.96 575.36,262.68 575.51,268.09 575.73,272.59 575.88,271.29 576.10,252.50 576.26,227.13 576.49,180.88 576.64,154.50 576.87,135.29 577.03,140.10 577.27,174.08 577.42,210.28 577.66,266.59 577.82,288.10 578.07,277.57 578.23,255.34 578.48,229.37 578.64,225.04 578.80,231.69 579.05,253.66 579.22,265.34 579.47,260.17 579.64,242.64 579.89,214.09 580.06,203.98 580.32,210.79 580.49,230.30 580.75,275.04 580.92,305.85 581.17,327.81 581.35,316.62 581.61,278.15 581.78,249.89 582.04,211.40 582.21,189.80 582.47,166.15 582.65,158.17 582.91,159.86 583.08,169.51 583.34,192.35 583.51,208.27 583.78,224.36 583.95,227.45 584.21,222.92 584.38,216.73 584.64,206.10 584.81,198.32 585.07,183.88 585.25,171.81 585.50,151.91 585.67,139.32 585.84,129.11 586.10,121.47 586.27,122.70 586.52,133.65 586.69,145.79 586.94,166.64 587.11,179.03 587.36,191.52 587.53,195.43 587.77,196.73 587.94,195.97 588.18,192.08 588.34,186.06 588.58,170.28 588.74,157.14 588.98,141.37 589.14,139.00 589.38,155.04 589.53,179.87 589.76,229.71 589.92,257.26 590.14,253.57 590.29,218.42 590.52,152.26 590.66,116.81 590.88,92.97 591.03,100.41 591.24,142.92 591.39,182.77 591.60,227.83 591.73,225.85 591.94,177.55 592.08,138.63 592.21,109.53 592.41,98.57 592.54,116.56 592.73,179.46 592.86,239.47 593.05,333.56 593.17,355.75 593.35,286.37 593.47,231.04 593.65,168.59 593.76,145.12 593.93,136.56 594.05,145.46 594.21,172.60 594.32,194.57 594.47,225.21 594.58,240.54 594.73,252.48 594.83,252.39 594.97,240.67 595.07,226.60 595.21,200.85 595.29,183.97 595.43,164.23 595.51,156.84 595.64,155.61 595.72,160.59 595.83,173.48 595.91,183.30 596.02,196.42 596.09,202.99 596.16,207.68 596.26,212.05 596.32,213.92 596.42,216.29 596.47,218.14 596.56,222.34 596.61,226.75 596.69,236.75 596.74,245.87 596.81,262.55 596.85,274.61 596.91,291.34 596.95,299.90 597.01,307.10 597.04,308.35 597.09,306.99 597.11,305.36 597.15,303.45 597.18,302.88 597.21,302.86 597.22,303.08 597.25,303.24 597.26,303.08 597.27,302.52 597.28,302.05 597.29,301.49 597.29,301.33 597.29,232.77 597.29,230.95 597.30,223.93 597.30,216.84 597.32,203.86 597.33,194.65 597.34,185.95 597.37,175.79 597.39,172.14 597.42,172.83 597.45,177.68 597.49,190.53 597.52,201.23 597.57,216.36 597.60,223.31 597.66,226.89 597.70,225.67 597.77,223.07 597.81,223.74 597.89,231.01 597.94,239.36 598.02,251.82 598.07,255.57 598.16,249.62 598.22,239.74 598.32,225.12 598.38,221.09 598.49,229.92 598.56,246.73 598.67,284.57 598.74,311.85 598.86,335.53 598.94,330.04 599.06,304.50 599.15,290.10 599.28,285.66 599.37,296.83 599.51,333.69 599.60,367.96 599.70,401.15 599.85,379.39 599.95,341.98 600.10,293.37 600.21,269.22 600.37,244.74 600.48,233.52 600.64,218.40 600.75,207.42 600.93,191.08 601.04,183.35 601.22,182.11 601.34,190.01 601.53,213.75 601.65,234.03 601.84,261.66 601.97,273.30 602.17,280.83 602.30,284.58 602.50,298.38 602.64,315.34 602.84,344.24 602.98,349.79 603.19,316.07 603.33,279.01 603.55,226.26 603.69,200.76 603.91,183.49 604.06,187.15 604.28,213.50 604.43,241.41 604.58,273.65 604.81,321.46 604.97,346.84 605.20,366.73 605.36,369.53 605.59,369.36 605.75,369.52 605.99,367.18 606.15,360.26 606.39,340.35 606.56,322.55 606.80,292.41 606.97,271.25 607.22,240.38 607.38,222.40 607.63,202.99 607.80,197.33 608.05,202.68 608.22,215.53 608.48,245.63 608.65,269.18 608.90,299.61 609.07,310.16 609.33,308.59 609.50,301.11 609.76,289.71 609.93,284.09 610.19,277.43 610.37,272.53 610.63,263.49 610.80,258.01 611.06,255.66 611.23,260.46 611.41,270.80 611.67,293.91 611.84,309.12 612.10,317.26 612.28,308.00 612.54,280.10 612.71,260.70 612.97,240.24 613.14,234.72 613.40,238.08 613.57,245.33 613.83,254.75 614.00,254.69 614.26,242.54 614.43,230.00 614.68,215.23 614.85,213.18 615.10,225.74 615.27,244.25 615.52,282.05 615.69,308.28 615.94,338.17 616.10,347.46 616.35,349.27 616.51,347.92 616.75,345.27 616.91,340.41 617.15,323.13 617.31,305.34 617.55,275.14 617.70,256.10 617.94,233.70 618.09,224.52 618.24,220.44 618.47,222.33 618.62,226.56 618.84,232.93 618.99,235.22 619.21,235.67 619.36,235.83 619.57,239.73 619.71,245.59 619.92,256.35 620.06,261.05 620.27,258.83 620.40,251.70 620.60,239.90 620.74,236.31 620.93,242.95 621.06,255.96 621.25,283.78 621.37,301.65 621.56,312.17 621.68,303.60 621.86,276.77 621.98,257.80 622.15,236.15 622.26,227.95 622.43,224.47 622.54,226.54 622.70,232.87 622.80,237.82 622.96,245.95 623.06,252.61 623.20,266.72 623.30,280.17 623.39,297.46 623.53,330.00 623.62,353.32 623.75,372.32 623.84,358.00 623.96,310.24 624.04,274.53 624.16,226.66 624.24,202.56 624.35,182.71 624.42,181.66 624.52,198.19 624.59,219.58 624.68,261.22 624.74,289.64 624.83,319.32 624.89,323.13 624.97,309.02 625.02,295.76 625.09,281.26 625.14,277.43 625.20,279.34 625.24,283.14 625.30,286.59 625.33,284.45 625.38,273.30 625.41,262.18 625.46,244.19 625.48,233.37 625.51,220.94 625.53,215.58 625.55,212.43 625.57,211.08 625.59,211.75 625.60,213.90 625.61,215.47 625.61,217.25 625.62,217.74 625.62,230.13 625.62,228.91 625.62,224.09 625.63,219.03 625.64,209.35 625.66,202.26 625.68,192.67 625.70,188.50 625.73,188.31 625.75,193.58 625.79,210.43 625.82,226.53 625.86,251.30 625.90,260.80 625.95,251.08 625.99,228.01 626.05,181.40 626.09,151.47 626.16,120.64 626.21,114.39 626.29,130.86 626.34,159.17 626.43,223.16 626.49,274.46 626.58,343.79 626.64,357.20 626.71,335.40 626.81,293.23 626.88,278.25 626.99,285.01 627.07,308.55 627.19,358.57 627.27,368.42 627.39,305.75 627.48,250.73 627.61,179.54 627.70,147.39 627.84,129.21 627.93,138.24 628.08,180.35 628.17,222.85 628.33,296.19 628.43,341.06 628.59,369.54 628.69,354.39 628.86,322.88 628.97,306.21 629.14,284.71 629.26,268.20 629.43,237.03 629.55,214.36 629.73,184.95 629.86,172.26 630.04,166.82 630.17,171.68 630.36,187.46 630.49,200.49 630.69,220.10 630.83,233.25 630.96,247.68 631.17,272.56 631.31,288.66 631.52,299.26 631.66,289.82 631.87,255.83 632.02,230.28 632.24,202.28 632.39,195.34 632.61,204.51 632.76,220.92 632.99,249.18 633.14,260.56 633.37,256.75 633.53,245.65 633.76,234.85 633.92,240.16 634.16,273.48 634.32,312.04 634.56,380.59 634.72,383.30 634.97,306.18 635.13,254.64 635.38,197.36 635.54,177.33 635.79,176.54 635.96,192.92 636.21,233.83 636.38,263.26 636.63,291.01 636.80,291.09 636.97,279.73 637.23,257.24 637.40,245.96 637.66,240.03 637.83,244.01 638.09,260.37 638.26,276.54 638.52,305.41 638.69,324.07 638.95,339.70 639.13,335.14 639.39,308.24 639.56,283.82 639.82,246.95 640.00,225.50 640.26,200.70 640.43,189.63 640.69,181.81 640.86,182.38 641.12,190.79 641.30,200.56 641.56,219.56 641.73,232.91 641.99,249.47 642.16,256.19 642.41,258.01 642.58,254.39 642.84,246.35 643.01,242.22 643.26,241.35 643.43,245.85 643.68,261.87 643.85,278.39 644.02,298.59 644.26,332.26 644.43,351.24 644.67,357.91 644.84,344.78 645.08,314.31 645.24,295.57 645.48,278.09 645.64,275.69 645.87,287.33 646.03,304.24 646.26,337.41 646.42,357.50 646.65,362.62 646.80,345.62 647.02,310.26 647.17,288.29 647.39,262.03 647.54,249.12 647.76,234.41 647.90,225.72 648.11,212.62 648.25,204.50 648.46,196.70 648.60,196.26 648.80,204.75 648.93,216.45 649.13,239.55 649.26,254.35 649.45,266.50 649.58,265.21 649.76,253.02 649.89,243.49 650.01,237.21 650.19,239.37 650.30,250.23 650.48,279.18 650.59,303.20 650.76,333.00 650.86,336.47 651.02,311.56 651.13,286.10 651.28,251.53 651.38,236.03 651.53,228.08 651.63,233.56 651.77,256.74 651.86,280.24 651.99,322.78 652.08,352.57 652.21,391.52 652.29,403.27 652.41,386.94 652.49,368.48 652.60,338.34 652.67,316.32 652.78,280.46 652.85,256.13 652.95,223.53 653.01,207.43 653.10,196.48 653.16,199.95 653.24,222.83 653.29,249.50 653.37,303.91 653.42,347.08 653.46,392.19 653.53,396.32 653.57,353.27 653.63,294.70 653.66,263.25 653.71,229.97 653.74,217.45 653.78,212.35 653.81,216.87 653.84,232.64 653.86,247.21 653.89,271.78 653.90,288.15 653.92,310.16 653.93,322.04 653.94,334.70 653.94,339.56 653.94,341.70 653.94,188.39 653.95,190.62 653.95,193.90 653.96,201.18 653.97,207.21 653.99,216.81 654.01,222.48 654.03,227.46 654.05,226.93 654.09,218.78 654.12,208.64 654.16,188.85 654.19,175.00 654.22,162.87 654.28,152.07 654.32,152.25 654.38,166.53 654.42,185.85 654.49,227.08 654.54,258.12 654.62,292.70 654.67,293.62 654.76,259.66 654.82,227.66 654.91,186.96 654.97,171.80 655.07,172.64 655.14,188.79 655.25,229.66 655.32,259.04 655.44,281.45 655.51,271.78 655.64,235.51 655.72,212.16 655.85,193.85 655.94,195.50 656.07,214.05 656.16,229.00 656.31,236.11 656.40,224.74 656.55,194.42 656.65,177.32 656.81,172.13 656.91,187.15 657.08,238.71 657.19,289.16 657.30,345.52 657.47,376.26 657.58,325.94 657.76,246.65 657.88,206.76 658.06,174.08 658.18,170.95 658.37,189.29 658.50,210.89 658.69,243.49 658.82,257.84 659.02,264.37 659.15,263.17 659.36,263.29 659.50,267.26 659.70,276.20 659.84,279.22 660.06,270.63 660.20,256.19 660.42,228.80 660.57,211.10 660.79,190.20 660.94,181.59 661.16,176.68 661.32,178.89 661.55,191.16 661.70,205.05 661.93,230.74 662.09,247.18 662.33,260.02 662.49,255.91 662.73,234.74 662.89,218.31 663.05,206.24 663.29,203.69 663.46,214.73 663.71,250.33 663.87,284.44 664.12,343.21 664.29,380.30 664.54,392.85 664.71,367.44 664.96,329.21 665.13,308.61 665.39,284.88 665.56,272.61 665.81,258.25 665.99,251.81 666.24,249.26 666.42,253.16 666.68,267.20 666.85,280.81 667.11,304.33 667.28,318.79 667.54,332.79 667.72,334.88 667.98,328.12 668.15,320.53 668.41,312.85 668.58,313.44 668.85,323.80 669.02,332.25 669.28,325.33 669.45,299.47 669.62,262.61 669.88,205.58 670.06,176.56 670.31,155.85 670.49,158.24 670.74,178.20 670.91,191.98 671.17,194.76 671.34,183.57 671.59,163.16 671.76,157.30 672.01,166.11 672.18,179.00 672.43,189.75 672.59,182.94 672.84,160.27 673.00,150.35 673.24,163.73 673.41,197.62 673.65,284.34 673.81,359.56 674.04,377.60 674.20,299.51 674.44,205.56 674.59,167.82 674.82,156.75 674.97,179.79 675.20,251.58 675.35,314.69 675.57,394.17 675.72,363.57 675.94,296.54 676.08,271.14 676.23,264.71 676.44,286.65 676.58,312.37 676.79,326.91 676.92,302.25 677.13,245.67 677.26,214.79 677.46,194.96 677.59,202.77 677.78,243.31 677.90,283.44 678.09,340.88 678.21,350.53 678.39,312.62 678.51,282.19 678.69,252.76 678.80,247.05 678.97,257.14 679.08,272.34 679.25,298.95 679.35,314.08 679.51,327.50 679.61,329.53 679.76,320.40 679.86,304.44 680.00,266.92 680.10,236.97 680.23,194.28 680.32,172.82 680.45,158.72 680.54,164.04 680.66,194.93 680.74,229.11 680.82,271.28 680.93,339.38 681.00,371.94 681.11,351.89 681.18,316.17 681.27,268.66 681.34,246.28 681.43,228.14 681.49,225.22 681.57,230.93 681.62,238.94 681.70,253.44 681.75,263.27 681.81,276.97 681.86,285.11 681.92,295.07 681.95,299.40 682.01,300.67 682.04,297.49 682.08,287.41 682.11,278.38 682.15,263.92 682.17,254.86 682.20,243.45 682.21,237.61 682.24,231.48 682.25,228.90 682.26,226.68 682.27,225.96 682.27,225.52 682.27,225.47 682.27,286.19 682.27,284.59 682.28,281.71 682.29,275.02 682.30,269.14 682.32,258.79 682.33,251.57 682.36,241.95 682.38,237.64 682.42,236.80 682.44,241.41 682.49,258.13 682.52,276.52 682.57,314.99 682.61,346.86 682.66,396.91 682.71,402.31 682.77,350.70 682.82,313.33 682.89,264.94 682.95,240.59 683.03,218.50 683.08,213.65 683.17,219.22 683.24,229.07 683.33,247.54 683.40,259.29 683.50,273.63 683.58,281.83 683.69,295.72 683.76,307.40 683.88,325.46 683.96,331.08 684.05,324.67 684.18,292.72 684.26,264.50 684.40,225.77 684.49,208.09 684.63,199.54 684.73,206.91 684.88,235.51 684.98,262.52 685.14,303.47 685.24,321.76 685.40,326.22 685.51,320.45 685.68,317.32 685.80,325.20 685.97,352.60 686.09,372.60 686.27,362.10 686.39,327.16 686.57,269.09 686.70,236.82 686.89,207.19 687.02,202.32 687.22,216.07 687.35,235.36 687.55,267.35 687.69,281.81 687.89,284.70 688.03,278.34 688.24,270.76 688.39,272.45 688.60,285.47 688.75,295.98 688.89,300.63 689.12,287.02 689.26,267.28 689.49,236.60 689.64,222.94 689.87,219.79 690.03,230.14 690.26,261.97 690.42,290.22 690.65,331.22 690.81,346.77 691.05,340.92 691.22,325.62 691.46,303.39 691.62,293.30 691.87,285.47 692.03,283.44 692.28,282.56 692.45,283.03 692.70,287.35 692.87,294.62 693.12,315.42 693.29,336.66 693.54,377.69 693.71,405.80 693.97,391.91 694.14,359.12 694.40,313.03 694.57,288.28 694.83,263.81 695.00,256.58 695.26,258.20 695.44,266.06 695.61,277.10 695.87,294.22 696.04,302.82 696.30,307.00 696.48,304.10 696.74,295.17 696.91,288.50 697.17,280.86 697.35,278.11 697.61,277.42 697.78,279.28 698.04,285.15 698.21,290.57 698.47,300.58 698.64,307.81 698.90,317.89 699.07,323.40 699.33,328.11 699.50,327.88 699.75,322.12 699.92,315.03 700.17,300.87 700.34,290.90 700.59,277.77 700.75,271.61 701.00,268.52 701.17,271.35 701.41,282.61 701.57,294.25 701.81,314.77 701.97,327.01 702.13,334.72 702.37,333.71 702.53,325.86 702.76,310.92 702.92,302.61 703.15,295.55 703.30,294.43 703.53,294.28 703.68,291.66 703.90,279.15 704.05,264.74 704.27,238.27 704.41,221.42 704.63,202.53 704.77,195.95 704.98,195.60 705.11,200.48 705.32,210.49 705.45,215.84 705.65,219.09 705.78,218.55 705.98,218.23 706.11,221.88 706.29,238.14 706.42,257.14 706.60,295.80 706.72,324.11 706.90,352.16 707.02,346.37 707.19,309.55 707.30,281.23 707.47,245.41 707.57,228.44 707.68,217.24 707.84,209.16 707.94,207.29 708.09,205.71 708.19,204.07 708.33,201.22 708.42,200.76 708.56,205.75 708.65,214.26 708.78,234.85 708.86,252.09 708.99,276.66 709.07,286.60 709.18,284.16 709.26,271.68 709.37,245.38 709.44,228.17 709.54,209.19 709.60,203.09 709.70,204.74 709.76,212.41 709.84,230.86 709.90,245.09 709.98,263.35 710.03,269.85 710.10,267.59 710.14,258.84 710.20,239.69 710.24,226.02 710.30,208.13 710.33,199.35 710.38,191.98 710.41,191.00 710.44,192.91 710.48,200.29 710.50,207.47 710.53,220.22 710.54,229.22 710.56,242.25 710.57,249.99 710.59,259.42 710.59,263.93 710.60,267.69 710.60,268.17 710.60,214.51 710.60,214.23 710.61,213.60 710.62,213.25 710.63,213.18 710.65,213.52 710.67,214.23 710.69,214.14 710.72,211.15 710.75,205.87 710.79,191.55 710.81,178.13 710.86,155.69 710.90,142.49 710.95,132.01 710.99,134.96 711.05,159.19 711.10,190.04 711.17,257.57 711.22,313.68 711.30,390.88 711.35,365.07 711.41,306.00 711.50,225.22 711.56,185.97 711.66,156.25 711.73,156.74 711.83,182.26 711.90,206.99 712.01,230.15 712.09,222.59 712.21,182.44 712.29,152.25 712.42,124.75 712.50,125.93 712.64,161.42 712.73,205.74 712.87,292.57 712.96,348.69 713.11,344.61 713.21,291.79 713.36,218.36 713.46,184.39 713.62,160.27 713.73,160.47 713.90,177.75 714.01,194.57 714.18,217.90 714.30,229.10 714.47,241.39 714.59,250.59 714.78,271.49 714.90,290.62 715.03,311.45 715.22,332.89 715.35,329.24 715.54,296.01 715.68,265.41 715.88,219.50 716.01,192.54 716.22,160.58 716.36,145.65 716.57,133.26 716.71,132.10 716.93,142.44 717.07,158.21 717.29,196.40 717.44,231.78 717.67,298.32 717.82,348.63 718.05,405.65 718.20,371.11 718.43,305.02 718.59,271.94 718.82,247.62 718.98,250.76 719.22,284.32 719.38,322.05 719.62,377.02 719.79,365.36 720.03,295.45 720.20,250.73 720.44,203.98 720.61,189.36 720.86,189.47 721.03,198.45 721.19,206.94 721.45,205.83 721.62,194.51 721.87,174.05 722.04,167.01 722.30,174.88 722.47,192.40 722.73,229.40 722.90,253.58 723.16,278.85 723.33,289.28 723.59,305.73 723.76,321.48 724.02,347.29 724.20,354.91 724.46,338.25 724.63,316.83 724.89,283.54 725.07,262.23 725.33,231.04 725.50,212.62 725.76,196.74 725.93,199.08 726.19,226.21 726.37,256.28 726.63,292.24 726.80,285.25 727.05,232.25 727.23,194.16 727.48,162.05 727.65,165.18 727.91,209.28 728.08,260.15 728.25,318.02 728.50,356.77 728.67,314.93 728.92,241.59 729.08,208.55 729.33,190.57 729.49,196.95 729.74,217.84 729.90,225.38 730.14,212.30 730.30,192.15 730.54,165.81 730.70,160.44 730.94,177.10 731.09,203.37 731.32,254.71 731.48,283.83 731.71,291.28 731.86,269.76 732.08,222.96 732.23,193.99 732.45,162.83 732.59,151.41 732.81,147.73 732.95,153.42 733.16,172.59 733.30,191.00 733.51,224.09 733.65,247.79 733.85,281.52 733.98,300.35 734.11,315.07 734.31,330.23 734.43,336.74 734.62,341.36 734.75,339.76 734.93,327.81 735.05,313.94 735.23,288.22 735.34,270.46 735.52,246.50 735.63,233.68 735.79,220.53 735.90,216.23 736.06,216.60 736.16,221.08 736.32,232.29 736.42,240.45 736.56,247.25 736.66,243.93 736.80,223.73 736.89,201.87 737.02,163.94 737.11,140.22 737.23,114.83 737.31,108.42 737.43,119.10 737.51,141.10 737.62,195.92 737.69,244.51 737.80,323.24 737.86,355.45 737.96,313.40 738.02,261.45 738.08,213.51 738.17,163.00 738.22,148.28 738.30,157.80 738.35,184.54 738.42,250.08 738.47,305.03 738.53,377.64 738.57,361.70 738.63,280.86 738.66,229.08 738.71,167.54 738.74,139.40 738.78,116.43 738.80,112.40 738.83,118.89 738.85,128.49 738.88,145.73 738.89,156.69 738.91,169.79 738.91,175.80 738.92,181.08 738.93,182.64 738.93,164.94 738.93,165.14 738.93,166.72 738.94,168.68 738.95,173.00 738.96,176.78 738.98,183.66 739.00,188.94 739.03,197.74 739.05,204.22 739.07,211.32 739.11,223.53 739.14,232.95 739.19,248.82 739.22,259.72 739.28,273.40 739.32,278.08 739.38,274.81 739.43,265.80 739.50,246.19 739.55,232.41 739.63,215.43 739.68,208.15 739.77,203.72 739.83,204.12 739.92,206.70 739.99,207.84 740.09,206.86 740.16,204.69 740.27,201.41 740.34,200.72 740.46,203.61 740.54,208.32 740.66,218.73 740.74,227.24 740.87,241.80 740.96,252.94 741.10,272.28 741.19,286.18 741.34,302.94 741.43,305.42 741.59,288.71 741.69,266.59 741.79,241.27 741.95,207.29 742.06,192.11 742.22,184.80 742.34,190.18 742.51,208.88 742.62,222.77 742.80,233.15 742.92,228.69 743.11,209.50 743.23,195.59 743.42,184.25 743.55,186.81 743.74,206.24 743.87,226.08 744.07,254.53 744.21,264.13 744.41,257.88 744.55,245.35 744.76,229.53 744.90,227.28 745.11,240.43 745.26,258.43 745.48,287.73 745.62,296.77 745.85,279.68 746.00,253.70 746.22,212.92 746.37,192.82 746.61,180.37 746.76,185.75 746.92,202.06 747.15,243.79 747.31,280.08 747.55,341.08 747.71,378.75 747.95,382.60 748.11,348.68 748.36,293.68 748.52,261.32 748.77,223.11 748.94,205.76 749.19,194.04 749.35,195.90 749.61,211.64 749.77,229.29 750.03,261.39 750.20,282.83 750.45,310.28 750.63,324.83 750.88,344.80 751.05,360.34 751.31,390.53 751.49,410.54 751.74,390.78 751.92,360.67 752.18,318.32 752.35,296.97 752.61,279.82 752.79,278.38 753.05,286.87 753.22,293.20 753.48,290.05 753.65,276.54 753.83,257.44 754.09,230.67 754.26,219.90 754.52,217.59 754.69,223.26 754.95,232.40 755.12,231.17 755.38,214.64 755.55,199.33 755.81,184.89 755.98,187.87 756.24,217.42 756.40,252.71 756.66,315.20 756.83,341.19 757.08,314.52 757.24,277.21 757.49,235.43 757.66,226.47 757.90,245.31 758.07,276.07 758.31,327.98 758.47,338.78 758.71,298.75 758.87,263.38 759.11,228.61 759.26,222.93 759.50,238.82 759.65,258.66 759.88,281.51 760.03,281.77 760.26,265.18 760.41,254.47 760.56,251.38 760.78,264.62 760.92,281.86 761.14,304.70 761.28,307.58 761.49,293.36 761.63,282.28 761.84,279.69 761.97,291.79 762.18,331.48 762.31,368.86 762.50,406.31 762.63,372.01 762.82,313.07 762.95,282.46 763.14,256.05 763.26,252.55 763.44,265.56 763.56,282.75 763.73,313.08 763.84,331.23 764.01,349.17 764.12,354.41 764.28,355.37 764.39,351.49 764.54,335.10 764.64,316.89 764.79,284.45 764.89,264.24 765.03,243.55 765.13,239.45 765.22,244.49 765.35,268.34 765.43,291.67 765.56,323.38 765.64,327.66 765.76,298.31 765.84,266.81 765.95,221.39 766.02,198.46 766.12,180.08 766.19,179.24 766.29,193.30 766.35,210.15 766.44,239.31 766.50,255.81 766.58,267.02 766.63,263.29 766.71,245.34 766.75,229.85 766.82,207.79 766.86,195.96 766.92,183.93 766.96,179.68 767.01,178.15 767.04,179.69 767.08,184.69 767.11,189.19 767.14,196.80 767.16,202.04 767.19,209.60 767.20,214.21 767.22,220.18 767.23,223.41 767.24,226.00 767.25,228.60 767.25,229.46 767.25,175.02 767.25,174.80 767.26,173.13 767.26,171.37 767.28,168.63 767.29,167.44 767.31,168.07 767.33,171.00 767.35,180.46 767.38,190.46 767.41,210.15 767.44,224.67 767.48,242.96 767.52,248.59 767.57,242.51 767.61,230.17 767.67,207.55 767.71,195.35 767.78,188.93 767.83,195.01 767.90,219.59 767.95,242.91 768.04,274.30 768.10,280.22 768.19,256.16 768.25,227.06 768.35,185.22 768.42,167.12 768.52,162.66 768.59,176.28 768.67,202.32 768.79,258.59 768.87,299.63 768.99,337.03 769.07,325.58 769.20,277.38 769.29,245.51 769.43,212.62 769.52,202.84 769.66,204.63 769.76,213.75 769.91,232.15 770.01,243.36 770.17,254.15 770.28,257.34 770.44,260.01 770.55,263.18 770.72,272.19 770.84,280.58 771.01,294.24 771.13,302.24 771.31,310.17 771.43,312.14 771.62,311.13 771.75,308.42 771.94,301.05 772.07,293.85 772.26,281.02 772.40,272.84 772.60,265.02 772.74,265.25 772.95,275.89 773.08,289.18 773.23,304.92 773.44,323.37 773.58,324.58 773.80,308.55 773.95,293.92 774.17,280.23 774.32,281.62 774.55,301.73 774.70,323.38 774.93,349.72 775.09,345.63 775.32,310.02 775.48,284.21 775.72,259.74 775.88,257.20 776.12,273.67 776.28,292.88 776.52,317.16 776.69,320.99 776.93,311.04 777.10,305.92 777.35,315.41 777.51,333.79 777.77,360.38 777.93,349.34 778.19,293.16 778.36,253.86 778.61,214.51 778.78,208.05 779.04,230.84 779.21,261.97 779.38,293.55 779.64,299.55 779.81,267.56 780.07,209.77 780.25,184.22 780.51,180.55 780.68,203.15 780.94,265.01 781.11,309.26 781.37,318.62 781.55,278.37 781.81,212.13 781.98,182.75 782.24,172.05 782.42,187.22 782.68,234.93 782.85,274.88 783.11,325.57 783.28,339.47 783.54,335.26 783.71,332.45 783.97,341.80 784.14,351.95 784.39,344.00 784.56,316.18 784.82,262.69 784.99,231.12 785.24,200.34 785.40,193.21 785.65,200.26 785.82,211.61 786.07,224.98 786.23,224.78 786.39,216.52 786.64,197.41 786.80,187.22 787.04,184.56 787.20,193.51 787.43,221.02 787.59,244.98 787.82,279.14 787.98,293.74 788.21,297.08 788.36,290.37 788.59,278.36 788.74,273.96 788.96,276.10 789.10,282.57 789.32,295.46 789.47,302.60 789.68,304.52 789.82,297.79 790.03,276.47 790.17,257.02 790.37,224.73 790.50,203.58 790.70,176.67 790.83,164.60 791.03,160.10 791.15,168.25 791.34,198.31 791.46,229.58 791.65,288.63 791.76,329.49 791.94,362.26 792.06,345.27 792.17,314.26 792.34,272.36 792.45,254.88 792.61,247.05 792.72,251.94 792.87,265.22 792.97,270.67 793.12,265.67 793.22,255.53 793.36,241.06 793.45,238.02 793.59,249.31 793.68,267.90 793.80,308.70 793.89,339.91 794.01,378.56 794.09,384.71 794.20,365.84 794.28,350.02 794.38,327.69 794.45,310.72 794.55,276.99 794.62,249.54 794.71,207.47 794.77,183.84 794.85,162.56 794.91,160.70 794.98,177.66 795.03,200.31 795.10,242.90 795.15,268.18 795.19,281.46 795.25,269.36 795.28,246.46 795.33,209.06 795.37,189.48 795.41,174.02 795.43,173.82 795.47,187.29 795.49,203.58 795.52,234.78 795.53,257.48 795.55,290.14 795.56,308.92 795.57,330.16 795.58,339.10 795.58,344.88 795.58,269.67 795.58,272.01 795.59,277.24 795.60,290.57 795.61,302.84 795.62,324.79 795.64,339.48 795.66,352.53 795.68,347.97 795.72,319.70 795.74,292.58 795.78,249.18 795.81,222.52 795.86,191.48 795.90,179.36 795.95,177.20 796.00,187.29 796.04,206.39 796.11,249.08 796.15,283.06 796.23,329.28 796.28,343.44 796.37,328.20 796.42,307.88 796.51,284.84 796.58,279.99 796.68,289.91 796.74,304.68 796.85,323.91 796.92,321.48 797.04,289.19 797.11,258.86 797.23,216.79 797.32,196.56 797.44,182.15 797.53,183.14 797.66,196.89 797.76,210.68 797.90,231.58 797.99,242.58 798.14,252.96 798.24,256.53 798.39,259.27 798.50,260.83 798.66,264.54 798.77,268.63 798.94,278.42 799.05,287.76 799.22,304.31 799.34,313.27 799.46,315.97 799.64,303.53 799.76,286.67 799.95,258.81 800.07,244.07 800.27,233.82 800.40,235.90 800.59,250.19 800.73,264.02 800.93,282.89 801.07,289.39 801.27,287.43 801.41,280.99 801.62,270.06 801.77,264.34 801.98,258.80 802.13,256.26 802.35,252.40 802.50,249.33 802.73,243.42 802.88,238.33 803.11,228.76 803.26,221.30 803.49,209.85 803.65,204.06 803.89,201.79 804.04,205.91 804.28,220.71 804.45,234.60 804.69,254.88 804.85,263.74 805.10,265.55 805.26,260.98 805.43,256.04 805.67,255.79 805.84,264.27 806.09,293.15 806.26,322.54 806.51,375.39 806.68,395.50 806.94,347.43 807.11,302.37 807.37,240.83 807.54,209.10 807.80,180.54 807.97,175.34 808.23,187.76 808.40,207.14 808.66,245.75 808.83,273.08 809.09,306.53 809.27,318.47 809.53,315.54 809.70,300.13 809.96,262.62 810.14,233.40 810.40,193.63 810.57,175.72 810.83,170.16 811.00,182.52 811.26,220.04 811.44,248.28 811.69,268.13 811.87,256.37 812.04,232.42 812.29,199.44 812.47,189.78 812.72,196.31 812.89,209.22 813.14,225.79 813.31,228.14 813.56,224.51 813.73,227.35 813.98,250.09 814.15,275.07 814.39,299.34 814.56,284.50 814.80,228.95 814.96,193.40 815.21,168.23 815.37,176.60 815.60,225.26 815.76,272.60 816.00,322.48 816.15,304.88 816.38,239.09 816.54,202.22 816.76,178.40 816.91,185.83 817.14,224.20 817.29,257.76 817.51,295.28 817.65,300.68 817.86,291.38 818.01,289.10 818.22,305.73 818.36,330.96 818.49,364.34 818.70,413.01 818.83,400.01 819.03,361.47 819.16,345.73 819.35,338.32 819.48,339.71 819.67,338.74 819.79,331.84 819.97,317.68 820.09,311.31 820.27,309.40 820.38,308.88 820.55,295.01 820.67,273.52 820.83,233.32 820.94,210.64 821.10,195.51 821.20,201.94 821.35,235.76 821.45,269.06 821.59,314.21 821.69,322.77 821.83,300.53 821.92,282.31 822.05,273.36 822.13,283.52 822.26,315.58 822.34,332.28 822.45,312.80 822.53,277.01 822.64,224.54 822.71,202.48 822.78,195.67 822.88,216.13 822.94,247.75 823.04,309.09 823.10,341.80 823.18,332.46 823.23,300.03 823.31,258.24 823.36,245.50 823.43,254.34 823.47,277.69 823.54,329.49 823.57,359.87 823.63,342.88 823.66,299.77 823.71,232.07 823.74,193.57 823.77,151.17 823.80,133.81 823.83,122.68 823.84,123.36 823.87,132.53 823.88,141.63 823.89,156.00 823.90,164.29 823.91,172.72 823.91,174.93 823.91,399.78 823.91,398.93 823.92,395.50 823.92,391.77 823.93,386.97 823.95,378.19 823.96,371.70 823.99,361.97 824.01,356.06 824.04,348.88 824.07,345.41 824.11,341.77 824.14,339.57 824.19,334.54 824.22,328.97 824.28,317.08 824.32,307.87 824.39,295.43 824.43,290.19 824.51,290.05 824.56,296.24 824.64,315.17 824.69,332.85 824.78,359.79 824.84,368.53 824.94,352.93 825.00,330.07 825.11,293.03 825.18,271.21 825.29,246.59 825.36,236.50 825.48,231.14 825.56,233.83 825.69,246.48 825.77,260.21 825.90,287.74 825.99,309.67 826.08,332.76 826.22,362.08 826.32,369.11 826.47,354.99 826.57,338.72 826.72,318.00 826.83,309.62 826.99,303.65 827.10,299.63 827.26,283.17 827.38,262.30 827.55,221.33 827.67,193.74 827.84,162.19 827.97,152.10 828.15,157.03 828.27,172.97 828.46,208.47 828.59,231.64 828.79,248.00 828.92,241.58 829.12,217.16 829.26,202.12 829.46,194.77 829.60,203.57 829.81,236.16 829.95,265.81 830.17,304.25 830.31,311.45 830.53,289.12 830.68,265.41 830.90,236.17 831.05,225.32 831.20,221.46 831.43,225.06 831.59,230.62 831.82,239.69 831.98,246.13 832.21,258.93 832.37,270.51 832.61,289.86 832.77,298.86 833.02,295.17 833.18,279.73 833.42,245.69 833.59,222.37 833.84,194.27 834.00,182.62 834.25,178.58 834.42,186.01 834.67,212.96 834.84,240.86 835.10,293.37 835.27,327.32 835.52,340.85 835.69,314.05 835.95,256.73 836.12,223.56 836.38,194.60 836.55,192.18 836.81,214.39 836.99,242.32 837.25,285.34 837.42,295.91 837.68,266.06 837.86,230.58 838.03,197.07 838.29,165.04 838.46,160.84 838.72,182.70 838.90,213.63 839.16,276.30 839.33,319.88 839.59,353.26 839.76,335.55 840.02,285.71 840.19,254.41 840.45,217.76 840.62,199.57 840.88,178.31 841.05,167.23 841.30,155.90 841.47,153.48 841.72,161.80 841.89,177.26 842.14,215.21 842.31,248.63 842.56,302.70 842.72,329.66 842.97,327.47 843.13,300.87 843.37,253.65 843.53,227.67 843.77,205.09 843.93,202.64 844.17,218.34 844.32,240.29 844.48,268.35 844.71,308.92 844.86,319.67 845.09,292.95 845.24,258.51 845.47,207.82 845.61,183.24 845.83,168.13 845.98,174.99 846.19,209.90 846.33,246.23 846.54,307.75 846.68,337.23 846.89,325.96 847.02,294.12 847.22,249.92 847.36,232.71 847.55,230.92 847.68,245.14 847.87,281.49 848.00,305.63 848.18,315.89 848.30,299.11 848.48,259.93 848.60,237.51 848.77,220.76 848.88,222.69 849.05,242.22 849.16,261.24 849.32,283.75 849.42,285.05 849.58,263.95 849.68,242.52 849.78,221.95 849.92,199.61 850.02,191.73 850.15,188.21 850.24,188.65 850.37,189.37 850.46,189.44 850.58,192.42 850.66,199.75 850.78,224.17 850.86,251.06 850.97,306.45 851.04,349.67 851.14,390.04 851.21,359.08 851.30,291.66 851.36,252.17 851.45,210.43 851.51,196.71 851.59,198.13 851.64,212.24 851.71,247.06 851.76,273.31 851.82,301.68 851.86,303.95 851.92,282.98 851.96,262.09 852.00,233.87 852.04,221.12 852.08,213.47 852.10,215.83 852.14,228.56 852.15,241.49 852.17,256.44 852.19,279.88 852.21,294.54 852.22,312.93 852.23,322.01 852.23,330.37 852.24,332.43 852.24,169.68 852.24,169.96 852.24,171.31 852.25,173.17 852.27,178.33 852.28,183.98 852.30,196.91 852.32,209.00 852.35,232.50 852.37,251.04 852.41,279.54 852.44,294.78 852.48,302.25 852.52,294.07 852.57,268.52 852.61,249.50 852.67,227.52 852.72,220.58 852.78,223.18 852.83,231.54 852.91,244.76 852.96,246.32 853.05,229.55 853.11,208.48 853.17,185.66 853.27,159.77 853.33,153.51 853.43,164.15 853.50,182.84 853.61,217.83 853.69,235.49 853.81,237.13 853.89,222.33 854.01,193.88 854.10,180.70 854.23,178.05 854.32,187.44 854.46,209.57 854.55,221.01 854.70,220.76 854.80,209.76 854.95,190.65 855.05,184.39 855.21,191.99 855.31,208.10 855.48,240.67 855.59,259.59 855.76,271.05 855.88,267.74 856.05,259.16 856.17,257.37 856.35,260.68 856.48,260.17 856.67,241.49 856.79,216.78 856.99,175.58 857.12,155.24 857.25,146.73 857.45,162.79 857.58,193.41 857.79,263.02 857.93,316.78 858.14,369.04 858.28,347.59 858.50,291.73 858.64,264.88 858.86,247.50 859.01,247.56 859.23,249.30 859.38,240.89 859.61,209.13 859.76,182.42 859.99,150.55 860.15,141.59 860.38,150.35 860.54,169.21 860.78,209.02 860.94,235.56 861.18,260.33 861.34,261.76 861.59,244.94 861.75,226.51 862.00,195.58 862.16,175.73 862.41,151.50 862.58,142.34 862.83,144.80 863.00,158.81 863.25,197.42 863.42,231.86 863.59,267.84 863.85,307.04 864.02,311.42 864.28,290.25 864.45,272.34 864.71,256.80 864.88,257.21 865.14,273.25 865.31,291.28 865.58,318.24 865.75,325.94 866.01,309.98 866.18,284.69 866.44,238.60 866.62,208.47 866.88,171.67 867.05,156.86 867.31,155.56 867.49,170.86 867.75,217.10 867.92,258.67 868.18,311.62 868.35,312.62 868.61,261.76 868.78,221.80 869.04,180.36 869.21,170.59 869.46,182.71 869.63,204.37 869.88,242.38 870.05,260.92 870.30,266.10 870.47,256.04 870.64,241.29 870.88,219.30 871.05,207.04 871.29,193.80 871.46,189.61 871.70,193.34 871.86,204.03 872.10,233.97 872.26,262.01 872.50,309.35 872.65,337.31 872.88,358.35 873.04,356.02 873.27,346.32 873.42,344.07 873.64,347.76 873.79,350.10 874.01,343.58 874.16,332.80 874.38,317.48 874.52,313.74 874.73,323.66 874.87,341.08 875.08,377.82 875.22,399.32 875.42,386.27 875.55,362.66 875.75,335.56 875.88,326.53 876.07,322.13 876.20,318.02 876.32,306.01 876.51,270.08 876.63,239.62 876.81,197.82 876.92,179.20 877.10,171.91 877.21,182.28 877.38,218.90 877.49,253.56 877.65,307.71 877.75,330.48 877.90,318.74 878.01,290.15 878.15,244.17 878.25,218.70 878.39,192.31 878.48,182.97 878.62,181.02 878.70,187.59 878.83,209.06 878.91,230.66 879.03,271.30 879.11,300.00 879.22,330.49 879.30,330.18 879.40,300.41 879.47,274.24 879.57,241.09 879.63,227.07 879.72,219.20 879.78,220.51 879.86,224.30 879.92,222.37 879.97,213.74 880.04,189.19 880.09,169.25 880.15,142.88 880.19,131.94 880.25,129.90 880.28,139.01 880.33,167.14 880.36,193.41 880.40,238.17 880.43,266.56 880.46,295.59 880.48,299.83 880.51,284.32 880.52,266.04 880.54,237.10 880.55,220.23 880.56,201.42 880.56,193.90 880.56,190.52 880.56,373.94 880.56,373.90 880.57,373.83 880.57,373.68 880.57,373.54 880.58,373.30 880.58,373.12 880.59,372.83 880.59,372.63 880.60,372.36 880.61,372.22 880.62,372.06 880.63,372.02 880.64,372.03 880.65,372.17 880.66,372.35 880.68,372.73 880.69,373.06 880.71,373.64 880.72,374.06 880.74,374.69 880.76,375.07 880.78,375.51 880.79,375.67 880.82,375.65 880.83,375.41 880.86,374.67 880.88,373.89 880.91,372.29 880.93,370.94 880.96,368.53 880.98,366.70 881.01,363.70 881.03,361.59 881.06,358.34 881.09,356.18 881.12,353.06 881.15,351.11 881.18,348.48 881.21,346.97 881.25,345.16 881.28,344.29 881.32,343.54 881.34,343.45 881.37,343.69 881.42,344.71 881.44,345.83 881.49,348.19 881.52,350.20 881.57,353.87 881.60,356.73 881.64,361.61 881.68,365.24 881.73,371.19 881.76,375.49 881.81,382.37 881.84,387.23 881.90,394.90 881.93,400.24 881.99,408.57 882.02,414.32 882.08,423.11 882.11,428.69 882.17,427.63 882.21,421.51 882.26,411.61 882.30,404.82 882.36,394.50 882.40,387.59 882.46,377.32 882.50,370.61 882.56,360.90 882.60,354.77 882.66,346.25 882.70,341.14 882.76,334.49 882.81,330.84 882.85,327.89 882.91,324.90 882.95,323.95 883.02,324.18 883.06,325.52 883.13,329.38 883.17,333.20 883.24,340.79 883.28,347.03 883.35,358.06 883.39,366.40 883.46,380.21 883.50,390.10 883.57,405.56 883.61,415.76 883.68,425.06 883.73,418.72 883.79,403.36 883.84,392.75 883.91,377.28 883.95,367.52 884.02,354.04 884.07,345.98 884.13,335.53 884.18,329.78 884.25,323.09 884.29,319.98 884.36,317.33 884.41,316.91 884.48,318.21 884.52,320.32 884.59,325.20 884.64,329.50 884.68,334.54 884.75,343.26 884.79,349.70 884.86,360.00 884.91,367.07 884.97,377.54 885.02,384.07 885.09,392.40 885.13,396.42 885.20,399.27 885.24,398.93 885.31,395.77 885.35,392.59 885.42,387.24 885.46,383.70 885.52,378.90 885.57,376.19 885.63,373.03 885.67,371.56 885.74,370.33 885.78,370.15 885.84,370.76 885.88,371.69 885.94,373.73 885.98,375.40 886.04,378.14 886.08,379.98 886.14,382.51 886.18,383.90 886.24,385.35 886.28,385.81 886.34,385.65 886.38,384.98 886.41,383.88 886.47,381.54 886.51,379.62 886.56,376.39 886.60,374.11 886.65,370.63 886.68,368.36 886.74,365.13 886.77,363.15 886.82,360.47 886.85,358.93 886.90,357.00 886.94,355.98 886.98,354.84 887.01,354.33 887.06,353.91 887.09,353.84 887.13,353.99 887.16,354.25 887.21,354.83 887.23,355.32 887.28,356.19 887.30,356.82 887.34,357.84 887.37,358.54 887.40,359.58 887.43,360.24 887.47,361.17 887.49,361.72 887.52,362.41 887.54,362.78 887.57,363.06 887.60,363.30 887.62,363.35 887.65,363.25 887.67,363.07 887.69,362.65 887.71,362.26 887.74,361.55 887.75,361.00 887.78,360.08 887.79,359.41 887.82,358.34 887.83,357.59 887.85,356.45 887.86,355.67 887.88,354.51 887.89,353.75 887.91,352.62 887.92,351.89 887.93,350.85 887.94,350.18 887.95,349.25 887.96,348.67 887.97,347.87 887.97,347.39 887.98,346.75 887.99,346.37 887.99,345.90 887.99,345.64 888.00,345.35 888.00,345.21 888.00,345.10 888.00,345.08" fill="none" stroke="#000" stroke-width="1.5" opacity="0.9"/>
<text x="500.0" y="502" font-family="Times New Roman" font-size="19" text-anchor="middle">Julian Date</text>
<text transform="translate(18,247.0) rotate(-90)" font-family="Times New Roman" font-size="19" text-anchor="middle">position residual (km)</text>
</svg>
