<svg xmlns="http://www.w3.org/2000/svg" width="920" height="520" viewBox="0 0 920 520">
<rect width="100%" height="100%" fill="white"/>
<text x="460.0" y="24" font-family="Times New Roman" font-size="24" text-anchor="middle">Uranus native velocity residual</text>
<line x1="112" y1="434" x2="888" y2="434" stroke="#333"/>
<line x1="112" y1="60" x2="112" y2="434" stroke="#333"/>
<line x1="112" y1="434.00" x2="888" y2="434.00" stroke="#ddd"/>
<text x="104" y="438.00" font-family="Times New Roman" font-size="17" text-anchor="end">0</text>
<line x1="112" y1="340.50" x2="888" y2="340.50" stroke="#ddd"/>
<text x="104" y="344.50" font-family="Times New Roman" font-size="17" text-anchor="end">0.6529</text>
<line x1="112" y1="247.00" x2="888" y2="247.00" stroke="#ddd"/>
<text x="104" y="251.00" font-family="Times New Roman" font-size="17" text-anchor="end">1.306</text>
<line x1="112" y1="153.50" x2="888" y2="153.50" stroke="#ddd"/>
<text x="104" y="157.50" font-family="Times New Roman" font-size="17" text-anchor="end">1.959</text>
<line x1="112" y1="60.00" x2="888" y2="60.00" stroke="#ddd"/>
<text x="104" y="64.00" font-family="Times New Roman" font-size="17" text-anchor="end">2.612</text>
<line x1="112.00" y1="434" x2="112.00" y2="439" stroke="#333"/>
<text x="112.00" y="456" font-family="Times New Roman" font-size="17" text-anchor="middle">2378495</text>
<line x1="306.00" y1="434" x2="306.00" y2="439" stroke="#333"/>
<text x="306.00" y="456" font-family="Times New Roman" font-size="17" text-anchor="middle">2433282</text>
<line x1="500.00" y1="434" x2="500.00" y2="439" stroke="#333"/>
<text x="500.00" y="456" font-family="Times New Roman" font-size="17" text-anchor="middle">2488070</text>
<line x1="694.00" y1="434" x2="694.00" y2="439" stroke="#333"/>
<text x="694.00" y="456" font-family="Times New Roman" font-size="17" text-anchor="middle">2542858</text>
<line x1="888.00" y1="434" x2="888.00" y2="439" stroke="#333"/>
<text x="888.00" y="456" font-family="Times New Roman" font-size="17" text-anchor="middle">2597645</text>
<polyline points="112.00,415.10 112.00,415.10 112.00,415.10 112.00,415.10 112.00,415.11 112.00,415.11 112.01,415.12 112.01,415.12 112.01,415.13 112.02,415.13 112.02,415.13 112.02,415.13 112.03,415.12 112.03,415.12 112.04,415.10 112.05,415.08 112.05,415.05 112.06,415.02 112.07,414.97 112.08,414.92 112.09,414.85 112.09,414.79 112.10,414.68 112.11,414.60 112.12,414.47 112.13,414.37 112.14,414.21 112.15,414.09 112.17,413.91 112.18,413.78 112.19,413.57 112.20,413.43 112.22,413.22 112.23,413.07 112.24,412.93 112.26,412.72 112.27,412.58 112.29,412.39 112.30,412.27 112.32,412.12 112.33,412.03 112.35,411.93 112.36,411.89 112.38,411.86 112.40,411.87 112.42,411.94 112.43,412.02 112.46,412.20 112.47,412.37 112.49,412.67 112.51,412.92 112.53,413.37 112.55,413.72 112.57,414.31 112.59,414.76 112.61,415.50 112.63,416.04 112.66,416.91 112.68,417.54 112.70,418.53 112.72,419.22 112.75,420.29 112.77,421.01 112.79,422.09 112.81,422.79 112.83,423.45 112.86,424.33 112.88,424.82 112.91,425.32 112.93,425.47 112.96,425.40 112.98,425.15 113.01,424.50 113.03,423.93 113.06,422.91 113.08,422.17 113.11,421.01 113.13,420.24 113.16,419.11 113.18,418.39 113.22,417.40 113.24,416.82 113.27,416.07 113.29,415.66 113.32,415.21 113.35,415.03 113.38,414.94 113.40,415.00 113.44,415.29 113.46,415.60 113.49,416.26 113.51,416.81 113.55,417.79 113.57,418.53 113.60,419.71 113.63,420.52 113.66,421.71 113.68,422.42 113.71,423.01 113.74,423.59 113.76,423.70 113.80,423.38 113.82,422.85 113.85,421.67 113.88,420.68 113.91,419.00 113.93,417.80 113.97,415.99 113.99,414.82 114.02,413.17 114.05,412.18 114.08,410.91 114.10,410.23 114.14,409.50 114.16,409.23 114.19,409.16 114.22,409.36 114.25,410.02 114.27,410.72 114.31,412.13 114.33,413.31 114.36,415.43 114.38,417.05 114.41,419.76 114.44,421.70 114.47,424.68 114.49,426.53 114.52,428.36 114.54,428.25 114.58,426.03 114.60,423.83 114.62,421.39 114.65,417.60 114.67,415.08 114.70,411.42 114.72,409.12 114.75,405.93 114.77,404.03 114.80,401.56 114.82,400.19 114.85,398.61 114.87,397.87 114.90,397.28 114.92,397.24 114.94,397.70 114.96,398.35 114.99,399.82 115.01,401.10 115.03,403.43 115.05,405.19 115.08,408.01 115.09,409.91 115.12,412.49 115.14,413.83 115.16,414.82 115.18,414.62 115.20,412.92 115.22,410.99 115.24,407.25 115.26,404.39 115.28,399.84 115.29,396.76 115.31,392.23 115.33,389.35 115.34,386.63 115.36,382.92 115.38,380.75 115.40,377.99 115.41,376.52 115.43,374.89 115.44,374.20 115.46,373.80 115.47,373.94 115.48,374.78 115.50,375.74 115.51,377.76 115.52,379.48 115.54,382.57 115.55,384.94 115.56,388.91 115.57,391.79 115.58,396.38 115.59,399.56 115.60,404.42 115.61,407.62 115.62,412.14 115.63,414.78 115.64,417.72 115.65,418.66 115.66,418.21 115.66,416.80 115.67,413.58 115.67,411.01 115.68,406.92 115.69,404.15 115.69,401.43 115.70,397.52 115.70,395.07 115.70,391.68 115.71,389.63 115.71,386.91 115.71,385.34 115.71,383.38 115.72,382.33 115.72,381.16 115.72,380.66 115.72,380.33 115.72,140.82 115.72,143.14 115.72,148.47 115.73,162.87 115.74,177.22 115.76,206.35 115.77,230.63 115.80,272.37 115.82,301.09 115.85,336.47 115.88,346.92 115.92,338.27 115.95,325.02 116.00,309.38 116.03,306.37 116.09,315.40 116.13,329.46 116.20,356.56 116.24,371.26 116.32,371.69 116.37,359.40 116.42,345.90 116.50,333.99 116.56,334.77 116.65,350.04 116.71,368.27 116.81,401.92 116.88,416.29 116.99,392.28 117.06,373.17 117.17,354.72 117.25,351.28 117.37,359.92 117.45,373.76 117.58,402.89 117.67,424.01 117.80,408.42 117.89,389.96 118.03,370.01 118.13,363.21 118.28,363.34 118.38,369.47 118.53,384.88 118.64,397.19 118.80,414.39 118.91,421.50 119.07,419.17 119.19,415.02 119.36,411.35 119.48,410.34 119.65,410.02 119.77,410.49 119.96,412.94 120.08,415.77 120.21,419.20 120.40,422.42 120.53,419.69 120.73,411.19 120.86,405.81 121.07,400.45 121.20,399.54 121.41,402.98 121.55,407.42 121.76,414.00 121.90,415.33 122.12,410.33 122.27,405.25 122.49,399.48 122.64,397.53 122.86,397.92 123.01,400.39 123.24,405.74 123.40,409.46 123.63,414.09 123.79,415.51 124.02,415.03 124.18,413.65 124.42,410.84 124.58,409.79 124.82,410.35 124.99,412.53 125.23,418.95 125.40,423.69 125.65,424.26 125.81,418.08 125.98,410.89 126.23,402.12 126.40,398.25 126.65,396.66 126.82,398.23 127.08,402.48 127.25,405.46 127.50,407.58 127.67,406.72 127.93,403.98 128.10,402.01 128.36,400.29 128.54,399.59 128.80,398.07 128.97,397.07 129.23,396.09 129.40,396.47 129.66,399.25 129.84,401.64 130.10,404.50 130.27,404.62 130.53,402.58 130.71,401.57 130.97,402.57 131.14,405.99 131.40,414.29 131.57,418.96 131.83,417.37 132.00,412.13 132.26,406.93 132.43,407.21 132.69,413.94 132.86,422.16 133.03,426.74 133.28,412.03 133.45,400.95 133.70,389.13 133.87,386.64 134.12,391.51 134.28,399.77 134.53,416.01 134.69,420.32 134.94,407.94 135.10,399.06 135.34,392.12 135.50,392.98 135.74,400.51 135.90,406.90 136.13,410.96 136.29,407.41 136.52,400.22 136.67,398.06 136.90,400.06 137.05,404.94 137.27,415.46 137.42,421.91 137.64,422.84 137.79,418.70 138.00,413.32 138.14,411.66 138.35,411.55 138.49,412.24 138.70,414.07 138.83,415.94 139.03,419.05 139.17,420.93 139.30,421.62 139.49,419.08 139.62,415.94 139.80,411.28 139.93,408.56 140.11,404.64 140.23,401.60 140.41,396.17 140.52,392.73 140.69,389.69 140.80,390.10 140.97,395.31 141.07,400.86 141.23,405.62 141.34,401.17 141.49,385.99 141.59,375.23 141.73,363.65 141.82,360.78 141.96,364.88 142.05,372.29 142.18,385.04 142.27,388.66 142.39,380.11 142.47,369.33 142.59,355.16 142.67,350.15 142.78,350.90 142.85,355.83 142.95,364.17 143.02,365.24 143.11,355.53 143.17,344.36 143.23,333.28 143.32,322.36 143.37,321.03 143.45,329.03 143.50,340.29 143.57,362.59 143.61,377.38 143.67,389.28 143.71,386.19 143.76,373.23 143.80,365.19 143.84,358.73 143.87,358.84 143.91,365.03 143.93,372.26 143.96,385.73 143.98,395.17 144.00,407.81 144.02,413.85 144.03,417.42 144.04,416.82 144.04,414.94 144.05,414.31 144.05,377.15 144.05,375.91 144.05,370.93 144.06,365.57 144.08,354.68 144.09,345.82 144.11,330.91 144.13,320.52 144.15,310.40 144.18,297.04 144.21,290.28 144.25,284.87 144.28,285.20 144.33,292.48 144.36,302.04 144.42,323.03 144.46,340.70 144.52,370.29 144.57,389.19 144.64,402.83 144.69,394.15 144.77,371.68 144.83,357.81 144.92,342.52 144.98,336.72 145.07,334.69 145.14,337.40 145.24,346.26 145.31,354.32 145.42,367.26 145.50,374.64 145.62,380.27 145.70,379.13 145.82,371.69 145.91,365.14 146.04,356.41 146.13,352.61 146.27,351.05 146.36,352.75 146.51,358.36 146.60,363.03 146.70,367.44 146.86,372.08 146.96,373.83 147.12,376.37 147.23,379.44 147.40,387.68 147.51,395.65 147.69,409.44 147.80,416.38 147.98,413.87 148.10,407.32 148.29,400.17 148.41,399.34 148.60,405.04 148.73,412.97 148.93,425.84 149.06,420.39 149.26,402.43 149.39,392.11 149.60,382.61 149.74,381.30 149.95,386.97 150.09,395.36 150.30,411.75 150.45,420.52 150.67,415.94 150.82,408.25 151.04,401.00 151.19,400.36 151.42,403.63 151.57,406.21 151.80,405.83 151.96,402.48 152.11,398.96 152.35,397.76 152.51,400.48 152.75,408.52 152.91,413.01 153.15,409.51 153.32,402.55 153.56,393.31 153.73,390.42 153.97,392.02 154.14,396.22 154.39,403.20 154.56,405.42 154.81,403.10 154.98,400.08 155.23,397.32 155.40,397.89 155.66,401.93 155.83,405.25 156.09,408.03 156.26,407.57 156.52,405.85 156.69,405.60 156.95,408.40 157.12,412.70 157.38,421.85 157.56,428.39 157.82,429.13 157.99,424.51 158.25,421.17 158.43,421.65 158.60,423.88 158.86,427.21 159.03,424.03 159.29,415.27 159.47,409.95 159.73,405.28 159.90,405.27 160.16,409.80 160.33,414.48 160.59,417.31 160.76,412.18 161.02,399.75 161.19,392.08 161.44,385.15 161.61,384.79 161.86,390.92 162.03,399.31 162.28,417.08 162.45,430.52 162.69,415.85 162.86,403.15 163.10,388.72 163.27,383.37 163.51,382.15 163.67,385.83 163.91,396.49 164.07,404.78 164.30,412.09 164.46,409.49 164.69,399.29 164.85,393.32 165.08,388.45 165.23,388.33 165.38,390.61 165.60,397.63 165.75,403.30 165.97,411.57 166.11,416.08 166.33,420.67 166.47,422.88 166.68,426.76 166.82,429.61 167.03,432.87 167.16,430.74 167.36,428.16 167.49,427.92 167.69,428.33 167.82,426.50 168.01,420.06 168.13,414.75 168.32,407.68 168.44,404.75 168.62,404.58 168.73,407.22 168.91,414.09 169.02,418.11 169.19,414.78 169.29,407.62 169.46,397.23 169.56,393.08 169.71,392.97 169.81,397.09 169.96,407.52 170.06,412.02 170.20,401.66 170.29,387.94 170.38,373.99 170.51,357.57 170.60,351.69 170.72,352.29 170.80,359.12 170.92,377.13 170.99,390.73 171.10,396.90 171.18,384.68 171.28,358.00 171.34,341.77 171.44,325.03 171.50,320.23 171.59,322.50 171.64,328.96 171.72,341.27 171.78,347.14 171.85,346.31 171.89,339.20 171.96,324.25 172.00,314.96 172.06,305.75 172.09,303.51 172.14,305.29 172.17,308.58 172.21,313.48 172.24,314.89 172.27,312.44 172.29,307.94 172.32,298.60 172.33,291.89 172.35,282.71 172.36,277.75 172.37,273.92 172.37,270.40 172.37,269.52 172.37,216.36 172.37,217.47 172.38,222.16 172.39,227.65 172.40,240.09 172.41,251.44 172.44,272.93 172.45,289.60 172.49,315.86 172.51,332.24 172.55,351.30 172.57,359.01 172.62,365.08 172.65,368.53 172.71,377.36 172.75,386.44 172.81,400.77 172.85,402.93 172.92,387.89 172.97,373.58 173.05,355.67 173.10,348.83 173.19,348.10 173.25,353.69 173.34,367.96 173.40,377.44 173.50,382.19 173.57,377.09 173.64,368.94 173.75,358.98 173.83,356.95 173.94,362.54 174.03,371.27 174.15,387.18 174.23,394.40 174.37,391.29 174.46,382.83 174.59,370.83 174.69,366.42 174.83,367.02 174.93,372.13 175.08,384.87 175.19,394.75 175.34,407.31 175.45,411.41 175.62,410.77 175.73,408.92 175.90,407.77 176.01,408.47 176.19,409.85 176.31,409.62 176.49,406.98 176.61,404.40 176.80,400.89 176.93,399.29 177.12,398.50 177.25,399.10 177.45,401.10 177.59,402.73 177.79,404.79 177.93,405.69 178.06,406.37 178.28,407.79 178.42,409.43 178.63,413.03 178.78,415.06 179.00,413.91 179.14,409.36 179.37,400.01 179.52,394.35 179.75,389.47 179.90,389.76 180.13,396.13 180.29,403.79 180.52,418.99 180.68,427.49 180.92,417.31 181.08,408.87 181.32,400.98 181.48,400.10 181.72,405.31 181.89,411.65 182.14,418.65 182.30,415.37 182.55,404.27 182.72,398.24 182.97,394.40 183.14,395.44 183.39,400.94 183.56,404.33 183.82,403.71 183.99,399.45 184.24,392.62 184.42,389.90 184.59,389.01 184.85,390.62 185.02,392.45 185.28,394.64 185.45,395.27 185.71,396.01 185.89,396.67 186.15,396.58 186.32,394.72 186.58,390.02 186.75,387.37 187.01,386.84 187.19,388.97 187.45,394.37 187.62,397.17 187.88,396.48 188.06,393.56 188.31,389.41 188.49,389.02 188.74,392.12 188.92,395.95 189.17,402.11 189.34,405.14 189.60,406.99 189.77,407.17 190.02,408.21 190.19,410.20 190.44,414.59 190.61,417.91 190.86,422.62 191.02,424.39 191.19,424.41 191.43,422.17 191.59,419.52 191.84,413.88 192.00,409.46 192.24,403.23 192.40,400.37 192.63,398.98 192.79,400.63 193.02,407.00 193.18,412.92 193.40,419.20 193.56,417.24 193.78,408.65 193.93,403.36 194.15,399.26 194.30,399.63 194.51,404.76 194.66,410.26 194.87,416.70 195.01,416.29 195.22,409.92 195.35,405.33 195.56,401.38 195.69,401.10 195.89,402.62 196.02,403.86 196.21,404.33 196.34,403.42 196.52,401.46 196.64,401.22 196.83,403.32 196.94,406.00 197.06,409.11 197.23,412.50 197.35,412.72 197.51,409.97 197.62,407.56 197.78,405.54 197.89,405.85 198.04,409.20 198.14,413.55 198.29,422.98 198.39,428.45 198.53,417.05 198.62,405.14 198.75,387.26 198.84,377.09 198.97,367.12 199.05,365.28 199.17,371.02 199.25,380.03 199.36,395.29 199.43,396.39 199.54,374.79 199.61,354.16 199.70,325.92 199.77,312.82 199.86,305.90 199.92,310.88 200.00,332.12 200.05,353.14 200.13,383.20 200.18,384.60 200.24,352.86 200.29,326.89 200.33,304.27 200.38,282.09 200.42,276.91 200.47,284.04 200.50,297.77 200.54,328.08 200.57,351.03 200.60,376.95 200.62,376.64 200.64,351.64 200.66,330.30 200.68,300.98 200.69,285.19 200.70,268.29 200.70,261.73 200.70,258.80 200.70,334.53 200.70,335.05 200.71,335.83 200.72,337.72 200.73,339.51 200.75,343.13 200.76,346.24 200.79,352.04 200.81,356.68 200.85,364.72 200.87,370.67 200.92,380.26 200.95,386.92 201.00,397.16 201.04,404.07 201.09,414.51 201.14,421.35 201.18,427.22 201.25,425.08 201.30,418.80 201.38,409.52 201.43,404.25 201.51,398.51 201.57,396.44 201.67,396.11 201.73,397.50 201.83,400.69 201.90,402.21 202.01,401.31 202.08,398.49 202.19,392.99 202.27,389.97 202.39,388.45 202.48,390.17 202.61,397.20 202.69,404.64 202.83,418.93 202.92,427.21 203.06,416.47 203.16,405.70 203.31,392.12 203.41,385.94 203.57,382.11 203.67,383.30 203.83,390.43 203.94,398.17 204.11,411.35 204.23,417.39 204.34,416.56 204.52,407.15 204.64,401.15 204.82,396.17 204.94,396.50 205.13,402.71 205.26,409.97 205.45,423.76 205.58,429.55 205.78,416.21 205.91,407.08 206.12,397.38 206.25,394.03 206.46,393.70 206.60,396.16 206.82,402.31 206.96,406.07 207.18,407.58 207.32,405.70 207.55,401.53 207.70,399.73 207.92,400.44 208.07,402.98 208.30,409.84 208.46,415.60 208.69,422.12 208.85,421.34 209.09,414.70 209.24,410.24 209.48,405.57 209.65,403.97 209.89,403.75 210.05,405.08 210.22,406.89 210.46,409.93 210.63,411.92 210.88,413.99 211.05,414.85 211.30,415.27 211.47,414.46 211.72,412.42 211.89,410.75 212.14,408.03 212.31,407.05 212.57,406.50 212.74,407.00 213.00,409.54 213.17,411.83 213.43,415.84 213.61,418.29 213.87,420.32 214.04,420.85 214.30,420.81 214.47,420.62 214.73,421.30 214.91,422.17 215.17,423.47 215.34,424.52 215.60,425.22 215.78,425.27 216.04,425.44 216.21,426.13 216.47,427.98 216.64,428.94 216.90,427.76 217.07,425.26 217.24,422.26 217.50,417.66 217.67,415.20 217.93,412.97 218.10,412.54 218.35,413.17 218.52,414.59 218.77,417.54 218.93,419.75 219.18,423.10 219.35,425.00 219.60,427.36 219.76,427.55 220.00,424.46 220.16,420.96 220.41,415.03 220.56,411.26 220.80,406.62 220.96,404.69 221.19,404.33 221.35,405.94 221.58,410.43 221.73,414.51 221.96,420.19 222.11,421.61 222.33,419.38 222.48,416.58 222.70,413.20 222.84,412.49 223.06,413.57 223.20,415.19 223.34,416.75 223.54,417.54 223.68,416.20 223.88,412.70 224.02,410.54 224.21,409.00 224.34,409.44 224.54,412.34 224.66,415.49 224.85,419.25 224.97,418.14 225.15,410.77 225.27,404.49 225.45,395.96 225.56,392.00 225.73,389.84 225.84,390.93 226.00,395.41 226.11,398.91 226.27,400.88 226.37,398.20 226.52,389.81 226.62,383.87 226.76,378.04 226.85,377.45 226.99,382.65 227.08,390.14 227.21,405.55 227.29,414.50 227.42,407.98 227.50,394.27 227.61,373.64 227.69,362.78 227.76,355.47 227.87,352.47 227.93,356.14 228.03,369.52 228.10,382.19 228.19,399.22 228.24,398.80 228.33,377.36 228.38,358.71 228.46,332.77 228.50,319.14 228.57,306.41 228.61,303.67 228.67,308.16 228.71,316.28 228.76,334.17 228.80,348.12 228.84,367.39 228.87,375.18 228.91,373.65 228.93,365.16 228.96,348.03 228.97,336.51 228.99,321.40 229.00,313.30 229.02,304.27 229.02,300.28 229.03,297.09 229.03,296.69 229.03,262.43 229.03,265.24 229.04,273.81 229.05,282.52 229.06,293.60 229.08,314.07 229.09,329.26 229.12,350.65 229.14,360.15 229.18,360.62 229.20,352.23 229.24,334.27 229.28,322.65 229.33,309.15 229.36,303.21 229.42,297.86 229.46,295.58 229.53,292.78 229.58,291.47 229.65,292.36 229.70,296.56 229.78,310.75 229.84,326.00 229.93,355.92 229.99,377.02 230.09,392.82 230.16,382.30 230.26,355.91 230.33,341.79 230.44,332.68 230.52,336.01 230.64,354.59 230.72,374.27 230.85,407.54 230.93,413.57 231.07,385.22 231.16,367.24 231.25,355.00 231.39,350.06 231.49,355.92 231.64,376.27 231.74,394.93 231.89,417.19 232.00,407.12 232.16,383.00 232.27,371.78 232.44,365.91 232.55,369.10 232.73,381.20 232.84,390.03 233.02,392.41 233.15,385.18 233.33,372.13 233.46,367.05 233.65,368.34 233.78,375.39 233.97,394.20 234.11,409.93 234.31,427.16 234.44,416.01 234.65,400.06 234.79,394.23 235.00,394.19 235.14,398.83 235.36,408.71 235.50,413.19 235.73,411.11 235.87,407.50 236.02,405.80 236.25,409.10 236.40,415.41 236.63,426.18 236.79,420.95 237.02,405.63 237.18,397.27 237.41,391.39 237.57,392.95 237.81,402.96 237.97,411.98 238.22,415.84 238.38,406.69 238.63,391.54 238.79,385.21 239.04,383.88 239.21,389.36 239.46,405.17 239.62,417.92 239.88,419.23 240.05,407.08 240.30,392.97 240.47,388.55 240.73,390.31 240.90,396.74 241.16,411.10 241.33,419.94 241.59,418.84 241.76,411.75 242.02,404.49 242.19,403.60 242.45,407.81 242.63,413.89 242.80,421.70 243.06,428.53 243.24,421.09 243.50,409.09 243.67,402.97 243.93,398.07 244.10,397.75 244.36,401.73 244.54,407.32 244.80,418.42 244.97,426.25 245.23,425.65 245.40,418.28 245.66,408.93 245.83,404.63 246.08,401.48 246.25,401.72 246.51,404.90 246.68,407.85 246.93,411.33 247.10,411.69 247.35,408.86 247.51,405.68 247.76,401.07 247.92,398.75 248.17,396.85 248.33,396.14 248.57,395.63 248.73,395.86 248.97,397.02 249.13,398.42 249.37,401.36 249.52,403.81 249.68,406.31 249.91,409.12 250.06,409.93 250.29,410.09 250.44,410.39 250.66,411.80 250.81,413.30 251.03,415.29 251.17,415.38 251.38,413.01 251.52,410.37 251.73,406.45 251.87,404.48 252.08,402.73 252.21,402.25 252.41,402.39 252.54,402.74 252.74,403.99 252.86,405.78 253.05,409.60 253.18,411.52 253.36,409.18 253.48,403.30 253.66,391.42 253.77,384.01 253.95,376.89 254.06,376.11 254.22,382.13 254.33,390.86 254.49,409.13 254.59,419.17 254.70,412.67 254.85,388.02 254.94,372.09 255.09,354.00 255.18,347.53 255.32,347.81 255.41,354.79 255.54,374.44 255.62,392.00 255.74,415.12 255.82,407.95 255.94,379.91 256.01,362.88 256.12,345.36 256.19,340.53 256.29,344.59 256.36,354.61 256.45,378.69 256.51,398.08 256.60,410.90 256.65,393.24 256.73,359.90 256.78,340.25 256.85,318.81 256.90,311.22 256.96,310.85 257.00,317.82 257.06,337.66 257.09,355.46 257.14,383.43 257.17,394.90 257.21,383.43 257.23,364.40 257.25,344.07 257.28,316.13 257.30,300.49 257.32,282.13 257.33,273.17 257.34,264.00 257.35,260.23 257.36,257.39 257.36,329.82 257.36,329.71 257.36,329.24 257.37,328.03 257.38,327.10 257.39,326.08 257.40,326.02 257.43,327.53 257.45,330.00 257.48,336.48 257.50,342.90 257.54,355.89 257.57,366.75 257.62,385.95 257.65,400.11 257.71,420.15 257.75,420.60 257.81,401.31 257.86,388.04 257.93,371.58 257.98,363.86 258.06,358.18 258.11,358.58 258.20,365.19 258.26,373.04 258.32,382.79 258.42,398.32 258.48,406.26 258.59,407.89 258.66,403.09 258.77,395.06 258.85,391.83 258.97,391.83 259.05,395.12 259.17,404.02 259.26,411.41 259.39,420.30 259.48,420.00 259.62,412.48 259.72,407.41 259.87,402.61 259.96,401.75 260.12,403.63 260.22,406.25 260.38,410.18 260.49,411.33 260.65,409.71 260.77,407.11 260.94,402.99 261.05,401.06 261.23,400.32 261.35,401.48 261.54,405.72 261.66,409.77 261.85,415.97 261.98,418.08 262.17,414.27 262.30,408.65 262.43,402.74 262.64,395.63 262.77,392.89 262.98,392.98 263.12,395.87 263.33,403.18 263.47,408.43 263.69,411.87 263.83,409.17 264.05,401.57 264.20,397.16 264.43,394.34 264.58,395.68 264.80,402.73 264.96,409.52 265.19,417.92 265.35,416.93 265.58,407.23 265.74,400.84 265.98,395.14 266.14,394.86 266.38,400.49 266.54,407.77 266.79,421.93 266.95,430.45 267.20,417.98 267.37,408.94 267.62,399.27 267.78,395.90 268.04,396.32 268.21,399.85 268.37,405.15 268.63,414.58 268.80,419.61 269.06,419.83 269.23,416.18 269.48,410.43 269.66,407.70 269.92,405.60 270.09,405.09 270.35,405.40 270.52,406.51 270.78,409.73 270.96,412.38 271.22,415.30 271.39,414.53 271.65,408.32 271.82,402.72 272.08,395.21 272.26,392.49 272.52,392.53 272.69,395.32 272.95,402.55 273.12,407.67 273.38,410.76 273.56,408.80 273.81,403.77 273.98,401.82 274.24,402.74 274.41,406.33 274.67,415.47 274.83,422.74 275.09,430.55 275.26,426.76 275.42,422.77 275.67,420.35 275.84,420.57 276.09,420.38 276.25,417.76 276.50,410.80 276.66,406.35 276.90,402.57 277.06,402.68 277.30,406.90 277.46,411.47 277.69,415.44 277.85,412.63 278.08,403.52 278.24,397.98 278.46,394.03 278.61,395.05 278.84,402.22 278.99,410.07 279.21,423.15 279.35,424.79 279.57,414.23 279.71,407.93 279.92,403.45 280.06,404.28 280.27,410.35 280.40,415.91 280.61,421.26 280.74,419.04 280.93,411.78 281.06,407.73 281.25,404.31 281.38,403.22 281.50,402.46 281.69,401.34 281.81,400.61 281.99,400.71 282.10,402.29 282.27,406.82 282.39,410.04 282.55,410.58 282.66,406.57 282.82,398.48 282.92,394.78 283.08,395.04 283.17,399.90 283.32,412.89 283.42,419.60 283.56,405.10 283.65,388.55 283.78,365.38 283.87,353.99 283.99,346.48 284.07,349.07 284.19,364.80 284.27,382.28 284.38,414.02 284.45,416.38 284.56,380.76 284.62,357.43 284.72,330.65 284.78,320.51 284.87,318.88 284.93,326.92 284.98,341.47 285.06,371.75 285.11,391.94 285.18,394.52 285.23,374.88 285.29,342.03 285.33,324.11 285.39,306.96 285.42,302.71 285.47,306.55 285.50,314.77 285.54,332.32 285.56,344.91 285.59,359.59 285.61,363.51 285.64,359.50 285.65,352.58 285.66,340.78 285.67,333.82 285.68,326.37 285.68,323.80 285.68,87.70 285.68,89.00 285.69,99.53 285.70,112.68 285.71,142.09 285.72,168.14 285.74,215.54 285.76,250.36 285.79,298.12 285.81,316.36 285.84,307.04 285.87,283.31 285.90,256.76 285.95,225.09 285.98,214.30 286.04,217.06 286.08,231.40 286.14,268.17 286.19,299.05 286.26,344.73 286.31,365.52 286.39,368.16 286.44,358.85 286.53,349.35 286.59,350.85 286.68,365.63 286.75,382.06 286.85,410.98 286.92,424.65 287.03,408.40 287.10,398.29 287.22,393.73 287.30,398.16 287.42,414.39 287.50,429.56 287.63,412.85 287.72,396.56 287.86,376.32 287.95,366.95 288.10,360.08 288.19,360.13 288.34,366.15 288.45,373.38 288.60,387.57 288.71,397.83 288.82,406.05 288.98,404.75 289.09,394.85 289.27,377.63 289.38,368.68 289.56,363.21 289.68,366.09 289.86,380.29 289.99,395.37 290.18,418.91 290.30,413.86 290.50,388.50 290.63,374.96 290.83,364.96 290.96,366.53 291.17,381.07 291.31,397.15 291.52,423.11 291.66,416.66 291.87,392.45 292.01,381.25 292.23,375.40 292.38,378.70 292.60,390.96 292.75,400.29 292.98,405.34 293.13,401.69 293.36,397.23 293.52,398.96 293.75,408.98 293.91,416.13 294.15,407.57 294.31,394.95 294.47,383.91 294.71,375.17 294.87,376.34 295.12,387.70 295.28,399.32 295.53,413.04 295.69,409.61 295.94,395.51 296.11,388.36 296.36,384.78 296.53,387.06 296.79,394.44 296.96,399.22 297.21,403.57 297.38,404.23 297.64,405.03 297.81,406.40 298.07,407.22 298.24,405.27 298.50,397.83 298.68,392.30 298.94,387.17 299.11,386.74 299.37,391.76 299.54,397.84 299.80,407.32 299.98,410.68 300.24,406.82 300.41,401.79 300.67,395.71 300.85,393.94 301.02,394.71 301.28,399.19 301.45,403.69 301.71,411.10 301.88,415.13 302.14,418.70 302.31,419.06 302.57,418.71 302.74,419.00 302.99,420.29 303.16,421.39 303.42,419.81 303.58,415.58 303.83,406.31 304.00,399.77 304.25,392.12 304.41,389.26 304.66,389.84 304.82,393.76 305.07,403.51 305.23,410.94 305.47,415.64 305.63,410.69 305.86,400.10 306.02,394.85 306.25,392.42 306.41,395.15 306.64,404.15 306.79,411.32 307.02,415.22 307.17,409.95 307.39,399.48 307.54,394.46 307.68,392.43 307.90,395.96 308.04,402.49 308.25,415.88 308.39,423.41 308.60,417.11 308.73,408.16 308.93,397.79 309.07,394.05 309.26,392.62 309.39,393.80 309.58,396.79 309.71,397.87 309.89,397.24 310.02,396.28 310.20,396.59 310.31,398.64 310.49,404.99 310.60,411.25 310.77,421.70 310.88,425.89 311.04,419.99 311.15,413.72 311.30,405.13 311.40,400.16 311.55,393.96 311.65,390.79 311.79,387.87 311.88,387.62 312.02,390.67 312.11,395.30 312.24,406.17 312.32,415.52 312.40,423.65 312.52,414.18 312.60,401.06 312.71,381.41 312.78,369.75 312.88,356.03 312.95,350.05 313.05,346.34 313.11,347.25 313.20,352.69 313.26,357.81 313.34,364.45 313.39,366.04 313.46,362.50 313.51,357.29 313.58,348.89 313.62,344.85 313.68,343.18 313.71,345.39 313.76,352.98 313.80,359.68 313.84,368.72 313.86,371.60 313.90,368.69 313.92,362.70 313.95,351.10 313.96,343.36 313.98,333.47 313.99,328.42 314.00,323.17 314.01,321.08 314.01,319.97 314.01,295.43 314.01,296.46 314.02,304.73 314.02,314.82 314.04,336.65 314.05,355.41 314.07,388.89 314.08,413.60 314.11,412.53 314.13,386.44 314.17,349.69 314.20,328.80 314.24,305.45 314.28,296.27 314.33,292.84 314.37,297.20 314.43,312.07 314.47,325.99 314.54,349.45 314.58,364.45 314.66,381.37 314.71,386.15 314.80,382.39 314.85,375.06 314.94,361.78 315.01,353.52 315.11,344.96 315.17,343.33 315.28,348.92 315.35,358.46 315.47,380.66 315.54,398.65 315.62,413.30 315.75,401.01 315.83,383.20 315.96,361.63 316.05,353.72 316.19,353.74 316.28,361.63 316.42,383.16 316.52,401.41 316.67,416.88 316.77,402.66 316.93,377.78 317.04,365.77 317.20,357.75 317.31,359.32 317.48,370.78 317.59,383.23 317.77,405.54 317.89,419.39 318.07,420.45 318.19,411.55 318.38,402.20 318.50,399.72 318.70,401.55 318.83,405.47 319.02,413.24 319.16,418.59 319.36,423.47 319.50,421.37 319.70,412.98 319.84,407.23 320.06,400.70 320.20,398.76 320.34,399.32 320.56,405.56 320.71,412.98 320.93,421.94 321.08,416.51 321.31,400.05 321.46,389.84 321.69,380.17 321.85,378.27 322.08,382.88 322.24,390.55 322.48,405.89 322.63,414.03 322.88,411.06 323.04,403.09 323.28,394.11 323.44,392.42 323.69,396.70 323.86,403.85 324.11,417.55 324.27,423.22 324.52,416.05 324.69,409.01 324.94,403.49 325.11,403.92 325.37,409.93 325.54,416.17 325.80,421.39 325.97,417.09 326.23,407.20 326.40,401.97 326.66,398.44 326.83,399.03 327.00,401.05 327.26,406.07 327.44,409.19 327.70,411.22 327.87,410.68 328.13,408.87 328.31,408.27 328.57,409.31 328.74,411.36 329.00,416.28 329.17,419.67 329.43,420.54 329.61,417.98 329.87,413.28 330.04,411.33 330.30,411.02 330.47,411.01 330.73,407.88 330.90,403.21 331.15,395.95 331.32,393.52 331.57,395.50 331.74,401.05 331.99,414.59 332.16,421.69 332.41,411.55 332.58,400.23 332.82,387.41 332.99,383.92 333.23,387.03 333.39,394.56 333.56,405.79 333.80,426.70 333.95,425.97 334.19,406.62 334.35,396.91 334.58,389.84 334.74,390.61 334.97,399.11 335.12,408.27 335.34,422.05 335.49,420.48 335.72,407.11 335.86,399.67 336.08,393.85 336.22,394.22 336.44,400.45 336.58,407.17 336.79,418.88 336.92,425.69 337.13,425.30 337.26,421.14 337.46,417.35 337.59,416.63 337.78,417.73 337.91,419.20 338.10,420.92 338.22,420.57 338.40,417.87 338.52,415.32 338.70,411.25 338.81,408.98 338.98,407.12 339.10,407.24 339.21,408.24 339.37,409.35 339.47,408.31 339.63,403.77 339.73,400.02 339.88,396.35 339.98,396.52 340.12,401.86 340.21,408.43 340.35,416.73 340.43,413.23 340.56,398.64 340.65,389.14 340.77,380.38 340.85,379.75 340.96,387.12 341.03,396.03 341.14,404.80 341.21,397.44 341.31,373.66 341.37,357.58 341.47,340.38 341.53,335.80 341.61,340.75 341.66,351.22 341.74,372.30 341.79,381.90 341.86,371.73 341.90,352.53 341.97,321.76 342.00,305.21 342.06,290.76 342.09,289.08 342.12,293.72 342.17,310.94 342.19,327.40 342.23,354.70 342.25,370.34 342.28,379.59 342.29,373.74 342.31,356.17 342.32,343.96 342.33,329.11 342.34,322.45 342.34,317.95 342.34,317.86 342.34,311.84 342.34,313.29 342.35,317.06 342.36,320.68 342.38,327.82 342.40,333.73 342.42,344.25 342.44,352.27 342.47,365.47 342.50,374.72 342.54,388.35 342.57,396.33 342.62,404.06 342.66,404.82 342.71,400.14 342.75,395.37 342.82,388.86 342.86,386.03 342.91,384.94 342.99,387.02 343.04,390.93 343.12,399.83 343.18,406.51 343.27,411.74 343.34,407.74 343.43,394.21 343.50,384.25 343.61,371.80 343.68,366.53 343.79,364.56 343.87,367.64 343.99,378.80 344.07,390.06 344.20,410.84 344.29,424.24 344.42,413.94 344.51,399.86 344.65,382.67 344.75,375.34 344.90,371.77 345.00,374.47 345.15,385.09 345.26,394.92 345.42,407.48 345.53,407.23 345.69,394.31 345.81,384.62 345.98,374.78 346.10,372.93 346.27,377.96 346.40,386.33 346.52,397.96 346.70,416.83 346.83,419.59 347.02,403.17 347.15,391.95 347.35,380.91 347.48,378.71 347.69,382.83 347.82,388.92 348.03,398.06 348.17,399.33 348.38,391.46 348.53,384.16 348.74,376.75 348.89,376.19 349.11,383.34 349.26,392.94 349.48,411.52 349.64,422.43 349.86,415.39 350.02,404.93 350.25,394.03 350.41,391.09 350.64,392.75 350.80,397.49 351.04,407.07 351.20,412.88 351.45,417.16 351.61,417.01 351.85,416.99 352.02,418.42 352.27,422.41 352.43,424.74 352.60,424.54 352.85,420.49 353.02,417.94 353.27,416.86 353.44,418.54 353.70,423.28 353.87,424.53 354.12,418.42 354.30,412.11 354.55,404.08 354.73,400.77 354.98,399.65 355.16,401.98 355.42,409.01 355.59,414.58 355.85,418.85 356.02,416.00 356.29,408.10 356.46,403.56 356.72,400.28 356.89,401.19 357.15,406.25 357.33,411.52 357.59,419.16 357.76,420.52 358.02,415.30 358.19,410.94 358.45,407.14 358.62,407.04 358.88,410.20 359.05,414.16 359.31,419.35 359.48,419.41 359.65,416.42 359.90,410.34 360.07,407.76 360.32,407.11 360.49,408.98 360.74,414.61 360.90,418.43 361.15,418.44 361.32,414.28 361.56,406.49 361.72,402.60 361.96,400.58 362.12,401.73 362.36,407.30 362.52,412.32 362.75,417.05 362.91,415.26 363.14,406.92 363.29,400.89 363.52,394.55 363.67,392.75 363.90,393.90 364.04,397.30 364.26,405.12 364.41,411.20 364.62,419.80 364.76,423.11 364.98,421.45 365.11,418.87 365.32,415.94 365.45,415.21 365.59,415.58 365.79,417.65 365.92,419.39 366.11,421.72 366.24,422.64 366.43,421.60 366.55,419.57 366.73,415.03 366.85,411.09 367.03,403.99 367.14,398.99 367.31,391.45 367.42,386.75 367.59,381.57 367.70,380.04 367.85,381.37 367.96,384.65 368.11,391.96 368.21,396.69 368.35,397.58 368.45,391.79 368.58,377.53 368.67,367.61 368.81,356.12 368.89,352.24 369.01,353.59 369.10,359.61 369.21,375.93 369.29,390.65 369.40,412.51 369.47,412.76 369.57,389.42 369.64,372.41 369.70,357.68 369.79,342.49 369.85,338.03 369.94,340.63 369.99,348.35 370.07,367.30 370.12,382.58 370.19,398.32 370.23,392.27 370.29,364.72 370.33,343.41 370.39,313.54 370.42,296.71 370.47,277.65 370.49,269.46 370.53,263.88 370.55,264.25 370.59,269.80 370.60,275.99 370.63,287.33 370.64,295.29 370.65,306.28 370.66,312.22 370.67,318.06 370.67,319.58 370.67,336.26 370.67,337.42 370.67,341.89 370.68,346.39 370.70,354.44 370.71,359.74 370.73,365.56 370.75,366.95 370.77,366.12 370.80,362.19 370.83,359.45 370.87,358.04 370.90,360.11 370.95,368.72 370.98,377.98 371.04,395.68 371.08,408.18 371.15,419.40 371.19,414.74 371.26,402.97 371.31,396.99 371.40,391.34 371.45,388.37 371.54,381.99 371.60,375.94 371.70,366.53 371.76,362.32 371.86,362.51 371.94,368.13 372.05,384.50 372.12,398.09 372.24,405.63 372.32,393.19 372.44,367.64 372.53,353.40 372.66,341.80 372.75,342.11 372.89,354.79 372.98,369.93 373.08,387.58 373.23,403.77 373.33,395.14 373.48,371.76 373.58,359.26 373.75,351.01 373.85,353.28 374.02,366.54 374.13,378.89 374.31,392.65 374.42,392.11 374.60,380.29 374.72,372.62 374.91,368.64 375.03,372.00 375.22,384.21 375.35,393.68 375.55,399.65 375.68,393.93 375.88,380.35 376.01,373.71 376.22,371.57 376.36,375.71 376.57,389.38 376.71,401.48 376.93,414.24 377.07,410.18 377.29,395.34 377.44,386.83 377.66,380.63 377.81,381.41 378.04,389.31 378.19,398.26 378.35,409.11 378.58,421.57 378.74,416.62 378.97,401.46 379.13,392.82 379.37,385.25 379.53,384.70 379.77,390.23 379.94,397.67 380.18,412.30 380.35,421.46 380.59,421.57 380.76,415.51 381.01,409.96 381.18,410.29 381.43,415.33 381.60,418.01 381.85,413.32 382.02,406.77 382.28,399.88 382.45,399.35 382.71,404.57 382.88,409.75 383.14,408.15 383.31,399.42 383.57,385.70 383.75,380.84 384.01,383.54 384.18,391.77 384.44,410.25 384.61,419.32 384.87,409.10 385.05,400.00 385.22,395.28 385.48,399.05 385.66,408.36 385.92,425.22 386.09,419.56 386.35,400.98 386.52,392.96 386.78,391.20 386.95,396.93 387.21,414.39 387.38,427.57 387.64,412.38 387.81,398.92 388.06,386.12 388.23,384.31 388.48,391.88 388.65,402.72 388.90,423.87 389.07,423.87 389.31,403.24 389.48,392.55 389.72,384.60 389.89,385.50 390.13,394.66 390.29,404.14 390.53,416.58 390.69,416.19 390.93,407.49 391.08,403.78 391.31,404.93 391.47,410.54 391.70,424.01 391.85,426.96 392.00,417.06 392.22,401.75 392.37,394.38 392.59,389.71 392.74,390.97 392.95,397.51 393.09,402.82 393.30,407.25 393.44,405.89 393.65,400.70 393.78,397.74 393.98,395.34 394.11,394.65 394.31,393.32 394.44,391.62 394.63,389.17 394.75,389.01 394.94,393.06 395.06,399.11 395.24,411.61 395.35,419.44 395.53,419.03 395.64,412.60 395.81,405.50 395.92,404.50 396.08,408.18 396.18,410.56 396.34,404.13 396.44,393.94 396.58,377.82 396.68,369.92 396.77,366.10 396.91,369.69 397.00,378.33 397.13,397.41 397.22,407.01 397.34,395.49 397.42,378.53 397.54,355.41 397.62,345.17 397.73,340.45 397.80,344.76 397.90,361.04 397.97,376.44 398.06,399.31 398.12,405.09 398.21,391.71 398.27,378.99 398.35,363.64 398.40,356.78 398.47,350.18 398.52,346.73 398.58,340.90 398.62,336.39 398.68,330.20 398.71,327.86 398.76,329.13 398.79,333.83 398.83,346.65 398.86,358.49 398.89,379.41 398.91,394.00 398.94,412.41 398.95,415.94 398.96,410.05 398.98,397.07 398.99,389.80 398.99,382.76 398.99,380.96 398.99,234.00 399.00,234.59 399.00,236.99 399.01,239.68 399.02,245.45 399.04,250.48 399.06,259.66 399.08,266.64 399.11,277.80 399.13,285.25 399.17,295.78 399.20,302.14 399.24,310.81 399.27,316.34 399.33,324.90 399.37,330.94 399.43,340.04 399.47,345.34 399.54,350.35 399.59,351.02 399.67,348.62 399.72,346.13 399.81,343.92 399.87,344.85 399.96,351.11 400.02,358.60 400.12,373.67 400.19,384.75 400.26,394.61 400.37,401.97 400.45,400.73 400.57,395.61 400.65,393.58 400.77,395.29 400.86,399.58 400.99,408.03 401.08,411.10 401.22,405.35 401.31,397.30 401.45,386.17 401.55,381.80 401.70,381.65 401.81,386.10 401.97,398.88 402.07,410.10 402.24,422.13 402.35,414.63 402.52,397.24 402.63,387.81 402.81,379.85 402.93,379.40 403.11,386.06 403.24,394.79 403.42,411.42 403.55,419.71 403.74,411.48 403.87,400.74 404.07,387.65 404.21,382.60 404.34,380.96 404.55,384.01 404.69,388.53 404.90,395.89 405.04,398.73 405.25,397.89 405.40,395.01 405.62,390.81 405.76,389.52 405.99,389.83 406.14,390.67 406.37,390.62 406.52,389.02 406.75,385.82 406.91,384.24 407.14,384.57 407.30,387.15 407.54,394.44 407.70,400.09 407.94,405.29 408.10,404.34 408.35,398.39 408.51,394.67 408.76,392.38 408.92,394.16 409.17,401.92 409.34,409.58 409.59,419.56 409.76,418.51 410.01,408.17 410.18,401.68 410.44,396.38 410.61,396.46 410.78,399.73 411.04,408.82 411.21,415.28 411.47,416.42 411.64,410.28 411.90,400.34 412.07,396.07 412.33,395.48 412.51,399.46 412.77,410.98 412.94,421.01 413.20,425.63 413.38,415.14 413.64,401.27 413.81,395.15 414.07,392.82 414.24,396.16 414.50,407.53 414.68,417.96 414.94,425.74 415.11,415.13 415.37,399.71 415.54,392.62 415.79,389.08 415.96,392.17 416.22,403.59 416.39,414.68 416.64,427.30 416.81,417.23 417.06,401.29 417.23,393.97 417.48,390.28 417.64,392.99 417.81,398.84 418.05,410.12 418.22,414.86 418.46,410.51 418.62,405.06 418.86,400.60 419.02,401.80 419.25,409.63 419.41,416.03 419.64,416.24 419.80,408.83 420.03,397.41 420.18,393.13 420.40,393.28 420.55,397.90 420.77,410.55 420.92,421.64 421.14,426.37 421.28,415.88 421.49,402.40 421.63,396.38 421.84,392.90 421.97,394.35 422.18,400.71 422.31,406.74 422.51,415.03 422.64,416.38 422.83,410.42 422.96,405.21 423.14,399.88 423.27,398.70 423.45,400.96 423.56,404.56 423.68,408.58 423.85,410.47 423.97,406.86 424.13,398.17 424.24,392.83 424.40,388.38 424.51,388.80 424.66,394.74 424.76,401.41 424.91,410.55 425.01,410.20 425.15,398.81 425.24,389.25 425.37,377.61 425.46,373.27 425.59,372.74 425.67,375.73 425.79,381.89 425.87,383.79 425.98,378.83 426.05,371.23 426.16,358.76 426.23,352.53 426.33,349.25 426.39,351.78 426.48,361.55 426.54,369.76 426.62,377.01 426.67,373.79 426.75,358.07 426.80,345.04 426.84,333.25 426.91,321.70 426.95,319.57 427.01,325.67 427.04,335.75 427.09,358.47 427.12,377.33 427.16,407.30 427.19,418.52 427.22,396.43 427.24,377.13 427.27,350.95 427.28,336.28 427.30,318.88 427.31,310.30 427.32,301.59 427.32,298.33 427.32,296.90 427.32,287.21 427.33,285.62 427.33,283.35 427.34,278.66 427.35,275.12 427.37,270.20 427.39,267.87 427.41,267.07 427.43,269.03 427.47,276.70 427.49,285.25 427.54,302.92 427.57,317.00 427.62,338.05 427.66,348.49 427.70,352.73 427.76,345.85 427.80,335.89 427.87,321.24 427.92,315.28 428.00,315.64 428.05,322.90 428.14,343.72 428.19,362.85 428.29,394.83 428.35,411.23 428.45,400.81 428.52,384.85 428.63,367.31 428.70,362.33 428.81,365.65 428.89,374.24 429.01,392.70 429.10,403.26 429.23,401.10 429.31,390.49 429.45,375.70 429.54,370.31 429.68,371.21 429.78,377.69 429.93,394.42 430.03,408.23 430.19,422.80 430.29,416.25 430.45,402.32 430.56,396.32 430.73,394.09 430.85,396.68 430.96,401.29 431.14,407.35 431.26,407.45 431.44,403.10 431.56,400.21 431.75,399.87 431.88,403.36 432.07,413.87 432.20,422.18 432.40,421.51 432.53,412.59 432.74,400.22 432.87,394.88 433.08,392.66 433.22,394.80 433.44,401.76 433.58,407.68 433.80,413.84 433.94,413.86 434.17,410.50 434.32,408.62 434.54,408.52 434.69,410.47 434.92,414.10 435.08,415.32 435.31,414.79 435.47,413.71 435.71,413.13 435.87,414.25 436.11,416.34 436.27,415.74 436.43,412.37 436.67,404.32 436.84,399.32 437.08,394.45 437.25,393.20 437.50,393.79 437.67,394.40 437.92,392.36 438.09,389.06 438.34,383.87 438.51,382.43 438.77,384.24 438.94,387.84 439.19,394.13 439.36,396.21 439.62,393.51 439.80,389.79 440.05,386.56 440.23,387.68 440.49,394.35 440.66,401.37 440.92,412.72 441.09,416.36 441.36,412.59 441.53,408.20 441.79,404.95 441.96,405.71 442.22,410.32 442.40,414.69 442.66,419.16 442.83,418.25 443.09,413.92 443.26,411.15 443.43,409.27 443.69,408.73 443.86,409.10 444.12,408.89 444.29,407.79 444.55,405.21 444.72,403.51 444.97,401.75 445.14,401.33 445.39,400.98 445.56,400.09 445.80,396.32 445.97,393.08 446.22,389.03 446.38,387.87 446.62,389.90 446.79,394.47 447.03,405.72 447.19,414.66 447.42,420.84 447.58,413.58 447.82,399.47 447.97,392.16 448.20,386.89 448.35,388.03 448.58,396.86 448.73,406.56 448.95,421.48 449.10,420.30 449.32,404.24 449.46,394.60 449.68,386.42 449.82,385.84 449.96,389.21 450.17,400.80 450.30,409.89 450.50,412.51 450.64,403.95 450.84,388.88 450.97,381.30 451.16,376.76 451.28,378.17 451.47,384.30 451.59,388.29 451.77,389.12 451.89,385.51 452.07,378.39 452.18,375.94 452.35,378.31 452.46,383.72 452.62,393.57 452.73,396.28 452.89,388.02 452.99,377.56 453.14,363.76 453.24,359.12 453.38,361.34 453.48,368.95 453.61,386.65 453.70,397.82 453.83,397.14 453.92,384.59 454.04,363.89 454.12,354.10 454.23,349.11 454.31,352.73 454.38,361.43 454.49,381.43 454.55,396.01 454.65,406.52 454.72,399.38 454.81,382.39 454.86,373.12 454.95,364.89 455.00,362.56 455.08,360.48 455.12,357.60 455.19,348.92 455.24,341.04 455.30,329.54 455.33,324.09 455.39,321.47 455.42,323.86 455.46,332.98 455.49,341.62 455.53,355.29 455.55,362.55 455.58,366.93 455.59,364.87 455.61,356.70 455.63,349.96 455.64,340.61 455.64,335.84 455.65,331.75 455.65,331.22 455.65,345.44 455.65,343.33 455.66,339.47 455.67,330.37 455.68,322.32 455.70,308.36 455.71,298.79 455.74,286.16 455.76,280.22 455.80,277.02 455.82,279.56 455.87,290.82 455.90,302.76 455.95,324.49 455.98,338.46 456.04,351.43 456.08,351.96 456.15,344.35 456.20,338.97 456.27,337.68 456.32,343.51 456.41,362.74 456.46,380.80 456.55,404.37 456.61,399.75 456.71,371.48 456.78,353.57 456.88,336.74 456.95,334.23 457.07,344.40 457.14,359.72 457.26,392.29 457.34,417.04 457.47,408.81 457.55,385.85 457.64,366.70 457.78,348.25 457.87,343.65 458.01,347.45 458.11,355.48 458.26,371.68 458.36,382.20 458.52,391.94 458.62,393.08 458.78,390.28 458.89,387.85 459.06,384.46 459.17,382.09 459.35,379.04 459.47,378.30 459.65,380.88 459.77,385.59 459.95,395.63 460.08,400.82 460.27,397.86 460.40,389.51 460.59,376.25 460.73,370.61 460.93,370.23 461.07,375.66 461.27,390.47 461.41,401.02 461.62,402.92 461.76,392.98 461.98,376.07 462.13,368.55 462.35,366.61 462.49,371.63 462.64,380.77 462.87,398.17 463.02,406.37 463.25,401.67 463.41,392.54 463.64,382.03 463.80,379.91 464.03,384.96 464.19,392.83 464.43,406.37 464.59,411.62 464.84,406.64 465.00,399.95 465.25,392.96 465.41,391.43 465.66,393.69 465.83,396.38 466.08,398.38 466.25,397.37 466.50,394.58 466.67,393.70 466.92,395.56 467.09,398.94 467.35,405.81 467.52,409.57 467.78,410.59 467.95,408.87 468.21,405.87 468.38,404.82 468.64,404.06 468.81,403.73 468.99,403.22 469.25,402.44 469.42,402.59 469.68,405.88 469.86,410.38 470.12,419.67 470.29,425.82 470.55,423.59 470.73,417.42 470.99,409.72 471.16,406.34 471.42,403.77 471.59,402.78 471.85,401.12 472.02,400.11 472.28,399.27 472.45,399.91 472.70,403.64 472.87,406.90 473.13,411.50 473.30,413.27 473.55,414.04 473.72,415.07 473.97,418.62 474.13,422.35 474.38,427.95 474.54,427.10 474.79,420.35 474.95,415.36 475.19,407.81 475.35,403.17 475.59,398.27 475.75,397.11 475.91,398.31 476.14,405.92 476.30,414.67 476.53,428.86 476.68,420.68 476.91,401.81 477.06,391.40 477.28,382.14 477.43,381.16 477.65,387.63 477.79,396.62 478.00,412.85 478.15,417.87 478.36,407.10 478.49,398.07 478.70,390.23 478.83,390.46 479.03,399.09 479.16,409.28 479.36,428.07 479.49,424.77 479.67,406.99 479.80,398.47 479.98,392.96 480.10,394.29 480.28,402.90 480.40,411.41 480.57,420.78 480.68,417.21 480.84,406.60 480.95,401.62 481.11,398.96 481.22,399.76 481.32,401.13 481.47,400.29 481.57,396.62 481.71,389.07 481.80,385.18 481.94,384.07 482.03,387.03 482.16,396.11 482.24,403.90 482.37,413.99 482.45,416.16 482.56,412.86 482.64,410.46 482.74,410.21 482.81,412.38 482.92,416.80 482.98,417.92 483.07,414.57 483.13,410.69 483.22,404.54 483.28,399.84 483.35,390.01 483.40,381.12 483.48,365.65 483.52,355.57 483.58,343.87 483.62,339.89 483.68,341.25 483.71,347.16 483.76,361.86 483.79,372.97 483.83,382.55 483.85,378.32 483.88,366.23 483.90,341.89 483.92,325.45 483.94,303.77 483.95,292.10 483.97,279.13 483.97,273.41 483.98,268.88 483.98,268.32 483.98,246.39 483.98,245.92 483.99,244.85 484.00,244.26 484.01,244.30 484.03,245.39 484.05,249.22 484.07,253.43 484.10,262.24 484.12,269.65 484.16,282.77 484.19,292.70 484.24,309.31 484.28,321.54 484.33,341.61 484.37,355.84 484.43,376.89 484.48,388.55 484.55,395.88 484.60,392.21 484.68,381.05 484.73,374.33 484.79,370.12 484.88,370.05 484.94,374.35 485.04,386.28 485.11,396.28 485.21,408.51 485.28,409.02 485.39,399.03 485.47,391.25 485.59,383.24 485.67,381.42 485.80,384.07 485.88,388.64 486.01,396.94 486.11,400.85 486.24,399.76 486.34,394.58 486.49,384.51 486.59,378.32 486.74,371.64 486.84,369.27 487.00,368.83 487.11,370.52 487.28,375.40 487.39,379.41 487.56,384.95 487.68,387.44 487.85,388.55 487.97,387.87 488.16,386.78 488.28,387.22 488.47,390.68 488.60,395.16 488.73,401.22 488.92,411.86 489.06,417.78 489.26,418.04 489.39,413.32 489.60,406.31 489.74,403.65 489.95,403.57 490.09,405.78 490.31,410.44 490.45,412.78 490.67,413.00 490.82,411.55 491.05,410.02 491.20,410.40 491.43,412.67 491.58,414.50 491.81,415.35 491.97,414.54 492.20,414.39 492.36,416.40 492.60,422.01 492.76,423.35 493.00,413.14 493.17,403.65 493.41,391.19 493.57,385.76 493.82,384.07 493.99,387.19 494.24,395.86 494.41,401.60 494.66,403.34 494.83,399.06 495.00,393.49 495.25,387.79 495.42,387.82 495.68,393.76 495.85,400.45 496.11,410.12 496.28,411.55 496.54,404.48 496.71,398.34 496.97,392.85 497.14,393.04 497.40,398.88 497.58,405.69 497.84,417.95 498.01,423.09 498.27,417.49 498.45,410.97 498.71,404.41 498.88,402.90 499.14,404.74 499.31,408.30 499.57,415.72 499.75,420.25 500.00,423.50 500.18,422.12 500.43,418.39 500.61,416.12 500.86,413.70 501.03,412.86 501.29,412.19 501.46,412.06 501.62,412.66 501.88,414.37 502.04,415.89 502.29,418.23 502.46,419.23 502.71,418.84 502.87,417.63 503.12,415.06 503.28,413.01 503.52,409.38 503.68,406.44 503.92,402.58 504.08,400.82 504.31,400.38 504.47,402.04 504.70,408.32 504.86,414.57 505.08,425.36 505.24,427.71 505.46,417.25 505.61,410.35 505.83,403.65 505.97,402.23 506.19,405.34 506.33,410.63 506.54,421.17 506.68,425.00 506.89,416.50 507.03,409.04 507.23,401.39 507.36,399.83 507.56,403.50 507.68,409.55 507.81,417.78 508.00,427.20 508.13,419.70 508.31,405.60 508.43,398.46 508.61,393.15 508.72,393.44 508.89,398.84 509.01,404.17 509.17,408.73 509.28,406.03 509.44,396.32 509.54,389.53 509.70,381.59 509.80,377.80 509.94,372.87 510.04,368.89 510.18,361.02 510.27,355.31 510.40,348.91 510.49,347.86 510.61,353.02 510.69,361.07 510.81,377.15 510.89,385.49 511.00,381.31 511.07,367.69 511.18,343.37 511.24,329.79 511.34,318.47 511.40,318.58 511.49,331.11 511.55,347.20 511.60,368.41 511.68,406.07 511.73,422.29 511.80,388.43 511.85,364.52 511.91,336.48 511.95,324.67 512.01,318.61 512.04,322.29 512.09,338.09 512.12,354.06 512.16,382.70 512.18,401.35 512.21,408.61 512.23,394.02 512.26,367.99 512.27,352.39 512.29,333.49 512.29,324.13 512.30,314.94 512.30,311.92 512.30,230.45 512.31,230.86 512.31,234.14 512.32,238.28 512.33,247.74 512.34,256.35 512.36,272.80 512.38,285.93 512.41,307.98 512.43,323.35 512.45,338.18 512.49,356.88 512.52,365.28 512.57,370.81 512.60,371.20 512.66,370.89 512.70,371.84 512.76,375.74 512.81,379.02 512.88,381.25 512.93,378.83 513.01,369.37 513.06,361.30 513.15,350.77 513.21,346.76 513.30,347.48 513.37,353.01 513.47,368.65 513.54,383.11 513.65,407.79 513.72,419.74 513.84,405.56 513.92,390.78 514.04,373.23 514.12,366.01 514.25,362.60 514.34,365.04 514.48,374.25 514.57,382.63 514.72,395.51 514.81,402.40 514.96,408.50 515.07,410.72 515.17,412.74 515.33,416.72 515.44,419.91 515.60,423.06 515.72,422.57 515.89,419.98 516.00,419.01 516.18,418.65 516.30,417.11 516.48,410.16 516.61,403.27 516.80,392.77 516.92,387.58 517.12,384.84 517.25,386.83 517.45,395.85 517.58,405.22 517.79,420.38 517.93,422.18 518.14,409.47 518.28,401.15 518.49,394.17 518.64,393.95 518.85,399.80 519.00,406.48 519.22,417.24 519.37,420.02 519.60,414.32 519.75,409.92 519.98,406.91 520.14,407.56 520.37,410.64 520.53,410.94 520.69,408.60 520.93,402.56 521.09,399.09 521.33,398.20 521.49,401.10 521.74,409.61 521.90,416.31 522.15,418.85 522.32,412.89 522.57,403.55 522.73,399.98 522.98,400.82 523.15,405.92 523.41,418.79 523.58,429.33 523.83,420.43 524.00,410.08 524.26,399.25 524.43,395.99 524.69,398.16 524.86,403.94 525.12,414.98 525.30,417.24 525.56,407.22 525.73,399.20 525.99,392.52 526.16,392.95 526.43,401.47 526.60,411.26 526.86,422.49 527.03,416.47 527.29,402.29 527.47,396.46 527.64,395.04 527.90,400.92 528.07,409.63 528.33,427.73 528.50,426.94 528.76,408.33 528.93,398.09 529.19,388.15 529.36,385.92 529.61,389.04 529.78,394.81 530.04,407.25 530.20,414.93 530.46,414.09 530.62,406.36 530.87,395.18 531.04,390.75 531.28,390.04 531.44,392.93 531.69,400.72 531.85,405.88 532.09,408.17 532.25,405.86 532.49,400.93 532.64,399.00 532.88,398.47 533.03,398.36 533.26,396.79 533.41,394.77 533.64,392.52 533.79,392.81 533.94,394.82 534.16,400.25 534.30,403.25 534.52,402.04 534.66,397.59 534.87,390.70 535.01,388.62 535.22,391.21 535.35,395.89 535.55,401.39 535.69,399.08 535.88,387.96 536.01,380.43 536.20,375.42 536.33,378.26 536.51,392.29 536.64,406.28 536.82,416.82 536.93,402.05 537.11,376.23 537.22,363.49 537.39,355.71 537.50,359.05 537.66,375.58 537.77,391.58 537.92,406.41 538.02,395.88 538.17,371.20 538.27,358.91 538.41,352.30 538.50,356.16 538.64,370.36 538.73,379.53 538.81,381.01 538.94,365.72 539.02,352.20 539.14,339.76 539.22,340.48 539.33,357.15 539.40,377.91 539.50,418.70 539.57,415.81 539.67,371.90 539.73,347.62 539.82,324.81 539.88,320.67 539.96,331.39 540.01,347.64 540.08,374.28 540.13,378.38 540.20,352.53 540.24,328.67 540.30,299.94 540.33,289.75 540.39,290.67 540.42,301.72 540.46,329.97 540.49,351.48 540.52,368.92 540.54,358.67 540.57,322.59 540.58,295.77 540.60,259.63 540.61,240.07 540.62,218.56 540.63,209.49 540.63,204.50 540.63,277.34 540.63,277.54 540.64,279.19 540.64,281.23 540.66,285.77 540.67,289.80 540.69,297.38 540.70,303.36 540.73,313.44 540.76,320.58 540.79,331.13 540.82,337.51 540.86,345.24 540.90,348.82 540.95,351.89 540.99,352.73 541.05,352.97 541.09,352.83 541.16,352.37 541.21,351.85 541.28,350.64 541.33,349.68 541.42,348.70 541.48,348.96 541.57,351.89 541.63,356.16 541.73,366.72 541.80,376.57 541.90,394.79 541.97,408.22 542.05,420.72 542.16,418.25 542.24,406.39 542.37,390.34 542.45,382.39 542.58,375.52 542.67,374.45 542.81,377.66 542.90,382.17 543.04,389.97 543.14,394.14 543.29,396.85 543.39,396.41 543.55,394.66 543.66,394.29 543.82,396.39 543.93,399.51 544.10,405.29 544.21,408.37 544.39,409.07 544.51,406.72 544.69,401.84 544.81,399.30 545.00,397.86 545.12,398.90 545.32,403.25 545.45,407.22 545.64,413.10 545.78,416.13 545.98,419.24 546.12,420.31 546.32,421.93 546.46,423.34 546.61,424.09 546.82,421.90 546.96,419.00 547.18,414.11 547.33,411.47 547.55,409.64 547.70,409.88 547.93,411.85 548.08,413.81 548.31,416.23 548.47,416.66 548.70,415.80 548.86,414.92 549.10,414.86 549.26,416.16 549.50,419.12 549.66,421.53 549.90,423.49 550.07,421.96 550.31,417.28 550.48,413.89 550.73,410.04 550.89,408.68 551.14,407.87 551.31,408.22 551.57,409.77 551.74,411.03 551.99,413.36 552.16,415.50 552.42,418.80 552.59,421.63 552.85,425.95 553.02,426.94 553.19,424.85 553.45,419.21 553.62,415.53 553.88,411.22 554.06,409.60 554.32,409.97 554.49,411.85 554.75,416.64 554.93,420.70 555.19,424.89 555.36,423.15 555.62,416.75 555.79,412.58 556.05,408.19 556.23,406.73 556.49,407.51 556.66,410.02 556.92,415.91 557.09,420.90 557.35,429.48 557.52,432.38 557.77,425.24 557.94,421.00 558.20,416.47 558.36,415.04 558.62,414.38 558.78,415.14 559.03,417.55 559.20,419.44 559.44,421.99 559.61,423.62 559.85,425.28 560.02,425.75 560.18,425.70 560.42,424.99 560.58,424.09 560.81,422.16 560.97,420.91 561.20,419.28 561.36,418.29 561.59,416.55 561.74,415.50 561.97,414.10 562.12,413.26 562.34,412.21 562.48,411.95 562.70,412.62 562.84,413.49 563.06,415.37 563.20,416.83 563.41,418.56 563.54,419.02 563.75,417.78 563.88,415.88 564.08,413.04 564.21,411.90 564.40,412.12 564.53,413.49 564.72,414.92 564.84,413.03 565.02,404.52 565.14,396.60 565.32,384.59 565.44,378.15 565.55,373.93 565.72,372.75 565.83,375.93 565.99,386.78 566.09,397.23 566.25,413.33 566.35,415.81 566.50,401.09 566.60,388.98 566.74,374.21 566.83,368.27 566.97,366.67 567.06,370.50 567.18,382.32 567.27,392.62 567.39,405.64 567.47,406.39 567.58,395.29 567.66,386.17 567.76,376.21 567.83,373.60 567.93,376.47 568.00,382.32 568.09,393.66 568.15,398.75 568.23,394.26 568.29,384.42 568.36,367.57 568.41,358.09 568.48,349.38 568.52,348.05 568.59,352.91 568.63,360.12 568.66,369.39 568.71,383.08 568.74,387.54 568.79,380.75 568.81,369.20 568.85,348.37 568.87,334.70 568.90,316.65 568.91,306.79 568.93,295.42 568.94,289.97 568.95,284.51 568.96,282.38 568.96,281.04 568.96,116.73 568.96,119.70 568.97,126.37 568.98,143.53 568.98,159.55 569.00,189.24 569.02,211.18 569.04,242.18 569.06,257.13 569.09,263.86 569.12,257.44 569.16,238.97 569.19,226.87 569.24,217.40 569.28,219.77 569.33,237.87 569.37,258.53 569.44,296.92 569.48,321.70 569.53,339.11 569.61,341.82 569.66,332.16 569.74,317.14 569.80,312.53 569.89,316.14 569.96,323.98 570.05,337.60 570.12,343.46 570.23,344.11 570.30,341.77 570.41,341.77 570.49,347.09 570.61,363.40 570.69,376.19 570.82,382.00 570.91,370.81 571.04,345.87 571.13,332.22 571.28,323.39 571.37,327.00 571.52,346.04 571.62,365.36 571.77,392.83 571.88,393.99 572.04,370.20 572.15,353.90 572.31,340.24 572.43,340.53 572.60,354.92 572.72,371.95 572.84,391.30 573.02,404.68 573.14,392.17 573.33,367.79 573.45,356.49 573.64,351.46 573.77,356.50 573.97,374.00 574.10,389.44 574.31,409.06 574.44,408.47 574.65,393.65 574.79,385.61 575.00,380.99 575.15,382.60 575.36,389.11 575.51,392.74 575.73,392.65 575.88,390.17 576.10,388.03 576.26,389.77 576.49,399.05 576.64,408.95 576.87,422.35 577.03,417.23 577.27,399.88 577.42,390.20 577.66,382.06 577.82,381.45 578.07,386.83 578.23,393.40 578.48,401.94 578.64,402.79 578.80,399.22 579.05,391.48 579.22,388.22 579.47,388.38 579.64,392.07 579.89,401.46 580.06,407.99 580.32,411.69 580.49,409.37 580.75,404.62 580.92,403.40 581.17,404.99 581.35,407.15 581.61,409.05 581.78,408.02 582.04,404.70 582.21,402.64 582.47,401.30 582.65,400.88 582.91,399.15 583.08,397.10 583.34,394.39 583.51,393.98 583.78,396.26 583.95,399.77 584.21,407.39 584.38,412.70 584.64,418.80 584.81,420.68 585.07,420.92 585.25,421.07 585.50,422.45 585.67,424.45 585.84,427.19 586.10,430.05 586.27,427.65 586.52,421.86 586.69,418.27 586.94,415.10 587.11,415.10 587.36,418.31 587.53,422.52 587.77,428.54 587.94,425.34 588.18,416.70 588.34,412.05 588.58,409.43 588.74,411.54 588.98,419.98 589.14,426.38 589.38,416.60 589.53,404.38 589.76,387.78 589.92,379.68 590.14,374.48 590.29,376.59 590.52,387.52 590.66,397.65 590.88,406.81 591.03,400.19 591.24,380.64 591.39,368.96 591.60,358.83 591.73,358.43 591.94,368.17 592.08,380.30 592.21,394.48 592.41,406.81 592.54,399.05 592.73,377.63 592.86,365.50 593.05,355.66 593.17,355.56 593.35,364.45 593.47,375.18 593.65,394.83 593.76,406.33 593.93,411.40 594.05,407.27 594.21,401.81 594.32,401.74 594.47,407.68 594.58,414.73 594.73,423.61 594.83,420.62 594.97,410.39 595.07,404.91 595.21,400.46 595.29,399.45 595.43,398.22 595.51,395.79 595.64,388.67 595.72,382.84 595.83,375.51 595.91,372.73 596.02,372.36 596.09,374.26 596.16,377.17 596.26,381.65 596.32,383.78 596.42,385.34 596.47,385.65 596.56,385.34 596.61,384.24 596.69,379.98 596.74,375.02 596.81,365.45 596.85,358.97 596.91,351.56 596.95,349.27 597.01,350.79 597.04,354.96 597.09,364.46 597.11,371.27 597.15,378.27 597.18,378.73 597.21,372.98 597.22,366.64 597.25,356.59 597.26,350.69 597.27,343.85 597.28,340.72 597.29,337.97 597.29,337.31 597.29,248.33 597.29,250.31 597.30,258.03 597.30,265.96 597.32,280.77 597.33,291.27 597.34,300.74 597.37,309.49 597.39,309.80 597.42,301.97 597.45,293.35 597.49,280.38 597.52,274.34 597.57,272.10 597.60,275.80 597.66,288.16 597.70,299.19 597.77,315.10 597.81,322.24 597.89,325.23 597.94,323.53 598.02,321.07 598.07,322.46 598.16,331.71 598.22,342.44 598.32,361.95 598.38,373.13 598.49,378.41 598.56,373.60 598.67,363.11 598.74,358.95 598.86,361.01 598.94,368.30 599.06,386.39 599.15,400.79 599.28,415.02 599.37,409.52 599.51,394.18 599.60,386.82 599.70,383.46 599.85,385.90 599.95,391.09 600.10,399.08 600.21,400.55 600.37,394.88 600.48,389.11 600.64,382.91 600.75,381.93 600.93,384.84 601.04,388.10 601.22,391.41 601.34,391.13 601.53,388.11 601.65,386.60 601.84,388.36 601.97,392.84 602.17,404.09 602.30,413.27 602.50,420.84 602.64,415.38 602.84,404.00 602.98,398.67 603.19,396.41 603.33,399.16 603.55,408.74 603.69,417.46 603.91,427.62 604.06,422.10 604.28,410.76 604.43,405.52 604.58,402.76 604.81,402.96 604.97,405.72 605.20,412.25 605.36,416.41 605.59,419.66 605.75,419.37 605.99,417.88 606.15,417.21 606.39,416.94 606.56,417.01 606.80,417.06 606.97,417.14 607.22,418.79 607.38,421.05 607.63,425.64 607.80,426.70 608.05,420.64 608.22,414.86 608.48,406.84 608.65,403.08 608.90,400.68 609.07,400.99 609.33,403.30 609.50,405.22 609.76,406.81 609.93,406.59 610.19,405.60 610.37,405.82 610.63,408.04 610.80,410.68 611.06,414.60 611.23,415.53 611.41,414.02 611.67,408.84 611.84,405.38 612.10,402.42 612.28,402.14 612.54,404.07 612.71,406.46 612.97,409.89 613.14,410.84 613.40,409.30 613.57,407.19 613.83,404.58 614.00,404.18 614.26,405.99 614.43,408.90 614.68,413.78 614.85,414.99 615.10,411.78 615.27,408.12 615.52,404.46 615.69,404.33 615.94,408.14 616.10,413.09 616.35,423.05 616.51,429.90 616.75,427.93 616.91,422.61 617.15,416.51 617.31,413.62 617.55,410.48 617.70,408.48 617.94,404.99 618.09,402.12 618.24,398.94 618.47,393.90 618.62,390.90 618.84,388.20 618.99,387.96 619.21,389.79 619.36,391.52 619.57,392.88 619.71,392.56 619.92,390.89 620.06,390.26 620.27,392.02 620.40,395.41 620.60,403.37 620.74,408.86 620.93,411.35 621.06,407.66 621.25,399.28 621.37,394.66 621.56,391.67 621.68,392.70 621.86,397.72 621.98,402.28 622.15,408.23 622.26,410.07 622.43,409.57 622.54,408.49 622.70,407.95 622.80,408.75 622.96,411.27 623.06,412.86 623.20,412.54 623.30,409.55 623.39,404.63 623.53,395.18 623.62,388.49 623.75,379.77 623.84,376.03 623.96,375.24 624.04,378.64 624.16,390.12 624.24,401.61 624.35,419.86 624.42,417.11 624.52,393.48 624.59,377.30 624.68,357.72 624.74,349.56 624.83,346.55 624.89,350.99 624.97,366.25 625.02,380.35 625.09,399.35 625.14,399.95 625.20,380.29 625.24,363.92 625.30,343.14 625.33,333.72 625.38,327.46 625.41,328.42 625.46,336.25 625.48,344.42 625.51,358.07 625.53,365.99 625.55,371.29 625.57,372.77 625.59,370.08 625.60,363.62 625.61,359.37 625.61,354.87 625.62,353.67 625.62,267.95 625.62,270.39 625.62,280.31 625.63,291.26 625.64,314.39 625.66,334.11 625.68,368.40 625.70,390.38 625.73,393.84 625.75,371.00 625.79,329.93 625.82,305.03 625.86,277.09 625.90,266.97 625.95,266.94 625.99,277.41 626.05,307.61 626.09,335.46 626.16,382.09 626.21,403.87 626.29,380.30 626.34,354.51 626.43,325.61 626.49,316.16 626.58,318.50 626.64,330.63 626.71,349.99 626.81,388.69 626.88,416.87 626.99,404.78 627.07,380.35 627.19,353.65 627.27,344.55 627.39,345.11 627.48,354.38 627.61,378.51 627.70,398.57 627.84,421.48 627.93,409.53 628.08,386.71 628.17,376.81 628.33,372.27 628.43,375.96 628.59,389.12 628.69,400.24 628.86,411.40 628.97,408.81 629.14,398.05 629.26,392.52 629.43,389.90 629.55,391.65 629.73,396.55 629.86,398.72 630.04,397.54 630.17,394.76 630.36,391.40 630.49,391.22 630.69,394.14 630.83,397.06 630.96,399.16 631.17,398.26 631.31,395.32 631.52,391.00 631.66,389.88 631.87,392.27 632.02,396.12 632.24,401.66 632.39,402.20 632.61,396.66 632.76,391.21 632.99,385.53 633.14,384.83 633.37,389.29 633.53,395.51 633.76,406.62 633.92,410.98 634.16,405.84 634.32,398.62 634.56,390.03 634.72,387.98 634.97,391.39 635.13,397.19 635.38,408.84 635.54,414.85 635.79,412.68 635.96,406.42 636.21,398.42 636.38,396.07 636.63,397.42 636.80,400.89 636.97,405.93 637.23,415.27 637.40,421.09 637.66,426.84 637.83,426.47 638.09,422.27 638.26,418.98 638.52,414.42 638.69,411.84 638.95,408.78 639.13,407.64 639.39,407.65 639.56,408.45 639.82,410.25 640.00,411.69 640.26,413.30 640.43,413.56 640.69,413.28 640.86,412.85 641.12,411.46 641.30,410.29 641.56,408.87 641.73,408.23 641.99,408.10 642.16,408.94 642.41,412.01 642.58,414.86 642.84,420.30 643.01,424.50 643.26,429.48 643.43,428.36 643.68,422.58 643.85,418.59 644.02,414.98 644.26,410.49 644.43,408.82 644.67,408.45 644.84,409.73 645.08,414.32 645.24,419.22 645.48,427.80 645.64,430.94 645.87,421.88 646.03,415.69 646.26,408.80 646.42,405.91 646.65,404.63 646.80,405.76 647.02,409.20 647.17,411.35 647.39,412.00 647.54,410.68 647.76,407.88 647.90,406.72 648.11,407.56 648.25,410.24 648.46,417.28 648.60,422.69 648.80,424.81 648.93,419.78 649.13,410.95 649.26,406.57 649.45,403.96 649.58,405.07 649.76,411.08 649.89,417.77 650.01,426.03 650.19,426.28 650.30,416.29 650.48,402.49 650.59,394.96 650.76,387.38 650.86,385.47 651.02,387.72 651.13,392.57 651.28,404.02 651.38,413.20 651.53,423.45 651.63,419.69 651.77,407.17 651.86,399.93 651.99,393.31 652.08,392.22 652.21,395.17 652.29,399.00 652.41,403.28 652.49,402.39 652.60,395.40 652.67,389.65 652.78,383.97 652.85,383.99 652.95,391.35 653.01,401.03 653.10,417.20 653.16,412.66 653.24,384.53 653.29,363.38 653.37,334.16 653.42,318.58 653.46,307.50 653.53,301.10 653.57,304.25 653.63,320.03 653.66,337.17 653.71,370.28 653.74,394.27 653.78,407.95 653.81,386.71 653.84,347.44 653.86,322.61 653.89,290.10 653.90,272.19 653.92,251.15 653.93,240.86 653.94,230.48 653.94,226.61 653.94,224.92 653.94,310.97 653.95,310.02 653.95,308.72 653.96,306.28 653.97,304.72 653.99,303.29 654.01,303.44 654.03,306.21 654.05,310.27 654.09,320.51 654.12,330.52 654.16,350.69 654.19,367.39 654.22,385.77 654.28,407.83 654.32,401.83 654.38,371.23 654.42,349.45 654.49,321.90 654.54,309.23 654.62,301.43 654.67,304.45 654.76,321.02 654.82,338.85 654.91,370.85 654.97,389.31 655.07,390.72 655.14,375.88 655.25,353.82 655.32,345.16 655.44,344.78 655.51,353.13 655.64,376.34 655.72,396.30 655.85,419.39 655.94,407.31 656.07,381.93 656.16,370.11 656.31,363.60 656.40,367.24 656.55,383.39 656.65,398.81 656.81,416.31 656.91,407.64 657.08,384.65 657.19,372.41 657.30,364.81 657.47,363.59 657.58,369.42 657.76,385.64 657.88,399.20 658.06,416.11 658.18,415.17 658.37,402.85 658.50,396.84 658.69,394.75 658.82,397.97 659.02,409.00 659.15,419.09 659.36,430.47 659.50,421.27 659.70,408.76 659.84,402.91 660.06,399.08 660.20,399.22 660.42,401.83 660.57,404.20 660.79,408.29 660.94,410.67 661.16,414.56 661.32,417.20 661.55,418.22 661.70,415.69 661.93,409.07 662.09,404.57 662.33,400.74 662.49,400.75 662.73,404.51 662.89,409.37 663.05,415.24 663.29,420.23 663.46,417.61 663.71,409.66 663.87,405.33 664.12,402.27 664.29,402.48 664.54,405.62 664.71,408.72 664.96,412.04 665.13,412.47 665.39,411.48 665.56,410.89 665.81,411.43 665.99,412.33 666.24,414.41 666.42,415.40 666.68,415.72 666.85,415.60 667.11,416.27 667.28,417.22 667.54,419.03 667.72,420.30 667.98,422.56 668.15,424.55 668.41,426.69 668.58,424.42 668.85,415.79 669.02,409.14 669.28,401.57 669.45,399.01 669.62,399.19 669.88,404.66 670.06,409.84 670.31,410.57 670.49,404.35 670.74,393.14 670.91,388.78 671.17,389.84 671.34,396.20 671.59,412.54 671.76,422.51 672.01,412.56 672.18,401.33 672.43,391.62 672.59,391.62 672.84,400.54 673.00,409.50 673.24,411.02 673.41,399.62 673.65,381.34 673.81,373.27 674.04,371.13 674.20,377.40 674.44,396.39 674.59,413.39 674.82,423.16 674.97,406.14 675.20,385.97 675.35,378.59 675.57,378.20 675.72,385.17 675.94,403.91 676.08,418.17 676.23,421.19 676.44,401.61 676.58,389.98 676.79,381.25 676.92,382.16 677.13,392.89 677.26,404.54 677.46,419.73 677.59,413.44 677.78,394.76 677.90,385.08 678.09,378.47 678.21,379.90 678.39,390.41 678.51,401.60 678.69,420.08 678.80,425.44 678.97,413.73 679.08,407.10 679.25,403.47 679.35,405.14 679.51,409.66 679.61,409.26 679.76,400.82 679.86,393.67 680.00,386.64 680.10,386.39 680.23,393.92 680.32,403.75 680.45,418.54 680.54,412.66 680.66,388.87 680.74,373.23 680.82,360.39 680.93,348.99 681.00,347.59 681.11,354.82 681.18,364.98 681.27,384.88 681.34,397.36 681.43,401.86 681.49,393.19 681.57,376.07 681.62,366.31 681.70,356.03 681.75,351.66 681.81,346.91 681.86,343.69 681.92,337.52 681.95,332.63 682.01,325.50 682.04,321.88 682.08,319.54 682.11,320.45 682.15,325.47 682.17,330.88 682.20,341.00 682.21,348.31 682.24,358.81 682.25,364.84 682.26,371.73 682.27,374.76 682.27,377.12 682.27,377.40 682.27,294.12 682.27,295.74 682.28,298.76 682.29,306.31 682.30,313.64 682.32,328.47 682.33,340.84 682.36,362.07 682.38,376.14 682.42,389.03 682.44,385.78 682.49,366.57 682.52,350.98 682.57,330.44 682.61,320.87 682.66,314.90 682.71,317.09 682.77,329.40 682.82,342.77 682.89,367.83 682.95,385.24 683.03,403.32 683.08,402.28 683.17,388.90 683.24,380.78 683.33,375.00 683.40,375.80 683.50,382.15 683.58,387.46 683.69,391.43 683.76,389.24 683.88,381.40 683.96,376.55 684.05,374.07 684.18,376.79 684.26,383.29 684.40,399.13 684.49,411.98 684.63,422.40 684.73,412.58 684.88,395.60 684.98,387.46 685.14,382.29 685.24,383.81 685.40,392.51 685.51,400.62 685.68,409.14 685.80,407.08 685.97,396.16 686.09,389.16 686.27,383.66 686.39,384.25 686.57,390.73 686.70,397.12 686.89,404.30 687.02,403.57 687.22,395.54 687.35,389.72 687.55,384.66 687.69,384.69 687.89,389.90 688.03,395.45 688.24,402.58 688.39,403.70 688.60,399.44 688.75,395.64 688.89,393.28 689.12,393.83 689.26,397.16 689.49,405.53 689.64,412.06 689.87,418.28 690.03,416.97 690.26,410.94 690.42,407.61 690.65,406.10 690.81,407.62 691.05,412.88 691.22,417.68 691.46,423.93 691.62,424.58 691.87,421.12 692.03,418.64 692.28,417.11 692.45,417.72 692.70,419.74 692.87,420.33 693.12,418.26 693.29,415.33 693.54,410.98 693.71,408.98 693.97,408.54 694.14,410.08 694.40,414.61 694.57,418.81 694.83,425.36 695.00,426.87 695.26,422.94 695.44,419.15 695.61,415.94 695.87,413.16 696.04,412.27 696.30,412.79 696.48,414.03 696.74,416.49 696.91,418.39 697.17,420.93 697.35,422.30 697.61,424.22 697.78,425.20 698.04,426.46 698.21,427.16 698.47,427.53 698.64,427.58 698.90,427.37 699.07,426.91 699.33,425.97 699.50,425.27 699.75,424.32 699.92,423.81 700.17,423.78 700.34,424.36 700.59,425.87 700.75,427.05 701.00,427.30 701.17,425.67 701.41,421.82 701.57,418.85 701.81,415.03 701.97,413.51 702.13,412.80 702.37,413.53 702.53,415.39 702.76,419.11 702.92,421.04 703.15,420.89 703.30,418.08 703.53,412.61 703.68,409.39 703.90,406.26 704.05,405.59 704.27,407.34 704.41,409.57 704.63,412.61 704.77,413.16 704.98,410.64 705.11,407.52 705.32,403.58 705.45,402.48 705.65,403.77 705.78,406.66 705.98,412.76 706.11,415.74 706.29,413.00 706.42,407.36 706.60,397.84 706.72,392.57 706.90,388.16 707.02,388.02 707.19,391.89 707.30,396.31 707.47,403.00 707.57,405.46 707.68,405.13 707.84,400.85 707.94,397.81 708.09,396.09 708.19,397.74 708.33,404.61 708.42,411.58 708.56,421.46 708.65,419.50 708.78,405.42 708.86,395.19 708.99,382.31 709.07,376.42 709.18,372.57 709.26,373.45 709.37,379.54 709.44,386.01 709.54,396.42 709.60,400.52 709.70,396.66 709.76,388.40 709.84,373.23 709.90,363.54 709.98,351.85 710.03,346.69 710.10,343.53 710.14,344.55 710.20,350.51 710.24,357.02 710.30,369.47 710.33,378.49 710.38,390.15 710.41,394.05 710.44,393.04 710.48,383.60 710.50,374.56 710.53,360.23 710.54,351.22 710.56,339.42 710.57,332.96 710.59,325.56 710.59,322.18 710.60,319.43 710.60,319.09 710.60,374.70 710.60,373.33 710.61,368.38 710.62,362.54 710.63,349.70 710.65,338.96 710.67,321.51 710.69,310.49 710.72,297.78 710.75,293.50 710.79,295.77 710.81,304.00 710.86,326.52 710.90,347.02 710.95,378.26 710.99,386.14 711.05,362.18 711.10,337.33 711.17,304.64 711.22,290.46 711.30,284.67 711.35,291.99 711.41,307.80 711.50,344.18 711.56,372.63 711.66,399.81 711.73,385.92 711.83,351.58 711.90,334.09 712.01,322.58 712.09,325.67 712.21,345.12 712.29,365.61 712.42,399.04 712.50,406.95 712.64,382.38 712.73,364.12 712.87,346.43 712.96,342.86 713.11,349.78 713.21,361.24 713.36,384.67 713.46,400.54 713.62,410.48 713.73,403.46 713.90,390.48 714.01,385.33 714.18,384.26 714.30,387.21 714.47,394.21 714.59,397.93 714.78,398.68 714.90,396.39 715.03,393.39 715.22,390.15 715.35,389.74 715.54,392.10 715.68,395.14 715.88,400.96 716.01,405.19 716.22,411.15 716.36,414.44 716.57,417.88 716.71,419.01 716.93,417.58 717.07,414.28 717.29,406.96 717.44,401.43 717.67,394.25 717.82,391.29 718.05,390.74 718.20,393.55 718.43,402.80 718.59,411.82 718.82,425.51 718.98,422.96 719.22,408.22 719.38,399.90 719.62,392.94 719.79,392.40 720.03,397.60 720.20,403.75 720.44,410.49 720.61,407.98 720.86,396.43 721.03,388.66 721.19,383.06 721.45,380.26 721.62,381.89 721.87,387.70 722.04,391.32 722.30,392.56 722.47,391.05 722.73,389.48 722.90,390.99 723.16,397.63 723.33,404.04 723.59,412.29 723.76,413.87 724.02,412.27 724.20,412.20 724.46,415.27 724.63,417.47 724.89,415.91 725.07,412.46 725.33,409.13 725.50,409.78 725.76,412.55 725.93,410.83 726.19,400.01 726.37,391.26 726.63,382.15 726.80,380.66 727.05,386.82 727.23,395.73 727.48,409.48 727.65,410.11 727.91,396.33 728.08,386.77 728.25,380.48 728.50,379.61 728.67,385.01 728.92,400.01 729.08,410.62 729.33,412.97 729.49,404.12 729.74,391.46 729.90,387.31 730.14,388.43 730.30,394.00 730.54,406.18 730.70,412.26 730.94,409.18 731.09,402.13 731.32,393.14 731.48,390.49 731.71,392.04 731.86,396.21 732.08,405.54 732.23,412.47 732.45,420.92 732.59,423.45 732.81,422.54 732.95,420.82 733.16,417.99 733.30,415.94 733.51,413.01 733.65,411.75 733.85,411.79 733.98,413.47 734.11,416.13 734.31,419.79 734.43,420.60 734.62,418.16 734.75,415.44 734.93,412.31 735.05,411.64 735.23,412.87 735.34,414.77 735.52,418.74 735.63,421.87 735.79,426.88 735.90,429.39 736.06,425.01 736.16,418.64 736.32,407.35 736.42,399.47 736.56,388.38 736.66,382.20 736.80,376.05 736.89,374.65 737.02,377.48 737.11,382.90 737.23,395.51 737.31,404.07 737.43,402.67 737.51,388.91 737.62,361.39 737.69,343.30 737.80,321.89 737.86,313.93 737.96,314.78 738.02,325.05 738.08,343.30 738.17,384.14 738.22,416.42 738.30,387.46 738.35,348.23 738.42,294.13 738.47,265.06 738.53,237.02 738.57,230.59 738.63,240.43 738.66,259.20 738.71,301.52 738.74,334.30 738.78,368.66 738.80,358.91 738.83,310.20 738.85,273.76 738.88,224.30 738.89,196.92 738.91,165.25 738.91,150.23 738.92,135.93 738.93,131.36 738.93,249.06 738.93,249.19 738.93,250.28 738.94,251.70 738.95,255.15 738.96,258.57 738.98,265.76 739.00,272.07 739.03,283.59 739.05,292.15 739.07,300.72 739.11,311.93 739.14,317.33 739.19,321.84 739.22,323.18 739.28,325.23 739.32,328.24 739.38,337.19 739.43,346.61 739.50,365.51 739.55,380.38 739.63,403.44 739.68,416.36 739.77,418.05 739.83,410.49 739.92,402.36 739.99,400.99 740.09,405.22 740.16,411.55 740.27,424.38 740.34,431.91 740.46,419.82 740.54,412.30 740.66,404.81 740.74,402.57 740.87,402.24 740.96,402.56 741.10,400.82 741.19,397.63 741.34,391.65 741.43,388.52 741.59,387.64 741.69,390.52 741.79,396.29 741.95,409.23 742.06,418.62 742.22,419.75 742.34,410.56 742.51,396.81 742.62,390.54 742.80,387.56 742.92,390.08 743.11,400.05 743.23,409.79 743.42,425.94 743.55,424.91 743.74,409.41 743.87,400.91 744.07,393.36 744.21,392.22 744.41,396.34 744.55,402.38 744.76,412.55 744.90,415.85 745.11,410.17 745.26,403.39 745.48,395.54 745.62,393.26 745.85,394.60 746.00,398.90 746.22,409.54 746.37,418.43 746.61,431.51 746.76,425.53 746.92,417.23 747.15,407.59 747.31,403.29 747.55,399.57 747.71,399.20 747.95,400.60 748.11,402.44 748.36,406.70 748.52,410.51 748.77,416.81 748.94,421.67 749.19,427.04 749.35,425.73 749.61,419.46 749.77,415.22 750.03,411.66 750.20,411.12 750.45,412.89 750.63,415.45 750.88,418.71 751.05,418.66 751.31,415.41 751.49,412.85 751.74,411.26 751.92,412.14 752.18,417.00 752.35,421.90 752.61,426.14 752.79,422.28 753.05,413.31 753.22,408.64 753.48,405.31 753.65,405.60 753.83,407.95 754.09,413.26 754.26,414.47 754.52,409.31 754.69,403.41 754.95,396.23 755.12,393.83 755.38,395.17 755.55,399.23 755.81,407.12 755.98,409.22 756.24,403.43 756.40,396.65 756.66,388.75 756.83,386.91 757.08,390.98 757.24,398.17 757.49,411.57 757.66,415.73 757.90,405.72 758.07,396.32 758.31,387.05 758.47,385.75 758.71,391.73 758.87,400.36 759.11,414.96 759.26,418.22 759.50,408.26 759.65,401.08 759.88,396.89 760.03,399.29 760.26,409.06 760.41,417.65 760.56,421.59 760.78,411.16 760.92,403.19 761.14,396.26 761.28,396.20 761.49,403.29 761.63,411.32 761.84,420.69 761.97,416.49 762.18,403.01 762.31,395.74 762.50,390.91 762.63,392.24 762.82,400.40 762.95,408.96 763.14,423.70 763.26,426.27 763.44,415.09 763.56,408.98 763.73,405.00 763.84,405.89 764.01,411.17 764.12,415.18 764.28,414.63 764.39,409.66 764.54,402.01 764.64,399.26 764.79,400.71 764.89,405.58 765.03,416.87 765.13,421.00 765.22,413.71 765.35,394.52 765.43,382.20 765.56,368.21 765.64,363.20 765.76,363.50 765.84,368.99 765.95,383.97 766.02,396.53 766.12,409.03 766.19,402.66 766.29,380.46 766.35,365.12 766.44,346.10 766.50,337.23 766.58,330.23 766.63,329.52 766.71,333.11 766.75,337.42 766.82,344.33 766.86,347.85 766.92,349.93 766.96,349.03 767.01,345.21 767.04,341.80 767.08,336.49 767.11,333.20 767.14,328.86 767.16,326.35 767.19,323.06 767.20,321.14 767.22,318.65 767.23,317.27 767.24,316.14 767.25,314.97 767.25,314.57 767.25,374.77 767.25,375.51 767.26,381.31 767.26,388.02 767.28,400.13 767.29,405.42 767.31,397.32 767.33,382.57 767.35,355.48 767.38,337.21 767.41,313.24 767.44,301.40 767.48,292.57 767.52,293.76 767.57,307.00 767.61,323.18 767.67,356.28 767.71,381.38 767.78,406.22 767.83,393.21 767.90,359.80 767.95,340.93 768.04,323.58 768.10,320.65 768.19,329.51 768.25,343.29 768.35,372.03 768.42,392.26 768.52,404.30 768.59,391.71 768.67,375.38 768.79,356.24 768.87,349.59 768.99,349.65 769.07,355.75 769.20,371.63 769.29,384.59 769.43,401.29 769.52,405.27 769.66,399.72 769.76,394.14 769.91,388.95 770.01,388.49 770.17,391.70 770.28,395.73 770.44,402.27 770.55,405.22 770.72,406.75 770.84,406.61 771.01,406.32 771.13,406.59 771.31,407.77 771.43,408.96 771.62,410.06 771.75,410.10 771.94,410.20 772.07,411.04 772.26,414.11 772.40,417.34 772.60,423.37 772.74,424.81 772.95,418.59 773.08,412.70 773.23,407.34 773.44,401.95 773.58,401.33 773.80,404.77 773.95,409.20 774.17,415.59 774.32,415.63 774.55,408.59 774.70,403.12 774.93,397.88 775.09,397.85 775.32,403.86 775.48,411.40 775.72,425.62 775.88,430.48 776.12,416.69 776.28,409.84 776.52,405.45 776.69,406.46 776.93,413.24 777.10,418.03 777.35,415.26 777.51,408.47 777.77,399.12 777.93,396.31 778.19,399.25 778.36,405.64 778.61,417.85 778.78,419.13 779.04,404.88 779.21,394.82 779.38,387.63 779.64,384.49 779.81,388.54 780.07,401.78 780.25,412.89 780.51,417.63 780.68,407.35 780.94,392.15 781.11,385.91 781.37,385.10 781.55,390.57 781.81,405.30 781.98,417.62 782.24,425.24 782.42,414.89 782.68,402.50 782.85,398.20 783.11,399.29 783.28,404.33 783.54,414.80 783.71,418.88 783.97,412.54 784.14,405.73 784.39,398.53 784.56,396.88 784.82,399.29 784.99,402.86 785.24,406.25 785.40,404.67 785.65,397.67 785.82,392.92 786.07,388.46 786.23,388.27 786.39,390.47 786.64,397.04 786.80,401.95 787.04,406.32 787.20,405.80 787.43,401.50 787.59,398.46 787.82,395.83 787.98,396.25 788.21,399.92 788.36,403.57 788.59,409.28 788.74,411.99 788.96,413.13 789.10,412.31 789.32,410.22 789.47,409.28 789.68,409.10 789.82,409.64 790.03,410.26 790.17,410.66 790.37,411.91 790.50,413.47 790.70,417.66 790.83,421.48 791.03,422.93 791.15,417.05 791.34,404.20 791.46,395.38 791.65,384.43 791.76,379.87 791.94,378.84 792.06,382.14 792.17,388.05 792.34,399.55 792.45,405.57 792.61,403.92 792.72,397.00 792.87,386.83 792.97,383.47 793.12,385.67 793.22,392.07 793.36,407.73 793.45,419.04 793.59,414.90 793.68,402.16 793.80,385.78 793.89,379.19 794.01,376.97 794.09,379.73 794.20,385.48 794.28,385.95 794.38,377.52 794.45,368.69 794.55,358.37 794.62,356.84 794.71,365.95 794.77,380.21 794.85,412.25 794.91,422.88 794.98,379.51 795.03,349.08 795.10,309.00 795.15,288.95 795.19,276.09 795.25,272.30 795.28,280.41 795.33,306.77 795.37,331.04 795.41,365.85 795.43,371.51 795.47,339.37 795.49,306.67 795.52,257.30 795.53,227.67 795.55,190.70 795.56,171.53 795.57,150.94 795.58,142.38 795.58,136.78 795.58,229.95 795.58,229.28 795.59,227.88 795.60,224.88 795.61,222.82 795.62,220.95 795.64,221.42 795.66,226.32 795.68,233.28 795.72,250.41 795.74,266.63 795.78,297.80 795.81,322.30 795.86,361.19 795.90,383.75 795.95,391.25 796.00,376.07 796.04,357.55 796.11,335.33 796.15,327.25 796.23,327.21 796.28,335.32 796.37,358.21 796.42,378.94 796.51,413.91 796.58,425.16 796.68,394.92 796.74,377.55 796.85,360.50 796.92,355.84 797.04,358.20 797.11,364.49 797.23,376.62 797.32,382.96 797.44,384.31 797.53,380.10 797.66,371.96 797.76,368.05 797.90,366.27 797.99,367.61 798.14,371.65 798.24,374.76 798.39,379.36 798.50,382.10 798.66,385.77 798.77,388.05 798.94,390.57 799.05,391.09 799.22,389.80 799.34,388.65 799.46,388.35 799.64,390.44 799.76,394.07 799.95,402.73 800.07,409.74 800.27,417.74 800.40,417.94 800.59,412.29 800.73,408.33 800.93,405.58 801.07,406.42 801.27,410.99 801.41,415.25 801.62,422.15 801.77,425.90 801.98,428.74 802.13,429.48 802.35,431.07 802.50,431.15 802.73,426.62 802.88,423.08 803.11,418.68 803.26,416.82 803.49,416.45 803.65,417.02 803.89,416.81 804.04,415.04 804.28,410.13 804.45,406.48 804.69,402.86 804.85,401.98 805.10,403.69 805.26,406.74 805.43,410.47 805.67,415.25 805.84,415.74 806.09,411.24 806.26,406.95 806.51,401.01 806.68,398.47 806.94,397.89 807.11,399.69 807.37,405.71 807.54,411.49 807.80,420.08 807.97,423.55 808.23,420.78 808.40,417.43 808.66,415.05 808.83,415.93 809.09,421.01 809.27,424.78 809.53,423.60 809.70,419.13 809.96,413.98 810.14,413.53 810.40,417.78 810.57,422.60 810.83,420.79 811.00,412.06 811.26,398.48 811.44,391.96 811.69,389.11 811.87,392.15 812.04,398.69 812.29,412.23 812.47,418.37 812.72,412.87 812.89,406.80 813.14,403.58 813.31,407.01 813.56,419.08 813.73,424.20 813.98,409.18 814.15,397.03 814.39,384.81 814.56,382.62 814.80,388.54 814.96,397.14 815.21,407.98 815.37,404.34 815.60,388.24 815.76,378.63 816.00,372.54 816.15,375.25 816.38,387.90 816.54,399.18 816.76,408.77 816.91,403.42 817.14,389.99 817.29,384.10 817.51,383.62 817.65,388.79 817.86,401.88 818.01,409.75 818.22,410.14 818.36,404.66 818.49,399.93 818.70,398.78 818.83,402.45 819.03,411.20 819.16,414.63 819.35,409.58 819.48,403.50 819.67,397.59 819.79,396.98 819.97,398.64 820.09,398.18 820.27,391.47 820.38,384.73 820.55,377.12 820.67,376.42 820.83,383.91 820.94,393.77 821.10,408.34 821.20,406.68 821.35,388.37 821.45,376.48 821.59,367.62 821.69,369.84 821.83,385.73 821.92,402.76 822.05,416.88 822.13,398.20 822.26,367.15 822.34,352.13 822.45,343.47 822.53,348.16 822.64,369.21 822.71,387.58 822.78,396.71 822.88,372.01 822.94,347.39 823.04,318.41 823.10,309.28 823.18,315.05 823.23,332.31 823.31,375.85 823.36,412.53 823.43,387.93 823.47,346.05 823.54,290.74 823.57,262.98 823.63,239.64 823.66,237.51 823.71,254.03 823.74,276.52 823.77,322.40 823.80,356.45 823.83,391.48 823.84,378.46 823.87,333.66 823.88,304.34 823.89,268.07 823.90,250.23 823.91,233.67 823.91,229.53 823.91,353.67 823.91,354.33 823.92,357.05 823.92,360.12 823.93,364.26 823.95,372.47 823.96,379.04 823.99,389.31 824.01,394.93 824.04,397.77 824.07,394.89 824.11,386.35 824.14,380.43 824.19,374.46 824.22,373.57 824.28,377.86 824.32,384.45 824.39,398.81 824.43,409.54 824.51,416.84 824.56,409.17 824.64,392.65 824.69,383.07 824.78,373.60 824.84,371.19 824.94,373.44 825.00,378.30 825.11,388.80 825.18,396.51 825.29,406.29 825.36,409.95 825.48,410.28 825.56,408.38 825.69,404.60 825.77,401.83 825.90,397.42 825.99,394.51 826.08,392.03 826.22,390.41 826.32,391.47 826.47,396.37 826.57,401.03 826.72,406.50 826.83,406.14 826.99,399.10 827.10,392.92 827.26,386.07 827.38,384.68 827.55,388.15 827.67,393.74 827.84,404.03 827.97,408.00 828.15,402.73 828.27,394.70 828.46,383.40 828.59,378.74 828.79,378.09 828.92,382.11 829.12,393.93 829.26,404.27 829.46,417.98 829.60,418.42 829.81,407.84 829.95,401.26 830.17,396.51 830.31,397.15 830.53,403.26 830.68,409.83 830.90,419.82 831.05,422.60 831.20,420.75 831.43,416.31 831.59,415.28 831.82,418.06 831.98,421.91 832.21,425.31 832.37,422.19 832.61,414.16 832.77,409.80 833.02,406.22 833.18,405.83 833.42,407.50 833.59,409.76 833.84,413.59 834.00,416.04 834.25,418.80 834.42,419.30 834.67,416.19 834.84,411.82 835.10,404.47 835.27,400.50 835.52,398.06 835.69,399.09 835.95,405.37 836.12,412.42 836.38,424.01 836.55,424.40 836.81,411.56 836.99,403.12 837.25,394.61 837.42,392.32 837.68,394.92 837.86,400.51 838.03,408.29 838.29,422.14 838.46,427.38 838.72,416.03 838.90,408.13 839.16,400.03 839.33,397.91 839.59,399.85 839.76,403.54 840.02,410.45 840.19,413.79 840.45,413.59 840.62,410.77 840.88,406.83 841.05,406.10 841.30,408.12 841.47,410.90 841.72,414.87 841.89,415.40 842.14,411.60 842.31,407.68 842.56,402.66 842.72,401.22 842.97,402.09 843.13,404.73 843.37,411.58 843.53,417.66 843.77,427.20 843.93,428.04 844.17,418.11 844.32,410.94 844.48,404.52 844.71,397.44 844.86,394.68 845.09,394.71 845.24,397.88 845.47,406.75 845.61,414.15 845.83,420.30 845.98,414.56 846.19,400.53 846.33,392.04 846.54,383.54 846.68,381.63 846.89,385.71 847.02,392.73 847.22,408.01 847.36,419.60 847.55,420.96 847.68,409.46 847.87,394.19 848.00,387.50 848.18,383.80 848.30,385.87 848.48,394.76 848.60,402.72 848.77,410.26 848.88,407.05 849.05,394.90 849.16,386.96 849.32,379.82 849.42,379.38 849.58,385.35 849.68,392.91 849.78,401.68 849.92,410.31 850.02,407.76 850.15,396.66 850.24,390.12 850.37,386.06 850.46,387.86 850.58,395.60 850.66,400.23 850.78,395.20 850.86,383.42 850.97,362.23 851.04,349.87 851.14,338.53 851.21,337.45 851.30,346.72 851.36,359.67 851.45,385.17 851.51,398.29 851.59,385.85 851.64,363.57 851.71,329.56 851.76,310.99 851.82,293.23 851.86,289.26 851.92,295.42 851.96,306.80 852.00,331.48 852.04,349.42 852.08,367.06 852.10,364.33 852.14,340.62 852.15,319.62 852.17,298.61 852.19,270.47 852.21,255.00 852.22,237.25 852.23,228.98 852.23,221.57 852.24,219.76 852.24,367.72 852.24,367.78 852.24,367.44 852.25,366.09 852.27,360.67 852.28,354.11 852.30,340.18 852.32,329.14 852.35,312.51 852.37,303.08 852.41,294.32 852.44,293.57 852.48,301.92 852.52,314.25 852.57,342.27 852.61,365.82 852.67,401.24 852.72,406.81 852.78,377.03 852.83,355.58 852.91,332.54 852.96,325.46 853.05,328.52 853.11,339.09 853.17,354.94 853.27,382.38 853.33,394.26 853.43,385.64 853.50,371.46 853.61,355.20 853.69,351.58 853.81,358.89 853.89,371.68 854.01,399.40 854.10,419.84 854.23,410.53 854.32,391.61 854.46,370.51 854.55,363.17 854.70,362.77 854.80,368.44 854.95,381.12 855.05,387.90 855.21,388.94 855.31,384.81 855.48,379.60 855.59,380.20 855.76,389.25 855.88,400.29 856.05,421.23 856.17,428.97 856.35,409.35 856.48,398.99 856.67,391.72 856.79,393.13 856.99,404.02 857.12,415.52 857.25,426.43 857.45,411.49 857.58,397.83 857.79,382.67 857.93,377.69 858.14,378.37 858.28,383.83 858.50,396.01 858.64,402.27 858.86,400.74 859.01,394.09 859.23,384.70 859.38,382.07 859.61,384.39 859.76,389.69 859.99,400.61 860.15,406.99 860.38,409.61 860.54,407.19 860.78,403.64 860.94,403.61 861.18,407.63 861.34,411.61 861.59,415.76 861.75,415.39 862.00,412.27 862.16,411.03 862.41,411.69 862.58,413.71 862.83,415.46 863.00,413.55 863.25,407.24 863.42,402.94 863.59,400.36 863.85,400.20 864.02,402.48 864.28,408.18 864.45,412.13 864.71,414.60 864.88,412.96 865.14,408.52 865.31,405.98 865.58,404.16 865.75,403.97 866.01,404.45 866.18,404.87 866.44,405.60 866.62,406.25 866.88,408.10 867.05,409.51 867.31,408.71 867.49,404.32 867.75,394.02 867.92,387.51 868.18,381.80 868.35,381.91 868.61,388.14 868.78,396.21 869.04,410.64 869.21,417.78 869.46,415.56 869.63,409.92 869.88,404.96 870.05,404.66 870.30,407.65 870.47,410.34 870.64,411.70 870.88,409.78 871.05,407.29 871.29,404.83 871.46,404.85 871.70,406.11 871.86,406.09 872.10,403.85 872.26,401.61 872.50,399.86 872.65,400.64 872.88,405.14 873.04,410.20 873.27,417.11 873.42,417.98 873.64,413.52 873.79,410.24 874.01,409.31 874.16,411.81 874.38,419.24 874.52,424.29 874.73,421.32 874.87,414.71 875.08,406.85 875.22,404.40 875.42,405.82 875.55,409.83 875.75,417.00 875.88,416.84 876.07,407.75 876.20,400.70 876.32,395.39 876.51,393.09 876.63,396.22 876.81,408.02 876.92,419.42 877.10,426.25 877.21,412.39 877.38,392.48 877.49,381.79 877.65,371.51 877.75,368.98 877.90,370.89 878.01,374.75 878.15,381.51 878.25,384.89 878.39,386.51 878.48,385.62 878.62,382.91 878.70,380.57 878.83,375.42 878.91,370.39 879.03,360.99 879.11,354.69 879.22,347.96 879.30,346.66 879.40,350.46 879.47,356.10 879.57,364.71 879.63,366.04 879.72,356.01 879.78,343.23 879.86,322.64 879.92,311.87 879.97,305.66 880.04,307.32 880.09,316.34 880.15,340.58 880.19,361.02 880.25,382.09 880.28,372.37 880.33,330.28 880.36,297.11 880.40,249.12 880.43,220.83 880.46,186.16 880.48,168.72 880.51,150.77 880.52,143.60 880.54,138.30 880.55,137.26 880.56,137.52 880.56,138.02 880.56,138.33 880.56,403.10 880.56,403.39 880.57,403.81 880.57,404.75 880.57,405.56 880.58,406.97 880.58,407.99 880.59,409.53 880.59,410.51 880.60,411.77 880.61,412.41 880.62,412.99 880.63,413.09 880.64,412.97 880.65,412.41 880.66,411.84 880.68,410.80 880.69,410.04 880.71,408.88 880.72,408.13 880.74,407.13 880.76,406.55 880.78,405.86 880.79,405.52 880.82,405.21 880.83,405.14 880.86,405.24 880.88,405.43 880.91,405.93 880.93,406.38 880.96,407.26 880.98,407.96 881.01,409.18 881.03,410.10 881.06,411.61 881.09,412.70 881.12,414.40 881.15,415.57 881.18,417.33 881.21,418.47 881.25,420.05 881.28,420.97 881.32,422.07 881.34,422.57 881.37,422.84 881.42,422.83 881.44,422.58 881.49,421.91 881.52,421.34 881.57,420.40 881.60,419.76 881.64,418.85 881.68,418.30 881.73,417.55 881.76,417.11 881.81,416.54 881.84,416.21 881.90,415.76 881.93,415.48 881.99,415.08 882.02,414.82 882.08,414.39 882.11,414.10 882.17,413.65 882.21,413.36 882.26,413.01 882.30,412.85 882.36,412.79 882.40,412.89 882.46,413.29 882.50,413.76 882.56,414.80 882.60,415.74 882.66,417.51 882.70,418.93 882.76,421.37 882.81,423.16 882.85,425.01 882.91,427.72 882.95,429.11 883.02,429.21 883.06,427.73 883.13,424.44 883.17,421.99 883.24,418.29 883.28,415.93 883.35,412.65 883.39,410.69 883.46,408.18 883.50,406.82 883.57,405.30 883.61,404.66 883.68,404.27 883.73,404.39 883.79,405.13 883.84,405.97 883.91,407.74 883.95,409.25 884.02,412.00 884.07,414.14 884.13,417.73 884.18,420.30 884.25,424.28 884.29,426.86 884.36,430.00 884.41,430.44 884.48,428.03 884.52,425.81 884.59,422.46 884.64,420.36 884.68,418.43 884.75,415.88 884.79,414.44 884.86,412.70 884.91,411.84 884.97,411.04 885.02,410.87 885.09,411.15 885.13,411.67 885.20,412.90 885.24,413.97 885.31,415.88 885.35,417.32 885.42,419.70 885.46,421.40 885.52,424.08 885.57,425.90 885.63,428.54 885.67,430.08 885.74,431.23 885.78,430.60 885.84,428.54 885.88,426.99 885.94,424.72 885.98,423.33 886.04,421.49 886.08,420.45 886.14,419.19 886.18,418.52 886.24,417.75 886.28,417.37 886.34,416.99 886.38,416.85 886.41,416.81 886.47,416.94 886.51,417.14 886.56,417.57 886.60,417.94 886.65,418.59 886.68,419.06 886.74,419.79 886.77,420.29 886.82,420.99 886.85,421.41 886.90,421.91 886.94,422.13 886.98,422.27 887.01,422.23 887.06,422.00 887.09,421.76 887.13,421.31 887.16,420.97 887.21,420.41 887.23,420.01 887.28,419.39 887.30,418.96 887.34,418.29 887.37,417.84 887.40,417.18 887.43,416.75 887.47,416.12 887.49,415.73 887.52,415.18 887.54,414.85 887.57,414.53 887.60,414.10 887.62,413.84 887.65,413.49 887.67,413.28 887.69,413.00 887.71,412.83 887.74,412.61 887.75,412.48 887.78,412.31 887.79,412.21 887.82,412.08 887.83,412.00 887.85,411.91 887.86,411.85 887.88,411.78 887.89,411.74 887.91,411.69 887.92,411.65 887.93,411.61 887.94,411.58 887.95,411.54 887.96,411.52 887.97,411.49 887.97,411.47 887.98,411.44 887.99,411.43 887.99,411.41 887.99,411.40 888.00,411.38 888.00,411.38 888.00,411.37 888.00,411.37" fill="none" stroke="#000" stroke-width="1.5" opacity="0.9"/>
<text x="500.0" y="502" font-family="Times New Roman" font-size="19" text-anchor="middle">Julian Date</text>
<text transform="translate(18,247.0) rotate(-90)" font-family="Times New Roman" font-size="19" text-anchor="middle">velocity residual (mm/s)</text>
</svg>
