<svg xmlns="http://www.w3.org/2000/svg" width="920" height="520" viewBox="0 0 920 520">
<rect width="100%" height="100%" fill="white"/>
<text x="460.0" y="24" font-family="Times New Roman" font-size="24" text-anchor="middle">Venus native position residual</text>
<line x1="112" y1="434" x2="888" y2="434" stroke="#333"/>
<line x1="112" y1="60" x2="112" y2="434" stroke="#333"/>
<line x1="112" y1="434.00" x2="888" y2="434.00" stroke="#ddd"/>
<text x="104" y="438.00" font-family="Times New Roman" font-size="17" text-anchor="end">0</text>
<line x1="112" y1="340.50" x2="888" y2="340.50" stroke="#ddd"/>
<text x="104" y="344.50" font-family="Times New Roman" font-size="17" text-anchor="end">0.06058</text>
<line x1="112" y1="247.00" x2="888" y2="247.00" stroke="#ddd"/>
<text x="104" y="251.00" font-family="Times New Roman" font-size="17" text-anchor="end">0.1212</text>
<line x1="112" y1="153.50" x2="888" y2="153.50" stroke="#ddd"/>
<text x="104" y="157.50" font-family="Times New Roman" font-size="17" text-anchor="end">0.1817</text>
<line x1="112" y1="60.00" x2="888" y2="60.00" stroke="#ddd"/>
<text x="104" y="64.00" font-family="Times New Roman" font-size="17" text-anchor="end">0.2423</text>
<line x1="112.00" y1="434" x2="112.00" y2="439" stroke="#333"/>
<text x="112.00" y="456" font-family="Times New Roman" font-size="17" text-anchor="middle">2378495</text>
<line x1="306.00" y1="434" x2="306.00" y2="439" stroke="#333"/>
<text x="306.00" y="456" font-family="Times New Roman" font-size="17" text-anchor="middle">2433282</text>
<line x1="500.00" y1="434" x2="500.00" y2="439" stroke="#333"/>
<text x="500.00" y="456" font-family="Times New Roman" font-size="17" text-anchor="middle">2488070</text>
<line x1="694.00" y1="434" x2="694.00" y2="439" stroke="#333"/>
<text x="694.00" y="456" font-family="Times New Roman" font-size="17" text-anchor="middle">2542858</text>
<line x1="888.00" y1="434" x2="888.00" y2="439" stroke="#333"/>
<text x="888.00" y="456" font-family="Times New Roman" font-size="17" text-anchor="middle">2597645</text>
<polyline points="112.00,340.95 112.05,268.40 112.18,280.10 112.37,301.85 112.56,215.35 112.70,274.76 112.76,297.59 112.80,248.67 112.93,165.61 113.12,340.21 113.32,284.71 113.48,264.06 113.55,254.75 113.58,217.35 113.70,210.94 113.88,244.39 114.08,374.68 114.25,215.76 114.34,278.38 114.37,256.04 114.47,171.91 114.65,298.85 114.85,245.89 115.03,312.50 115.13,228.33 115.16,199.12 115.25,163.32 115.42,314.80 115.62,219.79 115.80,174.66 115.92,286.40 115.95,279.77 116.03,238.39 116.19,236.65 116.38,306.56 116.57,232.59 116.70,183.27 116.74,317.63 116.80,314.19 116.95,184.49 117.15,134.44 117.34,315.86 117.48,284.80 117.54,237.63 117.58,341.99 117.72,312.32 117.92,310.34 118.11,305.15 118.26,224.07 118.33,232.40 118.37,266.48 118.49,347.53 118.68,280.68 118.88,241.94 119.04,221.30 119.12,282.47 119.15,337.21 119.27,202.01 119.45,237.85 119.65,366.63 119.82,248.43 119.91,250.34 119.94,282.25 120.04,188.94 120.21,293.65 120.42,317.71 120.59,191.09 120.70,226.13 120.73,360.11 120.82,270.13 120.98,279.58 121.18,187.49 121.37,244.24 121.49,315.90 121.52,274.35 121.59,279.48 121.75,189.60 121.95,273.73 122.14,311.83 122.27,166.35 122.31,288.33 122.37,301.33 122.52,269.26 122.71,277.26 122.91,286.66 123.05,305.71 123.11,205.94 123.15,316.20 123.29,210.16 123.48,220.24 123.68,173.96 123.83,389.94 123.90,252.48 123.93,244.24 124.06,230.45 124.25,182.31 124.45,384.47 124.61,366.52 124.69,223.50 124.72,298.94 124.83,365.84 125.01,295.18 125.21,294.62 125.38,243.35 125.48,323.04 125.51,293.45 125.61,140.46 125.78,193.26 125.98,163.26 126.16,274.60 126.27,146.16 126.30,346.05 126.38,216.38 126.55,205.03 126.75,302.50 126.93,250.72 127.05,231.63 127.09,227.38 127.16,178.63 127.31,241.25 127.51,185.84 127.70,364.45 127.84,341.26 127.88,271.09 127.94,308.84 128.08,281.22 128.28,180.38 128.47,273.08 128.62,245.79 128.68,230.40 128.72,306.39 128.85,195.25 129.04,342.77 129.24,166.30 129.40,229.50 129.47,179.86 129.50,231.73 129.63,259.76 129.81,265.97 130.01,231.62 130.17,145.58 130.26,237.06 130.29,233.55 130.40,176.46 130.58,307.07 130.78,154.85 130.95,193.59 131.05,202.74 131.07,218.38 131.17,261.10 131.34,256.78 131.54,322.74 131.73,211.64 131.84,316.74 131.86,163.22 131.95,265.72 132.11,168.57 132.31,251.53 132.50,149.50 132.62,330.24 132.66,218.54 132.73,284.37 132.88,244.16 133.08,286.46 133.27,246.73 133.40,304.23 133.45,216.48 133.50,192.85 133.65,215.77 133.84,283.61 134.04,259.11 134.19,242.76 134.25,355.25 134.29,156.86 134.42,204.14 134.61,255.42 134.81,171.34 134.97,209.72 135.04,288.80 135.07,181.51 135.19,203.87 135.37,320.53 135.58,236.05 135.74,224.93 135.83,247.45 135.86,263.49 135.96,219.03 136.14,331.89 136.34,240.23 136.52,166.04 136.62,234.00 136.64,259.67 136.74,238.03 136.91,150.20 137.11,347.75 137.29,190.91 137.40,187.50 137.43,345.95 137.51,228.04 137.67,239.20 137.88,206.22 138.06,260.43 138.19,250.03 138.23,350.11 138.29,277.50 138.44,174.13 138.64,308.09 138.83,223.72 138.97,158.34 139.02,311.44 139.07,292.21 139.21,235.42 139.41,183.95 139.60,281.67 139.75,221.17 139.81,366.84 139.85,214.55 139.98,275.65 140.17,192.13 140.37,184.03 140.53,263.51 140.61,319.13 140.64,325.30 140.76,359.06 140.94,181.86 141.14,271.29 141.31,182.59 141.40,321.58 141.42,245.23 141.53,231.53 141.71,346.97 141.91,207.48 142.08,252.73 142.19,305.21 142.21,230.99 142.30,225.59 142.47,332.61 142.67,203.75 142.86,270.85 142.97,250.96 143.00,295.65 143.08,310.06 143.24,240.45 143.44,260.94 143.63,249.98 143.76,209.77 143.79,254.61 143.86,359.21 144.01,332.07 144.20,282.08 144.40,266.93 144.54,297.63 144.59,197.06 144.64,174.33 144.78,211.68 144.97,252.75 145.17,394.95 145.32,278.79 145.38,244.93 145.42,289.46 145.55,220.62 145.74,294.17 145.94,210.49 146.10,251.51 146.18,301.42 146.20,195.50 146.32,188.61 146.50,290.68 146.70,241.75 146.87,298.73 146.97,243.70 146.99,298.08 147.10,195.60 147.27,198.47 147.47,213.61 147.65,159.07 147.75,198.25 147.78,359.30 147.87,186.25 148.04,301.01 148.24,183.05 148.42,144.63 148.54,249.45 148.57,199.99 148.65,325.75 148.81,324.21 149.01,211.66 149.19,230.57 149.32,331.83 149.36,183.36 149.43,292.89 149.57,265.60 149.77,256.41 149.96,244.99 150.11,361.45 150.16,198.12 150.21,244.83 150.34,198.35 150.54,383.60 150.73,340.22 150.89,236.07 150.95,277.70 150.99,327.94 151.11,210.86 151.30,335.88 151.50,321.61 151.66,323.82 151.75,345.39 151.77,236.31 151.89,323.49 152.07,170.39 152.27,213.50 152.44,292.13 152.53,216.10 152.56,212.75 152.66,253.07 152.83,396.98 153.04,196.52 153.22,251.07 153.32,360.67 153.35,167.05 153.44,232.47 153.60,183.25 153.80,179.50 153.99,178.04 154.11,251.50 154.14,301.25 154.21,248.00 154.37,284.41 154.57,298.25 154.76,282.22 154.89,269.08 154.93,310.12 154.99,286.17 155.14,342.61 155.33,285.19 155.53,201.61 155.67,327.77 155.73,156.16 155.77,263.86 155.91,263.84 156.10,229.97 156.30,288.82 156.45,296.25 156.52,256.52 156.56,369.44 156.68,284.44 156.87,313.51 157.07,209.15 157.23,208.16 157.31,214.31 157.34,302.91 157.45,371.04 157.63,290.92 157.83,261.43 158.01,208.55 158.10,234.99 158.13,263.54 158.23,241.43 158.40,216.72 158.60,314.54 158.78,247.01 158.89,202.95 158.92,167.68 159.00,189.10 159.17,318.35 159.37,215.53 159.55,183.63 159.68,275.92 159.71,382.40 159.78,272.54 159.94,239.93 160.13,274.38 160.32,197.96 160.46,259.65 160.50,241.48 160.56,283.08 160.70,242.45 160.90,214.29 161.10,282.90 161.24,301.62 161.30,210.95 161.34,232.17 161.47,211.12 161.67,215.48 161.86,323.25 162.02,315.51 162.09,260.58 162.12,340.71 162.25,271.27 162.43,269.85 162.63,355.12 162.80,354.07 162.88,232.19 162.91,218.35 163.02,313.56 163.20,176.65 163.40,171.60 163.57,320.12 163.67,263.41 163.70,344.20 163.79,169.48 163.96,354.74 164.17,287.59 164.35,264.69 164.46,202.32 164.49,320.62 164.57,300.17 164.73,253.92 164.93,204.49 165.12,329.90 165.24,329.51 165.28,234.05 165.35,301.53 165.50,302.68 165.70,196.98 165.89,268.59 166.03,279.10 166.07,353.20 166.13,260.48 166.27,301.24 166.46,190.66 166.66,224.64 166.81,237.61 166.87,285.57 166.91,288.33 167.04,180.12 167.23,226.82 167.43,208.41 167.59,180.36 167.66,303.39 167.69,239.22 167.81,218.48 167.99,285.63 168.20,246.31 168.36,241.47 168.45,269.64 168.48,296.34 168.58,382.46 168.76,316.67 168.96,251.17 169.14,260.29 169.24,349.05 169.26,258.44 169.36,300.50 169.53,170.12 169.73,230.31 169.91,203.06 170.03,276.47 170.05,242.41 170.14,289.43 170.30,311.03 170.50,301.18 170.68,283.19 170.81,232.63 170.85,272.13 170.91,255.07 171.06,252.23 171.26,226.99 171.46,317.62 171.59,331.62 171.64,372.04 171.69,265.19 171.83,299.72 172.03,205.36 172.22,269.05 172.37,317.41 172.44,262.65 172.47,334.34 172.60,178.71 172.79,227.79 172.99,246.65 173.15,346.88 173.23,257.84 173.26,218.76 173.38,320.95 173.56,242.80 173.76,373.59 173.93,239.20 174.02,269.93 174.05,238.60 174.15,294.78 174.33,327.37 174.53,219.65 174.70,285.28 174.81,338.51 174.83,256.49 174.92,233.74 175.09,328.68 175.29,305.46 175.48,198.53 175.59,288.45 175.62,340.31 175.70,300.04 175.86,217.71 176.06,246.87 176.25,180.84 176.38,181.72 176.42,271.80 176.48,267.70 176.63,290.53 176.83,212.19 177.02,230.53 177.16,283.18 177.21,183.48 177.26,313.91 177.40,318.20 177.59,320.82 177.79,305.21 177.94,204.77 178.01,238.71 178.04,264.39 178.17,223.01 178.36,266.05 178.56,235.35 178.72,203.20 178.80,413.88 178.83,183.53 178.94,215.99 179.12,153.19 179.33,287.99 179.49,216.11 179.59,217.23 179.61,224.26 179.72,281.81 179.89,150.31 180.09,162.21 180.27,243.68 180.38,205.70 180.40,311.25 180.49,279.04 180.66,241.76 180.86,232.15 181.04,362.69 181.16,292.57 181.19,337.76 181.27,297.73 181.42,176.86 181.62,351.05 181.82,326.34 181.95,282.37 181.99,220.31 182.05,219.38 182.19,271.92 182.39,296.66 182.58,248.84 182.73,256.76 182.78,295.20 182.83,347.99 182.96,191.37 183.16,223.68 183.35,261.12 183.51,243.68 183.57,354.29 183.61,404.73 183.74,236.85 183.92,293.53 184.12,283.98 184.28,365.04 184.37,270.93 184.39,221.33 184.51,357.79 184.69,230.14 184.89,335.86 185.06,302.21 185.16,265.25 185.18,187.38 185.28,265.44 185.46,369.85 185.66,224.52 185.84,238.20 185.94,312.70 185.97,297.04 186.06,303.00 186.22,177.83 186.42,303.36 186.61,285.85 186.73,357.54 186.76,165.77 186.84,275.44 186.99,291.10 187.19,314.78 187.38,321.92 187.51,173.71 187.55,135.63 187.61,162.42 187.76,171.47 187.96,277.41 188.15,326.95 188.29,145.16 188.35,132.91 188.39,256.60 188.53,276.74 188.72,334.20 188.92,151.82 189.07,181.74 189.14,226.37 189.18,293.97 189.30,335.53 189.49,241.37 189.69,370.21 189.85,313.57 189.94,276.66 189.96,308.86 190.07,228.25 190.25,311.36 190.45,262.16 190.63,178.93 190.72,200.14 190.75,278.99 190.85,211.70 191.02,190.38 191.22,357.19 191.40,212.17 191.51,284.54 191.54,224.65 191.62,168.00 191.79,337.84 191.99,231.91 192.17,170.65 192.30,173.27 192.33,251.89 192.40,213.57 192.56,213.60 192.75,224.08 192.94,254.11 193.08,237.54 193.12,329.73 193.18,240.86 193.32,212.60 193.52,246.62 193.71,350.16 193.86,215.97 193.92,243.68 193.96,330.89 194.10,289.94 194.28,256.28 194.48,207.80 194.64,163.16 194.71,198.33 194.75,290.13 194.87,322.35 195.05,256.27 195.25,327.97 195.42,255.16 195.50,311.87 195.53,209.30 195.64,224.76 195.82,348.41 196.02,209.46 196.19,150.30 196.29,209.70 196.32,213.56 196.41,267.53 196.58,262.85 196.79,172.94 196.97,274.71 197.08,346.09 197.11,359.13 197.19,354.12 197.35,302.15 197.55,227.62 197.74,228.51 197.86,277.58 197.90,261.79 197.97,239.73 198.12,252.02 198.32,325.80 198.51,372.38 198.65,206.63 198.69,226.54 198.75,212.94 198.89,259.47 199.08,313.39 199.28,280.06 199.43,359.47 199.49,218.55 199.53,237.77 199.66,262.76 199.85,218.13 200.05,297.06 200.21,288.04 200.28,259.46 200.31,259.47 200.43,242.40 200.62,307.72 200.82,306.91 200.98,268.67 201.07,227.04 201.10,334.30 201.21,323.69 201.38,221.15 201.58,325.59 201.76,181.94 201.86,323.98 201.89,192.79 201.98,271.31 202.15,383.47 202.35,220.70 202.53,280.60 202.65,256.63 202.68,303.42 202.76,199.91 202.92,177.58 203.12,207.46 203.30,207.84 203.43,294.99 203.47,302.83 203.53,188.52 203.69,308.72 203.88,233.15 204.08,196.14 204.21,193.40 204.26,191.62 204.31,263.25 204.45,200.28 204.65,208.70 204.85,225.01 204.99,203.06 205.06,317.70 205.10,293.43 205.22,235.61 205.41,353.74 205.61,266.59 205.77,227.71 205.85,294.89 205.88,269.21 206.00,245.77 206.18,246.44 206.38,302.60 206.55,175.58 206.64,267.00 206.67,354.30 206.77,299.37 206.95,324.26 207.15,307.44 207.33,208.72 207.43,221.90 207.45,271.32 207.54,256.02 207.71,388.67 207.92,303.47 208.10,258.77 208.22,319.37 208.25,396.35 208.32,229.37 208.48,179.40 208.68,292.05 208.87,169.53 209.00,333.64 209.04,196.84 209.10,307.63 209.25,225.40 209.45,269.66 209.64,313.03 209.78,332.23 209.83,320.72 209.88,177.34 210.02,207.74 210.21,272.33 210.41,206.78 210.56,173.81 210.63,174.94 210.66,319.16 210.79,219.89 210.98,261.68 211.18,216.46 211.34,203.00 211.42,197.13 211.45,351.61 211.56,182.20 211.74,271.28 211.95,363.76 212.12,224.45 212.21,218.45 212.23,273.83 212.34,279.25 212.51,314.28 212.71,283.94 212.89,263.96 213.00,263.47 213.02,288.10 213.11,184.06 213.28,348.43 213.48,222.13 213.66,349.29 213.78,261.20 213.81,359.90 213.89,321.61 214.05,201.11 214.24,154.87 214.44,379.20 214.57,222.05 214.61,230.49 214.67,343.39 214.81,324.65 215.01,327.79 215.21,271.91 215.35,188.43 215.40,363.97 215.45,262.19 215.58,209.69 215.78,245.93 215.97,343.95 216.13,269.75 216.20,202.76 216.23,263.52 216.36,226.40 216.54,225.00 216.74,263.09 216.91,205.04 216.99,399.03 217.02,288.46 217.13,217.52 217.31,370.96 217.51,348.43 217.68,233.93 217.78,243.40 217.80,356.38 217.90,297.59 218.08,204.76 218.28,256.99 218.46,201.55 218.57,240.88 218.59,322.41 218.68,203.85 218.84,223.75 219.04,229.21 219.23,204.40 219.35,283.40 219.38,271.01 219.46,231.91 219.61,265.98 219.81,358.64 220.00,216.23 220.13,277.52 220.18,222.07 220.23,253.62 220.38,336.97 220.58,210.89 220.77,310.20 220.91,355.41 220.97,219.69 221.02,302.80 221.15,264.61 221.34,326.67 221.54,263.11 221.69,285.07 221.77,342.74 221.80,272.27 221.92,252.61 222.11,377.55 222.31,258.64 222.47,267.45 222.56,238.32 222.58,232.07 222.69,238.28 222.87,218.89 223.08,303.64 223.25,232.38 223.35,367.88 223.37,285.48 223.47,326.27 223.64,336.09 223.84,264.15 224.02,170.78 224.13,277.53 224.16,247.31 224.24,234.66 224.41,297.68 224.61,206.93 224.79,282.60 224.92,303.94 224.95,147.57 225.02,311.52 225.17,271.27 225.37,185.05 225.57,149.56 225.70,262.59 225.75,235.43 225.80,212.07 225.94,357.19 226.14,271.30 226.33,171.73 226.48,217.79 226.54,332.05 226.58,226.29 226.72,287.37 226.91,324.25 227.10,384.30 227.26,227.31 227.33,346.25 227.37,307.28 227.49,153.56 227.67,369.97 227.87,219.81 228.04,200.03 228.13,316.13 228.15,363.84 228.26,263.45 228.44,217.24 228.64,239.34 228.81,184.13 228.91,165.80 228.94,238.67 229.03,210.88 229.21,259.09 229.41,229.74 229.59,204.81 229.70,218.44 229.73,250.64 229.81,292.82 229.97,299.61 230.17,276.22 230.36,263.02 230.49,216.03 230.52,193.68 230.59,322.15 230.74,174.19 230.94,225.52 231.13,305.55 231.27,262.06 231.32,268.88 231.37,400.18 231.51,215.06 231.70,219.86 231.90,305.68 232.05,262.87 232.11,253.80 232.15,285.22 232.28,212.15 232.47,172.20 232.67,312.39 232.83,239.43 232.90,283.93 232.93,352.54 233.05,302.28 233.24,194.11 233.44,292.92 233.60,252.86 233.69,191.26 233.72,236.03 233.83,197.78 234.00,323.72 234.20,236.57 234.38,217.91 234.48,188.83 234.51,280.45 234.60,301.29 234.77,269.55 234.97,210.18 235.15,173.90 235.27,315.46 235.30,253.40 235.38,205.06 235.54,249.50 235.74,286.16 235.93,335.76 236.05,290.22 236.09,240.02 236.15,336.66 236.31,207.07 236.50,165.48 236.69,229.54 236.84,252.97 236.89,231.51 236.94,193.55 237.08,326.51 237.27,265.47 237.47,261.54 237.62,228.59 237.68,237.77 237.72,399.28 237.85,196.79 238.03,358.78 238.23,290.21 238.39,219.55 238.47,262.25 238.50,230.16 238.62,212.05 238.80,248.93 239.00,251.23 239.17,307.91 239.26,284.49 239.29,313.46 239.39,309.28 239.57,208.07 239.77,211.06 239.95,208.92 240.05,285.38 240.08,290.97 240.17,321.34 240.33,253.40 240.53,315.34 240.72,280.18 240.84,233.46 240.87,194.41 240.94,371.82 241.10,282.79 241.30,186.49 241.49,287.60 241.62,270.05 241.66,241.13 241.72,169.67 241.87,261.45 242.07,260.43 242.26,155.53 242.40,276.73 242.45,180.17 242.50,239.43 242.64,254.67 242.83,195.24 243.03,241.71 243.18,334.21 243.25,206.65 243.29,216.26 243.41,279.45 243.60,210.21 243.80,203.83 243.96,199.76 244.04,358.48 244.07,270.34 244.18,243.60 244.37,223.86 244.57,350.88 244.74,203.50 244.83,196.31 244.86,292.55 244.96,234.30 245.13,292.83 245.33,303.93 245.51,285.54 245.62,292.84 245.64,343.56 245.73,247.50 245.90,182.34 246.10,275.92 246.28,346.39 246.40,252.27 246.44,255.37 246.51,208.49 246.67,239.91 246.87,315.58 247.05,247.57 247.19,320.81 247.23,335.88 247.29,193.74 247.44,255.01 247.63,257.95 247.83,192.25 247.97,215.87 248.02,296.31 248.07,403.43 248.21,393.57 248.40,322.42 248.60,358.12 248.75,238.73 248.82,237.46 248.85,181.45 248.98,269.73 249.16,382.67 249.36,193.96 249.53,180.18 249.61,319.43 249.64,320.75 249.75,223.99 249.93,231.26 250.13,209.00 250.30,245.74 250.40,358.86 250.42,374.09 250.52,307.77 250.69,260.48 250.90,281.34 251.08,271.80 251.19,240.50 251.21,177.35 251.30,235.47 251.46,347.76 251.66,331.21 251.85,257.06 251.97,204.62 252.00,144.41 252.08,161.98 252.23,199.04 252.43,268.11 252.62,285.58 252.76,172.48 252.80,241.26 252.86,402.04 253.00,325.73 253.19,323.74 253.39,292.86 253.54,301.88 253.59,290.02 253.64,284.06 253.77,183.82 253.96,173.46 254.16,186.54 254.31,236.80 254.39,282.93 254.42,212.89 254.54,292.41 254.73,184.01 254.93,272.15 255.09,283.50 255.18,358.60 255.20,257.67 255.31,365.15 255.49,266.14 255.70,221.25 255.87,284.71 255.97,257.33 255.99,162.26 256.09,179.65 256.26,230.13 256.46,183.79 256.64,301.88 256.75,367.67 256.78,219.75 256.86,255.01 257.03,238.41 257.23,195.73 257.41,327.96 257.54,253.60 257.57,297.28 257.64,187.39 257.80,186.64 257.99,205.20 258.19,324.66 258.32,260.20 258.37,266.73 258.42,225.51 258.56,322.10 258.76,315.99 258.96,338.16 259.10,327.51 259.16,239.87 259.20,273.48 259.34,292.59 259.53,251.25 259.72,308.35 259.88,261.66 259.96,236.57 259.99,253.55 260.11,192.50 260.29,296.41 260.49,174.01 260.66,210.58 260.75,144.74 260.77,211.44 260.88,320.71 261.06,209.44 261.26,177.47 261.43,275.15 261.54,219.46 261.56,264.66 261.65,216.53 261.82,249.94 262.03,289.11 262.21,184.05 262.32,283.34 262.35,196.42 262.43,201.93 262.59,188.14 262.79,340.66 262.98,330.51 263.11,188.10 263.14,305.32 263.21,214.67 263.36,367.39 263.56,194.59 263.75,269.63 263.89,233.41 263.94,304.91 263.99,305.01 264.13,357.86 264.32,220.15 264.52,221.04 264.67,302.19 264.73,299.45 264.77,299.19 264.90,364.83 265.09,326.11 265.29,233.83 265.45,273.90 265.53,368.72 265.55,320.03 265.67,313.42 265.85,192.78 266.06,227.42 266.23,270.29 266.32,271.81 266.34,377.97 266.45,334.49 266.62,222.19 266.82,240.01 267.00,236.89 267.10,243.08 267.13,227.98 267.22,200.96 267.39,192.79 267.59,368.00 267.77,204.84 267.89,246.81 267.92,315.89 268.00,224.49 268.16,250.15 268.36,370.50 268.55,247.98 268.67,234.20 268.71,256.78 268.78,182.21 268.92,194.73 269.12,152.62 269.32,392.09 269.46,173.30 269.51,177.76 269.56,293.21 269.70,232.94 269.89,246.61 270.08,239.17 270.24,345.90 270.30,216.36 270.34,347.27 270.47,247.84 270.66,311.10 270.85,190.36 271.01,284.14 271.09,348.66 271.12,238.90 271.24,181.41 271.42,214.09 271.62,258.29 271.79,341.14 271.88,330.84 271.91,383.78 272.01,270.81 272.19,201.69 272.39,307.96 272.57,281.91 272.67,194.98 272.70,266.77 272.79,343.16 272.95,312.33 273.15,168.53 273.34,195.07 273.46,324.22 273.49,307.74 273.56,252.41 273.72,236.08 273.92,237.45 274.11,301.21 274.24,330.03 274.28,321.83 274.34,345.73 274.49,178.97 274.69,302.24 274.88,238.85 275.02,301.37 275.08,229.21 275.12,329.00 275.26,247.05 275.45,248.52 275.65,318.67 275.80,175.61 275.87,251.76 275.91,228.37 276.03,283.09 276.22,259.69 276.42,263.91 276.58,331.01 276.66,203.14 276.69,200.72 276.80,220.77 276.98,205.72 277.19,227.51 277.36,343.69 277.45,207.94 277.48,296.67 277.58,234.66 277.75,200.90 277.95,280.64 278.13,247.79 278.24,336.57 278.27,312.54 278.35,308.38 278.52,257.08 278.72,356.05 278.90,218.01 279.03,301.19 279.06,276.00 279.13,318.95 279.29,226.72 279.49,181.32 279.68,224.27 279.81,339.97 279.85,216.20 279.91,190.52 280.06,315.63 280.25,277.97 280.45,314.89 280.59,232.19 280.65,298.35 280.69,174.81 280.83,253.50 281.02,218.78 281.22,148.90 281.37,186.53 281.44,266.96 281.47,236.64 281.60,220.92 281.78,254.77 281.98,257.58 282.15,246.20 282.23,301.07 282.26,270.05 282.37,275.62 282.55,285.06 282.75,232.43 282.92,227.64 283.02,200.55 283.05,281.97 283.14,240.94 283.32,321.91 283.52,209.17 283.70,253.03 283.81,295.28 283.83,323.73 283.92,315.08 284.08,245.25 284.28,207.85 284.47,386.82 284.59,347.57 284.63,341.08 284.70,268.67 284.85,176.78 285.05,250.28 285.24,306.16 285.38,339.31 285.42,209.23 285.48,283.68 285.62,406.47 285.82,315.28 286.01,239.62 286.16,402.26 286.22,234.77 286.26,233.38 286.39,254.49 286.58,288.86 286.78,216.81 286.94,287.05 287.01,257.47 287.04,204.89 287.16,217.10 287.35,178.89 287.55,377.02 287.71,277.87 287.80,170.40 287.83,302.86 287.94,238.28 288.11,345.46 288.31,186.48 288.49,187.52 288.59,214.01 288.61,213.05 288.71,326.19 288.88,192.29 289.08,244.48 289.26,310.56 289.38,239.97 289.40,275.57 289.49,179.89 289.65,236.70 289.85,258.35 290.04,188.75 290.16,211.82 290.20,197.04 290.26,202.74 290.42,303.14 290.62,214.21 290.81,311.24 290.94,238.04 290.99,267.41 291.04,357.07 291.19,326.06 291.38,341.63 291.58,197.77 291.72,203.66 291.78,285.90 291.83,324.89 291.96,263.27 292.15,380.13 292.35,245.84 292.50,278.99 292.58,257.51 292.61,336.43 292.73,296.76 292.91,235.48 293.11,357.53 293.28,260.46 293.37,359.32 293.39,163.71 293.50,213.24 293.68,325.52 293.88,267.00 294.05,178.36 294.16,278.09 294.18,307.72 294.28,186.58 294.44,205.61 294.65,332.59 294.83,236.01 294.94,216.24 294.97,359.74 295.05,244.94 295.21,175.58 295.41,207.29 295.60,324.65 295.73,322.10 295.76,375.69 295.83,214.57 295.98,249.29 296.18,285.42 296.37,292.95 296.51,247.79 296.56,230.69 296.61,315.31 296.75,283.06 296.94,301.00 297.14,256.48 297.29,277.49 297.35,347.32 297.39,186.32 297.52,283.21 297.71,196.12 297.91,219.12 298.07,231.61 298.15,221.97 298.18,207.42 298.29,338.85 298.48,215.28 298.68,282.96 298.85,256.91 298.94,212.21 298.96,201.31 299.07,223.47 299.24,189.16 299.44,422.97 299.62,247.88 299.73,326.49 299.75,252.58 299.84,225.92 300.01,184.81 300.21,277.68 300.39,174.78 300.51,326.23 300.54,220.32 300.62,264.42 300.78,261.81 300.98,352.45 301.17,212.57 301.30,370.23 301.33,213.84 301.40,244.52 301.55,278.08 301.74,222.49 301.94,349.92 302.08,278.80 302.13,288.40 302.18,300.64 302.32,248.52 302.51,278.32 302.71,249.12 302.86,193.56 302.92,297.83 302.96,252.24 303.09,359.45 303.27,224.83 303.48,399.47 303.64,258.54 303.72,275.95 303.74,242.48 303.86,377.62 304.04,298.23 304.24,227.92 304.41,234.01 304.51,149.98 304.53,232.64 304.63,267.62 304.81,354.82 305.01,333.81 305.19,226.66 305.29,244.32 305.32,362.92 305.41,214.81 305.57,211.73 305.78,235.66 305.96,187.22 306.08,300.45 306.11,208.43 306.18,272.36 306.34,298.47 306.54,316.51 306.73,223.77 306.86,362.69 306.90,185.50 306.96,377.94 307.11,192.80 307.31,314.25 307.50,314.00 307.64,180.70 307.70,335.69 307.74,315.55 307.88,310.56 308.07,286.29 308.27,183.60 308.42,318.44 308.49,336.64 308.53,215.91 308.65,224.55 308.84,420.41 309.04,251.24 309.20,207.75 309.28,221.72 309.31,228.51 309.42,292.57 309.61,266.44 309.81,186.19 309.98,225.35 310.07,230.49 310.10,296.22 310.20,319.66 310.37,179.16 310.57,225.11 310.75,180.19 310.86,236.51 310.89,286.89 310.97,259.84 311.14,311.12 311.34,325.39 311.52,248.74 311.65,366.31 311.68,204.88 311.75,286.97 311.91,193.20 312.11,266.46 312.30,203.78 312.43,222.41 312.47,317.20 312.53,285.95 312.68,329.31 312.87,329.35 313.07,255.46 313.21,334.67 313.27,319.07 313.31,202.62 313.45,234.32 313.64,222.39 313.83,204.35 313.99,248.71 314.06,250.39 314.09,239.56 314.22,210.81 314.40,264.45 314.60,283.41 314.77,165.02 314.85,192.11 314.88,280.57 314.99,223.35 315.17,288.70 315.37,236.91 315.54,265.27 315.64,189.89 315.67,227.36 315.76,395.29 315.94,230.88 316.14,282.45 316.32,272.70 316.43,238.36 316.46,244.37 316.54,270.94 316.70,251.69 316.90,350.90 317.09,270.18 317.21,303.18 317.25,233.46 317.32,253.33 317.47,303.93 317.67,242.87 317.86,355.11 318.00,222.82 318.04,157.11 318.10,294.48 318.24,426.61 318.44,312.63 318.63,179.75 318.78,280.91 318.84,261.91 318.88,221.56 319.01,310.23 319.20,214.67 319.40,196.23 319.56,232.03 319.63,318.13 319.66,256.14 319.78,403.70 319.97,264.23 320.17,245.75 320.33,268.10 320.42,307.89 320.45,281.73 320.56,317.81 320.73,219.88 320.94,354.10 321.11,317.93 321.21,252.59 321.24,361.59 321.33,320.84 321.50,229.97 321.70,262.77 321.88,204.91 322.00,326.65 322.03,158.59 322.11,296.61 322.27,189.44 322.47,251.77 322.66,166.11 322.78,289.18 322.82,162.77 322.89,188.83 323.04,323.29 323.23,293.60 323.43,200.63 323.56,162.60 323.61,177.23 323.67,219.00 323.81,351.85 324.00,248.46 324.20,169.74 324.34,272.22 324.41,229.70 324.45,301.29 324.58,276.79 324.77,236.68 324.97,237.40 325.12,376.36 325.20,201.18 325.23,179.37 325.35,238.30 325.53,271.20 325.73,245.43 325.90,232.59 325.99,240.22 326.02,268.71 326.12,352.53 326.30,297.49 326.50,181.25 326.68,198.36 326.78,385.25 326.80,238.81 326.90,247.98 327.07,326.03 327.27,212.30 327.45,230.30 327.57,285.53 327.59,234.04 327.67,239.01 327.83,356.02 328.03,255.69 328.22,272.08 328.35,306.63 328.39,336.08 328.45,267.62 328.60,297.40 328.80,198.53 328.99,238.19 329.13,222.63 329.18,238.58 329.23,255.79 329.37,256.51 329.57,308.59 329.76,222.51 329.91,269.93 329.98,286.69 330.01,321.78 330.14,222.39 330.33,183.29 330.53,416.86 330.69,284.95 330.77,253.00 330.80,305.73 330.92,326.91 331.10,207.56 331.30,156.11 331.47,246.35 331.56,266.91 331.58,258.69 331.69,213.58 331.86,209.26 332.07,246.69 332.24,275.60 332.35,270.14 332.37,217.36 332.46,234.96 332.63,358.60 332.83,224.64 333.01,239.34 333.13,274.48 333.16,248.28 333.24,249.55 333.40,215.41 333.60,158.44 333.79,160.24 333.92,314.52 333.96,396.78 334.02,311.92 334.17,370.15 334.36,202.63 334.56,247.53 334.70,260.15 334.75,191.23 334.80,309.22 334.94,352.66 335.13,169.62 335.33,229.32 335.48,196.58 335.55,257.27 335.58,335.94 335.71,216.43 335.89,377.65 336.10,329.29 336.26,283.97 336.34,279.51 336.37,253.21 336.48,175.20 336.66,189.96 336.86,160.85 337.03,232.09 337.13,305.40 337.15,251.97 337.25,385.25 337.43,310.32 337.63,270.07 337.81,226.28 337.92,255.14 337.94,192.48 338.03,343.84 338.20,172.32 338.40,259.97 338.58,280.01 338.70,291.73 338.73,285.24 338.81,372.10 338.96,356.88 339.16,384.85 339.35,212.03 339.48,261.29 339.53,311.99 339.58,214.27 339.73,216.75 339.93,164.58 340.12,267.66 340.27,188.68 340.32,333.05 340.37,317.81 340.50,312.71 340.69,199.17 340.89,170.42 341.05,228.32 341.11,209.94 341.15,301.19 341.27,242.43 341.46,251.89 341.66,183.76 341.82,269.54 341.91,288.82 341.93,270.90 342.05,283.93 342.23,189.06 342.43,178.90 342.60,207.15 342.70,231.14 342.72,329.27 342.82,244.47 342.99,250.78 343.19,279.85 343.37,201.95 343.48,366.41 343.51,294.54 343.60,283.93 343.76,301.58 343.96,320.84 344.15,262.91 344.27,338.77 344.30,178.60 344.37,164.20 344.53,155.26 344.73,219.08 344.92,197.61 345.05,294.79 345.09,285.82 345.15,183.33 345.30,183.18 345.49,172.47 345.69,187.18 345.83,171.29 345.89,277.07 345.93,220.30 346.07,291.17 346.26,262.90 346.46,206.24 346.61,257.65 346.68,271.65 346.72,298.89 346.84,184.06 347.02,324.93 347.23,177.71 347.39,289.18 347.47,399.20 347.50,269.98 347.61,204.80 347.79,315.32 347.99,251.43 348.16,251.20 348.26,203.44 348.29,325.13 348.39,126.40 348.56,154.26 348.76,119.17 348.94,229.04 349.05,212.16 349.08,284.81 349.16,326.42 349.32,224.34 349.53,256.99 349.71,184.25 349.84,312.74 349.87,234.90 349.94,237.65 350.09,197.42 350.29,325.93 350.48,374.15 350.62,230.37 350.66,243.40 350.72,220.94 350.86,269.45 351.06,203.66 351.25,278.74 351.40,330.65 351.46,223.43 351.50,229.65 351.63,235.59 351.82,213.00 352.02,252.41 352.18,231.59 352.25,197.38 352.28,374.76 352.40,169.19 352.59,237.50 352.79,304.37 352.96,269.67 353.04,246.86 353.07,188.42 353.18,322.02 353.36,353.41 353.56,311.04 353.73,263.94 353.83,343.35 353.86,318.49 353.95,288.23 354.12,187.65 354.32,266.47 354.51,267.22 354.62,139.21 354.65,296.61 354.73,302.12 354.89,249.23 355.09,295.95 355.28,282.25 355.40,237.94 355.44,187.02 355.51,231.07 355.66,355.27 355.85,177.21 356.05,263.70 356.19,173.54 356.23,345.49 356.29,153.99 356.43,275.85 356.62,171.83 356.82,281.80 356.97,239.81 357.03,331.87 357.07,284.17 357.20,199.86 357.39,303.42 357.59,244.12 357.74,284.64 357.82,203.17 357.85,291.59 357.97,267.51 358.15,212.11 358.35,231.39 358.52,195.84 358.61,329.33 358.64,301.66 358.74,206.79 358.92,342.79 359.12,350.01 359.30,323.64 359.40,210.83 359.43,299.06 359.52,139.43 359.69,154.88 359.89,199.87 360.07,248.88 360.19,129.01 360.22,201.37 360.29,285.23 360.45,277.66 360.65,235.12 360.84,215.19 360.97,210.23 361.01,259.95 361.07,263.66 361.22,210.88 361.42,180.49 361.61,291.47 361.75,242.19 361.80,257.45 361.85,248.38 361.99,279.69 362.18,203.11 362.38,290.60 362.53,239.10 362.60,334.10 362.64,196.25 362.76,294.65 362.95,243.69 363.15,355.04 363.31,416.96 363.39,239.87 363.42,187.59 363.54,220.74 363.72,240.88 363.92,282.57 364.09,269.92 364.18,230.63 364.21,167.85 364.31,240.69 364.48,311.52 364.69,203.54 364.86,250.29 364.97,314.18 364.99,361.84 365.08,227.89 365.25,222.93 365.45,215.40 365.63,208.94 365.75,190.94 365.78,318.90 365.86,202.04 366.02,203.34 366.22,333.02 366.41,196.50 366.54,296.46 366.58,226.86 366.64,345.36 366.79,311.96 366.98,215.70 367.18,212.01 367.32,199.55 367.37,308.10 367.42,242.68 367.56,243.41 367.75,266.98 367.95,306.03 368.10,223.27 368.17,346.02 368.20,267.20 368.33,305.12 368.52,208.01 368.71,291.24 368.88,327.33 368.96,197.61 368.99,250.22 369.10,235.92 369.28,312.66 369.48,216.03 369.65,360.32 369.75,236.88 369.77,243.78 369.88,263.35 370.05,292.86 370.25,186.01 370.43,209.56 370.54,354.42 370.56,316.18 370.65,307.95 370.82,301.35 371.02,245.87 371.20,271.34 371.32,245.67 371.35,320.36 371.43,248.20 371.58,283.02 371.78,240.50 371.97,308.75 372.10,267.08 372.15,226.79 372.21,220.20 372.35,330.77 372.55,212.28 372.74,257.76 372.89,276.00 372.94,245.46 372.99,287.76 373.12,211.35 373.31,257.29 373.51,313.33 373.67,232.83 373.74,257.84 373.77,231.69 373.89,334.36 374.08,221.87 374.28,274.96 374.44,282.35 374.53,228.19 374.55,274.45 374.67,263.54 374.85,276.40 375.05,295.61 375.22,228.79 375.32,279.99 375.34,244.81 375.44,219.49 375.61,362.54 375.82,278.10 375.99,368.26 376.10,179.89 376.13,213.04 376.22,278.08 376.38,198.43 376.58,280.93 376.77,256.23 376.89,159.14 376.92,390.72 376.99,204.46 377.15,234.77 377.35,188.03 377.54,266.98 377.67,234.51 377.72,191.72 377.77,301.48 377.92,192.43 378.11,196.05 378.31,281.56 378.45,190.01 378.51,248.50 378.55,272.94 378.69,365.20 378.88,312.82 379.08,251.12 379.23,251.24 379.30,233.59 379.34,247.23 379.46,311.95 379.64,366.27 379.85,180.69 380.01,178.83 380.10,273.58 380.12,223.40 380.23,284.74 380.41,198.71 380.61,161.55 380.78,236.45 380.89,279.39 380.91,217.14 381.01,216.07 381.18,198.07 381.38,342.60 381.56,252.74 381.67,334.56 381.70,262.17 381.78,265.87 381.95,187.81 382.14,205.05 382.33,289.98 382.46,314.60 382.49,270.61 382.56,169.10 382.71,240.08 382.91,183.55 383.10,271.72 383.24,235.22 383.29,302.53 383.34,292.67 383.48,250.41 383.68,362.50 383.87,206.16 384.02,308.47 384.08,292.65 384.12,367.38 384.25,204.26 384.44,236.59 384.64,178.52 384.80,385.04 384.87,288.27 384.91,152.79 385.03,338.92 385.21,364.09 385.41,243.73 385.58,348.98 385.66,304.65 385.69,192.79 385.80,192.45 385.98,217.36 386.18,291.20 386.35,254.61 386.45,346.83 386.48,265.79 386.57,231.79 386.74,175.26 386.94,266.83 387.13,273.38 387.24,262.86 387.27,274.43 387.35,221.15 387.51,224.84 387.71,186.33 387.90,305.64 388.02,305.20 388.06,184.06 388.13,222.55 388.28,190.78 388.48,260.02 388.67,262.67 388.81,176.88 388.86,252.30 388.91,212.48 389.05,179.99 389.24,259.85 389.44,252.22 389.59,238.83 389.65,236.51 389.69,280.28 389.82,204.57 390.01,350.52 390.21,243.99 390.37,297.89 390.44,189.44 390.47,216.80 390.59,206.55 390.77,261.30 390.97,261.99 391.14,232.48 391.23,181.84 391.26,249.18 391.36,279.61 391.54,301.35 391.74,306.68 391.92,207.56 392.02,242.70 392.05,195.02 392.14,264.81 392.31,237.41 392.51,156.21 392.69,155.93 392.81,331.60 392.84,231.70 392.92,248.00 393.07,293.98 393.27,291.78 393.46,287.49 393.59,315.12 393.63,187.05 393.69,229.71 393.84,347.12 394.04,199.24 394.23,311.03 394.37,311.73 394.42,218.50 394.47,318.72 394.61,213.34 394.80,239.42 395.00,254.31 395.15,236.32 395.22,296.60 395.26,248.76 395.38,333.79 395.57,204.98 395.77,181.91 395.93,216.28 396.01,258.34 396.04,256.84 396.16,198.07 396.34,238.61 396.54,219.13 396.71,307.31 396.80,226.06 396.83,197.23 396.93,203.53 397.10,207.31 397.31,276.02 397.48,300.90 397.59,230.25 397.62,226.26 397.70,201.58 397.87,262.49 398.07,251.25 398.26,187.68 398.38,282.80 398.41,296.82 398.48,251.55 398.64,267.21 398.84,378.83 399.03,204.13 399.16,318.76 399.20,372.64 399.26,257.86 399.41,379.40 399.60,344.03 399.80,219.67 399.94,329.52 399.99,326.82 400.04,231.67 400.18,209.04 400.37,175.94 400.57,285.28 400.72,311.01 400.79,281.41 400.82,399.22 400.95,274.83 401.14,391.07 401.34,215.01 401.50,351.62 401.58,353.22 401.61,164.06 401.72,351.56 401.90,266.94 402.10,228.70 402.27,266.88 402.37,406.47 402.39,258.45 402.50,271.38 402.67,321.81 402.87,206.31 403.05,355.49 403.16,238.96 403.18,352.02 403.27,401.04 403.44,174.40 403.64,224.25 403.82,257.39 403.94,213.82 403.98,258.44 404.05,296.81 404.20,236.44 404.40,302.61 404.59,233.54 404.73,372.65 404.77,316.80 404.83,142.11 404.97,162.62 405.17,360.66 405.36,359.18 405.51,184.14 405.56,164.27 405.61,359.90 405.74,255.31 405.93,397.37 406.13,219.57 406.29,200.38 406.36,309.92 406.39,274.97 406.51,330.22 406.70,287.33 406.90,253.65 407.06,246.34 407.15,325.26 407.18,187.83 407.29,270.85 407.47,301.97 407.67,192.65 407.84,273.22 407.94,296.68 407.96,372.83 408.06,350.72 408.23,343.31 408.43,328.97 408.62,301.63 408.73,337.65 408.75,279.66 408.84,227.93 409.00,298.88 409.20,285.74 409.39,237.16 409.51,331.95 409.54,321.63 409.61,319.55 409.77,185.47 409.97,278.79 410.16,188.18 410.29,221.54 410.34,187.09 410.39,237.23 410.54,230.84 410.73,259.71 410.93,197.83 411.07,229.78 411.13,227.79 411.18,309.04 411.31,217.44 411.50,216.55 411.70,171.84 411.85,355.05 411.93,252.17 411.96,230.17 412.08,237.01 412.27,235.51 412.46,239.98 412.63,270.45 412.72,350.67 412.74,338.81 412.85,248.53 413.03,196.88 413.23,264.79 413.41,230.77 413.51,256.84 413.53,303.51 413.63,341.12 413.80,259.34 414.00,250.21 414.18,153.47 414.29,192.47 414.32,208.31 414.40,261.56 414.57,290.32 414.77,205.03 414.95,249.28 415.08,229.29 415.11,328.82 415.18,322.11 415.33,322.02 415.53,261.51 415.72,163.80 415.86,330.95 415.91,251.52 415.96,276.61 416.10,227.74 416.30,272.52 416.49,374.48 416.64,243.78 416.70,257.26 416.74,251.84 416.87,275.91 417.06,206.83 417.26,194.25 417.42,232.06 417.50,150.63 417.53,274.03 417.65,284.25 417.83,253.57 418.03,239.37 418.20,297.70 418.29,328.20 418.31,177.68 418.42,330.65 418.59,179.81 418.80,176.67 418.97,296.10 419.07,273.31 419.10,303.88 419.19,218.52 419.36,181.91 419.56,192.26 419.75,330.36 419.86,296.30 419.89,229.71 419.97,248.15 420.13,222.79 420.33,218.49 420.52,339.54 420.65,222.79 420.68,276.42 420.75,257.46 420.90,340.68 421.10,193.64 421.29,171.29 421.43,222.98 421.48,342.42 421.53,194.46 421.67,134.85 421.86,214.74 422.06,366.23 422.21,235.30 422.27,253.81 422.31,174.95 422.44,272.90 422.63,204.47 422.83,178.55 422.99,211.89 423.06,225.39 423.09,246.22 423.21,261.88 423.39,292.15 423.59,247.88 423.76,327.99 423.85,313.53 423.88,238.76 423.98,269.35 424.16,215.86 424.36,297.32 424.54,359.57 424.64,239.29 424.67,366.56 424.76,266.42 424.93,286.95 425.13,342.54 425.31,194.54 425.43,355.78 425.46,304.45 425.54,299.51 425.70,296.51 425.89,361.30 426.08,278.24 426.21,288.52 426.25,294.71 426.31,221.52 426.46,314.87 426.66,249.42 426.85,232.78 426.99,315.86 427.05,374.06 427.10,268.11 427.23,252.15 427.43,290.87 427.62,285.00 427.77,260.44 427.84,266.47 427.88,227.30 428.00,222.34 428.19,240.69 428.39,229.50 428.55,263.53 428.63,263.80 428.66,262.38 428.78,184.46 428.96,292.32 429.16,180.94 429.33,201.55 429.42,236.59 429.45,336.44 429.55,292.31 429.72,197.65 429.93,201.16 430.10,265.99 430.21,198.72 430.24,245.95 430.33,264.18 430.49,275.31 430.69,325.36 430.88,224.69 431.00,229.20 431.03,269.13 431.10,202.98 431.26,231.57 431.46,177.62 431.65,401.85 431.78,209.02 431.82,353.44 431.88,395.71 432.03,234.31 432.22,237.19 432.42,331.48 432.56,260.81 432.62,264.04 432.66,214.89 432.80,280.81 432.99,310.38 433.19,231.92 433.34,188.68 433.41,222.51 433.44,308.28 433.57,346.12 433.76,161.31 433.96,189.07 434.12,255.09 434.20,140.30 434.23,253.44 434.34,359.07 434.52,237.37 434.72,235.83 434.89,214.99 434.99,295.50 435.02,274.93 435.12,217.97 435.29,278.30 435.49,179.41 435.67,181.72 435.78,294.21 435.81,231.07 435.89,241.93 436.06,265.93 436.26,212.57 436.44,213.84 436.56,199.35 436.60,315.43 436.67,200.59 436.82,178.21 437.02,319.33 437.21,274.97 437.35,189.68 437.39,191.43 437.45,198.24 437.59,423.66 437.79,281.74 437.98,263.56 438.13,343.94 438.19,359.03 438.23,346.03 438.36,320.63 438.55,277.31 438.75,203.87 438.91,235.23 438.98,291.73 439.01,240.21 439.14,367.06 439.32,267.17 439.52,294.67 439.68,257.50 439.77,253.46 439.80,213.47 439.91,280.53 440.09,256.75 440.29,197.93 440.46,236.19 440.56,331.04 440.58,220.31 440.68,346.18 440.85,233.36 441.05,212.72 441.24,331.46 441.35,288.54 441.37,340.76 441.46,271.17 441.62,285.40 441.82,280.47 442.01,194.32 442.13,364.72 442.17,204.00 442.24,211.41 442.39,174.07 442.59,303.21 442.78,208.58 442.91,257.50 442.96,343.09 443.01,247.06 443.16,223.22 443.35,378.53 443.55,325.24 443.70,321.70 443.76,208.37 443.80,189.79 443.93,357.25 444.12,238.14 444.32,225.58 444.48,291.93 444.55,357.06 444.58,270.52 444.70,252.95 444.88,251.00 445.09,288.08 445.25,345.52 445.34,308.17 445.37,179.04 445.47,198.41 445.65,349.95 445.85,208.14 446.03,179.77 446.13,357.52 446.15,156.63 446.25,262.99 446.42,403.99 446.62,281.31 446.80,392.14 446.91,172.64 446.94,202.76 447.02,276.52 447.18,280.91 447.39,311.20 447.57,314.90 447.70,304.98 447.74,242.70 447.80,267.80 447.95,287.15 448.15,307.68 448.34,226.75 448.48,206.98 448.53,342.58 448.58,174.30 448.72,240.48 448.92,301.32 449.11,225.81 449.26,210.15 449.32,294.74 449.36,246.63 449.49,219.90 449.68,216.85 449.88,167.01 450.04,259.73 450.12,286.22 450.15,230.97 450.27,336.73 450.45,252.75 450.65,203.35 450.82,288.00 450.91,155.54 450.93,262.42 451.04,187.82 451.22,309.24 451.42,205.69 451.59,216.55 451.70,256.40 451.72,265.33 451.81,266.73 451.98,176.63 452.18,238.31 452.37,313.74 452.48,181.69 452.51,334.42 452.59,218.07 452.75,183.48 452.95,310.14 453.14,338.50 453.27,212.35 453.30,355.48 453.37,221.96 453.52,285.53 453.72,333.52 453.91,314.77 454.05,290.98 454.10,295.42 454.15,226.66 454.29,344.72 454.48,301.44 454.68,189.16 454.83,314.73 454.89,397.18 454.93,313.80 455.06,331.02 455.25,199.13 455.45,246.03 455.61,205.01 455.69,187.82 455.72,204.51 455.83,219.62 456.01,206.81 456.21,292.97 456.38,254.57 456.48,225.08 456.50,247.82 456.61,305.26 456.78,257.64 456.98,305.52 457.16,309.84 457.26,259.99 457.29,189.02 457.38,195.93 457.55,222.19 457.75,187.65 457.93,265.97 458.05,370.26 458.08,175.23 458.16,274.03 458.32,250.78 458.52,322.05 458.70,333.55 458.83,335.30 458.87,151.28 458.94,353.16 459.08,279.79 459.28,176.77 459.47,334.99 459.62,270.49 459.67,305.74 459.72,165.30 459.85,201.29 460.05,270.93 460.24,237.76 460.40,258.27 460.46,176.14 460.50,230.01 460.62,194.54 460.81,320.74 461.01,273.22 461.17,216.48 461.26,195.54 461.28,205.85 461.40,201.69 461.58,338.17 461.78,296.84 461.95,187.23 462.04,300.90 462.07,299.92 462.17,240.07 462.34,245.58 462.55,282.25 462.73,288.73 462.83,308.41 462.86,358.27 462.95,272.20 463.11,171.03 463.31,278.65 463.50,157.33 463.62,221.72 463.65,329.63 463.72,244.18 463.88,302.77 464.08,311.52 464.27,335.67 464.40,278.84 464.44,202.81 464.50,191.20 464.65,250.63 464.84,234.23 465.04,272.11 465.18,170.75 465.24,242.11 465.28,281.92 465.42,217.78 465.61,276.81 465.81,233.09 465.96,227.98 466.03,289.78 466.07,234.64 466.19,302.26 466.38,200.29 466.58,411.77 466.74,205.23 466.82,296.16 466.85,241.36 466.96,188.56 467.14,200.63 467.34,366.55 467.52,255.19 467.61,336.90 467.64,225.58 467.74,171.11 467.91,293.32 468.11,193.01 468.29,342.79 468.40,193.02 468.43,314.03 468.51,372.28 468.68,327.93 468.88,204.59 469.06,247.85 469.19,364.00 469.22,347.29 469.29,251.06 469.45,317.73 469.64,219.62 469.83,220.81 469.97,279.55 470.01,313.07 470.07,324.05 470.21,244.15 470.41,176.13 470.60,361.72 470.75,358.13 470.81,208.12 470.85,285.74 470.98,344.44 471.18,303.34 471.37,303.98 471.53,253.65 471.60,212.25 471.63,227.30 471.76,239.35 471.94,280.06 472.14,216.08 472.31,199.33 472.39,243.59 472.42,205.11 472.53,248.32 472.71,208.85 472.91,190.12 473.08,203.86 473.18,312.88 473.21,172.89 473.30,359.47 473.47,309.43 473.68,218.80 473.86,214.44 473.97,247.87 474.00,199.75 474.08,256.88 474.24,207.82 474.44,352.71 474.63,240.79 474.75,328.26 474.79,277.11 474.86,300.11 475.01,350.85 475.21,232.89 475.40,344.09 475.54,328.41 475.58,292.98 475.64,205.11 475.78,199.85 475.97,350.68 476.17,331.27 476.32,341.95 476.38,307.01 476.42,251.46 476.55,220.54 476.74,253.40 476.94,257.95 477.10,228.26 477.17,302.67 477.20,341.50 477.32,287.84 477.50,228.59 477.71,178.99 477.87,283.13 477.96,287.03 477.99,216.67 478.09,288.22 478.27,269.21 478.47,331.18 478.65,262.41 478.75,214.51 478.77,225.95 478.87,283.05 479.04,190.80 479.24,365.22 479.42,249.19 479.54,183.70 479.56,181.55 479.64,311.85 479.81,210.23 480.01,168.83 480.19,325.70 480.32,272.28 480.36,301.63 480.42,194.28 480.57,306.50 480.77,171.25 480.97,322.12 481.10,176.16 481.15,214.04 481.20,242.49 481.34,219.98 481.54,237.88 481.73,307.69 481.88,242.80 481.95,213.88 481.98,288.44 482.11,337.46 482.30,215.56 482.50,211.69 482.66,220.32 482.74,362.65 482.77,263.86 482.89,255.22 483.07,274.81 483.27,222.63 483.44,169.69 483.53,283.54 483.56,339.73 483.66,358.84 483.84,269.42 484.04,144.26 484.21,187.52 484.32,266.68 484.34,288.04 484.43,207.77 484.60,321.80 484.80,251.39 484.99,226.59 485.10,308.44 485.13,220.67 485.21,201.72 485.37,228.96 485.57,348.49 485.76,238.57 485.89,278.52 485.93,247.20 485.99,309.16 486.14,299.15 486.34,406.97 486.53,228.76 486.67,184.23 486.72,174.89 486.77,209.81 486.91,166.39 487.10,375.68 487.30,204.62 487.45,263.51 487.52,360.91 487.55,226.78 487.68,182.21 487.87,282.94 488.07,269.99 488.23,300.09 488.31,305.01 488.34,241.98 488.45,278.19 488.63,256.95 488.84,195.87 489.00,214.31 489.10,186.99 489.12,224.91 489.23,361.80 489.40,254.63 489.60,285.88 489.78,246.51 489.89,349.97 489.91,233.53 490.00,325.17 490.17,213.68 490.37,355.73 490.55,241.61 490.67,279.76 490.70,317.96 490.78,195.38 490.93,172.83 491.13,187.23 491.33,241.86 491.46,202.20 491.50,336.95 491.56,224.90 491.70,259.53 491.90,358.19 492.09,283.96 492.24,325.91 492.29,342.67 492.34,347.82 492.47,241.09 492.67,237.22 492.86,226.28 493.02,276.90 493.08,314.11 493.12,326.94 493.25,386.72 493.43,322.95 493.63,318.71 493.79,244.97 493.88,256.23 493.90,282.04 494.02,234.59 494.20,241.50 494.40,290.45 494.57,206.06 494.67,288.44 494.69,325.85 494.79,324.32 494.97,315.75 495.17,232.48 495.35,301.49 495.45,295.59 495.48,175.81 495.57,278.12 495.73,211.91 495.93,204.47 496.12,193.54 496.24,276.92 496.27,226.04 496.34,231.30 496.50,353.15 496.70,200.64 496.89,230.02 497.02,297.89 497.06,283.58 497.12,288.94 497.27,358.11 497.47,205.67 497.66,258.44 497.80,222.50 497.86,194.62 497.90,190.54 498.04,211.33 498.23,198.37 498.43,253.48 498.58,364.21 498.65,369.86 498.69,212.58 498.81,222.54 499.00,248.54 499.20,220.76 499.36,231.36 499.45,159.36 499.47,321.24 499.58,192.79 499.76,202.25 499.96,274.28 500.14,277.92 500.23,238.22 500.26,178.89 500.36,286.15 500.53,210.42 500.73,225.61 500.91,190.65 501.02,237.18 501.05,236.03 501.13,293.35 501.30,286.55 501.50,206.77 501.68,249.67 501.81,315.79 501.84,256.40 501.91,186.87 502.06,184.18 502.26,271.87 502.45,353.56 502.59,184.59 502.63,353.86 502.69,289.67 502.83,240.13 503.03,265.74 503.22,279.76 503.37,234.25 503.43,162.83 503.47,187.20 503.61,260.59 503.79,260.62 503.99,234.46 504.15,311.28 504.22,214.35 504.26,270.70 504.38,302.82 504.56,219.54 504.76,239.96 504.93,180.97 505.01,202.54 505.04,266.33 505.15,295.33 505.33,241.26 505.53,335.11 505.70,161.70 505.80,298.17 505.83,306.50 505.92,247.89 506.09,273.78 506.30,231.96 506.48,215.43 506.59,324.37 506.62,343.47 506.70,287.18 506.86,295.00 507.06,214.67 507.25,193.53 507.37,278.10 507.41,271.14 507.48,220.86 507.63,273.98 507.83,281.10 508.02,212.92 508.16,250.39 508.20,357.47 508.26,261.50 508.40,284.51 508.59,244.58 508.79,279.34 508.94,243.87 509.00,217.20 509.04,266.29 509.17,241.94 509.36,285.86 509.56,207.33 509.72,351.62 509.79,243.64 509.82,364.85 509.94,218.63 510.13,242.77 510.33,290.94 510.49,211.84 510.58,222.97 510.61,210.01 510.71,182.65 510.89,224.68 511.09,256.19 511.27,274.50 511.37,277.22 511.40,219.34 511.49,276.11 511.66,281.00 511.86,325.20 512.04,288.49 512.16,314.79 512.19,228.97 512.27,191.68 512.43,269.62 512.63,233.04 512.81,210.28 512.94,229.78 512.98,213.08 513.04,298.76 513.20,277.12 513.39,320.32 513.59,189.18 513.72,219.08 513.77,257.08 513.82,225.75 513.97,288.29 514.16,251.44 514.36,344.85 514.50,206.71 514.57,345.91 514.61,209.96 514.73,242.96 514.92,251.28 515.12,162.14 515.28,302.40 515.36,326.36 515.39,161.85 515.51,244.11 515.69,279.50 515.89,216.89 516.06,181.92 516.15,174.70 516.18,218.63 516.28,284.40 516.46,300.08 516.66,299.31 516.83,207.99 516.94,213.46 516.96,229.32 517.05,153.00 517.22,236.62 517.43,148.00 517.61,361.10 517.73,258.59 517.76,301.09 517.83,342.86 517.99,384.02 518.19,280.48 518.38,205.35 518.51,248.51 518.55,383.00 518.61,256.40 518.76,259.95 518.96,293.58 519.15,305.33 519.29,172.37 519.34,272.15 519.39,201.81 519.53,293.21 519.72,256.97 519.92,305.36 520.07,340.34 520.14,201.78 520.17,239.13 520.30,308.82 520.49,387.14 520.69,274.18 520.85,253.30 520.93,190.90 520.96,260.02 521.07,293.24 521.25,200.69 521.46,287.09 521.63,272.96 521.72,266.13 521.74,247.36 521.85,278.15 522.02,287.11 522.22,243.03 522.40,286.71 522.51,340.18 522.53,165.08 522.62,382.63 522.79,277.83 522.99,320.12 523.17,202.86 523.29,395.68 523.32,247.42 523.40,304.59 523.56,192.37 523.75,215.71 523.94,192.53 524.08,244.91 524.12,243.93 524.18,245.11 524.32,231.63 524.52,204.72 524.72,268.57 524.86,214.68 524.91,201.08 524.96,191.58 525.09,238.42 525.29,315.07 525.48,197.30 525.64,216.51 525.71,186.43 525.74,354.68 525.87,333.28 526.05,373.51 526.25,224.80 526.42,278.52 526.50,261.91 526.53,292.86 526.64,332.57 526.82,328.83 527.02,277.23 527.19,196.84 527.29,297.10 527.31,372.15 527.41,218.48 527.59,410.33 527.79,233.75 527.97,377.43 528.08,300.81 528.10,320.78 528.19,186.64 528.35,195.13 528.55,191.62 528.74,352.88 528.86,294.92 528.89,293.34 528.97,268.36 529.12,219.78 529.32,271.74 529.51,305.94 529.64,236.98 529.69,221.89 529.74,258.13 529.89,229.06 530.09,254.61 530.28,171.56 530.42,299.59 530.48,275.88 530.52,322.45 530.66,197.76 530.85,280.54 531.05,201.84 531.20,300.92 531.28,155.58 531.31,337.22 531.43,218.14 531.62,199.74 531.82,330.90 531.98,180.94 532.07,246.02 532.09,287.02 532.20,315.76 532.38,257.29 532.59,306.08 532.76,348.58 532.86,248.98 532.88,380.65 532.98,240.57 533.15,361.50 533.35,267.42 533.53,232.51 533.64,211.63 533.67,199.12 533.75,217.42 533.92,235.53 534.12,252.44 534.30,331.52 534.43,292.42 534.46,280.90 534.53,198.52 534.68,207.50 534.88,257.84 535.08,189.66 535.21,258.99 535.26,313.28 535.31,287.99 535.45,303.45 535.65,244.70 535.84,259.85 535.99,248.09 536.05,232.22 536.09,271.71 536.23,187.92 536.42,316.14 536.61,393.36 536.77,185.70 536.84,353.19 536.88,187.62 537.00,154.56 537.18,243.03 537.38,317.43 537.55,168.03 537.64,335.99 537.66,198.40 537.77,280.19 537.95,253.59 538.15,227.38 538.32,335.67 538.42,331.86 538.45,278.82 538.54,283.65 538.71,177.81 538.92,311.90 539.10,182.59 539.21,256.54 539.24,305.12 539.32,250.37 539.48,296.07 539.68,247.79 539.87,240.10 540.00,349.38 540.03,242.59 540.10,206.66 540.25,254.34 540.45,245.29 540.64,234.11 540.78,304.98 540.83,223.21 540.88,265.21 541.02,239.25 541.21,210.86 541.41,299.89 541.56,308.44 541.62,228.85 541.66,192.32 541.79,173.60 541.98,261.85 542.18,300.15 542.34,222.40 542.41,268.04 542.44,342.21 542.56,335.49 542.75,233.08 542.95,333.04 543.11,215.79 543.20,306.53 543.23,218.91 543.34,238.49 543.51,225.21 543.71,382.13 543.89,238.03 543.99,247.80 544.02,123.75 544.11,239.85 544.28,190.67 544.48,180.71 544.66,158.95 544.78,222.41 544.81,370.81 544.89,256.19 545.05,269.41 545.25,302.66 545.44,228.75 545.56,241.16 545.60,194.64 545.66,260.01 545.82,315.76 546.01,184.75 546.20,145.50 546.35,151.54 546.40,173.80 546.44,174.63 546.59,238.92 546.78,196.65 546.97,355.24 547.13,321.31 547.19,223.16 547.23,304.02 547.36,309.88 547.54,249.94 547.74,309.47 547.90,342.55 547.98,318.65 548.01,329.28 548.13,348.53 548.31,180.16 548.51,205.79 548.68,275.91 548.77,265.54 548.80,328.57 548.90,219.20 549.08,263.33 549.28,260.18 549.45,270.74 549.56,262.77 549.59,243.58 549.68,214.84 549.84,317.46 550.04,205.16 550.23,166.00 550.35,224.77 550.38,279.18 550.45,188.83 550.61,243.66 550.81,180.72 551.00,300.20 551.13,280.74 551.17,347.15 551.23,150.28 551.38,324.67 551.58,144.20 551.77,352.58 551.91,348.39 551.96,240.56 552.01,303.70 552.15,173.48 552.34,316.50 552.54,180.70 552.69,219.45 552.76,229.24 552.79,200.60 552.92,274.78 553.11,228.93 553.31,346.10 553.47,362.80 553.55,293.72 553.58,228.26 553.69,156.24 553.87,231.86 554.08,218.91 554.25,230.37 554.34,147.69 554.37,277.53 554.47,205.52 554.64,230.77 554.84,208.36 555.02,237.76 555.13,185.91 555.15,279.47 555.24,239.64 555.41,228.21 555.61,246.43 555.79,316.07 555.91,280.33 555.95,230.12 556.02,146.99 556.18,184.16 556.38,267.87 556.56,154.48 556.70,220.97 556.74,197.28 556.80,199.51 556.95,237.42 557.14,263.85 557.34,263.26 557.48,168.72 557.53,302.56 557.58,188.90 557.72,183.55 557.91,263.22 558.11,251.90 558.26,300.93 558.33,314.68 558.36,238.36 558.49,312.06 558.67,394.27 558.87,303.62 559.04,333.58 559.12,276.65 559.15,225.22 559.26,293.13 559.44,351.75 559.64,355.38 559.81,206.66 559.91,275.90 559.93,321.61 560.03,353.57 560.20,215.92 560.41,276.48 560.59,312.66 560.70,202.22 560.72,234.54 560.81,295.01 560.97,330.63 561.17,322.01 561.36,359.66 561.48,369.59 561.51,203.18 561.59,292.74 561.74,185.09 561.94,339.56 562.13,288.98 562.27,265.19 562.31,199.82 562.37,318.49 562.51,199.40 562.70,287.58 562.90,273.09 563.05,240.16 563.10,254.36 563.15,235.58 563.28,273.84 563.47,181.09 563.67,321.42 563.82,224.49 563.90,310.37 563.93,303.30 564.05,166.52 564.24,140.47 564.44,282.65 564.60,216.41 564.69,163.76 564.71,271.71 564.82,204.87 565.00,235.94 565.20,236.52 565.38,168.99 565.48,291.81 565.50,238.65 565.60,245.85 565.77,234.24 565.97,195.52 566.15,186.34 566.26,243.09 566.29,192.82 566.37,188.62 566.54,202.67 566.74,159.98 566.92,246.59 567.05,165.44 567.08,280.38 567.15,236.20 567.31,208.69 567.50,219.94 567.70,247.03 567.83,364.56 567.88,275.54 567.93,358.67 568.08,217.82 568.27,215.09 568.47,184.80 568.61,202.30 568.67,295.20 568.71,356.33 568.85,271.96 569.04,254.83 569.24,185.33 569.39,339.58 569.47,230.86 569.50,353.65 569.62,395.16 569.80,285.81 570.00,361.04 570.17,195.97 570.26,209.69 570.28,255.17 570.39,336.79 570.57,201.29 570.77,286.97 570.94,241.49 571.05,287.28 571.07,232.78 571.17,283.35 571.33,281.89 571.54,306.24 571.72,345.61 571.83,228.00 571.86,307.89 571.94,167.50 572.10,211.93 572.30,201.02 572.49,197.99 572.62,312.26 572.65,190.03 572.72,273.48 572.87,264.63 573.07,167.81 573.26,309.01 573.40,313.24 573.45,299.87 573.50,290.82 573.64,153.76 573.83,255.09 574.03,265.95 574.18,271.65 574.24,173.09 574.28,266.05 574.41,286.00 574.60,210.92 574.80,158.96 574.96,229.19 575.04,311.12 575.06,211.63 575.18,201.19 575.36,318.08 575.57,241.37 575.74,343.44 575.83,304.82 575.85,237.22 575.96,167.59 576.13,225.14 576.33,334.57 576.51,337.06 576.61,220.91 576.64,165.98 576.73,226.25 576.90,208.55 577.10,191.59 577.28,279.32 577.40,187.80 577.43,315.85 577.51,202.00 577.67,318.85 577.87,318.09 578.06,252.42 578.18,222.59 578.22,186.33 578.29,226.01 578.43,333.02 578.63,189.25 578.83,199.82 578.97,267.84 579.02,267.39 579.07,350.73 579.20,282.74 579.40,376.06 579.59,339.68 579.75,274.82 579.81,362.61 579.85,212.58 579.98,310.56 580.17,172.61 580.36,294.98 580.52,228.38 580.60,247.69 580.63,300.28 580.75,378.51 580.93,171.49 581.13,345.32 581.30,216.96 581.39,203.46 581.42,366.12 581.52,241.43 581.70,298.73 581.90,269.22 582.08,220.93 582.18,255.58 582.21,215.33 582.30,229.85 582.46,178.94 582.66,250.89 582.85,302.21 582.97,219.39 583.00,266.81 583.07,328.85 583.23,311.65 583.43,267.30 583.62,313.97 583.75,192.84 583.79,225.91 583.85,248.70 584.00,300.31 584.20,259.98 584.39,370.31 584.53,343.41 584.59,268.48 584.63,252.76 584.77,166.83 584.96,289.97 585.16,234.50 585.31,308.23 585.38,243.80 585.42,215.90 585.54,371.88 585.73,306.50 585.93,238.97 586.09,202.75 586.17,282.53 586.20,418.56 586.31,344.87 586.49,217.59 586.70,372.97 586.87,267.11 586.96,247.64 586.99,276.80 587.09,253.16 587.26,174.85 587.46,286.37 587.64,389.67 587.75,242.56 587.78,396.89 587.86,233.81 588.03,327.89 588.23,203.03 588.41,358.41 588.54,216.92 588.57,277.30 588.64,313.67 588.80,194.93 589.00,339.08 589.19,229.62 589.32,355.80 589.36,300.57 589.42,356.90 589.57,267.29 589.76,192.89 589.96,302.46 590.10,315.14 590.16,351.83 590.20,401.31 590.34,335.15 590.53,264.09 590.73,347.65 590.88,232.27 590.95,171.28 590.98,208.50 591.11,275.77 591.29,203.02 591.49,173.41 591.66,325.12 591.74,301.37 591.77,275.87 591.88,305.82 592.06,163.61 592.26,189.27 592.43,166.88 592.53,343.55 592.56,269.47 592.65,258.93 592.83,199.75 593.03,214.48 593.21,274.48 593.32,269.70 593.34,244.62 593.43,357.59 593.59,300.25 593.79,252.41 593.98,175.11 594.10,294.07 594.14,266.24 594.21,236.88 594.36,232.23 594.56,284.18 594.75,327.74 594.89,256.26 594.93,289.04 594.99,239.43 595.13,206.68 595.33,274.11 595.52,303.92 595.67,229.41 595.73,374.51 595.77,380.53 595.90,169.49 596.09,346.61 596.29,190.89 596.45,220.41 596.52,188.46 596.55,294.15 596.67,285.67 596.86,276.17 597.06,280.89 597.22,383.37 597.31,206.78 597.34,211.97 597.44,210.51 597.62,206.20 597.83,215.81 598.00,173.65 598.10,190.19 598.12,209.27 598.22,164.69 598.39,372.33 598.59,260.13 598.77,214.66 598.89,263.28 598.91,254.98 599.00,326.63 599.16,329.66 599.36,356.89 599.55,313.74 599.67,210.95 599.71,364.39 599.77,252.58 599.93,210.95 600.12,329.05 600.32,275.08 600.45,185.40 600.50,208.67 600.55,349.43 600.70,256.16 600.89,183.49 601.09,321.30 601.23,363.83 601.29,210.51 601.33,383.13 601.47,259.50 601.66,269.02 601.86,162.14 602.01,294.62 602.09,232.73 602.12,315.84 602.24,296.10 602.42,267.64 602.62,214.33 602.79,195.96 602.88,244.60 602.90,254.67 603.01,157.23 603.19,324.18 603.39,224.34 603.56,179.42 603.67,314.44 603.69,287.81 603.79,350.32 603.95,364.94 604.16,198.85 604.34,288.02 604.45,251.49 604.48,244.86 604.56,256.64 604.72,311.21 604.92,210.95 605.11,200.60 605.24,200.36 605.27,222.48 605.34,201.46 605.49,340.94 605.69,363.95 605.88,363.16 606.02,396.28 606.07,188.22 606.12,317.73 606.26,195.03 606.45,257.98 606.65,322.85 606.80,380.28 606.86,261.95 606.90,308.63 607.03,222.13 607.22,218.59 607.42,317.33 607.58,190.45 607.66,302.44 607.69,305.67 607.80,192.34 607.99,262.84 608.19,183.82 608.36,293.05 608.45,173.91 608.47,285.33 608.58,216.94 608.75,261.86 608.95,309.46 609.13,247.80 609.23,268.55 609.26,196.43 609.35,235.95 609.52,298.52 609.72,351.27 609.90,237.69 610.02,263.22 610.05,226.17 610.13,373.87 610.29,278.92 610.49,284.04 610.68,308.02 610.81,359.36 610.84,174.01 610.91,263.40 611.06,242.14 611.25,207.03 611.45,260.14 611.59,235.23 611.64,165.27 611.69,210.51 611.83,160.34 612.02,300.08 612.22,175.37 612.37,216.54 612.43,316.89 612.47,303.34 612.60,234.74 612.78,239.99 612.99,277.56 613.15,377.89 613.23,345.06 613.25,326.04 613.37,384.91 613.55,240.63 613.75,293.56 613.92,219.76 614.02,291.19 614.04,225.34 614.14,196.55 614.32,172.39 614.52,307.88 614.70,269.50 614.80,323.01 614.83,378.38 614.92,209.52 615.08,183.03 615.29,281.40 615.47,323.47 615.59,255.69 615.62,262.14 615.69,289.84 615.85,218.97 616.05,331.48 616.24,294.19 616.37,216.31 616.41,233.63 616.47,111.55 616.62,160.26 616.82,308.38 617.01,208.32 617.15,173.57 617.21,188.34 617.25,294.37 617.39,255.59 617.58,332.72 617.78,194.04 617.93,280.95 618.00,313.33 618.04,238.97 618.16,372.49 618.35,255.29 618.55,228.65 618.71,303.68 618.79,203.34 618.82,285.85 618.93,296.62 619.12,264.69 619.32,287.66 619.49,328.86 619.58,363.38 619.61,313.83 619.71,171.58 619.88,305.97 620.08,282.07 620.26,258.67 620.37,143.14 620.40,355.58 620.48,241.18 620.65,219.90 620.85,369.02 621.03,259.13 621.16,343.87 621.19,327.31 621.26,279.50 621.42,380.57 621.61,187.41 621.81,206.24 621.94,173.38 621.98,189.98 622.04,179.89 622.19,285.68 622.38,367.37 622.58,183.59 622.72,300.90 622.78,327.50 622.82,162.31 622.96,230.78 623.15,325.23 623.35,313.93 623.50,236.67 623.57,184.02 623.60,351.45 623.73,238.09 623.91,216.92 624.11,259.81 624.28,404.35 624.36,185.13 624.39,179.72 624.50,250.92 624.68,288.97 624.88,163.44 625.05,332.44 625.15,238.34 625.18,187.56 625.28,295.43 625.45,345.20 625.65,251.61 625.83,277.37 625.94,301.46 625.97,301.69 626.05,353.44 626.21,284.88 626.42,242.35 626.60,339.53 626.72,264.92 626.76,404.12 626.83,283.43 626.98,345.89 627.18,179.83 627.37,229.63 627.51,220.11 627.55,162.04 627.61,292.88 627.75,180.17 627.95,179.69 628.14,281.51 628.29,198.65 628.35,255.93 628.39,234.88 628.52,146.34 628.71,217.99 628.91,358.97 629.07,281.79 629.14,329.64 629.17,340.55 629.29,134.78 629.48,237.03 629.68,336.80 629.84,173.27 629.93,348.07 629.96,315.32 630.07,359.98 630.24,313.46 630.45,193.54 630.62,210.82 630.72,294.61 630.75,331.05 630.84,209.11 631.01,254.99 631.21,274.36 631.39,278.99 631.51,198.40 631.53,354.92 631.62,387.87 631.78,305.89 631.98,379.75 632.17,302.03 632.29,253.41 632.33,321.14 632.39,285.79 632.55,189.49 632.74,213.98 632.94,351.59 633.07,151.26 633.12,266.35 633.17,193.10 633.32,323.67 633.51,297.10 633.71,292.67 633.85,340.27 633.92,190.28 633.96,265.94 634.09,274.19 634.28,353.23 634.47,321.36 634.63,271.05 634.71,185.45 634.74,322.69 634.86,282.63 635.04,168.30 635.24,211.45 635.41,317.64 635.50,323.52 635.53,344.02 635.63,288.53 635.81,349.37 636.01,275.45 636.18,213.33 636.29,331.09 636.31,181.90 636.41,306.93 636.58,300.45 636.78,183.19 636.96,157.69 637.08,243.47 637.10,195.81 637.18,333.12 637.34,153.28 637.54,237.74 637.73,270.81 637.86,152.53 637.90,181.37 637.96,250.01 638.11,197.70 638.31,389.75 638.50,296.18 638.64,355.50 638.69,351.18 638.74,285.46 638.88,224.60 639.08,322.61 639.27,300.18 639.42,194.86 639.49,173.15 639.52,351.98 639.65,161.58 639.84,188.94 640.04,281.49 640.20,223.61 640.28,230.68 640.31,319.84 640.42,329.29 640.61,253.65 640.81,276.60 640.98,252.14 641.07,321.87 641.09,323.81 641.20,182.46 641.37,292.27 641.58,185.88 641.75,301.11 641.86,318.42 641.88,229.19 641.97,237.58 642.14,243.07 642.34,187.02 642.52,248.71 642.64,343.33 642.67,233.11 642.75,167.46 642.91,213.21 643.11,201.27 643.30,222.88 643.43,169.03 643.47,308.44 643.53,206.72 643.68,188.95 643.87,278.70 644.07,336.03 644.21,302.04 644.26,245.93 644.31,230.64 644.45,282.40 644.64,296.17 644.84,372.74 644.99,212.66 645.05,209.49 645.09,316.91 645.22,204.23 645.40,180.31 645.61,246.64 645.77,327.78 645.85,326.99 645.88,226.51 645.99,220.54 646.17,295.79 646.37,224.79 646.54,296.32 646.64,209.50 646.66,198.82 646.76,202.63 646.94,168.20 647.14,184.26 647.32,242.27 647.42,342.03 647.45,292.33 647.54,219.47 647.71,265.68 647.91,209.19 648.09,241.03 648.21,303.90 648.24,269.48 648.32,182.01 648.47,296.11 648.67,260.18 648.86,244.57 648.99,295.04 649.03,316.45 649.09,130.49 649.24,229.73 649.44,343.13 649.63,159.27 649.78,329.20 649.83,257.05 649.88,305.97 650.01,229.99 650.20,299.52 650.40,261.61 650.56,285.50 650.62,231.54 650.66,352.14 650.78,187.51 650.97,210.00 651.17,194.36 651.33,289.49 651.42,357.82 651.44,330.47 651.55,292.92 651.74,278.91 651.94,163.45 652.11,261.26 652.21,221.41 652.23,184.95 652.33,272.50 652.50,288.17 652.70,331.13 652.88,225.18 652.99,215.80 653.02,267.59 653.11,281.89 653.27,337.37 653.47,169.41 653.66,247.33 653.78,274.39 653.81,286.43 653.88,202.03 654.04,293.73 654.24,162.93 654.43,308.18 654.56,346.32 654.60,277.77 654.66,231.03 654.81,197.89 655.00,197.06 655.20,283.93 655.34,352.03 655.40,231.54 655.44,203.81 655.58,335.47 655.77,276.82 655.97,200.53 656.12,208.47 656.19,297.03 656.23,345.11 656.35,298.63 656.53,287.15 656.74,199.11 656.90,291.24 656.98,280.03 657.01,209.74 657.12,370.69 657.30,206.99 657.50,272.37 657.67,210.88 657.77,369.19 657.80,282.09 657.90,224.47 658.07,342.42 658.27,169.11 658.45,180.62 658.56,340.45 658.59,185.74 658.67,239.67 658.83,397.11 659.03,186.27 659.22,224.49 659.35,281.90 659.38,200.94 659.45,267.80 659.60,193.77 659.80,221.66 659.99,213.09 660.13,215.15 660.17,272.03 660.23,231.91 660.37,216.06 660.57,273.04 660.76,301.87 660.91,291.41 660.97,207.39 661.01,310.68 661.14,261.65 661.33,251.87 661.53,268.93 661.69,251.23 661.76,360.54 661.79,233.00 661.91,277.02 662.10,159.13 662.30,203.06 662.46,263.81 662.55,384.78 662.58,245.40 662.69,338.13 662.87,224.93 663.07,194.19 663.24,174.06 663.34,193.57 663.37,183.62 663.46,252.37 663.63,292.98 663.83,240.93 664.01,311.53 664.13,167.32 664.16,315.07 664.24,348.16 664.40,206.50 664.60,173.06 664.79,266.57 664.91,239.21 664.95,263.79 665.02,286.46 665.17,252.51 665.36,222.28 665.56,265.72 665.70,181.67 665.74,230.94 665.80,326.74 665.94,305.68 666.13,317.63 666.33,274.51 666.48,356.43 666.54,298.49 666.58,234.41 666.71,336.24 666.90,259.59 667.10,221.69 667.25,285.90 667.33,181.69 667.36,313.36 667.48,340.51 667.66,227.96 667.86,281.32 668.03,267.72 668.12,250.17 668.15,176.60 668.25,198.13 668.43,246.20 668.63,337.38 668.81,265.66 668.91,252.00 668.94,190.18 669.03,305.28 669.20,165.35 669.40,313.48 669.58,218.67 669.70,313.78 669.73,370.62 669.80,213.26 669.96,315.84 670.16,369.67 670.35,260.31 670.48,339.34 670.52,221.11 670.58,286.62 670.73,202.81 670.93,315.11 671.12,223.39 671.26,394.25 671.31,327.55 671.36,186.93 671.50,373.63 671.69,250.16 671.89,289.82 672.04,217.18 672.11,334.12 672.15,300.75 672.27,214.96 672.46,337.28 672.66,304.32 672.82,290.82 672.90,229.19 672.93,282.11 673.04,208.10 673.23,259.31 673.43,295.51 673.60,267.55 673.69,228.14 673.72,220.39 673.82,329.70 673.99,280.70 674.20,205.61 674.37,324.39 674.48,176.10 674.50,349.67 674.59,225.76 674.76,189.33 674.96,274.85 675.14,224.59 675.26,272.53 675.29,322.08 675.37,206.88 675.53,311.88 675.73,234.77 675.92,211.29 676.05,254.42 676.09,274.14 676.15,339.74 676.30,204.88 676.49,264.36 676.69,269.61 676.83,241.84 676.88,260.41 676.93,232.85 677.07,355.98 677.26,249.48 677.46,211.88 677.61,294.25 677.68,213.45 677.71,156.54 677.84,293.76 678.03,338.92 678.22,270.57 678.39,196.40 678.47,250.69 678.50,213.69 678.61,206.07 678.79,272.79 678.99,274.45 679.16,263.43 679.26,328.20 679.28,199.28 679.39,203.75 679.56,175.74 679.76,210.36 679.94,163.46 680.05,180.93 680.07,223.21 680.16,237.83 680.33,272.09 680.53,213.71 680.71,264.03 680.83,194.65 680.86,202.66 680.94,236.03 681.09,169.48 681.29,280.71 681.48,188.34 681.62,203.79 681.66,260.56 681.72,335.12 681.86,243.68 682.06,202.30 682.25,236.60 682.40,325.77 682.45,360.68 682.50,289.20 682.63,187.53 682.82,369.54 683.02,196.00 683.18,218.49 683.25,245.38 683.28,215.49 683.40,207.03 683.59,234.72 683.79,340.68 683.95,195.21 684.04,197.26 684.06,267.24 684.18,178.35 684.36,174.23 684.56,247.56 684.73,349.00 684.83,272.37 684.85,330.27 684.95,201.93 685.12,143.66 685.33,338.34 685.50,180.61 685.61,232.45 685.64,349.68 685.73,322.92 685.89,298.16 686.09,206.16 686.28,321.58 686.40,244.69 686.43,297.79 686.50,216.19 686.66,254.57 686.86,201.09 687.05,184.43 687.18,226.13 687.23,236.16 687.28,312.39 687.43,179.83 687.62,175.95 687.82,314.03 687.96,199.88 688.02,183.89 688.06,289.00 688.20,180.77 688.39,213.28 688.59,168.10 688.74,232.33 688.81,224.65 688.85,281.90 688.97,190.67 689.15,259.51 689.35,288.81 689.52,266.99 689.61,279.78 689.63,183.25 689.74,239.31 689.92,244.65 690.12,240.31 690.29,376.99 690.40,342.55 690.42,290.07 690.52,168.29 690.69,271.18 690.89,208.47 691.07,319.12 691.18,388.12 691.21,352.11 691.29,270.65 691.46,213.67 691.65,310.69 691.84,175.91 691.97,323.09 692.00,249.76 692.07,194.47 692.22,127.94 692.42,322.81 692.61,329.28 692.75,150.34 692.80,165.61 692.85,168.89 692.99,365.01 693.19,269.40 693.38,184.63 693.53,332.14 693.59,350.90 693.63,184.33 693.76,235.35 693.95,281.06 694.15,217.58 694.31,285.49 694.38,153.61 694.41,223.69 694.54,262.66 694.72,183.16 694.92,339.87 695.09,294.00 695.17,229.45 695.20,212.85 695.31,218.14 695.48,284.99 695.69,172.09 695.86,180.91 695.96,251.76 695.99,214.16 696.08,283.07 696.25,270.68 696.45,290.36 696.63,209.02 696.75,212.81 696.78,237.20 696.86,160.43 697.02,222.64 697.22,274.41 697.41,335.55 697.53,159.43 697.57,249.16 697.64,324.08 697.79,257.87 697.99,223.72 698.18,316.13 698.32,302.51 698.37,287.81 698.42,266.80 698.56,322.30 698.75,195.90 698.95,264.58 699.10,201.70 699.16,235.36 699.20,331.79 699.33,210.79 699.52,205.70 699.72,352.45 699.88,233.09 699.95,214.28 699.98,276.77 700.10,291.46 700.28,204.62 700.48,219.14 700.65,157.79 700.74,172.53 700.77,264.84 700.87,317.49 701.05,305.49 701.25,218.83 701.43,280.39 701.53,264.71 701.56,290.52 701.65,200.28 701.82,204.59 702.02,202.62 702.20,259.48 702.32,267.41 702.35,352.73 702.43,287.99 702.58,255.51 702.78,293.50 702.97,266.37 703.10,250.82 703.14,215.62 703.20,225.79 703.35,345.67 703.55,336.12 703.74,255.35 703.88,341.54 703.93,362.27 703.98,223.67 704.12,222.04 704.31,325.63 704.51,221.50 704.66,287.16 704.73,189.13 704.77,163.41 704.89,393.94 705.08,217.85 705.28,288.93 705.44,252.87 705.52,187.42 705.55,283.69 705.66,309.49 705.85,231.95 706.05,237.44 706.22,171.68 706.31,146.73 706.34,363.96 706.44,276.83 706.61,331.40 706.81,266.27 706.99,231.50 707.10,251.11 707.13,227.15 707.21,241.52 707.38,266.63 707.58,228.48 707.77,223.81 707.89,266.39 707.92,371.12 707.99,225.33 708.15,190.79 708.35,294.84 708.54,224.12 708.67,313.97 708.71,346.83 708.77,384.94 708.92,247.87 709.12,263.57 709.31,244.63 709.45,203.01 709.50,378.79 709.55,340.05 709.69,260.08 709.88,236.78 710.08,341.43 710.23,186.57 710.30,166.54 710.33,294.22 710.46,313.60 710.65,358.66 710.85,340.10 711.01,182.85 711.09,359.66 711.12,253.19 711.23,263.59 711.41,294.64 711.61,289.63 711.78,265.66 711.88,237.62 711.90,212.68 712.01,309.01 712.18,257.90 712.38,287.01 712.56,304.63 712.67,365.00 712.69,299.36 712.78,291.08 712.94,381.64 713.15,360.98 713.33,251.74 713.45,328.45 713.49,279.51 713.56,279.69 713.71,287.38 713.91,285.20 714.10,203.95 714.24,240.15 714.28,237.55 714.34,222.06 714.48,265.51 714.68,331.17 714.87,280.86 715.02,283.17 715.07,280.95 715.12,280.97 715.25,230.52 715.44,210.95 715.64,170.98 715.80,161.18 715.87,271.30 715.90,199.72 716.02,258.61 716.21,370.57 716.41,269.55 716.57,358.42 716.66,318.17 716.69,244.67 716.80,178.41 716.98,302.48 717.18,296.16 717.35,242.68 717.45,195.37 717.47,345.19 717.57,290.17 717.74,213.04 717.94,303.03 718.12,313.75 718.24,254.77 718.26,168.28 718.35,225.49 718.51,214.93 718.71,217.41 718.90,305.49 719.02,267.60 719.05,262.12 719.12,204.54 719.28,211.21 719.48,290.80 719.67,235.29 719.80,197.74 719.85,376.46 719.90,273.04 720.05,189.68 720.24,313.43 720.44,283.26 720.58,345.91 720.64,249.96 720.69,253.31 720.82,296.30 721.01,357.69 721.21,324.56 721.36,255.23 721.44,230.05 721.47,273.87 721.59,284.86 721.77,180.42 721.97,217.43 722.14,245.33 722.23,199.99 722.25,305.89 722.36,291.17 722.54,185.88 722.74,188.13 722.92,218.01 723.02,341.46 723.04,219.23 723.14,362.69 723.31,295.32 723.51,234.31 723.69,205.51 723.80,280.02 723.83,245.78 723.91,289.17 724.08,233.49 724.28,301.01 724.46,338.26 724.59,229.97 724.62,280.60 724.69,351.72 724.84,225.09 725.04,207.76 725.23,247.44 725.37,230.44 725.42,165.96 725.47,213.07 725.61,268.03 725.81,273.13 726.00,178.03 726.15,241.12 726.21,309.89 726.25,282.99 726.38,246.27 726.57,234.77 726.77,231.26 726.93,312.27 727.01,187.25 727.04,336.87 727.16,297.74 727.34,205.75 727.54,225.77 727.71,192.78 727.80,390.09 727.82,220.17 727.93,210.31 728.10,182.41 728.31,278.19 728.48,267.96 728.58,205.90 728.61,317.11 728.70,305.61 728.87,319.87 729.07,282.29 729.25,325.90 729.37,286.46 729.40,253.84 729.48,223.64 729.64,248.81 729.84,163.30 730.03,186.23 730.16,216.93 730.19,336.90 730.26,177.73 730.41,261.22 730.61,227.38 730.80,190.96 730.94,228.33 730.99,185.82 731.04,253.01 731.18,214.21 731.37,265.08 731.57,243.55 731.72,147.66 731.78,193.11 731.82,369.23 731.95,390.11 732.14,275.79 732.34,317.20 732.50,294.37 732.57,253.71 732.60,327.25 732.72,200.53 732.90,224.57 733.10,215.03 733.27,308.10 733.36,258.85 733.39,207.26 733.49,217.00 733.67,264.13 733.87,184.29 734.05,279.34 734.15,304.30 734.18,286.46 734.27,384.40 734.44,191.72 734.64,253.32 734.82,294.04 734.94,199.21 734.97,270.25 735.05,365.08 735.21,265.81 735.40,304.85 735.59,206.36 735.72,249.84 735.76,321.85 735.82,276.06 735.97,316.85 736.17,311.17 736.36,216.85 736.50,329.41 736.56,315.11 736.61,248.80 736.74,248.82 736.94,275.67 737.13,377.30 737.28,222.44 737.35,326.20 737.39,350.20 737.51,264.11 737.70,244.86 737.90,260.30 738.06,344.33 738.14,328.89 738.17,205.79 738.29,195.93 738.47,269.49 738.67,197.42 738.84,314.75 738.93,301.95 738.96,257.51 739.06,241.38 739.23,215.63 739.44,212.12 739.61,264.87 739.72,269.53 739.75,357.03 739.83,208.76 740.00,190.20 740.20,226.53 740.39,254.15 740.51,299.06 740.54,285.49 740.61,243.94 740.77,300.26 740.97,232.05 741.16,188.78 741.29,205.75 741.33,241.45 741.39,382.08 741.54,220.00 741.73,238.41 741.93,326.11 742.07,222.82 742.13,318.42 742.17,296.58 742.31,255.85 742.50,236.75 742.70,212.71 742.85,279.60 742.92,281.38 742.95,292.70 743.08,294.08 743.26,247.40 743.47,317.48 743.63,370.00 743.71,345.25 743.74,186.79 743.85,390.55 744.03,280.06 744.23,333.84 744.40,259.10 744.50,326.90 744.53,281.35 744.63,314.55 744.80,198.47 745.00,280.39 745.18,279.33 745.29,374.92 745.32,305.88 745.40,212.12 745.57,285.60 745.77,224.52 745.95,360.99 746.07,333.96 746.11,243.19 746.18,337.01 746.33,242.07 746.53,205.21 746.72,251.15 746.86,188.06 746.90,263.96 746.96,296.43 747.10,275.24 747.30,211.58 747.49,334.70 747.64,192.25 747.70,333.66 747.74,295.59 747.87,218.00 748.06,241.66 748.26,269.39 748.42,330.71 748.49,213.37 748.52,362.59 748.65,350.02 748.83,331.11 749.03,257.93 749.19,281.54 749.28,358.52 749.31,192.21 749.42,186.47 749.60,207.34 749.80,225.22 749.97,189.05 750.07,273.87 750.09,227.11 750.19,164.14 750.36,241.68 750.56,255.68 750.74,322.91 750.86,175.56 750.88,255.75 750.97,258.86 751.13,211.11 751.33,216.94 751.52,188.58 751.64,276.22 751.68,262.08 751.75,323.76 751.90,198.75 752.10,195.14 752.29,191.60 752.42,193.68 752.47,183.32 752.52,331.14 752.67,270.78 752.86,320.85 753.06,182.37 753.21,198.18 753.26,231.67 753.31,328.62 753.44,219.82 753.63,258.28 753.83,301.13 753.98,197.29 754.06,242.18 754.09,271.69 754.21,170.00 754.39,275.91 754.60,230.46 754.76,222.65 754.85,346.66 754.88,235.26 754.98,283.44 755.16,227.83 755.36,219.82 755.54,294.22 755.64,320.96 755.66,215.43 755.76,314.42 755.93,192.14 756.13,299.24 756.31,250.59 756.42,299.83 756.45,137.00 756.53,334.02 756.69,227.95 756.90,282.78 757.08,257.34 757.21,205.34 757.24,213.28 757.31,341.90 757.46,268.20 757.66,300.27 757.85,315.42 757.99,187.42 758.04,216.15 758.09,350.73 758.23,231.03 758.43,238.39 758.62,262.13 758.77,345.77 758.83,163.10 758.87,320.37 759.00,206.31 759.19,204.57 759.39,312.67 759.55,170.35 759.63,267.53 759.66,245.92 759.78,184.37 759.96,164.11 760.16,179.15 760.33,300.03 760.42,310.11 760.44,194.80 760.55,123.94 760.73,258.05 760.93,373.49 761.10,215.97 761.21,172.53 761.23,243.90 761.32,380.38 761.49,392.11 761.69,236.68 761.88,251.08 761.99,231.68 762.02,198.30 762.10,285.85 762.26,244.38 762.46,233.06 762.65,284.19 762.78,286.08 762.81,212.53 762.88,230.44 763.03,259.25 763.23,242.23 763.42,208.39 763.56,271.57 763.61,285.96 763.66,219.54 763.80,275.56 763.99,282.31 764.19,368.13 764.34,221.52 764.40,269.41 764.44,228.45 764.57,224.96 764.76,188.50 764.96,279.76 765.12,182.98 765.20,308.81 765.23,245.11 765.34,132.55 765.52,287.71 765.72,313.65 765.89,345.17 765.99,217.78 766.01,213.89 766.11,202.04 766.29,242.01 766.49,215.24 766.67,263.62 766.77,173.41 766.80,238.97 766.89,290.78 767.06,335.08 767.26,227.19 767.44,225.29 767.56,337.25 767.59,308.98 767.67,243.71 767.82,254.81 768.03,159.14 768.21,143.73 768.34,268.64 768.38,316.18 768.45,220.93 768.59,312.42 768.79,217.78 768.98,261.99 769.13,342.07 769.18,312.17 769.23,333.89 769.36,168.54 769.56,190.30 769.75,182.22 769.90,217.83 769.97,362.07 770.01,308.93 770.13,265.80 770.32,211.72 770.52,390.61 770.68,338.76 770.76,214.56 770.79,230.31 770.91,195.67 771.09,282.87 771.29,216.78 771.46,336.39 771.55,247.43 771.58,357.79 771.68,251.05 771.85,312.19 772.06,253.19 772.23,378.18 772.34,388.36 772.37,282.94 772.46,266.09 772.62,217.10 772.82,365.79 773.01,165.84 773.13,370.68 773.16,262.56 773.23,144.06 773.39,212.21 773.59,351.98 773.78,174.56 773.91,307.84 773.95,203.38 774.01,263.78 774.16,262.29 774.35,318.77 774.55,307.04 774.69,340.73 774.75,199.72 774.79,290.57 774.93,197.35 775.12,230.88 775.32,196.55 775.47,258.85 775.54,317.04 775.58,183.78 775.70,280.34 775.89,257.86 776.09,322.42 776.25,265.70 776.33,289.17 776.36,362.88 776.47,288.05 776.65,331.08 776.85,254.03 777.03,321.38 777.12,272.25 777.15,344.60 777.25,263.15 777.42,363.73 777.62,239.37 777.80,371.28 777.91,244.42 777.94,284.97 778.02,370.78 778.19,276.76 778.39,233.83 778.57,247.59 778.70,301.52 778.73,273.82 778.80,189.53 778.96,305.81 779.15,182.80 779.34,276.89 779.48,193.94 779.52,362.33 779.58,236.70 779.72,189.64 779.92,327.70 780.11,296.11 780.26,332.99 780.32,338.92 780.36,229.48 780.49,290.99 780.68,225.42 780.88,190.14 781.04,226.50 781.11,275.66 781.14,263.39 781.27,335.99 781.45,332.08 781.65,263.69 781.82,358.75 781.90,310.73 781.93,210.84 782.04,216.77 782.22,333.51 782.42,325.47 782.59,215.40 782.69,285.11 782.72,291.64 782.81,230.68 782.98,192.84 783.19,297.72 783.37,211.15 783.48,256.82 783.51,198.82 783.59,244.06 783.75,324.67 783.95,246.06 784.14,318.71 784.26,253.59 784.30,219.09 784.37,186.32 784.52,207.46 784.72,318.62 784.91,312.80 785.05,156.78 785.09,272.88 785.15,306.13 785.29,226.69 785.48,301.90 785.68,206.09 785.83,315.98 785.89,311.39 785.93,399.87 786.06,351.65 786.25,229.85 786.45,250.78 786.61,190.06 786.68,284.78 786.71,268.99 786.83,317.93 787.01,231.58 787.22,235.08 787.38,229.74 787.47,189.03 787.50,301.74 787.60,175.20 787.78,258.64 787.98,171.79 788.16,229.47 788.26,279.85 788.28,141.77 788.38,184.33 788.55,171.22 788.75,287.97 788.93,334.90 789.05,210.39 789.07,360.93 789.15,242.97 789.32,332.77 789.52,264.85 789.70,200.62 789.83,284.85 789.87,299.35 789.93,264.35 790.08,263.39 790.28,215.17 790.48,223.58 790.61,196.36 790.66,290.65 790.71,306.77 790.85,203.20 791.05,208.41 791.24,338.69 791.39,246.59 791.46,209.13 791.49,149.79 791.62,193.62 791.81,279.51 792.01,297.45 792.17,219.87 792.25,259.33 792.28,242.91 792.40,274.04 792.58,287.59 792.78,217.72 792.95,301.67 793.04,203.20 793.06,198.68 793.17,240.61 793.35,217.05 793.55,189.75 793.72,263.14 793.83,268.89 793.85,145.37 793.94,335.72 794.11,169.63 794.31,225.45 794.50,288.51 794.61,266.05 794.64,321.40 794.72,283.24 794.88,262.93 795.08,191.20 795.27,354.40 795.40,247.65 795.44,215.76 795.50,175.63 795.65,300.44 795.85,236.32 796.04,232.93 796.18,248.61 796.23,175.77 796.28,167.73 796.42,280.77 796.61,191.36 796.81,145.70 796.96,302.11 797.03,240.32 797.06,211.54 797.19,273.25 797.38,278.84 797.58,222.83 797.74,266.74 797.82,218.13 797.85,293.25 797.96,308.91 798.14,324.12 798.35,262.06 798.51,223.56 798.61,359.91 798.63,246.35 798.74,186.51 798.91,278.97 799.11,273.57 799.29,216.06 799.40,214.67 799.42,246.41 799.51,207.90 799.68,200.71 799.88,268.38 800.06,214.76 800.18,256.13 800.21,324.89 800.29,221.25 800.44,206.29 800.64,367.05 800.83,250.71 800.96,366.80 801.01,281.20 801.07,275.46 801.21,318.53 801.41,322.89 801.60,275.32 801.75,335.92 801.80,282.27 801.85,307.78 801.98,277.69 802.18,254.29 802.37,141.95 802.53,209.21 802.59,250.10 802.63,253.35 802.76,284.65 802.94,243.43 803.14,229.07 803.30,312.27 803.39,276.22 803.41,229.35 803.53,211.19 803.71,296.08 803.91,360.85 804.08,181.74 804.18,194.96 804.20,282.15 804.30,204.44 804.48,230.24 804.68,206.22 804.85,352.58 804.96,313.74 804.99,317.86 805.08,236.02 805.24,298.92 805.44,273.59 805.63,359.10 805.75,300.74 805.78,181.09 805.85,388.27 806.01,226.83 806.21,193.24 806.40,185.71 806.53,175.32 806.57,188.65 806.63,188.94 806.78,217.23 806.98,235.17 807.17,189.09 807.31,168.83 807.37,392.87 807.41,384.90 807.55,327.79 807.74,313.80 807.94,201.66 808.09,239.95 808.16,297.67 808.20,192.94 808.32,211.07 808.51,198.79 808.71,354.81 808.87,260.14 808.96,239.38 808.98,238.57 809.09,259.90 809.27,313.90 809.47,364.12 809.65,245.83 809.74,195.80 809.77,283.05 809.87,309.73 810.04,281.78 810.24,272.49 810.42,177.09 810.53,246.39 810.56,296.21 810.64,285.32 810.81,284.70 811.01,253.00 811.19,257.55 811.32,262.16 811.35,274.01 811.42,204.54 811.57,190.14 811.77,181.18 811.96,300.24 812.10,364.08 812.14,175.26 812.20,189.48 812.34,319.82 812.54,306.05 812.73,154.05 812.88,261.19 812.94,258.94 812.98,269.74 813.12,274.07 813.30,338.35 813.50,343.39 813.66,230.97 813.73,210.27 813.76,247.83 813.89,204.69 814.07,200.40 814.27,236.53 814.44,189.71 814.52,307.37 814.55,371.58 814.66,318.16 814.84,211.35 815.04,308.67 815.21,323.11 815.31,334.84 815.34,317.54 815.43,272.51 815.60,201.32 815.81,214.96 815.99,276.55 816.10,310.82 816.13,245.87 816.21,258.60 816.37,368.81 816.57,269.27 816.76,189.99 816.88,316.15 816.92,343.93 816.99,310.88 817.14,322.76 817.34,243.65 817.53,271.78 817.67,198.73 817.71,295.97 817.77,194.26 817.91,297.16 818.10,193.27 818.30,199.92 818.45,204.20 818.51,379.47 818.55,125.42 818.68,256.43 818.87,123.37 819.07,98.40 819.23,300.77 819.30,202.95 819.33,246.36 819.45,305.79 819.64,218.15 819.84,276.26 820.00,358.11 820.09,331.42 820.12,195.16 820.22,305.14 820.40,222.90 820.60,314.19 820.78,225.09 820.88,403.68 820.91,281.79 821.00,255.48 821.17,311.18 821.37,297.95 821.55,225.87 821.67,253.42 821.70,280.21 821.78,265.50 821.94,194.01 822.14,194.70 822.32,306.42 822.45,320.61 822.49,211.60 822.55,314.51 822.71,187.30 822.90,329.17 823.09,156.91 823.23,341.37 823.28,285.26 823.33,186.96 823.48,273.26 823.67,236.02 823.87,263.78 824.01,221.86 824.08,277.00 824.12,263.20 824.24,363.64 824.43,256.28 824.63,228.39 824.79,303.86 824.87,255.21 824.90,268.46 825.02,299.30 825.20,171.62 825.40,173.35 825.57,176.46 825.66,205.68 825.69,224.19 825.79,183.06 825.97,322.27 826.17,405.77 826.34,223.55 826.45,263.42 826.47,166.36 826.57,211.55 826.73,356.00 826.94,346.71 827.12,318.04 827.24,198.73 827.27,253.83 827.34,247.06 827.50,292.85 827.70,181.35 827.89,270.10 828.02,284.87 828.06,248.45 828.12,280.78 828.27,217.46 828.47,186.43 828.66,295.75 828.80,237.01 828.85,217.82 828.90,226.79 829.04,331.93 829.23,185.62 829.43,308.00 829.58,240.67 829.65,333.85 829.68,290.18 829.81,299.81 830.00,276.15 830.20,248.13 830.36,240.22 830.44,238.33 830.47,323.69 830.58,167.33 830.77,179.77 830.97,162.53 831.14,239.30 831.23,223.48 831.25,264.38 831.36,316.72 831.53,258.48 831.73,201.12 831.91,210.18 832.02,372.92 832.04,368.34 832.13,255.41 832.30,130.13 832.50,104.22 832.68,114.12 832.80,125.94 832.83,284.33 832.91,189.93 833.07,183.04 833.26,268.29 833.45,223.25 833.59,248.50 833.63,302.87 833.69,299.09 833.83,420.61 834.03,204.38 834.23,299.25 834.37,281.29 834.42,211.19 834.47,261.22 834.60,206.26 834.80,315.51 834.99,200.75 835.15,211.43 835.22,329.72 835.25,245.98 835.38,343.28 835.56,289.78 835.76,358.75 835.93,196.55 836.01,320.15 836.04,143.64 836.15,279.28 836.33,218.76 836.53,174.78 836.70,361.78 836.80,282.84 836.82,223.87 836.92,367.98 837.09,211.37 837.30,340.30 837.48,240.84 837.59,180.69 837.61,360.81 837.70,392.93 837.86,315.36 838.06,291.89 838.25,279.87 838.37,234.49 838.40,302.21 838.48,196.61 838.63,211.88 838.83,247.62 839.02,176.13 839.15,230.81 839.20,185.40 839.25,240.07 839.40,277.02 839.60,250.72 839.79,221.25 839.93,157.81 839.99,240.71 840.03,155.53 840.17,208.14 840.36,255.49 840.56,175.66 840.71,247.02 840.79,212.21 840.82,234.34 840.94,330.78 841.13,255.11 841.33,278.00 841.49,185.81 841.58,161.45 841.60,211.99 841.71,226.71 841.89,249.89 842.10,186.53 842.27,303.21 842.37,364.91 842.39,331.92 842.49,189.42 842.66,214.84 842.86,303.09 843.04,285.09 843.15,299.23 843.18,226.74 843.26,201.98 843.43,326.80 843.63,309.39 843.81,185.21 843.94,304.77 843.97,276.77 844.04,355.09 844.19,346.88 844.39,335.57 844.59,210.78 844.72,167.08 844.77,227.90 844.82,313.58 844.96,178.34 845.16,233.49 845.35,224.16 845.50,322.20 845.56,243.83 845.60,302.96 845.74,263.91 845.93,228.62 846.12,139.06 846.28,222.89 846.35,216.67 846.39,321.75 846.51,277.39 846.69,188.63 846.89,208.26 847.06,233.36 847.15,170.08 847.17,267.67 847.28,208.02 847.46,242.39 847.66,295.18 847.83,205.87 847.93,198.57 847.96,157.24 848.05,172.29 848.22,226.29 848.42,262.81 848.61,248.21 848.72,156.10 848.75,227.35 848.83,277.14 848.99,305.65 849.19,360.49 849.38,271.24 849.50,194.83 849.54,329.68 849.61,281.66 849.76,303.59 849.96,271.01 850.15,292.30 850.29,235.30 850.34,220.40 850.39,196.82 850.53,225.39 850.72,234.97 850.92,219.70 851.07,302.67 851.13,341.17 851.17,237.58 851.30,249.70 851.49,249.39 851.69,310.35 851.85,351.52 851.92,167.18 851.95,143.72 852.07,264.28 852.26,323.73 852.46,208.26 852.62,196.23 852.71,195.90 852.74,325.83 852.84,268.74 853.02,271.40 853.22,260.10 853.40,323.92 853.50,315.53 853.53,234.18 853.62,229.84 853.79,299.57 853.99,244.77 854.17,182.28 854.29,268.91 854.32,287.28 854.40,280.14 854.56,254.21 854.76,270.52 854.95,327.48 855.07,381.72 855.11,230.45 855.18,198.21 855.32,232.63 855.52,219.27 855.71,314.63 855.85,206.32 855.90,235.88 855.95,166.02 856.10,268.33 856.29,328.46 856.48,323.29 856.64,265.53 856.70,184.75 856.74,343.00 856.87,335.59 857.05,389.45 857.25,224.11 857.41,300.15 857.49,235.71 857.52,156.14 857.64,184.36 857.82,231.01 858.02,305.04 858.19,214.21 858.28,238.64 858.31,175.62 858.41,268.15 858.59,353.51 858.79,279.98 858.96,224.68 859.07,361.69 859.10,213.42 859.19,181.13 859.35,295.16 859.55,206.97 859.74,238.31 859.86,235.22 859.89,222.02 859.96,205.37 860.12,163.26 860.32,258.31 860.51,238.19 860.64,321.31 860.68,246.34 860.74,195.69 860.89,178.05 861.09,267.80 861.28,323.94 861.42,224.97 861.47,277.21 861.52,317.11 861.66,266.33 861.85,189.64 862.05,208.38 862.20,340.50 862.27,303.27 862.30,224.01 862.43,192.73 862.62,327.68 862.82,299.07 862.98,270.30 863.06,201.17 863.09,225.37 863.20,215.42 863.38,209.09 863.58,221.61 863.76,256.24 863.85,342.69 863.88,168.16 863.98,251.73 864.15,202.90 864.35,318.02 864.53,301.65 864.64,229.08 864.66,223.24 864.75,247.57 864.92,235.46 865.12,195.65 865.30,298.10 865.42,277.18 865.46,216.94 865.53,281.02 865.69,156.92 865.89,237.36 866.07,219.13 866.21,269.59 866.25,235.54 866.31,187.70 866.46,275.23 866.65,340.59 866.85,374.48 866.99,289.91 867.04,262.58 867.09,272.67 867.23,278.66 867.42,217.22 867.62,235.06 867.77,292.51 867.84,271.96 867.87,273.98 868.00,293.26 868.18,195.89 868.38,147.35 868.55,248.02 868.63,273.40 868.66,235.52 868.77,347.38 868.95,259.44 869.15,253.21 869.32,252.05 869.42,255.24 869.44,350.62 869.54,242.95 869.71,207.76 869.92,218.68 870.10,214.98 870.21,248.20 870.23,206.83 870.32,290.27 870.48,192.20 870.68,183.42 870.87,303.70 870.99,260.77 871.02,334.20 871.10,330.98 871.25,302.66 871.45,193.20 871.64,315.24 871.77,207.79 871.82,229.64 871.88,172.01 872.02,193.95 872.21,303.67 872.41,238.51 872.56,273.26 872.61,324.92 872.66,263.28 872.79,320.70 872.98,309.06 873.18,348.48 873.33,397.99 873.41,294.02 873.44,274.53 873.56,234.82 873.75,197.27 873.95,199.33 874.11,318.14 874.20,240.26 874.22,252.23 874.33,189.29 874.51,152.15 874.71,334.15 874.89,237.07 874.99,179.76 875.01,338.41 875.11,383.86 875.28,330.61 875.48,195.70 875.66,330.69 875.77,227.49 875.80,339.92 875.88,268.53 876.05,170.42 876.25,252.75 876.43,223.67 876.56,203.94 876.59,261.40 876.66,332.02 876.82,195.99 877.01,235.58 877.21,243.15 877.34,175.05 877.39,249.19 877.44,222.88 877.59,379.88 877.78,204.01 877.98,244.61 878.12,311.47 878.18,297.27 878.22,241.81 878.35,305.83 878.55,255.82 878.75,348.17 878.90,251.83 878.98,207.56 879.01,300.41 879.13,258.50 879.31,348.92 879.51,185.34 879.68,223.85 879.77,239.36 879.79,258.33 879.90,215.41 880.08,350.06 880.28,277.88 880.45,331.40 880.56,345.73 880.58,242.74 880.68,231.42 880.84,218.32 881.05,225.02 881.23,261.57 881.34,207.56 881.37,185.10 881.45,281.27 881.61,326.47 881.81,227.29 882.00,263.48 882.13,190.27 882.16,295.92 882.23,145.27 882.38,243.47 882.58,297.85 882.77,188.65 882.91,201.29 882.96,263.85 883.01,182.30 883.15,204.27 883.34,310.14 883.54,280.75 883.69,259.19 883.75,249.62 883.79,328.31 883.92,282.14 884.11,310.02 884.31,345.55 884.47,334.13 884.54,369.19 884.57,315.62 884.69,228.55 884.88,175.20 885.08,229.67 885.25,194.02 885.34,212.71 885.36,343.06 885.47,205.13 885.64,185.45 885.84,258.59 886.02,247.85 886.12,197.87 886.15,233.27 886.24,225.93 886.41,248.40 886.61,227.48 886.79,265.23 886.91,198.91 886.94,265.10 887.02,247.54 887.18,387.34 887.38,319.60 887.57,311.62 887.69,400.53 887.73,267.84 887.75,298.06 887.80,353.79 887.87,285.24 887.94,285.26 887.98,339.92 888.00,370.46" fill="none" stroke="#000" stroke-width="1.5" opacity="0.9"/>
<text x="500.0" y="502" font-family="Times New Roman" font-size="19" text-anchor="middle">Julian Date</text>
<text transform="translate(18,247.0) rotate(-90)" font-family="Times New Roman" font-size="19" text-anchor="middle">position residual (km)</text>
</svg>
