<svg xmlns="http://www.w3.org/2000/svg" width="920" height="520" viewBox="0 0 920 520">
<rect width="100%" height="100%" fill="white"/>
<text x="460.0" y="24" font-family="Times New Roman" font-size="24" text-anchor="middle">Venus native velocity residual</text>
<line x1="112" y1="434" x2="888" y2="434" stroke="#333"/>
<line x1="112" y1="60" x2="112" y2="434" stroke="#333"/>
<line x1="112" y1="434.00" x2="888" y2="434.00" stroke="#ddd"/>
<text x="104" y="438.00" font-family="Times New Roman" font-size="17" text-anchor="end">0</text>
<line x1="112" y1="340.50" x2="888" y2="340.50" stroke="#ddd"/>
<text x="104" y="344.50" font-family="Times New Roman" font-size="17" text-anchor="end">0.6947</text>
<line x1="112" y1="247.00" x2="888" y2="247.00" stroke="#ddd"/>
<text x="104" y="251.00" font-family="Times New Roman" font-size="17" text-anchor="end">1.389</text>
<line x1="112" y1="153.50" x2="888" y2="153.50" stroke="#ddd"/>
<text x="104" y="157.50" font-family="Times New Roman" font-size="17" text-anchor="end">2.084</text>
<line x1="112" y1="60.00" x2="888" y2="60.00" stroke="#ddd"/>
<text x="104" y="64.00" font-family="Times New Roman" font-size="17" text-anchor="end">2.779</text>
<line x1="112.00" y1="434" x2="112.00" y2="439" stroke="#333"/>
<text x="112.00" y="456" font-family="Times New Roman" font-size="17" text-anchor="middle">2378495</text>
<line x1="306.00" y1="434" x2="306.00" y2="439" stroke="#333"/>
<text x="306.00" y="456" font-family="Times New Roman" font-size="17" text-anchor="middle">2433282</text>
<line x1="500.00" y1="434" x2="500.00" y2="439" stroke="#333"/>
<text x="500.00" y="456" font-family="Times New Roman" font-size="17" text-anchor="middle">2488070</text>
<line x1="694.00" y1="434" x2="694.00" y2="439" stroke="#333"/>
<text x="694.00" y="456" font-family="Times New Roman" font-size="17" text-anchor="middle">2542858</text>
<line x1="888.00" y1="434" x2="888.00" y2="439" stroke="#333"/>
<text x="888.00" y="456" font-family="Times New Roman" font-size="17" text-anchor="middle">2597645</text>
<polyline points="112.00,339.29 112.05,387.56 112.18,408.57 112.37,395.86 112.56,407.70 112.70,394.93 112.76,376.16 112.80,383.36 112.93,417.40 113.12,395.63 113.32,409.39 113.48,405.79 113.55,286.51 113.58,383.54 113.70,421.88 113.88,414.62 114.08,411.55 114.25,385.41 114.34,388.00 114.37,371.01 114.47,418.64 114.65,397.32 114.85,408.07 115.03,386.63 115.13,354.70 115.16,369.13 115.25,416.84 115.42,406.06 115.62,422.74 115.80,419.69 115.92,353.30 115.95,411.90 116.03,403.72 116.19,407.88 116.38,389.12 116.57,417.89 116.70,415.94 116.74,316.61 116.80,428.16 116.95,417.50 117.15,411.22 117.34,425.25 117.48,354.03 117.54,312.54 117.58,367.71 117.72,385.54 117.92,395.59 118.11,406.22 118.26,413.41 118.33,312.45 118.37,365.25 118.49,404.93 118.68,414.20 118.88,389.82 119.04,405.00 119.12,262.28 119.15,389.56 119.27,416.06 119.45,411.24 119.65,417.16 119.82,395.88 119.91,377.40 119.94,350.02 120.04,392.36 120.21,400.92 120.42,386.94 120.59,422.73 120.70,365.56 120.73,391.64 120.82,378.61 120.98,381.38 121.18,408.61 121.37,394.13 121.49,381.72 121.52,244.57 121.59,409.94 121.75,415.06 121.95,390.05 122.14,397.30 122.27,405.55 122.31,274.74 122.37,396.68 122.52,372.48 122.71,424.65 122.91,398.79 123.05,366.57 123.11,340.41 123.15,410.59 123.29,402.15 123.48,411.93 123.68,424.96 123.83,399.18 123.90,371.39 123.93,367.73 124.06,400.04 124.25,415.86 124.45,379.16 124.61,402.18 124.69,372.80 124.72,400.65 124.83,407.22 125.01,402.39 125.21,415.19 125.38,413.64 125.48,361.02 125.51,357.90 125.61,406.16 125.78,403.70 125.98,408.64 126.16,382.40 126.27,329.18 126.30,380.60 126.38,422.08 126.55,410.82 126.75,427.21 126.93,402.64 127.05,382.29 127.09,341.60 127.16,427.64 127.31,418.00 127.51,410.35 127.70,398.29 127.84,403.14 127.88,415.96 127.94,354.79 128.08,381.95 128.28,412.90 128.47,414.09 128.62,419.31 128.68,297.82 128.72,409.14 128.85,419.18 129.04,402.77 129.24,411.17 129.40,404.86 129.47,351.78 129.50,397.72 129.63,394.41 129.81,399.99 130.01,406.59 130.17,391.93 130.26,380.53 130.29,421.84 130.40,414.18 130.58,406.10 130.78,409.89 130.95,396.75 131.05,375.81 131.07,404.67 131.17,399.41 131.34,401.97 131.54,404.61 131.73,409.12 131.84,412.98 131.86,350.80 131.95,410.38 132.11,393.03 132.31,404.56 132.50,405.44 132.62,349.74 132.66,398.26 132.73,394.30 132.88,406.89 133.08,407.13 133.27,386.37 133.40,366.69 133.45,279.74 133.50,417.42 133.65,391.70 133.84,392.20 134.04,421.51 134.19,399.23 134.25,289.69 134.29,379.23 134.42,409.96 134.61,398.64 134.81,401.95 134.97,404.45 135.04,343.12 135.07,375.32 135.19,417.48 135.37,422.58 135.58,421.73 135.74,397.34 135.83,317.56 135.86,402.19 135.96,415.98 136.14,387.85 136.34,389.57 136.52,420.05 136.62,376.91 136.64,335.40 136.74,423.12 136.91,396.37 137.11,424.74 137.29,406.90 137.40,361.17 137.43,330.44 137.51,402.07 137.67,398.40 137.88,413.11 138.06,390.09 138.19,356.74 138.23,210.04 138.29,386.07 138.44,385.85 138.64,411.05 138.83,395.04 138.97,385.18 139.02,290.88 139.07,397.71 139.21,424.21 139.41,395.17 139.60,419.28 139.75,380.16 139.81,328.99 139.85,414.67 139.98,406.11 140.17,421.06 140.37,408.29 140.53,400.77 140.61,362.61 140.64,395.90 140.76,393.15 140.94,393.76 141.14,404.62 141.31,402.70 141.40,367.50 141.42,338.36 141.53,394.97 141.71,410.60 141.91,398.29 142.08,389.80 142.19,351.63 142.21,382.41 142.30,389.06 142.47,398.09 142.67,404.62 142.86,403.29 142.97,400.92 143.00,372.91 143.08,375.16 143.24,416.60 143.44,419.09 143.63,408.70 143.76,385.78 143.79,200.17 143.86,374.17 144.01,423.13 144.20,414.95 144.40,399.96 144.54,383.65 144.59,319.76 144.64,405.88 144.78,411.44 144.97,394.57 145.17,416.52 145.32,411.32 145.38,296.34 145.42,366.18 145.55,397.44 145.74,415.53 145.94,402.34 146.10,404.62 146.18,302.17 146.20,374.94 146.32,424.96 146.50,409.56 146.70,420.60 146.87,411.19 146.97,319.07 146.99,387.71 147.10,397.83 147.27,406.89 147.47,396.89 147.65,412.51 147.75,406.92 147.78,332.83 147.87,390.29 148.04,376.61 148.24,413.11 148.42,390.29 148.54,391.29 148.57,382.41 148.65,396.98 148.81,417.35 149.01,407.68 149.19,393.10 149.32,393.99 149.36,393.75 149.43,397.14 149.57,388.33 149.77,409.10 149.96,415.53 150.11,383.58 150.16,317.53 150.21,370.96 150.34,411.63 150.54,405.32 150.73,393.46 150.89,381.56 150.95,206.30 150.99,348.82 151.11,404.86 151.30,415.65 151.50,418.94 151.66,375.04 151.75,371.95 151.77,378.09 151.89,414.66 152.07,420.13 152.27,409.72 152.44,389.88 152.53,385.11 152.56,379.07 152.66,390.20 152.83,390.82 153.04,397.19 153.22,397.09 153.32,379.21 153.35,367.18 153.44,401.42 153.60,418.20 153.80,407.75 153.99,404.47 154.11,394.05 154.14,355.63 154.21,412.40 154.37,402.18 154.57,393.36 154.76,394.26 154.89,403.59 154.93,321.50 154.99,377.81 155.14,390.03 155.33,386.33 155.53,413.55 155.67,382.87 155.73,339.45 155.77,402.85 155.91,408.18 156.10,428.74 156.30,409.84 156.45,418.13 156.52,357.54 156.56,363.32 156.68,407.78 156.87,388.59 157.07,411.81 157.23,398.99 157.31,401.83 157.34,364.36 157.45,412.10 157.63,391.31 157.83,398.81 158.01,387.87 158.10,368.26 158.13,363.60 158.23,410.88 158.40,393.63 158.60,405.99 158.78,401.53 158.89,356.57 158.92,290.79 159.00,373.33 159.17,393.32 159.37,398.39 159.55,377.56 159.68,389.57 159.71,354.70 159.78,380.01 159.94,395.44 160.13,416.34 160.32,406.85 160.46,405.50 160.50,236.62 160.56,370.52 160.70,412.60 160.90,396.31 161.10,415.49 161.24,402.18 161.30,317.45 161.34,363.76 161.47,419.79 161.67,419.00 161.86,394.75 162.02,410.18 162.09,288.05 162.12,361.17 162.25,411.42 162.43,409.59 162.63,408.57 162.80,398.36 162.88,385.44 162.91,371.61 163.02,377.56 163.20,401.81 163.40,385.85 163.57,403.00 163.67,357.29 163.70,322.65 163.79,384.54 163.96,391.53 164.17,410.65 164.35,403.20 164.46,402.72 164.49,363.74 164.57,407.95 164.73,420.05 164.93,392.69 165.12,401.81 165.24,360.86 165.28,332.39 165.35,402.73 165.50,399.10 165.70,419.67 165.89,396.57 166.03,398.72 166.07,333.73 166.13,396.14 166.27,419.83 166.46,393.80 166.66,407.34 166.81,421.13 166.87,285.81 166.91,368.83 167.04,390.50 167.23,423.93 167.43,407.31 167.59,403.50 167.66,251.11 167.69,395.37 167.81,397.20 167.99,407.16 168.20,399.52 168.36,402.13 168.45,384.84 168.48,357.76 168.58,399.11 168.76,395.91 168.96,403.53 169.14,398.24 169.24,326.23 169.26,376.03 169.36,382.73 169.53,417.80 169.73,403.26 169.91,393.21 170.03,372.55 170.05,362.66 170.14,406.04 170.30,413.92 170.50,392.45 170.68,397.21 170.81,397.47 170.85,220.80 170.91,392.28 171.06,394.96 171.26,411.97 171.46,421.50 171.59,360.74 171.64,309.81 171.69,390.40 171.83,398.09 172.03,398.89 172.22,397.19 172.37,408.39 172.44,365.66 172.47,415.73 172.60,414.89 172.79,406.56 172.99,388.38 173.15,379.31 173.23,334.55 173.26,391.13 173.38,407.65 173.56,407.84 173.76,416.15 173.93,398.23 174.02,357.31 174.05,339.53 174.15,404.30 174.33,392.92 174.53,403.48 174.70,373.31 174.81,389.62 174.83,360.17 174.92,416.32 175.09,406.05 175.29,398.67 175.48,414.59 175.59,377.96 175.62,326.85 175.70,394.31 175.86,395.27 176.06,397.76 176.25,412.14 176.38,397.17 176.42,348.74 176.48,384.36 176.63,416.93 176.83,407.22 177.02,424.05 177.16,398.97 177.21,324.74 177.26,360.34 177.40,410.26 177.59,421.42 177.79,385.27 177.94,416.14 178.01,295.92 178.04,374.68 178.17,380.27 178.36,414.43 178.56,408.05 178.72,408.90 178.80,399.97 178.83,413.53 178.94,404.97 179.12,426.56 179.33,406.81 179.49,391.64 179.59,398.18 179.61,384.69 179.72,397.77 179.89,405.20 180.09,416.57 180.27,397.94 180.38,358.99 180.40,335.16 180.49,408.52 180.66,415.15 180.86,401.76 181.04,384.88 181.16,397.44 181.19,330.46 181.27,385.67 181.42,407.35 181.62,417.82 181.82,380.96 181.95,370.47 181.99,289.30 182.05,406.23 182.19,414.10 182.39,385.78 182.58,425.86 182.73,415.32 182.78,320.71 182.83,372.55 182.96,412.53 183.16,420.60 183.35,406.07 183.51,385.63 183.57,224.83 183.61,355.40 183.74,398.87 183.92,389.20 184.12,394.36 184.28,377.86 184.37,357.79 184.39,374.36 184.51,399.69 184.69,404.25 184.89,416.56 185.06,393.70 185.16,311.97 185.18,381.30 185.28,396.83 185.46,403.35 185.66,413.58 185.84,381.52 185.94,402.08 185.97,364.12 186.06,414.52 186.22,404.22 186.42,403.46 186.61,403.44 186.73,387.87 186.76,381.73 186.84,415.53 186.99,411.68 187.19,415.40 187.38,380.43 187.51,418.57 187.55,296.97 187.61,401.63 187.76,407.34 187.96,377.97 188.15,414.14 188.29,384.46 188.35,276.03 188.39,422.29 188.53,420.95 188.72,419.02 188.92,429.05 189.07,418.68 189.14,387.60 189.18,366.50 189.30,406.03 189.49,404.81 189.69,395.97 189.85,366.73 189.94,332.81 189.96,357.61 190.07,404.43 190.25,411.12 190.45,406.85 190.63,393.15 190.72,397.35 190.75,358.22 190.85,399.22 191.02,411.55 191.22,420.06 191.40,415.01 191.51,383.11 191.54,353.74 191.62,384.40 191.79,406.65 191.99,384.37 192.17,405.40 192.30,385.53 192.33,360.77 192.40,395.54 192.56,421.59 192.75,409.25 192.94,404.11 193.08,421.40 193.12,342.01 193.18,406.50 193.32,411.07 193.52,404.74 193.71,407.67 193.86,393.65 193.92,279.58 193.96,412.00 194.10,403.32 194.28,407.34 194.48,399.66 194.64,394.47 194.71,360.70 194.75,363.35 194.87,425.57 195.05,394.33 195.25,394.93 195.42,404.03 195.50,371.71 195.53,384.19 195.64,372.45 195.82,407.41 196.02,405.85 196.19,395.52 196.29,370.38 196.32,354.84 196.41,408.26 196.58,396.71 196.79,417.24 196.97,426.73 197.08,355.87 197.11,347.20 197.19,392.57 197.35,400.73 197.55,421.65 197.74,409.23 197.86,382.87 197.90,274.82 197.97,405.89 198.12,407.05 198.32,415.59 198.51,407.39 198.65,405.15 198.69,185.43 198.75,412.30 198.89,414.05 199.08,425.52 199.28,386.76 199.43,405.95 199.49,308.48 199.53,409.15 199.66,406.29 199.85,414.18 200.05,403.79 200.21,377.58 200.28,324.83 200.31,398.06 200.43,409.21 200.62,423.20 200.82,395.09 200.98,379.04 201.07,357.64 201.10,411.32 201.21,418.46 201.38,384.82 201.58,403.38 201.76,406.31 201.86,341.52 201.89,381.11 201.98,393.89 202.15,403.95 202.35,409.01 202.53,420.19 202.65,387.91 202.68,383.03 202.76,387.05 202.92,389.45 203.12,417.33 203.30,393.57 203.43,404.18 203.47,367.36 203.53,401.91 203.69,398.22 203.88,395.40 204.08,406.35 204.21,392.98 204.26,334.10 204.31,406.62 204.45,410.10 204.65,405.79 204.85,398.38 204.99,392.70 205.06,397.61 205.10,356.75 205.22,410.14 205.41,403.26 205.61,403.73 205.77,394.07 205.85,386.02 205.88,381.13 206.00,412.34 206.18,409.05 206.38,394.60 206.55,412.65 206.64,396.47 206.67,352.87 206.77,379.90 206.95,379.83 207.15,408.49 207.33,413.33 207.43,349.64 207.45,360.26 207.54,422.10 207.71,407.84 207.92,409.15 208.10,422.22 208.22,355.30 208.25,371.85 208.32,384.47 208.48,413.17 208.68,429.83 208.87,393.32 209.00,363.87 209.04,208.37 209.10,374.65 209.25,404.12 209.45,394.60 209.64,424.55 209.78,410.92 209.83,136.84 209.88,380.80 210.02,384.17 210.21,423.53 210.41,411.71 210.56,402.52 210.63,400.39 210.66,411.15 210.79,393.74 210.98,392.51 211.18,409.72 211.34,399.03 211.42,320.36 211.45,374.95 211.56,404.32 211.74,398.24 211.95,411.67 212.12,398.28 212.21,340.15 212.23,395.77 212.34,395.94 212.51,417.36 212.71,416.43 212.89,410.93 213.00,374.25 213.02,340.08 213.11,402.27 213.28,413.01 213.48,402.75 213.66,391.18 213.78,386.70 213.81,344.42 213.89,397.87 214.05,391.26 214.24,412.45 214.44,398.48 214.57,408.68 214.61,382.09 214.67,404.07 214.81,401.54 215.01,410.71 215.21,385.41 215.35,393.26 215.40,360.23 215.45,404.76 215.58,419.80 215.78,416.74 215.97,401.75 216.13,404.53 216.20,428.59 216.23,391.59 216.36,386.52 216.54,401.29 216.74,394.77 216.91,404.29 216.99,395.14 217.02,371.24 217.13,404.84 217.31,408.82 217.51,399.89 217.68,413.50 217.78,344.91 217.80,323.69 217.90,413.43 218.08,415.57 218.28,397.17 218.46,420.05 218.57,377.82 218.59,356.36 218.68,399.38 218.84,388.44 219.04,419.97 219.23,395.74 219.35,372.62 219.38,381.61 219.46,415.06 219.61,415.73 219.81,398.86 220.00,424.43 220.13,407.02 220.18,352.35 220.23,385.40 220.38,412.29 220.58,421.81 220.77,399.32 220.91,414.09 220.97,244.17 221.02,407.32 221.15,411.56 221.34,385.09 221.54,410.14 221.69,392.07 221.77,275.54 221.80,352.24 221.92,405.31 222.11,403.59 222.31,381.26 222.47,379.49 222.56,350.58 222.58,407.97 222.69,398.42 222.87,411.67 223.08,408.77 223.25,398.07 223.35,403.52 223.37,341.13 223.47,405.65 223.64,395.83 223.84,394.84 224.02,418.60 224.13,352.34 224.16,347.09 224.24,413.14 224.41,386.71 224.61,404.30 224.79,386.64 224.92,368.91 224.95,379.42 225.02,403.23 225.17,407.61 225.37,401.70 225.57,389.04 225.70,384.41 225.75,171.74 225.80,399.24 225.94,421.61 226.14,418.97 226.33,397.63 226.48,411.68 226.54,360.45 226.58,390.70 226.72,412.09 226.91,400.11 227.10,422.55 227.26,418.36 227.33,229.27 227.37,404.73 227.49,423.16 227.67,401.19 227.87,401.09 228.04,372.32 228.13,294.47 228.15,390.55 228.26,370.89 228.44,417.51 228.64,404.06 228.81,422.39 228.91,413.83 228.94,328.18 229.03,414.27 229.21,416.48 229.41,413.05 229.59,403.24 229.70,415.73 229.73,308.31 229.81,385.20 229.97,403.74 230.17,420.99 230.36,422.79 230.49,404.77 230.52,263.81 230.59,360.15 230.74,431.26 230.94,397.31 231.13,403.48 231.27,401.51 231.32,252.16 231.37,401.66 231.51,400.45 231.70,400.86 231.90,392.76 232.05,365.29 232.11,297.20 232.15,401.55 232.28,412.88 232.47,404.39 232.67,406.47 232.83,410.09 232.90,297.40 232.93,389.73 233.05,412.82 233.24,424.90 233.44,405.09 233.60,389.62 233.69,368.45 233.72,388.95 233.83,421.41 234.00,420.06 234.20,408.57 234.38,413.40 234.48,393.86 234.51,322.89 234.60,405.28 234.77,407.09 234.97,417.87 235.15,424.44 235.27,358.54 235.30,345.00 235.38,402.83 235.54,411.83 235.74,406.45 235.93,410.85 236.05,408.92 236.09,361.36 236.15,390.06 236.31,413.41 236.50,415.67 236.69,402.62 236.84,408.18 236.89,189.29 236.94,403.73 237.08,412.59 237.27,408.87 237.47,418.78 237.62,381.10 237.68,306.65 237.72,352.39 237.85,407.99 238.03,404.89 238.23,405.33 238.39,414.24 238.47,254.57 238.50,384.65 238.62,401.45 238.80,387.04 239.00,423.58 239.17,389.56 239.26,385.66 239.29,343.05 239.39,419.32 239.57,413.09 239.77,399.55 239.95,416.88 240.05,361.20 240.08,341.25 240.17,393.40 240.33,421.82 240.53,412.90 240.72,395.71 240.84,410.67 240.87,333.92 240.94,399.01 241.10,412.09 241.30,412.20 241.49,426.68 241.62,414.35 241.66,354.18 241.72,408.63 241.87,394.09 242.07,395.86 242.26,410.76 242.40,384.26 242.45,347.04 242.50,390.45 242.64,417.61 242.83,404.32 243.03,409.18 243.18,384.22 243.25,373.81 243.29,374.09 243.41,424.73 243.60,416.12 243.80,398.17 243.96,395.68 244.04,363.61 244.07,404.88 244.18,423.58 244.37,397.17 244.57,401.50 244.74,395.38 244.83,365.38 244.86,313.69 244.96,396.01 245.13,392.33 245.33,417.48 245.51,385.04 245.62,373.12 245.64,331.98 245.73,401.15 245.90,412.83 246.10,409.91 246.28,420.52 246.40,414.90 246.44,237.34 246.51,414.66 246.67,413.35 246.87,400.23 247.05,421.62 247.19,391.73 247.23,323.74 247.29,418.73 247.44,408.69 247.63,396.84 247.83,397.76 247.97,408.75 248.02,228.60 248.07,420.71 248.21,395.78 248.40,409.80 248.60,409.98 248.75,406.89 248.82,336.04 248.85,390.27 248.98,395.65 249.16,407.47 249.36,389.14 249.53,402.50 249.61,382.03 249.64,406.15 249.75,409.08 249.93,396.52 250.13,419.29 250.30,400.41 250.40,378.76 250.42,396.26 250.52,403.34 250.69,416.31 250.90,386.75 251.08,413.21 251.19,398.09 251.21,398.62 251.30,382.43 251.46,393.30 251.66,399.57 251.85,404.74 251.97,409.57 252.00,317.56 252.08,404.79 252.23,414.07 252.43,387.45 252.62,413.89 252.76,418.51 252.80,371.68 252.86,361.32 253.00,388.84 253.19,394.39 253.39,394.36 253.54,403.15 253.59,280.23 253.64,402.23 253.77,408.13 253.96,415.75 254.16,411.12 254.31,418.63 254.39,380.01 254.42,364.33 254.54,416.73 254.73,408.75 254.93,387.88 255.09,422.12 255.18,328.27 255.20,366.92 255.31,402.56 255.49,402.57 255.70,410.58 255.87,416.81 255.97,369.61 255.99,311.34 256.09,418.51 256.26,423.96 256.46,414.83 256.64,391.54 256.75,356.53 256.78,397.41 256.86,425.33 257.03,404.51 257.23,404.04 257.41,411.38 257.54,379.56 257.57,275.26 257.64,416.76 257.80,407.22 257.99,405.89 258.19,414.75 258.32,412.21 258.37,273.37 258.42,383.38 258.56,413.52 258.76,400.15 258.96,425.98 259.10,399.02 259.16,365.68 259.20,392.04 259.34,398.11 259.53,403.37 259.72,409.78 259.88,394.65 259.96,334.59 259.99,383.78 260.11,388.00 260.29,389.95 260.49,406.96 260.66,423.48 260.75,394.64 260.77,358.86 260.88,408.72 261.06,422.08 261.26,417.90 261.43,419.65 261.54,318.86 261.56,345.21 261.65,417.65 261.82,405.50 262.03,425.11 262.21,421.76 262.32,368.86 262.35,366.08 262.43,366.15 262.59,384.41 262.79,404.52 262.98,390.90 263.11,363.07 263.14,328.28 263.21,396.07 263.36,405.11 263.56,422.97 263.75,410.05 263.89,387.75 263.94,271.14 263.99,429.07 264.13,395.47 264.32,396.28 264.52,408.21 264.67,382.62 264.73,374.16 264.77,396.39 264.90,415.72 265.09,399.41 265.29,401.03 265.45,396.73 265.53,371.90 265.55,397.72 265.67,419.29 265.85,413.25 266.06,419.97 266.23,401.18 266.32,369.60 266.34,340.61 266.45,396.63 266.62,412.89 266.82,379.36 267.00,409.87 267.10,318.16 267.13,347.80 267.22,420.73 267.39,409.30 267.59,397.47 267.77,405.60 267.89,412.61 267.92,334.15 268.00,382.50 268.16,427.55 268.36,388.70 268.55,400.48 268.67,377.32 268.71,232.75 268.78,384.45 268.92,393.15 269.12,414.70 269.32,412.68 269.46,401.62 269.51,335.12 269.56,412.60 269.70,417.09 269.89,390.18 270.08,400.56 270.24,414.42 270.30,312.77 270.34,376.39 270.47,407.18 270.66,415.18 270.85,410.67 271.01,393.91 271.09,305.48 271.12,401.55 271.24,431.49 271.42,408.60 271.62,415.39 271.79,422.08 271.88,406.28 271.91,361.13 272.01,382.19 272.19,414.97 272.39,399.29 272.57,400.63 272.67,409.28 272.70,418.67 272.79,388.71 272.95,383.46 273.15,405.28 273.34,397.38 273.46,405.66 273.49,389.69 273.56,405.36 273.72,411.61 273.92,414.08 274.11,403.85 274.24,395.64 274.28,365.92 274.34,419.19 274.49,422.28 274.69,419.90 274.88,395.75 275.02,371.44 275.08,308.60 275.12,371.64 275.26,412.02 275.45,412.70 275.65,388.91 275.80,405.60 275.87,227.44 275.91,375.89 276.03,394.27 276.22,419.51 276.42,398.06 276.58,373.29 276.66,380.80 276.69,383.29 276.80,387.47 276.98,416.73 277.19,405.03 277.36,417.66 277.45,386.69 277.48,371.47 277.58,386.85 277.75,415.39 277.95,411.76 278.13,389.56 278.24,385.65 278.27,414.94 278.35,406.63 278.52,406.18 278.72,398.70 278.90,416.22 279.03,365.09 279.06,271.74 279.13,411.76 279.29,393.60 279.49,419.53 279.68,408.46 279.81,385.83 279.85,323.15 279.91,399.79 280.06,392.57 280.25,414.29 280.45,401.16 280.59,412.59 280.65,301.40 280.69,397.79 280.83,399.21 281.02,414.48 281.22,393.96 281.37,385.09 281.44,380.45 281.47,375.94 281.60,394.41 281.78,413.72 281.98,412.71 282.15,398.29 282.23,351.87 282.26,385.49 282.37,413.55 282.55,399.22 282.75,400.73 282.92,424.34 283.02,369.24 283.05,405.41 283.14,395.45 283.32,386.95 283.52,411.24 283.70,416.91 283.81,348.33 283.83,368.08 283.92,411.46 284.08,422.98 284.28,406.40 284.47,415.34 284.59,371.23 284.63,319.27 284.70,394.87 284.85,381.95 285.05,408.69 285.24,404.08 285.38,383.13 285.42,367.42 285.48,402.35 285.62,417.68 285.82,392.38 286.01,404.86 286.16,368.91 286.22,316.40 286.26,412.83 286.39,426.72 286.58,403.39 286.78,394.45 286.94,397.66 287.01,309.06 287.04,392.17 287.16,399.45 287.35,404.71 287.55,400.41 287.71,376.71 287.80,385.65 287.83,380.90 287.94,408.79 288.11,417.95 288.31,411.59 288.49,394.22 288.59,365.23 288.61,395.53 288.71,411.48 288.88,382.84 289.08,420.23 289.26,412.24 289.38,388.88 289.40,379.18 289.49,428.40 289.65,400.77 289.85,396.97 290.04,405.17 290.16,397.47 290.20,245.01 290.26,391.33 290.42,401.82 290.62,411.65 290.81,412.17 290.94,417.22 290.99,394.81 291.04,396.43 291.19,410.07 291.38,403.38 291.58,418.96 291.72,407.72 291.78,252.49 291.83,359.91 291.96,412.92 292.15,425.25 292.35,407.31 292.50,422.80 292.58,337.31 292.61,394.13 292.73,415.61 292.91,398.94 293.11,403.82 293.28,386.84 293.37,339.22 293.39,343.45 293.50,372.47 293.68,396.93 293.88,393.32 294.05,384.56 294.16,380.56 294.18,369.15 294.28,403.97 294.44,404.21 294.65,396.87 294.83,393.32 294.94,402.88 294.97,344.88 295.05,391.39 295.21,413.64 295.41,403.14 295.60,412.81 295.73,398.26 295.76,383.42 295.83,415.38 295.98,402.46 296.18,418.74 296.37,390.29 296.51,381.05 296.56,300.76 296.61,363.75 296.75,402.10 296.94,398.57 297.14,399.76 297.29,394.57 297.35,287.78 297.39,401.77 297.52,396.59 297.71,419.31 297.91,394.11 298.07,381.72 298.15,368.35 298.18,389.93 298.29,399.64 298.48,417.05 298.68,410.76 298.85,404.64 298.94,346.85 298.96,367.94 299.07,404.37 299.24,416.71 299.44,402.65 299.62,383.19 299.73,388.74 299.75,337.62 299.84,388.04 300.01,413.07 300.21,403.46 300.39,418.89 300.51,381.48 300.54,320.81 300.62,414.53 300.78,413.88 300.98,392.17 301.17,414.34 301.30,373.86 301.33,341.30 301.40,389.92 301.55,392.71 301.74,412.01 301.94,381.68 302.08,393.89 302.13,374.47 302.18,381.97 302.32,420.00 302.51,417.55 302.71,414.58 302.86,413.99 302.92,369.75 302.96,359.72 303.09,403.19 303.27,424.38 303.48,405.27 303.64,415.02 303.72,365.52 303.74,385.77 303.86,387.80 304.04,396.29 304.24,424.57 304.41,406.39 304.51,346.85 304.53,364.08 304.63,414.03 304.81,399.20 305.01,395.39 305.19,406.27 305.29,383.99 305.32,382.58 305.41,420.67 305.57,401.43 305.78,398.35 305.96,413.72 306.08,409.71 306.11,388.49 306.18,382.04 306.34,404.04 306.54,418.23 306.73,395.72 306.86,389.01 306.90,365.11 306.96,378.85 307.11,411.18 307.31,412.33 307.50,406.47 307.64,420.69 307.70,294.18 307.74,394.93 307.88,420.39 308.07,412.84 308.27,412.36 308.42,390.52 308.49,369.52 308.53,388.46 308.65,419.58 308.84,411.59 309.04,427.44 309.20,407.60 309.28,289.71 309.31,413.13 309.42,410.45 309.61,412.06 309.81,414.34 309.98,396.81 310.07,355.57 310.10,325.87 310.20,409.17 310.37,400.72 310.57,409.88 310.75,400.91 310.86,403.91 310.89,373.08 310.97,400.15 311.14,393.91 311.34,420.20 311.52,402.37 311.65,365.73 311.68,371.61 311.75,414.56 311.91,401.40 312.11,419.62 312.30,412.99 312.43,399.36 312.47,271.27 312.53,408.15 312.68,411.49 312.87,408.69 313.07,414.58 313.21,410.63 313.27,327.34 313.31,404.41 313.45,414.12 313.64,406.13 313.83,412.37 313.99,393.54 314.06,378.45 314.09,377.87 314.22,402.66 314.40,404.46 314.60,404.77 314.77,404.31 314.85,334.59 314.88,405.64 314.99,392.79 315.17,420.20 315.37,403.18 315.54,402.89 315.64,372.09 315.67,358.91 315.76,398.82 315.94,408.81 316.14,427.97 316.32,418.26 316.43,423.19 316.46,360.33 316.54,414.71 316.70,413.87 316.90,387.72 317.09,409.78 317.21,385.87 317.25,302.78 317.32,392.90 317.47,417.27 317.67,414.41 317.86,400.48 318.00,400.38 318.04,185.41 318.10,397.55 318.24,403.49 318.44,385.47 318.63,412.68 318.78,375.28 318.84,345.56 318.88,407.77 319.01,423.36 319.20,417.66 319.40,420.86 319.56,411.52 319.63,385.21 319.66,390.61 319.78,420.86 319.97,408.25 320.17,410.30 320.33,420.83 320.42,356.58 320.45,403.09 320.56,386.08 320.73,400.57 320.94,398.61 321.11,400.28 321.21,365.70 321.24,363.99 321.33,400.04 321.50,392.70 321.70,410.72 321.88,395.84 322.00,419.45 322.03,409.98 322.11,415.45 322.27,416.01 322.47,405.27 322.66,407.93 322.78,385.64 322.82,293.54 322.89,396.27 323.04,412.20 323.23,399.79 323.43,399.82 323.56,408.40 323.61,292.85 323.67,407.62 323.81,398.71 324.00,422.69 324.20,408.85 324.34,372.35 324.41,349.29 324.45,352.53 324.58,429.36 324.77,400.50 324.97,412.59 325.12,413.75 325.20,302.23 325.23,347.44 325.35,395.03 325.53,403.06 325.73,403.42 325.90,390.67 325.99,337.39 326.02,383.06 326.12,399.65 326.30,378.62 326.50,419.49 326.68,393.70 326.78,371.24 326.80,369.83 326.90,408.05 327.07,414.19 327.27,429.61 327.45,412.74 327.57,377.13 327.59,384.44 327.67,393.78 327.83,407.15 328.03,404.14 328.22,377.03 328.35,399.64 328.39,168.48 328.45,391.75 328.60,420.79 328.80,390.14 328.99,400.88 329.13,404.29 329.18,382.32 329.23,394.83 329.37,388.38 329.57,411.28 329.76,406.67 329.91,354.84 329.98,268.57 330.01,378.21 330.14,403.74 330.33,393.35 330.53,413.72 330.69,408.83 330.77,333.79 330.80,331.53 330.92,418.81 331.10,409.15 331.30,407.75 331.47,405.46 331.56,352.22 331.58,402.50 331.69,395.19 331.86,389.01 332.07,402.37 332.24,399.81 332.35,404.28 332.37,376.04 332.46,401.45 332.63,425.39 332.83,409.34 333.01,398.52 333.13,382.18 333.16,336.83 333.24,391.97 333.40,413.45 333.60,417.09 333.79,427.22 333.92,375.25 333.96,300.93 334.02,381.94 334.17,397.32 334.36,400.75 334.56,405.52 334.70,411.22 334.75,303.64 334.80,391.40 334.94,390.36 335.13,416.70 335.33,400.77 335.48,393.97 335.55,291.44 335.58,352.93 335.71,414.16 335.89,397.92 336.10,424.09 336.26,401.74 336.34,336.76 336.37,375.08 336.48,417.98 336.66,406.62 336.86,407.09 337.03,399.38 337.13,426.65 337.15,389.95 337.25,386.28 337.43,399.50 337.63,409.84 337.81,411.48 337.92,359.02 337.94,418.48 338.03,411.34 338.20,420.07 338.40,393.74 338.58,405.05 338.70,366.78 338.73,316.77 338.81,392.35 338.96,402.53 339.16,411.26 339.35,412.95 339.48,392.57 339.53,346.19 339.58,379.31 339.73,424.58 339.93,410.73 340.12,408.06 340.27,385.11 340.32,235.56 340.37,358.52 340.50,404.80 340.69,403.83 340.89,423.29 341.05,394.74 341.11,331.77 341.15,361.22 341.27,417.89 341.46,400.51 341.66,402.30 341.82,374.24 341.91,332.67 341.93,398.07 342.05,408.33 342.23,404.58 342.43,394.76 342.60,416.01 342.70,388.00 342.72,310.55 342.82,409.32 342.99,412.00 343.19,393.28 343.37,417.58 343.48,377.60 343.51,327.86 343.60,383.31 343.76,406.01 343.96,402.77 344.15,385.08 344.27,401.92 344.30,330.44 344.37,409.88 344.53,416.14 344.73,398.10 344.92,399.95 345.05,342.88 345.09,255.74 345.15,403.05 345.30,398.22 345.49,415.84 345.69,413.50 345.83,370.85 345.89,279.58 345.93,387.70 346.07,397.51 346.26,401.54 346.46,408.99 346.61,421.72 346.68,317.76 346.72,370.36 346.84,411.44 347.02,418.35 347.23,402.12 347.39,385.64 347.47,275.92 347.50,352.00 347.61,402.36 347.79,407.01 347.99,406.50 348.16,388.47 348.26,373.80 348.29,337.15 348.39,411.42 348.56,411.53 348.76,408.96 348.94,384.23 349.05,349.23 349.08,275.83 349.16,387.66 349.32,404.09 349.53,406.82 349.71,391.01 349.84,379.51 349.87,326.10 349.94,393.10 350.09,405.65 350.29,414.39 350.48,388.97 350.62,388.32 350.66,276.25 350.72,398.26 350.86,398.48 351.06,418.19 351.25,392.97 351.40,397.26 351.46,366.50 351.50,376.75 351.63,406.99 351.82,392.53 352.02,406.84 352.18,404.79 352.25,277.42 352.28,412.50 352.40,409.40 352.59,405.65 352.79,381.85 352.96,391.46 353.04,370.09 353.07,424.29 353.18,404.84 353.36,402.23 353.56,409.10 353.73,383.41 353.83,285.60 353.86,337.58 353.95,389.33 354.12,412.36 354.32,422.67 354.51,401.18 354.62,408.38 354.65,328.46 354.73,394.44 354.89,408.26 355.09,414.43 355.28,392.10 355.40,378.18 355.44,320.46 355.51,411.96 355.66,388.68 355.85,412.10 356.05,417.76 356.19,389.36 356.23,256.19 356.29,408.81 356.43,400.12 356.62,420.73 356.82,406.92 356.97,397.42 357.03,323.10 357.07,388.84 357.20,424.61 357.39,387.40 357.59,413.70 357.74,404.30 357.82,375.62 357.85,413.55 357.97,397.31 358.15,421.58 358.35,392.34 358.52,418.09 358.61,377.70 358.64,368.32 358.74,386.46 358.92,410.12 359.12,409.91 359.30,393.68 359.40,413.09 359.43,355.77 359.52,390.48 359.69,409.15 359.89,405.58 360.07,422.48 360.19,382.78 360.22,338.13 360.29,373.87 360.45,386.56 360.65,396.54 360.84,412.21 360.97,373.80 361.01,311.65 361.07,377.14 361.22,419.93 361.42,411.39 361.61,421.23 361.75,394.44 361.80,314.26 361.85,400.83 361.99,415.17 362.18,416.26 362.38,402.15 362.53,390.31 362.60,341.98 362.64,389.83 362.76,397.52 362.95,401.90 363.15,391.48 363.31,390.03 363.39,366.74 363.42,370.64 363.54,390.86 363.72,411.89 363.92,404.81 364.09,405.03 364.18,379.28 364.21,370.58 364.31,403.60 364.48,416.09 364.69,410.38 364.86,409.85 364.97,363.56 364.99,364.44 365.08,392.63 365.25,398.94 365.45,414.00 365.63,409.14 365.75,370.73 365.78,319.92 365.86,409.52 366.02,390.77 366.22,389.05 366.41,409.48 366.54,426.58 366.58,410.95 366.64,377.88 366.79,406.26 366.98,425.92 367.18,410.03 367.32,413.69 367.37,352.13 367.42,398.83 367.56,415.41 367.75,400.90 367.95,405.43 368.10,385.17 368.17,307.98 368.20,371.28 368.33,389.80 368.52,407.26 368.71,387.83 368.88,385.17 368.96,391.58 368.99,377.88 369.10,407.86 369.28,399.41 369.48,428.07 369.65,393.99 369.75,375.95 369.77,368.58 369.88,413.53 370.05,408.57 370.25,410.58 370.43,420.50 370.54,409.19 370.56,355.98 370.65,402.12 370.82,402.49 371.02,416.49 371.20,416.16 371.32,388.76 371.35,360.11 371.43,393.96 371.58,423.78 371.78,399.95 371.97,399.81 372.10,390.88 372.15,369.49 372.21,404.85 372.35,380.35 372.55,416.15 372.74,414.06 372.89,396.28 372.94,297.91 372.99,378.29 373.12,410.92 373.31,394.20 373.51,401.32 373.67,392.89 373.74,280.43 373.77,380.35 373.89,387.96 374.08,393.34 374.28,405.75 374.44,387.93 374.53,328.71 374.55,412.37 374.67,394.96 374.85,405.01 375.05,402.83 375.22,421.04 375.32,321.86 375.34,343.61 375.44,386.40 375.61,420.45 375.82,406.58 375.99,411.97 376.10,389.21 376.13,330.80 376.22,398.26 376.38,403.88 376.58,403.10 376.77,388.84 376.89,391.74 376.92,332.71 376.99,418.74 377.15,403.02 377.35,406.92 377.54,408.35 377.67,389.29 377.72,345.74 377.77,413.62 377.92,415.00 378.11,415.34 378.31,398.21 378.45,401.37 378.51,330.11 378.55,386.98 378.69,406.76 378.88,390.47 379.08,417.69 379.23,382.66 379.30,316.39 379.34,350.23 379.46,417.20 379.64,401.33 379.85,410.86 380.01,417.35 380.10,399.98 380.12,324.96 380.23,394.83 380.41,396.14 380.61,414.28 380.78,415.61 380.89,373.72 380.91,390.78 381.01,422.17 381.18,406.55 381.38,416.59 381.56,404.27 381.67,400.43 381.70,357.93 381.78,407.91 381.95,416.87 382.14,424.53 382.33,422.27 382.46,354.03 382.49,393.10 382.56,387.06 382.71,426.70 382.91,422.48 383.10,409.54 383.24,380.89 383.29,319.88 383.34,396.76 383.48,386.91 383.68,401.52 383.87,399.47 384.02,376.03 384.08,257.28 384.12,399.34 384.25,408.39 384.44,415.71 384.64,402.74 384.80,392.61 384.87,251.11 384.91,384.96 385.03,406.16 385.21,380.93 385.41,399.65 385.58,418.51 385.66,367.44 385.69,375.03 385.80,414.32 385.98,414.78 386.18,400.91 386.35,402.36 386.45,358.20 386.48,306.90 386.57,406.76 386.74,401.91 386.94,414.83 387.13,395.77 387.24,376.74 387.27,327.60 387.35,412.30 387.51,416.85 387.71,418.37 387.90,404.08 388.02,382.56 388.06,345.08 388.13,379.91 388.28,420.48 388.48,397.89 388.67,419.58 388.81,385.21 388.86,204.56 388.91,379.25 389.05,415.73 389.24,402.38 389.44,422.41 389.59,401.26 389.65,341.91 389.69,410.93 389.82,413.76 390.01,395.51 390.21,403.18 390.37,409.02 390.44,373.77 390.47,343.86 390.59,398.61 390.77,400.69 390.97,416.05 391.14,406.18 391.23,317.21 391.26,348.17 391.36,396.23 391.54,405.88 391.74,388.64 391.92,413.00 392.02,357.07 392.05,401.45 392.14,399.78 392.31,400.34 392.51,413.04 392.69,426.32 392.81,341.88 392.84,354.28 392.92,414.90 393.07,393.51 393.27,411.87 393.46,405.25 393.59,400.44 393.63,398.28 393.69,397.15 393.84,395.20 394.04,423.37 394.23,411.17 394.37,352.90 394.42,372.36 394.47,406.28 394.61,401.85 394.80,385.26 395.00,417.26 395.15,409.34 395.22,304.44 395.26,357.79 395.38,369.20 395.57,408.33 395.77,394.48 395.93,392.14 396.01,381.79 396.04,423.73 396.16,412.34 396.34,398.74 396.54,414.09 396.71,413.24 396.80,362.50 396.83,386.43 396.93,384.40 397.10,396.82 397.31,379.65 397.48,374.25 397.59,368.91 397.62,397.93 397.70,395.86 397.87,384.71 398.07,415.83 398.26,422.04 398.38,415.61 398.41,327.43 398.48,407.51 398.64,403.34 398.84,419.53 399.03,394.20 399.16,348.00 399.20,291.75 399.26,419.71 399.41,397.10 399.60,397.91 399.80,412.07 399.94,379.94 399.99,351.93 400.04,394.59 400.18,415.49 400.37,419.43 400.57,416.62 400.72,390.94 400.79,356.99 400.82,383.78 400.95,403.46 401.14,405.26 401.34,407.19 401.50,368.28 401.58,395.89 401.61,383.62 401.72,411.96 401.90,393.54 402.10,404.81 402.27,423.53 402.37,358.83 402.39,396.31 402.50,387.75 402.67,407.24 402.87,398.48 403.05,377.38 403.16,377.12 403.18,350.30 403.27,395.19 403.44,416.25 403.64,426.95 403.82,394.52 403.94,415.80 403.98,355.88 404.05,395.64 404.20,408.72 404.40,424.19 404.59,414.27 404.73,372.10 404.77,268.18 404.83,388.45 404.97,380.23 405.17,408.50 405.36,400.90 405.51,396.17 405.56,230.92 405.61,405.52 405.74,413.08 405.93,394.32 406.13,412.94 406.29,414.28 406.36,173.12 406.39,353.80 406.51,398.23 406.70,389.51 406.90,418.84 407.06,389.55 407.15,368.35 407.18,397.08 407.29,415.14 407.47,391.79 407.67,413.53 407.84,405.23 407.94,388.33 407.96,383.88 408.06,414.90 408.23,399.14 408.43,417.53 408.62,389.73 408.73,349.52 408.75,320.57 408.84,409.36 409.00,394.47 409.20,405.36 409.39,413.99 409.51,403.93 409.54,321.38 409.61,400.21 409.77,407.26 409.97,409.24 410.16,403.61 410.29,418.13 410.34,301.03 410.39,390.06 410.54,404.47 410.73,401.97 410.93,405.43 411.07,393.00 411.13,336.49 411.18,365.11 411.31,400.13 411.50,422.87 411.70,418.42 411.85,396.43 411.93,354.62 411.96,406.51 412.08,409.29 412.27,396.29 412.46,412.51 412.63,400.96 412.72,344.45 412.74,396.94 412.85,403.73 413.03,414.36 413.23,389.80 413.41,412.10 413.51,390.27 413.53,363.49 413.63,396.66 413.80,404.09 414.00,409.95 414.18,392.63 414.29,417.80 414.32,304.51 414.40,383.69 414.57,407.44 414.77,405.91 414.95,388.88 415.08,370.18 415.11,339.95 415.18,413.07 415.33,379.87 415.53,411.16 415.72,422.24 415.86,399.21 415.91,335.90 415.96,408.06 416.10,412.65 416.30,405.80 416.49,408.34 416.64,394.04 416.70,350.52 416.74,372.39 416.87,408.81 417.06,394.62 417.26,390.05 417.42,399.06 417.50,335.32 417.53,360.44 417.65,397.36 417.83,390.10 418.03,407.26 418.20,412.84 418.29,361.05 418.31,397.58 418.42,397.53 418.59,425.03 418.80,410.24 418.97,403.52 419.07,317.44 419.10,370.63 419.19,414.42 419.36,414.82 419.56,417.50 419.75,401.97 419.86,399.68 419.89,394.96 419.97,392.60 420.13,414.10 420.33,403.58 420.52,379.80 420.65,368.57 420.68,316.90 420.75,388.32 420.90,418.06 421.10,412.99 421.29,404.71 421.43,396.21 421.48,285.92 421.53,382.85 421.67,413.35 421.86,426.31 422.06,391.86 422.21,400.57 422.27,280.61 422.31,403.76 422.44,393.99 422.63,404.78 422.83,391.82 422.99,383.89 423.06,340.33 423.09,385.36 423.21,410.66 423.39,404.19 423.59,407.63 423.76,381.25 423.85,369.03 423.88,368.00 423.98,399.53 424.16,425.58 424.36,417.29 424.54,405.39 424.64,390.26 424.67,344.24 424.76,407.43 424.93,408.79 425.13,400.28 425.31,407.12 425.43,387.46 425.46,326.44 425.54,369.75 425.70,415.93 425.89,403.76 426.08,380.54 426.21,344.80 426.25,254.39 426.31,388.96 426.46,392.52 426.66,413.62 426.85,397.87 426.99,402.40 427.05,284.91 427.10,353.50 427.23,390.78 427.43,413.20 427.62,396.56 427.77,388.15 427.84,303.96 427.88,393.36 428.00,386.00 428.19,385.67 428.39,419.09 428.55,375.95 428.63,399.14 428.66,405.79 428.78,403.05 428.96,394.11 429.16,411.90 429.33,416.04 429.42,356.64 429.45,329.24 429.55,394.43 429.72,405.69 429.93,407.72 430.10,395.66 430.21,385.71 430.24,380.72 430.33,407.08 430.49,415.13 430.69,410.10 430.88,410.33 431.00,388.05 431.03,237.57 431.10,390.65 431.26,387.36 431.46,418.19 431.65,405.55 431.78,406.39 431.82,354.67 431.88,384.12 432.03,411.57 432.22,400.40 432.42,410.08 432.56,384.35 432.62,281.00 432.66,399.20 432.80,415.36 432.99,402.05 433.19,411.93 433.34,400.88 433.41,325.28 433.44,358.40 433.57,367.84 433.76,384.37 433.96,385.88 434.12,409.34 434.20,390.49 434.23,352.51 434.34,392.28 434.52,421.44 434.72,409.56 434.89,405.35 434.99,358.08 435.02,385.06 435.12,407.57 435.29,405.98 435.49,412.65 435.67,413.29 435.78,359.17 435.81,361.22 435.89,411.98 436.06,398.86 436.26,380.92 436.44,405.83 436.56,400.15 436.60,406.55 436.67,385.37 436.82,402.77 437.02,419.36 437.21,397.08 437.35,397.30 437.39,338.47 437.45,392.98 437.59,416.60 437.79,390.17 437.98,408.02 438.13,383.86 438.19,390.67 438.23,397.48 438.36,414.69 438.55,414.24 438.75,396.56 438.91,413.20 438.98,228.32 439.01,423.30 439.14,402.28 439.32,387.93 439.52,431.55 439.68,392.84 439.77,343.32 439.80,387.87 439.91,378.53 440.09,429.55 440.29,409.99 440.46,381.77 440.56,390.61 440.58,372.77 440.68,405.60 440.85,422.90 441.05,413.32 441.24,415.29 441.35,393.42 441.37,339.71 441.46,369.04 441.62,402.75 441.82,398.26 442.01,403.63 442.13,420.00 442.17,304.58 442.24,410.17 442.39,423.77 442.59,399.20 442.78,417.15 442.91,405.65 442.96,274.48 443.01,379.01 443.16,418.44 443.35,419.11 443.55,404.88 443.70,415.23 443.76,364.52 443.80,401.46 443.93,384.29 444.12,422.21 444.32,400.03 444.48,397.27 444.55,413.93 444.58,381.11 444.70,405.23 444.88,408.81 445.09,405.04 445.25,399.00 445.34,360.82 445.37,410.67 445.47,411.15 445.65,414.42 445.85,421.61 446.03,405.71 446.13,389.93 446.15,346.71 446.25,396.83 446.42,386.25 446.62,407.22 446.80,382.71 446.91,359.02 446.94,368.65 447.02,410.32 447.18,403.65 447.39,380.40 447.57,423.58 447.70,393.81 447.74,365.00 447.80,407.18 447.95,413.30 448.15,404.58 448.34,412.52 448.48,407.95 448.53,298.52 448.58,362.18 448.72,406.23 448.92,397.24 449.11,423.74 449.26,388.27 449.32,329.82 449.36,387.86 449.49,394.11 449.68,416.27 449.88,412.61 450.04,395.73 450.12,348.14 450.15,368.12 450.27,422.68 450.45,413.00 450.65,402.95 450.82,390.80 450.91,380.63 450.93,347.70 451.04,381.67 451.22,421.43 451.42,409.41 451.59,392.46 451.70,367.77 451.72,390.43 451.81,386.93 451.98,411.88 452.18,383.99 452.37,417.22 452.48,413.60 452.51,374.59 452.59,402.79 452.75,385.73 452.95,382.06 453.14,386.83 453.27,406.69 453.30,342.12 453.37,426.25 453.52,411.55 453.72,388.09 453.91,423.31 454.05,417.56 454.10,389.72 454.15,394.59 454.29,407.90 454.48,426.03 454.68,404.76 454.83,405.96 454.89,377.98 454.93,387.39 455.06,401.96 455.25,400.37 455.45,420.03 455.61,405.47 455.69,423.85 455.72,406.59 455.83,416.45 456.01,424.95 456.21,416.97 456.38,393.79 456.48,350.61 456.50,382.56 456.61,370.80 456.78,406.07 456.98,415.93 457.16,407.59 457.26,399.16 457.29,365.70 457.38,388.13 457.55,411.16 457.75,393.86 457.93,409.25 458.05,396.74 458.08,372.79 458.16,419.16 458.32,388.24 458.52,404.75 458.70,422.72 458.83,400.04 458.87,376.89 458.94,393.09 459.08,388.51 459.28,388.22 459.47,419.93 459.62,380.97 459.67,316.08 459.72,405.90 459.85,401.42 460.05,412.36 460.24,405.08 460.40,380.13 460.46,251.03 460.50,398.02 460.62,403.01 460.81,391.84 461.01,401.72 461.17,405.93 461.26,393.76 461.28,390.09 461.40,397.65 461.58,423.27 461.78,396.23 461.95,393.08 462.04,330.65 462.07,353.72 462.17,414.72 462.34,404.17 462.55,403.31 462.73,394.65 462.83,400.83 462.86,349.51 462.95,373.13 463.11,413.04 463.31,393.09 463.50,414.51 463.62,391.70 463.65,350.38 463.72,413.53 463.88,404.03 464.08,402.86 464.27,417.65 464.40,380.81 464.44,368.93 464.50,409.35 464.65,419.85 464.84,394.34 465.04,388.13 465.18,396.15 465.24,291.24 465.28,403.15 465.42,404.42 465.61,414.12 465.81,424.02 465.96,405.97 466.03,332.31 466.07,389.05 466.19,407.75 466.38,404.73 466.58,392.95 466.74,412.63 466.82,369.60 466.85,418.70 466.96,401.87 467.14,416.55 467.34,399.45 467.52,393.18 467.61,392.42 467.64,382.38 467.74,404.54 467.91,396.02 468.11,408.24 468.29,407.86 468.40,389.40 468.43,413.25 468.51,401.25 468.68,403.47 468.88,407.74 469.06,413.56 469.19,370.06 469.22,356.91 469.29,384.13 469.45,403.46 469.64,412.24 469.83,421.39 469.97,415.84 470.01,254.80 470.07,401.71 470.21,393.80 470.41,413.83 470.60,413.65 470.75,387.86 470.81,151.04 470.85,367.53 470.98,396.54 471.18,404.84 471.37,424.95 471.53,407.38 471.60,363.34 471.63,383.87 471.76,383.55 471.94,408.36 472.14,393.63 472.31,407.99 472.39,352.08 472.42,379.88 472.53,381.37 472.71,398.31 472.91,406.93 473.08,402.59 473.18,403.64 473.21,342.75 473.30,399.43 473.47,424.33 473.68,399.17 473.86,413.25 473.97,327.86 474.00,372.00 474.08,401.96 474.24,409.83 474.44,388.62 474.63,395.49 474.75,384.22 474.79,291.62 474.86,387.32 475.01,416.14 475.21,399.94 475.40,412.32 475.54,416.33 475.58,319.68 475.64,416.48 475.78,407.51 475.97,401.47 476.17,384.21 476.32,393.22 476.38,338.25 476.42,387.86 476.55,404.31 476.74,397.04 476.94,407.51 477.10,430.96 477.17,386.32 477.20,373.60 477.32,408.72 477.50,391.68 477.71,388.37 477.87,393.97 477.96,378.10 477.99,405.42 478.09,408.15 478.27,391.73 478.47,423.41 478.65,400.98 478.75,399.83 478.77,391.67 478.87,401.02 479.04,403.29 479.24,404.23 479.42,415.88 479.54,379.78 479.56,357.58 479.64,411.43 479.81,408.31 480.01,405.91 480.19,411.39 480.32,359.23 480.36,289.39 480.42,418.59 480.57,421.63 480.77,411.04 480.97,417.30 481.10,402.55 481.15,366.95 481.20,382.84 481.34,406.17 481.54,412.75 481.73,410.46 481.88,403.28 481.95,401.82 481.98,377.18 482.11,406.24 482.30,397.57 482.50,407.05 482.66,412.23 482.74,371.29 482.77,379.70 482.89,383.09 483.07,419.28 483.27,406.13 483.44,407.29 483.53,304.57 483.56,381.93 483.66,375.40 483.84,401.81 484.04,407.62 484.21,412.33 484.32,320.74 484.34,359.20 484.43,385.23 484.60,404.40 484.80,409.48 484.99,402.91 485.10,419.75 485.13,395.31 485.21,416.30 485.37,417.84 485.57,403.05 485.76,385.18 485.89,403.68 485.93,334.18 485.99,361.12 486.14,416.12 486.34,382.82 486.53,414.10 486.67,420.84 486.72,291.94 486.77,365.34 486.91,414.03 487.10,403.50 487.30,405.14 487.45,365.25 487.52,308.12 487.55,391.77 487.68,410.62 487.87,410.03 488.07,410.60 488.23,396.95 488.31,341.69 488.34,405.66 488.45,407.81 488.63,394.04 488.84,421.29 489.00,419.84 489.10,381.43 489.12,384.82 489.23,409.27 489.40,411.99 489.60,403.01 489.78,405.76 489.89,348.60 489.91,313.42 490.00,388.10 490.17,412.14 490.37,399.56 490.55,426.37 490.67,410.52 490.70,352.79 490.78,418.89 490.93,414.15 491.13,413.20 491.33,421.49 491.46,369.23 491.50,359.64 491.56,413.55 491.70,400.45 491.90,416.28 492.09,385.98 492.24,419.18 492.29,180.95 492.34,402.51 492.47,418.86 492.67,412.46 492.86,420.04 493.02,403.73 493.08,328.30 493.12,339.04 493.25,409.00 493.43,408.58 493.63,407.97 493.79,396.21 493.88,349.37 493.90,369.74 494.02,419.15 494.20,389.42 494.40,403.37 494.57,406.54 494.67,338.92 494.69,361.23 494.79,414.02 494.97,412.32 495.17,394.55 495.35,395.67 495.45,341.84 495.48,316.51 495.57,419.06 495.73,414.68 495.93,418.89 496.12,393.02 496.24,356.09 496.27,272.93 496.34,379.58 496.50,415.83 496.70,411.79 496.89,406.86 497.02,396.11 497.06,332.11 497.12,370.66 497.27,381.66 497.47,420.30 497.66,394.16 497.80,407.83 497.86,321.62 497.90,404.58 498.04,426.56 498.23,400.31 498.43,421.36 498.58,419.85 498.65,350.64 498.69,401.68 498.81,409.73 499.00,423.61 499.20,384.85 499.36,410.11 499.45,397.65 499.47,362.78 499.58,425.03 499.76,400.55 499.96,420.26 500.14,396.70 500.23,343.60 500.26,367.43 500.36,382.59 500.53,418.61 500.73,397.02 500.91,422.31 501.02,393.25 501.05,357.74 501.13,402.70 501.30,401.38 501.50,411.47 501.68,392.41 501.81,415.15 501.84,363.51 501.91,419.88 502.06,408.29 502.26,396.57 502.45,407.96 502.59,425.09 502.63,237.95 502.69,391.98 502.83,407.28 503.03,427.05 503.22,379.77 503.37,392.40 503.43,330.47 503.47,391.19 503.61,394.98 503.79,406.47 503.99,403.94 504.15,410.57 504.22,372.89 504.26,366.51 504.38,398.30 504.56,393.71 504.76,393.02 504.93,414.46 505.01,376.34 505.04,391.51 505.15,405.49 505.33,401.26 505.53,410.79 505.70,400.13 505.80,355.81 505.83,335.93 505.92,421.75 506.09,397.26 506.30,404.23 506.48,406.35 506.59,360.66 506.62,337.96 506.70,380.52 506.86,393.86 507.06,417.20 507.25,404.90 507.37,354.28 507.41,314.51 507.48,393.20 507.63,410.87 507.83,402.35 508.02,414.52 508.16,402.31 508.20,308.36 508.26,394.82 508.40,403.61 508.59,410.97 508.79,398.13 508.94,380.15 509.00,306.06 509.04,409.67 509.17,398.49 509.36,417.71 509.56,425.00 509.72,417.26 509.79,309.69 509.82,377.47 509.94,410.10 510.13,410.02 510.33,388.85 510.49,397.97 510.58,350.50 510.61,402.91 510.71,417.45 510.89,398.77 511.09,393.71 511.27,405.79 511.37,387.43 511.40,383.64 511.49,408.12 511.66,420.98 511.86,415.10 512.04,402.03 512.16,398.66 512.19,308.16 512.27,415.03 512.43,406.13 512.63,413.41 512.81,398.22 512.94,392.18 512.98,320.07 513.04,397.99 513.20,408.49 513.39,425.87 513.59,417.02 513.72,395.47 513.77,386.30 513.82,429.67 513.97,408.74 514.16,413.44 514.36,399.54 514.50,396.07 514.57,239.97 514.61,374.11 514.73,384.04 514.92,395.08 515.12,414.16 515.28,412.42 515.36,300.98 515.39,388.77 515.51,405.17 515.69,391.98 515.89,411.38 516.06,397.35 516.15,359.98 516.18,377.36 516.28,404.21 516.46,405.02 516.66,412.42 516.83,405.08 516.94,365.88 516.96,399.37 517.05,412.67 517.22,397.84 517.43,416.97 517.61,387.28 517.73,366.51 517.76,345.07 517.83,392.60 517.99,404.34 518.19,394.03 518.38,423.44 518.51,377.64 518.55,300.93 518.61,391.94 518.76,391.42 518.96,420.95 519.15,399.69 519.29,407.67 519.34,314.61 519.39,413.45 519.53,389.90 519.72,397.92 519.92,402.19 520.07,406.80 520.14,295.47 520.17,375.69 520.30,392.37 520.49,402.74 520.69,403.35 520.85,405.49 520.93,292.68 520.96,400.80 521.07,410.55 521.25,410.65 521.46,406.64 521.63,400.56 521.72,359.82 521.74,380.93 521.85,409.38 522.02,408.42 522.22,405.64 522.40,406.34 522.51,383.69 522.53,396.03 522.62,379.52 522.79,392.42 522.99,423.47 523.17,401.43 523.29,352.15 523.32,326.19 523.40,400.06 523.56,419.35 523.75,399.87 523.94,400.21 524.08,384.05 524.12,317.20 524.18,389.68 524.32,408.17 524.52,404.48 524.72,413.26 524.86,387.90 524.91,300.47 524.96,382.21 525.09,391.42 525.29,388.19 525.48,395.37 525.64,388.90 525.71,307.96 525.74,360.24 525.87,404.86 526.05,397.19 526.25,397.32 526.42,388.57 526.50,378.93 526.53,400.03 526.64,412.50 526.82,409.19 527.02,413.59 527.19,414.13 527.29,377.09 527.31,342.83 527.41,402.88 527.59,400.22 527.79,400.66 527.97,405.56 528.08,358.93 528.10,337.56 528.19,419.51 528.35,401.38 528.55,426.46 528.74,394.69 528.86,416.60 528.89,301.11 528.97,395.74 529.12,418.73 529.32,404.42 529.51,402.37 529.64,380.06 529.69,301.86 529.74,415.66 529.89,401.83 530.09,398.55 530.28,418.67 530.42,374.40 530.48,326.26 530.52,402.68 530.66,394.34 530.85,424.31 531.05,409.42 531.20,391.58 531.28,385.38 531.31,387.24 531.43,390.07 531.62,415.27 531.82,404.81 531.98,405.68 532.07,342.55 532.09,344.88 532.20,405.05 532.38,404.99 532.59,402.51 532.76,414.19 532.86,396.72 532.88,410.47 532.98,387.45 533.15,406.95 533.35,414.16 533.53,398.02 533.64,364.19 533.67,326.95 533.75,411.84 533.92,409.76 534.12,411.08 534.30,430.08 534.43,380.24 534.46,339.77 534.53,396.33 534.68,410.56 534.88,397.94 535.08,420.83 535.21,417.15 535.26,283.89 535.31,368.53 535.45,403.81 535.65,411.78 535.84,425.04 535.99,415.27 536.05,299.02 536.09,394.18 536.23,425.44 536.42,389.94 536.61,413.52 536.77,390.81 536.84,383.96 536.88,398.58 537.00,408.72 537.18,402.97 537.38,401.93 537.55,395.14 537.64,309.38 537.66,376.38 537.77,393.50 537.95,395.22 538.15,417.36 538.32,409.91 538.42,373.54 538.45,327.99 538.54,413.28 538.71,409.49 538.92,417.22 539.10,412.16 539.21,383.48 539.24,265.87 539.32,414.71 539.48,386.53 539.68,397.00 539.87,407.51 540.00,343.42 540.03,336.97 540.10,406.38 540.25,400.85 540.45,421.36 540.64,402.62 540.78,391.16 540.83,331.83 540.88,394.10 541.02,420.09 541.21,411.49 541.41,409.32 541.56,415.31 541.62,307.17 541.66,399.87 541.79,421.95 541.98,408.24 542.18,395.68 542.34,399.71 542.41,274.76 542.44,399.85 542.56,400.51 542.75,393.84 542.95,416.91 543.11,402.76 543.20,382.09 543.23,396.81 543.34,392.65 543.51,424.98 543.71,380.90 543.89,401.61 543.99,352.20 544.02,362.49 544.11,416.31 544.28,409.23 544.48,406.84 544.66,411.32 544.78,409.74 544.81,389.54 544.89,396.34 545.05,400.75 545.25,381.41 545.44,412.95 545.56,390.30 545.60,265.53 545.66,381.43 545.82,390.86 546.01,403.72 546.20,413.86 546.35,381.10 546.40,274.29 546.44,392.95 546.59,419.79 546.78,380.31 546.97,406.61 547.13,417.15 547.19,335.28 547.23,419.83 547.36,380.34 547.54,426.46 547.74,376.77 547.90,379.92 547.98,322.48 548.01,383.64 548.13,403.99 548.31,413.88 548.51,429.48 548.68,409.21 548.77,349.69 548.80,346.36 548.90,382.14 549.08,397.91 549.28,400.36 549.45,394.88 549.56,349.29 549.59,391.29 549.68,400.69 549.84,401.99 550.04,399.84 550.23,410.52 550.35,372.31 550.38,374.23 550.45,393.57 550.61,411.20 550.81,407.48 551.00,390.36 551.13,382.54 551.17,282.98 551.23,393.20 551.38,411.66 551.58,411.04 551.77,383.35 551.91,373.54 551.96,371.18 552.01,400.14 552.15,407.11 552.34,421.09 552.54,410.22 552.69,390.89 552.76,349.39 552.79,360.05 552.92,421.20 553.11,396.50 553.31,426.09 553.47,417.90 553.55,343.17 553.58,404.56 553.69,398.99 553.87,416.31 554.08,391.07 554.25,394.75 554.34,363.45 554.37,348.43 554.47,404.42 554.64,392.06 554.84,414.33 555.02,366.57 555.13,392.45 555.15,355.04 555.24,407.25 555.41,408.34 555.61,390.90 555.79,394.69 555.91,373.93 555.95,362.49 556.02,394.66 556.18,422.67 556.38,403.27 556.56,393.98 556.70,402.46 556.74,243.65 556.80,378.14 556.95,404.78 557.14,399.03 557.34,409.97 557.48,404.63 557.53,373.63 557.58,383.17 557.72,398.60 557.91,422.63 558.11,411.65 558.26,409.50 558.33,341.58 558.36,399.26 558.49,399.88 558.67,393.87 558.87,416.18 559.04,398.11 559.12,358.80 559.15,386.59 559.26,417.83 559.44,401.44 559.64,405.86 559.81,401.92 559.91,376.08 559.93,318.42 560.03,420.18 560.20,396.73 560.41,396.09 560.59,400.72 560.70,357.46 560.72,300.83 560.81,400.28 560.97,401.73 561.17,390.45 561.36,405.72 561.48,380.12 561.51,367.27 561.59,425.83 561.74,393.32 561.94,413.75 562.13,408.54 562.27,392.61 562.31,258.21 562.37,384.56 562.51,419.75 562.70,406.74 562.90,408.08 563.05,387.84 563.10,346.63 563.15,396.37 563.28,404.78 563.47,401.85 563.67,398.10 563.82,409.83 563.90,375.57 563.93,396.39 564.05,403.26 564.24,393.45 564.44,414.96 564.60,415.92 564.69,330.80 564.71,395.66 564.82,404.13 565.00,418.10 565.20,397.60 565.38,414.25 565.48,377.18 565.50,348.43 565.60,414.80 565.77,405.91 565.97,421.22 566.15,407.88 566.26,385.37 566.29,379.18 566.37,380.81 566.54,422.57 566.74,405.15 566.92,416.63 567.05,381.98 567.08,342.64 567.15,424.91 567.31,408.68 567.50,416.14 567.70,403.38 567.83,389.35 567.88,368.64 567.93,378.75 568.08,414.70 568.27,404.37 568.47,411.14 568.61,415.64 568.67,286.75 568.71,374.75 568.85,385.27 569.04,416.80 569.24,402.75 569.39,407.44 569.47,395.47 569.50,413.08 569.62,416.03 569.80,419.73 570.00,402.72 570.17,398.09 570.26,399.72 570.28,359.12 570.39,363.85 570.57,399.81 570.77,392.28 570.94,366.78 571.05,348.84 571.07,389.52 571.17,422.77 571.33,411.86 571.54,408.36 571.72,425.54 571.83,368.04 571.86,346.51 571.94,399.20 572.10,409.74 572.30,406.71 572.49,400.63 572.62,363.00 572.65,296.24 572.72,396.54 572.87,394.17 573.07,409.98 573.26,407.00 573.40,371.56 573.45,245.29 573.50,397.32 573.64,416.24 573.83,398.32 574.03,417.90 574.18,369.13 574.24,362.14 574.28,386.30 574.41,411.74 574.60,409.32 574.80,413.57 574.96,393.50 575.04,330.40 575.06,416.36 575.18,421.33 575.36,394.84 575.57,405.78 575.74,407.99 575.83,314.37 575.85,348.70 575.96,406.33 576.13,401.33 576.33,418.41 576.51,424.68 576.61,355.31 576.64,310.63 576.73,396.43 576.90,401.52 577.10,411.78 577.28,420.37 577.40,372.61 577.43,308.37 577.51,410.23 577.67,393.74 577.87,414.85 578.06,412.48 578.18,404.58 578.22,384.50 578.29,396.51 578.43,399.86 578.63,414.52 578.83,415.41 578.97,366.87 579.02,297.99 579.07,362.22 579.20,394.38 579.40,401.24 579.59,394.40 579.75,403.78 579.81,363.18 579.85,385.33 579.98,385.76 580.17,413.00 580.36,427.61 580.52,413.23 580.60,339.13 580.63,338.95 580.75,409.14 580.93,430.48 581.13,402.71 581.30,396.49 581.39,380.17 581.42,360.81 581.52,397.45 581.70,389.01 581.90,415.61 582.08,411.06 582.18,402.34 582.21,367.51 582.30,417.46 582.46,417.92 582.66,390.62 582.85,387.11 582.97,393.77 583.00,334.05 583.07,391.07 583.23,406.88 583.43,412.90 583.62,385.67 583.75,402.09 583.79,374.63 583.85,390.46 584.00,423.37 584.20,396.34 584.39,403.55 584.53,420.89 584.59,368.14 584.63,365.81 584.77,414.29 584.96,414.09 585.16,387.63 585.31,404.07 585.38,343.55 585.42,383.21 585.54,412.23 585.73,383.74 585.93,421.10 586.09,420.54 586.17,352.34 586.20,353.57 586.31,415.65 586.49,397.31 586.70,394.45 586.87,392.51 586.96,364.26 586.99,356.49 587.09,412.29 587.26,400.02 587.46,414.87 587.64,395.13 587.75,381.66 587.78,394.89 587.86,417.31 588.03,409.68 588.23,400.94 588.41,400.11 588.54,390.46 588.57,348.94 588.64,417.52 588.80,413.21 589.00,391.91 589.19,404.15 589.32,413.64 589.36,324.70 589.42,365.51 589.57,405.19 589.76,406.67 589.96,401.34 590.10,386.63 590.16,362.73 590.20,400.17 590.34,417.05 590.53,403.97 590.73,404.66 590.88,396.98 590.95,338.27 590.98,376.98 591.11,398.64 591.29,394.43 591.49,396.06 591.66,398.31 591.74,336.63 591.77,396.51 591.88,389.80 592.06,413.72 592.26,429.06 592.43,383.16 592.53,355.37 592.56,351.11 592.65,400.03 592.83,423.48 593.03,421.22 593.21,393.23 593.32,417.44 593.34,385.83 593.43,378.04 593.59,398.84 593.79,406.35 593.98,407.61 594.10,349.88 594.14,350.77 594.21,394.65 594.36,410.54 594.56,409.83 594.75,414.95 594.89,394.15 594.93,291.09 594.99,391.60 595.13,409.72 595.33,401.62 595.52,414.81 595.67,381.19 595.73,247.11 595.77,424.63 595.90,416.35 596.09,406.41 596.29,400.19 596.45,391.98 596.52,328.23 596.55,356.29 596.67,396.96 596.86,389.31 597.06,392.83 597.22,400.10 597.31,376.08 597.34,402.63 597.44,382.93 597.62,410.18 597.83,413.26 598.00,427.22 598.10,400.18 598.12,359.32 598.22,406.30 598.39,390.88 598.59,412.70 598.77,418.28 598.89,394.54 598.91,351.17 599.00,368.92 599.16,379.98 599.36,401.12 599.55,401.30 599.67,398.00 599.71,308.55 599.77,409.86 599.93,401.10 600.12,395.84 600.32,394.16 600.45,399.22 600.50,250.40 600.55,360.40 600.70,397.60 600.89,423.89 601.09,398.82 601.23,397.08 601.29,329.49 601.33,362.72 601.47,380.44 601.66,386.34 601.86,415.72 602.01,379.67 602.09,387.89 602.12,403.45 602.24,405.47 602.42,412.79 602.62,402.00 602.79,400.08 602.88,352.33 602.90,389.01 603.01,406.18 603.19,402.89 603.39,426.64 603.56,418.88 603.67,315.10 603.69,315.70 603.79,418.04 603.95,397.84 604.16,398.38 604.34,407.73 604.45,363.43 604.48,338.66 604.56,392.91 604.72,384.06 604.92,398.88 605.11,416.51 605.24,386.99 605.27,338.68 605.34,409.45 605.49,404.92 605.69,415.83 605.88,390.86 606.02,393.99 606.07,314.83 606.12,376.50 606.26,409.19 606.45,397.33 606.65,376.05 606.80,404.88 606.86,389.08 606.90,389.94 607.03,404.17 607.22,394.46 607.42,401.23 607.58,393.06 607.66,283.71 607.69,403.00 607.80,394.31 607.99,408.94 608.19,420.24 608.36,413.71 608.45,388.47 608.47,362.59 608.58,406.62 608.75,392.08 608.95,425.60 609.13,409.79 609.23,409.32 609.26,363.23 609.35,404.81 609.52,417.02 609.72,414.93 609.90,418.54 610.02,343.25 610.05,383.16 610.13,392.37 610.29,401.27 610.49,408.01 610.68,405.55 610.81,406.33 610.84,337.48 610.91,389.42 611.06,414.52 611.25,411.52 611.45,401.06 611.59,400.99 611.64,321.50 611.69,415.07 611.83,407.68 612.02,403.55 612.22,408.41 612.37,402.18 612.43,322.03 612.47,362.70 612.60,404.22 612.78,390.98 612.99,412.46 613.15,386.11 613.23,367.52 613.25,356.07 613.37,404.48 613.55,399.23 613.75,423.51 613.92,411.12 614.02,361.50 614.04,359.17 614.14,401.11 614.32,413.51 614.52,405.85 614.70,394.54 614.80,336.59 614.83,332.39 614.92,371.94 615.08,400.61 615.29,390.50 615.47,393.72 615.59,407.34 615.62,361.48 615.69,413.36 615.85,407.68 616.05,407.51 616.24,422.01 616.37,399.83 616.41,285.82 616.47,388.30 616.62,412.04 616.82,391.98 617.01,400.57 617.15,408.46 617.21,301.76 617.25,409.91 617.39,424.75 617.58,408.51 617.78,424.22 617.93,399.48 618.00,345.85 618.04,396.65 618.16,413.66 618.35,424.93 618.55,396.73 618.71,374.41 618.79,332.42 618.82,410.45 618.93,379.60 619.12,414.55 619.32,398.39 619.49,403.61 619.58,304.25 619.61,394.84 619.71,402.13 619.88,406.60 620.08,383.41 620.26,415.92 620.37,390.82 620.40,420.09 620.48,394.04 620.65,411.85 620.85,394.93 621.03,413.74 621.16,339.56 621.19,333.11 621.26,400.28 621.42,425.89 621.61,406.94 621.81,422.32 621.94,396.57 621.98,236.30 622.04,392.38 622.19,394.94 622.38,390.38 622.58,424.23 622.72,379.35 622.78,361.51 622.82,373.63 622.96,421.62 623.15,397.80 623.35,420.10 623.50,414.92 623.57,313.26 623.60,347.00 623.73,422.40 623.91,417.90 624.11,379.07 624.28,398.70 624.36,414.78 624.39,371.01 624.50,395.08 624.68,386.17 624.88,407.13 625.05,407.60 625.15,334.45 625.18,342.36 625.28,414.02 625.45,412.21 625.65,398.67 625.83,419.26 625.94,380.48 625.97,332.26 626.05,384.89 626.21,412.00 626.42,398.67 626.60,388.62 626.72,348.83 626.76,321.12 626.83,393.89 626.98,410.77 627.18,406.42 627.37,417.32 627.51,404.45 627.55,313.84 627.61,362.02 627.75,390.30 627.95,400.60 628.14,385.75 628.29,382.52 628.35,243.65 628.39,413.89 628.52,412.72 628.71,379.35 628.91,412.21 629.07,407.05 629.14,282.96 629.17,360.86 629.29,414.35 629.48,418.99 629.68,409.07 629.84,414.47 629.93,361.41 629.96,383.01 630.07,380.45 630.24,401.51 630.45,401.70 630.62,410.99 630.72,379.32 630.75,386.64 630.84,409.00 631.01,400.31 631.21,415.85 631.39,387.98 631.51,383.87 631.53,311.61 631.62,385.63 631.78,391.20 631.98,409.81 632.17,398.82 632.29,394.22 632.33,279.56 632.39,356.77 632.55,418.03 632.74,386.98 632.94,399.73 633.07,388.99 633.12,294.49 633.17,395.25 633.32,414.62 633.51,415.35 633.71,398.44 633.85,405.82 633.92,303.15 633.96,401.88 634.09,412.98 634.28,393.87 634.47,398.13 634.63,414.28 634.71,313.63 634.74,390.02 634.86,394.09 635.04,422.87 635.24,409.68 635.41,381.15 635.50,385.04 635.53,368.07 635.63,404.62 635.81,415.24 636.01,428.17 636.18,428.05 636.29,345.25 636.31,404.80 636.41,405.84 636.58,397.60 636.78,409.57 636.96,408.60 637.08,344.97 637.10,353.50 637.18,399.45 637.34,420.09 637.54,392.08 637.73,413.31 637.86,367.17 637.90,319.73 637.96,411.30 638.11,400.41 638.31,401.41 638.50,394.79 638.64,415.34 638.69,218.14 638.74,407.71 638.88,418.42 639.08,381.61 639.27,400.87 639.42,415.67 639.49,370.29 639.52,367.84 639.65,406.61 639.84,421.57 640.04,417.92 640.20,390.83 640.28,386.46 640.31,364.80 640.42,410.54 640.61,414.33 640.81,403.19 640.98,402.75 641.07,360.40 641.09,405.70 641.20,401.56 641.37,418.24 641.58,401.13 641.75,400.29 641.86,344.01 641.88,380.52 641.97,412.33 642.14,397.68 642.34,405.17 642.52,405.31 642.64,377.23 642.67,277.62 642.75,408.78 642.91,415.02 643.11,392.71 643.30,395.78 643.43,378.23 643.47,322.71 643.53,370.78 643.68,407.15 643.87,414.14 644.07,377.43 644.21,398.65 644.26,313.32 644.31,405.47 644.45,420.29 644.64,391.63 644.84,413.82 644.99,417.70 645.05,352.87 645.09,383.80 645.22,394.45 645.40,405.91 645.61,408.16 645.77,385.74 645.85,374.21 645.88,374.34 645.99,395.86 646.17,410.02 646.37,427.35 646.54,377.36 646.64,374.69 646.66,382.77 646.76,392.09 646.94,418.14 647.14,387.78 647.32,392.23 647.42,392.24 647.45,408.37 647.54,412.11 647.71,400.34 647.91,407.95 648.09,403.60 648.21,375.92 648.24,318.27 648.32,412.01 648.47,401.74 648.67,399.46 648.86,404.67 648.99,374.49 649.03,329.52 649.09,413.82 649.24,399.02 649.44,403.32 649.63,403.74 649.78,371.62 649.83,245.41 649.88,396.71 650.01,402.65 650.20,403.37 650.40,409.43 650.56,407.41 650.62,337.64 650.66,338.95 650.78,398.66 650.97,406.82 651.17,425.21 651.33,393.01 651.42,340.11 651.44,387.18 651.55,409.30 651.74,410.19 651.94,417.87 652.11,399.82 652.21,375.70 652.23,399.80 652.33,404.79 652.50,415.90 652.70,389.22 652.88,392.87 652.99,392.30 653.02,337.91 653.11,378.97 653.27,390.57 653.47,416.19 653.66,406.57 653.78,398.79 653.81,314.77 653.88,393.63 654.04,427.43 654.24,411.20 654.43,383.81 654.56,403.68 654.60,400.96 654.66,386.68 654.81,387.64 655.00,414.44 655.20,407.03 655.34,414.35 655.40,346.33 655.44,385.47 655.58,405.98 655.77,405.21 655.97,402.26 656.12,407.18 656.19,318.21 656.23,398.06 656.35,425.03 656.53,399.13 656.74,397.43 656.90,417.85 656.98,352.99 657.01,372.44 657.12,387.99 657.30,405.94 657.50,400.33 657.67,396.29 657.77,385.19 657.80,342.85 657.90,381.00 658.07,426.08 658.27,403.00 658.45,410.28 658.56,402.98 658.59,383.89 658.67,393.41 658.83,396.45 659.03,407.62 659.22,409.57 659.35,362.02 659.38,412.67 659.45,404.26 659.60,399.60 659.80,403.39 659.99,399.17 660.13,394.23 660.17,364.24 660.23,420.87 660.37,404.60 660.57,408.65 660.76,422.05 660.91,368.97 660.97,307.19 661.01,407.75 661.14,399.06 661.33,402.20 661.53,425.73 661.69,379.70 661.76,395.43 661.79,376.25 661.91,405.45 662.10,409.62 662.30,425.17 662.46,392.39 662.55,337.87 662.58,379.46 662.69,407.77 662.87,410.60 663.07,424.54 663.24,392.21 663.34,395.16 663.37,370.26 663.46,422.38 663.63,417.49 663.83,424.22 664.01,409.24 664.13,361.34 664.16,335.24 664.24,396.18 664.40,416.02 664.60,399.25 664.79,398.92 664.91,389.97 664.95,311.68 665.02,404.74 665.17,400.59 665.36,406.06 665.56,403.31 665.70,394.13 665.74,302.56 665.80,415.61 665.94,390.05 666.13,402.59 666.33,402.09 666.48,407.84 666.54,289.91 666.58,396.76 666.71,386.85 666.90,407.72 667.10,397.12 667.25,406.29 667.33,379.44 667.36,360.26 667.48,418.35 667.66,402.62 667.86,403.32 668.03,386.20 668.12,396.56 668.15,378.54 668.25,395.98 668.43,414.83 668.63,387.19 668.81,406.09 668.91,377.23 668.94,388.64 669.03,391.37 669.20,422.86 669.40,400.93 669.58,409.42 669.70,342.45 669.73,414.68 669.80,392.00 669.96,414.75 670.16,385.02 670.35,410.25 670.48,353.63 670.52,266.57 670.58,411.15 670.73,421.07 670.93,407.93 671.12,417.87 671.26,369.58 671.31,364.13 671.36,405.04 671.50,416.43 671.69,408.44 671.89,411.56 672.04,414.89 672.11,342.14 672.15,358.85 672.27,384.46 672.46,387.64 672.66,399.66 672.82,391.56 672.90,352.02 672.93,403.49 673.04,421.69 673.23,401.72 673.43,410.50 673.60,405.27 673.69,342.35 673.72,346.86 673.82,389.29 673.99,408.43 674.20,383.57 674.37,404.59 674.48,355.33 674.50,321.77 674.59,393.61 674.76,417.90 674.96,407.40 675.14,419.25 675.26,347.90 675.29,328.25 675.37,404.70 675.53,402.36 675.73,404.00 675.92,416.69 676.05,392.58 676.09,305.69 676.15,380.52 676.30,397.69 676.49,426.65 676.69,420.05 676.83,392.25 676.88,313.37 676.93,422.27 677.07,410.10 677.26,418.30 677.46,396.22 677.61,386.08 677.68,278.96 677.71,380.39 677.84,397.16 678.03,408.02 678.22,398.20 678.39,403.02 678.47,340.60 678.50,393.83 678.61,399.37 678.79,402.33 678.99,412.90 679.16,414.15 679.26,382.49 679.28,360.70 679.39,399.93 679.56,398.99 679.76,399.31 679.94,409.30 680.05,394.67 680.07,334.53 680.16,399.43 680.33,424.61 680.53,407.03 680.71,412.32 680.83,407.62 680.86,381.48 680.94,411.64 681.09,401.80 681.29,408.94 681.48,403.41 681.62,341.64 681.66,266.65 681.72,408.62 681.86,399.28 682.06,397.92 682.25,416.27 682.40,407.90 682.45,379.65 682.50,402.97 682.63,407.30 682.82,390.33 683.02,400.70 683.18,398.07 683.25,232.03 683.28,377.79 683.40,420.34 683.59,390.86 683.79,417.90 683.95,381.99 684.04,380.18 684.06,376.95 684.18,418.61 684.36,420.87 684.56,382.26 684.73,393.48 684.83,322.86 684.85,301.56 684.95,409.18 685.12,403.98 685.33,425.08 685.50,423.36 685.61,398.97 685.64,327.86 685.73,388.75 685.89,408.65 686.09,399.02 686.28,401.35 686.40,399.95 686.43,334.19 686.50,386.84 686.66,400.31 686.86,413.18 687.05,406.35 687.18,416.13 687.23,340.00 687.28,379.18 687.43,419.56 687.62,395.10 687.82,405.46 687.96,383.27 688.02,289.44 688.06,395.24 688.20,401.39 688.39,399.37 688.59,398.81 688.74,399.56 688.81,227.82 688.85,402.01 688.97,413.86 689.15,394.82 689.35,428.03 689.52,396.84 689.61,394.58 689.63,360.76 689.74,404.66 689.92,419.74 690.12,380.97 690.29,375.63 690.40,324.11 690.42,329.70 690.52,411.92 690.69,384.76 690.89,412.65 691.07,408.41 691.18,336.50 691.21,389.76 691.29,414.60 691.46,415.94 691.65,374.69 691.84,415.05 691.97,341.94 692.00,336.06 692.07,387.33 692.22,405.50 692.42,402.15 692.61,415.15 692.75,403.49 692.80,382.44 692.85,400.78 692.99,412.16 693.19,392.61 693.38,404.36 693.53,409.73 693.59,287.28 693.63,407.82 693.76,404.33 693.95,408.41 694.15,398.90 694.31,394.15 694.38,418.55 694.41,405.82 694.54,409.27 694.72,426.71 694.92,385.84 695.09,381.28 695.17,370.94 695.20,363.56 695.31,396.29 695.48,410.11 695.69,409.57 695.86,402.81 695.96,393.86 695.99,341.59 696.08,401.57 696.25,424.74 696.45,408.60 696.63,403.50 696.75,405.28 696.78,371.12 696.86,416.02 697.02,421.07 697.22,423.01 697.41,376.85 697.53,387.21 697.57,354.95 697.64,409.75 697.79,406.51 697.99,407.47 698.18,390.11 698.32,406.54 698.37,284.15 698.42,419.57 698.56,397.17 698.75,426.96 698.95,404.15 699.10,379.38 699.16,303.38 699.20,362.31 699.33,390.14 699.52,392.93 699.72,389.12 699.88,384.57 699.95,325.22 699.98,367.15 700.10,411.38 700.28,417.70 700.48,388.97 700.65,421.26 700.74,404.85 700.77,347.82 700.87,381.20 701.05,381.23 701.25,397.19 701.43,411.44 701.53,359.88 701.56,331.56 701.65,424.55 701.82,424.18 702.02,412.12 702.20,402.06 702.32,376.13 702.35,292.57 702.43,394.04 702.58,394.39 702.78,421.22 702.97,414.86 703.10,405.08 703.14,301.25 703.20,391.66 703.35,411.93 703.55,404.33 703.74,410.83 703.88,386.51 703.93,266.02 703.98,416.10 704.12,424.93 704.31,406.56 704.51,402.96 704.66,386.35 704.73,391.52 704.77,391.15 704.89,409.67 705.08,390.36 705.28,412.12 705.44,371.83 705.52,282.95 705.55,379.30 705.66,389.65 705.85,403.74 706.05,414.59 706.22,414.16 706.31,408.76 706.34,395.11 706.44,421.51 706.61,395.67 706.81,413.18 706.99,396.64 707.10,330.26 707.13,374.63 707.21,417.48 707.38,405.82 707.58,389.19 707.77,424.94 707.89,415.02 707.92,232.04 707.99,411.39 708.15,423.78 708.35,404.55 708.54,402.63 708.67,376.37 708.71,328.70 708.77,368.70 708.92,401.78 709.12,391.80 709.31,413.02 709.45,395.12 709.50,340.32 709.55,387.55 709.69,413.44 709.88,419.95 710.08,412.65 710.23,385.84 710.30,299.02 710.33,400.96 710.46,412.53 710.65,398.33 710.85,409.29 711.01,386.62 711.09,387.90 711.12,392.62 711.23,385.97 711.41,423.38 711.61,390.55 711.78,411.40 711.88,378.09 711.90,390.17 712.01,395.82 712.18,393.36 712.38,400.67 712.56,400.97 712.67,351.17 712.69,399.73 712.78,419.63 712.94,403.42 713.15,380.95 713.33,391.74 713.45,345.27 713.49,360.57 713.56,425.55 713.71,408.05 713.91,410.93 714.10,410.78 714.24,414.39 714.28,310.11 714.34,389.73 714.48,427.25 714.68,393.39 714.87,409.90 715.02,383.75 715.07,341.66 715.12,368.96 715.25,403.98 715.44,401.44 715.64,414.84 715.80,410.54 715.87,342.98 715.90,388.36 716.02,401.50 716.21,404.41 716.41,390.38 716.57,411.18 716.66,368.83 716.69,370.97 716.80,415.24 716.98,418.88 717.18,403.86 717.35,418.72 717.45,387.01 717.47,348.75 717.57,413.26 717.74,419.43 717.94,416.33 718.12,415.97 718.24,357.65 718.26,366.68 718.35,380.56 718.51,419.83 718.71,422.66 718.90,407.31 719.02,368.68 719.05,324.22 719.12,377.84 719.28,420.60 719.48,404.44 719.67,396.78 719.80,409.70 719.85,379.42 719.90,378.78 720.05,414.50 720.24,421.32 720.44,399.94 720.58,389.00 720.64,407.12 720.69,403.60 720.82,394.35 721.01,412.44 721.21,404.59 721.36,398.51 721.44,385.60 721.47,393.54 721.59,414.05 721.77,402.34 721.97,406.47 722.14,419.46 722.23,304.69 722.25,419.17 722.36,398.65 722.54,402.17 722.74,416.27 722.92,395.18 723.02,379.68 723.04,376.69 723.14,415.96 723.31,401.83 723.51,401.24 723.69,415.29 723.80,344.52 723.83,302.27 723.91,410.91 724.08,407.00 724.28,402.60 724.46,401.29 724.59,383.39 724.62,384.08 724.69,405.25 724.84,422.13 725.04,405.29 725.23,394.54 725.37,392.37 725.42,188.39 725.47,392.57 725.61,373.21 725.81,396.68 726.00,421.03 726.15,425.43 726.21,301.93 726.25,385.41 726.38,394.74 726.57,418.93 726.77,421.36 726.93,429.26 727.01,360.62 727.04,330.99 727.16,418.16 727.34,424.35 727.54,419.13 727.71,407.69 727.80,355.31 727.82,370.33 727.93,423.66 728.10,404.75 728.31,417.46 728.48,384.03 728.58,383.90 728.61,313.15 728.70,392.21 728.87,400.61 729.07,407.04 729.25,408.17 729.37,374.07 729.40,306.61 729.48,411.96 729.64,398.65 729.84,417.85 730.03,389.13 730.16,401.12 730.19,265.75 730.26,416.40 730.41,394.74 730.61,417.77 730.80,407.23 730.94,399.04 730.99,357.05 731.04,378.03 731.18,422.96 731.37,394.38 731.57,410.91 731.72,405.49 731.78,380.30 731.82,369.47 731.95,396.26 732.14,396.20 732.34,393.38 732.50,416.99 732.57,383.69 732.60,381.73 732.72,415.57 732.90,416.84 733.10,406.53 733.27,396.12 733.36,337.19 733.39,389.05 733.49,403.65 733.67,408.17 733.87,419.48 734.05,388.15 734.15,337.01 734.18,336.49 734.27,405.95 734.44,406.50 734.64,423.46 734.82,401.41 734.94,395.02 734.97,345.41 735.05,417.66 735.21,384.85 735.40,401.74 735.59,411.78 735.72,369.74 735.76,356.12 735.82,415.53 735.97,403.56 736.17,386.66 736.36,400.97 736.50,399.24 736.56,354.85 736.61,404.43 736.74,399.34 736.94,400.09 737.13,388.61 737.28,421.67 737.35,304.16 737.39,371.93 737.51,409.49 737.70,397.96 737.90,417.55 738.06,394.20 738.14,342.56 738.17,413.66 738.29,406.06 738.47,400.82 738.67,424.37 738.84,382.31 738.93,381.83 738.96,356.49 739.06,412.61 739.23,421.29 739.44,413.70 739.61,420.43 739.72,406.34 739.75,310.67 739.83,394.57 740.00,407.36 740.20,409.03 740.39,403.38 740.51,379.93 740.54,267.68 740.61,419.64 740.77,407.04 740.97,404.50 741.16,417.05 741.29,402.96 741.33,304.44 741.39,419.32 741.54,417.55 741.73,390.56 741.93,394.91 742.07,380.81 742.13,297.88 742.17,386.07 742.31,396.94 742.50,405.55 742.70,419.44 742.85,416.90 742.92,274.67 742.95,370.45 743.08,398.04 743.26,392.49 743.47,398.96 743.63,390.34 743.71,376.60 743.74,376.93 743.85,391.96 744.03,399.70 744.23,418.11 744.40,387.58 744.50,334.63 744.53,372.50 744.63,408.73 744.80,408.20 745.00,417.34 745.18,410.95 745.29,378.19 745.32,373.14 745.40,403.30 745.57,407.16 745.77,410.63 745.95,400.23 746.07,386.05 746.11,251.58 746.18,402.99 746.33,395.49 746.53,406.78 746.72,395.21 746.86,396.21 746.90,240.30 746.96,358.24 747.10,401.59 747.30,411.03 747.49,406.99 747.64,387.87 747.70,339.14 747.74,386.03 747.87,418.89 748.06,392.40 748.26,421.26 748.42,388.09 748.49,386.63 748.52,398.61 748.65,388.99 748.83,414.47 749.03,390.14 749.19,424.46 749.28,325.84 749.31,392.25 749.42,412.80 749.60,389.07 749.80,399.63 749.97,415.56 750.07,363.53 750.09,315.67 750.19,420.44 750.36,411.88 750.56,398.40 750.74,417.20 750.86,403.23 750.88,375.72 750.97,393.37 751.13,389.06 751.33,400.16 751.52,390.64 751.64,372.89 751.68,375.91 751.75,388.15 751.90,411.79 752.10,419.08 752.29,421.34 752.42,400.15 752.47,258.28 752.52,394.48 752.67,395.29 752.86,410.50 753.06,401.78 753.21,396.50 753.26,368.29 753.31,399.97 753.44,411.44 753.63,406.32 753.83,414.36 753.98,395.89 754.06,341.44 754.09,346.95 754.21,414.61 754.39,412.11 754.60,393.50 754.76,390.39 754.85,367.55 754.88,413.15 754.98,424.97 755.16,398.03 755.36,422.33 755.54,398.53 755.64,341.68 755.66,373.67 755.76,393.72 755.93,417.55 756.13,405.21 756.31,418.83 756.42,369.21 756.45,375.34 756.53,362.88 756.69,396.44 756.90,411.55 757.08,419.43 757.21,392.03 757.24,338.42 757.31,404.33 757.46,419.55 757.66,399.09 757.85,398.51 757.99,412.46 758.04,345.47 758.09,386.18 758.23,407.46 758.43,420.39 758.62,421.05 758.77,392.65 758.83,350.40 758.87,378.09 759.00,425.44 759.19,407.05 759.39,415.81 759.55,403.56 759.63,279.87 759.66,383.17 759.78,408.72 759.96,408.23 760.16,411.27 760.33,397.36 760.42,326.46 760.44,365.44 760.55,418.25 760.73,397.65 760.93,388.15 761.10,415.61 761.21,337.81 761.23,322.80 761.32,394.42 761.49,408.23 761.69,397.47 761.88,406.85 761.99,350.10 762.02,326.51 762.10,398.58 762.26,415.34 762.46,417.66 762.65,426.75 762.78,393.20 762.81,322.60 762.88,377.77 763.03,404.25 763.23,400.36 763.42,396.23 763.56,394.78 763.61,321.79 763.66,412.17 763.80,413.49 763.99,405.07 764.19,412.68 764.34,427.58 764.40,331.71 764.44,387.16 764.57,425.84 764.76,404.34 764.96,404.28 765.12,392.00 765.20,335.32 765.23,351.96 765.34,422.17 765.52,409.23 765.72,409.61 765.89,385.81 765.99,333.29 766.01,379.09 766.11,414.60 766.29,393.02 766.49,414.60 766.67,396.45 766.77,377.01 766.80,378.59 766.89,386.36 767.06,387.56 767.26,400.24 767.44,409.03 767.56,384.75 767.59,252.07 767.67,392.47 767.82,425.38 768.03,410.15 768.21,416.41 768.34,382.27 768.38,413.86 768.45,385.32 768.59,390.29 768.79,410.00 768.98,388.88 769.13,380.20 769.18,407.37 769.23,427.95 769.36,411.93 769.56,396.29 769.75,416.76 769.90,401.67 769.97,360.86 770.01,334.38 770.13,418.58 770.32,420.61 770.52,389.80 770.68,382.49 770.76,408.82 770.79,409.29 770.91,399.80 771.09,407.39 771.29,420.00 771.46,396.38 771.55,384.55 771.58,315.42 771.68,412.67 771.85,417.94 772.06,405.32 772.23,394.35 772.34,375.90 772.37,364.81 772.46,401.29 772.62,429.73 772.82,421.55 773.01,404.54 773.13,351.44 773.16,282.53 773.23,394.57 773.39,406.90 773.59,403.70 773.78,398.47 773.91,414.72 773.95,253.94 774.01,370.57 774.16,403.80 774.35,409.57 774.55,385.93 774.69,381.18 774.75,385.00 774.79,398.38 774.93,416.19 775.12,386.92 775.32,417.32 775.47,415.94 775.54,324.37 775.58,408.67 775.70,390.81 775.89,412.50 776.09,412.13 776.25,389.80 776.33,329.18 776.36,365.59 776.47,391.77 776.65,395.84 776.85,396.76 777.03,393.73 777.12,364.57 777.15,350.47 777.25,390.36 777.42,411.87 777.62,408.53 777.80,392.16 777.91,405.97 777.94,336.09 778.02,418.19 778.19,389.33 778.39,410.11 778.57,400.19 778.70,372.73 778.73,328.27 778.80,398.91 778.96,420.94 779.15,392.06 779.34,388.36 779.48,396.14 779.52,366.64 779.58,393.24 779.72,410.77 779.92,408.22 780.11,413.14 780.26,383.54 780.32,333.49 780.36,382.04 780.49,409.75 780.68,392.41 780.88,409.35 781.04,413.36 781.11,317.25 781.14,363.11 781.27,397.64 781.45,397.09 781.65,404.82 781.82,364.32 781.90,335.66 781.93,404.59 782.04,413.19 782.22,413.16 782.42,418.75 782.59,416.44 782.69,329.31 782.72,357.37 782.81,393.12 782.98,412.27 783.19,393.17 783.37,408.70 783.48,367.77 783.51,407.52 783.59,385.01 783.75,404.17 783.95,402.14 784.14,418.54 784.26,382.12 784.30,354.35 784.37,409.75 784.52,410.16 784.72,391.15 784.91,410.62 785.05,424.06 785.09,326.43 785.15,368.56 785.29,414.88 785.48,394.66 785.68,406.26 785.83,369.50 785.89,291.25 785.93,370.38 786.06,411.77 786.25,406.15 786.45,411.79 786.61,382.13 786.68,330.71 786.71,417.68 786.83,385.32 787.01,407.99 787.22,417.90 787.38,420.93 787.47,351.04 787.50,334.20 787.60,397.76 787.78,410.83 787.98,411.55 788.16,410.21 788.26,336.29 788.28,391.80 788.38,395.05 788.55,412.45 788.75,395.83 788.93,419.52 789.05,409.15 789.07,361.09 789.15,404.87 789.32,424.25 789.52,401.54 789.70,412.23 789.83,388.41 789.87,289.46 789.93,394.75 790.08,424.77 790.28,412.27 790.48,416.34 790.61,387.72 790.66,351.51 790.71,393.81 790.85,396.56 791.05,399.60 791.24,403.42 791.39,406.97 791.46,238.49 791.49,413.06 791.62,404.14 791.81,411.39 792.01,380.44 792.17,388.40 792.25,316.35 792.28,416.81 792.40,402.82 792.58,391.40 792.78,424.51 792.95,418.90 793.04,372.56 793.06,369.49 793.17,415.45 793.35,420.52 793.55,391.78 793.72,398.00 793.83,377.49 793.85,385.58 793.94,381.22 794.11,399.32 794.31,413.22 794.50,409.69 794.61,328.98 794.64,299.82 794.72,392.35 794.88,397.78 795.08,415.40 795.27,402.83 795.40,410.04 795.44,136.72 795.50,401.80 795.65,389.77 795.85,414.57 796.04,399.75 796.18,411.27 796.23,332.55 796.28,386.85 796.42,413.44 796.61,408.55 796.81,425.88 796.96,400.67 797.03,343.16 797.06,367.29 797.19,391.44 797.38,407.16 797.58,399.82 797.74,399.78 797.82,398.31 797.85,377.59 797.96,410.05 798.14,395.63 798.35,410.05 798.51,416.90 798.61,317.85 798.63,344.94 798.74,420.58 798.91,398.21 799.11,403.04 799.29,403.38 799.40,399.53 799.42,363.79 799.51,403.12 799.68,425.85 799.88,402.81 800.06,418.38 800.18,403.59 800.21,303.33 800.29,399.75 800.44,412.31 800.64,397.33 800.83,406.58 800.96,403.39 801.01,328.47 801.07,385.95 801.21,420.84 801.41,424.28 801.60,395.98 801.75,362.76 801.80,335.76 801.85,375.49 801.98,419.78 802.18,420.19 802.37,382.70 802.53,393.17 802.59,335.65 802.63,404.29 802.76,422.50 802.94,409.43 803.14,404.06 803.30,403.59 803.39,390.74 803.41,368.17 803.53,404.68 803.71,396.61 803.91,412.27 804.08,422.39 804.18,386.68 804.20,368.25 804.30,429.26 804.48,402.89 804.68,397.30 804.85,381.14 804.96,371.79 804.99,366.27 805.08,415.19 805.24,410.23 805.44,411.40 805.63,414.69 805.75,395.73 805.78,334.15 805.85,413.29 806.01,415.68 806.21,423.87 806.40,416.27 806.53,406.51 806.57,348.80 806.63,378.18 806.78,403.54 806.98,407.08 807.17,417.25 807.31,395.48 807.37,185.35 807.41,418.42 807.55,409.72 807.74,415.85 807.94,407.97 808.09,386.68 808.16,342.13 808.20,385.83 808.32,396.40 808.51,411.77 808.71,406.76 808.87,393.39 808.96,398.44 808.98,352.06 809.09,422.75 809.27,410.27 809.47,385.04 809.65,402.83 809.74,387.98 809.77,339.45 809.87,418.89 810.04,398.61 810.24,396.67 810.42,415.41 810.53,340.92 810.56,365.67 810.64,419.82 810.81,406.72 811.01,397.57 811.19,403.04 811.32,403.39 811.35,229.41 811.42,403.64 811.57,418.74 811.77,422.62 811.96,419.76 812.10,383.67 812.14,326.04 812.20,416.25 812.34,378.07 812.54,386.58 812.73,411.04 812.88,381.42 812.94,332.57 812.98,391.86 813.12,405.48 813.30,398.40 813.50,404.05 813.66,398.51 813.73,359.88 813.76,408.82 813.89,413.27 814.07,401.34 814.27,412.37 814.44,408.54 814.52,361.42 814.55,383.64 814.66,413.04 814.84,410.09 815.04,397.67 815.21,389.36 815.31,334.38 815.34,383.98 815.43,399.05 815.60,414.08 815.81,415.83 815.99,413.69 816.10,395.77 816.13,329.67 816.21,386.17 816.37,393.25 816.57,419.15 816.76,421.26 816.88,343.36 816.92,314.57 816.99,411.16 817.14,402.17 817.34,410.20 817.53,419.85 817.67,416.09 817.71,271.36 817.77,415.35 817.91,409.85 818.10,423.93 818.30,414.43 818.45,405.49 818.51,390.81 818.55,399.57 818.68,389.52 818.87,416.45 819.07,421.85 819.23,400.03 819.30,326.27 819.33,400.12 819.45,407.01 819.64,390.97 819.84,401.13 820.00,390.13 820.09,383.94 820.12,352.27 820.22,400.32 820.40,395.04 820.60,388.21 820.78,383.38 820.88,340.00 820.91,394.37 821.00,398.99 821.17,411.73 821.37,415.12 821.55,414.14 821.67,369.18 821.70,290.50 821.78,391.04 821.94,396.94 822.14,410.29 822.32,394.15 822.45,384.30 822.49,296.76 822.55,399.52 822.71,408.42 822.90,417.07 823.09,408.35 823.23,365.37 823.28,414.30 823.33,378.28 823.48,397.45 823.67,417.57 823.87,391.28 824.01,388.88 824.08,220.26 824.12,372.58 824.24,410.20 824.43,399.19 824.63,398.16 824.79,404.17 824.87,400.68 824.90,396.45 825.02,421.49 825.20,428.70 825.40,412.49 825.57,396.18 825.66,371.52 825.69,388.60 825.79,415.38 825.97,405.20 826.17,389.74 826.34,389.24 826.45,407.10 826.47,406.58 826.57,414.30 826.73,403.48 826.94,414.09 827.12,411.02 827.24,411.87 827.27,382.21 827.34,400.26 827.50,410.14 827.70,414.58 827.89,396.29 828.02,352.46 828.06,331.01 828.12,419.16 828.27,393.61 828.47,402.85 828.66,394.47 828.80,392.21 828.85,284.92 828.90,393.04 829.04,412.95 829.23,405.68 829.43,382.06 829.58,389.78 829.65,282.38 829.68,384.05 829.81,384.28 830.00,389.78 830.20,428.98 830.36,389.04 830.44,352.74 830.47,382.30 830.58,410.48 830.77,406.50 830.97,412.99 831.14,418.65 831.23,381.13 831.25,350.16 831.36,406.80 831.53,396.50 831.73,407.61 831.91,404.59 832.02,385.89 832.04,409.38 832.13,389.63 832.30,413.39 832.50,412.94 832.68,421.71 832.80,412.00 832.83,332.97 832.91,410.40 833.07,415.02 833.26,409.97 833.45,393.26 833.59,377.03 833.63,295.64 833.69,380.73 833.83,408.05 834.03,390.31 834.23,421.34 834.37,387.02 834.42,350.97 834.47,406.20 834.60,429.14 834.80,426.26 834.99,388.80 835.15,410.36 835.22,325.75 835.25,415.90 835.38,400.49 835.56,391.50 835.76,395.44 835.93,405.13 836.01,286.50 836.04,396.17 836.15,385.88 836.33,417.12 836.53,402.84 836.70,419.30 836.80,362.88 836.82,403.36 836.92,401.46 837.09,395.73 837.30,423.56 837.48,399.15 837.59,373.93 837.61,319.05 837.70,398.25 837.86,427.95 838.06,390.86 838.25,394.66 838.37,396.88 838.40,404.10 838.48,404.84 838.63,419.37 838.83,410.47 839.02,411.66 839.15,369.67 839.20,276.34 839.25,400.05 839.40,406.86 839.60,407.67 839.79,408.11 839.93,401.81 839.99,356.99 840.03,402.93 840.17,396.41 840.36,398.58 840.56,413.42 840.71,376.43 840.79,353.98 840.82,399.34 840.94,410.66 841.13,395.62 841.33,422.16 841.49,402.55 841.58,391.64 841.60,397.20 841.71,393.07 841.89,420.08 842.10,392.38 842.27,399.11 842.37,348.38 842.39,321.97 842.49,417.84 842.66,416.59 842.86,417.57 843.04,414.39 843.15,384.24 843.18,350.75 843.26,368.15 843.43,404.65 843.63,395.88 843.81,395.33 843.94,349.36 843.97,232.48 844.04,391.07 844.19,418.83 844.39,410.51 844.59,402.26 844.72,394.10 844.77,365.83 844.82,399.87 844.96,418.95 845.16,405.14 845.35,398.38 845.50,359.99 845.56,372.56 845.60,401.09 845.74,397.81 845.93,410.50 846.12,424.42 846.28,400.30 846.35,338.15 846.39,394.32 846.51,403.08 846.69,430.44 846.89,408.82 847.06,409.18 847.15,339.18 847.17,415.34 847.28,392.96 847.46,410.53 847.66,408.45 847.83,396.08 847.93,406.90 847.96,409.63 848.05,419.73 848.22,412.72 848.42,395.38 848.61,411.35 848.72,395.36 848.75,292.35 848.83,406.39 848.99,399.92 849.19,407.61 849.38,388.88 849.50,381.27 849.54,362.08 849.61,390.39 849.76,407.67 849.96,397.67 850.15,399.04 850.29,375.23 850.34,293.00 850.39,408.59 850.53,412.31 850.72,422.25 850.92,399.91 851.07,411.03 851.13,346.57 851.17,391.26 851.30,415.84 851.49,405.17 851.69,424.42 851.85,401.84 851.92,369.89 851.95,366.37 852.07,396.15 852.26,414.53 852.46,393.81 852.62,387.06 852.71,337.51 852.74,364.45 852.84,416.76 853.02,391.61 853.22,409.61 853.40,384.47 853.50,390.54 853.53,410.47 853.62,423.72 853.79,398.27 853.99,387.89 854.17,405.66 854.29,368.80 854.32,350.81 854.40,383.84 854.56,401.20 854.76,416.65 854.95,377.83 855.07,417.32 855.11,325.59 855.18,405.64 855.32,412.88 855.52,408.90 855.71,403.30 855.85,406.42 855.90,325.64 855.95,398.14 856.10,382.05 856.29,410.81 856.48,390.35 856.64,378.22 856.70,383.57 856.74,394.29 856.87,422.75 857.05,394.07 857.25,406.92 857.41,377.74 857.49,380.02 857.52,386.09 857.64,413.21 857.82,405.18 858.02,396.33 858.19,389.90 858.28,345.71 858.31,383.64 858.41,387.08 858.59,407.32 858.79,401.34 858.96,392.97 859.07,411.44 859.10,388.67 859.19,384.63 859.35,413.39 859.55,415.73 859.74,413.11 859.86,365.23 859.89,237.54 859.96,392.38 860.12,402.88 860.32,393.43 860.51,417.91 860.64,390.28 860.68,267.72 860.74,398.86 860.89,429.16 861.09,417.53 861.28,419.56 861.42,402.05 861.47,291.69 861.52,368.70 861.66,397.37 861.85,426.50 862.05,409.77 862.20,369.38 862.27,179.04 862.30,375.49 862.43,413.41 862.62,387.65 862.82,403.37 862.98,380.11 863.06,376.92 863.09,364.94 863.20,412.32 863.38,401.66 863.58,385.30 863.76,398.07 863.85,388.07 863.88,391.24 863.98,400.54 864.15,408.45 864.35,424.85 864.53,414.09 864.64,406.28 864.66,374.32 864.75,412.12 864.92,407.85 865.12,416.28 865.30,400.28 865.42,375.22 865.46,384.44 865.53,414.52 865.69,405.27 865.89,398.80 866.07,417.68 866.21,406.09 866.25,335.13 866.31,393.08 866.46,402.06 866.65,408.33 866.85,426.48 866.99,374.28 867.04,366.75 867.09,403.53 867.23,412.42 867.42,405.49 867.62,399.11 867.77,415.03 867.84,323.92 867.87,355.59 868.00,400.26 868.18,401.22 868.38,408.45 868.55,377.28 868.63,348.71 868.66,421.59 868.77,400.47 868.95,397.16 869.15,411.86 869.32,406.96 869.42,378.80 869.44,383.22 869.54,412.93 869.71,409.98 869.92,402.30 870.10,395.31 870.21,352.60 870.23,329.42 870.32,421.90 870.48,409.55 870.68,418.55 870.87,399.01 870.99,385.84 871.02,298.48 871.10,404.85 871.25,422.79 871.45,408.58 871.64,398.86 871.77,397.00 871.82,319.33 871.88,397.20 872.02,398.03 872.21,402.49 872.41,410.49 872.56,390.32 872.61,357.31 872.66,407.77 872.79,423.21 872.98,408.70 873.18,404.39 873.33,395.69 873.41,230.55 873.44,345.93 873.56,381.56 873.75,420.24 873.95,400.66 874.11,415.20 874.20,341.91 874.22,345.89 874.33,392.01 874.51,402.73 874.71,408.40 874.89,417.51 874.99,327.97 875.01,320.38 875.11,413.66 875.28,414.46 875.48,415.68 875.66,388.85 875.77,407.82 875.80,347.68 875.88,391.97 876.05,399.08 876.25,421.40 876.43,410.47 876.56,385.54 876.59,338.88 876.66,377.27 876.82,411.12 877.01,394.08 877.21,421.98 877.34,403.06 877.39,310.44 877.44,393.45 877.59,401.33 877.78,407.85 877.98,396.41 878.12,401.13 878.18,338.01 878.22,363.36 878.35,412.98 878.55,400.26 878.75,415.37 878.90,411.77 878.98,391.51 879.01,386.27 879.13,411.28 879.31,417.54 879.51,421.79 879.68,407.91 879.77,342.70 879.79,364.01 879.90,422.74 880.08,395.37 880.28,425.07 880.45,417.94 880.56,366.13 880.58,286.01 880.68,425.83 880.84,407.73 881.05,397.75 881.23,397.98 881.34,404.98 881.37,341.31 881.45,416.81 881.61,389.47 881.81,416.31 882.00,400.53 882.13,383.21 882.16,271.08 882.23,393.45 882.38,419.77 882.58,388.94 882.77,418.06 882.91,377.07 882.96,341.48 883.01,387.15 883.15,408.56 883.34,402.61 883.54,395.40 883.69,406.26 883.75,291.32 883.79,397.63 883.92,403.72 884.11,411.91 884.31,414.24 884.47,421.39 884.54,412.13 884.57,387.60 884.69,411.14 884.88,407.93 885.08,422.24 885.25,419.23 885.34,346.29 885.36,355.67 885.47,411.51 885.64,396.65 885.84,418.24 886.02,406.69 886.12,396.67 886.15,368.23 886.24,405.76 886.41,416.41 886.61,411.66 886.79,403.60 886.91,384.94 886.94,338.99 887.02,413.88 887.18,383.16 887.38,400.15 887.57,424.04 887.69,378.59 887.73,403.86 887.75,410.07 887.80,421.58 887.87,412.54 887.94,416.08 887.98,414.22 888.00,399.77" fill="none" stroke="#000" stroke-width="1.5" opacity="0.9"/>
<text x="500.0" y="502" font-family="Times New Roman" font-size="19" text-anchor="middle">Julian Date</text>
<text transform="translate(18,247.0) rotate(-90)" font-family="Times New Roman" font-size="19" text-anchor="middle">velocity residual (mm/s)</text>
</svg>
